<svg width="100%" height="100%" viewBox="0 0 1278 1278" fill="none" xmlns="http://www.w3.org/2000/svg">
<path d="M786.5 663C786.5 743.261 721.23 808.5 640.5 808.5C559.77 808.5 494.5 743.261 494.5 663C494.5 582.739 559.77 517.5 640.5 517.5C721.23 517.5 786.5 582.739 786.5 663Z" stroke="#75D573" stroke-width="75"/>
<path d="M907.5 892C907.5 907.188 895.188 919.5 880 919.5C864.812 919.5 852.5 907.188 852.5 892C852.5 876.812 864.812 864.5 880 864.5C895.188 864.5 907.5 876.812 907.5 892Z" stroke="#75D573" stroke-width="75"/>
<path d="M376.5 986.5C376.5 1024.22 346.111 1054.5 309 1054.5C271.889 1054.5 241.5 1024.22 241.5 986.5C241.5 948.776 271.889 918.5 309 918.5C346.111 918.5 376.5 948.776 376.5 986.5Z" stroke="#75D573" stroke-width="75"/>
<path d="M996.5 377.5C996.5 425.549 957.549 464.5 909.5 464.5C861.451 464.5 822.5 425.549 822.5 377.5C822.5 329.451 861.451 290.5 909.5 290.5C957.549 290.5 996.5 329.451 996.5 377.5Z" stroke="#75D573" stroke-width="75"/>
<path d="M376.5 292.5C376.5 334.474 342.474 368.5 300.5 368.5C258.526 368.5 224.5 334.474 224.5 292.5C224.5 250.526 258.526 216.5 300.5 216.5C342.474 216.5 376.5 250.526 376.5 292.5Z" stroke="#75D573" stroke-width="75"/>
<path d="M689.5 1004.5C689.5 1031.91 667.092 1054.5 639 1054.5C610.908 1054.5 588.5 1031.91 588.5 1004.5C588.5 977.087 610.908 954.5 639 954.5C667.092 954.5 689.5 977.087 689.5 1004.5Z" stroke="#75D573" stroke-width="75"/>
<line x1="537.263" y1="757.517" x2="344.516" y2="950.263" stroke="#75D573" stroke-width="75"/>
<line x1="650.5" y1="827" x2="650.5" y2="945" stroke="#75D573" stroke-width="75"/>
<line x1="850.183" y1="444.297" x2="749.154" y2="545.326" stroke="#75D573" stroke-width="75"/>
<line x1="853.949" y1="868.433" x2="758.042" y2="772.525" stroke="#75D573" stroke-width="75"/>
<line x1="547.004" y1="546.037" x2="371.483" y2="370.517" stroke="#75D573" stroke-width="75"/>
</svg>
