<svg width="1335" height="340" viewBox="0 0 1335 340" fill="none" xmlns="http://www.w3.org/2000/svg">
<path d="M331.498 20.8223C331.498 18.5618 332.063 16.7617 333.193 15.4219C334.324 14.082 335.941 13.4121 338.047 13.4121C339.797 13.4121 341.246 14.0273 342.395 15.2578C343.552 16.4792 344.131 18.4342 344.131 21.123C344.131 21.5332 343.944 21.7383 343.57 21.7383H334.041C334.196 23.4974 334.67 24.7233 335.463 25.416C336.256 26.0996 337.154 26.4414 338.156 26.4414C339.214 26.4414 340.025 26.2637 340.59 25.9082C341.155 25.5527 341.57 25.2018 341.834 24.8555C342.126 24.4727 342.408 24.3997 342.682 24.6367L343.488 25.334C343.698 25.5163 343.698 25.7669 343.488 26.0859C343.315 26.3503 342.818 26.7741 341.998 27.3574C341.187 27.9408 339.906 28.2324 338.156 28.2324C335.878 28.2324 334.196 27.5625 333.111 26.2227C332.036 24.8828 331.498 23.0827 331.498 20.8223ZM333.986 19.9609H341.711C341.674 18.6849 341.346 17.5684 340.727 16.6113C340.107 15.6452 339.195 15.1621 337.992 15.1621C336.935 15.1621 336.037 15.5176 335.299 16.2285C334.561 16.9303 334.123 18.1745 333.986 19.9609ZM346.729 26.6602C346.446 26.3958 346.387 26.1497 346.551 25.9219L347.166 25.0605C347.367 24.7871 347.663 24.8008 348.055 25.1016C348.592 25.5117 349.189 25.8398 349.846 26.0859C350.511 26.332 351.268 26.4551 352.115 26.4551C352.617 26.4551 353.063 26.3958 353.455 26.2773C353.847 26.1497 354.189 25.9173 354.48 25.5801C354.781 25.2428 354.932 24.7917 354.932 24.2266C354.932 23.8984 354.859 23.5885 354.713 23.2969C354.576 23.0052 354.357 22.7728 354.057 22.5996C353.765 22.4173 353.478 22.276 353.195 22.1758C352.73 22.0026 352.266 21.8613 351.801 21.752C351.345 21.6335 350.743 21.4557 349.996 21.2188C349.495 21.0638 349.021 20.8451 348.574 20.5625C348.128 20.2708 347.736 19.8789 347.398 19.3867C347.07 18.8945 346.906 18.2155 346.906 17.3496C346.906 16.4655 347.175 15.7044 347.713 15.0664C348.251 14.4284 348.925 13.9954 349.736 13.7676C350.548 13.5306 351.336 13.4121 352.102 13.4121C353.232 13.4121 354.139 13.5443 354.822 13.8086C355.515 14.0638 356.112 14.3691 356.613 14.7246C356.905 14.9342 356.946 15.1758 356.736 15.4492L356.121 16.2695C355.93 16.5339 355.633 16.5247 355.232 16.2422C354.895 16.0052 354.417 15.7819 353.797 15.5723C353.177 15.3626 352.635 15.2578 352.17 15.2578C351.596 15.2578 351.104 15.3216 350.693 15.4492C350.283 15.5768 349.951 15.7956 349.695 16.1055C349.44 16.4154 349.312 16.7799 349.312 17.1992C349.312 17.5182 349.363 17.8053 349.463 18.0605C349.563 18.3066 349.75 18.5345 350.023 18.7441C350.297 18.9538 350.68 19.1224 351.172 19.25C351.938 19.4505 352.635 19.6328 353.264 19.7969C353.902 19.9609 354.476 20.1615 354.986 20.3984C355.652 20.7083 356.162 21.0501 356.518 21.4238C356.882 21.7975 357.133 22.2031 357.27 22.6406C357.406 23.069 357.475 23.5475 357.475 24.0762C357.475 25.0514 357.183 25.8763 356.6 26.5508C356.025 27.2253 355.383 27.6764 354.672 27.9043C353.961 28.123 353.104 28.2324 352.102 28.2324C350.743 28.2324 349.577 28.041 348.602 27.6582C347.635 27.2663 347.011 26.9336 346.729 26.6602ZM359.498 15.4492C359.088 15.4492 358.883 15.2897 358.883 14.9707V14.123C358.883 13.804 359.088 13.6445 359.498 13.6445H361.111V12.4141C361.111 12.2318 361.157 12.0586 361.248 11.8945L362.205 10.1582C362.378 9.83919 362.52 9.67969 362.629 9.67969H363.107C363.381 9.67969 363.518 9.83919 363.518 10.1582V13.6445H366.43C366.84 13.6445 367.045 13.804 367.045 14.123V14.9707C367.045 15.2897 366.84 15.4492 366.43 15.4492H363.518V24.1582C363.518 25.1152 363.659 25.7396 363.941 26.0312C364.233 26.3138 364.579 26.4551 364.98 26.4551C365.29 26.4551 365.66 26.3639 366.088 26.1816C366.525 25.9993 366.826 25.8444 366.99 25.7168C367.154 25.5892 367.282 25.6302 367.373 25.8398L367.824 26.8926C367.897 27.0749 367.842 27.2207 367.66 27.3301C367.305 27.5397 366.785 27.7448 366.102 27.9453C365.418 28.1367 364.734 28.2324 364.051 28.2324C363.103 28.2324 362.374 27.8906 361.863 27.207C361.362 26.5234 361.111 25.5573 361.111 24.3086V15.4492H359.498ZM371.174 28C370.764 28 370.559 27.7949 370.559 27.3848V14.2598C370.559 13.8496 370.764 13.6445 371.174 13.6445H372.35C372.76 13.6445 372.965 13.8496 372.965 14.2598V27.3848C372.965 27.7949 372.76 28 372.35 28H371.174ZM371.174 11.0469C370.764 11.0469 370.559 10.8418 370.559 10.4316V9.25586C370.559 8.8457 370.764 8.64062 371.174 8.64062H372.35C372.76 8.64062 372.965 8.8457 372.965 9.25586V10.4316C372.965 10.8418 372.76 11.0469 372.35 11.0469H371.174ZM377.463 28C377.053 28 376.848 27.7949 376.848 27.3848V14.2598C376.848 13.8496 377.053 13.6445 377.463 13.6445H378.611C379.021 13.6445 379.227 13.8496 379.227 14.2598V15.3535H379.281C379.874 14.6973 380.516 14.2096 381.209 13.8906C381.902 13.5716 382.567 13.4121 383.205 13.4121C384.381 13.4121 385.283 13.7083 385.912 14.3008C386.55 14.8841 386.96 15.472 387.143 16.0645H387.197C387.699 15.3171 388.332 14.6882 389.098 14.1777C389.863 13.6673 390.679 13.4121 391.545 13.4121C392.994 13.4121 394.088 13.8815 394.826 14.8203C395.564 15.75 395.934 17.026 395.934 18.6484V27.3848C395.934 27.7949 395.729 28 395.318 28H394.143C393.732 28 393.527 27.7949 393.527 27.3848V19.4414C393.527 17.6549 393.304 16.502 392.857 15.9824C392.411 15.4538 391.723 15.1895 390.793 15.1895C389.882 15.1895 389.12 15.5814 388.51 16.3652C387.899 17.14 387.594 18.3112 387.594 19.8789V27.3848C387.594 27.7949 387.389 28 386.979 28H385.803C385.393 28 385.188 27.7949 385.188 27.3848V19.4414C385.188 17.6549 384.964 16.502 384.518 15.9824C384.071 15.4538 383.383 15.1895 382.453 15.1895C381.542 15.1895 380.781 15.5449 380.17 16.2559C379.559 16.9577 379.254 18.1654 379.254 19.8789V27.3848C379.254 27.7949 379.049 28 378.639 28H377.463ZM399.01 24.1719C399.01 22.5495 399.766 21.36 401.279 20.6035C402.801 19.847 405.071 19.4049 408.088 19.2773V18.3477C408.088 17.4909 407.892 16.7526 407.5 16.1328C407.117 15.5039 406.352 15.1895 405.203 15.1895C404.474 15.1895 403.891 15.2624 403.453 15.4082C403.016 15.5449 402.615 15.7318 402.25 15.9688C401.895 16.1966 401.553 16.4928 401.225 16.8574C400.979 17.1309 400.746 17.1445 400.527 16.8984L399.816 16.0781C399.616 15.8503 399.684 15.5768 400.021 15.2578C400.505 14.8021 400.974 14.4603 401.43 14.2324C401.885 14.0046 402.451 13.8132 403.125 13.6582C403.809 13.4941 404.501 13.4121 405.203 13.4121C407.108 13.4121 408.466 13.9043 409.277 14.8887C410.089 15.8639 410.494 17.2038 410.494 18.9082V27.3848C410.494 27.7949 410.289 28 409.879 28H408.648C408.293 28 408.115 27.7949 408.115 27.3848V26.7148H408.088C407.368 27.2799 406.661 27.6764 405.969 27.9043C405.285 28.123 404.52 28.2324 403.672 28.2324C402.177 28.2324 401.024 27.877 400.213 27.166C399.411 26.446 399.01 25.4479 399.01 24.1719ZM401.498 24.2266C401.498 24.7917 401.617 25.2474 401.854 25.5938C402.09 25.931 402.419 26.1497 402.838 26.25C403.257 26.3411 403.695 26.3867 404.15 26.3867C404.852 26.3867 405.518 26.3184 406.146 26.1816C406.775 26.0449 407.423 25.6849 408.088 25.1016V21.0684C406.247 21.2051 404.934 21.3737 404.15 21.5742C403.367 21.7656 402.729 22.1029 402.236 22.5859C401.744 23.0599 401.498 23.6068 401.498 24.2266ZM413.693 15.4492C413.283 15.4492 413.078 15.2897 413.078 14.9707V14.123C413.078 13.804 413.283 13.6445 413.693 13.6445H415.307V12.4141C415.307 12.2318 415.352 12.0586 415.443 11.8945L416.4 10.1582C416.574 9.83919 416.715 9.67969 416.824 9.67969H417.303C417.576 9.67969 417.713 9.83919 417.713 10.1582V13.6445H420.625C421.035 13.6445 421.24 13.804 421.24 14.123V14.9707C421.24 15.2897 421.035 15.4492 420.625 15.4492H417.713V24.1582C417.713 25.1152 417.854 25.7396 418.137 26.0312C418.428 26.3138 418.775 26.4551 419.176 26.4551C419.486 26.4551 419.855 26.3639 420.283 26.1816C420.721 25.9993 421.021 25.8444 421.186 25.7168C421.35 25.5892 421.477 25.6302 421.568 25.8398L422.02 26.8926C422.092 27.0749 422.038 27.2207 421.855 27.3301C421.5 27.5397 420.98 27.7448 420.297 27.9453C419.613 28.1367 418.93 28.2324 418.246 28.2324C417.298 28.2324 416.569 27.8906 416.059 27.207C415.557 26.5234 415.307 25.5573 415.307 24.3086V15.4492H413.693ZM423.975 20.8223C423.975 18.5618 424.54 16.7617 425.67 15.4219C426.8 14.082 428.418 13.4121 430.523 13.4121C432.273 13.4121 433.723 14.0273 434.871 15.2578C436.029 16.4792 436.607 18.4342 436.607 21.123C436.607 21.5332 436.421 21.7383 436.047 21.7383H426.518C426.673 23.4974 427.146 24.7233 427.939 25.416C428.732 26.0996 429.63 26.4414 430.633 26.4414C431.69 26.4414 432.501 26.2637 433.066 25.9082C433.632 25.5527 434.046 25.2018 434.311 24.8555C434.602 24.4727 434.885 24.3997 435.158 24.6367L435.965 25.334C436.174 25.5163 436.174 25.7669 435.965 26.0859C435.792 26.3503 435.295 26.7741 434.475 27.3574C433.663 27.9408 432.383 28.2324 430.633 28.2324C428.354 28.2324 426.673 27.5625 425.588 26.2227C424.512 24.8828 423.975 23.0827 423.975 20.8223ZM426.463 19.9609H434.188C434.151 18.6849 433.823 17.5684 433.203 16.6113C432.583 15.6452 431.672 15.1621 430.469 15.1621C429.411 15.1621 428.514 15.5176 427.775 16.2285C427.037 16.9303 426.6 18.1745 426.463 19.9609ZM448.311 20.8223C448.311 18.6803 448.876 16.9121 450.006 15.5176C451.145 14.1139 452.809 13.4121 454.996 13.4121C457.184 13.4121 458.842 14.1139 459.973 15.5176C461.112 16.9121 461.682 18.6803 461.682 20.8223C461.682 22.9642 461.112 24.737 459.973 26.1406C458.842 27.5352 457.184 28.2324 454.996 28.2324C452.809 28.2324 451.145 27.5352 450.006 26.1406C448.876 24.737 448.311 22.9642 448.311 20.8223ZM450.854 20.8223C450.854 22.7363 451.232 24.1536 451.988 25.0742C452.745 25.9948 453.747 26.4551 454.996 26.4551C456.245 26.4551 457.247 25.9948 458.004 25.0742C458.76 24.1536 459.139 22.7363 459.139 20.8223C459.139 18.9082 458.76 17.4909 458.004 16.5703C457.247 15.6497 456.245 15.1895 454.996 15.1895C453.747 15.1895 452.745 15.6497 451.988 16.5703C451.232 17.4909 450.854 18.9082 450.854 20.8223ZM464.074 15.4492C463.664 15.4492 463.459 15.2897 463.459 14.9707V14.123C463.459 13.804 463.664 13.6445 464.074 13.6445H465.537V11.6074C465.537 10.0853 465.947 9.03711 466.768 8.46289C467.588 7.87956 468.527 7.58789 469.584 7.58789C470.213 7.58789 470.719 7.61979 471.102 7.68359C471.493 7.7474 471.954 7.88867 472.482 8.10742C472.683 8.18945 472.742 8.33529 472.66 8.54492L472.236 9.625C472.163 9.80729 472.004 9.84375 471.758 9.73438C471.557 9.64323 471.311 9.5612 471.02 9.48828C470.728 9.40625 470.413 9.36523 470.076 9.36523C469.32 9.36523 468.773 9.54753 468.436 9.91211C468.107 10.2767 467.943 10.974 467.943 12.0039V13.6445H470.445C470.855 13.6445 471.061 13.804 471.061 14.123V14.9707C471.061 15.2897 470.855 15.4492 470.445 15.4492H467.943V27.3848C467.943 27.7949 467.738 28 467.328 28H466.152C465.742 28 465.537 27.7949 465.537 27.3848V15.4492H464.074ZM482.244 20.8223C482.244 18.5618 482.809 16.7617 483.939 15.4219C485.07 14.082 486.688 13.4121 488.793 13.4121C490.543 13.4121 491.992 14.0273 493.141 15.2578C494.298 16.4792 494.877 18.4342 494.877 21.123C494.877 21.5332 494.69 21.7383 494.316 21.7383H484.787C484.942 23.4974 485.416 24.7233 486.209 25.416C487.002 26.0996 487.9 26.4414 488.902 26.4414C489.96 26.4414 490.771 26.2637 491.336 25.9082C491.901 25.5527 492.316 25.2018 492.58 24.8555C492.872 24.4727 493.154 24.3997 493.428 24.6367L494.234 25.334C494.444 25.5163 494.444 25.7669 494.234 26.0859C494.061 26.3503 493.564 26.7741 492.744 27.3574C491.933 27.9408 490.652 28.2324 488.902 28.2324C486.624 28.2324 484.942 27.5625 483.857 26.2227C482.782 24.8828 482.244 23.0827 482.244 20.8223ZM484.732 19.9609H492.457C492.421 18.6849 492.092 17.5684 491.473 16.6113C490.853 15.6452 489.941 15.1621 488.738 15.1621C487.681 15.1621 486.783 15.5176 486.045 16.2285C485.307 16.9303 484.869 18.1745 484.732 19.9609ZM498.65 28C498.24 28 498.035 27.7949 498.035 27.3848V14.2598C498.035 13.8496 498.24 13.6445 498.65 13.6445H499.799C500.209 13.6445 500.414 13.8496 500.414 14.2598V15.3535H500.469C501.061 14.6973 501.699 14.2096 502.383 13.8906C503.066 13.5716 503.919 13.4121 504.939 13.4121C506.598 13.4121 507.788 13.8815 508.508 14.8203C509.237 15.75 509.602 17.026 509.602 18.6484V27.3848C509.602 27.7949 509.396 28 508.986 28H507.811C507.4 28 507.195 27.7949 507.195 27.3848V19.3047C507.195 17.5182 506.899 16.388 506.307 15.9141C505.714 15.431 504.962 15.1895 504.051 15.1895C502.866 15.1895 501.968 15.5449 501.357 16.2559C500.747 16.9577 500.441 18.1654 500.441 19.8789V27.3848C500.441 27.7949 500.236 28 499.826 28H498.65ZM512.678 20.8223C512.678 18.5618 513.243 16.7617 514.373 15.4219C515.503 14.082 517.121 13.4121 519.227 13.4121C520.977 13.4121 522.426 14.0273 523.574 15.2578C524.732 16.4792 525.311 18.4342 525.311 21.123C525.311 21.5332 525.124 21.7383 524.75 21.7383H515.221C515.376 23.4974 515.85 24.7233 516.643 25.416C517.436 26.0996 518.333 26.4414 519.336 26.4414C520.393 26.4414 521.204 26.2637 521.77 25.9082C522.335 25.5527 522.749 25.2018 523.014 24.8555C523.305 24.4727 523.588 24.3997 523.861 24.6367L524.668 25.334C524.878 25.5163 524.878 25.7669 524.668 26.0859C524.495 26.3503 523.998 26.7741 523.178 27.3574C522.367 27.9408 521.086 28.2324 519.336 28.2324C517.057 28.2324 515.376 27.5625 514.291 26.2227C513.215 24.8828 512.678 23.0827 512.678 20.8223ZM515.166 19.9609H522.891C522.854 18.6849 522.526 17.5684 521.906 16.6113C521.286 15.6452 520.375 15.1621 519.172 15.1621C518.115 15.1621 517.217 15.5176 516.479 16.2285C515.74 16.9303 515.303 18.1745 515.166 19.9609ZM529.084 28C528.674 28 528.469 27.7949 528.469 27.3848V14.2598C528.469 13.8496 528.674 13.6445 529.084 13.6445H530.232C530.643 13.6445 530.848 13.8496 530.848 14.2598V15.9004H530.902C531.34 15.0801 531.855 14.4603 532.447 14.041C533.04 13.6217 533.778 13.4121 534.662 13.4121C535.245 13.4121 535.656 13.4622 535.893 13.5625C536.102 13.6445 536.18 13.7812 536.125 13.9727L535.811 15.0938C535.765 15.2578 535.646 15.3216 535.455 15.2852C535.136 15.2214 534.835 15.1895 534.553 15.1895C533.486 15.1895 532.607 15.6725 531.914 16.6387C531.221 17.5957 530.875 18.9036 530.875 20.5625V27.3848C530.875 27.7949 530.67 28 530.26 28H529.084ZM537.561 20.8223C537.561 18.8626 538.035 17.14 538.982 15.6543C539.93 14.1595 541.316 13.4121 543.139 13.4121C544.187 13.4121 545.025 13.5853 545.654 13.9316C546.283 14.278 546.848 14.752 547.35 15.3535H547.377L547.459 14.2598C547.486 13.8496 547.664 13.6445 547.992 13.6445H549.141C549.551 13.6445 549.756 13.8496 549.756 14.2598V28.1094C549.756 29.8594 549.35 31.2266 548.539 32.2109C547.737 33.2044 546.146 33.7012 543.768 33.7012C542.173 33.7012 540.979 33.5189 540.186 33.1543C539.393 32.7988 538.827 32.4206 538.49 32.0195C538.244 31.7188 538.23 31.4635 538.449 31.2539L539.201 30.5156C539.411 30.3151 539.702 30.3789 540.076 30.707C540.559 31.1445 541.024 31.4544 541.471 31.6367C541.917 31.8281 542.688 31.9238 543.781 31.9238C545.021 31.9238 545.923 31.6595 546.488 31.1309C547.062 30.6022 547.35 29.5085 547.35 27.8496V27.0293C547.35 26.7467 547.359 26.4688 547.377 26.1953H547.35C546.876 26.8242 546.315 27.321 545.668 27.6855C545.03 28.0501 544.187 28.2324 543.139 28.2324C541.316 28.2324 539.93 27.4896 538.982 26.0039C538.035 24.5091 537.561 22.7819 537.561 20.8223ZM540.104 20.8223C540.104 22.4993 540.391 23.8574 540.965 24.8965C541.548 25.9355 542.533 26.4551 543.918 26.4551C544.902 26.4551 545.718 26.1224 546.365 25.457C547.021 24.7826 547.35 23.7617 547.35 22.3945V19.25C547.35 17.8828 547.021 16.8665 546.365 16.2012C545.718 15.5267 544.902 15.1895 543.918 15.1895C542.533 15.1895 541.548 15.709 540.965 16.748C540.391 17.7871 540.104 19.1452 540.104 20.8223ZM552.654 14.3145C552.49 13.8678 552.613 13.6445 553.023 13.6445H554.514C554.814 13.6445 555.02 13.8223 555.129 14.1777L558 23.2012C558.082 23.4473 558.205 23.8346 558.369 24.3633C558.542 24.8828 558.665 25.3477 558.738 25.7578H558.766C558.839 25.3477 558.925 24.9785 559.025 24.6504C559.135 24.3132 559.294 23.8301 559.504 23.2012L562.402 14.1777C562.521 13.8223 562.726 13.6445 563.018 13.6445H564.508C564.918 13.6445 565.041 13.8678 564.877 14.3145L560.27 27.166C559.404 29.5814 558.629 31.2721 557.945 32.2383C557.262 33.2135 556.241 33.7012 554.883 33.7012C554.172 33.7012 553.607 33.5964 553.188 33.3867C552.996 33.2956 552.932 33.1543 552.996 32.9629L553.352 31.8555C553.415 31.6641 553.538 31.6094 553.721 31.6914C554.094 31.8464 554.454 31.9238 554.801 31.9238C555.439 31.9238 555.958 31.5775 556.359 30.8848C556.76 30.2012 557.079 29.513 557.316 28.8203L557.59 28.0137L552.654 14.3145ZM577.127 28C576.717 28 576.512 27.7949 576.512 27.3848V14.2598C576.512 13.8496 576.717 13.6445 577.127 13.6445H578.275C578.686 13.6445 578.891 13.8496 578.891 14.2598V15.9004H578.945C579.383 15.0801 579.898 14.4603 580.49 14.041C581.083 13.6217 581.821 13.4121 582.705 13.4121C583.288 13.4121 583.699 13.4622 583.936 13.5625C584.145 13.6445 584.223 13.7812 584.168 13.9727L583.854 15.0938C583.808 15.2578 583.689 15.3216 583.498 15.2852C583.179 15.2214 582.878 15.1895 582.596 15.1895C581.529 15.1895 580.65 15.6725 579.957 16.6387C579.264 17.5957 578.918 18.9036 578.918 20.5625V27.3848C578.918 27.7949 578.713 28 578.303 28H577.127ZM585.604 20.8223C585.604 18.5618 586.169 16.7617 587.299 15.4219C588.429 14.082 590.047 13.4121 592.152 13.4121C593.902 13.4121 595.352 14.0273 596.5 15.2578C597.658 16.4792 598.236 18.4342 598.236 21.123C598.236 21.5332 598.049 21.7383 597.676 21.7383H588.146C588.301 23.4974 588.775 24.7233 589.568 25.416C590.361 26.0996 591.259 26.4414 592.262 26.4414C593.319 26.4414 594.13 26.2637 594.695 25.9082C595.26 25.5527 595.675 25.2018 595.939 24.8555C596.231 24.4727 596.514 24.3997 596.787 24.6367L597.594 25.334C597.803 25.5163 597.803 25.7669 597.594 26.0859C597.421 26.3503 596.924 26.7741 596.104 27.3574C595.292 27.9408 594.012 28.2324 592.262 28.2324C589.983 28.2324 588.301 27.5625 587.217 26.2227C586.141 24.8828 585.604 23.0827 585.604 20.8223ZM588.092 19.9609H595.816C595.78 18.6849 595.452 17.5684 594.832 16.6113C594.212 15.6452 593.301 15.1621 592.098 15.1621C591.04 15.1621 590.143 15.5176 589.404 16.2285C588.666 16.9303 588.229 18.1745 588.092 19.9609ZM600.615 20.8223C600.615 18.8626 601.089 17.14 602.037 15.6543C602.985 14.1595 604.37 13.4121 606.193 13.4121C607.242 13.4121 608.08 13.5853 608.709 13.9316C609.338 14.278 609.903 14.752 610.404 15.3535H610.432L610.514 14.2598C610.541 13.8496 610.719 13.6445 611.047 13.6445H612.195C612.605 13.6445 612.811 13.8496 612.811 14.2598V32.8535C612.811 33.2637 612.605 33.4688 612.195 33.4688H611.02C610.609 33.4688 610.404 33.2637 610.404 32.8535V27.125C610.404 26.8424 610.413 26.5645 610.432 26.291H610.404C609.903 26.8926 609.338 27.3665 608.709 27.7129C608.08 28.0592 607.242 28.2324 606.193 28.2324C604.37 28.2324 602.985 27.4896 602.037 26.0039C601.089 24.5091 600.615 22.7819 600.615 20.8223ZM603.158 20.8223C603.158 22.4993 603.445 23.8574 604.02 24.8965C604.603 25.9355 605.587 26.4551 606.973 26.4551C607.957 26.4551 608.773 26.1224 609.42 25.457C610.076 24.7826 610.404 23.7617 610.404 22.3945V19.25C610.404 17.8828 610.076 16.8665 609.42 16.2012C608.773 15.5267 607.957 15.1895 606.973 15.1895C605.587 15.1895 604.603 15.709 604.02 16.748C603.445 17.7871 603.158 19.1452 603.158 20.8223ZM616.68 22.9961V14.2598C616.68 13.8496 616.885 13.6445 617.295 13.6445H618.471C618.881 13.6445 619.086 13.8496 619.086 14.2598V22.3398C619.086 24.1263 619.382 25.2611 619.975 25.7441C620.567 26.2181 621.301 26.4551 622.176 26.4551C623.324 26.4551 624.204 26.1042 624.814 25.4023C625.425 24.6914 625.73 23.4792 625.73 21.7656V14.2598C625.73 13.8496 625.936 13.6445 626.346 13.6445H627.521C627.932 13.6445 628.137 13.8496 628.137 14.2598V27.3848C628.137 27.7949 627.932 28 627.521 28H626.373C625.963 28 625.758 27.7949 625.758 27.3848V26.291H625.703C625.111 26.9473 624.473 27.4349 623.789 27.7539C623.105 28.0729 622.271 28.2324 621.287 28.2324C619.692 28.2324 618.525 27.7676 617.787 26.8379C617.049 25.8991 616.68 24.6185 616.68 22.9961ZM632.635 28C632.225 28 632.02 27.7949 632.02 27.3848V14.2598C632.02 13.8496 632.225 13.6445 632.635 13.6445H633.811C634.221 13.6445 634.426 13.8496 634.426 14.2598V27.3848C634.426 27.7949 634.221 28 633.811 28H632.635ZM632.635 11.0469C632.225 11.0469 632.02 10.8418 632.02 10.4316V9.25586C632.02 8.8457 632.225 8.64062 632.635 8.64062H633.811C634.221 8.64062 634.426 8.8457 634.426 9.25586V10.4316C634.426 10.8418 634.221 11.0469 633.811 11.0469H632.635ZM638.924 28C638.514 28 638.309 27.7949 638.309 27.3848V14.2598C638.309 13.8496 638.514 13.6445 638.924 13.6445H640.072C640.482 13.6445 640.688 13.8496 640.688 14.2598V15.9004H640.742C641.18 15.0801 641.695 14.4603 642.287 14.041C642.88 13.6217 643.618 13.4121 644.502 13.4121C645.085 13.4121 645.495 13.4622 645.732 13.5625C645.942 13.6445 646.02 13.7812 645.965 13.9727L645.65 15.0938C645.605 15.2578 645.486 15.3216 645.295 15.2852C644.976 15.2214 644.675 15.1895 644.393 15.1895C643.326 15.1895 642.447 15.6725 641.754 16.6387C641.061 17.5957 640.715 18.9036 640.715 20.5625V27.3848C640.715 27.7949 640.51 28 640.1 28H638.924ZM647.4 20.8223C647.4 18.5618 647.965 16.7617 649.096 15.4219C650.226 14.082 651.844 13.4121 653.949 13.4121C655.699 13.4121 657.148 14.0273 658.297 15.2578C659.454 16.4792 660.033 18.4342 660.033 21.123C660.033 21.5332 659.846 21.7383 659.473 21.7383H649.943C650.098 23.4974 650.572 24.7233 651.365 25.416C652.158 26.0996 653.056 26.4414 654.059 26.4414C655.116 26.4414 655.927 26.2637 656.492 25.9082C657.057 25.5527 657.472 25.2018 657.736 24.8555C658.028 24.4727 658.311 24.3997 658.584 24.6367L659.391 25.334C659.6 25.5163 659.6 25.7669 659.391 26.0859C659.217 26.3503 658.721 26.7741 657.9 27.3574C657.089 27.9408 655.809 28.2324 654.059 28.2324C651.78 28.2324 650.098 27.5625 649.014 26.2227C647.938 24.8828 647.4 23.0827 647.4 20.8223ZM649.889 19.9609H657.613C657.577 18.6849 657.249 17.5684 656.629 16.6113C656.009 15.6452 655.098 15.1621 653.895 15.1621C652.837 15.1621 651.939 15.5176 651.201 16.2285C650.463 16.9303 650.025 18.1745 649.889 19.9609ZM662.412 20.8223C662.412 18.8626 662.886 17.14 663.834 15.6543C664.782 14.1595 666.167 13.4121 667.99 13.4121C669.038 13.4121 669.877 13.5853 670.506 13.9316C671.135 14.278 671.7 14.752 672.201 15.3535H672.229C672.21 15.0801 672.201 14.8021 672.201 14.5195V8.43555C672.201 8.02539 672.406 7.82031 672.816 7.82031H673.992C674.402 7.82031 674.607 8.02539 674.607 8.43555V27.3848C674.607 27.7949 674.402 28 673.992 28H672.844C672.516 28 672.338 27.7949 672.311 27.3848L672.229 26.291H672.201C671.7 26.8926 671.135 27.3665 670.506 27.7129C669.877 28.0592 669.038 28.2324 667.99 28.2324C666.167 28.2324 664.782 27.4896 663.834 26.0039C662.886 24.5091 662.412 22.7819 662.412 20.8223ZM664.955 20.8223C664.955 22.4993 665.242 23.8574 665.816 24.8965C666.4 25.9355 667.384 26.4551 668.77 26.4551C669.754 26.4551 670.57 26.1224 671.217 25.457C671.873 24.7826 672.201 23.7617 672.201 22.3945V19.25C672.201 17.8828 671.873 16.8665 671.217 16.2012C670.57 15.5267 669.754 15.1895 668.77 15.1895C667.384 15.1895 666.4 15.709 665.816 16.748C665.242 17.7871 664.955 19.1452 664.955 20.8223ZM687.131 15.4492C686.721 15.4492 686.516 15.2897 686.516 14.9707V14.123C686.516 13.804 686.721 13.6445 687.131 13.6445H688.744V12.4141C688.744 12.2318 688.79 12.0586 688.881 11.8945L689.838 10.1582C690.011 9.83919 690.152 9.67969 690.262 9.67969H690.74C691.014 9.67969 691.15 9.83919 691.15 10.1582V13.6445H694.062C694.473 13.6445 694.678 13.804 694.678 14.123V14.9707C694.678 15.2897 694.473 15.4492 694.062 15.4492H691.15V24.1582C691.15 25.1152 691.292 25.7396 691.574 26.0312C691.866 26.3138 692.212 26.4551 692.613 26.4551C692.923 26.4551 693.292 26.3639 693.721 26.1816C694.158 25.9993 694.459 25.8444 694.623 25.7168C694.787 25.5892 694.915 25.6302 695.006 25.8398L695.457 26.8926C695.53 27.0749 695.475 27.2207 695.293 27.3301C694.938 27.5397 694.418 27.7448 693.734 27.9453C693.051 28.1367 692.367 28.2324 691.684 28.2324C690.736 28.2324 690.007 27.8906 689.496 27.207C688.995 26.5234 688.744 25.5573 688.744 24.3086V15.4492H687.131ZM697.412 20.8223C697.412 18.6803 697.977 16.9121 699.107 15.5176C700.247 14.1139 701.91 13.4121 704.098 13.4121C706.285 13.4121 707.944 14.1139 709.074 15.5176C710.214 16.9121 710.783 18.6803 710.783 20.8223C710.783 22.9642 710.214 24.737 709.074 26.1406C707.944 27.5352 706.285 28.2324 704.098 28.2324C701.91 28.2324 700.247 27.5352 699.107 26.1406C697.977 24.737 697.412 22.9642 697.412 20.8223ZM699.955 20.8223C699.955 22.7363 700.333 24.1536 701.09 25.0742C701.846 25.9948 702.849 26.4551 704.098 26.4551C705.346 26.4551 706.349 25.9948 707.105 25.0742C707.862 24.1536 708.24 22.7363 708.24 20.8223C708.24 18.9082 707.862 17.4909 707.105 16.5703C706.349 15.6497 705.346 15.1895 704.098 15.1895C702.849 15.1895 701.846 15.6497 701.09 16.5703C700.333 17.4909 699.955 18.9082 699.955 20.8223ZM722.514 15.4492C722.104 15.4492 721.898 15.2897 721.898 14.9707V14.123C721.898 13.804 722.104 13.6445 722.514 13.6445H724.127V12.4141C724.127 12.2318 724.173 12.0586 724.264 11.8945L725.221 10.1582C725.394 9.83919 725.535 9.67969 725.645 9.67969H726.123C726.396 9.67969 726.533 9.83919 726.533 10.1582V13.6445H729.445C729.855 13.6445 730.061 13.804 730.061 14.123V14.9707C730.061 15.2897 729.855 15.4492 729.445 15.4492H726.533V24.1582C726.533 25.1152 726.674 25.7396 726.957 26.0312C727.249 26.3138 727.595 26.4551 727.996 26.4551C728.306 26.4551 728.675 26.3639 729.104 26.1816C729.541 25.9993 729.842 25.8444 730.006 25.7168C730.17 25.5892 730.298 25.6302 730.389 25.8398L730.84 26.8926C730.913 27.0749 730.858 27.2207 730.676 27.3301C730.32 27.5397 729.801 27.7448 729.117 27.9453C728.434 28.1367 727.75 28.2324 727.066 28.2324C726.118 28.2324 725.389 27.8906 724.879 27.207C724.378 26.5234 724.127 25.5573 724.127 24.3086V15.4492H722.514ZM734.189 28C733.779 28 733.574 27.7949 733.574 27.3848V14.2598C733.574 13.8496 733.779 13.6445 734.189 13.6445H735.338C735.748 13.6445 735.953 13.8496 735.953 14.2598V15.9004H736.008C736.445 15.0801 736.96 14.4603 737.553 14.041C738.145 13.6217 738.883 13.4121 739.768 13.4121C740.351 13.4121 740.761 13.4622 740.998 13.5625C741.208 13.6445 741.285 13.7812 741.23 13.9727L740.916 15.0938C740.87 15.2578 740.752 15.3216 740.561 15.2852C740.242 15.2214 739.941 15.1895 739.658 15.1895C738.592 15.1895 737.712 15.6725 737.02 16.6387C736.327 17.5957 735.98 18.9036 735.98 20.5625V27.3848C735.98 27.7949 735.775 28 735.365 28H734.189ZM742.666 24.1719C742.666 22.5495 743.423 21.36 744.936 20.6035C746.458 19.847 748.727 19.4049 751.744 19.2773V18.3477C751.744 17.4909 751.548 16.7526 751.156 16.1328C750.773 15.5039 750.008 15.1895 748.859 15.1895C748.13 15.1895 747.547 15.2624 747.109 15.4082C746.672 15.5449 746.271 15.7318 745.906 15.9688C745.551 16.1966 745.209 16.4928 744.881 16.8574C744.635 17.1309 744.402 17.1445 744.184 16.8984L743.473 16.0781C743.272 15.8503 743.34 15.5768 743.678 15.2578C744.161 14.8021 744.63 14.4603 745.086 14.2324C745.542 14.0046 746.107 13.8132 746.781 13.6582C747.465 13.4941 748.158 13.4121 748.859 13.4121C750.764 13.4121 752.122 13.9043 752.934 14.8887C753.745 15.8639 754.15 17.2038 754.15 18.9082V27.3848C754.15 27.7949 753.945 28 753.535 28H752.305C751.949 28 751.771 27.7949 751.771 27.3848V26.7148H751.744C751.024 27.2799 750.318 27.6764 749.625 27.9043C748.941 28.123 748.176 28.2324 747.328 28.2324C745.833 28.2324 744.68 27.877 743.869 27.166C743.067 26.446 742.666 25.4479 742.666 24.1719ZM745.154 24.2266C745.154 24.7917 745.273 25.2474 745.51 25.5938C745.747 25.931 746.075 26.1497 746.494 26.25C746.913 26.3411 747.351 26.3867 747.807 26.3867C748.508 26.3867 749.174 26.3184 749.803 26.1816C750.432 26.0449 751.079 25.6849 751.744 25.1016V21.0684C749.903 21.2051 748.59 21.3737 747.807 21.5742C747.023 21.7656 746.385 22.1029 745.893 22.5859C745.4 23.0599 745.154 23.6068 745.154 24.2266ZM758.662 28C758.252 28 758.047 27.7949 758.047 27.3848V14.2598C758.047 13.8496 758.252 13.6445 758.662 13.6445H759.811C760.221 13.6445 760.426 13.8496 760.426 14.2598V15.3535H760.48C761.073 14.6973 761.711 14.2096 762.395 13.8906C763.078 13.5716 763.93 13.4121 764.951 13.4121C766.61 13.4121 767.799 13.8815 768.52 14.8203C769.249 15.75 769.613 17.026 769.613 18.6484V27.3848C769.613 27.7949 769.408 28 768.998 28H767.822C767.412 28 767.207 27.7949 767.207 27.3848V19.3047C767.207 17.5182 766.911 16.388 766.318 15.9141C765.726 15.431 764.974 15.1895 764.062 15.1895C762.878 15.1895 761.98 15.5449 761.369 16.2559C760.758 16.9577 760.453 18.1654 760.453 19.8789V27.3848C760.453 27.7949 760.248 28 759.838 28H758.662ZM772.908 26.6602C772.626 26.3958 772.566 26.1497 772.73 25.9219L773.346 25.0605C773.546 24.7871 773.842 24.8008 774.234 25.1016C774.772 25.5117 775.369 25.8398 776.025 26.0859C776.691 26.332 777.447 26.4551 778.295 26.4551C778.796 26.4551 779.243 26.3958 779.635 26.2773C780.027 26.1497 780.368 25.9173 780.66 25.5801C780.961 25.2428 781.111 24.7917 781.111 24.2266C781.111 23.8984 781.038 23.5885 780.893 23.2969C780.756 23.0052 780.537 22.7728 780.236 22.5996C779.945 22.4173 779.658 22.276 779.375 22.1758C778.91 22.0026 778.445 21.8613 777.98 21.752C777.525 21.6335 776.923 21.4557 776.176 21.2188C775.674 21.0638 775.201 20.8451 774.754 20.5625C774.307 20.2708 773.915 19.8789 773.578 19.3867C773.25 18.8945 773.086 18.2155 773.086 17.3496C773.086 16.4655 773.355 15.7044 773.893 15.0664C774.43 14.4284 775.105 13.9954 775.916 13.7676C776.727 13.5306 777.516 13.4121 778.281 13.4121C779.411 13.4121 780.318 13.5443 781.002 13.8086C781.695 14.0638 782.292 14.3691 782.793 14.7246C783.085 14.9342 783.126 15.1758 782.916 15.4492L782.301 16.2695C782.109 16.5339 781.813 16.5247 781.412 16.2422C781.075 16.0052 780.596 15.7819 779.977 15.5723C779.357 15.3626 778.814 15.2578 778.35 15.2578C777.775 15.2578 777.283 15.3216 776.873 15.4492C776.463 15.5768 776.13 15.7956 775.875 16.1055C775.62 16.4154 775.492 16.7799 775.492 17.1992C775.492 17.5182 775.542 17.8053 775.643 18.0605C775.743 18.3066 775.93 18.5345 776.203 18.7441C776.477 18.9538 776.859 19.1224 777.352 19.25C778.117 19.4505 778.814 19.6328 779.443 19.7969C780.081 19.9609 780.656 20.1615 781.166 20.3984C781.831 20.7083 782.342 21.0501 782.697 21.4238C783.062 21.7975 783.312 22.2031 783.449 22.6406C783.586 23.069 783.654 23.5475 783.654 24.0762C783.654 25.0514 783.363 25.8763 782.779 26.5508C782.205 27.2253 781.562 27.6764 780.852 27.9043C780.141 28.123 779.284 28.2324 778.281 28.2324C776.923 28.2324 775.757 28.041 774.781 27.6582C773.815 27.2663 773.191 26.9336 772.908 26.6602ZM785.664 15.4492C785.254 15.4492 785.049 15.2897 785.049 14.9707V14.123C785.049 13.804 785.254 13.6445 785.664 13.6445H787.127V11.6074C787.127 10.0853 787.537 9.03711 788.357 8.46289C789.178 7.87956 790.117 7.58789 791.174 7.58789C791.803 7.58789 792.309 7.61979 792.691 7.68359C793.083 7.7474 793.544 7.88867 794.072 8.10742C794.273 8.18945 794.332 8.33529 794.25 8.54492L793.826 9.625C793.753 9.80729 793.594 9.84375 793.348 9.73438C793.147 9.64323 792.901 9.5612 792.609 9.48828C792.318 9.40625 792.003 9.36523 791.666 9.36523C790.91 9.36523 790.363 9.54753 790.025 9.91211C789.697 10.2767 789.533 10.974 789.533 12.0039V13.6445H792.035C792.445 13.6445 792.65 13.804 792.65 14.123V14.9707C792.65 15.2897 792.445 15.4492 792.035 15.4492H789.533V27.3848C789.533 27.7949 789.328 28 788.918 28H787.742C787.332 28 787.127 27.7949 787.127 27.3848V15.4492H785.664ZM794.51 20.8223C794.51 18.5618 795.075 16.7617 796.205 15.4219C797.335 14.082 798.953 13.4121 801.059 13.4121C802.809 13.4121 804.258 14.0273 805.406 15.2578C806.564 16.4792 807.143 18.4342 807.143 21.123C807.143 21.5332 806.956 21.7383 806.582 21.7383H797.053C797.208 23.4974 797.682 24.7233 798.475 25.416C799.268 26.0996 800.165 26.4414 801.168 26.4414C802.225 26.4414 803.036 26.2637 803.602 25.9082C804.167 25.5527 804.581 25.2018 804.846 24.8555C805.137 24.4727 805.42 24.3997 805.693 24.6367L806.5 25.334C806.71 25.5163 806.71 25.7669 806.5 26.0859C806.327 26.3503 805.83 26.7741 805.01 27.3574C804.199 27.9408 802.918 28.2324 801.168 28.2324C798.889 28.2324 797.208 27.5625 796.123 26.2227C795.048 24.8828 794.51 23.0827 794.51 20.8223ZM796.998 19.9609H804.723C804.686 18.6849 804.358 17.5684 803.738 16.6113C803.118 15.6452 802.207 15.1621 801.004 15.1621C799.947 15.1621 799.049 15.5176 798.311 16.2285C797.572 16.9303 797.135 18.1745 796.998 19.9609ZM810.916 28C810.506 28 810.301 27.7949 810.301 27.3848V14.2598C810.301 13.8496 810.506 13.6445 810.916 13.6445H812.064C812.475 13.6445 812.68 13.8496 812.68 14.2598V15.9004H812.734C813.172 15.0801 813.687 14.4603 814.279 14.041C814.872 13.6217 815.61 13.4121 816.494 13.4121C817.077 13.4121 817.488 13.4622 817.725 13.5625C817.934 13.6445 818.012 13.7812 817.957 13.9727L817.643 15.0938C817.597 15.2578 817.479 15.3216 817.287 15.2852C816.968 15.2214 816.667 15.1895 816.385 15.1895C815.318 15.1895 814.439 15.6725 813.746 16.6387C813.053 17.5957 812.707 18.9036 812.707 20.5625V27.3848C812.707 27.7949 812.502 28 812.092 28H810.916ZM829.934 12.2637C829.815 11.972 829.924 11.7624 830.262 11.6348C830.964 11.3704 831.629 10.9466 832.258 10.3633C832.887 9.77995 833.383 9.26042 833.748 8.80469C834.012 8.47656 834.268 8.3125 834.514 8.3125H835.676C836.095 8.3125 836.305 8.51758 836.305 8.92773V27.3848C836.305 27.7949 836.1 28 835.689 28H834.514C834.104 28 833.898 27.7949 833.898 27.3848V12.4004C833.898 12.127 833.908 11.8535 833.926 11.5801H833.898C833.616 11.9355 833.201 12.3001 832.654 12.6738C832.107 13.0475 831.606 13.321 831.15 13.4941C830.749 13.6491 830.485 13.5762 830.357 13.2754L829.934 12.2637ZM840.133 18.1973C840.133 15.0072 840.958 12.5098 842.607 10.7051C844.257 8.89128 846.549 7.98438 849.484 7.98438C851.243 7.98438 852.679 8.28971 853.791 8.90039C854.903 9.50195 855.719 10.2129 856.238 11.0332C856.557 11.5436 856.553 11.9128 856.225 12.1406L855.199 12.8516C854.862 13.0885 854.525 12.9473 854.188 12.4277C853.914 12.0176 853.399 11.5299 852.643 10.9648C851.886 10.3997 850.879 10.1172 849.621 10.1172C847.388 10.1172 845.715 10.8281 844.604 12.25C843.492 13.6628 842.936 15.6452 842.936 18.1973C842.936 20.7493 843.478 22.7363 844.562 24.1582C845.647 25.571 847.379 26.2773 849.758 26.2773C850.943 26.2773 851.973 26.1361 852.848 25.8535C853.732 25.5618 854.352 25.1608 854.707 24.6504V21.0273H850.646C850.145 21.0273 849.895 20.8223 849.895 20.4121V19.4004C849.895 18.9902 850.145 18.7852 850.646 18.7852H856.58C857.081 18.7852 857.332 18.9902 857.332 19.4004V25.8535C856.22 26.6647 855.108 27.2936 853.996 27.7402C852.884 28.1868 851.426 28.4102 849.621 28.4102C846.613 28.4102 844.28 27.5078 842.621 25.7031C840.962 23.8893 840.133 21.3874 840.133 18.1973ZM861.98 28C861.525 28 861.297 27.7493 861.297 27.248V9.14648C861.297 8.64518 861.525 8.39453 861.98 8.39453H867.312C870.411 8.39453 872.499 8.89583 873.574 9.89844C874.65 10.901 875.188 12.1087 875.188 13.5215C875.188 14.6426 874.741 15.5951 873.848 16.3789C872.954 17.1536 872.089 17.6094 871.25 17.7461V17.7871C872.171 17.8691 873.196 18.3294 874.326 19.168C875.465 19.9974 876.035 21.1276 876.035 22.5586C876.035 24.1081 875.461 25.4023 874.312 26.4414C873.173 27.4805 871.068 28 867.996 28H861.98ZM863.922 25.7578H867.559C869.518 25.7578 870.954 25.5163 871.865 25.0332C872.777 24.5501 873.232 23.6979 873.232 22.4766C873.232 21.3464 872.768 20.4714 871.838 19.8516C870.917 19.2318 869.491 18.9219 867.559 18.9219H863.922V25.7578ZM863.922 16.9531H867.354C868.876 16.9531 870.115 16.6296 871.072 15.9824C872.038 15.3262 872.521 14.5059 872.521 13.5215C872.521 12.5827 872.161 11.8672 871.441 11.375C870.721 10.8828 869.359 10.6367 867.354 10.6367H863.922V16.9531ZM888.559 20.5625C888.559 17.7552 889.033 15.2943 889.98 13.1797C890.928 11.0651 892.127 9.20117 893.576 7.58789C893.923 7.19596 894.232 7.10482 894.506 7.31445L894.984 7.68359C895.267 7.90234 895.258 8.17122 894.957 8.49023C894.137 9.36523 893.312 10.8418 892.482 12.9199C891.653 14.9889 891.238 17.5365 891.238 20.5625C891.238 23.5885 891.653 26.1361 892.482 28.2051C893.312 30.2832 894.137 31.7598 894.957 32.6348C895.258 32.9538 895.267 33.2227 894.984 33.4414L894.506 33.8105C894.232 34.0202 893.923 33.929 893.576 33.5371C892.127 31.9238 890.928 30.0599 889.98 27.9453C889.033 25.8307 888.559 23.3698 888.559 20.5625ZM897.186 27.6035C896.766 27.3757 896.639 27.0794 896.803 26.7148L897.254 25.7441C897.454 25.3066 897.787 25.2428 898.252 25.5527C898.99 26.0358 899.729 26.2773 900.467 26.2773C901.351 26.2773 901.925 25.9811 902.189 25.3887C902.454 24.7871 902.586 23.9349 902.586 22.832V9.14648C902.586 8.64518 902.814 8.39453 903.27 8.39453H904.527C904.983 8.39453 905.211 8.64518 905.211 9.14648V22.5176C905.211 24.3223 904.928 25.7578 904.363 26.8242C903.798 27.8815 902.477 28.4102 900.398 28.4102C899.259 28.4102 898.188 28.1413 897.186 27.6035ZM908.451 20.8223C908.451 18.6803 909.016 16.9121 910.146 15.5176C911.286 14.1139 912.949 13.4121 915.137 13.4121C917.324 13.4121 918.983 14.1139 920.113 15.5176C921.253 16.9121 921.822 18.6803 921.822 20.8223C921.822 22.9642 921.253 24.737 920.113 26.1406C918.983 27.5352 917.324 28.2324 915.137 28.2324C912.949 28.2324 911.286 27.5352 910.146 26.1406C909.016 24.737 908.451 22.9642 908.451 20.8223ZM910.994 20.8223C910.994 22.7363 911.372 24.1536 912.129 25.0742C912.885 25.9948 913.888 26.4551 915.137 26.4551C916.385 26.4551 917.388 25.9948 918.145 25.0742C918.901 24.1536 919.279 22.7363 919.279 20.8223C919.279 18.9082 918.901 17.4909 918.145 16.5703C917.388 15.6497 916.385 15.1895 915.137 15.1895C913.888 15.1895 912.885 15.6497 912.129 16.5703C911.372 17.4909 910.994 18.9082 910.994 20.8223ZM924.898 22.9961V14.2598C924.898 13.8496 925.104 13.6445 925.514 13.6445H926.689C927.1 13.6445 927.305 13.8496 927.305 14.2598V22.3398C927.305 24.1263 927.601 25.2611 928.193 25.7441C928.786 26.2181 929.52 26.4551 930.395 26.4551C931.543 26.4551 932.423 26.1042 933.033 25.4023C933.644 24.6914 933.949 23.4792 933.949 21.7656V14.2598C933.949 13.8496 934.154 13.6445 934.564 13.6445H935.74C936.15 13.6445 936.355 13.8496 936.355 14.2598V27.3848C936.355 27.7949 936.15 28 935.74 28H934.592C934.182 28 933.977 27.7949 933.977 27.3848V26.291H933.922C933.329 26.9473 932.691 27.4349 932.008 27.7539C931.324 28.0729 930.49 28.2324 929.506 28.2324C927.911 28.2324 926.744 27.7676 926.006 26.8379C925.268 25.8991 924.898 24.6185 924.898 22.9961ZM940.854 28C940.443 28 940.238 27.7949 940.238 27.3848V10.3223C940.238 10.14 940.284 9.9668 940.375 9.80273L941.332 8.06641C941.505 7.7474 941.646 7.58789 941.756 7.58789H942.234C942.508 7.58789 942.645 7.7474 942.645 8.06641V27.3848C942.645 27.7949 942.439 28 942.029 28H940.854ZM945.748 20.8223C945.748 18.5618 946.313 16.7617 947.443 15.4219C948.574 14.082 950.191 13.4121 952.297 13.4121C954.047 13.4121 955.496 14.0273 956.645 15.2578C957.802 16.4792 958.381 18.4342 958.381 21.123C958.381 21.5332 958.194 21.7383 957.82 21.7383H948.291C948.446 23.4974 948.92 24.7233 949.713 25.416C950.506 26.0996 951.404 26.4414 952.406 26.4414C953.464 26.4414 954.275 26.2637 954.84 25.9082C955.405 25.5527 955.82 25.2018 956.084 24.8555C956.376 24.4727 956.658 24.3997 956.932 24.6367L957.738 25.334C957.948 25.5163 957.948 25.7669 957.738 26.0859C957.565 26.3503 957.068 26.7741 956.248 27.3574C955.437 27.9408 954.156 28.2324 952.406 28.2324C950.128 28.2324 948.446 27.5625 947.361 26.2227C946.286 24.8828 945.748 23.0827 945.748 20.8223ZM948.236 19.9609H955.961C955.924 18.6849 955.596 17.5684 954.977 16.6113C954.357 15.6452 953.445 15.1621 952.242 15.1621C951.185 15.1621 950.287 15.5176 949.549 16.2285C948.811 16.9303 948.373 18.1745 948.236 19.9609ZM960.979 26.6602C960.696 26.3958 960.637 26.1497 960.801 25.9219L961.416 25.0605C961.617 24.7871 961.913 24.8008 962.305 25.1016C962.842 25.5117 963.439 25.8398 964.096 26.0859C964.761 26.332 965.518 26.4551 966.365 26.4551C966.867 26.4551 967.313 26.3958 967.705 26.2773C968.097 26.1497 968.439 25.9173 968.73 25.5801C969.031 25.2428 969.182 24.7917 969.182 24.2266C969.182 23.8984 969.109 23.5885 968.963 23.2969C968.826 23.0052 968.607 22.7728 968.307 22.5996C968.015 22.4173 967.728 22.276 967.445 22.1758C966.98 22.0026 966.516 21.8613 966.051 21.752C965.595 21.6335 964.993 21.4557 964.246 21.2188C963.745 21.0638 963.271 20.8451 962.824 20.5625C962.378 20.2708 961.986 19.8789 961.648 19.3867C961.32 18.8945 961.156 18.2155 961.156 17.3496C961.156 16.4655 961.425 15.7044 961.963 15.0664C962.501 14.4284 963.175 13.9954 963.986 13.7676C964.798 13.5306 965.586 13.4121 966.352 13.4121C967.482 13.4121 968.389 13.5443 969.072 13.8086C969.765 14.0638 970.362 14.3691 970.863 14.7246C971.155 14.9342 971.196 15.1758 970.986 15.4492L970.371 16.2695C970.18 16.5339 969.883 16.5247 969.482 16.2422C969.145 16.0052 968.667 15.7819 968.047 15.5723C967.427 15.3626 966.885 15.2578 966.42 15.2578C965.846 15.2578 965.354 15.3216 964.943 15.4492C964.533 15.5768 964.201 15.7956 963.945 16.1055C963.69 16.4154 963.562 16.7799 963.562 17.1992C963.562 17.5182 963.613 17.8053 963.713 18.0605C963.813 18.3066 964 18.5345 964.273 18.7441C964.547 18.9538 964.93 19.1224 965.422 19.25C966.188 19.4505 966.885 19.6328 967.514 19.7969C968.152 19.9609 968.726 20.1615 969.236 20.3984C969.902 20.7083 970.412 21.0501 970.768 21.4238C971.132 21.7975 971.383 22.2031 971.52 22.6406C971.656 23.069 971.725 23.5475 971.725 24.0762C971.725 25.0514 971.433 25.8763 970.85 26.5508C970.275 27.2253 969.633 27.6764 968.922 27.9043C968.211 28.123 967.354 28.2324 966.352 28.2324C964.993 28.2324 963.827 28.041 962.852 27.6582C961.885 27.2663 961.261 26.9336 960.979 26.6602ZM973.967 33.4414C973.684 33.2227 973.693 32.9538 973.994 32.6348C974.814 31.7598 975.639 30.2832 976.469 28.2051C977.298 26.1361 977.713 23.5885 977.713 20.5625C977.713 17.5365 977.298 14.9889 976.469 12.9199C975.639 10.8418 974.814 9.36523 973.994 8.49023C973.693 8.17122 973.684 7.90234 973.967 7.68359L974.445 7.31445C974.719 7.10482 975.029 7.19596 975.375 7.58789C976.824 9.20117 978.023 11.0651 978.971 13.1797C979.919 15.2943 980.393 17.7552 980.393 20.5625C980.393 23.3698 979.919 25.8307 978.971 27.9453C978.023 30.0599 976.824 31.9238 975.375 33.5371C975.029 33.929 974.719 34.0202 974.445 33.8105L973.967 33.4414Z" fill="black"/>
<path d="M111 80L1111 80V127L111 127V80Z" fill="#75D573"/>
<path d="M111 80L1111 80V127L111 127V80Z" stroke="black"/>
<path d="M1047 178H1111.2V225H1047V178Z" fill="#75D573"/>
<path d="M1047 178H1111.2V225H1047V178Z" stroke="black"/>
<path d="M1106.1 286H1111.32V333H1106.1V286Z" fill="#75D573"/>
<path d="M1106.1 286H1111.32V333H1106.1V286Z" stroke="black"/>
<path d="M974.585 203.279C974.577 200.089 975.008 197.605 975.878 195.828C976.749 194.042 978.414 193.148 980.875 193.148C983.336 193.148 985.006 194.042 985.886 195.828C986.766 197.605 987.21 200.089 987.218 203.279C987.226 206.469 986.795 208.958 985.925 210.744C985.055 212.521 983.389 213.41 980.928 213.41C978.467 213.41 976.797 212.521 975.917 210.744C975.037 208.958 974.593 206.469 974.585 203.279ZM977.128 203.279C977.135 205.831 977.359 207.832 977.8 209.281C978.241 210.721 979.282 211.441 980.923 211.441C982.563 211.441 983.601 210.721 984.034 209.281C984.468 207.832 984.682 205.831 984.675 203.279C984.668 200.727 984.444 198.731 984.003 197.291C983.562 195.842 982.521 195.117 980.88 195.117C979.24 195.117 978.202 195.842 977.769 197.291C977.335 198.731 977.121 200.727 977.128 203.279ZM991.851 213C991.441 213 991.235 212.795 991.234 212.385L991.23 210.717C991.228 210.307 991.433 210.101 991.843 210.101H993.374C993.785 210.101 993.99 210.307 993.991 210.717L993.996 212.385C993.997 212.795 993.792 213 993.382 213H991.851ZM998.491 195.801C998.081 195.801 997.876 195.596 997.875 195.186L997.872 194.174C997.871 193.764 998.075 193.559 998.486 193.559H1009.89C1010.3 193.559 1010.5 193.764 1010.5 194.174L1010.51 195.117C1010.51 195.409 1010.34 195.737 1010.02 196.102C1008.2 198.171 1006.74 200.463 1005.65 202.978C1004.55 205.485 1004.01 208.219 1004.01 211.182L1004.02 212.467C1004.02 212.877 1003.81 213.082 1003.4 213.082H1002.16C1001.75 213.082 1001.54 212.877 1001.54 212.467L1001.54 211.66C1001.53 208.37 1002.15 205.476 1003.39 202.978C1004.63 200.472 1006.18 198.079 1008.03 195.801L1008.03 195.773C1007.76 195.792 1007.49 195.801 1007.21 195.801H998.491ZM1013.53 195.801C1013.12 195.801 1012.91 195.596 1012.91 195.186L1012.91 194.174C1012.91 193.764 1013.11 193.559 1013.52 193.559H1024.93C1025.34 193.559 1025.54 193.764 1025.54 194.174L1025.55 195.117C1025.55 195.409 1025.38 195.737 1025.06 196.102C1023.24 198.171 1021.78 200.463 1020.69 202.978C1019.59 205.485 1019.05 208.219 1019.05 211.182L1019.06 212.467C1019.06 212.877 1018.85 213.082 1018.44 213.082H1017.2C1016.79 213.082 1016.58 212.877 1016.58 212.467L1016.58 211.66C1016.57 208.37 1017.19 205.476 1018.43 202.978C1019.67 200.472 1021.22 198.079 1023.07 195.801L1023.07 195.773C1022.8 195.792 1022.53 195.801 1022.25 195.801H1013.53ZM1028.61 210.976C1028.24 210.557 1028.17 210.215 1028.39 209.951L1029.1 209.09C1029.41 208.716 1029.77 208.798 1030.2 209.336C1030.68 209.928 1031.26 210.416 1031.96 210.799C1032.66 211.172 1033.4 211.359 1034.16 211.359C1035.66 211.359 1036.73 210.986 1037.36 210.238C1037.98 209.491 1038.3 208.493 1038.29 207.244C1038.29 205.922 1037.87 204.965 1037.03 204.373C1036.19 203.781 1035.25 203.484 1034.21 203.484H1033.01C1032.6 203.484 1032.39 203.334 1032.39 203.033L1032.39 202.021C1032.39 201.702 1032.59 201.543 1033 201.543H1033.97C1034.97 201.543 1035.83 201.215 1036.54 200.559C1037.26 199.902 1037.61 199.009 1037.61 197.879C1037.61 197.095 1037.32 196.452 1036.75 195.951C1036.17 195.45 1035.36 195.199 1034.32 195.199C1033.35 195.199 1032.55 195.422 1031.93 195.869C1031.31 196.316 1030.88 196.703 1030.62 197.031C1030.29 197.469 1029.96 197.537 1029.64 197.236L1028.83 196.457C1028.59 196.229 1028.7 195.851 1029.14 195.322C1029.61 194.766 1030.29 194.265 1031.18 193.818C1032.07 193.372 1033.13 193.148 1034.36 193.148C1036.25 193.148 1037.69 193.604 1038.68 194.516C1039.68 195.427 1040.18 196.607 1040.18 198.057C1040.19 199.205 1039.83 200.167 1039.12 200.941C1038.42 201.707 1037.66 202.181 1036.82 202.363L1036.82 202.418C1037.79 202.555 1038.73 203.083 1039.62 204.004C1040.52 204.924 1040.97 206.023 1040.97 207.299C1040.98 209.195 1040.43 210.689 1039.33 211.783C1038.24 212.868 1036.5 213.41 1034.11 213.41C1032.73 213.41 1031.58 213.141 1030.68 212.603C1029.77 212.057 1029.08 211.514 1028.61 210.976Z" fill="black"/>
<path d="M1033.07 307.279C1033.06 304.089 1033.49 301.605 1034.36 299.828C1035.23 298.042 1036.9 297.148 1039.36 297.148C1041.82 297.148 1043.49 298.042 1044.37 299.828C1045.25 301.605 1045.69 304.089 1045.7 307.279C1045.71 310.469 1045.28 312.958 1044.41 314.744C1043.54 316.521 1041.87 317.41 1039.41 317.41C1036.95 317.41 1035.28 316.521 1034.4 314.744C1033.52 312.958 1033.08 310.469 1033.07 307.279ZM1035.61 307.279C1035.62 309.831 1035.84 311.832 1036.28 313.281C1036.73 314.721 1037.77 315.441 1039.41 315.441C1041.05 315.441 1042.09 314.721 1042.52 313.281C1042.95 311.832 1043.17 309.831 1043.16 307.279C1043.15 304.727 1042.93 302.731 1042.49 301.291C1042.05 299.842 1041.01 299.117 1039.37 299.117C1037.72 299.117 1036.69 299.842 1036.25 301.291C1035.82 302.731 1035.61 304.727 1035.61 307.279ZM1050.34 317C1049.93 317 1049.72 316.795 1049.72 316.385L1049.71 314.717C1049.71 314.307 1049.92 314.101 1050.33 314.101H1051.86C1052.27 314.101 1052.48 314.307 1052.48 314.717L1052.48 316.385C1052.48 316.795 1052.28 317 1051.87 317H1050.34ZM1056.45 307.279C1056.44 304.089 1056.87 301.605 1057.74 299.828C1058.61 298.042 1060.28 297.148 1062.74 297.148C1065.2 297.148 1066.87 298.042 1067.75 299.828C1068.63 301.605 1069.07 304.089 1069.08 307.279C1069.09 310.469 1068.66 312.958 1067.79 314.744C1066.92 316.521 1065.25 317.41 1062.79 317.41C1060.33 317.41 1058.66 316.521 1057.78 314.744C1056.9 312.958 1056.46 310.469 1056.45 307.279ZM1058.99 307.279C1059 309.831 1059.22 311.832 1059.66 313.281C1060.11 314.721 1061.15 315.441 1062.79 315.441C1064.43 315.441 1065.46 314.721 1065.9 313.281C1066.33 311.832 1066.55 309.831 1066.54 307.279C1066.53 304.727 1066.31 302.731 1065.87 301.291C1065.43 299.842 1064.38 299.117 1062.74 299.117C1061.1 299.117 1060.07 299.842 1059.63 301.291C1059.2 302.731 1058.99 304.727 1058.99 307.279ZM1071.61 307.826C1071.6 303.816 1072.29 301.036 1073.68 299.486C1075.07 297.928 1076.77 297.148 1078.76 297.148C1079.9 297.148 1080.81 297.294 1081.5 297.586C1082.18 297.878 1082.77 298.251 1083.26 298.707C1083.65 299.062 1083.74 299.359 1083.53 299.596L1082.89 300.348C1082.63 300.639 1082.3 300.612 1081.89 300.266C1081.55 299.974 1081.14 299.723 1080.67 299.514C1080.19 299.304 1079.52 299.199 1078.64 299.199C1077.41 299.199 1076.34 299.814 1075.44 301.045C1074.53 302.275 1074.08 304.208 1074.08 306.842H1074.11C1074.52 306.249 1075.11 305.748 1075.87 305.338C1076.65 304.919 1077.62 304.709 1078.8 304.709C1080.25 304.709 1081.54 305.21 1082.64 306.213C1083.75 307.206 1084.3 308.706 1084.31 310.711C1084.31 312.698 1083.79 314.311 1082.73 315.551C1081.69 316.79 1080.14 317.41 1078.08 317.41C1075.93 317.41 1074.31 316.558 1073.23 314.853C1072.16 313.14 1071.62 310.797 1071.61 307.826ZM1074.56 310.889C1074.56 312.019 1074.88 313.049 1075.5 313.978C1076.13 314.899 1077 315.359 1078.1 315.359C1079.24 315.359 1080.11 314.931 1080.72 314.074C1081.33 313.217 1081.63 312.124 1081.63 310.793C1081.62 309.471 1081.31 308.478 1080.69 307.812C1080.07 307.138 1079.29 306.801 1078.36 306.801C1077.16 306.801 1076.22 307.17 1075.55 307.908C1074.89 308.646 1074.56 309.64 1074.56 310.889ZM1087.37 314.976C1087 314.557 1086.93 314.215 1087.15 313.951L1087.85 313.09C1088.16 312.716 1088.53 312.798 1088.96 313.336C1089.44 313.928 1090.02 314.416 1090.72 314.799C1091.42 315.172 1092.15 315.359 1092.92 315.359C1094.42 315.359 1095.49 314.986 1096.12 314.238C1096.74 313.491 1097.05 312.493 1097.05 311.244C1097.05 309.922 1096.63 308.965 1095.79 308.373C1094.95 307.781 1094.01 307.484 1092.97 307.484H1091.76C1091.35 307.484 1091.15 307.334 1091.15 307.033L1091.14 306.021C1091.14 305.702 1091.35 305.543 1091.76 305.543H1092.73C1093.73 305.543 1094.59 305.215 1095.3 304.559C1096.02 303.902 1096.37 303.009 1096.37 301.879C1096.37 301.095 1096.08 300.452 1095.5 299.951C1094.93 299.45 1094.12 299.199 1093.08 299.199C1092.11 299.199 1091.31 299.422 1090.69 299.869C1090.07 300.316 1089.64 300.703 1089.38 301.031C1089.05 301.469 1088.72 301.537 1088.4 301.236L1087.59 300.457C1087.35 300.229 1087.46 299.851 1087.9 299.322C1088.37 298.766 1089.05 298.265 1089.93 297.818C1090.83 297.372 1091.89 297.148 1093.12 297.148C1095 297.148 1096.45 297.604 1097.44 298.516C1098.44 299.427 1098.94 300.607 1098.94 302.057C1098.94 303.205 1098.59 304.167 1097.88 304.941C1097.18 305.707 1096.41 306.181 1095.58 306.363L1095.58 306.418C1096.55 306.555 1097.49 307.083 1098.38 308.004C1099.28 308.924 1099.73 310.023 1099.73 311.299C1099.74 313.195 1099.19 314.689 1098.09 315.783C1097 316.868 1095.26 317.41 1092.87 317.41C1091.48 317.41 1090.34 317.141 1089.44 316.603C1088.53 316.057 1087.84 315.514 1087.37 314.976Z" fill="black"/>
<path d="M17.8702 95.2636C17.7509 94.972 17.8597 94.7623 18.1967 94.6347C18.8978 94.3704 19.562 93.9466 20.1894 93.3632C20.8168 92.7799 21.3122 92.2604 21.6756 91.8047C21.9391 91.4765 22.1938 91.3125 22.4399 91.3125H23.602C24.0213 91.3125 24.2315 91.5175 24.2326 91.9277L24.2807 110.385C24.2818 110.795 24.0772 111 23.6671 111H22.4913C22.0811 111 21.8755 110.795 21.8745 110.385L21.8354 95.4003C21.8347 95.1269 21.8431 94.8535 21.8606 94.58H21.8332C21.5516 94.9355 21.1378 95.3001 20.5919 95.6738C20.046 96.0475 19.5455 96.3209 19.0902 96.4941C18.6895 96.649 18.425 96.5761 18.2966 96.2753L17.8702 95.2636ZM28.9034 111C28.4021 111 28.1509 110.795 28.1499 110.385L28.1481 109.728C28.1472 109.373 28.2968 109.045 28.5967 108.744L33.942 103.344C35.5238 101.749 36.5597 100.518 37.0496 99.6523C37.5486 98.7773 37.7966 97.7701 37.7937 96.6308C37.7912 95.6738 37.5065 94.8626 36.9397 94.1972C36.3819 93.5319 35.5334 93.1992 34.3941 93.1992C33.3732 93.1992 32.5263 93.4589 31.8531 93.9785C31.18 94.498 30.6947 95.3684 30.3971 96.5898C30.2708 97.1093 30.0025 97.3098 29.592 97.1914L28.5248 96.8769C28.242 96.7949 28.1726 96.4075 28.3167 95.7148C28.5779 94.5208 29.2131 93.4635 30.2224 92.5429C31.2409 91.6133 32.5932 91.1484 34.2794 91.1484C36.4213 91.1484 37.9858 91.6862 38.973 92.7617C39.9693 93.8372 40.4695 95.1543 40.4736 96.7128C40.4775 98.235 40.0708 99.5475 39.2534 100.65C38.445 101.753 37.3317 102.993 35.9135 104.369L31.4268 108.73L31.4269 108.785C31.673 108.767 32.0375 108.758 32.5206 108.758H39.9718C40.4731 108.758 40.7243 108.963 40.7253 109.373L40.728 110.385C40.7291 110.795 40.4789 111 39.9776 111H28.9034ZM45.3644 111C44.9542 111 44.7486 110.795 44.7475 110.385L44.7432 108.717C44.7421 108.307 44.9466 108.101 45.3568 108.101H46.888C47.2982 108.101 47.5038 108.307 47.5049 108.717L47.5092 110.385C47.5103 110.795 47.3058 111 46.8956 111H45.3644ZM51.4777 101.279C51.4693 98.0891 51.9004 95.6054 52.7707 93.8281C53.6411 92.0416 55.3067 91.1484 57.7676 91.1484C60.2286 91.1484 61.8989 92.0416 62.7785 93.8281C63.6582 95.6054 64.1022 98.0891 64.1105 101.279C64.1188 104.469 63.6878 106.958 62.8175 108.744C61.9471 110.521 60.2814 111.41 57.8205 111.41C55.3596 111.41 53.6893 110.521 52.8096 108.744C51.93 106.958 51.486 104.469 51.4777 101.279ZM54.0206 101.279C54.0273 103.831 54.2513 105.832 54.6925 107.281C55.1338 108.721 56.1747 109.441 57.8154 109.441C59.456 109.441 60.4932 108.721 60.9269 107.281C61.3606 105.832 61.5742 103.831 61.5675 101.279C61.5609 98.7272 61.3369 96.7311 60.8956 95.291C60.4544 93.8418 59.4134 93.1172 57.7728 93.1172C56.1322 93.1172 55.095 93.8418 54.6613 95.291C54.2275 96.7311 54.014 98.7272 54.0206 101.279ZM67.4581 111C66.9568 111 66.7056 110.795 66.7045 110.385L66.7028 109.728C66.7019 109.373 66.8514 109.045 67.1514 108.744L72.4967 103.344C74.0785 101.749 75.1143 100.518 75.6043 99.6523C76.1033 98.7773 76.3513 97.7701 76.3483 96.6308C76.3459 95.6738 76.0612 94.8626 75.4943 94.1972C74.9366 93.5319 74.0881 93.1992 72.9488 93.1992C71.9279 93.1992 71.081 93.4589 70.4078 93.9785C69.7347 94.498 69.2493 95.3684 68.9518 96.5898C68.8255 97.1093 68.5571 97.3098 68.1467 97.1914L67.0795 96.8769C66.7967 96.7949 66.7273 96.4075 66.8713 95.7148C67.1326 94.5208 67.7678 93.4635 68.7771 92.5429C69.7955 91.6133 71.1478 91.1484 72.834 91.1484C74.976 91.1484 76.5405 91.6862 77.5277 92.7617C78.524 93.8372 79.0242 95.1543 79.0282 96.7128C79.0322 98.235 78.6255 99.5475 77.8081 100.65C76.9997 101.753 75.8864 102.993 74.4681 104.369L69.9815 108.73L69.9816 108.785C70.2277 108.767 70.5922 108.758 71.0753 108.758H78.5265C79.0278 108.758 79.279 108.963 79.28 109.373L79.2827 110.385C79.2837 110.795 79.0336 111 78.5323 111H67.4581ZM81.817 101.826C81.8065 97.8157 82.4965 95.0358 83.887 93.4863C85.2775 91.9277 86.9708 91.1484 88.9669 91.1484C90.1062 91.1484 91.018 91.2942 91.7024 91.5859C92.3867 91.8776 92.9756 92.2513 93.469 92.707C93.8527 93.0625 93.9401 93.3587 93.7311 93.5957L93.0904 94.3476C92.836 94.6393 92.5032 94.6119 92.0922 94.2656C91.7542 93.9739 91.3479 93.7233 90.8734 93.5136C90.3989 93.304 89.7242 93.1992 88.8492 93.1992C87.6187 93.1992 86.5493 93.8144 85.6411 95.0449C84.7328 96.2753 84.2821 98.2076 84.289 100.842H84.3164C84.725 100.249 85.3116 99.748 86.0761 99.3378C86.8498 98.9186 87.8245 98.7089 89.0003 98.7089C90.4586 98.7089 91.7405 99.2102 92.846 100.213C93.9514 101.206 94.5068 102.706 94.512 104.711C94.5172 106.698 93.9928 108.311 92.9387 109.551C91.8938 110.79 90.3413 111.41 88.2814 111.41C86.1304 111.41 84.5149 110.558 83.4349 108.853C82.364 107.14 81.8247 104.797 81.817 101.826ZM84.7644 104.889C84.7674 106.019 85.08 107.049 85.7022 107.978C86.3335 108.899 87.2006 109.359 88.3034 109.359C89.4428 109.359 90.3166 108.931 90.9251 108.074C91.5335 107.217 91.836 106.124 91.8325 104.793C91.8291 103.471 91.5166 102.478 90.8951 101.812C90.2735 101.138 89.4979 100.801 88.5682 100.801C87.3651 100.801 86.4272 101.17 85.7547 101.908C85.0913 102.646 84.7612 103.64 84.7644 104.889Z" fill="black"/>
<path d="M1182.28 111C1181.83 111 1181.6 110.749 1181.6 110.248L1181.55 92.1465C1181.55 91.6452 1181.78 91.3945 1182.23 91.3945H1183.49C1183.95 91.3945 1184.18 91.6452 1184.18 92.1465L1184.22 110.248C1184.23 110.749 1184 111 1183.54 111H1182.28ZM1189.11 111C1188.7 111 1188.49 110.795 1188.49 110.385L1188.46 97.2597C1188.45 96.8496 1188.66 96.6445 1189.07 96.6445H1190.22C1190.63 96.6445 1190.83 96.8496 1190.83 97.2597L1190.84 98.3535H1190.89C1191.48 97.6972 1192.12 97.2096 1192.8 96.8906C1193.48 96.5716 1194.34 96.4121 1195.36 96.4121C1197.02 96.4121 1198.21 96.8815 1198.93 97.8203C1199.66 98.7499 1200.03 100.026 1200.03 101.648L1200.06 110.385C1200.06 110.795 1199.85 111 1199.44 111H1198.27C1197.86 111 1197.65 110.795 1197.65 110.385L1197.63 102.305C1197.62 100.518 1197.32 99.388 1196.73 98.914C1196.14 98.4309 1195.38 98.1894 1194.47 98.1894C1193.29 98.1894 1192.39 98.5449 1191.78 99.2558C1191.17 99.9576 1190.87 101.165 1190.88 102.879L1190.9 110.385C1190.9 110.795 1190.69 111 1190.28 111H1189.11ZM1203.18 98.4492C1202.77 98.4492 1202.57 98.2897 1202.57 97.9707L1202.56 97.123C1202.56 96.804 1202.77 96.6445 1203.18 96.6445H1204.79L1204.79 95.414C1204.79 95.2317 1204.83 95.0586 1204.92 94.8945L1205.88 93.1582C1206.05 92.8392 1206.19 92.6797 1206.3 92.6797H1206.78C1207.05 92.6797 1207.19 92.8392 1207.19 93.1582L1207.2 96.6445H1210.11C1210.52 96.6445 1210.73 96.804 1210.73 97.123L1210.73 97.9707C1210.73 98.2897 1210.52 98.4492 1210.11 98.4492H1207.2L1207.23 107.158C1207.23 108.115 1207.37 108.739 1207.65 109.031C1207.95 109.314 1208.29 109.455 1208.69 109.455C1209 109.455 1209.37 109.364 1209.8 109.182C1210.24 108.999 1210.54 108.844 1210.7 108.717C1210.87 108.589 1210.99 108.63 1211.09 108.84L1211.54 109.892C1211.61 110.075 1211.56 110.221 1211.38 110.33C1211.02 110.54 1210.5 110.745 1209.82 110.945C1209.14 111.137 1208.45 111.232 1207.77 111.232C1206.82 111.232 1206.09 110.891 1205.58 110.207C1205.08 109.523 1204.82 108.557 1204.82 107.309L1204.8 98.4492H1203.18ZM1213.48 103.822C1213.47 101.562 1214.03 99.7617 1215.16 98.4218C1216.29 97.082 1217.9 96.4121 1220.01 96.4121C1221.76 96.4121 1223.21 97.0273 1224.36 98.2578C1225.52 99.4791 1226.11 101.434 1226.11 104.123C1226.11 104.533 1225.93 104.738 1225.55 104.738H1216.02C1216.18 106.497 1216.66 107.723 1217.46 108.416C1218.25 109.1 1219.15 109.441 1220.15 109.441C1221.21 109.441 1222.02 109.264 1222.58 108.908C1223.15 108.553 1223.56 108.202 1223.82 107.855C1224.12 107.473 1224.4 107.4 1224.67 107.637L1225.48 108.334C1225.69 108.516 1225.69 108.767 1225.48 109.086C1225.31 109.35 1224.81 109.774 1224 110.357C1223.19 110.941 1221.91 111.232 1220.16 111.232C1217.88 111.232 1216.19 110.562 1215.11 109.223C1214.03 107.883 1213.48 106.083 1213.48 103.822ZM1215.96 102.961H1223.69C1223.65 101.685 1223.32 100.568 1222.7 99.6113C1222.07 98.6451 1221.16 98.1621 1219.96 98.1621C1218.9 98.1621 1218 98.5175 1217.27 99.2285C1216.53 99.9303 1216.1 101.174 1215.96 102.961ZM1229.9 111C1229.49 111 1229.29 110.795 1229.29 110.385L1229.25 97.2597C1229.25 96.8496 1229.46 96.6445 1229.87 96.6445H1231.01C1231.42 96.6445 1231.63 96.8496 1231.63 97.2597L1231.64 98.9003H1231.69C1232.13 98.08 1232.64 97.4602 1233.23 97.041C1233.82 96.6217 1234.56 96.4121 1235.44 96.4121C1236.03 96.4121 1236.44 96.4622 1236.67 96.5625C1236.88 96.6445 1236.96 96.7812 1236.91 96.9726L1236.6 98.0937C1236.55 98.2578 1236.43 98.3216 1236.24 98.2851C1235.92 98.2213 1235.62 98.1894 1235.34 98.1894C1234.27 98.1894 1233.39 98.6725 1232.7 99.6386C1232.01 100.596 1231.67 101.904 1231.68 103.562L1231.69 110.385C1231.69 110.795 1231.49 111 1231.08 111H1229.9ZM1239.77 111C1239.36 111 1239.16 110.795 1239.16 110.385L1239.12 97.2597C1239.12 96.8496 1239.33 96.6445 1239.74 96.6445H1240.89C1241.3 96.6445 1241.5 96.8496 1241.5 97.2597L1241.51 98.3535H1241.56C1242.15 97.6972 1242.79 97.2096 1243.47 96.8906C1244.15 96.5716 1245 96.4121 1246.03 96.4121C1247.68 96.4121 1248.88 96.8815 1249.6 97.8203C1250.33 98.7499 1250.7 100.026 1250.7 101.648L1250.72 110.385C1250.73 110.795 1250.52 111 1250.11 111H1248.93C1248.52 111 1248.32 110.795 1248.32 110.385L1248.3 102.305C1248.29 100.518 1247.99 99.388 1247.4 98.914C1246.81 98.4309 1246.05 98.1894 1245.14 98.1894C1243.96 98.1894 1243.06 98.5449 1242.45 99.2558C1241.84 99.9576 1241.54 101.165 1241.54 102.879L1241.56 110.385C1241.56 110.795 1241.36 111 1240.95 111H1239.77ZM1253.78 103.822C1253.78 101.562 1254.34 99.7617 1255.46 98.4218C1256.59 97.082 1258.21 96.4121 1260.31 96.4121C1262.06 96.4121 1263.51 97.0273 1264.67 98.2578C1265.83 99.4791 1266.41 101.434 1266.42 104.123C1266.42 104.533 1266.23 104.738 1265.86 104.738H1256.33C1256.49 106.497 1256.97 107.723 1257.76 108.416C1258.55 109.1 1259.45 109.441 1260.46 109.441C1261.51 109.441 1262.32 109.264 1262.89 108.908C1263.45 108.553 1263.87 108.202 1264.13 107.855C1264.42 107.473 1264.7 107.4 1264.98 107.637L1265.79 108.334C1266 108.516 1266 108.767 1265.79 109.086C1265.61 109.35 1265.12 109.774 1264.3 110.357C1263.49 110.941 1262.21 111.232 1260.46 111.232C1258.18 111.232 1256.5 110.562 1255.41 109.223C1254.33 107.883 1253.79 106.083 1253.78 103.822ZM1256.27 102.961H1263.99C1263.95 101.685 1263.62 100.568 1263 99.6113C1262.38 98.6451 1261.47 98.1621 1260.26 98.1621C1259.21 98.1621 1258.31 98.5175 1257.57 99.2285C1256.84 99.9303 1256.4 101.174 1256.27 102.961ZM1268.86 98.4492C1268.45 98.4492 1268.25 98.2897 1268.25 97.9707L1268.24 97.123C1268.24 96.804 1268.45 96.6445 1268.86 96.6445H1270.47L1270.47 95.414C1270.47 95.2317 1270.51 95.0586 1270.6 94.8945L1271.56 93.1582C1271.73 92.8392 1271.87 92.6797 1271.98 92.6797H1272.46C1272.73 92.6797 1272.87 92.8392 1272.87 93.1582L1272.88 96.6445H1275.79C1276.2 96.6445 1276.41 96.804 1276.41 97.123L1276.41 97.9707C1276.41 98.2897 1276.2 98.4492 1275.79 98.4492H1272.88L1272.91 107.158C1272.91 108.115 1273.05 108.739 1273.33 109.031C1273.63 109.314 1273.97 109.455 1274.37 109.455C1274.68 109.455 1275.05 109.364 1275.48 109.182C1275.92 108.999 1276.22 108.844 1276.38 108.717C1276.55 108.589 1276.67 108.63 1276.76 108.84L1277.22 109.892C1277.29 110.075 1277.24 110.221 1277.06 110.33C1276.7 110.54 1276.18 110.745 1275.5 110.945C1274.82 111.137 1274.13 111.232 1273.45 111.232C1272.5 111.232 1271.77 110.891 1271.26 110.207C1270.76 109.523 1270.5 108.557 1270.5 107.309L1270.48 98.4492H1268.86Z" fill="black"/>
<path d="M1181.4 185.172C1181.4 183.549 1182.15 182.36 1183.66 181.603C1185.18 180.847 1187.45 180.405 1190.47 180.277L1190.47 179.348C1190.46 178.491 1190.27 177.753 1189.87 177.133C1189.49 176.504 1188.72 176.189 1187.57 176.189C1186.84 176.189 1186.26 176.262 1185.82 176.408C1185.39 176.545 1184.99 176.732 1184.62 176.969C1184.27 177.197 1183.93 177.493 1183.6 177.857C1183.35 178.131 1183.12 178.144 1182.9 177.898L1182.19 177.078C1181.99 176.85 1182.06 176.577 1182.39 176.258C1182.87 175.802 1183.34 175.46 1183.8 175.232C1184.25 175.005 1184.82 174.813 1185.49 174.658C1186.18 174.494 1186.87 174.412 1187.57 174.412C1189.47 174.412 1190.83 174.904 1191.65 175.889C1192.46 176.864 1192.87 178.204 1192.87 179.908L1192.9 188.385C1192.9 188.795 1192.69 189 1192.28 189H1191.05C1190.7 189 1190.52 188.795 1190.52 188.385L1190.52 187.715H1190.49C1189.77 188.28 1189.06 188.676 1188.37 188.904C1187.69 189.123 1186.92 189.232 1186.08 189.232C1184.58 189.232 1183.43 188.877 1182.62 188.166C1181.81 187.446 1181.41 186.448 1181.4 185.172ZM1183.89 185.226C1183.89 185.792 1184.01 186.247 1184.25 186.594C1184.49 186.931 1184.82 187.15 1185.24 187.25C1185.66 187.341 1186.09 187.387 1186.55 187.387C1187.25 187.387 1187.92 187.318 1188.55 187.182C1189.17 187.045 1189.82 186.685 1190.48 186.101L1190.47 182.068C1188.63 182.205 1187.32 182.374 1186.54 182.574C1185.75 182.766 1185.12 183.103 1184.63 183.586C1184.14 184.06 1183.89 184.607 1183.89 185.226ZM1195.61 175.314C1195.49 174.868 1195.61 174.644 1195.98 174.644H1197.41C1197.74 174.644 1197.95 174.822 1198.03 175.178L1200.06 184.201C1200.13 184.465 1200.22 184.88 1200.35 185.445C1200.49 186.01 1200.59 186.425 1200.64 186.689H1200.7C1200.74 186.434 1200.82 186.051 1200.93 185.541C1201.05 185.031 1201.15 184.584 1201.25 184.201L1203.64 175.178C1203.73 174.822 1203.93 174.644 1204.25 174.644H1205.48C1205.8 174.644 1206 174.822 1206.1 175.178L1208.53 184.201C1208.63 184.584 1208.73 185.031 1208.84 185.541C1208.96 186.051 1209.05 186.434 1209.09 186.689H1209.15C1209.2 186.425 1209.29 186.01 1209.42 185.445C1209.55 184.88 1209.65 184.465 1209.72 184.201L1211.7 175.178C1211.78 174.822 1211.99 174.644 1212.32 174.644H1213.75C1214.12 174.644 1214.24 174.868 1214.12 175.314L1210.77 188.166C1210.62 188.722 1210.38 189 1210.03 189H1208.39C1208.04 189 1207.8 188.722 1207.65 188.166L1205.3 179.129C1205.13 178.491 1205.03 178.044 1204.98 177.789C1204.95 177.534 1204.91 177.292 1204.88 177.064H1204.86C1204.83 177.292 1204.8 177.534 1204.75 177.789C1204.71 178.044 1204.62 178.491 1204.45 179.129L1202.15 188.166C1202.01 188.722 1201.76 189 1201.42 189H1199.78C1199.43 189 1199.18 188.722 1199.03 188.166L1195.61 175.314ZM1215.97 187.66C1215.69 187.396 1215.63 187.15 1215.79 186.922L1216.41 186.06C1216.61 185.787 1216.9 185.801 1217.3 186.101C1217.83 186.512 1218.43 186.84 1219.09 187.086C1219.75 187.332 1220.51 187.455 1221.36 187.455C1221.86 187.455 1222.31 187.396 1222.7 187.277C1223.09 187.15 1223.43 186.917 1223.72 186.58C1224.02 186.243 1224.17 185.792 1224.17 185.226C1224.17 184.898 1224.1 184.588 1223.95 184.297C1223.81 184.005 1223.59 183.773 1223.29 183.6C1223 183.417 1222.71 183.276 1222.43 183.176C1221.96 183.003 1221.5 182.861 1221.03 182.752C1220.58 182.633 1219.97 182.456 1219.23 182.219C1218.72 182.064 1218.25 181.845 1217.8 181.562C1217.36 181.271 1216.96 180.879 1216.62 180.387C1216.29 179.894 1216.13 179.215 1216.13 178.35C1216.12 177.465 1216.39 176.704 1216.93 176.066C1217.46 175.428 1218.14 174.995 1218.95 174.768C1219.76 174.531 1220.55 174.412 1221.31 174.412C1222.44 174.412 1223.35 174.544 1224.03 174.809C1224.73 175.064 1225.32 175.369 1225.83 175.725C1226.12 175.934 1226.16 176.176 1225.95 176.449L1225.34 177.269C1225.15 177.534 1224.85 177.525 1224.45 177.242C1224.11 177.005 1223.63 176.782 1223.01 176.572C1222.39 176.363 1221.85 176.258 1221.38 176.258C1220.81 176.258 1220.32 176.322 1219.91 176.449C1219.5 176.577 1219.17 176.796 1218.91 177.105C1218.66 177.415 1218.53 177.78 1218.53 178.199C1218.53 178.518 1218.58 178.805 1218.69 179.06C1218.79 179.307 1218.97 179.534 1219.25 179.744C1219.52 179.954 1219.9 180.122 1220.4 180.25C1221.16 180.45 1221.86 180.633 1222.49 180.797C1223.13 180.961 1223.7 181.161 1224.21 181.398C1224.88 181.708 1225.39 182.05 1225.75 182.424C1226.11 182.797 1226.37 183.203 1226.5 183.641C1226.64 184.069 1226.71 184.547 1226.71 185.076C1226.72 186.051 1226.43 186.876 1225.84 187.551C1225.27 188.225 1224.63 188.676 1223.92 188.904C1223.21 189.123 1222.35 189.232 1221.35 189.232C1219.99 189.232 1218.83 189.041 1217.85 188.658C1216.88 188.266 1216.26 187.934 1215.97 187.66ZM1239.38 189C1238.97 189 1238.77 188.795 1238.77 188.385L1238.73 175.26C1238.73 174.85 1238.94 174.644 1239.35 174.644H1240.52C1240.93 174.644 1241.14 174.85 1241.14 175.26L1241.17 188.385C1241.17 188.795 1240.97 189 1240.56 189H1239.38ZM1239.34 172.047C1238.93 172.047 1238.72 171.842 1238.72 171.432L1238.72 170.256C1238.72 169.846 1238.92 169.641 1239.33 169.641H1240.51C1240.92 169.641 1241.12 169.846 1241.12 170.256L1241.13 171.432C1241.13 171.842 1240.92 172.047 1240.51 172.047H1239.34ZM1245.67 189C1245.26 189 1245.06 188.795 1245.06 188.385L1245.02 175.26C1245.02 174.85 1245.22 174.644 1245.63 174.644H1246.78C1247.19 174.644 1247.4 174.85 1247.4 175.26L1247.4 176.353H1247.46C1248.05 175.697 1248.68 175.21 1249.37 174.891C1250.05 174.572 1250.9 174.412 1251.92 174.412C1253.58 174.412 1254.77 174.881 1255.49 175.82C1256.23 176.75 1256.59 178.026 1256.6 179.648L1256.62 188.385C1256.62 188.795 1256.42 189 1256.01 189H1254.83C1254.42 189 1254.22 188.795 1254.22 188.385L1254.19 180.305C1254.19 178.518 1253.89 177.388 1253.3 176.914C1252.7 176.431 1251.95 176.189 1251.04 176.189C1249.85 176.189 1248.96 176.545 1248.35 177.256C1247.74 177.958 1247.44 179.165 1247.44 180.879L1247.46 188.385C1247.46 188.795 1247.26 189 1246.85 189H1245.67ZM1259.75 176.449C1259.34 176.449 1259.13 176.29 1259.13 175.971L1259.13 175.123C1259.13 174.804 1259.33 174.644 1259.74 174.644H1261.36L1261.35 173.414C1261.35 173.232 1261.4 173.059 1261.49 172.894L1262.44 171.158C1262.61 170.839 1262.75 170.68 1262.86 170.68H1263.34C1263.62 170.68 1263.75 170.839 1263.75 171.158L1263.76 174.644H1266.68C1267.09 174.644 1267.29 174.804 1267.29 175.123L1267.29 175.971C1267.3 176.29 1267.09 176.449 1266.68 176.449H1263.77L1263.79 185.158C1263.79 186.115 1263.94 186.739 1264.22 187.031C1264.51 187.314 1264.86 187.455 1265.26 187.455C1265.57 187.455 1265.94 187.364 1266.37 187.182C1266.8 186.999 1267.1 186.844 1267.27 186.717C1267.43 186.589 1267.56 186.63 1267.65 186.84L1268.1 187.892C1268.18 188.075 1268.12 188.221 1267.94 188.33C1267.59 188.54 1267.07 188.745 1266.38 188.945C1265.7 189.137 1265.02 189.232 1264.33 189.232C1263.39 189.232 1262.66 188.891 1262.14 188.207C1261.64 187.523 1261.39 186.557 1261.38 185.309L1261.36 176.449H1259.75ZM1272.24 189C1271.83 189 1271.62 188.795 1271.62 188.385L1271.62 186.717C1271.61 186.307 1271.82 186.101 1272.23 186.101H1273.76C1274.17 186.101 1274.38 186.307 1274.38 186.717L1274.38 188.385C1274.38 188.795 1274.18 189 1273.77 189H1272.24ZM1162.91 229C1162.5 229 1162.3 228.795 1162.29 228.385L1162.26 215.26C1162.26 214.849 1162.46 214.644 1162.87 214.644H1164.02C1164.43 214.644 1164.64 214.849 1164.64 215.26L1164.64 216.353H1164.7C1165.29 215.697 1165.92 215.209 1166.61 214.89C1167.29 214.571 1168.14 214.412 1169.16 214.412C1170.82 214.412 1172.01 214.881 1172.73 215.82C1173.47 216.75 1173.83 218.026 1173.84 219.648L1173.86 228.385C1173.86 228.795 1173.66 229 1173.25 229H1172.07C1171.66 229 1171.46 228.795 1171.45 228.385L1171.43 220.304C1171.43 218.518 1171.13 217.388 1170.54 216.914C1169.94 216.431 1169.19 216.189 1168.28 216.189C1167.09 216.189 1166.2 216.545 1165.59 217.256C1164.98 217.957 1164.68 219.165 1164.68 220.879L1164.7 228.385C1164.7 228.795 1164.5 229 1164.09 229H1162.91ZM1176.92 221.822C1176.91 219.562 1177.47 217.762 1178.6 216.422C1179.73 215.082 1181.34 214.412 1183.45 214.412C1185.2 214.412 1186.65 215.027 1187.8 216.258C1188.96 217.479 1189.55 219.434 1189.55 222.123C1189.55 222.533 1189.37 222.738 1188.99 222.738H1179.47C1179.62 224.497 1180.1 225.723 1180.9 226.416C1181.69 227.099 1182.59 227.441 1183.59 227.441C1184.65 227.441 1185.46 227.263 1186.02 226.908C1186.59 226.553 1187 226.202 1187.27 225.855C1187.56 225.472 1187.84 225.4 1188.11 225.637L1188.92 226.334C1189.13 226.516 1189.13 226.767 1188.92 227.086C1188.75 227.35 1188.26 227.774 1187.44 228.357C1186.63 228.941 1185.35 229.232 1183.6 229.232C1181.32 229.232 1179.64 228.562 1178.55 227.222C1177.47 225.883 1176.93 224.082 1176.92 221.822ZM1179.41 220.961H1187.13C1187.09 219.685 1186.76 218.568 1186.14 217.611C1185.51 216.645 1184.6 216.162 1183.4 216.162C1182.34 216.162 1181.44 216.517 1180.71 217.228C1179.97 217.93 1179.54 219.174 1179.41 220.961ZM1192 216.449C1191.59 216.449 1191.38 216.29 1191.38 215.971L1191.38 215.123C1191.38 214.804 1191.58 214.644 1191.99 214.644H1193.61L1193.6 213.414C1193.6 213.232 1193.65 213.058 1193.74 212.894L1194.69 211.158C1194.86 210.839 1195.01 210.68 1195.12 210.68H1195.59C1195.87 210.68 1196 210.839 1196.01 211.158L1196.01 214.644H1198.93C1199.34 214.644 1199.54 214.804 1199.54 215.123L1199.55 215.971C1199.55 216.29 1199.34 216.449 1198.93 216.449H1196.02L1196.04 225.158C1196.04 226.115 1196.19 226.739 1196.47 227.031C1196.76 227.314 1197.11 227.455 1197.51 227.455C1197.82 227.455 1198.19 227.364 1198.62 227.181C1199.05 226.999 1199.35 226.844 1199.52 226.717C1199.68 226.589 1199.81 226.63 1199.9 226.84L1200.36 227.892C1200.43 228.075 1200.37 228.22 1200.19 228.33C1199.84 228.539 1199.32 228.745 1198.64 228.945C1197.95 229.136 1197.27 229.232 1196.59 229.232C1195.64 229.232 1194.91 228.89 1194.4 228.207C1193.89 227.523 1193.64 226.557 1193.64 225.308L1193.61 216.449H1192ZM1201.91 215.314C1201.79 214.868 1201.91 214.644 1202.28 214.644H1203.71C1204.04 214.644 1204.25 214.822 1204.33 215.178L1206.36 224.201C1206.43 224.465 1206.52 224.88 1206.65 225.445C1206.79 226.01 1206.89 226.425 1206.94 226.689H1207C1207.04 226.434 1207.12 226.051 1207.23 225.541C1207.34 225.03 1207.45 224.584 1207.55 224.201L1209.93 215.178C1210.02 214.822 1210.23 214.644 1210.55 214.644H1211.78C1212.1 214.644 1212.3 214.822 1212.39 215.178L1214.82 224.201C1214.93 224.584 1215.03 225.03 1215.14 225.541C1215.26 226.051 1215.35 226.434 1215.39 226.689H1215.45C1215.5 226.425 1215.59 226.01 1215.72 225.445C1215.85 224.88 1215.95 224.465 1216.01 224.201L1218 215.178C1218.08 214.822 1218.29 214.644 1218.61 214.644H1220.05C1220.41 214.644 1220.54 214.868 1220.42 215.314L1217.06 228.166C1216.92 228.722 1216.67 229 1216.33 229H1214.69C1214.34 229 1214.09 228.722 1213.95 228.166L1211.6 219.129C1211.43 218.491 1211.33 218.044 1211.28 217.789C1211.24 217.534 1211.21 217.292 1211.18 217.064H1211.16C1211.13 217.292 1211.09 217.534 1211.05 217.789C1211.01 218.044 1210.91 218.491 1210.75 219.129L1208.45 228.166C1208.31 228.722 1208.06 229 1207.71 229H1206.07C1205.73 229 1205.48 228.722 1205.33 228.166L1201.91 215.314ZM1222.04 221.822C1222.03 219.68 1222.59 217.912 1223.72 216.517C1224.85 215.114 1226.52 214.412 1228.7 214.412C1230.89 214.412 1232.55 215.114 1233.69 216.517C1234.83 217.912 1235.4 219.68 1235.41 221.822C1235.41 223.964 1234.85 225.737 1233.71 227.14C1232.59 228.535 1230.93 229.232 1228.74 229.232C1226.55 229.232 1224.89 228.535 1223.75 227.14C1222.61 225.737 1222.04 223.964 1222.04 221.822ZM1224.58 221.822C1224.58 223.736 1224.97 225.153 1225.73 226.074C1226.48 226.995 1227.49 227.455 1228.74 227.455C1229.99 227.455 1230.99 226.995 1231.74 226.074C1232.5 225.153 1232.87 223.736 1232.86 221.822C1232.86 219.908 1232.48 218.491 1231.72 217.57C1230.96 216.65 1229.96 216.189 1228.71 216.189C1227.46 216.189 1226.46 216.65 1225.7 217.57C1224.95 218.491 1224.57 219.908 1224.58 221.822ZM1239.15 229C1238.74 229 1238.53 228.795 1238.53 228.385L1238.49 215.26C1238.49 214.849 1238.7 214.644 1239.11 214.644H1240.26C1240.67 214.644 1240.87 214.849 1240.87 215.26L1240.88 216.9H1240.93C1241.37 216.08 1241.88 215.46 1242.47 215.041C1243.06 214.622 1243.8 214.412 1244.69 214.412C1245.27 214.412 1245.68 214.462 1245.92 214.562C1246.13 214.644 1246.2 214.781 1246.15 214.972L1245.84 216.094C1245.79 216.258 1245.67 216.321 1245.48 216.285C1245.16 216.221 1244.86 216.189 1244.58 216.189C1243.51 216.189 1242.64 216.672 1241.95 217.638C1241.26 218.596 1240.91 219.903 1240.92 221.562L1240.93 228.385C1240.94 228.795 1240.73 229 1240.32 229H1239.15ZM1249.02 229C1248.61 229 1248.4 228.795 1248.4 228.385L1248.35 209.435C1248.35 209.025 1248.55 208.82 1248.96 208.82H1250.14C1250.55 208.82 1250.76 209.025 1250.76 209.435L1250.79 220.81C1250.79 221.084 1250.78 221.357 1250.76 221.631H1250.79L1256.31 215C1256.51 214.763 1256.75 214.644 1257.03 214.644H1258.28C1258.97 214.644 1259.09 214.913 1258.63 215.451L1254.35 220.564L1259.28 228.193C1259.63 228.731 1259.51 229 1258.93 229H1257.59C1257.29 229 1257.03 228.831 1256.81 228.494L1252.85 222.355L1250.8 224.816L1250.81 228.385C1250.81 228.795 1250.6 229 1250.19 229H1249.02ZM1262.74 229C1262.33 229 1262.13 228.795 1262.13 228.385L1262.09 215.26C1262.09 214.849 1262.3 214.644 1262.71 214.644H1263.88C1264.29 214.644 1264.5 214.849 1264.5 215.26L1264.53 228.385C1264.53 228.795 1264.33 229 1263.92 229H1262.74ZM1262.7 212.047C1262.29 212.047 1262.08 211.842 1262.08 211.431L1262.08 210.256C1262.08 209.846 1262.28 209.64 1262.69 209.64H1263.87C1264.28 209.64 1264.48 209.846 1264.49 210.256L1264.49 211.431C1264.49 211.842 1264.28 212.047 1263.87 212.047H1262.7ZM1269.03 229C1268.62 229 1268.42 228.795 1268.42 228.385L1268.38 215.26C1268.38 214.849 1268.58 214.644 1268.99 214.644H1270.14C1270.55 214.644 1270.76 214.849 1270.76 215.26L1270.76 216.353H1270.82C1271.41 215.697 1272.05 215.209 1272.73 214.89C1273.41 214.571 1274.26 214.412 1275.28 214.412C1276.94 214.412 1278.13 214.881 1278.86 215.82C1279.59 216.75 1279.95 218.026 1279.96 219.648L1279.98 228.385C1279.98 228.795 1279.78 229 1279.37 229H1278.19C1277.78 229 1277.58 228.795 1277.58 228.385L1277.55 220.304C1277.55 218.518 1277.25 217.388 1276.66 216.914C1276.06 216.431 1275.31 216.189 1274.4 216.189C1273.21 216.189 1272.32 216.545 1271.71 217.256C1271.1 217.957 1270.8 219.165 1270.8 220.879L1270.82 228.385C1270.82 228.795 1270.62 229 1270.21 229H1269.03ZM1283.04 221.822C1283.04 219.862 1283.51 218.14 1284.45 216.654C1285.39 215.159 1286.78 214.412 1288.6 214.412C1289.65 214.412 1290.49 214.585 1291.12 214.931C1291.75 215.278 1292.31 215.752 1292.82 216.353H1292.84L1292.92 215.26C1292.95 214.849 1293.13 214.644 1293.45 214.644H1294.6C1295.01 214.644 1295.22 214.849 1295.22 215.26L1295.26 229.109C1295.26 230.859 1294.86 232.226 1294.05 233.211C1293.25 234.204 1291.66 234.701 1289.28 234.701C1287.69 234.701 1286.49 234.519 1285.7 234.154C1284.9 233.799 1284.34 233.42 1284 233.019C1283.75 232.719 1283.74 232.463 1283.96 232.254L1284.71 231.515C1284.92 231.315 1285.21 231.379 1285.58 231.707C1286.07 232.144 1286.53 232.454 1286.98 232.636C1287.43 232.828 1288.2 232.924 1289.29 232.924C1290.53 232.924 1291.43 232.659 1292 232.131C1292.57 231.602 1292.85 230.508 1292.85 228.849L1292.85 228.029C1292.85 227.747 1292.85 227.469 1292.87 227.195H1292.84C1292.37 227.824 1291.81 228.321 1291.17 228.685C1290.53 229.05 1289.69 229.232 1288.64 229.232C1286.82 229.232 1285.43 228.489 1284.48 227.004C1283.52 225.509 1283.05 223.782 1283.04 221.822ZM1285.58 221.822C1285.59 223.499 1285.88 224.857 1286.46 225.896C1287.04 226.935 1288.03 227.455 1289.41 227.455C1290.4 227.455 1291.21 227.122 1291.86 226.457C1292.51 225.782 1292.84 224.762 1292.83 223.394L1292.83 220.25C1292.82 218.883 1292.49 217.866 1291.83 217.201C1291.18 216.527 1290.37 216.189 1289.38 216.189C1288 216.189 1287.02 216.709 1286.43 217.748C1285.86 218.787 1285.58 220.145 1285.58 221.822Z" fill="black"/>
<path d="M1180.55 317C1180.14 317 1179.94 316.795 1179.94 316.385L1179.9 303.26C1179.9 302.85 1180.11 302.644 1180.52 302.644H1181.66C1182.07 302.644 1182.28 302.85 1182.28 303.26L1182.28 304.9H1182.34C1182.77 304.08 1183.29 303.46 1183.88 303.041C1184.47 302.622 1185.21 302.412 1186.09 302.412C1186.68 302.412 1187.09 302.462 1187.32 302.562C1187.53 302.644 1187.61 302.781 1187.56 302.973L1187.25 304.094C1187.2 304.258 1187.08 304.322 1186.89 304.285C1186.57 304.221 1186.27 304.189 1185.99 304.189C1184.92 304.189 1184.04 304.672 1183.35 305.639C1182.66 306.596 1182.32 307.904 1182.32 309.562L1182.34 316.385C1182.34 316.795 1182.14 317 1181.73 317H1180.55ZM1189.02 313.172C1189.02 311.549 1189.77 310.36 1191.28 309.603C1192.8 308.847 1195.07 308.405 1198.08 308.277L1198.08 307.348C1198.08 306.491 1197.88 305.753 1197.49 305.133C1197.1 304.504 1196.34 304.189 1195.19 304.189C1194.46 304.189 1193.88 304.262 1193.44 304.408C1193 304.545 1192.6 304.732 1192.24 304.969C1191.88 305.197 1191.54 305.493 1191.22 305.857C1190.97 306.131 1190.74 306.144 1190.52 305.898L1189.8 305.078C1189.6 304.85 1189.67 304.577 1190.01 304.258C1190.49 303.802 1190.96 303.46 1191.41 303.232C1191.87 303.005 1192.43 302.813 1193.11 302.658C1193.79 302.494 1194.48 302.412 1195.18 302.412C1197.09 302.412 1198.45 302.904 1199.26 303.889C1200.08 304.864 1200.49 306.204 1200.49 307.908L1200.51 316.385C1200.51 316.795 1200.31 317 1199.9 317H1198.67C1198.31 317 1198.13 316.795 1198.13 316.385L1198.13 315.715H1198.1C1197.39 316.28 1196.68 316.676 1195.99 316.904C1195.31 317.123 1194.54 317.232 1193.69 317.232C1192.2 317.232 1191.04 316.877 1190.23 316.166C1189.43 315.446 1189.02 314.448 1189.02 313.172ZM1191.51 313.226C1191.51 313.792 1191.63 314.247 1191.87 314.594C1192.1 314.931 1192.43 315.15 1192.85 315.25C1193.27 315.341 1193.71 315.387 1194.17 315.387C1194.87 315.387 1195.53 315.318 1196.16 315.182C1196.79 315.045 1197.44 314.685 1198.1 314.101L1198.09 310.068C1196.25 310.205 1194.94 310.374 1194.15 310.574C1193.37 310.766 1192.73 311.103 1192.24 311.586C1191.75 312.06 1191.51 312.607 1191.51 313.226ZM1205.03 317C1204.62 317 1204.41 316.795 1204.41 316.385L1204.37 303.26C1204.37 302.85 1204.58 302.644 1204.99 302.644H1206.14C1206.55 302.644 1206.75 302.85 1206.75 303.26L1206.76 304.353H1206.81C1207.4 303.697 1208.04 303.21 1208.73 302.891C1209.43 302.572 1210.09 302.412 1210.73 302.412C1211.91 302.412 1212.81 302.708 1213.44 303.301C1214.08 303.884 1214.49 304.472 1214.67 305.064H1214.73C1215.23 304.317 1215.86 303.688 1216.62 303.178C1217.39 302.667 1218.2 302.412 1219.07 302.412C1220.52 302.412 1221.61 302.881 1222.35 303.82C1223.1 304.75 1223.47 306.026 1223.47 307.648L1223.49 316.385C1223.5 316.795 1223.29 317 1222.88 317H1221.71C1221.29 317 1221.09 316.795 1221.09 316.385L1221.07 308.441C1221.06 306.655 1220.84 305.502 1220.39 304.982C1219.94 304.454 1219.25 304.189 1218.32 304.189C1217.41 304.189 1216.65 304.581 1216.04 305.365C1215.43 306.14 1215.13 307.311 1215.14 308.879L1215.15 316.385C1215.16 316.795 1214.95 317 1214.54 317H1213.37C1212.96 317 1212.75 316.795 1212.75 316.385L1212.73 308.441C1212.72 306.655 1212.5 305.502 1212.05 304.982C1211.6 304.454 1210.91 304.189 1209.98 304.189C1209.07 304.189 1208.31 304.545 1207.7 305.256C1207.09 305.958 1206.79 307.165 1206.8 308.879L1206.81 316.385C1206.82 316.795 1206.61 317 1206.2 317H1205.03ZM1226.77 310.396C1226.36 310.396 1226.16 310.237 1226.16 309.918L1226.15 308.961C1226.15 308.642 1226.36 308.482 1226.77 308.482H1233.3C1233.71 308.482 1233.92 308.642 1233.92 308.961L1233.92 309.918C1233.92 310.237 1233.72 310.396 1233.31 310.396H1226.77ZM1235.85 309.822C1235.84 307.68 1236.37 305.912 1237.42 304.518C1238.49 303.114 1240.11 302.412 1242.3 302.412C1243.77 302.412 1244.9 302.676 1245.68 303.205C1246.46 303.725 1247.03 304.258 1247.38 304.805C1247.57 305.105 1247.53 305.347 1247.26 305.529L1246.4 306.09C1246.12 306.281 1245.85 306.158 1245.57 305.721C1245.31 305.301 1244.93 304.941 1244.45 304.641C1243.98 304.34 1243.26 304.189 1242.3 304.189C1241.05 304.189 1240.09 304.65 1239.41 305.57C1238.73 306.491 1238.39 307.908 1238.39 309.822C1238.4 311.736 1238.74 313.154 1239.43 314.074C1240.12 314.995 1241.08 315.455 1242.33 315.455C1243.34 315.455 1244.12 315.264 1244.65 314.881C1245.19 314.489 1245.58 314.065 1245.83 313.609C1246.06 313.181 1246.33 313.058 1246.63 313.24L1247.55 313.787C1247.82 313.951 1247.87 314.197 1247.68 314.525C1247.45 314.917 1246.93 315.469 1246.12 316.18C1245.32 316.881 1244.06 317.232 1242.34 317.232C1240.15 317.232 1238.52 316.535 1237.45 315.141C1236.39 313.737 1235.86 311.964 1235.85 309.822ZM1251.31 322.469C1250.9 322.469 1250.69 322.264 1250.69 321.853L1250.64 303.26C1250.64 302.85 1250.84 302.644 1251.25 302.644H1252.4C1252.73 302.644 1252.91 302.85 1252.94 303.26L1253.02 304.353H1253.05C1253.55 303.752 1254.11 303.278 1254.74 302.932C1255.37 302.585 1256.21 302.412 1257.25 302.412C1259.08 302.412 1260.47 303.159 1261.42 304.654C1262.37 306.14 1262.85 307.863 1262.85 309.822C1262.86 311.782 1262.39 313.509 1261.44 315.004C1260.5 316.489 1259.12 317.232 1257.29 317.232C1256.25 317.232 1255.41 317.059 1254.78 316.713C1254.15 316.366 1253.58 315.892 1253.08 315.291H1253.05C1253.07 315.564 1253.08 315.842 1253.08 316.125L1253.09 321.853C1253.1 322.264 1252.89 322.469 1252.48 322.469H1251.31ZM1253.07 311.394C1253.07 312.762 1253.4 313.782 1254.05 314.457C1254.7 315.122 1255.53 315.455 1256.51 315.455C1257.9 315.455 1258.87 314.935 1259.45 313.896C1260.03 312.857 1260.31 311.499 1260.31 309.822C1260.31 308.145 1260.01 306.787 1259.42 305.748C1258.85 304.709 1257.87 304.189 1256.48 304.189C1255.5 304.189 1254.68 304.527 1254.02 305.201C1253.38 305.866 1253.06 306.883 1253.06 308.25L1253.07 311.394ZM1265.95 311.996L1265.93 303.26C1265.92 302.85 1266.13 302.644 1266.54 302.644H1267.71C1268.12 302.644 1268.33 302.85 1268.33 303.26L1268.35 311.34C1268.36 313.126 1268.66 314.261 1269.25 314.744C1269.84 315.218 1270.58 315.455 1271.45 315.455C1272.6 315.455 1273.48 315.104 1274.09 314.402C1274.7 313.691 1275 312.479 1275 310.766L1274.98 303.26C1274.97 302.85 1275.18 302.644 1275.59 302.644H1276.77C1277.18 302.644 1277.38 302.85 1277.38 303.26L1277.42 316.385C1277.42 316.795 1277.21 317 1276.8 317H1275.65C1275.24 317 1275.04 316.795 1275.04 316.385L1275.03 315.291H1274.98C1274.39 315.947 1273.75 316.435 1273.07 316.754C1272.39 317.073 1271.55 317.232 1270.57 317.232C1268.97 317.232 1267.81 316.767 1267.07 315.838C1266.32 314.899 1265.95 313.618 1265.95 311.996Z" fill="black"/>
<line x1="1111.5" y1="75" x2="1111.5" y2="340" stroke="black"/>
</svg>
