<svg width="2379" height="660" viewBox="0 0 2379 660" fill="none" xmlns="http://www.w3.org/2000/svg">
<rect x="1044" y="199" width="192" height="78" rx="25" fill="#979797"/>
<path d="M1058.23 243.564C1057.93 243.281 1057.87 243.018 1058.04 242.773L1058.7 241.851C1058.92 241.558 1059.23 241.572 1059.65 241.895C1060.23 242.334 1060.87 242.686 1061.57 242.949C1062.29 243.213 1063.1 243.345 1064 243.345C1064.54 243.345 1065.02 243.281 1065.44 243.154C1065.86 243.018 1066.23 242.769 1066.54 242.407C1066.86 242.046 1067.02 241.562 1067.02 240.957C1067.02 240.605 1066.94 240.273 1066.79 239.961C1066.64 239.648 1066.41 239.399 1066.08 239.214C1065.77 239.019 1065.46 238.867 1065.16 238.76C1064.66 238.574 1064.17 238.423 1063.67 238.306C1063.18 238.179 1062.53 237.988 1061.73 237.734C1061.2 237.568 1060.69 237.334 1060.21 237.031C1059.73 236.719 1059.31 236.299 1058.95 235.771C1058.6 235.244 1058.42 234.517 1058.42 233.589C1058.42 232.642 1058.71 231.826 1059.29 231.143C1059.86 230.459 1060.59 229.995 1061.46 229.751C1062.32 229.497 1063.17 229.37 1063.99 229.37C1065.2 229.37 1066.17 229.512 1066.9 229.795C1067.65 230.068 1068.29 230.396 1068.82 230.776C1069.14 231.001 1069.18 231.26 1068.96 231.553L1068.3 232.432C1068.09 232.715 1067.77 232.705 1067.34 232.402C1066.98 232.148 1066.47 231.909 1065.81 231.685C1065.14 231.46 1064.56 231.348 1064.06 231.348C1063.45 231.348 1062.92 231.416 1062.48 231.553C1062.04 231.689 1061.68 231.924 1061.41 232.256C1061.14 232.588 1061 232.979 1061 233.428C1061 233.77 1061.05 234.077 1061.16 234.351C1061.27 234.614 1061.47 234.858 1061.76 235.083C1062.06 235.308 1062.47 235.488 1062.99 235.625C1063.81 235.84 1064.56 236.035 1065.23 236.211C1065.92 236.387 1066.53 236.602 1067.08 236.855C1067.79 237.188 1068.34 237.554 1068.72 237.954C1069.11 238.354 1069.38 238.789 1069.53 239.258C1069.67 239.717 1069.75 240.229 1069.75 240.796C1069.75 241.841 1069.43 242.725 1068.81 243.447C1068.19 244.17 1067.5 244.653 1066.74 244.897C1065.98 245.132 1065.06 245.249 1063.99 245.249C1062.53 245.249 1061.28 245.044 1060.24 244.634C1059.2 244.214 1058.54 243.857 1058.23 243.564ZM1073.32 245C1072.88 245 1072.66 244.78 1072.66 244.341V230.278C1072.66 229.839 1072.88 229.619 1073.32 229.619H1074.55C1074.99 229.619 1075.21 229.839 1075.21 230.278V231.45H1075.27C1075.9 230.747 1076.59 230.225 1077.33 229.883C1078.08 229.541 1078.79 229.37 1079.47 229.37C1080.73 229.37 1081.7 229.688 1082.37 230.322C1083.06 230.947 1083.5 231.577 1083.69 232.212H1083.75C1084.29 231.411 1084.97 230.737 1085.79 230.19C1086.61 229.644 1087.48 229.37 1088.41 229.37C1089.96 229.37 1091.13 229.873 1091.92 230.879C1092.71 231.875 1093.11 233.242 1093.11 234.98V244.341C1093.11 244.78 1092.89 245 1092.45 245H1091.19C1090.75 245 1090.53 244.78 1090.53 244.341V235.83C1090.53 233.916 1090.29 232.681 1089.81 232.124C1089.34 231.558 1088.6 231.274 1087.6 231.274C1086.63 231.274 1085.81 231.694 1085.16 232.534C1084.5 233.364 1084.17 234.619 1084.17 236.299V244.341C1084.17 244.78 1083.96 245 1083.52 245H1082.26C1081.82 245 1081.6 244.78 1081.6 244.341V235.83C1081.6 233.916 1081.36 232.681 1080.88 232.124C1080.4 231.558 1079.66 231.274 1078.67 231.274C1077.69 231.274 1076.88 231.655 1076.22 232.417C1075.57 233.169 1075.24 234.463 1075.24 236.299V244.341C1075.24 244.78 1075.02 245 1074.58 245H1073.32ZM1096.41 240.898C1096.41 239.16 1097.22 237.886 1098.84 237.075C1100.47 236.265 1102.9 235.791 1106.13 235.654V234.658C1106.13 233.74 1105.92 232.949 1105.5 232.285C1105.09 231.611 1104.27 231.274 1103.04 231.274C1102.26 231.274 1101.64 231.353 1101.17 231.509C1100.7 231.655 1100.27 231.855 1099.88 232.109C1099.5 232.354 1099.13 232.671 1098.78 233.062C1098.52 233.354 1098.27 233.369 1098.03 233.105L1097.27 232.227C1097.06 231.982 1097.13 231.689 1097.49 231.348C1098.01 230.859 1098.51 230.493 1099 230.249C1099.49 230.005 1100.09 229.8 1100.82 229.634C1101.55 229.458 1102.29 229.37 1103.04 229.37C1105.08 229.37 1106.54 229.897 1107.41 230.952C1108.28 231.997 1108.71 233.433 1108.71 235.259V244.341C1108.71 244.78 1108.49 245 1108.05 245H1106.73C1106.35 245 1106.16 244.78 1106.16 244.341V243.623H1106.13C1105.36 244.229 1104.6 244.653 1103.86 244.897C1103.13 245.132 1102.31 245.249 1101.4 245.249C1099.8 245.249 1098.56 244.868 1097.7 244.106C1096.84 243.335 1096.41 242.266 1096.41 240.898ZM1099.07 240.957C1099.07 241.562 1099.2 242.051 1099.45 242.422C1099.71 242.783 1100.06 243.018 1100.51 243.125C1100.96 243.223 1101.43 243.271 1101.91 243.271C1102.67 243.271 1103.38 243.198 1104.05 243.052C1104.73 242.905 1105.42 242.52 1106.13 241.895V237.573C1104.16 237.72 1102.75 237.9 1101.91 238.115C1101.07 238.32 1100.39 238.682 1099.86 239.199C1099.34 239.707 1099.07 240.293 1099.07 240.957ZM1113.54 245C1113.11 245 1112.89 244.78 1112.89 244.341V226.06C1112.89 225.864 1112.93 225.679 1113.03 225.503L1114.06 223.643C1114.24 223.301 1114.39 223.13 1114.51 223.13H1115.02C1115.32 223.13 1115.46 223.301 1115.46 223.643V244.341C1115.46 244.78 1115.24 245 1114.8 245H1113.54ZM1120.28 245C1119.84 245 1119.62 244.78 1119.62 244.341V226.06C1119.62 225.864 1119.67 225.679 1119.77 225.503L1120.8 223.643C1120.98 223.301 1121.13 223.13 1121.25 223.13H1121.76C1122.06 223.13 1122.2 223.301 1122.2 223.643V244.341C1122.2 244.78 1121.98 245 1121.54 245H1120.28ZM1137.01 250.859C1136.57 250.859 1136.35 250.64 1136.35 250.2V230.278C1136.35 229.839 1136.57 229.619 1137.01 229.619H1138.24C1138.59 229.619 1138.78 229.839 1138.81 230.278L1138.9 231.45H1138.93C1139.47 230.806 1140.07 230.298 1140.75 229.927C1141.42 229.556 1142.32 229.37 1143.44 229.37C1145.4 229.37 1146.88 230.171 1147.9 231.772C1148.91 233.364 1149.42 235.21 1149.42 237.31C1149.42 239.409 1148.91 241.26 1147.9 242.861C1146.88 244.453 1145.4 245.249 1143.44 245.249C1142.32 245.249 1141.42 245.063 1140.75 244.692C1140.07 244.321 1139.47 243.813 1138.93 243.169H1138.9C1138.92 243.462 1138.93 243.76 1138.93 244.062V250.2C1138.93 250.64 1138.71 250.859 1138.27 250.859H1137.01ZM1138.93 238.994C1138.93 240.459 1139.28 241.553 1139.97 242.275C1140.67 242.988 1141.55 243.345 1142.61 243.345C1144.09 243.345 1145.14 242.788 1145.76 241.675C1146.38 240.562 1146.69 239.106 1146.69 237.31C1146.69 235.513 1146.38 234.058 1145.76 232.944C1145.14 231.831 1144.09 231.274 1142.61 231.274C1141.55 231.274 1140.67 231.636 1139.97 232.358C1139.28 233.071 1138.93 234.16 1138.93 235.625V238.994ZM1151.92 240.898C1151.92 239.16 1152.73 237.886 1154.36 237.075C1155.99 236.265 1158.42 235.791 1161.65 235.654V234.658C1161.65 233.74 1161.44 232.949 1161.02 232.285C1160.61 231.611 1159.79 231.274 1158.56 231.274C1157.78 231.274 1157.15 231.353 1156.68 231.509C1156.22 231.655 1155.79 231.855 1155.4 232.109C1155.01 232.354 1154.65 232.671 1154.3 233.062C1154.03 233.354 1153.78 233.369 1153.55 233.105L1152.79 232.227C1152.57 231.982 1152.65 231.689 1153.01 231.348C1153.53 230.859 1154.03 230.493 1154.52 230.249C1155 230.005 1155.61 229.8 1156.33 229.634C1157.07 229.458 1157.81 229.37 1158.56 229.37C1160.6 229.37 1162.06 229.897 1162.92 230.952C1163.79 231.997 1164.23 233.433 1164.23 235.259V244.341C1164.23 244.78 1164.01 245 1163.57 245H1162.25C1161.87 245 1161.68 244.78 1161.68 244.341V243.623H1161.65C1160.88 244.229 1160.12 244.653 1159.38 244.897C1158.65 245.132 1157.83 245.249 1156.92 245.249C1155.32 245.249 1154.08 244.868 1153.21 244.106C1152.35 243.335 1151.92 242.266 1151.92 240.898ZM1154.59 240.957C1154.59 241.562 1154.72 242.051 1154.97 242.422C1155.22 242.783 1155.58 243.018 1156.03 243.125C1156.47 243.223 1156.94 243.271 1157.43 243.271C1158.18 243.271 1158.9 243.198 1159.57 243.052C1160.24 242.905 1160.94 242.52 1161.65 241.895V237.573C1159.68 237.72 1158.27 237.9 1157.43 238.115C1156.59 238.32 1155.91 238.682 1155.38 239.199C1154.85 239.707 1154.59 240.293 1154.59 240.957ZM1167.57 237.31C1167.57 235.015 1168.13 233.12 1169.27 231.626C1170.41 230.122 1172.15 229.37 1174.5 229.37C1176.08 229.37 1177.29 229.653 1178.12 230.22C1178.96 230.776 1179.56 231.348 1179.93 231.934C1180.14 232.256 1180.09 232.515 1179.8 232.71L1178.88 233.311C1178.58 233.516 1178.29 233.384 1178 232.915C1177.71 232.466 1177.31 232.08 1176.8 231.758C1176.29 231.436 1175.52 231.274 1174.5 231.274C1173.16 231.274 1172.12 231.768 1171.39 232.754C1170.66 233.74 1170.29 235.259 1170.29 237.31C1170.29 239.36 1170.66 240.879 1171.39 241.865C1172.12 242.852 1173.16 243.345 1174.5 243.345C1175.58 243.345 1176.41 243.14 1176.99 242.729C1177.56 242.31 1177.98 241.855 1178.25 241.367C1178.5 240.908 1178.79 240.776 1179.11 240.972L1180.09 241.558C1180.39 241.733 1180.43 241.997 1180.22 242.349C1179.98 242.769 1179.42 243.359 1178.55 244.121C1177.7 244.873 1176.34 245.249 1174.5 245.249C1172.15 245.249 1170.41 244.502 1169.27 243.008C1168.13 241.504 1167.57 239.604 1167.57 237.31ZM1184.09 245C1183.65 245 1183.43 244.78 1183.43 244.341V224.038C1183.43 223.599 1183.65 223.379 1184.09 223.379H1185.35C1185.79 223.379 1186.01 223.599 1186.01 224.038V236.226C1186.01 236.519 1186 236.812 1185.98 237.104H1186.01L1191.94 230C1192.16 229.746 1192.42 229.619 1192.72 229.619H1194.05C1194.79 229.619 1194.92 229.907 1194.43 230.483L1189.83 235.962L1195.09 244.136C1195.46 244.712 1195.34 245 1194.71 245H1193.28C1192.95 245 1192.68 244.819 1192.44 244.458L1188.22 237.881L1186.01 240.518V244.341C1186.01 244.78 1185.79 245 1185.35 245H1184.09ZM1197.3 237.31C1197.3 234.888 1197.91 232.959 1199.12 231.523C1200.33 230.088 1202.07 229.37 1204.32 229.37C1206.2 229.37 1207.75 230.029 1208.98 231.348C1210.22 232.656 1210.84 234.751 1210.84 237.632C1210.84 238.071 1210.64 238.291 1210.24 238.291H1200.03C1200.2 240.176 1200.7 241.489 1201.55 242.231C1202.4 242.964 1203.36 243.33 1204.44 243.33C1205.57 243.33 1206.44 243.14 1207.05 242.759C1207.65 242.378 1208.1 242.002 1208.38 241.631C1208.69 241.221 1208.99 241.143 1209.29 241.396L1210.15 242.144C1210.38 242.339 1210.38 242.607 1210.15 242.949C1209.97 243.232 1209.43 243.687 1208.55 244.312C1207.69 244.937 1206.31 245.249 1204.44 245.249C1202 245.249 1200.2 244.531 1199.03 243.096C1197.88 241.66 1197.3 239.731 1197.3 237.31ZM1199.97 236.387H1208.25C1208.21 235.02 1207.86 233.823 1207.19 232.798C1206.53 231.763 1205.55 231.245 1204.26 231.245C1203.13 231.245 1202.17 231.626 1201.38 232.388C1200.59 233.14 1200.12 234.473 1199.97 236.387ZM1213.48 231.553C1213.04 231.553 1212.82 231.382 1212.82 231.04V230.132C1212.82 229.79 1213.04 229.619 1213.48 229.619H1215.21V228.301C1215.21 228.105 1215.25 227.92 1215.35 227.744L1216.38 225.884C1216.56 225.542 1216.71 225.371 1216.83 225.371H1217.34C1217.64 225.371 1217.78 225.542 1217.78 225.884V229.619H1220.9C1221.34 229.619 1221.56 229.79 1221.56 230.132V231.04C1221.56 231.382 1221.34 231.553 1220.9 231.553H1217.78V240.884C1217.78 241.909 1217.93 242.578 1218.24 242.891C1218.55 243.193 1218.92 243.345 1219.35 243.345C1219.68 243.345 1220.08 243.247 1220.54 243.052C1221.01 242.856 1221.33 242.69 1221.5 242.554C1221.68 242.417 1221.82 242.461 1221.91 242.686L1222.4 243.813C1222.48 244.009 1222.42 244.165 1222.22 244.282C1221.84 244.507 1221.28 244.727 1220.55 244.941C1219.82 245.146 1219.09 245.249 1218.35 245.249C1217.34 245.249 1216.56 244.883 1216.01 244.15C1215.47 243.418 1215.21 242.383 1215.21 241.045V231.553H1213.48Z" fill="black"/>
<rect y="215" width="262" height="262" rx="60" fill="#75D573"/>
<path d="M98.8301 325C97.9837 325 97.764 324.463 98.1709 323.389L110.329 291.479C110.703 290.487 111.241 289.99 111.94 289.99H115.358C116.058 289.99 116.595 290.487 116.97 291.479L129.128 323.389C129.535 324.463 129.315 325 128.469 325H125.979C125.116 325 124.53 324.601 124.221 323.804L121.169 315.723H106.13L103.078 323.804C102.769 324.601 102.183 325 101.32 325H98.8301ZM107.668 311.719H119.631L115.896 301.953C115.554 301.042 115.212 300.033 114.87 298.926C114.545 297.819 114.154 296.248 113.698 294.214H113.601C113.145 296.248 112.746 297.819 112.404 298.926C112.079 300.033 111.745 301.042 111.403 301.953L107.668 311.719ZM135.012 325C134.198 325 133.791 324.552 133.791 323.657V291.333C133.791 290.438 134.198 289.99 135.012 289.99H145.266C150.799 289.99 154.535 290.926 156.472 292.798C158.409 294.653 159.377 297.209 159.377 300.464C159.377 303.719 158.409 306.283 156.472 308.154C154.535 310.01 150.799 310.938 145.266 310.938H138.479V323.657C138.479 324.552 138.072 325 137.258 325H135.012ZM138.479 306.934H145.339C148.92 306.934 151.361 306.429 152.663 305.42C153.965 304.395 154.616 302.743 154.616 300.464C154.616 298.185 153.965 296.541 152.663 295.532C151.361 294.507 148.92 293.994 145.339 293.994H138.479V306.934ZM166.945 325C166.132 325 165.725 324.552 165.725 323.657V291.333C165.725 290.438 166.132 289.99 166.945 289.99H169.191C170.005 289.99 170.412 290.438 170.412 291.333V323.657C170.412 324.552 170.005 325 169.191 325H166.945ZM41.6035 397C40.7897 397 40.3828 396.552 40.3828 395.657V363.333C40.3828 362.438 40.7897 361.99 41.6035 361.99H62.9658C63.861 361.99 64.3086 362.356 64.3086 363.089V364.896C64.3086 365.628 63.861 365.994 62.9658 365.994H45.0703V376.834H61.501C62.3962 376.834 62.8438 377.2 62.8438 377.933V379.739C62.8438 380.472 62.3962 380.838 61.501 380.838H45.0703V392.996H63.6982C64.5934 392.996 65.041 393.362 65.041 394.095V395.901C65.041 396.634 64.5934 397 63.6982 397H41.6035ZM71.8037 397C71.0713 397 70.7051 396.634 70.7051 395.901V372.464C70.7051 371.731 71.0713 371.365 71.8037 371.365H73.8545C74.5869 371.365 74.9531 371.731 74.9531 372.464V374.417H75.0508C76.1087 373.245 77.248 372.374 78.4688 371.805C79.6895 371.235 81.2113 370.95 83.0342 370.95C85.9964 370.95 88.1204 371.788 89.4062 373.465C90.7083 375.125 91.3594 377.404 91.3594 380.301V395.901C91.3594 396.634 90.9932 397 90.2607 397H88.1611C87.4287 397 87.0625 396.634 87.0625 395.901V381.473C87.0625 378.283 86.5335 376.264 85.4756 375.418C84.4176 374.555 83.0749 374.124 81.4473 374.124C79.3314 374.124 77.7282 374.759 76.6377 376.028C75.5472 377.282 75.002 379.438 75.002 382.498V395.901C75.002 396.634 74.6357 397 73.9033 397H71.8037ZM96.8525 384.183C96.8525 380.683 97.6989 377.607 99.3916 374.954C101.084 372.285 103.558 370.95 106.813 370.95C108.685 370.95 110.183 371.259 111.306 371.878C112.429 372.496 113.438 373.343 114.333 374.417H114.382C114.349 373.929 114.333 373.432 114.333 372.928V362.063C114.333 361.331 114.699 360.965 115.432 360.965H117.531C118.264 360.965 118.63 361.331 118.63 362.063V395.901C118.63 396.634 118.264 397 117.531 397H115.48C114.895 397 114.577 396.634 114.528 395.901L114.382 393.948H114.333C113.438 395.022 112.429 395.869 111.306 396.487C110.183 397.106 108.685 397.415 106.813 397.415C103.558 397.415 101.084 396.089 99.3916 393.436C97.6989 390.766 96.8525 387.682 96.8525 384.183ZM101.394 384.183C101.394 387.177 101.906 389.603 102.932 391.458C103.973 393.313 105.731 394.241 108.205 394.241C109.963 394.241 111.42 393.647 112.575 392.459C113.747 391.255 114.333 389.432 114.333 386.99V381.375C114.333 378.934 113.747 377.119 112.575 375.931C111.42 374.726 109.963 374.124 108.205 374.124C105.731 374.124 103.973 375.052 102.932 376.907C101.906 378.763 101.394 381.188 101.394 384.183ZM126.687 406.766C125.954 406.766 125.588 406.399 125.588 405.667V372.464C125.588 371.731 125.954 371.365 126.687 371.365H128.737C129.323 371.365 129.641 371.731 129.689 372.464L129.836 374.417H129.885C130.78 373.343 131.789 372.496 132.912 371.878C134.035 371.259 135.533 370.95 137.404 370.95C140.66 370.95 143.133 372.285 144.826 374.954C146.519 377.607 147.365 380.683 147.365 384.183C147.365 387.682 146.519 390.766 144.826 393.436C143.133 396.089 140.66 397.415 137.404 397.415C135.533 397.415 134.035 397.106 132.912 396.487C131.789 395.869 130.78 395.022 129.885 393.948H129.836C129.868 394.437 129.885 394.933 129.885 395.438V405.667C129.885 406.399 129.519 406.766 128.786 406.766H126.687ZM129.885 386.99C129.885 389.432 130.463 391.255 131.618 392.459C132.79 393.647 134.255 394.241 136.013 394.241C138.487 394.241 140.236 393.313 141.262 391.458C142.303 389.603 142.824 387.177 142.824 384.183C142.824 381.188 142.303 378.763 141.262 376.907C140.236 375.052 138.487 374.124 136.013 374.124C134.255 374.124 132.79 374.726 131.618 375.931C130.463 377.119 129.885 378.934 129.885 381.375V386.99ZM151.54 384.183C151.54 380.358 152.549 377.2 154.567 374.71C156.602 372.203 159.572 370.95 163.479 370.95C167.385 370.95 170.347 372.203 172.365 374.71C174.4 377.2 175.417 380.358 175.417 384.183C175.417 388.007 174.4 391.173 172.365 393.68C170.347 396.17 167.385 397.415 163.479 397.415C159.572 397.415 156.602 396.17 154.567 393.68C152.549 391.173 151.54 388.007 151.54 384.183ZM156.081 384.183C156.081 387.601 156.757 390.132 158.107 391.775C159.458 393.419 161.249 394.241 163.479 394.241C165.708 394.241 167.499 393.419 168.85 391.775C170.201 390.132 170.876 387.601 170.876 384.183C170.876 380.765 170.201 378.234 168.85 376.59C167.499 374.946 165.708 374.124 163.479 374.124C161.249 374.124 159.458 374.946 158.107 376.59C156.757 378.234 156.081 380.765 156.081 384.183ZM182.058 397C181.325 397 180.959 396.634 180.959 395.901V372.464C180.959 371.731 181.325 371.365 182.058 371.365H184.157C184.89 371.365 185.256 371.731 185.256 372.464V395.901C185.256 396.634 184.89 397 184.157 397H182.058ZM182.058 366.727C181.325 366.727 180.959 366.36 180.959 365.628V363.528C180.959 362.796 181.325 362.43 182.058 362.43H184.157C184.89 362.43 185.256 362.796 185.256 363.528V365.628C185.256 366.36 184.89 366.727 184.157 366.727H182.058ZM193.288 397C192.556 397 192.189 396.634 192.189 395.901V372.464C192.189 371.731 192.556 371.365 193.288 371.365H195.339C196.071 371.365 196.438 371.731 196.438 372.464V374.417H196.535C197.593 373.245 198.732 372.374 199.953 371.805C201.174 371.235 202.696 370.95 204.519 370.95C207.481 370.95 209.605 371.788 210.891 373.465C212.193 375.125 212.844 377.404 212.844 380.301V395.901C212.844 396.634 212.478 397 211.745 397H209.646C208.913 397 208.547 396.634 208.547 395.901V381.473C208.547 378.283 208.018 376.264 206.96 375.418C205.902 374.555 204.559 374.124 202.932 374.124C200.816 374.124 199.213 374.759 198.122 376.028C197.032 377.282 196.486 379.438 196.486 382.498V395.901C196.486 396.634 196.12 397 195.388 397H193.288ZM218.483 374.588C217.751 374.588 217.385 374.303 217.385 373.733V372.22C217.385 371.65 217.751 371.365 218.483 371.365H221.364V369.168C221.364 368.842 221.446 368.533 221.608 368.24L223.317 365.14C223.627 364.57 223.879 364.285 224.074 364.285H224.929C225.417 364.285 225.661 364.57 225.661 365.14V371.365H230.861C231.594 371.365 231.96 371.65 231.96 372.22V373.733C231.96 374.303 231.594 374.588 230.861 374.588H225.661V390.14C225.661 391.849 225.913 392.964 226.418 393.484C226.939 393.989 227.557 394.241 228.273 394.241C228.827 394.241 229.486 394.078 230.251 393.753C231.032 393.427 231.569 393.151 231.862 392.923C232.155 392.695 232.383 392.768 232.546 393.143L233.352 395.022C233.482 395.348 233.384 395.608 233.059 395.804C232.424 396.178 231.496 396.544 230.275 396.902C229.055 397.244 227.834 397.415 226.613 397.415C224.921 397.415 223.618 396.805 222.707 395.584C221.812 394.363 221.364 392.638 221.364 390.408V374.588H218.483Z" fill="black"/>
<rect x="1719" width="660" height="660" rx="60" fill="#75D573"/>
<path d="M1934.06 299C1932.97 299 1932.43 298.4 1932.43 297.201V253.886C1932.43 252.687 1932.97 252.087 1934.06 252.087H1946.82C1954.24 252.087 1959.23 253.286 1961.81 255.686C1964.38 258.085 1965.67 260.974 1965.67 264.355C1965.67 267.038 1964.6 269.317 1962.46 271.192C1960.32 273.046 1958.25 274.137 1956.24 274.464V274.562C1958.45 274.758 1960.9 275.86 1963.6 277.866C1966.33 279.851 1967.69 282.555 1967.69 285.979C1967.69 289.687 1966.32 292.784 1963.57 295.271C1960.85 297.757 1955.81 299 1948.46 299H1934.06ZM1938.71 293.635H1947.41C1952.1 293.635 1955.54 293.057 1957.72 291.901C1959.9 290.745 1960.99 288.706 1960.99 285.783C1960.99 283.079 1959.88 280.985 1957.65 279.502C1955.45 278.019 1952.03 277.277 1947.41 277.277H1938.71V293.635ZM1938.71 272.566H1946.92C1950.56 272.566 1953.53 271.792 1955.82 270.244C1958.13 268.673 1959.29 266.71 1959.29 264.355C1959.29 262.109 1958.43 260.396 1956.7 259.219C1954.98 258.041 1951.72 257.452 1946.92 257.452H1938.71V272.566ZM1977.41 299C1976.43 299 1975.94 298.509 1975.94 297.528V266.122C1975.94 265.14 1976.43 264.649 1977.41 264.649H1980.16C1981.14 264.649 1981.63 265.14 1981.63 266.122V270.047H1981.76C1982.81 268.084 1984.04 266.601 1985.46 265.598C1986.88 264.595 1988.64 264.093 1990.76 264.093C1992.15 264.093 1993.14 264.213 1993.7 264.453C1994.2 264.649 1994.39 264.977 1994.26 265.435L1993.51 268.117C1993.4 268.51 1993.11 268.662 1992.66 268.575C1991.89 268.423 1991.17 268.346 1990.5 268.346C1987.94 268.346 1985.84 269.502 1984.18 271.814C1982.53 274.104 1981.7 277.234 1981.7 281.203V297.528C1981.7 298.509 1981.21 299 1980.22 299H1977.41ZM1997.69 281.825C1997.69 276.699 1999.05 272.468 2001.75 269.131C2004.48 265.773 2008.46 264.093 2013.69 264.093C2018.93 264.093 2022.9 265.773 2025.6 269.131C2028.33 272.468 2029.69 276.699 2029.69 281.825C2029.69 286.95 2028.33 291.192 2025.6 294.551C2022.9 297.888 2018.93 299.556 2013.69 299.556C2008.46 299.556 2004.48 297.888 2001.75 294.551C1999.05 291.192 1997.69 286.95 1997.69 281.825ZM2003.78 281.825C2003.78 286.405 2004.68 289.796 2006.49 291.999C2008.3 294.202 2010.7 295.303 2013.69 295.303C2016.68 295.303 2019.08 294.202 2020.89 291.999C2022.7 289.796 2023.6 286.405 2023.6 281.825C2023.6 277.245 2022.7 273.853 2020.89 271.65C2019.08 269.448 2016.68 268.346 2013.69 268.346C2010.7 268.346 2008.3 269.448 2006.49 271.65C2004.68 273.853 2003.78 277.245 2003.78 281.825ZM2034.37 266.252C2034.08 265.184 2034.38 264.649 2035.25 264.649H2038.69C2039.47 264.649 2039.96 265.075 2040.16 265.925L2044.97 287.517C2045.12 288.15 2045.35 289.142 2045.65 290.494C2045.98 291.846 2046.21 292.839 2046.34 293.471H2046.47C2046.58 292.861 2046.77 291.944 2047.03 290.723C2047.31 289.502 2047.57 288.433 2047.81 287.517L2053.57 265.925C2053.79 265.075 2054.28 264.649 2055.04 264.649H2057.99C2058.75 264.649 2059.24 265.075 2059.46 265.925L2065.22 287.517C2065.46 288.433 2065.71 289.502 2065.97 290.723C2066.25 291.944 2066.45 292.861 2066.56 293.471H2066.69C2066.82 292.839 2067.04 291.846 2067.34 290.494C2067.67 289.142 2067.91 288.15 2068.06 287.517L2072.87 265.925C2073.07 265.075 2073.56 264.649 2074.34 264.649H2077.78C2078.65 264.649 2078.95 265.184 2078.66 266.252L2070.55 297.004C2070.2 298.335 2069.61 299 2068.78 299H2064.86C2064.03 299 2063.44 298.335 2063.09 297.004L2057.53 275.38C2057.14 273.853 2056.89 272.785 2056.78 272.174C2056.69 271.563 2056.61 270.985 2056.55 270.44H2056.48C2056.42 270.985 2056.33 271.563 2056.22 272.174C2056.13 272.785 2055.89 273.853 2055.5 275.38L2049.94 297.004C2049.59 298.335 2049 299 2048.17 299H2044.25C2043.42 299 2042.83 298.335 2042.48 297.004L2034.37 266.252ZM2083.01 295.794C2082.34 295.161 2082.2 294.573 2082.59 294.027L2084.06 291.966C2084.54 291.312 2085.25 291.345 2086.19 292.064C2087.47 293.046 2088.9 293.831 2090.47 294.42C2092.07 295.009 2093.88 295.303 2095.9 295.303C2097.1 295.303 2098.17 295.161 2099.11 294.878C2100.05 294.573 2100.87 294.016 2101.56 293.209C2102.28 292.403 2102.64 291.323 2102.64 289.971C2102.64 289.186 2102.47 288.444 2102.12 287.746C2101.79 287.048 2101.27 286.492 2100.55 286.078C2099.85 285.641 2099.16 285.303 2098.49 285.063C2097.38 284.649 2096.26 284.311 2095.15 284.049C2094.06 283.766 2092.62 283.34 2090.83 282.773C2089.63 282.403 2088.5 281.879 2087.43 281.203C2086.36 280.505 2085.42 279.567 2084.62 278.39C2083.83 277.212 2083.44 275.587 2083.44 273.515C2083.44 271.4 2084.08 269.578 2085.37 268.052C2086.66 266.525 2088.27 265.489 2090.21 264.944C2092.15 264.377 2094.04 264.093 2095.87 264.093C2098.58 264.093 2100.75 264.41 2102.38 265.042C2104.04 265.653 2105.47 266.383 2106.67 267.234C2107.36 267.736 2107.46 268.313 2106.96 268.968L2105.49 270.931C2105.03 271.563 2104.32 271.541 2103.36 270.865C2102.56 270.298 2101.41 269.764 2099.93 269.262C2098.44 268.761 2097.15 268.51 2096.03 268.51C2094.66 268.51 2093.48 268.662 2092.5 268.968C2091.52 269.273 2090.72 269.797 2090.11 270.538C2089.5 271.28 2089.2 272.152 2089.2 273.155C2089.2 273.919 2089.32 274.606 2089.56 275.216C2089.8 275.805 2090.24 276.35 2090.9 276.852C2091.55 277.354 2092.47 277.757 2093.65 278.062C2095.48 278.542 2097.15 278.979 2098.65 279.371C2100.18 279.764 2101.55 280.243 2102.77 280.811C2104.37 281.552 2105.59 282.37 2106.44 283.264C2107.31 284.158 2107.91 285.129 2108.24 286.176C2108.56 287.201 2108.73 288.346 2108.73 289.611C2108.73 291.944 2108.03 293.918 2106.63 295.532C2105.26 297.146 2103.72 298.226 2102.02 298.771C2100.32 299.294 2098.27 299.556 2095.87 299.556C2092.62 299.556 2089.83 299.098 2087.5 298.182C2085.18 297.244 2083.69 296.448 2083.01 295.794ZM2113.37 281.825C2113.37 276.416 2114.73 272.108 2117.43 268.902C2120.13 265.696 2124.01 264.093 2129.04 264.093C2133.23 264.093 2136.7 265.565 2139.45 268.51C2142.22 271.432 2143.6 276.111 2143.6 282.544C2143.6 283.526 2143.15 284.017 2142.26 284.017H2119.46C2119.83 288.226 2120.96 291.159 2122.86 292.817C2124.76 294.453 2126.91 295.271 2129.31 295.271C2131.84 295.271 2133.78 294.845 2135.13 293.995C2136.48 293.144 2137.47 292.304 2138.11 291.476C2138.8 290.56 2139.48 290.385 2140.13 290.952L2142.06 292.621C2142.57 293.057 2142.57 293.657 2142.06 294.42C2141.65 295.052 2140.46 296.067 2138.5 297.462C2136.56 298.858 2133.49 299.556 2129.31 299.556C2123.85 299.556 2119.83 297.953 2117.23 294.747C2114.66 291.541 2113.37 287.234 2113.37 281.825ZM2119.33 279.764H2137.81C2137.72 276.71 2136.94 274.039 2135.46 271.749C2133.97 269.437 2131.79 268.281 2128.91 268.281C2126.38 268.281 2124.23 269.131 2122.47 270.833C2120.7 272.512 2119.65 275.489 2119.33 279.764ZM2152.63 299C2151.65 299 2151.16 298.509 2151.16 297.528V266.122C2151.16 265.14 2151.65 264.649 2152.63 264.649H2155.38C2156.36 264.649 2156.85 265.14 2156.85 266.122V270.047H2156.98C2158.03 268.084 2159.26 266.601 2160.68 265.598C2162.1 264.595 2163.86 264.093 2165.98 264.093C2167.37 264.093 2168.36 264.213 2168.92 264.453C2169.42 264.649 2169.61 264.977 2169.48 265.435L2168.73 268.117C2168.62 268.51 2168.33 268.662 2167.88 268.575C2167.11 268.423 2166.39 268.346 2165.72 268.346C2163.17 268.346 2161.06 269.502 2159.4 271.814C2157.75 274.104 2156.92 277.234 2156.92 281.203V297.528C2156.92 298.509 2156.43 299 2155.44 299H2152.63ZM1970.64 377.825C1970.64 372.699 1971.9 368.468 1974.43 365.131C1976.99 361.773 1980.88 360.093 1986.11 360.093C1989.65 360.093 1992.34 360.726 1994.19 361.991C1996.07 363.234 1997.42 364.51 1998.25 365.818C1998.71 366.538 1998.61 367.116 1997.96 367.552L1995.89 368.894C1995.24 369.352 1994.59 369.057 1993.93 368.01C1993.3 367.007 1992.4 366.146 1991.25 365.426C1990.11 364.706 1988.4 364.346 1986.11 364.346C1983.12 364.346 1980.81 365.448 1979.18 367.65C1977.54 369.853 1976.72 373.245 1976.72 377.825C1976.72 382.405 1977.54 385.796 1979.18 387.999C1980.81 390.202 1983.12 391.303 1986.11 391.303C1988.53 391.303 1990.39 390.845 1991.67 389.929C1992.96 388.991 1993.9 387.977 1994.49 386.887C1995.05 385.862 1995.7 385.567 1996.42 386.003L1998.61 387.312C1999.26 387.705 1999.36 388.293 1998.9 389.079C1998.36 390.016 1997.12 391.336 1995.17 393.037C1993.26 394.716 1990.23 395.556 1986.11 395.556C1980.88 395.556 1976.99 393.888 1974.43 390.551C1971.9 387.192 1970.64 382.95 1970.64 377.825ZM2007.54 395C2006.56 395 2006.07 394.509 2006.07 393.528V352.7C2006.07 352.264 2006.18 351.849 2006.4 351.457L2008.69 347.302C2009.1 346.538 2009.44 346.157 2009.7 346.157H2010.85C2011.5 346.157 2011.83 346.538 2011.83 347.302V393.528C2011.83 394.509 2011.34 395 2010.35 395H2007.54ZM2022.59 395C2021.61 395 2021.12 394.509 2021.12 393.528V362.122C2021.12 361.14 2021.61 360.649 2022.59 360.649H2025.4C2026.38 360.649 2026.88 361.14 2026.88 362.122V393.528C2026.88 394.509 2026.38 395 2025.4 395H2022.59ZM2022.59 354.434C2021.61 354.434 2021.12 353.943 2021.12 352.961V350.148C2021.12 349.167 2021.61 348.676 2022.59 348.676H2025.4C2026.38 348.676 2026.88 349.167 2026.88 350.148V352.961C2026.88 353.943 2026.38 354.434 2025.4 354.434H2022.59ZM2034.3 377.825C2034.3 372.416 2035.65 368.108 2038.36 364.902C2041.06 361.696 2044.93 360.093 2049.97 360.093C2054.16 360.093 2057.63 361.565 2060.38 364.51C2063.15 367.432 2064.53 372.111 2064.53 378.544C2064.53 379.526 2064.08 380.017 2063.19 380.017H2040.39C2040.76 384.226 2041.89 387.159 2043.79 388.817C2045.69 390.453 2047.83 391.271 2050.23 391.271C2052.76 391.271 2054.7 390.845 2056.06 389.995C2057.41 389.144 2058.4 388.304 2059.03 387.476C2059.73 386.56 2060.41 386.385 2061.06 386.952L2062.99 388.621C2063.49 389.057 2063.49 389.657 2062.99 390.42C2062.58 391.052 2061.39 392.067 2059.43 393.462C2057.49 394.858 2054.42 395.556 2050.23 395.556C2044.78 395.556 2040.76 393.953 2038.16 390.747C2035.59 387.541 2034.3 383.234 2034.3 377.825ZM2040.26 375.764H2058.74C2058.65 372.71 2057.87 370.039 2056.38 367.749C2054.9 365.437 2052.72 364.281 2049.84 364.281C2047.31 364.281 2045.16 365.131 2043.4 366.833C2041.63 368.512 2040.58 371.489 2040.26 375.764ZM2073.56 395C2072.58 395 2072.09 394.509 2072.09 393.528V362.122C2072.09 361.14 2072.58 360.649 2073.56 360.649H2076.31C2077.29 360.649 2077.78 361.14 2077.78 362.122V364.739H2077.91C2079.33 363.168 2080.85 362.002 2082.49 361.238C2084.13 360.475 2086.17 360.093 2088.61 360.093C2092.58 360.093 2095.42 361.216 2097.15 363.463C2098.89 365.688 2099.76 368.741 2099.76 372.623V393.528C2099.76 394.509 2099.27 395 2098.29 395H2095.48C2094.5 395 2094.01 394.509 2094.01 393.528V374.193C2094.01 369.919 2093.3 367.214 2091.88 366.08C2090.46 364.924 2088.66 364.346 2086.48 364.346C2083.65 364.346 2081.5 365.197 2080.04 366.898C2078.58 368.577 2077.85 371.467 2077.85 375.567V393.528C2077.85 394.509 2077.35 395 2076.37 395H2073.56ZM2107.32 364.968C2106.34 364.968 2105.85 364.586 2105.85 363.823V361.794C2105.85 361.031 2106.34 360.649 2107.32 360.649H2111.18V357.705C2111.18 357.269 2111.29 356.854 2111.51 356.462L2113.8 352.307C2114.21 351.544 2114.55 351.162 2114.81 351.162H2115.96C2116.61 351.162 2116.94 351.544 2116.94 352.307V360.649H2123.91C2124.89 360.649 2125.38 361.031 2125.38 361.794V363.823C2125.38 364.586 2124.89 364.968 2123.91 364.968H2116.94V385.807C2116.94 388.097 2117.28 389.591 2117.95 390.289C2118.65 390.965 2119.48 391.303 2120.44 391.303C2121.18 391.303 2122.06 391.085 2123.09 390.649C2124.14 390.213 2124.86 389.842 2125.25 389.537C2125.64 389.231 2125.95 389.329 2126.17 389.831L2127.24 392.35C2127.42 392.786 2127.29 393.135 2126.85 393.397C2126 393.899 2124.76 394.389 2123.12 394.869C2121.49 395.327 2119.85 395.556 2118.22 395.556C2115.95 395.556 2114.2 394.738 2112.98 393.103C2111.78 391.467 2111.18 389.155 2111.18 386.167V364.968H2107.32Z" fill="black"/>
<path d="M1677.3 335.303C1680.23 332.374 1680.23 327.626 1677.3 324.697L1629.57 276.967C1626.64 274.038 1621.9 274.038 1618.97 276.967C1616.04 279.896 1616.04 284.645 1618.97 287.574L1661.39 330L1618.97 372.426C1616.04 375.355 1616.04 380.104 1618.97 383.033C1621.9 385.962 1626.64 385.962 1629.57 383.033L1677.3 335.303ZM292 337.5L1672 337.5V322.5L292 322.5V337.5Z" fill="white"/>
</svg>
