<svg width="2390" height="660" viewBox="0 0 2390 660" fill="none" xmlns="http://www.w3.org/2000/svg">
<rect x="1215" y="100" width="237" height="189" rx="40" fill="#979797"/>
<path d="M1283.52 177C1282.79 177 1282.43 176.634 1282.43 175.901V145.433C1282.43 145.107 1282.51 144.798 1282.67 144.505L1284.38 141.404C1284.69 140.835 1284.94 140.55 1285.14 140.55H1285.99C1286.48 140.55 1286.72 140.835 1286.72 141.404V175.901C1286.72 176.634 1286.36 177 1285.62 177H1283.52ZM1292.26 170.164C1292.26 167.267 1293.62 165.143 1296.32 163.792C1299.04 162.441 1303.09 161.652 1308.48 161.424V159.764C1308.48 158.234 1308.13 156.915 1307.43 155.809C1306.74 154.686 1305.38 154.124 1303.32 154.124C1302.02 154.124 1300.98 154.254 1300.2 154.515C1299.42 154.759 1298.7 155.092 1298.05 155.516C1297.42 155.923 1296.81 156.451 1296.22 157.103C1295.78 157.591 1295.37 157.615 1294.97 157.176L1293.71 155.711C1293.35 155.304 1293.47 154.816 1294.07 154.246C1294.93 153.432 1295.77 152.822 1296.59 152.415C1297.4 152.008 1298.41 151.666 1299.61 151.39C1300.83 151.097 1302.07 150.95 1303.32 150.95C1306.73 150.95 1309.15 151.829 1310.6 153.587C1312.05 155.328 1312.77 157.721 1312.77 160.765V175.901C1312.77 176.634 1312.41 177 1311.67 177H1309.48C1308.84 177 1308.52 176.634 1308.52 175.901V174.705H1308.48C1307.19 175.714 1305.93 176.422 1304.69 176.829C1303.47 177.22 1302.1 177.415 1300.59 177.415C1297.92 177.415 1295.86 176.78 1294.41 175.511C1292.98 174.225 1292.26 172.443 1292.26 170.164ZM1296.71 170.262C1296.71 171.271 1296.92 172.085 1297.34 172.703C1297.77 173.305 1298.35 173.696 1299.1 173.875C1299.85 174.038 1300.63 174.119 1301.44 174.119C1302.7 174.119 1303.89 173.997 1305.01 173.753C1306.13 173.509 1307.29 172.866 1308.48 171.824V164.622C1305.19 164.866 1302.84 165.167 1301.44 165.525C1300.04 165.867 1298.91 166.469 1298.03 167.332C1297.15 168.178 1296.71 169.155 1296.71 170.262ZM1320.83 177C1320.1 177 1319.73 176.634 1319.73 175.901V152.464C1319.73 151.731 1320.1 151.365 1320.83 151.365H1322.88C1323.61 151.365 1323.98 151.731 1323.98 152.464V155.394H1324.08C1324.86 153.929 1325.78 152.822 1326.83 152.073C1327.89 151.325 1329.21 150.95 1330.79 150.95C1331.83 150.95 1332.56 151.04 1332.99 151.219C1333.36 151.365 1333.5 151.609 1333.4 151.951L1332.84 153.953C1332.76 154.246 1332.55 154.36 1332.21 154.295C1331.64 154.181 1331.1 154.124 1330.59 154.124C1328.69 154.124 1327.12 154.987 1325.88 156.712C1324.65 158.421 1324.03 160.757 1324.03 163.719V175.901C1324.03 176.634 1323.66 177 1322.93 177H1320.83ZM1335.97 164.183C1335.97 160.683 1336.81 157.607 1338.5 154.954C1340.2 152.285 1342.67 150.95 1345.93 150.95C1347.8 150.95 1349.3 151.259 1350.42 151.878C1351.54 152.496 1352.55 153.343 1353.45 154.417H1353.5L1353.64 152.464C1353.69 151.731 1354.01 151.365 1354.59 151.365H1356.64C1357.38 151.365 1357.74 151.731 1357.74 152.464V177.195C1357.74 180.32 1357.02 182.762 1355.57 184.52C1354.14 186.294 1351.3 187.181 1347.05 187.181C1344.2 187.181 1342.07 186.855 1340.65 186.204C1339.24 185.569 1338.23 184.894 1337.63 184.178C1337.19 183.641 1337.16 183.185 1337.55 182.811L1338.9 181.492C1339.27 181.134 1339.79 181.248 1340.46 181.834C1341.32 182.615 1342.15 183.169 1342.95 183.494C1343.75 183.836 1345.12 184.007 1347.07 184.007C1349.29 184.007 1350.9 183.535 1351.91 182.591C1352.93 181.647 1353.45 179.694 1353.45 176.731V175.267C1353.45 174.762 1353.46 174.266 1353.5 173.777H1353.45C1352.6 174.9 1351.6 175.787 1350.44 176.438C1349.3 177.09 1347.8 177.415 1345.93 177.415C1342.67 177.415 1340.2 176.089 1338.5 173.436C1336.81 170.766 1335.97 167.682 1335.97 164.183ZM1340.51 164.183C1340.51 167.177 1341.02 169.603 1342.04 171.458C1343.09 173.313 1344.84 174.241 1347.32 174.241C1349.08 174.241 1350.53 173.647 1351.69 172.459C1352.86 171.255 1353.45 169.432 1353.45 166.99V161.375C1353.45 158.934 1352.86 157.119 1351.69 155.931C1350.53 154.726 1349.08 154.124 1347.32 154.124C1344.84 154.124 1343.09 155.052 1342.04 156.907C1341.02 158.763 1340.51 161.188 1340.51 164.183ZM1363.31 164.183C1363.31 160.146 1364.32 156.932 1366.34 154.539C1368.36 152.146 1371.24 150.95 1375 150.95C1378.13 150.95 1380.72 152.049 1382.77 154.246C1384.83 156.427 1385.87 159.918 1385.87 164.72C1385.87 165.452 1385.53 165.818 1384.87 165.818H1367.85C1368.13 168.96 1368.97 171.149 1370.39 172.386C1371.81 173.606 1373.41 174.217 1375.2 174.217C1377.09 174.217 1378.54 173.899 1379.54 173.265C1380.55 172.63 1381.29 172.003 1381.77 171.385C1382.29 170.701 1382.79 170.571 1383.28 170.994L1384.72 172.239C1385.1 172.565 1385.1 173.012 1384.72 173.582C1384.41 174.054 1383.52 174.811 1382.06 175.853C1380.61 176.894 1378.32 177.415 1375.2 177.415C1371.13 177.415 1368.13 176.219 1366.19 173.826C1364.27 171.434 1363.31 168.219 1363.31 164.183ZM1367.75 162.645H1381.55C1381.48 160.366 1380.9 158.372 1379.79 156.663C1378.68 154.938 1377.05 154.075 1374.91 154.075C1373.02 154.075 1371.42 154.71 1370.1 155.979C1368.78 157.233 1368 159.454 1367.75 162.645ZM1263.92 258.766C1263.19 258.766 1262.82 258.399 1262.82 257.667V224.464C1262.82 223.731 1263.19 223.365 1263.92 223.365H1265.97C1266.56 223.365 1266.87 223.731 1266.92 224.464L1267.07 226.417H1267.12C1268.01 225.343 1269.02 224.496 1270.15 223.878C1271.27 223.259 1272.77 222.95 1274.64 222.95C1277.89 222.95 1280.37 224.285 1282.06 226.954C1283.75 229.607 1284.6 232.683 1284.6 236.183C1284.6 239.682 1283.75 242.766 1282.06 245.436C1280.37 248.089 1277.89 249.415 1274.64 249.415C1272.77 249.415 1271.27 249.106 1270.15 248.487C1269.02 247.869 1268.01 247.022 1267.12 245.948H1267.07C1267.1 246.437 1267.12 246.933 1267.12 247.438V257.667C1267.12 258.399 1266.75 258.766 1266.02 258.766H1263.92ZM1267.12 238.99C1267.12 241.432 1267.7 243.255 1268.85 244.459C1270.02 245.647 1271.49 246.241 1273.25 246.241C1275.72 246.241 1277.47 245.313 1278.5 243.458C1279.54 241.603 1280.06 239.177 1280.06 236.183C1280.06 233.188 1279.54 230.763 1278.5 228.907C1277.47 227.052 1275.72 226.124 1273.25 226.124C1271.49 226.124 1270.02 226.726 1268.85 227.931C1267.7 229.119 1267.12 230.934 1267.12 233.375V238.99ZM1288.77 242.164C1288.77 239.267 1290.12 237.143 1292.83 235.792C1295.54 234.441 1299.6 233.652 1304.98 233.424V231.764C1304.98 230.234 1304.63 228.915 1303.93 227.809C1303.25 226.686 1301.88 226.124 1299.83 226.124C1298.53 226.124 1297.49 226.254 1296.71 226.515C1295.93 226.759 1295.21 227.092 1294.56 227.516C1293.92 227.923 1293.31 228.451 1292.73 229.103C1292.29 229.591 1291.87 229.615 1291.48 229.176L1290.21 227.711C1289.86 227.304 1289.98 226.816 1290.58 226.246C1291.44 225.432 1292.28 224.822 1293.09 224.415C1293.91 224.008 1294.92 223.666 1296.12 223.39C1297.34 223.097 1298.58 222.95 1299.83 222.95C1303.23 222.95 1305.66 223.829 1307.11 225.587C1308.56 227.328 1309.28 229.721 1309.28 232.765V247.901C1309.28 248.634 1308.92 249 1308.18 249H1305.99C1305.35 249 1305.03 248.634 1305.03 247.901V246.705H1304.98C1303.7 247.714 1302.44 248.422 1301.2 248.829C1299.98 249.22 1298.61 249.415 1297.1 249.415C1294.43 249.415 1292.37 248.78 1290.92 247.511C1289.49 246.225 1288.77 244.443 1288.77 242.164ZM1293.22 242.262C1293.22 243.271 1293.43 244.085 1293.85 244.703C1294.27 245.305 1294.86 245.696 1295.61 245.875C1296.36 246.038 1297.14 246.119 1297.95 246.119C1299.21 246.119 1300.39 245.997 1301.52 245.753C1302.64 245.509 1303.8 244.866 1304.98 243.824V236.622C1301.7 236.866 1299.35 237.167 1297.95 237.525C1296.55 237.867 1295.41 238.469 1294.54 239.332C1293.66 240.178 1293.22 241.155 1293.22 242.262ZM1314.85 236.183C1314.85 232.358 1315.79 229.2 1317.68 226.71C1319.58 224.203 1322.49 222.95 1326.4 222.95C1329.03 222.95 1331.04 223.422 1332.43 224.366C1333.83 225.294 1334.83 226.246 1335.45 227.223C1335.79 227.76 1335.72 228.191 1335.23 228.517L1333.7 229.518C1333.21 229.859 1332.72 229.64 1332.23 228.858C1331.76 228.11 1331.09 227.467 1330.23 226.93C1329.38 226.393 1328.1 226.124 1326.4 226.124C1324.17 226.124 1322.44 226.946 1321.22 228.59C1320 230.234 1319.39 232.765 1319.39 236.183C1319.39 239.601 1320 242.132 1321.22 243.775C1322.44 245.419 1324.17 246.241 1326.4 246.241C1328.2 246.241 1329.59 245.899 1330.55 245.216C1331.51 244.516 1332.21 243.759 1332.65 242.945C1333.07 242.18 1333.55 241.961 1334.09 242.286L1335.72 243.263C1336.21 243.556 1336.28 243.995 1335.94 244.581C1335.53 245.281 1334.61 246.266 1333.16 247.535C1331.73 248.788 1329.47 249.415 1326.4 249.415C1322.49 249.415 1319.58 248.17 1317.68 245.68C1315.79 243.173 1314.85 240.007 1314.85 236.183ZM1342.39 249C1341.65 249 1341.29 248.634 1341.29 247.901V214.063C1341.29 213.331 1341.65 212.965 1342.39 212.965H1344.49C1345.22 212.965 1345.58 213.331 1345.58 214.063V234.376C1345.58 234.864 1345.57 235.353 1345.54 235.841H1345.58L1355.47 224C1355.83 223.577 1356.26 223.365 1356.77 223.365H1358.99C1360.23 223.365 1360.44 223.845 1359.62 224.806L1351.96 233.937L1360.72 247.56C1361.34 248.52 1361.13 249 1360.09 249H1357.69C1357.16 249 1356.69 248.699 1356.3 248.097L1349.27 237.135L1345.58 241.529V247.901C1345.58 248.634 1345.22 249 1344.49 249H1342.39ZM1364.41 236.183C1364.41 232.146 1365.42 228.932 1367.44 226.539C1369.45 224.146 1372.34 222.95 1376.1 222.95C1379.23 222.95 1381.82 224.049 1383.87 226.246C1385.93 228.427 1386.97 231.918 1386.97 236.72C1386.97 237.452 1386.63 237.818 1385.97 237.818H1368.95C1369.23 240.96 1370.07 243.149 1371.49 244.386C1372.9 245.606 1374.51 246.217 1376.3 246.217C1378.19 246.217 1379.63 245.899 1380.64 245.265C1381.65 244.63 1382.39 244.003 1382.87 243.385C1383.39 242.701 1383.89 242.571 1384.38 242.994L1385.82 244.239C1386.19 244.565 1386.19 245.012 1385.82 245.582C1385.51 246.054 1384.62 246.811 1383.16 247.853C1381.71 248.894 1379.42 249.415 1376.3 249.415C1372.23 249.415 1369.23 248.219 1367.29 245.826C1365.37 243.434 1364.41 240.219 1364.41 236.183ZM1368.85 234.645H1382.65C1382.58 232.366 1381.99 230.372 1380.89 228.663C1379.78 226.938 1378.15 226.075 1376 226.075C1374.12 226.075 1372.51 226.71 1371.2 227.979C1369.88 229.233 1369.1 231.454 1368.85 234.645ZM1391.36 226.588C1390.63 226.588 1390.26 226.303 1390.26 225.733V224.22C1390.26 223.65 1390.63 223.365 1391.36 223.365H1394.24V221.168C1394.24 220.842 1394.32 220.533 1394.49 220.24L1396.2 217.14C1396.5 216.57 1396.76 216.285 1396.95 216.285H1397.81C1398.29 216.285 1398.54 216.57 1398.54 217.14V223.365H1403.74C1404.47 223.365 1404.84 223.65 1404.84 224.22V225.733C1404.84 226.303 1404.47 226.588 1403.74 226.588H1398.54V242.14C1398.54 243.849 1398.79 244.964 1399.3 245.484C1399.82 245.989 1400.44 246.241 1401.15 246.241C1401.7 246.241 1402.36 246.078 1403.13 245.753C1403.91 245.427 1404.45 245.151 1404.74 244.923C1405.03 244.695 1405.26 244.768 1405.42 245.143L1406.23 247.022C1406.36 247.348 1406.26 247.608 1405.94 247.804C1405.3 248.178 1404.37 248.544 1403.15 248.902C1401.93 249.244 1400.71 249.415 1399.49 249.415C1397.8 249.415 1396.5 248.805 1395.58 247.584C1394.69 246.363 1394.24 244.638 1394.24 242.408V226.588H1391.36Z" fill="black"/>
<rect width="660" height="660" rx="60" fill="#75D573"/>
<path d="M136.688 337C135.554 337 135.259 336.28 135.805 334.841L152.097 292.083C152.598 290.752 153.318 290.087 154.256 290.087H158.836C159.774 290.087 160.493 290.752 160.995 292.083L177.287 334.841C177.832 336.28 177.538 337 176.404 337H173.067C171.911 337 171.126 336.466 170.711 335.397L166.622 324.568H146.47L142.38 335.397C141.966 336.466 141.181 337 140.025 337H136.688ZM148.531 319.203H164.561L159.556 306.117C159.098 304.896 158.64 303.544 158.182 302.061C157.745 300.577 157.222 298.473 156.611 295.747H156.48C155.87 298.473 155.335 300.577 154.877 302.061C154.441 303.544 153.994 304.896 153.536 306.117L148.531 319.203ZM185.171 337C184.081 337 183.536 336.4 183.536 335.201V291.886C183.536 290.687 184.081 290.087 185.171 290.087H198.912C206.327 290.087 211.332 291.341 213.928 293.849C216.523 296.335 217.821 299.76 217.821 304.122C217.821 308.484 216.523 311.919 213.928 314.427C211.332 316.913 206.327 318.156 198.912 318.156H189.817V335.201C189.817 336.4 189.272 337 188.181 337H185.171ZM189.817 312.791H199.01C203.808 312.791 207.079 312.115 208.824 310.763C210.569 309.389 211.441 307.175 211.441 304.122C211.441 301.068 210.569 298.865 208.824 297.513C207.079 296.139 203.808 295.452 199.01 295.452H189.817V312.791ZM227.962 337C226.872 337 226.327 336.4 226.327 335.201V291.886C226.327 290.687 226.872 290.087 227.962 290.087H230.972C232.063 290.087 232.608 290.687 232.608 291.886V335.201C232.608 336.4 232.063 337 230.972 337H227.962ZM267.678 337C266.588 337 266.042 336.4 266.042 335.201V291.886C266.042 290.687 266.588 290.087 267.678 290.087H296.304C297.503 290.087 298.103 290.578 298.103 291.559V293.98C298.103 294.961 297.503 295.452 296.304 295.452H272.324V309.978H294.341C295.54 309.978 296.14 310.468 296.14 311.45V313.871C296.14 314.852 295.54 315.343 294.341 315.343H272.324V331.635H297.285C298.485 331.635 299.084 332.125 299.084 333.107V335.528C299.084 336.509 298.485 337 297.285 337H267.678ZM308.146 337C307.165 337 306.674 336.509 306.674 335.528V304.122C306.674 303.14 307.165 302.649 308.146 302.649H310.895C311.876 302.649 312.367 303.14 312.367 304.122V306.739H312.498C313.915 305.168 315.442 304.002 317.078 303.238C318.713 302.475 320.753 302.093 323.195 302.093C327.165 302.093 330.011 303.216 331.734 305.463C333.479 307.688 334.351 310.741 334.351 314.623V335.528C334.351 336.509 333.86 337 332.879 337H330.065C329.084 337 328.593 336.509 328.593 335.528V316.193C328.593 311.919 327.884 309.214 326.467 308.08C325.049 306.924 323.25 306.346 321.069 306.346C318.234 306.346 316.085 307.197 314.624 308.898C313.163 310.577 312.432 313.467 312.432 317.567V335.528C312.432 336.509 311.941 337 310.96 337H308.146ZM341.712 319.825C341.712 315.136 342.846 311.014 345.114 307.458C347.382 303.882 350.698 302.093 355.06 302.093C357.568 302.093 359.574 302.508 361.079 303.336C362.584 304.165 363.936 305.299 365.136 306.739H365.201C365.158 306.084 365.136 305.419 365.136 304.743V290.185C365.136 289.204 365.626 288.713 366.608 288.713H369.421C370.403 288.713 370.894 289.204 370.894 290.185V335.528C370.894 336.509 370.403 337 369.421 337H366.673C365.888 337 365.463 336.509 365.397 335.528L365.201 332.911H365.136C363.936 334.35 362.584 335.484 361.079 336.313C359.574 337.142 357.568 337.556 355.06 337.556C350.698 337.556 347.382 335.779 345.114 332.224C342.846 328.647 341.712 324.514 341.712 319.825ZM347.797 319.825C347.797 323.838 348.484 327.087 349.858 329.574C351.254 332.06 353.609 333.303 356.924 333.303C359.28 333.303 361.232 332.507 362.78 330.915C364.351 329.301 365.136 326.858 365.136 323.587V316.062C365.136 312.791 364.351 310.359 362.78 308.767C361.232 307.153 359.28 306.346 356.924 306.346C353.609 306.346 351.254 307.589 349.858 310.076C348.484 312.562 347.797 315.812 347.797 319.825ZM381.689 350.086C380.708 350.086 380.217 349.595 380.217 348.614V304.122C380.217 303.14 380.708 302.649 381.689 302.649H384.438C385.223 302.649 385.648 303.14 385.713 304.122L385.91 306.739H385.975C387.175 305.299 388.527 304.165 390.032 303.336C391.537 302.508 393.543 302.093 396.051 302.093C400.413 302.093 403.728 303.882 405.997 307.458C408.265 311.014 409.399 315.136 409.399 319.825C409.399 324.514 408.265 328.647 405.997 332.224C403.728 335.779 400.413 337.556 396.051 337.556C393.543 337.556 391.537 337.142 390.032 336.313C388.527 335.484 387.175 334.35 385.975 332.911H385.91C385.953 333.565 385.975 334.23 385.975 334.906V348.614C385.975 349.595 385.484 350.086 384.503 350.086H381.689ZM385.975 323.587C385.975 326.858 386.749 329.301 388.298 330.915C389.868 332.507 391.831 333.303 394.187 333.303C397.502 333.303 399.846 332.06 401.22 329.574C402.616 327.087 403.314 323.838 403.314 319.825C403.314 315.812 402.616 312.562 401.22 310.076C399.846 307.589 397.502 306.346 394.187 306.346C391.831 306.346 389.868 307.153 388.298 308.767C386.749 310.359 385.975 312.791 385.975 316.062V323.587ZM414.993 319.825C414.993 314.699 416.345 310.468 419.05 307.131C421.776 303.773 425.756 302.093 430.991 302.093C436.225 302.093 440.194 303.773 442.899 307.131C445.625 310.468 446.988 314.699 446.988 319.825C446.988 324.95 445.625 329.192 442.899 332.551C440.194 335.888 436.225 337.556 430.991 337.556C425.756 337.556 421.776 335.888 419.05 332.551C416.345 329.192 414.993 324.95 414.993 319.825ZM421.078 319.825C421.078 324.405 421.983 327.796 423.793 329.999C425.604 332.202 428.003 333.303 430.991 333.303C433.979 333.303 436.378 332.202 438.188 329.999C439.998 327.796 440.903 324.405 440.903 319.825C440.903 315.245 439.998 311.853 438.188 309.65C436.378 307.448 433.979 306.346 430.991 306.346C428.003 306.346 425.604 307.448 423.793 309.65C421.983 311.853 421.078 315.245 421.078 319.825ZM455.887 337C454.905 337 454.415 336.509 454.415 335.528V304.122C454.415 303.14 454.905 302.649 455.887 302.649H458.7C459.682 302.649 460.172 303.14 460.172 304.122V335.528C460.172 336.509 459.682 337 458.7 337H455.887ZM455.887 296.434C454.905 296.434 454.415 295.943 454.415 294.961V292.148C454.415 291.167 454.905 290.676 455.887 290.676H458.7C459.682 290.676 460.172 291.167 460.172 292.148V294.961C460.172 295.943 459.682 296.434 458.7 296.434H455.887ZM470.936 337C469.954 337 469.463 336.509 469.463 335.528V304.122C469.463 303.14 469.954 302.649 470.936 302.649H473.684C474.665 302.649 475.156 303.14 475.156 304.122V306.739H475.287C476.704 305.168 478.231 304.002 479.867 303.238C481.502 302.475 483.542 302.093 485.984 302.093C489.954 302.093 492.8 303.216 494.523 305.463C496.268 307.688 497.14 310.741 497.14 314.623V335.528C497.14 336.509 496.649 337 495.668 337H492.854C491.873 337 491.382 336.509 491.382 335.528V316.193C491.382 311.919 490.674 309.214 489.256 308.08C487.838 306.924 486.039 306.346 483.858 306.346C481.023 306.346 478.874 307.197 477.413 308.898C475.952 310.577 475.221 313.467 475.221 317.567V335.528C475.221 336.509 474.73 337 473.749 337H470.936ZM504.697 306.968C503.716 306.968 503.225 306.586 503.225 305.823V303.794C503.225 303.031 503.716 302.649 504.697 302.649H508.558V299.705C508.558 299.269 508.667 298.854 508.885 298.462L511.175 294.307C511.589 293.544 511.927 293.162 512.189 293.162H513.334C513.988 293.162 514.315 293.544 514.315 294.307V302.649H521.284C522.265 302.649 522.756 303.031 522.756 303.794V305.823C522.756 306.586 522.265 306.968 521.284 306.968H514.315V327.807C514.315 330.097 514.653 331.591 515.33 332.289C516.028 332.965 516.856 333.303 517.816 333.303C518.557 333.303 519.441 333.085 520.466 332.649C521.513 332.213 522.232 331.842 522.625 331.537C523.018 331.231 523.323 331.329 523.541 331.831L524.621 334.35C524.795 334.786 524.664 335.135 524.228 335.397C523.377 335.899 522.134 336.389 520.499 336.869C518.863 337.327 517.227 337.556 515.591 337.556C513.323 337.556 511.578 336.738 510.357 335.103C509.157 333.467 508.558 331.155 508.558 328.167V306.968H504.697Z" fill="black"/>
<rect x="2128" y="218" width="262" height="262" rx="60" fill="#75D573"/>
<path d="M2175.2 330C2174.47 330 2174.1 329.634 2174.1 328.901V295.063C2174.1 294.331 2174.47 293.965 2175.2 293.965H2177.3C2178.03 293.965 2178.4 294.331 2178.4 295.063V305.928C2178.4 306.432 2178.38 306.929 2178.35 307.417H2178.4C2179.29 306.343 2180.3 305.496 2181.42 304.878C2182.55 304.259 2184.05 303.95 2185.92 303.95C2189.17 303.95 2191.65 305.285 2193.34 307.954C2195.03 310.607 2195.88 313.683 2195.88 317.183C2195.88 320.682 2195.03 323.766 2193.34 326.436C2191.65 329.089 2189.17 330.415 2185.92 330.415C2184.05 330.415 2182.55 330.106 2181.42 329.487C2180.3 328.869 2179.29 328.022 2178.4 326.948H2178.35L2178.2 328.901C2178.15 329.634 2177.84 330 2177.25 330H2175.2ZM2178.4 319.99C2178.4 322.432 2178.98 324.255 2180.13 325.459C2181.3 326.647 2182.77 327.241 2184.53 327.241C2187 327.241 2188.75 326.313 2189.77 324.458C2190.82 322.603 2191.34 320.177 2191.34 317.183C2191.34 314.188 2190.82 311.763 2189.77 309.907C2188.75 308.052 2187 307.124 2184.53 307.124C2182.77 307.124 2181.3 307.726 2180.13 308.931C2178.98 310.119 2178.4 311.934 2178.4 314.375V319.99ZM2202.54 330C2201.81 330 2201.44 329.634 2201.44 328.901V305.464C2201.44 304.731 2201.81 304.365 2202.54 304.365H2204.59C2205.33 304.365 2205.69 304.731 2205.69 305.464V308.394H2205.79C2206.57 306.929 2207.49 305.822 2208.55 305.073C2209.61 304.325 2210.93 303.95 2212.5 303.95C2213.55 303.95 2214.28 304.04 2214.7 304.219C2215.08 304.365 2215.21 304.609 2215.12 304.951L2214.55 306.953C2214.47 307.246 2214.26 307.36 2213.92 307.295C2213.35 307.181 2212.81 307.124 2212.31 307.124C2210.4 307.124 2208.83 307.987 2207.6 309.712C2206.36 311.421 2205.74 313.757 2205.74 316.719V328.901C2205.74 329.634 2205.38 330 2204.64 330H2202.54ZM2217.68 317.183C2217.68 313.358 2218.69 310.2 2220.71 307.71C2222.74 305.203 2225.71 303.95 2229.62 303.95C2233.52 303.95 2236.49 305.203 2238.5 307.71C2240.54 310.2 2241.56 313.358 2241.56 317.183C2241.56 321.007 2240.54 324.173 2238.5 326.68C2236.49 329.17 2233.52 330.415 2229.62 330.415C2225.71 330.415 2222.74 329.17 2220.71 326.68C2218.69 324.173 2217.68 321.007 2217.68 317.183ZM2222.22 317.183C2222.22 320.601 2222.9 323.132 2224.25 324.775C2225.6 326.419 2227.39 327.241 2229.62 327.241C2231.85 327.241 2233.64 326.419 2234.99 324.775C2236.34 323.132 2237.02 320.601 2237.02 317.183C2237.02 313.765 2236.34 311.234 2234.99 309.59C2233.64 307.946 2231.85 307.124 2229.62 307.124C2227.39 307.124 2225.6 307.946 2224.25 309.59C2222.9 311.234 2222.22 313.765 2222.22 317.183ZM2245.05 305.562C2244.84 304.764 2245.06 304.365 2245.71 304.365H2248.27C2248.86 304.365 2249.22 304.683 2249.37 305.317L2252.96 321.431C2253.07 321.903 2253.24 322.643 2253.47 323.652C2253.71 324.661 2253.89 325.402 2253.98 325.874H2254.08C2254.16 325.418 2254.3 324.735 2254.5 323.823C2254.71 322.912 2254.9 322.114 2255.08 321.431L2259.38 305.317C2259.54 304.683 2259.91 304.365 2260.48 304.365H2262.67C2263.24 304.365 2263.61 304.683 2263.77 305.317L2268.07 321.431C2268.25 322.114 2268.44 322.912 2268.63 323.823C2268.84 324.735 2268.99 325.418 2269.07 325.874H2269.17C2269.27 325.402 2269.43 324.661 2269.66 323.652C2269.9 322.643 2270.08 321.903 2270.19 321.431L2273.78 305.317C2273.93 304.683 2274.3 304.365 2274.88 304.365H2277.45C2278.1 304.365 2278.32 304.764 2278.1 305.562L2272.05 328.511C2271.79 329.504 2271.35 330 2270.73 330H2267.8C2267.18 330 2266.74 329.504 2266.48 328.511L2262.33 312.373C2262.04 311.234 2261.85 310.436 2261.77 309.98C2261.71 309.525 2261.65 309.093 2261.6 308.687H2261.55C2261.5 309.093 2261.44 309.525 2261.36 309.98C2261.29 310.436 2261.11 311.234 2260.82 312.373L2256.67 328.511C2256.41 329.504 2255.97 330 2255.35 330H2252.42C2251.8 330 2251.36 329.504 2251.1 328.511L2245.05 305.562ZM2281.35 327.607C2280.85 327.135 2280.74 326.696 2281.03 326.289L2282.13 324.751C2282.49 324.263 2283.02 324.287 2283.72 324.824C2284.68 325.557 2285.75 326.143 2286.92 326.582C2288.11 327.021 2289.46 327.241 2290.97 327.241C2291.87 327.241 2292.66 327.135 2293.36 326.924C2294.06 326.696 2294.67 326.281 2295.19 325.679C2295.73 325.076 2296 324.271 2296 323.262C2296 322.676 2295.87 322.122 2295.61 321.602C2295.37 321.081 2294.97 320.666 2294.44 320.356C2293.92 320.031 2293.4 319.779 2292.9 319.6C2292.07 319.29 2291.24 319.038 2290.41 318.843C2289.6 318.631 2288.52 318.314 2287.19 317.891C2286.29 317.614 2285.44 317.223 2284.65 316.719C2283.85 316.198 2283.15 315.498 2282.55 314.619C2281.96 313.74 2281.67 312.528 2281.67 310.981C2281.67 309.403 2282.15 308.044 2283.11 306.904C2284.07 305.765 2285.27 304.992 2286.72 304.585C2288.17 304.162 2289.58 303.95 2290.95 303.95C2292.96 303.95 2294.58 304.186 2295.8 304.658C2297.04 305.114 2298.11 305.659 2299 306.294C2299.52 306.668 2299.6 307.1 2299.22 307.588L2298.12 309.053C2297.78 309.525 2297.25 309.508 2296.54 309.004C2295.93 308.581 2295.08 308.182 2293.97 307.808C2292.87 307.433 2291.9 307.246 2291.07 307.246C2290.04 307.246 2289.16 307.36 2288.43 307.588C2287.7 307.816 2287.11 308.206 2286.65 308.76C2286.19 309.313 2285.97 309.964 2285.97 310.713C2285.97 311.283 2286.06 311.795 2286.23 312.251C2286.41 312.69 2286.75 313.097 2287.24 313.472C2287.72 313.846 2288.41 314.147 2289.29 314.375C2290.65 314.733 2291.9 315.059 2293.02 315.352C2294.16 315.645 2295.19 316.003 2296.1 316.426C2297.29 316.979 2298.2 317.59 2298.83 318.257C2299.48 318.924 2299.93 319.648 2300.17 320.43C2300.42 321.195 2300.54 322.049 2300.54 322.993C2300.54 324.735 2300.02 326.208 2298.98 327.412C2297.95 328.617 2296.81 329.422 2295.54 329.829C2294.27 330.22 2292.74 330.415 2290.95 330.415C2288.52 330.415 2286.44 330.073 2284.7 329.39C2282.97 328.69 2281.86 328.096 2281.35 327.607ZM2304.01 317.183C2304.01 313.146 2305.02 309.932 2307.04 307.539C2309.05 305.146 2311.94 303.95 2315.7 303.95C2318.83 303.95 2321.42 305.049 2323.47 307.246C2325.53 309.427 2326.57 312.918 2326.57 317.72C2326.57 318.452 2326.23 318.818 2325.57 318.818H2308.55C2308.83 321.96 2309.67 324.149 2311.09 325.386C2312.5 326.606 2314.11 327.217 2315.9 327.217C2317.79 327.217 2319.23 326.899 2320.24 326.265C2321.25 325.63 2321.99 325.003 2322.46 324.385C2322.99 323.701 2323.49 323.571 2323.98 323.994L2325.42 325.239C2325.79 325.565 2325.79 326.012 2325.42 326.582C2325.11 327.054 2324.22 327.811 2322.76 328.853C2321.31 329.894 2319.02 330.415 2315.9 330.415C2311.83 330.415 2308.83 329.219 2306.89 326.826C2304.97 324.434 2304.01 321.219 2304.01 317.183ZM2308.45 315.645H2322.25C2322.18 313.366 2321.59 311.372 2320.49 309.663C2319.38 307.938 2317.75 307.075 2315.6 307.075C2313.72 307.075 2312.11 307.71 2310.79 308.979C2309.48 310.233 2308.7 312.454 2308.45 315.645ZM2333.3 330C2332.57 330 2332.21 329.634 2332.21 328.901V305.464C2332.21 304.731 2332.57 304.365 2333.3 304.365H2335.36C2336.09 304.365 2336.45 304.731 2336.45 305.464V308.394H2336.55C2337.33 306.929 2338.25 305.822 2339.31 305.073C2340.37 304.325 2341.69 303.95 2343.27 303.95C2344.31 303.95 2345.04 304.04 2345.46 304.219C2345.84 304.365 2345.98 304.609 2345.88 304.951L2345.32 306.953C2345.24 307.246 2345.02 307.36 2344.68 307.295C2344.11 307.181 2343.57 307.124 2343.07 307.124C2341.17 307.124 2339.6 307.987 2338.36 309.712C2337.12 311.421 2336.5 313.757 2336.5 316.719V328.901C2336.5 329.634 2336.14 330 2335.4 330H2333.3ZM2200.39 389.183C2200.39 385.358 2201.34 382.2 2203.23 379.71C2205.13 377.203 2208.04 375.95 2211.94 375.95C2214.58 375.95 2216.59 376.422 2217.97 377.366C2219.37 378.294 2220.38 379.246 2221 380.223C2221.34 380.76 2221.27 381.191 2220.78 381.517L2219.24 382.518C2218.75 382.859 2218.27 382.64 2217.78 381.858C2217.31 381.11 2216.64 380.467 2215.78 379.93C2214.93 379.393 2213.65 379.124 2211.94 379.124C2209.71 379.124 2207.99 379.946 2206.77 381.59C2205.55 383.234 2204.94 385.765 2204.94 389.183C2204.94 392.601 2205.55 395.132 2206.77 396.775C2207.99 398.419 2209.71 399.241 2211.94 399.241C2213.75 399.241 2215.13 398.899 2216.09 398.216C2217.05 397.516 2217.75 396.759 2218.19 395.945C2218.62 395.18 2219.1 394.961 2219.63 395.286L2221.27 396.263C2221.76 396.556 2221.83 396.995 2221.49 397.581C2221.08 398.281 2220.15 399.266 2218.71 400.535C2217.27 401.788 2215.02 402.415 2211.94 402.415C2208.04 402.415 2205.13 401.17 2203.23 398.68C2201.34 396.173 2200.39 393.007 2200.39 389.183ZM2227.93 402C2227.2 402 2226.83 401.634 2226.83 400.901V370.433C2226.83 370.107 2226.92 369.798 2227.08 369.505L2228.79 366.404C2229.1 365.835 2229.35 365.55 2229.54 365.55H2230.4C2230.89 365.55 2231.13 365.835 2231.13 366.404V400.901C2231.13 401.634 2230.77 402 2230.03 402H2227.93ZM2239.16 402C2238.43 402 2238.07 401.634 2238.07 400.901V377.464C2238.07 376.731 2238.43 376.365 2239.16 376.365H2241.26C2242 376.365 2242.36 376.731 2242.36 377.464V400.901C2242.36 401.634 2242 402 2241.26 402H2239.16ZM2239.16 371.727C2238.43 371.727 2238.07 371.36 2238.07 370.628V368.528C2238.07 367.796 2238.43 367.43 2239.16 367.43H2241.26C2242 367.43 2242.36 367.796 2242.36 368.528V370.628C2242.36 371.36 2242 371.727 2241.26 371.727H2239.16ZM2247.9 389.183C2247.9 385.146 2248.91 381.932 2250.93 379.539C2252.95 377.146 2255.84 375.95 2259.6 375.95C2262.72 375.95 2265.31 377.049 2267.36 379.246C2269.43 381.427 2270.46 384.918 2270.46 389.72C2270.46 390.452 2270.13 390.818 2269.46 390.818H2252.45C2252.72 393.96 2253.57 396.149 2254.98 397.386C2256.4 398.606 2258 399.217 2259.79 399.217C2261.68 399.217 2263.13 398.899 2264.14 398.265C2265.15 397.63 2265.89 397.003 2266.36 396.385C2266.88 395.701 2267.39 395.571 2267.88 395.994L2269.32 397.239C2269.69 397.565 2269.69 398.012 2269.32 398.582C2269.01 399.054 2268.12 399.811 2266.65 400.853C2265.21 401.894 2262.92 402.415 2259.79 402.415C2255.72 402.415 2252.72 401.219 2250.79 398.826C2248.86 396.434 2247.9 393.219 2247.9 389.183ZM2252.35 387.645H2266.14C2266.08 385.366 2265.49 383.372 2264.38 381.663C2263.28 379.938 2261.65 379.075 2259.5 379.075C2257.61 379.075 2256.01 379.71 2254.69 380.979C2253.37 382.233 2252.59 384.454 2252.35 387.645ZM2277.2 402C2276.47 402 2276.1 401.634 2276.1 400.901V377.464C2276.1 376.731 2276.47 376.365 2277.2 376.365H2279.25C2279.98 376.365 2280.35 376.731 2280.35 377.464V379.417H2280.45C2281.51 378.245 2282.65 377.374 2283.87 376.805C2285.09 376.235 2286.61 375.95 2288.43 375.95C2291.39 375.95 2293.52 376.788 2294.8 378.465C2296.11 380.125 2296.76 382.404 2296.76 385.301V400.901C2296.76 401.634 2296.39 402 2295.66 402H2293.56C2292.83 402 2292.46 401.634 2292.46 400.901V386.473C2292.46 383.283 2291.93 381.264 2290.87 380.418C2289.82 379.555 2288.47 379.124 2286.84 379.124C2284.73 379.124 2283.13 379.759 2282.04 381.028C2280.94 382.282 2280.4 384.438 2280.4 387.498V400.901C2280.4 401.634 2280.03 402 2279.3 402H2277.2ZM2302.4 379.588C2301.66 379.588 2301.3 379.303 2301.3 378.733V377.22C2301.3 376.65 2301.66 376.365 2302.4 376.365H2305.28V374.168C2305.28 373.842 2305.36 373.533 2305.52 373.24L2307.23 370.14C2307.54 369.57 2307.79 369.285 2307.99 369.285H2308.84C2309.33 369.285 2309.57 369.57 2309.57 370.14V376.365H2314.77C2315.51 376.365 2315.87 376.65 2315.87 377.22V378.733C2315.87 379.303 2315.51 379.588 2314.77 379.588H2309.57V395.14C2309.57 396.849 2309.83 397.964 2310.33 398.484C2310.85 398.989 2311.47 399.241 2312.19 399.241C2312.74 399.241 2313.4 399.078 2314.16 398.753C2314.95 398.427 2315.48 398.151 2315.78 397.923C2316.07 397.695 2316.3 397.768 2316.46 398.143L2317.26 400.022C2317.39 400.348 2317.3 400.608 2316.97 400.804C2316.34 401.178 2315.41 401.544 2314.19 401.902C2312.97 402.244 2311.75 402.415 2310.53 402.415C2308.83 402.415 2307.53 401.805 2306.62 400.584C2305.72 399.363 2305.28 397.638 2305.28 395.408V379.588H2302.4Z" fill="black"/>
<path d="M2079.3 347.303C2082.23 344.374 2082.23 339.626 2079.3 336.697L2031.57 288.967C2028.64 286.038 2023.9 286.038 2020.97 288.967C2018.04 291.896 2018.04 296.645 2020.97 299.574L2063.39 342L2020.97 384.426C2018.04 387.355 2018.04 392.104 2020.97 395.033C2023.9 397.962 2028.64 397.962 2031.57 395.033L2079.3 347.303ZM732 349.5H2074V334.5H732V349.5Z" fill="white"/>
</svg>
