<svg width="1278" height="1278" viewBox="0 0 1278 1278" fill="none" xmlns="http://www.w3.org/2000/svg">
<path d="M689.084 690.794L798.842 641.68C802.707 639.951 807.123 639.935 810.999 641.637L923.031 690.827C928.481 693.22 932.001 698.564 932.001 704.516V830.315C932.001 845.403 866.544 959.266 804.911 958.681C743.279 958.096 680.211 845.403 680.211 830.315C680.212 791.022 680.211 728.332 680.211 704.442C680.211 698.527 683.686 693.21 689.084 690.794Z" stroke="#75D573" stroke-width="75" stroke-linecap="round" stroke-linejoin="round"/>
<path d="M578.105 878.98H361C352.716 878.98 346 872.264 346 863.98V685.272M784.368 542.148V491.564M346 491.564H784.368M346 491.564V685.272M346 491.564V327M784.368 491.564V327M346 685.272H578.105M769.368 312H361M769.368 312C777.652 312 784.368 318.716 784.368 327M769.368 312V312C777.652 312 784.368 318.716 784.368 327V327M361 312C352.716 312 346 318.716 346 327M361 312V312C352.716 312 346 318.716 346 327V327" stroke="#75D573" stroke-width="75" stroke-linecap="round" stroke-linejoin="round"/>
</svg>
