<svg width="1278" height="1278" viewBox="0 0 1278 1278" fill="none" xmlns="http://www.w3.org/2000/svg">
<path d="M332 807.538H380.399V855.926H332V807.538Z" fill="#0078BF"/>
<path d="M379.131 885.24H333.266V1059.29H379.131V885.24ZM683.134 1061.05V1018.38C676.376 1018.34 670.8 1017.99 666.545 1017.31C661.81 1016.57 658.193 1014.96 655.781 1012.54C653.361 1010.13 651.757 1006.63 651.003 1002.14C650.295 997.845 649.93 992.191 649.93 985.33V924.444H683.134V885.24H649.93V817.422H604.067V985.684C604.067 999.875 605.299 1011.95 607.736 1021.57C610.149 1031.09 614.253 1038.85 619.955 1044.67C625.655 1050.48 633.192 1054.7 642.351 1057.22C651.597 1059.77 663.371 1061.05 677.333 1061.05H683.134ZM946 804H900.136V1059.29H946V804ZM559.843 902.373C547.139 888.66 529.195 881.702 506.498 881.702C495.556 881.702 485.433 883.963 476.406 888.403C467.391 892.853 459.721 899.102 453.622 906.974L451.131 910.2L451.113 907.301V885.24H405.868V1059.29H451.457V966.566L451.503 972.993C451.503 971.937 451.51 970.89 451.548 969.862C452.018 953.598 456.077 941.462 463.639 933.768C471.708 925.56 481.505 921.394 492.747 921.394C505.983 921.394 516.081 925.446 522.776 933.442C529.328 941.276 532.671 952.497 532.741 966.797V967.158C532.741 967.186 532.749 967.211 532.749 967.239H532.741L532.749 1059.29H579.029V960.485C579.029 935.676 572.575 916.13 559.843 902.373ZM876.234 971.91C876.234 959.44 874.007 947.596 869.609 936.711C865.221 925.853 859.006 916.183 851.153 907.974C843.296 899.786 833.756 893.288 822.781 888.67C811.803 884.052 799.541 881.702 786.36 881.702C773.875 881.702 761.987 884.104 751.002 888.838C740.017 893.58 730.344 900.087 722.249 908.177C714.154 916.271 707.648 925.942 702.913 936.917C698.178 947.889 695.776 959.776 695.776 972.264C695.776 984.754 698.062 996.659 702.568 1007.63C707.079 1018.61 713.41 1028.28 721.372 1036.36C729.352 1044.44 739.13 1050.95 750.462 1055.68C761.791 1060.42 774.345 1062.82 787.768 1062.82C826.566 1062.82 850.77 1045.17 865.221 1028.67L832.213 1003.53C825.254 1011.78 808.745 1022.98 788.124 1022.98C775.189 1022.98 764.531 1019.98 756.463 1014.08C748.378 1008.17 742.81 1000.04 739.919 989.923L739.459 988.299H876.234V971.91ZM739.831 955.937C739.822 943.201 754.46 920.952 786.003 920.917C817.549 920.917 832.213 943.148 832.213 955.884L739.831 955.937Z" fill="#0EC2F3"/>
<path d="M577.262 265.258H704.57V397.126L784.677 476.37V187H500.853L577.262 265.258Z" fill="#00A774"/>
<path d="M688.795 397.126L608.812 478.588H494.938V363.974L577.262 280.786V397.126H688.795Z" fill="#00A774"/>
<path d="M429.679 507.659C429.408 508.284 429.186 508.834 429.186 508.909C429.186 508.959 428.915 509.609 428.569 510.358C428.224 511.108 427.953 511.883 427.953 512.083C427.953 512.308 427.164 514.283 426.227 516.533C425.266 518.758 424.28 521.258 424.009 522.083C423.738 522.908 422.801 525.283 421.938 527.357C421.075 529.432 420.286 531.432 420.212 531.832C420.114 532.207 419.793 533.107 419.473 533.832C418.364 536.332 416.367 541.207 416.367 541.432C416.367 541.682 415.455 544.057 414.641 545.881C413.581 548.331 412.447 551.181 412.324 551.831C412.225 552.206 411.831 553.256 411.436 554.156C411.017 555.031 410.697 555.831 410.697 555.881C410.697 555.931 410.376 556.731 409.957 557.631C409.563 558.531 408.996 559.931 408.725 560.731C408.158 562.43 407.418 564.38 406.777 565.855C405.569 568.63 404.534 571.18 404.534 571.455C404.534 571.73 403.252 574.93 401.946 577.88C401.65 578.554 401.255 579.579 401.083 580.129C400.762 581.104 398.248 587.379 397.36 589.429C397.089 590.004 396.892 590.629 396.892 590.829C396.892 591.029 396.029 593.254 394.945 595.778C393.884 598.303 392.948 600.703 392.849 601.078C392.751 601.453 391.863 603.728 390.852 606.128C389.842 608.528 389.003 610.678 389.003 610.878C389.003 611.078 388.782 611.728 388.51 612.328C387.401 614.777 385.059 620.577 385.059 620.877C385.059 621.177 382.742 626.952 381.731 629.177C381.534 629.602 381.361 630.126 381.361 630.326C381.361 630.526 380.499 632.751 379.414 635.276C378.354 637.801 377.417 640.201 377.319 640.576C377.22 640.951 376.333 643.226 375.322 645.626C374.311 648.025 373.473 650.175 373.473 650.375C373.473 650.575 373.202 651.325 372.881 652.05C371.723 654.675 369.8 659.4 369.307 660.875C369.036 661.7 368.666 662.775 368.469 663.25C368.247 663.725 368.05 664.224 368 664.374C367.951 664.549 374.829 664.624 388.313 664.649C409.662 664.649 408.774 664.699 409.095 663.75C409.119 663.675 409.267 663.275 409.44 662.875C409.612 662.45 409.785 662 409.809 661.875C409.859 661.725 410.031 661.275 410.204 660.875C410.376 660.45 410.549 660.075 410.574 660C410.598 659.925 410.746 659.525 410.919 659.125C411.091 658.7 411.264 658.25 411.289 658.125C411.338 657.975 411.51 657.525 411.683 657.125C411.856 656.7 412.028 656.325 412.053 656.25C412.077 656.175 412.176 655.95 412.25 655.75C412.349 655.55 412.447 655.1 412.496 654.75C412.595 654.075 412.718 653.725 413.433 652.075C413.704 651.5 413.902 650.9 413.902 650.75C413.902 650.625 414 650.3 414.148 650.05C414.641 649.15 415.381 647.25 415.381 646.9C415.381 646.701 415.479 646.476 415.578 646.401C415.701 646.326 415.997 645.501 416.244 644.576C416.49 643.651 416.835 642.601 417.032 642.251C417.205 641.901 417.353 641.501 417.353 641.326C417.353 641.176 417.501 640.726 417.698 640.326C418.265 639.201 418.832 637.826 418.832 637.551C418.832 637.401 419.005 636.976 419.202 636.576C419.399 636.201 419.744 635.426 419.966 634.851C420.188 634.301 420.484 633.826 420.656 633.801C420.804 633.776 436.359 633.676 455.218 633.601L489.484 633.426L489.903 634.526C490.125 635.151 490.322 635.776 490.322 635.951C490.322 636.126 490.42 636.451 490.568 636.701C491.135 637.701 492.047 639.876 492.047 640.176C492.047 640.351 492.171 640.501 492.294 640.501C492.442 640.501 492.54 640.651 492.54 640.801C492.54 641.326 493.847 644.501 494.069 644.501C494.167 644.501 494.266 644.801 494.266 645.151C494.266 645.826 495.227 648.325 495.548 648.45C495.647 648.5 495.745 648.725 495.745 648.975C495.745 649.2 495.844 649.5 495.942 649.625C496.041 649.775 496.337 650.5 496.608 651.25C496.854 652 497.249 652.9 497.495 653.25C497.717 653.6 497.988 654.3 498.062 654.8C498.136 655.3 498.58 656.525 499.048 657.55C499.517 658.55 500.133 659.925 500.429 660.625C500.725 661.3 501.119 662.2 501.292 662.625C501.464 663.025 501.686 663.625 501.785 663.924L501.933 664.499L514.678 664.549C528.902 664.574 530.257 664.574 538.195 664.524L543.791 664.499L543.446 663.799C542.657 662.3 541.104 658.8 541.104 658.55C541.104 658.275 540.439 656.775 538.245 652.075C537.653 650.8 537.16 649.625 537.16 649.475C537.16 649.175 536.864 648.525 534.892 644.276C534.35 643.126 533.659 641.476 533.339 640.651C532.723 638.976 530.553 634.176 529.764 632.701C529.493 632.201 529.271 631.601 529.271 631.376C529.271 631.151 528.852 630.051 528.31 628.927C525.919 623.777 525.327 622.452 525.327 622.102C525.327 621.902 525.105 621.302 524.834 620.802C523.996 619.227 521.876 614.552 521.284 612.902C520.791 611.578 519.509 608.728 518.03 605.653C517.833 605.253 517.685 604.778 517.685 604.603C517.685 604.303 516.847 602.453 514.456 597.353C514.061 596.528 513.741 595.703 513.741 595.528C513.741 595.229 513.248 594.129 511.005 589.329C510.339 587.904 509.797 586.629 509.797 586.454C509.797 586.179 509.501 585.529 507.529 581.279C506.986 580.129 506.271 578.479 505.976 577.63C505.409 576.105 504.003 572.955 502.623 570.155C502.229 569.33 501.908 568.53 501.908 568.33C501.908 568.13 501.489 567.055 500.947 565.93C498.876 561.48 498.21 559.981 498.21 559.706C498.21 559.556 497.89 558.731 497.495 557.906C495.08 552.756 494.266 550.956 494.266 550.631C494.266 550.456 494.093 549.981 493.896 549.581C493.058 547.981 490.839 543.007 490.47 541.932C490.125 540.907 489.262 538.932 487.092 534.357C486.698 533.532 486.378 532.707 486.378 532.532C486.378 532.232 485.884 531.132 483.641 526.333C482.976 524.908 482.433 523.608 482.433 523.408C482.433 523.208 482.162 522.508 481.842 521.833C480.436 518.933 479.229 516.233 478.662 514.733C478.316 513.858 477.577 512.108 477.01 510.883C476.443 509.634 475.753 508.159 475.506 507.559L475.062 506.509H452.605H430.147L429.679 507.659ZM453.443 545.681C453.517 545.931 453.689 546.306 453.813 546.506C453.936 546.706 454.33 547.656 454.7 548.631C455.07 549.581 455.464 550.581 455.588 550.806C455.711 551.056 455.809 551.356 455.809 551.481C455.809 551.631 456.253 552.681 456.771 553.856C457.313 555.006 457.782 556.181 457.831 556.431C457.88 556.681 457.979 556.931 458.053 557.006C458.349 557.281 459.261 559.431 459.261 559.906C459.261 560.156 459.532 560.881 459.877 561.48C460.222 562.055 460.493 562.655 460.493 562.78C460.493 563.005 461.208 564.63 462.49 567.355C462.761 567.905 462.958 568.53 462.958 568.78C462.958 569.005 463.18 569.63 463.427 570.18C463.698 570.705 464.117 571.655 464.364 572.305C464.61 572.98 464.881 573.505 465.005 573.505C465.103 573.505 465.177 573.705 465.177 573.93C465.177 574.18 465.473 574.93 465.793 575.63C466.138 576.305 466.41 577.03 466.41 577.18C466.41 577.355 466.533 577.505 466.656 577.505C466.804 577.505 466.903 577.78 466.903 578.13C466.903 578.479 467.125 579.254 467.396 579.804C467.667 580.379 467.889 581.054 467.889 581.304C467.889 581.554 468.012 581.754 468.135 581.754C468.283 581.754 468.382 581.854 468.382 582.004C468.382 582.129 468.653 582.829 468.973 583.554C470.206 586.329 470.551 587.154 470.822 588.129C470.995 588.679 471.389 589.679 471.685 590.379C472.006 591.054 472.425 592.029 472.647 592.504C472.844 592.979 473.263 593.929 473.559 594.629C473.854 595.304 474.274 596.228 474.446 596.678C474.643 597.103 474.791 597.628 474.791 597.853C474.791 598.078 475.161 599.078 475.605 600.078C476.073 601.053 476.788 602.753 477.207 603.828L477.971 605.778L454.355 605.753L430.714 605.703L431.306 604.178C431.626 603.353 431.897 602.428 431.897 602.128C431.897 601.828 431.971 601.503 432.095 601.403C432.193 601.303 432.267 601.128 432.292 601.053C432.292 600.953 432.44 600.553 432.588 600.178C432.76 599.778 432.883 599.328 432.883 599.153C432.883 599.003 432.982 598.753 433.105 598.603C433.229 598.478 433.722 597.303 434.215 596.003C434.708 594.704 435.225 593.429 435.349 593.204C435.472 592.954 435.694 592.254 435.842 591.604C435.99 590.954 436.31 589.979 436.557 589.404C436.803 588.854 437.197 587.804 437.444 587.129C437.69 586.429 437.962 585.754 438.06 585.629C438.282 585.304 439.687 581.329 439.934 580.379C440.18 579.354 440.082 579.654 441.24 576.93C441.511 576.28 441.758 575.655 441.783 575.555C441.807 575.455 441.955 575.03 442.103 574.63C442.226 574.205 442.325 573.805 442.3 573.68C442.276 573.58 442.35 573.505 442.448 573.505C442.572 573.505 442.867 572.855 443.114 572.055C443.36 571.28 444.42 568.355 445.48 565.58C446.565 562.805 447.428 560.381 447.428 560.181C447.428 559.831 447.872 558.631 448.562 557.081C448.759 556.656 448.907 556.181 448.907 556.031C448.907 555.881 449.006 555.556 449.154 555.306C449.474 554.706 450.435 552.456 450.485 552.131C450.534 552.006 450.731 551.456 450.953 550.906C451.175 550.381 451.372 549.806 451.372 549.656C451.397 549.506 451.594 548.806 451.841 548.131C452.925 545.156 453.147 544.831 453.443 545.681Z" fill="white"/>
<path d="M561.37 585.554L561.444 664.625L580.672 664.7L599.925 664.75L599.974 615.827C599.999 588.929 600.097 566.855 600.147 566.78C600.27 566.655 602.168 568.73 604.263 571.28C604.978 572.155 605.94 573.18 606.384 573.58C606.803 573.98 607.172 574.43 607.172 574.605C607.172 574.755 608.011 575.78 609.046 576.855C610.057 577.955 611.043 579.13 611.24 579.48C611.437 579.83 612.374 580.904 613.311 581.854C614.272 582.829 615.061 583.704 615.061 583.804C615.061 584.054 615.184 584.204 617.354 586.554C618.266 587.529 619.005 588.429 619.005 588.529C619.005 588.629 619.548 589.304 620.238 590.004C620.903 590.704 621.766 591.704 622.136 592.204C622.506 592.704 623.369 593.754 624.059 594.529C624.724 595.279 625.636 596.329 626.031 596.854C626.45 597.379 627.658 598.828 628.743 600.103C629.827 601.378 631.084 602.878 631.504 603.428C631.947 603.978 632.613 604.753 633.007 605.153C633.402 605.553 634.043 606.328 634.412 606.878C634.807 607.428 635.472 608.203 635.892 608.628C636.311 609.028 637.124 609.978 637.666 610.678C638.233 611.403 639.441 612.853 640.354 613.878L642.005 615.752H644.988H647.971L652.162 610.703C654.479 607.928 656.624 605.428 656.919 605.128C657.24 604.853 657.659 604.353 657.832 604.003C658.029 603.653 658.842 602.653 659.68 601.753C660.519 600.853 661.455 599.728 661.776 599.253C662.096 598.778 663.033 597.653 663.871 596.754C664.709 595.854 665.547 594.829 665.745 594.454C665.917 594.079 666.287 593.629 666.534 593.454C666.928 593.154 670.798 588.629 673.707 585.029C674.447 584.129 675.63 582.729 676.37 581.954C677.084 581.179 677.676 580.454 677.676 580.329C677.676 580.229 678.342 579.405 679.155 578.53C679.944 577.655 681.053 576.38 681.596 575.655C682.138 574.955 683.149 573.83 683.814 573.13C684.505 572.455 685.072 571.78 685.072 571.605C685.072 571.455 685.614 570.78 686.28 570.105C686.945 569.43 687.882 568.38 688.375 567.805C688.868 567.205 689.262 566.755 689.287 566.805C689.287 566.83 689.361 588.879 689.435 615.752C689.509 642.626 689.607 664.675 689.657 664.725C689.879 664.95 727.596 664.875 727.916 664.675C728.138 664.475 728.212 648.351 728.212 585.479V506.509H711.276H694.316L693.798 507.084C693.527 507.384 693.157 507.884 692.985 508.209C692.812 508.534 691.851 509.659 690.84 510.709C689.829 511.759 689.016 512.733 689.016 512.883C689.016 513.008 688.128 514.083 687.044 515.258C685.959 516.408 685.072 517.508 685.072 517.658C685.072 517.833 684.8 518.183 684.48 518.433C684.135 518.683 682.804 520.183 681.497 521.758C680.166 523.333 678.687 525.108 678.194 525.658C677.701 526.233 676.937 527.158 676.468 527.758C676 528.333 675.137 529.282 674.545 529.882C673.978 530.482 673.485 531.057 673.485 531.182C673.485 531.407 672.647 532.432 670.749 534.432C670.083 535.132 669.541 535.807 669.541 535.932C669.541 536.057 668.9 536.832 668.111 537.657C667.298 538.457 666.287 539.632 665.819 540.257C665.35 540.882 664.34 542.057 663.575 542.857C662.811 543.682 662.047 544.582 661.899 544.907C661.726 545.207 660.765 546.331 659.779 547.431C658.768 548.506 657.955 549.456 657.955 549.556C657.955 549.631 657.659 550.031 657.289 550.431C656.377 551.381 655.12 552.831 653.764 554.506C651.792 556.956 651.669 557.081 651.077 557.606C650.757 557.906 650.239 558.506 649.943 558.956C649.623 559.431 648.71 560.556 647.872 561.456C647.059 562.381 646.023 563.555 645.58 564.055L644.766 565.005L640.6 560.006C638.307 557.256 635.99 554.606 635.472 554.106C634.955 553.631 634.536 553.081 634.536 552.931C634.536 552.756 633.648 551.681 632.564 550.556C631.479 549.406 630.591 548.381 630.591 548.256C630.591 548.156 629.852 547.281 628.964 546.356C628.077 545.407 627.091 544.232 626.77 543.757C626.45 543.282 625.415 542.032 624.453 541.007C623.492 539.982 622.703 539.007 622.703 538.832C622.703 538.657 622.506 538.407 622.284 538.282C622.037 538.157 621.224 537.307 620.484 536.382C619.745 535.457 618.907 534.482 618.635 534.182C618.364 533.882 617.526 532.907 616.787 532.007C616.047 531.107 615.184 530.107 614.913 529.757C614.617 529.407 613.878 528.533 613.261 527.783C612.645 527.058 611.905 526.283 611.634 526.083C611.339 525.883 611.117 525.583 611.117 525.408C611.117 525.258 610.229 524.158 609.145 523.008C608.06 521.833 607.172 520.758 607.172 520.633C607.172 520.483 606.285 519.458 605.2 518.308C604.116 517.158 603.228 516.133 603.228 515.983C603.228 515.858 602.686 515.233 602.045 514.558C601.379 513.908 600.393 512.758 599.826 512.008C599.259 511.259 598.076 509.834 597.213 508.884C596.326 507.909 595.586 506.984 595.586 506.809C595.586 506.584 591.987 506.509 578.453 506.509H561.32L561.37 585.554Z" fill="white"/>
<path d="M757.45 528.058C757.351 539.932 757.277 575.355 757.228 606.803C757.203 639.151 757.08 664 756.957 664C756.833 664 756.883 664.15 757.031 664.325C757.252 664.625 763.391 664.65 793.466 664.6C813.384 664.55 830.098 664.475 830.64 664.4C831.183 664.35 832.736 664.275 834.092 664.25C835.447 664.225 837.617 664.025 838.899 663.85C840.181 663.65 841.857 663.425 842.596 663.35C843.336 663.25 844.174 663.1 844.445 663C844.716 662.925 845.283 662.85 845.678 662.85C846.097 662.875 846.467 662.8 846.541 662.7C846.615 662.625 847.157 662.475 847.773 662.375C848.365 662.275 848.957 662.15 849.08 662.075C849.203 662 849.647 661.925 850.066 661.875C850.51 661.85 851.027 661.75 851.225 661.675C851.841 661.45 853.345 661 853.838 660.875C857.757 660.025 858.94 659.725 859.705 659.4C860.222 659.175 860.691 659.025 860.789 659.05C860.888 659.075 861.208 658.975 861.529 658.8C861.825 658.625 862.195 658.55 862.318 658.625C862.466 658.7 862.564 658.675 862.564 658.55C862.564 658.4 862.835 658.225 863.181 658.15C863.526 658.05 864.388 657.725 865.103 657.375C865.794 657.05 866.829 656.65 867.371 656.525C867.914 656.375 869.368 655.725 870.576 655.1C871.809 654.475 873.805 653.45 875.013 652.825C876.246 652.201 877.281 651.626 877.355 651.526C877.429 651.451 877.873 651.151 878.341 650.876C878.81 650.626 879.697 650.026 880.289 649.576C880.88 649.101 881.719 648.576 882.138 648.401C882.557 648.201 883.346 647.626 883.888 647.126C884.43 646.626 885.342 645.851 885.934 645.426C886.871 644.726 887.734 643.926 890.938 640.826C892.491 639.351 895.4 636.001 896.115 634.927C896.485 634.352 897.175 633.427 897.668 632.902C898.137 632.352 898.876 631.227 899.32 630.402C899.739 629.552 900.183 628.827 900.257 628.752C900.552 628.552 903.24 623.802 903.24 623.502C903.24 623.352 903.634 622.352 904.127 621.302C904.62 620.252 905.113 619.152 905.236 618.877C905.335 618.603 905.705 617.728 906.074 616.928C906.592 615.753 907.356 613.103 907.8 611.003C907.849 610.803 907.997 610.303 908.145 609.903C908.86 608.053 910.339 600.629 910.808 596.629C911.054 594.379 911.079 577.905 910.808 575.755C910.512 573.205 909.205 566.431 908.54 564.056C908.219 562.856 907.775 561.206 907.554 560.381C906.617 556.906 906.124 555.531 904.127 551.131C903.683 550.157 903.141 548.932 902.894 548.382C902.155 546.707 898.26 540.207 897.175 538.857C896.608 538.157 895.844 537.107 895.474 536.507C895.129 535.932 894.217 534.832 893.453 534.057C892.713 533.258 891.924 532.358 891.703 532.008C891.481 531.658 890.914 531.033 890.47 530.633C890.002 530.208 888.818 529.058 887.832 528.058C886.871 527.083 885.959 526.258 885.835 526.258C885.712 526.258 884.948 525.633 884.134 524.883C883.321 524.133 882.581 523.508 882.507 523.508C882.434 523.508 882.039 523.233 881.645 522.883C881.25 522.533 880.807 522.258 880.659 522.258C880.486 522.258 880.042 521.958 879.648 521.558C879.229 521.183 878.588 520.708 878.193 520.508C877.799 520.308 877.429 520.083 877.355 520.008C876.961 519.608 875.531 518.758 874.027 518.033C873.091 517.558 872.252 517.083 872.178 516.983C871.636 516.159 858.152 510.759 855.785 510.434C855.243 510.359 853.813 510.009 852.58 509.659C851.372 509.334 850.017 509.009 849.573 508.934C849.154 508.859 848.71 508.759 848.587 508.684C848.488 508.609 847.847 508.484 847.182 508.409C846.516 508.309 845.9 508.184 845.826 508.134C845.678 508.059 845.012 507.959 842.72 507.609C842.054 507.534 841.29 507.409 841.019 507.359C840.772 507.309 839.934 507.209 839.17 507.134C838.406 507.034 837.518 506.909 837.173 506.809C836.828 506.734 818.783 506.609 797.089 506.584L757.598 506.484L757.45 528.058ZM829.778 536.107C830.246 536.207 831.479 536.432 832.489 536.632C833.5 536.832 834.782 537.082 835.324 537.157C835.867 537.232 836.507 537.407 836.754 537.532C836.976 537.657 837.173 537.707 837.173 537.657C837.173 537.582 837.469 537.632 837.814 537.782C838.184 537.907 838.874 538.082 839.367 538.157C840.797 538.382 844.199 539.707 847.65 541.407C851.323 543.207 851.939 543.582 853.098 544.657C853.566 545.082 854.257 545.582 854.626 545.782C854.996 545.982 856.13 546.982 857.166 548.032C858.201 549.082 859.162 549.982 859.286 550.032C859.409 550.082 860.001 550.806 860.641 551.631C861.258 552.456 861.973 553.356 862.244 553.631C863.107 554.581 864.29 556.356 864.29 556.731C864.29 556.931 864.462 557.281 864.66 557.506C865.005 557.881 867.026 561.931 867.79 563.756C868.136 564.556 868.555 566.006 868.85 567.456C868.924 567.78 869.146 568.505 869.319 569.08C869.787 570.48 870.404 573.28 870.946 576.505C871.34 578.755 871.39 580.18 871.316 586.254C871.266 590.179 871.192 593.604 871.118 593.879C871.069 594.154 870.946 594.879 870.847 595.504C869.91 601.054 867.889 607.453 865.966 611.128C865.227 612.503 864.388 614.153 864.093 614.778C863.772 615.428 863.279 616.228 862.983 616.553C861.997 617.653 860.691 619.377 860.222 620.177C859.951 620.627 859.655 621.002 859.507 621.002C859.384 621.002 858.497 621.827 857.535 622.852C856.574 623.852 855.613 624.777 855.391 624.902C855.021 625.102 854.306 625.677 852.506 627.202C852.137 627.502 851.126 628.127 850.238 628.577C849.351 629.027 847.749 629.877 846.664 630.427C843.854 631.877 843.139 632.177 841.487 632.652C838.529 633.452 838.282 633.527 837.913 633.602C837.715 633.652 836.877 633.877 836.064 634.102C835.25 634.302 834.215 634.552 833.796 634.627C832.021 634.927 831.577 634.977 830.394 635.152C829.728 635.227 828.989 635.352 828.792 635.377C828.57 635.427 821.149 635.527 812.275 635.627L796.128 635.826L796.202 585.754L796.251 535.707L812.595 535.832C821.569 535.907 829.309 536.032 829.778 536.107Z" fill="white"/>
</svg>
