<svg xmlns="http://www.w3.org/2000/svg" width="1335" height="340" fill="none" xmlns:v="https://vecta.io/nano"><path d="M331.498 20.822c0-2.26.565-4.061 1.695-5.4s2.748-2.01 4.854-2.01c1.75 0 3.199.615 4.348 1.846 1.157 1.221 1.736 3.176 1.736 5.865 0 .41-.187.615-.561.615h-9.529c.155 1.759.629 2.985 1.422 3.678.793.684 1.691 1.025 2.693 1.025 1.058 0 1.869-.178 2.434-.533s.98-.706 1.244-1.053c.292-.383.574-.456.848-.219l.806.697c.21.182.21.433 0 .752-.173.264-.67.688-1.49 1.271-.811.583-2.092.875-3.842.875-2.278 0-3.96-.67-5.045-2.01-1.075-1.34-1.613-3.14-1.613-5.4zm2.488-.861h7.725c-.037-1.276-.365-2.392-.984-3.35-.62-.966-1.532-1.449-2.735-1.449-1.057 0-1.955.355-2.693 1.066-.738.702-1.176 1.946-1.313 3.732zm12.743 6.699c-.283-.264-.342-.511-.178-.738l.615-.861c.201-.273.497-.26.889.041.537.41 1.134.738 1.791.984.665.246 1.422.369 2.269.369.502 0 .948-.059 1.34-.178.392-.128.734-.36 1.025-.697.301-.337.452-.788.452-1.354a2.05 2.05 0 0 0-.219-.93c-.137-.292-.356-.524-.656-.697a4.42 4.42 0 0 0-.862-.424c-.465-.173-.929-.314-1.394-.424l-1.805-.533a5.93 5.93 0 0 1-1.422-.656c-.446-.292-.838-.684-1.176-1.176-.328-.492-.492-1.171-.492-2.037 0-.884.269-1.645.807-2.283a4 4 0 0 1 2.023-1.299c.812-.237 1.6-.355 2.366-.355 1.13 0 2.037.132 2.72.396.693.255 1.29.56 1.791.916.292.21.333.451.123.725l-.615.82c-.191.264-.488.255-.889-.027-.337-.237-.815-.46-1.435-.67s-1.162-.315-1.627-.315c-.574 0-1.066.064-1.477.191a2.05 2.05 0 0 0-.998.656c-.255.31-.383.674-.383 1.094 0 .319.051.606.151.861.1.246.287.474.56.684s.657.378 1.149.506l2.092.547c.638.164 1.212.365 1.722.601.666.31 1.176.652 1.532 1.025.364.374.615.779.752 1.217a4.73 4.73 0 0 1 .205 1.436c0 .975-.292 1.8-.875 2.475-.575.675-1.217 1.126-1.928 1.354-.711.219-1.568.328-2.57.328-1.359 0-2.525-.191-3.5-.574-.967-.392-1.591-.725-1.873-.998zm12.769-11.211c-.41 0-.615-.159-.615-.478v-.848c0-.319.205-.478.615-.478h1.613v-1.23c0-.182.046-.355.137-.52l.957-1.736c.173-.319.315-.479.424-.479h.478c.274 0 .411.159.411.479v3.486h2.912c.41 0 .615.159.615.478v.848c0 .319-.205.478-.615.478h-2.912v8.709c0 .957.141 1.581.423 1.873a1.44 1.44 0 0 0 1.039.424c.31 0 .68-.091 1.108-.274.437-.182.738-.337.902-.465s.292-.087.383.123l.451 1.053c.073.182.018.328-.164.438-.355.21-.875.415-1.558.615-.684.191-1.368.287-2.051.287-.948 0-1.677-.342-2.188-1.025-.501-.684-.752-1.65-.752-2.898v-8.859h-1.613zM371.174 28c-.41 0-.615-.205-.615-.615V14.26c0-.41.205-.615.615-.615h1.176c.41 0 .615.205.615.615v13.125c0 .41-.205.615-.615.615h-1.176zm0-16.953c-.41 0-.615-.205-.615-.615V9.256c0-.41.205-.615.615-.615h1.176c.41 0 .615.205.615.615v1.176c0 .41-.205.615-.615.615h-1.176zM377.463 28c-.41 0-.615-.205-.615-.615V14.26c0-.41.205-.615.615-.615h1.148c.41 0 .616.205.616.615v1.094h.054c.593-.656 1.235-1.144 1.928-1.463s1.358-.478 1.996-.478c1.176 0 2.078.296 2.707.889.638.583 1.048 1.171 1.231 1.764h.054a6.82 6.82 0 0 1 1.901-1.887c.765-.51 1.581-.766 2.447-.766 1.449 0 2.543.469 3.281 1.408.738.93 1.108 2.206 1.108 3.828v8.736c0 .41-.205.615-.616.615h-1.175c-.411 0-.616-.205-.616-.615v-7.943c0-1.787-.223-2.939-.67-3.459-.446-.529-1.134-.793-2.064-.793-.911 0-1.673.392-2.283 1.176-.611.775-.916 1.946-.916 3.514v7.506c0 .41-.205.615-.615.615h-1.176c-.41 0-.615-.205-.615-.615v-7.943c0-1.787-.224-2.939-.67-3.459-.447-.529-1.135-.793-2.065-.793-.911 0-1.672.355-2.283 1.066-.611.702-.916 1.91-.916 3.623v7.506c0 .41-.205.615-.615.615h-1.176zm21.547-3.828c0-1.622.756-2.812 2.269-3.568 1.522-.756 3.792-1.199 6.809-1.326v-.93c0-.857-.196-1.595-.588-2.215-.383-.629-1.148-.943-2.297-.943-.729 0-1.312.073-1.75.219a4.86 4.86 0 0 0-1.203.561c-.355.228-.697.524-1.025.889-.246.274-.479.287-.698.041l-.711-.82c-.2-.228-.132-.501.205-.82.484-.456.953-.797 1.409-1.025s1.021-.419 1.695-.574c.684-.164 1.376-.246 2.078-.246 1.905 0 3.263.492 4.074 1.477.812.975 1.217 2.315 1.217 4.02v8.477c0 .41-.205.615-.615.615h-1.231c-.355 0-.533-.205-.533-.615v-.67h-.027c-.72.565-1.427.962-2.119 1.189-.684.219-1.449.328-2.297.328-1.495 0-2.648-.355-3.459-1.066-.802-.72-1.203-1.718-1.203-2.994zm2.488.055c0 .565.119 1.021.356 1.367.236.337.565.556.984.656.419.091.857.137 1.312.137.702 0 1.368-.068 1.996-.205s1.277-.497 1.942-1.08v-4.033c-1.841.137-3.154.305-3.938.506-.783.191-1.421.529-1.914 1.012-.492.474-.738 1.021-.738 1.641zm12.195-8.777c-.41 0-.615-.159-.615-.478v-.848c0-.319.205-.478.615-.478h1.614v-1.23c0-.182.045-.355.136-.52l.957-1.736c.174-.319.315-.479.424-.479h.479c.273 0 .41.159.41.479v3.486h2.912c.41 0 .615.159.615.478v.848c0 .319-.205.478-.615.478h-2.912v8.709c0 .957.141 1.581.424 1.873a1.44 1.44 0 0 0 1.039.424c.31 0 .679-.091 1.107-.274.438-.182.738-.337.903-.465s.291-.087.382.123l.452 1.053c.072.182.018.328-.165.438-.355.21-.875.415-1.558.615-.684.191-1.367.287-2.051.287-.948 0-1.677-.342-2.187-1.025-.502-.684-.752-1.65-.752-2.898v-8.859h-1.614zm10.282 5.373c0-2.26.565-4.061 1.695-5.4s2.748-2.01 4.853-2.01c1.75 0 3.2.615 4.348 1.846 1.158 1.221 1.736 3.176 1.736 5.865 0 .41-.186.615-.56.615h-9.529c.155 1.759.628 2.985 1.421 3.678.793.684 1.691 1.025 2.694 1.025 1.057 0 1.868-.178 2.433-.533s.98-.706 1.245-1.053c.291-.383.574-.456.847-.219l.807.697c.209.182.209.433 0 .752-.173.264-.67.688-1.49 1.271-.812.583-2.092.875-3.842.875-2.279 0-3.96-.67-5.045-2.01-1.076-1.34-1.613-3.14-1.613-5.4zm2.488-.861h7.725c-.037-1.276-.365-2.392-.985-3.35-.62-.966-1.531-1.449-2.734-1.449-1.058 0-1.955.355-2.694 1.066-.738.702-1.175 1.946-1.312 3.732zm21.848.861c0-2.142.565-3.91 1.695-5.305 1.139-1.404 2.803-2.105 4.99-2.105s3.846.702 4.977 2.105c1.139 1.394 1.709 3.163 1.709 5.305s-.57 3.915-1.709 5.318c-1.131 1.395-2.789 2.092-4.977 2.092s-3.851-.697-4.99-2.092c-1.13-1.404-1.695-3.176-1.695-5.318zm2.543 0c0 1.914.378 3.331 1.134 4.252s1.759 1.381 3.008 1.381 2.251-.46 3.008-1.381 1.135-2.338 1.135-4.252-.379-3.331-1.135-4.252-1.759-1.381-3.008-1.381-2.251.46-3.008 1.381-1.134 2.338-1.134 4.252zm13.22-5.373c-.41 0-.615-.159-.615-.478v-.848c0-.319.205-.478.615-.478h1.463v-2.037c0-1.522.41-2.57 1.231-3.145.82-.583 1.759-.875 2.816-.875.629 0 1.135.032 1.518.096.391.064.852.205 1.38.424.201.082.26.228.178.438l-.424 1.08c-.073.182-.232.219-.478.109a4.39 4.39 0 0 0-.738-.246 3.48 3.48 0 0 0-.944-.123c-.756 0-1.303.182-1.64.547-.329.365-.493 1.062-.493 2.092v1.641h2.502c.41 0 .616.159.616.478v.848c0 .319-.206.478-.616.478h-2.502v11.936c0 .41-.205.615-.615.615h-1.176c-.41 0-.615-.205-.615-.615V15.449h-1.463zm18.17 5.373c0-2.26.565-4.061 1.695-5.4s2.749-2.01 4.854-2.01c1.75 0 3.199.615 4.348 1.846 1.157 1.221 1.736 3.176 1.736 5.865 0 .41-.187.615-.561.615h-9.529c.155 1.759.629 2.985 1.422 3.678.793.684 1.691 1.025 2.693 1.025 1.058 0 1.869-.178 2.434-.533s.98-.706 1.244-1.053c.292-.383.574-.456.848-.219l.806.697c.21.182.21.433 0 .752-.173.264-.67.688-1.49 1.271-.811.583-2.092.875-3.842.875-2.278 0-3.96-.67-5.045-2.01-1.075-1.34-1.613-3.14-1.613-5.4zm2.488-.861h7.725c-.036-1.276-.365-2.392-.984-3.35-.62-.966-1.532-1.449-2.735-1.449-1.057 0-1.955.355-2.693 1.066-.738.702-1.176 1.946-1.313 3.732zM498.65 28c-.41 0-.615-.205-.615-.615V14.26c0-.41.205-.615.615-.615h1.149c.41 0 .615.205.615.615v1.094h.055c.592-.656 1.23-1.144 1.914-1.463s1.536-.478 2.556-.478c1.659 0 2.849.469 3.569 1.408.729.93 1.094 2.206 1.094 3.828v8.736c0 .41-.206.615-.616.615h-1.175c-.411 0-.616-.205-.616-.615v-8.08c0-1.787-.296-2.917-.888-3.391-.593-.483-1.345-.725-2.256-.725-1.185 0-2.083.355-2.694 1.066-.61.702-.916 1.91-.916 3.623v7.506c0 .41-.205.615-.615.615h-1.176zm14.028-7.178c0-2.26.565-4.061 1.695-5.4s2.748-2.01 4.854-2.01c1.75 0 3.199.615 4.347 1.846 1.158 1.221 1.737 3.176 1.737 5.865 0 .41-.187.615-.561.615h-9.529c.155 1.759.629 2.985 1.422 3.678.793.684 1.69 1.025 2.693 1.025 1.057 0 1.868-.178 2.434-.533s.979-.706 1.244-1.053c.291-.383.574-.456.847-.219l.807.697c.21.182.21.433 0 .752-.173.264-.67.688-1.49 1.271-.811.583-2.092.875-3.842.875-2.279 0-3.96-.67-5.045-2.01-1.076-1.34-1.613-3.14-1.613-5.4zm2.488-.861h7.725c-.037-1.276-.365-2.392-.985-3.35-.62-.966-1.531-1.449-2.734-1.449-1.057 0-1.955.355-2.693 1.066-.739.702-1.176 1.946-1.313 3.732zM529.084 28c-.41 0-.615-.205-.615-.615V14.26c0-.41.205-.615.615-.615h1.148c.411 0 .616.205.616.615V15.9h.054c.438-.82.953-1.44 1.545-1.859s1.331-.629 2.215-.629c.583 0 .994.05 1.231.15.209.082.287.219.232.41l-.314 1.121c-.046.164-.165.228-.356.191a4.61 4.61 0 0 0-.902-.096c-1.067 0-1.946.483-2.639 1.449-.693.957-1.039 2.265-1.039 3.924v6.822c0 .41-.205.615-.615.615h-1.176zm8.477-7.178c0-1.96.474-3.682 1.421-5.168.948-1.495 2.334-2.242 4.157-2.242 1.048 0 1.886.173 2.515.519s1.194.82 1.696 1.422h.027l.082-1.094c.027-.41.205-.615.533-.615h1.149c.41 0 .615.205.615.615v13.85c0 1.75-.406 3.117-1.217 4.102-.802.993-2.393 1.49-4.771 1.49-1.595 0-2.789-.182-3.582-.547-.793-.355-1.359-.734-1.696-1.135-.246-.301-.26-.556-.041-.766l.752-.738c.21-.2.501-.137.875.191.483.438.948.747 1.395.93.446.191 1.217.287 2.31.287 1.24 0 2.142-.264 2.707-.793.574-.529.862-1.622.862-3.281v-.82l.027-.834h-.027c-.474.629-1.035 1.126-1.682 1.49-.638.365-1.481.547-2.529.547-1.823 0-3.209-.743-4.157-2.228-.947-1.495-1.421-3.222-1.421-5.182zm2.543 0c0 1.677.287 3.035.861 4.074.583 1.039 1.568 1.559 2.953 1.559.984 0 1.8-.333 2.447-.998.656-.674.985-1.695.985-3.062V19.25c0-1.367-.329-2.384-.985-3.049-.647-.675-1.463-1.012-2.447-1.012-1.385 0-2.37.519-2.953 1.559-.574 1.039-.861 2.397-.861 4.074zm12.55-6.508c-.164-.447-.041-.67.369-.67h1.491c.3 0 .506.178.615.533L558 23.201l.369 1.162c.173.52.296.984.369 1.395h.028c.073-.41.159-.779.259-1.107l.479-1.449 2.898-9.023c.119-.355.324-.533.616-.533h1.49c.41 0 .533.223.369.67l-4.607 12.852c-.866 2.415-1.641 4.106-2.325 5.072-.683.975-1.704 1.463-3.062 1.463-.711 0-1.276-.105-1.695-.315-.192-.091-.256-.232-.192-.424l.356-1.107c.063-.191.186-.246.369-.164.373.155.733.232 1.08.232.638 0 1.157-.346 1.558-1.039.401-.684.72-1.372.957-2.064l.274-.807-4.936-13.699zM577.127 28c-.41 0-.615-.205-.615-.615V14.26c0-.41.205-.615.615-.615h1.148c.411 0 .616.205.616.615V15.9h.054c.438-.82.953-1.44 1.545-1.859s1.331-.629 2.215-.629c.583 0 .994.05 1.231.15.209.082.287.219.232.41l-.314 1.121c-.046.164-.165.228-.356.191a4.61 4.61 0 0 0-.902-.096c-1.067 0-1.946.483-2.639 1.449-.693.957-1.039 2.265-1.039 3.924v6.822c0 .41-.205.615-.615.615h-1.176zm8.477-7.178c0-2.26.565-4.061 1.695-5.4s2.748-2.01 4.853-2.01c1.75 0 3.2.615 4.348 1.846 1.158 1.221 1.736 3.176 1.736 5.865 0 .41-.187.615-.56.615h-9.53c.155 1.759.629 2.985 1.422 3.678.793.684 1.691 1.025 2.694 1.025 1.057 0 1.868-.178 2.433-.533s.98-.706 1.244-1.053c.292-.383.575-.456.848-.219l.807.697c.209.182.209.433 0 .752-.173.264-.67.688-1.49 1.271-.812.583-2.092.875-3.842.875-2.279 0-3.961-.67-5.045-2.01-1.076-1.34-1.613-3.14-1.613-5.4zm2.488-.861h7.724c-.036-1.276-.364-2.392-.984-3.35-.62-.966-1.531-1.449-2.734-1.449-1.058 0-1.955.355-2.694 1.066-.738.702-1.175 1.946-1.312 3.732zm12.523.861c0-1.96.474-3.682 1.422-5.168.948-1.495 2.333-2.242 4.156-2.242 1.049 0 1.887.173 2.516.519s1.194.82 1.695 1.422h.028l.082-1.094c.027-.41.205-.615.533-.615h1.148c.41 0 .616.205.616.615v18.594c0 .41-.206.615-.616.615h-1.175c-.411 0-.616-.205-.616-.615v-5.728l.028-.834h-.028c-.501.602-1.066 1.075-1.695 1.422s-1.467.519-2.516.519c-1.823 0-3.208-.743-4.156-2.228-.948-1.495-1.422-3.222-1.422-5.182zm2.543 0c0 1.677.287 3.035.862 4.074.583 1.039 1.567 1.559 2.953 1.559.984 0 1.8-.333 2.447-.998.656-.674.984-1.695.984-3.062V19.25c0-1.367-.328-2.384-.984-3.049-.647-.675-1.463-1.012-2.447-1.012-1.386 0-2.37.519-2.953 1.559-.575 1.039-.862 2.397-.862 4.074zm13.522 2.174V14.26c0-.41.205-.615.615-.615h1.176c.41 0 .615.205.615.615v8.08c0 1.787.296 2.921.889 3.404.592.474 1.326.711 2.201.711 1.148 0 2.028-.351 2.638-1.053.611-.711.916-1.923.916-3.637V14.26c0-.41.206-.615.616-.615h1.175c.411 0 .616.205.616.615v13.125c0 .41-.205.615-.616.615h-1.148c-.41 0-.615-.205-.615-.615v-1.094h-.055c-.592.656-1.23 1.144-1.914 1.463s-1.518.478-2.502.478c-1.595 0-2.762-.465-3.5-1.394-.738-.939-1.107-2.219-1.107-3.842zM632.635 28c-.41 0-.615-.205-.615-.615V14.26c0-.41.205-.615.615-.615h1.176c.41 0 .615.205.615.615v13.125c0 .41-.205.615-.615.615h-1.176zm0-16.953c-.41 0-.615-.205-.615-.615V9.256c0-.41.205-.615.615-.615h1.176c.41 0 .615.205.615.615v1.176c0 .41-.205.615-.615.615h-1.176zM638.924 28c-.41 0-.615-.205-.615-.615V14.26c0-.41.205-.615.615-.615h1.148c.41 0 .616.205.616.615V15.9h.054c.438-.82.953-1.44 1.545-1.859s1.331-.629 2.215-.629c.583 0 .993.05 1.23.15.21.082.288.219.233.41l-.315 1.121c-.045.164-.164.228-.355.191a4.61 4.61 0 0 0-.902-.096c-1.067 0-1.946.483-2.639 1.449-.693.957-1.039 2.265-1.039 3.924v6.822c0 .41-.205.615-.615.615h-1.176zm8.476-7.178c0-2.26.565-4.061 1.696-5.4s2.748-2.01 4.853-2.01c1.75 0 3.199.615 4.348 1.846 1.157 1.221 1.736 3.176 1.736 5.865 0 .41-.187.615-.56.615h-9.53c.155 1.759.629 2.985 1.422 3.678.793.684 1.691 1.025 2.694 1.025 1.057 0 1.868-.178 2.433-.533s.98-.706 1.244-1.053c.292-.383.575-.456.848-.219l.807.697c.209.182.209.433 0 .752-.174.264-.67.688-1.491 1.271-.811.583-2.091.875-3.841.875-2.279 0-3.961-.67-5.045-2.01-1.076-1.34-1.614-3.14-1.614-5.4zm2.489-.861h7.724c-.036-1.276-.364-2.392-.984-3.35-.62-.966-1.531-1.449-2.734-1.449-1.058 0-1.956.355-2.694 1.066-.738.702-1.176 1.946-1.312 3.732zm12.523.861c0-1.96.474-3.682 1.422-5.168.948-1.495 2.333-2.242 4.156-2.242 1.048 0 1.887.173 2.516.519s1.194.82 1.695 1.422h.028l-.028-.834V8.436c0-.41.205-.615.615-.615h1.176c.41 0 .615.205.615.615v18.949c0 .41-.205.615-.615.615h-1.148c-.328 0-.506-.205-.533-.615l-.082-1.094h-.028c-.501.602-1.066 1.075-1.695 1.422s-1.468.519-2.516.519c-1.823 0-3.208-.743-4.156-2.228-.948-1.495-1.422-3.222-1.422-5.182zm2.543 0c0 1.677.287 3.035.861 4.074.584 1.039 1.568 1.559 2.954 1.559.984 0 1.8-.333 2.447-.998.656-.674.984-1.695.984-3.062V19.25c0-1.367-.328-2.384-.984-3.049-.647-.675-1.463-1.012-2.447-1.012-1.386 0-2.37.519-2.954 1.559-.574 1.039-.861 2.397-.861 4.074zm22.176-5.373c-.41 0-.615-.159-.615-.478v-.848c0-.319.205-.478.615-.478h1.613v-1.23c0-.182.046-.355.137-.52l.957-1.736c.173-.319.314-.479.424-.479h.478c.274 0 .41.159.41.479v3.486h2.912c.411 0 .616.159.616.478v.848c0 .319-.205.478-.616.478h-2.912v8.709c0 .957.142 1.581.424 1.873a1.44 1.44 0 0 0 1.039.424c.31 0 .679-.091 1.108-.274.437-.182.738-.337.902-.465s.292-.087.383.123l.451 1.053c.073.182.018.328-.164.438-.355.21-.875.415-1.559.615a7.57 7.57 0 0 1-2.05.287c-.948 0-1.677-.342-2.188-1.025-.501-.684-.752-1.65-.752-2.898v-8.859h-1.613zm10.281 5.373c0-2.142.565-3.91 1.695-5.305 1.14-1.404 2.803-2.105 4.991-2.105s3.846.702 4.976 2.105c1.14 1.394 1.709 3.163 1.709 5.305s-.569 3.915-1.709 5.318c-1.13 1.395-2.789 2.092-4.976 2.092s-3.851-.697-4.991-2.092c-1.13-1.404-1.695-3.176-1.695-5.318zm2.543 0c0 1.914.378 3.331 1.135 4.252s1.759 1.381 3.008 1.381 2.251-.46 3.007-1.381 1.135-2.338 1.135-4.252-.378-3.331-1.135-4.252-1.759-1.381-3.007-1.381-2.252.46-3.008 1.381-1.135 2.338-1.135 4.252zm22.559-5.373c-.41 0-.616-.159-.616-.478v-.848c0-.319.206-.478.616-.478h1.613v-1.23c0-.182.046-.355.137-.52l.957-1.736c.173-.319.314-.479.424-.479h.478c.273 0 .41.159.41.479v3.486h2.912c.41 0 .616.159.616.478v.848c0 .319-.206.478-.616.478h-2.912v8.709c0 .957.141 1.581.424 1.873a1.44 1.44 0 0 0 1.039.424c.31 0 .679-.091 1.108-.274.437-.182.738-.337.902-.465s.292-.087.383.123l.451 1.053c.073.182.018.328-.164.438-.356.21-.875.415-1.559.615a7.57 7.57 0 0 1-2.051.287c-.948 0-1.677-.342-2.187-1.025-.501-.684-.752-1.65-.752-2.898v-8.859h-1.613zM734.189 28c-.41 0-.615-.205-.615-.615V14.26c0-.41.205-.615.615-.615h1.149c.41 0 .615.205.615.615V15.9h.055c.437-.82.952-1.44 1.545-1.859s1.33-.629 2.215-.629c.583 0 .993.05 1.23.15.21.082.287.219.232.41l-.314 1.121c-.046.164-.164.228-.355.191-.319-.064-.62-.096-.903-.096-1.066 0-1.946.483-2.638 1.449-.693.957-1.04 2.265-1.04 3.924v6.822c0 .41-.205.615-.615.615h-1.176zm8.477-3.828c0-1.622.757-2.812 2.27-3.568 1.522-.756 3.791-1.199 6.808-1.326v-.93c0-.857-.196-1.595-.588-2.215-.383-.629-1.148-.943-2.297-.943-.729 0-1.312.073-1.75.219a4.86 4.86 0 0 0-1.203.561c-.355.228-.697.524-1.025.889-.246.274-.479.287-.697.041l-.711-.82c-.201-.228-.133-.501.205-.82.483-.456.952-.797 1.408-1.025s1.021-.419 1.695-.574a8.88 8.88 0 0 1 2.078-.246c1.905 0 3.263.492 4.075 1.477.811.975 1.216 2.315 1.216 4.02v8.477c0 .41-.205.615-.615.615h-1.23c-.356 0-.534-.205-.534-.615v-.67h-.027c-.72.565-1.426.962-2.119 1.189-.684.219-1.449.328-2.297.328-1.495 0-2.648-.355-3.459-1.066-.802-.72-1.203-1.718-1.203-2.994zm2.488.055c0 .565.119 1.021.356 1.367a1.62 1.62 0 0 0 .984.656c.419.091.857.137 1.313.137.701 0 1.367-.068 1.996-.205s1.276-.497 1.941-1.08v-4.033c-1.841.137-3.154.305-3.937.506-.784.191-1.422.529-1.914 1.012-.493.474-.739 1.021-.739 1.641zM758.662 28c-.41 0-.615-.205-.615-.615V14.26c0-.41.205-.615.615-.615h1.149c.41 0 .615.205.615.615v1.094h.054c.593-.656 1.231-1.144 1.915-1.463s1.535-.478 2.556-.478c1.659 0 2.848.469 3.569 1.408.729.93 1.093 2.206 1.093 3.828v8.736c0 .41-.205.615-.615.615h-1.176c-.41 0-.615-.205-.615-.615v-8.08c0-1.787-.296-2.917-.889-3.391-.592-.483-1.344-.725-2.256-.725-1.184 0-2.082.355-2.693 1.066-.611.702-.916 1.91-.916 3.623v7.506c0 .41-.205.615-.615.615h-1.176zm14.246-1.34c-.282-.264-.342-.511-.178-.738l.616-.861c.2-.273.496-.26.888.041a6.98 6.98 0 0 0 1.791.984c.666.246 1.422.369 2.27.369.501 0 .948-.059 1.34-.178.392-.128.733-.36 1.025-.697.301-.337.451-.788.451-1.354a2.06 2.06 0 0 0-.218-.93c-.137-.292-.356-.524-.657-.697-.291-.182-.578-.324-.861-.424a11.6 11.6 0 0 0-1.395-.424l-1.804-.533a5.91 5.91 0 0 1-1.422-.656c-.447-.292-.839-.684-1.176-1.176-.328-.492-.492-1.171-.492-2.037 0-.884.269-1.645.807-2.283s1.212-1.071 2.023-1.299c.811-.237 1.6-.355 2.365-.355 1.13 0 2.037.132 2.721.396.693.255 1.29.56 1.791.916.292.21.333.451.123.725l-.615.82c-.192.264-.488.255-.889-.027-.337-.237-.816-.46-1.435-.67s-1.163-.315-1.627-.315c-.575 0-1.067.064-1.477.191s-.743.346-.998.656-.383.674-.383 1.094c0 .319.05.606.151.861.1.246.287.474.56.684s.656.378 1.149.506l2.091.547c.638.164 1.213.365 1.723.601.665.31 1.176.652 1.531 1.025.365.374.615.779.752 1.217a4.7 4.7 0 0 1 .205 1.436c0 .975-.291 1.8-.875 2.475-.574.675-1.217 1.126-1.927 1.354-.711.219-1.568.328-2.571.328-1.358 0-2.524-.191-3.5-.574-.966-.392-1.59-.725-1.873-.998zm12.756-11.211c-.41 0-.615-.159-.615-.478v-.848c0-.319.205-.478.615-.478h1.463v-2.037c0-1.522.41-2.57 1.23-3.145.821-.583 1.76-.875 2.817-.875.629 0 1.135.032 1.517.096.392.064.853.205 1.381.424.201.082.26.228.178.438l-.424 1.08c-.073.182-.232.219-.478.109-.201-.091-.447-.173-.739-.246-.291-.082-.606-.123-.943-.123-.756 0-1.303.182-1.641.547-.328.365-.492 1.062-.492 2.092v1.641h2.502c.41 0 .615.159.615.478v.848c0 .319-.205.478-.615.478h-2.502v11.936c0 .41-.205.615-.615.615h-1.176c-.41 0-.615-.205-.615-.615V15.449h-1.463zm8.846 5.373c0-2.26.565-4.061 1.695-5.4s2.748-2.01 4.854-2.01c1.75 0 3.199.615 4.347 1.846 1.158 1.221 1.737 3.176 1.737 5.865 0 .41-.187.615-.561.615h-9.529c.155 1.759.629 2.985 1.422 3.678.793.684 1.69 1.025 2.693 1.025 1.057 0 1.868-.178 2.434-.533s.979-.706 1.244-1.053c.291-.383.574-.456.847-.219l.807.697c.21.182.21.433 0 .752-.173.264-.67.688-1.49 1.271-.811.583-2.092.875-3.842.875-2.279 0-3.96-.67-5.045-2.01-1.075-1.34-1.613-3.14-1.613-5.4zm2.488-.861h7.725c-.037-1.276-.365-2.392-.985-3.35-.62-.966-1.531-1.449-2.734-1.449-1.057 0-1.955.355-2.693 1.066-.739.702-1.176 1.946-1.313 3.732zM810.916 28c-.41 0-.615-.205-.615-.615V14.26c0-.41.205-.615.615-.615h1.148c.411 0 .616.205.616.615V15.9h.054c.438-.82.953-1.44 1.545-1.859s1.331-.629 2.215-.629c.583 0 .994.05 1.231.15.209.082.287.219.232.41l-.314 1.121c-.046.164-.164.228-.356.191a4.61 4.61 0 0 0-.902-.096c-1.067 0-1.946.483-2.639 1.449-.693.957-1.039 2.265-1.039 3.924v6.822c0 .41-.205.615-.615.615h-1.176zm19.018-15.736c-.119-.292-.01-.501.328-.629.702-.264 1.367-.688 1.996-1.271s1.125-1.103 1.49-1.559c.264-.328.52-.492.766-.492h1.162c.419 0 .629.205.629.615v18.457c0 .41-.205.615-.616.615h-1.175c-.41 0-.616-.205-.616-.615V12.4l.028-.82h-.028c-.282.355-.697.72-1.244 1.094s-1.048.647-1.504.82c-.401.155-.665.082-.793-.219l-.423-1.012zm10.199 5.934c0-3.19.825-5.687 2.474-7.492 1.65-1.814 3.942-2.721 6.877-2.721 1.759 0 3.195.305 4.307.916 1.112.602 1.928 1.313 2.447 2.133.319.51.315.88-.013 1.107l-1.026.711c-.337.237-.674.096-1.011-.424-.274-.41-.789-.898-1.545-1.463s-1.764-.848-3.022-.848c-2.233 0-3.906.711-5.017 2.133-1.112 1.413-1.668 3.395-1.668 5.947s.542 4.539 1.626 5.961c1.085 1.413 2.817 2.119 5.196 2.119 1.185 0 2.215-.141 3.09-.424.884-.292 1.504-.693 1.859-1.203v-3.623h-4.061c-.501 0-.751-.205-.751-.615V19.4c0-.41.25-.615.751-.615h5.934c.501 0 .752.205.752.615v6.453c-1.112.811-2.224 1.44-3.336 1.887s-2.57.67-4.375.67c-3.008 0-5.341-.902-7-2.707-1.659-1.814-2.488-4.316-2.488-7.506zM861.98 28c-.455 0-.683-.251-.683-.752V9.146c0-.501.228-.752.683-.752h5.332c3.099 0 5.187.501 6.262 1.504s1.614 2.21 1.614 3.623c0 1.121-.447 2.074-1.34 2.857-.894.775-1.759 1.23-2.598 1.367v.041c.921.082 1.946.542 3.076 1.381 1.139.829 1.709 1.96 1.709 3.391 0 1.55-.574 2.844-1.723 3.883-1.139 1.039-3.244 1.559-6.316 1.559h-6.016zm1.942-2.242h3.637c1.959 0 3.395-.241 4.306-.725s1.367-1.335 1.367-2.557a2.97 2.97 0 0 0-1.394-2.625c-.921-.62-2.347-.93-4.279-.93h-3.637v6.836zm0-8.805h3.432c1.522 0 2.761-.323 3.718-.971.966-.656 1.449-1.476 1.449-2.461 0-.939-.36-1.654-1.08-2.146s-2.082-.738-4.087-.738h-3.432v6.316zm24.637 3.609c0-2.807.474-5.268 1.421-7.383s2.147-3.979 3.596-5.592c.347-.392.656-.483.93-.273l.478.369c.283.219.274.488-.027.807-.82.875-1.645 2.352-2.475 4.43-.829 2.069-1.244 4.617-1.244 7.643s.415 5.574 1.244 7.643c.83 2.078 1.655 3.555 2.475 4.43.301.319.31.588.027.807l-.478.369c-.274.21-.583.119-.93-.273-1.449-1.613-2.648-3.477-3.596-5.592s-1.421-4.575-1.421-7.383zm8.627 7.041c-.42-.228-.547-.524-.383-.889l.451-.971c.2-.437.533-.501.998-.191.738.483 1.477.725 2.215.725.884 0 1.458-.296 1.722-.889.265-.602.397-1.454.397-2.557V9.146c0-.501.228-.752.684-.752h1.257c.456 0 .684.251.684.752v13.371c0 1.805-.283 3.24-.848 4.307-.565 1.057-1.886 1.586-3.965 1.586a6.69 6.69 0 0 1-3.212-.807zm11.265-6.781c0-2.142.565-3.91 1.695-5.305 1.14-1.404 2.803-2.105 4.991-2.105s3.846.702 4.976 2.105c1.14 1.394 1.709 3.163 1.709 5.305s-.569 3.915-1.709 5.318c-1.13 1.395-2.789 2.092-4.976 2.092s-3.851-.697-4.991-2.092c-1.13-1.404-1.695-3.176-1.695-5.318zm2.543 0c0 1.914.378 3.331 1.135 4.252s1.759 1.381 3.008 1.381 2.251-.46 3.008-1.381 1.134-2.338 1.134-4.252-.378-3.331-1.134-4.252-1.76-1.381-3.008-1.381-2.252.46-3.008 1.381-1.135 2.338-1.135 4.252zm13.904 2.174V14.26c0-.41.206-.615.616-.615h1.175c.411 0 .616.205.616.615v8.08c0 1.787.296 2.921.888 3.404.593.474 1.327.711 2.202.711 1.148 0 2.028-.351 2.638-1.053.611-.711.916-1.923.916-3.637V14.26c0-.41.205-.615.615-.615h1.176c.41 0 .615.205.615.615v13.125c0 .41-.205.615-.615.615h-1.148c-.41 0-.615-.205-.615-.615v-1.094h-.055c-.593.656-1.231 1.144-1.914 1.463s-1.518.478-2.502.478c-1.595 0-2.762-.465-3.5-1.394-.738-.939-1.108-2.219-1.108-3.842zM940.854 28c-.411 0-.616-.205-.616-.615V10.322c0-.182.046-.356.137-.52l.957-1.736c.173-.319.314-.479.424-.479h.478c.274 0 .411.16.411.479v19.318c0 .41-.206.615-.616.615h-1.175zm4.894-7.178c0-2.26.565-4.061 1.695-5.4s2.748-2.01 4.854-2.01c1.75 0 3.199.615 4.348 1.846 1.157 1.221 1.736 3.176 1.736 5.865 0 .41-.187.615-.561.615h-9.529c.155 1.759.629 2.985 1.422 3.678.793.684 1.691 1.025 2.693 1.025 1.058 0 1.869-.178 2.434-.533s.98-.706 1.244-1.053c.292-.383.574-.456.848-.219l.806.697c.21.182.21.433 0 .752-.173.264-.67.688-1.49 1.271-.811.583-2.092.875-3.842.875-2.278 0-3.96-.67-5.045-2.01-1.075-1.34-1.613-3.14-1.613-5.4zm2.488-.861h7.725c-.037-1.276-.365-2.392-.984-3.35-.62-.966-1.532-1.449-2.735-1.449-1.057 0-1.955.355-2.693 1.066-.738.702-1.176 1.946-1.313 3.732zm12.743 6.699c-.283-.264-.342-.511-.178-.738l.615-.861c.201-.273.497-.26.889.041.537.41 1.134.738 1.791.984.665.246 1.422.369 2.269.369.502 0 .948-.059 1.34-.178.392-.128.734-.36 1.025-.697.301-.337.452-.788.452-1.354a2.05 2.05 0 0 0-.219-.93c-.137-.292-.356-.524-.656-.697a4.42 4.42 0 0 0-.862-.424c-.465-.173-.929-.314-1.394-.424l-1.805-.533a5.93 5.93 0 0 1-1.422-.656c-.446-.292-.838-.684-1.176-1.176-.328-.492-.492-1.171-.492-2.037 0-.884.269-1.645.807-2.283a4 4 0 0 1 2.023-1.299c.812-.237 1.6-.355 2.366-.355 1.13 0 2.037.132 2.72.396.693.255 1.29.56 1.791.916.292.21.333.451.123.725l-.615.82c-.191.264-.488.255-.889-.027-.337-.237-.815-.46-1.435-.67s-1.162-.315-1.627-.315c-.574 0-1.066.064-1.477.191a2.05 2.05 0 0 0-.998.656c-.255.31-.383.674-.383 1.094 0 .319.051.606.151.861.1.246.287.474.56.684s.657.378 1.149.506l2.092.547c.638.164 1.212.365 1.722.601.666.31 1.176.652 1.532 1.025.364.374.615.779.752 1.217a4.73 4.73 0 0 1 .205 1.436c0 .975-.292 1.8-.875 2.475-.575.675-1.217 1.126-1.928 1.354-.711.219-1.568.328-2.57.328-1.359 0-2.525-.191-3.5-.574-.967-.392-1.591-.725-1.873-.998zm12.988 6.781c-.283-.219-.274-.488.027-.807.82-.875 1.645-2.352 2.475-4.43.829-2.069 1.244-4.617 1.244-7.643s-.415-5.574-1.244-7.643c-.83-2.078-1.655-3.555-2.475-4.43-.301-.319-.31-.588-.027-.807l.478-.369c.274-.21.584-.118.93.273 1.449 1.613 2.648 3.477 3.596 5.592s1.422 4.575 1.422 7.383-.474 5.268-1.422 7.383-2.147 3.979-3.596 5.592c-.346.392-.656.483-.93.273l-.478-.369z" fill="#fff"/><path d="M111 80h1000v47H111V80z" fill="#75d573"/><path d="M111 80h1000v47H111V80z" stroke="#fff"/><path d="M1047 178h64.2v47H1047v-47z" fill="#75d573"/><path d="M1047 178h64.2v47H1047v-47z" stroke="#fff"/><path d="M1106.1 286h5.22v47h-5.22v-47z" fill="#75d573"/><path d="M1106.1 286h5.22v47h-5.22v-47z" stroke="#fff"/><g fill="#fff"><path d="M974.585 203.279c-.008-3.19.423-5.674 1.293-7.451.871-1.786 2.536-2.68 4.997-2.68s4.131.894 5.011 2.68c.88 1.777 1.324 4.261 1.332 7.451s-.423 5.679-1.293 7.465c-.87 1.777-2.536 2.666-4.997 2.666s-4.131-.889-5.011-2.666c-.88-1.786-1.324-4.275-1.332-7.465zm2.543 0c.007 2.552.231 4.553.672 6.002.441 1.44 1.482 2.16 3.123 2.16s2.678-.72 3.111-2.16c.434-1.449.648-3.45.641-6.002s-.231-4.548-.672-5.988c-.441-1.449-1.482-2.174-3.123-2.174s-2.678.725-3.111 2.174c-.434 1.44-.648 3.436-.641 5.988zM991.851 213c-.41 0-.616-.205-.617-.615l-.004-1.668c-.002-.41.203-.616.613-.616h1.531c.411 0 .616.206.617.616l.005 1.668c.001.41-.204.615-.614.615h-1.531zm6.64-17.199c-.41 0-.615-.205-.616-.615l-.003-1.012c-.001-.41.203-.615.614-.615h11.404c.41 0 .61.205.61.615l.01.943c0 .292-.17.62-.49.985-1.82 2.069-3.28 4.361-4.37 6.876-1.1 2.507-1.64 5.241-1.64 8.204l.01 1.285c0 .41-.21.615-.62.615h-1.24c-.41 0-.62-.205-.62-.615v-.807c-.01-3.29.61-6.184 1.85-8.682 1.24-2.506 2.79-4.899 4.64-7.177v-.028l-.82.028h-8.719zm15.039 0c-.41 0-.62-.205-.62-.615v-1.012c0-.41.2-.615.61-.615h11.41c.41 0 .61.205.61.615l.01.943c0 .292-.17.62-.49.985-1.82 2.069-3.28 4.361-4.37 6.876-1.1 2.507-1.64 5.241-1.64 8.204l.01 1.285c0 .41-.21.615-.62.615h-1.24c-.41 0-.62-.205-.62-.615v-.807c-.01-3.29.61-6.184 1.85-8.682 1.24-2.506 2.79-4.899 4.64-7.177v-.028l-.82.028h-8.72zm15.08 15.175c-.37-.419-.44-.761-.22-1.025l.71-.861c.31-.374.67-.292 1.1.246a5.85 5.85 0 0 0 1.76 1.463c.7.373 1.44.56 2.2.56 1.5 0 2.57-.373 3.2-1.121.62-.747.94-1.745.93-2.994 0-1.322-.42-2.279-1.26-2.871a4.78 4.78 0 0 0-2.82-.889h-1.2c-.41 0-.62-.15-.62-.451v-1.012c0-.319.2-.478.61-.478h.97c1 0 1.86-.328 2.57-.984.72-.657 1.07-1.55 1.07-2.68 0-.784-.29-1.427-.86-1.928-.58-.501-1.39-.752-2.43-.752-.97 0-1.77.223-2.39.67s-1.05.834-1.31 1.162c-.33.438-.66.506-.98.205l-.81-.779c-.24-.228-.13-.606.31-1.135.47-.556 1.15-1.057 2.04-1.504s1.95-.67 3.18-.67c1.89 0 3.33.456 4.32 1.368 1 .911 1.5 2.091 1.5 3.541.01 1.148-.35 2.11-1.06 2.884-.7.766-1.46 1.24-2.3 1.422v.055c.97.137 1.91.665 2.8 1.586.9.92 1.35 2.019 1.35 3.295.01 1.896-.54 3.39-1.64 4.484-1.09 1.085-2.83 1.627-5.22 1.627-1.38 0-2.53-.269-3.43-.807-.91-.546-1.6-1.089-2.07-1.627zm4.46 96.303c-.01-3.19.42-5.674 1.29-7.451.87-1.786 2.54-2.68 5-2.68s4.13.894 5.01 2.68c.88 1.777 1.32 4.261 1.33 7.451s-.42 5.679-1.29 7.465c-.87 1.777-2.54 2.666-5 2.666s-4.13-.889-5.01-2.666c-.88-1.786-1.32-4.275-1.33-7.465zm2.54 0c.01 2.552.23 4.553.67 6.002.45 1.44 1.49 2.16 3.13 2.16s2.68-.72 3.11-2.16c.43-1.449.65-3.45.64-6.002s-.23-4.548-.67-5.988c-.44-1.449-1.48-2.174-3.12-2.174-1.65 0-2.68.725-3.12 2.174-.43 1.44-.64 3.436-.64 5.988zm14.73 9.721c-.41 0-.62-.205-.62-.615l-.01-1.668c0-.41.21-.616.62-.616h1.53c.41 0 .62.206.62.616v1.668c0 .41-.2.615-.61.615h-1.53zm6.11-9.721c-.01-3.19.42-5.674 1.29-7.451.87-1.786 2.54-2.68 5-2.68s4.13.894 5.01 2.68c.88 1.777 1.32 4.261 1.33 7.451s-.42 5.679-1.29 7.465c-.87 1.777-2.54 2.666-5 2.666s-4.13-.889-5.01-2.666c-.88-1.786-1.32-4.275-1.33-7.465zm2.54 0c.01 2.552.23 4.553.67 6.002.45 1.44 1.49 2.16 3.13 2.16s2.67-.72 3.11-2.16c.43-1.449.65-3.45.64-6.002s-.23-4.548-.67-5.988c-.44-1.449-1.49-2.174-3.13-2.174s-2.67.725-3.11 2.174c-.43 1.44-.64 3.436-.64 5.988zm12.62.547c-.01-4.01.68-6.79 2.07-8.34 1.39-1.558 3.09-2.338 5.08-2.338 1.14 0 2.05.146 2.74.438.68.292 1.27.665 1.76 1.121.39.355.48.652.27.889l-.64.752c-.26.291-.59.264-1-.082a4.95 4.95 0 0 0-1.22-.752c-.48-.21-1.15-.315-2.03-.315-1.23 0-2.3.615-3.2 1.846-.91 1.23-1.36 3.163-1.36 5.797h.03c.41-.593 1-1.094 1.76-1.504.78-.419 1.75-.629 2.93-.629 1.45 0 2.74.501 3.84 1.504 1.11.993 1.66 2.493 1.67 4.498 0 1.987-.52 3.6-1.58 4.84-1.04 1.239-2.59 1.859-4.65 1.859-2.15 0-3.77-.852-4.85-2.557-1.07-1.713-1.61-4.056-1.62-7.027zm2.95 3.063c0 1.13.32 2.16.94 3.089.63.921 1.5 1.381 2.6 1.381 1.14 0 2.01-.428 2.62-1.285s.91-1.95.91-3.281c-.01-1.322-.32-2.315-.94-2.981-.62-.674-1.4-1.011-2.33-1.011-1.2 0-2.14.369-2.81 1.107-.66.738-.99 1.732-.99 2.981zm12.81 4.087c-.37-.419-.44-.761-.22-1.025l.7-.861c.31-.374.68-.292 1.11.246a5.85 5.85 0 0 0 1.76 1.463c.7.373 1.43.56 2.2.56 1.5 0 2.57-.373 3.2-1.121.62-.747.93-1.745.93-2.994 0-1.322-.42-2.279-1.26-2.871a4.78 4.78 0 0 0-2.82-.889h-1.21c-.41 0-.61-.15-.61-.451l-.01-1.012c0-.319.21-.478.62-.478h.97c1 0 1.86-.328 2.57-.984.72-.657 1.07-1.55 1.07-2.68a2.43 2.43 0 0 0-.87-1.928c-.57-.501-1.38-.752-2.42-.752-.97 0-1.77.223-2.39.67s-1.05.834-1.31 1.162c-.33.438-.66.506-.98.205l-.81-.779c-.24-.228-.13-.606.31-1.135.47-.556 1.15-1.057 2.03-1.504.9-.446 1.96-.67 3.19-.67 1.88 0 3.33.456 4.32 1.368 1 .911 1.5 2.091 1.5 3.541 0 1.148-.35 2.11-1.06 2.884-.7.766-1.47 1.24-2.3 1.422v.055c.97.137 1.91.665 2.8 1.586.9.92 1.35 2.019 1.35 3.295.01 1.896-.54 3.39-1.64 4.484-1.09 1.085-2.83 1.627-5.22 1.627-1.39 0-2.53-.269-3.43-.807-.91-.546-1.6-1.089-2.07-1.627zM17.87 95.264c-.119-.292-.011-.501.326-.629.701-.264 1.365-.688 1.993-1.271s1.123-1.103 1.486-1.559c.264-.328.518-.492.764-.492h1.162c.419 0 .63.205.631.615l.048 18.457c.001.41-.203.615-.614.615H22.49c-.41 0-.616-.205-.617-.615L21.835 95.4l.025-.82h-.027c-.282.356-.695.72-1.241 1.094s-1.046.647-1.502.82c-.401.155-.665.082-.794-.219l-.426-1.012zM28.903 111c-.501 0-.753-.205-.754-.615l-.002-.657c-.001-.355.149-.683.449-.984l5.345-5.4c1.582-1.595 2.618-2.826 3.108-3.692.499-.875.747-1.882.744-3.022-.002-.957-.287-1.768-.854-2.434-.558-.665-1.406-.998-2.546-.998-1.021 0-1.868.26-2.541.779s-1.158 1.39-1.456 2.611c-.126.52-.395.72-.805.602l-1.067-.314c-.283-.082-.352-.469-.208-1.162.261-1.194.896-2.251 1.906-3.172 1.018-.93 2.371-1.395 4.057-1.395 2.142 0 3.706.538 4.694 1.613.996 1.075 1.496 2.393 1.501 3.951.004 1.522-.403 2.835-1.22 3.937-.808 1.103-1.922 2.343-3.34 3.719l-4.487 4.361v.055l1.094-.027h7.451c.501 0 .752.205.753.615l.003 1.012c.001.41-.249.615-.75.615H28.903zm16.461 0c-.41 0-.616-.205-.617-.615l-.004-1.668c-.001-.41.203-.616.614-.616h1.531c.41 0 .616.206.617.616l.004 1.668c.001.41-.203.615-.614.615h-1.531zm6.113-9.721c-.008-3.19.423-5.674 1.293-7.451.87-1.787 2.536-2.68 4.997-2.68s4.131.893 5.011 2.68c.88 1.777 1.324 4.261 1.332 7.451s-.423 5.679-1.293 7.465c-.87 1.777-2.536 2.666-4.997 2.666s-4.131-.889-5.011-2.666c-.88-1.786-1.324-4.275-1.332-7.465zm2.543 0c.007 2.552.231 4.553.672 6.002.441 1.44 1.482 2.16 3.123 2.16s2.678-.72 3.112-2.16c.434-1.449.647-3.45.641-6.002s-.231-4.548-.672-5.988c-.441-1.449-1.482-2.174-3.123-2.174s-2.678.725-3.111 2.174c-.434 1.44-.647 3.436-.641 5.988zM67.458 111c-.501 0-.752-.205-.754-.615l-.002-.657c-.001-.355.149-.683.449-.984l5.345-5.4c1.582-1.595 2.618-2.826 3.108-3.692.499-.875.747-1.882.744-3.022-.002-.957-.287-1.768-.854-2.434-.558-.665-1.406-.998-2.545-.998-1.021 0-1.868.26-2.541.779s-1.158 1.39-1.456 2.611c-.126.52-.395.72-.805.602l-1.067-.314c-.283-.082-.352-.469-.208-1.162.261-1.194.896-2.251 1.906-3.172 1.018-.93 2.371-1.395 4.057-1.395 2.142 0 3.706.538 4.694 1.613.996 1.075 1.496 2.393 1.501 3.951.004 1.522-.403 2.835-1.22 3.937-.808 1.103-1.922 2.343-3.34 3.719l-4.487 4.361v.055l1.094-.027h7.451c.501 0 .752.205.754.615l.003 1.012c.001.41-.249.615-.75.615H67.458zm14.359-9.174c-.01-4.01.68-6.79 2.07-8.34 1.391-1.559 3.084-2.338 5.08-2.338 1.139 0 2.051.146 2.736.438s1.273.665 1.767 1.121c.384.356.471.652.262.889l-.641.752c-.254.292-.587.264-.998-.082-.338-.292-.744-.542-1.219-.752s-1.149-.314-2.024-.314c-1.23 0-2.3.615-3.208 1.846s-1.359 3.163-1.352 5.797h.027c.409-.593.995-1.094 1.76-1.504.774-.419 1.748-.629 2.924-.629 1.458 0 2.74.501 3.846 1.504 1.105.993 1.661 2.493 1.666 4.498.005 1.987-.519 3.6-1.573 4.84-1.045 1.239-2.597 1.859-4.657 1.859-2.151 0-3.767-.852-4.847-2.557-1.071-1.713-1.61-4.056-1.618-7.027zm2.947 3.063a5.46 5.46 0 0 0 .938 3.089c.631.921 1.498 1.381 2.601 1.381 1.139 0 2.013-.428 2.622-1.285s.911-1.95.907-3.281c-.003-1.322-.316-2.315-.937-2.981-.622-.674-1.397-1.011-2.327-1.011-1.203 0-2.141.369-2.814 1.107-.663.738-.993 1.732-.99 2.981zM1182.28 111c-.45 0-.68-.251-.68-.752l-.05-18.101c0-.501.23-.752.68-.752h1.26c.46 0 .69.251.69.752l.04 18.102c.01.501-.22.752-.68.752h-1.26zm6.83 0c-.41 0-.62-.205-.62-.615l-.03-13.125c-.01-.41.2-.615.61-.615h1.15c.41 0 .61.205.61.615l.01 1.094h.05c.59-.656 1.23-1.144 1.91-1.463s1.54-.479 2.56-.479c1.66 0 2.85.469 3.57 1.408.73.93 1.1 2.206 1.1 3.828l.03 8.737c0 .41-.21.615-.62.615h-1.17c-.41 0-.62-.205-.62-.615l-.02-8.08c-.01-1.787-.31-2.917-.9-3.391-.59-.483-1.35-.725-2.26-.725-1.18 0-2.08.355-2.69 1.066-.61.702-.91 1.909-.9 3.623l.02 7.506c0 .41-.21.615-.62.615h-1.17zm14.07-12.551c-.41 0-.61-.16-.61-.479l-.01-.848c0-.319.21-.479.62-.479h1.61v-1.23a1.06 1.06 0 0 1 .13-.52l.96-1.736c.17-.319.31-.478.42-.478h.48c.27 0 .41.16.41.478l.01 3.486h2.91c.41 0 .62.16.62.479v.848c0 .319-.21.479-.62.479h-2.91l.03 8.709c0 .957.14 1.581.42 1.873.3.283.64.424 1.04.424.31 0 .68-.091 1.11-.273.44-.183.74-.338.9-.465.17-.128.29-.087.39.123l.45 1.052c.07.183.02.329-.16.438-.36.21-.88.415-1.56.615-.68.192-1.37.287-2.05.287-.95 0-1.68-.341-2.19-1.025-.5-.684-.76-1.65-.76-2.898l-.02-8.86h-1.62zm10.3 5.373c-.01-2.26.55-4.06 1.68-5.4s2.74-2.01 4.85-2.01c1.75 0 3.2.615 4.35 1.846 1.16 1.221 1.75 3.176 1.75 5.865 0 .41-.18.615-.56.615h-9.53c.16 1.759.64 2.985 1.44 3.678.79.684 1.69 1.025 2.69 1.025 1.06 0 1.87-.177 2.43-.533.57-.355.98-.706 1.24-1.053.3-.382.58-.455.85-.218l.81.697c.21.182.21.433 0 .752-.17.264-.67.688-1.48 1.271s-2.09.875-3.84.875c-2.28 0-3.97-.67-5.05-2.009s-1.63-3.14-1.63-5.401zm2.48-.861h7.73c-.04-1.276-.37-2.393-.99-3.35-.63-.966-1.54-1.449-2.74-1.449-1.06 0-1.96.355-2.69 1.066-.74.702-1.17 1.946-1.31 3.733zM1229.9 111c-.41 0-.61-.205-.61-.615l-.04-13.125c0-.41.21-.615.62-.615h1.14c.41 0 .62.205.62.615l.01 1.641h.05c.44-.82.95-1.44 1.54-1.859s1.33-.629 2.21-.629c.59 0 1 .05 1.23.15.21.082.29.219.24.41l-.31 1.121c-.05.164-.17.228-.36.191a4.6 4.6 0 0 0-.9-.096c-1.07 0-1.95.483-2.64 1.449-.69.957-1.03 2.265-1.02 3.923l.01 6.823c0 .41-.2.615-.61.615h-1.18zm9.87 0c-.41 0-.61-.205-.61-.615l-.04-13.125c0-.41.21-.615.62-.615h1.15c.41 0 .61.205.61.615l.01 1.094h.05c.59-.656 1.23-1.144 1.91-1.463s1.53-.479 2.56-.479c1.65 0 2.85.469 3.57 1.408.73.93 1.1 2.206 1.1 3.828l.02 8.737c.01.41-.2.615-.61.615h-1.18c-.41 0-.61-.205-.61-.615l-.02-8.08c-.01-1.787-.31-2.917-.9-3.391-.59-.483-1.35-.725-2.26-.725-1.18 0-2.08.355-2.69 1.066-.61.702-.91 1.909-.91 3.623l.02 7.506c0 .41-.2.615-.61.615h-1.18zm14.01-7.178c0-2.26.56-4.06 1.68-5.4 1.13-1.34 2.75-2.01 4.85-2.01 1.75 0 3.2.615 4.36 1.846 1.16 1.221 1.74 3.176 1.75 5.865 0 .41-.19.615-.56.615h-9.53c.16 1.759.64 2.985 1.43 3.678.79.684 1.69 1.025 2.7 1.025 1.05 0 1.86-.177 2.43-.533.56-.355.98-.706 1.24-1.053.29-.382.57-.455.85-.218l.81.697c.21.182.21.433 0 .752-.18.264-.67.688-1.49 1.271-.81.584-2.09.875-3.84.875-2.28 0-3.96-.67-5.05-2.009-1.08-1.34-1.62-3.14-1.63-5.401zm2.49-.861h7.72c-.04-1.276-.37-2.393-.99-3.35-.62-.966-1.53-1.449-2.74-1.449-1.05 0-1.95.355-2.69 1.066-.73.702-1.17 1.946-1.3 3.733zm12.59-4.512c-.41 0-.61-.16-.61-.479l-.01-.848c0-.319.21-.479.62-.479h1.61v-1.23a1.06 1.06 0 0 1 .13-.52l.96-1.736c.17-.319.31-.478.42-.478h.48c.27 0 .41.16.41.478l.01 3.486h2.91c.41 0 .62.16.62.479v.848c0 .319-.21.479-.62.479h-2.91l.03 8.709c0 .957.14 1.581.42 1.873.3.283.64.424 1.04.424.31 0 .68-.091 1.11-.273.44-.183.74-.338.9-.465.17-.128.29-.087.38.123l.46 1.052c.07.183.02.329-.16.438-.36.21-.88.415-1.56.615-.68.192-1.37.287-2.05.287-.95 0-1.68-.341-2.19-1.025-.5-.684-.76-1.65-.76-2.898l-.02-8.86h-1.62z"/><path d="M1181.4 185.172c0-1.623.75-2.812 2.26-3.569 1.52-.756 3.79-1.198 6.81-1.326v-.929c-.01-.857-.2-1.595-.6-2.215-.38-.629-1.15-.944-2.3-.944-.73 0-1.31.073-1.75.219-.43.137-.83.324-1.2.561-.35.228-.69.524-1.02.888-.25.274-.48.287-.7.041l-.71-.82c-.2-.228-.13-.501.2-.82.48-.456.95-.798 1.41-1.026.45-.227 1.02-.419 1.69-.574.69-.164 1.38-.246 2.08-.246 1.9 0 3.26.492 4.08 1.477.81.975 1.22 2.315 1.22 4.019l.03 8.477c0 .41-.21.615-.62.615h-1.23c-.35 0-.53-.205-.53-.615v-.67h-.03c-.72.565-1.43.961-2.12 1.189-.68.219-1.45.328-2.29.328-1.5 0-2.65-.355-3.46-1.066-.81-.72-1.21-1.718-1.22-2.994zm2.49.054c0 .566.12 1.021.36 1.368.24.337.57.556.99.656.42.091.85.137 1.31.137.7 0 1.37-.069 2-.205.62-.137 1.27-.497 1.93-1.081l-.01-4.033c-1.84.137-3.15.306-3.93.506-.79.192-1.42.529-1.91 1.012-.49.474-.74 1.021-.74 1.64zm11.72-9.912c-.12-.446 0-.67.37-.67h1.43c.33 0 .54.178.62.534l2.03 9.023.29 1.244.29 1.244h.06l.23-1.148.32-1.34 2.39-9.023c.09-.356.29-.534.61-.534h1.23c.32 0 .52.178.62.534l2.43 9.023.31 1.34.25 1.148h.06l.27-1.244.3-1.244 1.98-9.023c.08-.356.29-.534.62-.534h1.43c.37 0 .49.224.37.67l-3.35 12.852c-.15.556-.39.834-.74.834h-1.64c-.35 0-.59-.278-.74-.834l-2.35-9.037-.32-1.34-.1-.725h-.02l-.11.725c-.04.255-.13.702-.3 1.34l-2.3 9.037c-.14.556-.39.834-.73.834h-1.64c-.35 0-.6-.278-.75-.834l-3.42-12.852zm20.36 12.346c-.28-.264-.34-.51-.18-.738l.62-.862c.2-.273.49-.259.89.041.53.411 1.13.739 1.79.985s1.42.369 2.27.369c.5 0 .95-.059 1.34-.178.39-.127.73-.36 1.02-.697.3-.337.45-.788.45-1.354 0-.328-.07-.638-.22-.929-.14-.292-.36-.524-.66-.697-.29-.183-.58-.324-.86-.424-.47-.173-.93-.315-1.4-.424l-1.8-.533c-.51-.155-.98-.374-1.43-.657-.44-.291-.84-.683-1.18-1.175-.33-.493-.49-1.172-.49-2.037a3.36 3.36 0 0 1 .8-2.284c.53-.638 1.21-1.071 2.02-1.298.81-.237 1.6-.356 2.36-.356 1.13 0 2.04.132 2.72.397.7.255 1.29.56 1.8.916.29.209.33.451.12.724l-.61.82c-.19.265-.49.256-.89-.027-.34-.237-.82-.46-1.44-.67s-1.16-.314-1.63-.314c-.57 0-1.06.064-1.47.191s-.74.347-1 .656c-.25.31-.38.675-.38 1.094 0 .319.05.606.16.861.1.247.28.474.56.684.27.21.65.378 1.15.506l2.09.547c.64.164 1.21.364 1.72.601.67.31 1.18.652 1.54 1.026s.62.779.75 1.217c.14.428.21.906.21 1.435.01.975-.28 1.8-.87 2.475-.57.674-1.21 1.125-1.92 1.353-.71.219-1.57.328-2.57.328-1.36 0-2.52-.191-3.5-.574-.97-.392-1.59-.724-1.88-.998zm23.41 1.34c-.41 0-.61-.205-.61-.615l-.04-13.125c0-.41.21-.616.62-.616h1.17c.41 0 .62.206.62.616l.03 13.125c0 .41-.2.615-.61.615h-1.18zm-.04-16.953c-.41 0-.62-.205-.62-.615v-1.176c0-.41.2-.615.61-.615h1.18c.41 0 .61.205.61.615l.01 1.176c0 .41-.21.615-.62.615h-1.17zm6.33 16.953c-.41 0-.61-.205-.61-.615l-.04-13.125c0-.41.2-.616.61-.616h1.15c.41 0 .62.206.62.616v1.093h.06c.59-.656 1.22-1.143 1.91-1.462.68-.319 1.53-.479 2.55-.479 1.66 0 2.85.469 3.57 1.408.74.93 1.1 2.206 1.11 3.828l.02 8.737c0 .41-.2.615-.61.615h-1.18c-.41 0-.61-.205-.61-.615l-.03-8.08c0-1.787-.3-2.917-.89-3.391-.6-.483-1.35-.725-2.26-.725-1.19 0-2.08.356-2.69 1.067-.61.702-.91 1.909-.91 3.623l.02 7.506c0 .41-.2.615-.61.615h-1.18zm14.08-12.551c-.41 0-.62-.159-.62-.478v-.848c0-.319.2-.479.61-.479h1.62l-.01-1.23c0-.182.05-.355.14-.52l.95-1.736c.17-.319.31-.478.42-.478h.48c.28 0 .41.159.41.478l.01 3.486h2.92c.41 0 .61.16.61.479v.848c.01.319-.2.478-.61.478h-2.91l.02 8.709c0 .957.15 1.581.43 1.873a1.44 1.44 0 0 0 1.04.424c.31 0 .68-.091 1.11-.273s.73-.338.9-.465c.16-.128.29-.087.38.123l.45 1.052c.08.183.02.329-.16.438-.35.21-.87.415-1.56.615-.68.192-1.36.287-2.05.287-.94 0-1.67-.341-2.19-1.025-.5-.684-.75-1.65-.76-2.898l-.02-8.86h-1.61zM1272.24 189c-.41 0-.62-.205-.62-.615v-1.668c-.01-.41.2-.616.61-.616h1.53c.41 0 .62.206.62.616v1.668c0 .41-.2.615-.61.615h-1.53zm-109.33 40c-.41 0-.61-.205-.62-.615l-.03-13.125c0-.411.2-.616.61-.616h1.15c.41 0 .62.205.62.616v1.093h.06c.59-.656 1.22-1.144 1.91-1.463.68-.319 1.53-.478 2.55-.478 1.66 0 2.85.469 3.57 1.408.74.93 1.1 2.206 1.11 3.828l.02 8.737c0 .41-.2.615-.61.615h-1.18c-.41 0-.61-.205-.62-.615l-.02-8.081c0-1.786-.3-2.916-.89-3.39-.6-.483-1.35-.725-2.26-.725-1.19 0-2.08.356-2.69 1.067-.61.701-.91 1.909-.91 3.623l.02 7.506c0 .41-.2.615-.61.615h-1.18zm14.01-7.178c-.01-2.26.55-4.06 1.68-5.4s2.74-2.01 4.85-2.01c1.75 0 3.2.615 4.35 1.846 1.16 1.221 1.75 3.176 1.75 5.865 0 .41-.18.615-.56.615h-9.52c.15 1.759.63 2.985 1.43 3.678.79.683 1.69 1.025 2.69 1.025 1.06 0 1.87-.178 2.43-.533.57-.355.98-.706 1.25-1.053.29-.383.57-.455.84-.218l.81.697c.21.182.21.433 0 .752-.17.264-.66.688-1.48 1.271-.81.584-2.09.875-3.84.875-2.28 0-3.96-.67-5.05-2.01-1.08-1.339-1.62-3.14-1.63-5.4zm2.49-.861h7.72c-.04-1.276-.37-2.393-.99-3.35-.63-.966-1.54-1.449-2.74-1.449-1.06 0-1.96.355-2.69 1.066-.74.702-1.17 1.946-1.3 3.733zm12.59-4.512c-.41 0-.62-.159-.62-.478v-.848c0-.319.2-.479.61-.479h1.62l-.01-1.23c0-.182.05-.356.14-.52l.95-1.736c.17-.319.32-.478.43-.478h.47c.28 0 .41.159.42.478v3.486h2.92c.41 0 .61.16.61.479l.01.848c0 .319-.21.478-.62.478h-2.91l.02 8.709c0 .957.15 1.581.43 1.873a1.44 1.44 0 0 0 1.04.424c.31 0 .68-.091 1.11-.274s.73-.337.9-.464c.16-.128.29-.087.38.123l.46 1.052c.07.183.01.328-.17.438-.35.209-.87.415-1.55.615a7.64 7.64 0 0 1-2.05.287c-.95 0-1.68-.342-2.19-1.025s-.76-1.65-.76-2.899l-.03-8.859H1192zm9.91-1.135c-.12-.446 0-.67.37-.67h1.43c.33 0 .54.178.62.534l2.03 9.023.29 1.244.29 1.244h.06l.23-1.148.32-1.34 2.38-9.023c.09-.356.3-.534.62-.534h1.23c.32 0 .52.178.61.534l2.43 9.023.32 1.34.25 1.148h.06l.27-1.244.29-1.244 1.99-9.023c.08-.356.29-.534.61-.534h1.44c.36 0 .49.224.37.67l-3.36 12.852c-.14.556-.39.834-.73.834h-1.64c-.35 0-.6-.278-.74-.834l-2.35-9.037-.32-1.34-.1-.725h-.02l-.11.725c-.04.255-.14.702-.3 1.34l-2.3 9.037c-.14.556-.39.834-.74.834h-1.64c-.34 0-.59-.278-.74-.834l-3.42-12.852zm20.13 6.508c-.01-2.142.55-3.91 1.68-5.305 1.13-1.403 2.8-2.105 4.98-2.105 2.19 0 3.85.702 4.99 2.105 1.14 1.395 1.71 3.163 1.72 5.305 0 2.142-.56 3.915-1.7 5.318-1.12 1.395-2.78 2.092-4.97 2.092s-3.85-.697-4.99-2.092c-1.14-1.403-1.71-3.176-1.71-5.318zm2.54 0c0 1.914.39 3.331 1.15 4.252.75.921 1.76 1.381 3.01 1.381s2.25-.46 3-1.381c.76-.921 1.13-2.338 1.12-4.252 0-1.914-.38-3.331-1.14-4.252s-1.76-1.381-3.01-1.381-2.25.461-3.01 1.381c-.75.921-1.13 2.338-1.12 4.252zm14.57 7.178c-.41 0-.62-.205-.62-.615l-.04-13.125c0-.411.21-.616.62-.616h1.15c.41 0 .61.205.61.616l.01 1.64h.05c.44-.82.95-1.44 1.54-1.859s1.33-.629 2.22-.629c.58 0 .99.05 1.23.15.21.082.28.219.23.41l-.31 1.122c-.05.164-.17.227-.36.191a4.6 4.6 0 0 0-.9-.096c-1.07 0-1.94.483-2.63 1.449-.69.958-1.04 2.265-1.03 3.924l.01 6.823c.01.41-.2.615-.61.615h-1.17zm9.87 0c-.41 0-.62-.205-.62-.615l-.05-18.95c0-.41.2-.615.61-.615h1.18c.41 0 .62.205.62.615l.03 11.375-.03.821h.03l5.52-6.631c.2-.237.44-.356.72-.356h1.25c.69 0 .81.269.35.807l-4.28 5.113 4.93 7.629c.35.538.23.807-.35.807h-1.34c-.3 0-.56-.169-.78-.506l-3.96-6.139-2.05 2.461.01 3.569c0 .41-.21.615-.62.615h-1.17zm13.72 0c-.41 0-.61-.205-.61-.615l-.04-13.125c0-.411.21-.616.62-.616h1.17c.41 0 .62.205.62.616l.03 13.125c0 .41-.2.615-.61.615h-1.18zm-.04-16.953c-.41 0-.62-.205-.62-.616v-1.175c0-.41.2-.616.61-.616h1.18c.41 0 .61.206.62.616v1.175c0 .411-.21.616-.62.616h-1.17zm6.33 16.953c-.41 0-.61-.205-.61-.615l-.04-13.125c0-.411.2-.616.61-.616h1.15c.41 0 .62.205.62.616v1.093h.06c.59-.656 1.23-1.144 1.91-1.463s1.53-.478 2.55-.478c1.66 0 2.85.469 3.58 1.408.73.93 1.09 2.206 1.1 3.828l.02 8.737c0 .41-.2.615-.61.615h-1.18c-.41 0-.61-.205-.61-.615l-.03-8.081c0-1.786-.3-2.916-.89-3.39-.6-.483-1.35-.725-2.26-.725-1.19 0-2.08.356-2.69 1.067-.61.701-.91 1.909-.91 3.623l.02 7.506c0 .41-.2.615-.61.615h-1.18zm14.01-7.178c0-1.96.47-3.682 1.41-5.168.94-1.495 2.33-2.242 4.15-2.242 1.05 0 1.89.173 2.52.519s1.19.821 1.7 1.422h.02l.08-1.093c.03-.411.21-.616.53-.616h1.15c.41 0 .62.205.62.616l.04 13.849c0 1.75-.4 3.117-1.21 4.102-.8.993-2.39 1.49-4.77 1.49-1.59 0-2.79-.182-3.58-.547-.8-.355-1.36-.734-1.7-1.135-.25-.3-.26-.556-.04-.765l.75-.739c.21-.2.5-.136.87.192.49.437.95.747 1.4.929.45.192 1.22.288 2.31.288 1.24 0 2.14-.265 2.71-.793s.85-1.623.85-3.282v-.82l.02-.834h-.03c-.47.629-1.03 1.126-1.67 1.49s-1.48.547-2.53.547c-1.82 0-3.21-.743-4.16-2.228-.96-1.495-1.43-3.222-1.44-5.182zm2.54 0c.01 1.677.3 3.035.88 4.074s1.57 1.559 2.95 1.559c.99 0 1.8-.333 2.45-.998.65-.675.98-1.695.97-3.063v-3.144c-.01-1.367-.34-2.384-1-3.049-.65-.674-1.46-1.012-2.45-1.012-1.38 0-2.36.52-2.95 1.559-.57 1.039-.85 2.397-.85 4.074zM1180.55 317c-.41 0-.61-.205-.61-.615l-.04-13.125c0-.41.21-.616.62-.616h1.14c.41 0 .62.206.62.616v1.64h.06c.43-.82.95-1.44 1.54-1.859s1.33-.629 2.21-.629c.59 0 1 .05 1.23.15.21.082.29.219.24.411l-.31 1.121c-.05.164-.17.228-.36.191a4.6 4.6 0 0 0-.9-.096c-1.07 0-1.95.483-2.64 1.45-.69.957-1.03 2.265-1.03 3.923l.02 6.823c0 .41-.2.615-.61.615h-1.18zm8.47-3.828c0-1.623.75-2.812 2.26-3.569 1.52-.756 3.79-1.198 6.8-1.326v-.929c0-.857-.2-1.595-.59-2.215-.39-.629-1.15-.944-2.3-.944-.73 0-1.31.073-1.75.219a4.72 4.72 0 0 0-1.2.561 4.75 4.75 0 0 0-1.02.888c-.25.274-.48.287-.7.041l-.72-.82c-.2-.228-.13-.501.21-.82.48-.456.95-.798 1.4-1.026.46-.227 1.02-.419 1.7-.574a8.8 8.8 0 0 1 2.07-.246c1.91 0 3.27.492 4.08 1.477.82.975 1.23 2.315 1.23 4.019l.02 8.477c0 .41-.2.615-.61.615h-1.23c-.36 0-.54-.205-.54-.615v-.67h-.03c-.71.565-1.42.961-2.11 1.189-.68.219-1.45.328-2.3.328-1.49 0-2.65-.355-3.46-1.066-.8-.72-1.21-1.718-1.21-2.994zm2.49.054c0 .566.12 1.021.36 1.368.23.337.56.556.98.656a6.22 6.22 0 0 0 1.32.137c.7 0 1.36-.069 1.99-.205s1.28-.497 1.94-1.081l-.01-4.033c-1.84.137-3.15.306-3.94.506-.78.192-1.42.529-1.91 1.012-.49.474-.73 1.021-.73 1.64zm13.52 3.774c-.41 0-.62-.205-.62-.615l-.04-13.125c0-.41.21-.616.62-.616h1.15c.41 0 .61.206.61.616l.01 1.093h.05c.59-.656 1.23-1.143 1.92-1.462.7-.319 1.36-.479 2-.479 1.18 0 2.08.296 2.71.889.64.583 1.05 1.171 1.23 1.763h.06c.5-.747 1.13-1.376 1.89-1.886.77-.511 1.58-.766 2.45-.766 1.45 0 2.54.469 3.28 1.408.75.93 1.12 2.206 1.12 3.828l.02 8.737c.01.41-.2.615-.61.615h-1.17c-.42 0-.62-.205-.62-.615l-.02-7.944c-.01-1.786-.23-2.939-.68-3.459-.45-.528-1.14-.793-2.07-.793-.91 0-1.67.392-2.28 1.176-.61.775-.91 1.946-.9 3.514l.01 7.506c.01.41-.2.615-.61.615h-1.17c-.41 0-.62-.205-.62-.615l-.02-7.944c-.01-1.786-.23-2.939-.68-3.459-.45-.528-1.14-.793-2.07-.793-.91 0-1.67.356-2.28 1.067-.61.702-.91 1.909-.9 3.623l.01 7.506c.01.41-.2.615-.61.615h-1.17zm21.74-6.604c-.41 0-.61-.159-.61-.478l-.01-.957c0-.319.21-.479.62-.479h6.53c.41 0 .62.16.62.479v.957c0 .319-.2.478-.61.478h-6.54zm9.08-.574c-.01-2.142.52-3.91 1.57-5.304 1.07-1.404 2.69-2.106 4.88-2.106 1.47 0 2.6.264 3.38.793.78.52 1.35 1.053 1.7 1.6.19.3.15.542-.12.724l-.86.561c-.28.191-.55.068-.83-.369-.26-.42-.64-.78-1.12-1.08-.47-.301-1.19-.452-2.15-.452-1.25 0-2.21.461-2.89 1.381s-1.02 2.338-1.02 4.252c.01 1.914.35 3.332 1.04 4.252s1.65 1.381 2.9 1.381c1.01 0 1.79-.191 2.32-.574.54-.392.93-.816 1.18-1.272.23-.428.5-.551.8-.369l.92.547c.27.164.32.41.13.738-.23.392-.75.944-1.56 1.655-.8.701-2.06 1.052-3.78 1.052-2.19 0-3.82-.697-4.89-2.091-1.06-1.404-1.59-3.177-1.6-5.319zm15.46 12.647c-.41 0-.62-.205-.62-.616l-.05-18.593c0-.41.2-.616.61-.616h1.15c.33 0 .51.206.54.616l.08 1.093h.03c.5-.601 1.06-1.075 1.69-1.421s1.47-.52 2.51-.52c1.83 0 3.22.747 4.17 2.242.95 1.486 1.43 3.209 1.43 5.168.01 1.96-.46 3.687-1.41 5.182-.94 1.485-2.32 2.228-4.15 2.228-1.04 0-1.88-.173-2.51-.519s-1.2-.821-1.7-1.422h-.03l.03.834.01 5.728c.01.411-.2.616-.61.616h-1.17zm1.76-11.075c0 1.368.33 2.388.98 3.063.65.665 1.48.998 2.46.998 1.39 0 2.36-.52 2.94-1.559s.86-2.397.86-4.074-.3-3.035-.89-4.074c-.57-1.039-1.55-1.559-2.94-1.559-.98 0-1.8.338-2.46 1.012-.64.665-.96 1.682-.96 3.049l.01 3.144zm12.88.602l-.02-8.736c-.01-.41.2-.616.61-.616h1.17c.41 0 .62.206.62.616l.02 8.08c.01 1.786.31 2.921.9 3.404.59.474 1.33.711 2.2.711 1.15 0 2.03-.351 2.64-1.053.61-.711.91-1.923.91-3.636l-.02-7.506c-.01-.41.2-.616.61-.616h1.18c.41 0 .61.206.61.616l.04 13.125c0 .41-.21.615-.62.615h-1.15c-.41 0-.61-.205-.61-.615l-.01-1.094h-.05c-.59.656-1.23 1.144-1.91 1.463s-1.52.478-2.5.478c-1.6 0-2.76-.465-3.5-1.394-.75-.939-1.12-2.22-1.12-3.842z"/></g><path stroke="#fff" d="M1111.5 75v265"/></svg>