<svg width="2556" height="1278" viewBox="0 0 2556 1278" fill="none" xmlns="http://www.w3.org/2000/svg">
<path d="M90 410.309H176.313V496.603H90V410.309Z" fill="#0078BF"/>
<path d="M174.055 548.882H92.2598V859.282H174.055V548.882ZM716.21 862.427V786.327C704.158 786.252 694.213 785.62 686.624 784.414C678.18 783.088 671.731 780.229 667.429 775.913C663.112 771.612 660.252 765.365 658.908 757.354C657.644 749.7 656.994 739.618 656.994 727.381V618.798H716.21V548.882H656.994V427.936H575.203V728.013C575.203 753.321 577.4 774.852 581.747 792.019C586.05 808.983 593.369 822.829 603.538 833.198C613.703 843.567 627.145 851.095 643.477 855.585C659.966 860.138 680.964 862.427 705.865 862.427H716.21ZM1185 404H1103.21V859.282H1185V404ZM496.334 579.438C473.678 554.981 441.676 542.572 401.2 542.572C381.687 542.572 363.632 546.606 347.534 554.523C331.457 562.459 317.778 573.604 306.901 587.643L302.458 593.395L302.427 588.225V548.882H221.739V859.282H303.041V693.917L303.122 705.379C303.122 703.497 303.136 701.629 303.203 699.796C304.041 670.791 311.279 649.148 324.765 635.427C339.157 620.788 356.628 613.358 376.676 613.358C400.282 613.358 418.29 620.586 430.23 634.844C441.915 648.816 447.876 668.828 448.001 694.329V694.974C448.001 695.024 448.015 695.069 448.015 695.118H448.001L448.015 859.282H530.55V683.073C530.55 638.828 519.04 603.971 496.334 579.438ZM1060.58 703.448C1060.58 681.209 1056.61 660.086 1048.77 640.674C1040.94 621.312 1029.86 604.065 1015.85 589.425C1001.84 574.823 984.827 563.235 965.254 554.998C945.677 546.763 923.809 542.572 900.302 542.572C878.035 542.572 856.836 546.857 837.245 555.299C817.655 563.755 800.403 575.36 785.967 589.789C771.531 604.222 759.927 621.469 751.483 641.042C743.039 660.61 738.755 681.809 738.755 704.08C738.755 726.355 742.833 747.585 750.869 767.153C758.914 786.74 770.204 803.986 784.402 818.388C798.633 832.804 816.072 844.405 836.281 852.848C856.486 861.289 878.874 865.573 902.812 865.573C972.004 865.573 1015.17 834.098 1040.94 804.668L982.075 759.836C969.664 774.552 940.223 794.519 903.448 794.519C880.379 794.519 861.371 789.173 846.984 778.647C832.566 768.117 822.634 753.621 817.48 735.571L816.66 732.677H1060.58V703.448ZM817.323 674.963C817.305 652.249 843.412 612.57 899.665 612.507C955.923 612.507 982.075 652.154 982.075 674.868L817.323 674.963Z" fill="#0EC2F3"/>
<path d="M1819.12 386.08H2019.34V593.474L2145.33 718.105V263H1698.94L1819.12 386.08Z" fill="#00A774"/>
<path d="M1994.53 593.474L1868.74 721.594H1689.64V541.335L1819.12 410.502V593.474H1994.53Z" fill="#00A774"/>
<path d="M1587 767.314C1586.58 768.297 1586.23 769.162 1586.23 769.28C1586.23 769.359 1585.8 770.381 1585.26 771.56C1584.72 772.74 1584.29 773.959 1584.29 774.273C1584.29 774.627 1583.05 777.733 1581.58 781.272C1580.06 784.771 1578.51 788.702 1578.09 790C1577.66 791.297 1576.19 795.032 1574.83 798.296C1573.47 801.559 1572.23 804.704 1572.12 805.333C1571.96 805.923 1571.46 807.338 1570.95 808.479C1569.21 812.41 1566.07 820.077 1566.07 820.431C1566.07 820.824 1564.63 824.559 1563.35 827.429C1561.69 831.282 1559.9 835.764 1559.71 836.786C1559.56 837.376 1558.93 839.027 1558.31 840.443C1557.66 841.819 1557.15 843.077 1557.15 843.156C1557.15 843.234 1556.65 844.492 1555.99 845.908C1555.37 847.323 1554.48 849.525 1554.05 850.783C1553.16 853.456 1551.99 856.523 1550.99 858.843C1549.09 863.207 1547.46 867.217 1547.46 867.65C1547.46 868.082 1545.44 873.115 1543.39 877.754C1542.92 878.815 1542.3 880.427 1542.03 881.292C1541.53 882.826 1537.57 892.694 1536.18 895.918C1535.75 896.822 1535.44 897.805 1535.44 898.12C1535.44 898.434 1534.08 901.933 1532.38 905.904C1530.71 909.875 1529.24 913.65 1529.08 914.24C1528.93 914.829 1527.53 918.407 1525.94 922.181C1524.35 925.956 1523.03 929.337 1523.03 929.652C1523.03 929.966 1522.68 930.988 1522.26 931.932C1520.51 935.785 1516.83 944.906 1516.83 945.378C1516.83 945.85 1513.19 954.932 1511.6 958.431C1511.29 959.099 1511.01 959.925 1511.01 960.24C1511.01 960.554 1509.66 964.053 1507.95 968.024C1506.28 971.995 1504.81 975.77 1504.66 976.359C1504.5 976.949 1503.1 980.527 1501.52 984.301C1499.93 988.076 1498.61 991.457 1498.61 991.771C1498.61 992.086 1498.18 993.265 1497.68 994.406C1495.85 998.534 1492.83 1005.96 1492.06 1008.28C1491.63 1009.58 1491.05 1011.27 1490.74 1012.02C1490.39 1012.77 1490.08 1013.55 1490 1013.79C1489.92 1014.06 1500.74 1014.18 1521.95 1014.22C1555.52 1014.22 1554.13 1014.3 1554.63 1012.81C1554.67 1012.69 1554.9 1012.06 1555.17 1011.43C1555.45 1010.76 1555.72 1010.05 1555.76 1009.86C1555.83 1009.62 1556.1 1008.91 1556.38 1008.28C1556.65 1007.62 1556.92 1007.03 1556.96 1006.91C1557 1006.79 1557.23 1006.16 1557.5 1005.53C1557.77 1004.86 1558.04 1004.16 1558.08 1003.96C1558.16 1003.72 1558.43 1003.02 1558.7 1002.39C1558.97 1001.72 1559.25 1001.13 1559.28 1001.01C1559.32 1000.89 1559.48 1000.54 1559.59 1000.22C1559.75 999.91 1559.9 999.202 1559.98 998.652C1560.14 997.59 1560.33 997.04 1561.45 994.445C1561.88 993.541 1562.19 992.597 1562.19 992.361C1562.19 992.164 1562.35 991.653 1562.58 991.26C1563.35 989.845 1564.52 986.857 1564.52 986.306C1564.52 985.992 1564.67 985.638 1564.83 985.52C1565.02 985.402 1565.49 984.105 1565.87 982.65C1566.26 981.195 1566.81 979.544 1567.12 978.994C1567.39 978.443 1567.62 977.814 1567.62 977.539C1567.62 977.303 1567.85 976.595 1568.16 975.966C1569.05 974.197 1569.95 972.035 1569.95 971.602C1569.95 971.366 1570.22 970.698 1570.53 970.069C1570.84 969.479 1571.38 968.26 1571.73 967.356C1572.08 966.491 1572.54 965.744 1572.81 965.705C1573.05 965.665 1597.51 965.508 1627.17 965.39L1681.06 965.115L1681.72 966.845C1682.07 967.828 1682.38 968.811 1682.38 969.086C1682.38 969.361 1682.54 969.872 1682.77 970.265C1683.66 971.838 1685.1 975.258 1685.1 975.73C1685.1 976.005 1685.29 976.241 1685.48 976.241C1685.72 976.241 1685.87 976.477 1685.87 976.713C1685.87 977.539 1687.93 982.532 1688.27 982.532C1688.43 982.532 1688.58 983.004 1688.58 983.554C1688.58 984.616 1690.1 988.547 1690.6 988.744C1690.76 988.823 1690.91 989.176 1690.91 989.57C1690.91 989.923 1691.07 990.395 1691.22 990.592C1691.38 990.828 1691.84 991.968 1692.27 993.147C1692.66 994.327 1693.28 995.742 1693.66 996.293C1694.01 996.843 1694.44 997.944 1694.56 998.73C1694.67 999.517 1695.37 1001.44 1696.11 1003.06C1696.84 1004.63 1697.81 1006.79 1698.28 1007.89C1698.74 1008.95 1699.36 1010.37 1699.63 1011.04C1699.91 1011.67 1700.25 1012.61 1700.41 1013.08L1700.64 1013.99L1720.69 1014.06C1743.06 1014.1 1745.19 1014.1 1757.67 1014.02L1766.47 1013.99L1765.93 1012.88C1764.69 1010.53 1762.25 1005.02 1762.25 1004.63C1762.25 1004.2 1761.2 1001.84 1757.75 994.445C1756.82 992.44 1756.05 990.592 1756.05 990.356C1756.05 989.884 1755.58 988.862 1752.48 982.178C1751.63 980.37 1750.54 977.775 1750.04 976.477C1749.07 973.843 1745.65 966.294 1744.41 963.975C1743.99 963.188 1743.64 962.245 1743.64 961.891C1743.64 961.537 1742.98 959.807 1742.13 958.038C1738.37 949.939 1737.44 947.855 1737.44 947.305C1737.44 946.99 1737.09 946.046 1736.66 945.26C1735.34 942.783 1732.01 935.431 1731.08 932.836C1730.3 930.752 1728.29 926.27 1725.96 921.434C1725.65 920.805 1725.42 920.058 1725.42 919.783C1725.42 919.311 1724.1 916.402 1720.34 908.381C1719.72 907.084 1719.21 905.786 1719.21 905.511C1719.21 905.039 1718.44 903.31 1714.91 895.761C1713.86 893.52 1713.01 891.515 1713.01 891.239C1713.01 890.807 1712.54 889.785 1709.44 883.101C1708.59 881.292 1707.47 878.698 1707 877.361C1706.11 874.962 1703.9 870.009 1701.73 865.605C1701.11 864.308 1700.6 863.05 1700.6 862.735C1700.6 862.421 1699.94 860.73 1699.09 858.961C1695.83 851.962 1694.79 849.603 1694.79 849.171C1694.79 848.935 1694.28 847.638 1693.66 846.34C1689.86 838.241 1688.58 835.41 1688.58 834.899C1688.58 834.624 1688.31 833.877 1688 833.248C1686.68 830.732 1683.2 822.908 1682.61 821.217C1682.07 819.605 1680.71 816.499 1677.3 809.304C1676.68 808.007 1676.18 806.709 1676.18 806.434C1676.18 805.962 1675.4 804.232 1671.87 796.684C1670.83 794.443 1669.97 792.398 1669.97 792.084C1669.97 791.769 1669.55 790.668 1669.04 789.607C1666.83 785.046 1664.93 780.8 1664.04 778.441C1663.5 777.065 1662.34 774.313 1661.44 772.386C1660.55 770.42 1659.47 768.101 1659.08 767.157L1658.38 765.506H1623.06H1587.74L1587 767.314ZM1624.38 827.114C1624.5 827.508 1624.77 828.097 1624.96 828.412C1625.16 828.726 1625.78 830.22 1626.36 831.754C1626.94 833.248 1627.56 834.82 1627.75 835.174C1627.95 835.568 1628.1 836.039 1628.1 836.236C1628.1 836.472 1628.8 838.123 1629.61 839.971C1630.47 841.779 1631.2 843.627 1631.28 844.021C1631.36 844.414 1631.51 844.807 1631.63 844.925C1632.1 845.357 1633.53 848.738 1633.53 849.485C1633.53 849.879 1633.96 851.019 1634.5 851.962C1635.04 852.867 1635.47 853.81 1635.47 854.007C1635.47 854.361 1636.59 856.916 1638.61 861.202C1639.04 862.067 1639.35 863.05 1639.35 863.443C1639.35 863.797 1639.69 864.78 1640.08 865.645C1640.51 866.47 1641.17 867.964 1641.56 868.986C1641.94 870.048 1642.37 870.874 1642.56 870.874C1642.72 870.874 1642.83 871.188 1642.83 871.542C1642.83 871.935 1643.3 873.115 1643.8 874.215C1644.35 875.277 1644.77 876.417 1644.77 876.653C1644.77 876.928 1644.97 877.164 1645.16 877.164C1645.39 877.164 1645.55 877.597 1645.55 878.147C1645.55 878.698 1645.9 879.916 1646.32 880.781C1646.75 881.686 1647.1 882.747 1647.1 883.14C1647.1 883.533 1647.29 883.848 1647.49 883.848C1647.72 883.848 1647.88 884.005 1647.88 884.241C1647.88 884.438 1648.3 885.539 1648.81 886.679C1650.74 891.043 1651.29 892.34 1651.71 893.874C1651.98 894.739 1652.61 896.311 1653.07 897.412C1653.57 898.474 1654.23 900.007 1654.58 900.754C1654.89 901.501 1655.55 902.995 1656.02 904.096C1656.48 905.157 1657.14 906.612 1657.41 907.32C1657.72 907.988 1657.96 908.814 1657.96 909.168C1657.96 909.522 1658.54 911.094 1659.23 912.667C1659.97 914.2 1661.1 916.874 1661.76 918.564L1662.96 921.631L1625.81 921.592L1588.63 921.513L1589.56 919.115C1590.07 917.817 1590.49 916.363 1590.49 915.891C1590.49 915.419 1590.61 914.908 1590.8 914.751C1590.96 914.593 1591.08 914.318 1591.11 914.2C1591.11 914.043 1591.35 913.414 1591.58 912.824C1591.85 912.195 1592.05 911.487 1592.05 911.212C1592.05 910.976 1592.2 910.583 1592.39 910.347C1592.59 910.151 1593.36 908.303 1594.14 906.258C1594.91 904.214 1595.73 902.209 1595.92 901.855C1596.12 901.462 1596.46 900.361 1596.7 899.339C1596.93 898.316 1597.43 896.783 1597.82 895.879C1598.21 895.014 1598.83 893.363 1599.22 892.301C1599.61 891.2 1600.03 890.139 1600.19 889.942C1600.54 889.431 1602.75 883.18 1603.13 881.686C1603.52 880.074 1603.37 880.545 1605.19 876.26C1605.61 875.238 1606 874.255 1606.04 874.098C1606.08 873.94 1606.31 873.272 1606.55 872.643C1606.74 871.974 1606.89 871.345 1606.86 871.149C1606.82 870.992 1606.93 870.874 1607.09 870.874C1607.28 870.874 1607.75 869.851 1608.14 868.593C1608.52 867.374 1610.19 862.774 1611.86 858.41C1613.56 854.046 1614.92 850.232 1614.92 849.918C1614.92 849.368 1615.62 847.48 1616.7 845.043C1617.01 844.374 1617.25 843.627 1617.25 843.391C1617.25 843.156 1617.4 842.644 1617.63 842.251C1618.14 841.308 1619.65 837.769 1619.73 837.258C1619.81 837.062 1620.12 836.197 1620.46 835.332C1620.81 834.506 1621.12 833.602 1621.12 833.366C1621.16 833.13 1621.47 832.029 1621.86 830.967C1623.57 826.289 1623.91 825.778 1624.38 827.114Z" fill="black"/>
<path d="M1794.12 889.825L1794.23 1014.18L1824.48 1014.3L1854.76 1014.38L1854.83 937.437C1854.87 895.132 1855.03 860.416 1855.1 860.298C1855.3 860.101 1858.28 863.365 1861.58 867.375C1862.7 868.751 1864.22 870.363 1864.91 870.992C1865.57 871.621 1866.15 872.329 1866.15 872.604C1866.15 872.84 1867.47 874.452 1869.1 876.143C1870.69 877.872 1872.24 879.72 1872.55 880.271C1872.86 880.821 1874.34 882.512 1875.81 884.006C1877.32 885.539 1878.56 886.915 1878.56 887.073C1878.56 887.466 1878.76 887.702 1882.17 891.397C1883.6 892.931 1884.76 894.346 1884.76 894.503C1884.76 894.661 1885.62 895.722 1886.7 896.823C1887.75 897.924 1889.11 899.496 1889.69 900.283C1890.27 901.069 1891.63 902.72 1892.71 903.939C1893.76 905.119 1895.19 906.77 1895.81 907.596C1896.47 908.421 1898.37 910.702 1900.08 912.707C1901.79 914.712 1903.76 917.071 1904.42 917.936C1905.12 918.801 1906.17 920.02 1906.79 920.649C1907.41 921.278 1908.41 922.497 1909 923.361C1909.62 924.226 1910.66 925.445 1911.32 926.114C1911.98 926.743 1913.26 928.237 1914.11 929.338C1915.01 930.478 1916.91 932.758 1918.34 934.37L1920.94 937.319H1925.63H1930.32L1936.91 929.377C1940.56 925.013 1943.93 921.081 1944.39 920.609C1944.9 920.177 1945.56 919.391 1945.83 918.84C1946.14 918.29 1947.42 916.717 1948.74 915.302C1950.05 913.886 1951.53 912.117 1952.03 911.37C1952.54 910.623 1954.01 908.854 1955.33 907.438C1956.65 906.023 1957.96 904.411 1958.27 903.821C1958.55 903.232 1959.13 902.524 1959.51 902.249C1960.14 901.777 1966.22 894.661 1970.8 888.999C1971.96 887.584 1973.82 885.382 1974.98 884.163C1976.11 882.944 1977.04 881.804 1977.04 881.608C1977.04 881.45 1978.09 880.153 1979.37 878.777C1980.61 877.401 1982.35 875.396 1983.2 874.255C1984.06 873.155 1985.65 871.385 1986.69 870.284C1987.78 869.223 1988.67 868.161 1988.67 867.886C1988.67 867.65 1989.52 866.589 1990.57 865.527C1991.62 864.466 1993.09 862.814 1993.87 861.91C1994.64 860.966 1995.26 860.259 1995.3 860.337C1995.3 860.377 1995.42 895.054 1995.53 937.319C1995.65 979.584 1995.8 1014.26 1995.88 1014.34C1996.23 1014.69 2055.55 1014.58 2056.05 1014.26C2056.4 1013.95 2056.52 988.587 2056.52 889.707V765.506H2029.88H2003.21L2002.4 766.411C2001.97 766.882 2001.39 767.669 2001.12 768.18C2000.84 768.691 1999.33 770.46 1997.74 772.112C1996.15 773.763 1994.87 775.296 1994.87 775.532C1994.87 775.729 1993.48 777.419 1991.77 779.267C1990.07 781.076 1988.67 782.806 1988.67 783.041C1988.67 783.317 1988.24 783.867 1987.74 784.26C1987.2 784.653 1985.1 787.012 1983.05 789.489C1980.95 791.966 1978.63 794.758 1977.85 795.623C1977.08 796.527 1975.88 797.982 1975.14 798.925C1974.4 799.83 1973.05 801.324 1972.12 802.267C1971.22 803.211 1970.45 804.115 1970.45 804.312C1970.45 804.665 1969.13 806.277 1966.14 809.423C1965.1 810.524 1964.24 811.585 1964.24 811.782C1964.24 811.978 1963.24 813.197 1962 814.495C1960.72 815.753 1959.13 817.601 1958.39 818.583C1957.65 819.566 1956.06 821.414 1954.86 822.672C1953.66 823.97 1952.46 825.385 1952.23 825.896C1951.95 826.368 1950.44 828.137 1948.89 829.867C1947.3 831.558 1946.02 833.052 1946.02 833.209C1946.02 833.327 1945.56 833.956 1944.98 834.585C1943.54 836.079 1941.56 838.36 1939.43 840.994C1936.33 844.847 1936.14 845.043 1935.21 845.869C1934.7 846.341 1933.89 847.284 1933.42 847.992C1932.92 848.739 1931.48 850.508 1930.17 851.924C1928.89 853.378 1927.26 855.226 1926.56 856.013L1925.28 857.507L1918.73 849.643C1915.12 845.319 1911.48 841.151 1910.66 840.365C1909.85 839.618 1909.19 838.753 1909.19 838.517C1909.19 838.242 1907.79 836.551 1906.09 834.782C1904.38 832.973 1902.99 831.361 1902.99 831.165C1902.99 831.007 1901.82 829.631 1900.43 828.177C1899.03 826.683 1897.48 824.835 1896.98 824.088C1896.47 823.341 1894.85 821.375 1893.33 819.763C1891.82 818.151 1890.58 816.618 1890.58 816.342C1890.58 816.067 1890.27 815.674 1889.92 815.477C1889.53 815.281 1888.25 813.944 1887.09 812.489C1885.93 811.035 1884.61 809.501 1884.18 809.03C1883.76 808.558 1882.44 807.024 1881.28 805.609C1880.11 804.194 1878.76 802.621 1878.33 802.071C1877.86 801.52 1876.7 800.144 1875.73 798.965C1874.76 797.824 1873.6 796.606 1873.17 796.291C1872.71 795.977 1872.36 795.505 1872.36 795.23C1872.36 794.994 1870.96 793.264 1869.26 791.455C1867.55 789.607 1866.15 787.917 1866.15 787.72C1866.15 787.484 1864.76 785.872 1863.05 784.064C1861.35 782.255 1859.95 780.643 1859.95 780.407C1859.95 780.211 1859.1 779.228 1858.09 778.166C1857.04 777.144 1855.49 775.335 1854.6 774.156C1853.71 772.976 1851.85 770.735 1850.49 769.241C1849.1 767.708 1847.93 766.253 1847.93 765.978C1847.93 765.624 1842.27 765.506 1820.99 765.506H1794.04L1794.12 889.825Z" fill="black"/>
<path d="M2102.5 799.397C2102.35 818.072 2102.23 873.784 2102.15 923.243C2102.11 974.119 2101.92 1013.2 2101.73 1013.2C2101.53 1013.2 2101.61 1013.44 2101.84 1013.71C2102.19 1014.18 2111.84 1014.22 2159.14 1014.14C2190.47 1014.06 2216.76 1013.95 2217.61 1013.83C2218.46 1013.75 2220.91 1013.63 2223.04 1013.59C2225.17 1013.55 2228.58 1013.24 2230.6 1012.96C2232.62 1012.65 2235.25 1012.29 2236.41 1012.18C2237.58 1012.02 2238.9 1011.78 2239.32 1011.63C2239.75 1011.51 2240.64 1011.39 2241.26 1011.39C2241.92 1011.43 2242.5 1011.31 2242.62 1011.15C2242.73 1011.04 2243.59 1010.8 2244.56 1010.64C2245.49 1010.49 2246.42 1010.29 2246.61 1010.17C2246.81 1010.05 2247.5 1009.94 2248.16 1009.86C2248.86 1009.82 2249.67 1009.66 2249.98 1009.54C2250.95 1009.19 2253.32 1008.48 2254.09 1008.28C2260.26 1006.95 2262.12 1006.48 2263.32 1005.97C2264.14 1005.61 2264.87 1005.38 2265.03 1005.41C2265.18 1005.45 2265.69 1005.3 2266.19 1005.02C2266.66 1004.75 2267.24 1004.63 2267.43 1004.75C2267.66 1004.86 2267.82 1004.82 2267.82 1004.63C2267.82 1004.39 2268.25 1004.12 2268.79 1004C2269.33 1003.84 2270.69 1003.33 2271.81 1002.78C2272.9 1002.27 2274.53 1001.64 2275.38 1001.44C2276.23 1001.21 2278.52 1000.19 2280.42 999.203C2282.36 998.22 2285.5 996.608 2287.4 995.625C2289.34 994.642 2290.97 993.738 2291.08 993.58C2291.2 993.462 2291.9 992.991 2292.63 992.558C2293.37 992.165 2294.76 991.221 2295.7 990.514C2296.63 989.767 2297.94 988.941 2298.6 988.666C2299.26 988.351 2300.5 987.447 2301.36 986.661C2302.21 985.874 2303.64 984.656 2304.57 983.987C2306.05 982.886 2307.4 981.628 2312.44 976.753C2314.89 974.433 2319.46 969.165 2320.59 967.474C2321.17 966.57 2322.25 965.115 2323.03 964.29C2323.77 963.425 2324.93 961.656 2325.63 960.358C2326.29 959.021 2326.98 957.881 2327.1 957.763C2327.56 957.449 2331.79 949.979 2331.79 949.507C2331.79 949.271 2332.41 947.698 2333.19 946.047C2333.96 944.396 2334.74 942.666 2334.93 942.233C2335.09 941.801 2335.67 940.425 2336.25 939.167C2337.06 937.319 2338.27 933.151 2338.96 929.849C2339.04 929.534 2339.27 928.748 2339.51 928.119C2340.63 925.209 2342.96 913.532 2343.69 907.242C2344.08 903.703 2344.12 877.794 2343.69 874.413C2343.23 870.402 2341.17 859.748 2340.13 856.013C2339.62 854.125 2338.92 851.53 2338.58 850.233C2337.1 844.768 2336.33 842.606 2333.19 835.686C2332.49 834.153 2331.64 832.226 2331.25 831.361C2330.09 828.727 2323.96 818.505 2322.25 816.382C2321.36 815.281 2320.16 813.63 2319.58 812.686C2319.04 811.782 2317.6 810.052 2316.4 808.833C2315.24 807.575 2314 806.159 2313.65 805.609C2313.3 805.059 2312.41 804.076 2311.71 803.447C2310.97 802.778 2309.11 800.97 2307.56 799.397C2306.05 797.864 2304.61 796.566 2304.42 796.566C2304.22 796.566 2303.02 795.583 2301.74 794.404C2300.46 793.224 2299.3 792.241 2299.18 792.241C2299.07 792.241 2298.45 791.809 2297.83 791.259C2297.21 790.708 2296.51 790.276 2296.28 790.276C2296.01 790.276 2295.31 789.804 2294.69 789.175C2294.03 788.585 2293.02 787.838 2292.4 787.523C2291.78 787.209 2291.2 786.855 2291.08 786.737C2290.46 786.108 2288.21 784.771 2285.85 783.631C2284.37 782.884 2283.06 782.137 2282.94 781.98C2282.09 780.682 2260.88 772.19 2257.16 771.679C2256.3 771.561 2254.06 771.011 2252.12 770.46C2250.22 769.949 2248.08 769.438 2247.39 769.32C2246.73 769.202 2246.03 769.045 2245.84 768.927C2245.68 768.809 2244.67 768.612 2243.63 768.494C2242.58 768.337 2241.61 768.141 2241.49 768.062C2241.26 767.944 2240.21 767.787 2236.61 767.236C2235.56 767.118 2234.36 766.922 2233.93 766.843C2233.55 766.764 2232.23 766.607 2231.03 766.489C2229.82 766.332 2228.43 766.135 2227.89 765.978C2227.34 765.86 2198.96 765.664 2164.84 765.624L2102.73 765.467L2102.5 799.397ZM2216.25 812.057C2216.99 812.214 2218.93 812.568 2220.52 812.883C2222.11 813.197 2224.12 813.59 2224.98 813.708C2225.83 813.826 2226.84 814.101 2227.23 814.298C2227.58 814.494 2227.89 814.573 2227.89 814.494C2227.89 814.377 2228.35 814.455 2228.89 814.691C2229.47 814.888 2230.56 815.163 2231.34 815.281C2233.58 815.635 2238.93 817.718 2244.36 820.392C2250.14 823.223 2251.11 823.812 2252.93 825.503C2253.67 826.171 2254.75 826.958 2255.33 827.272C2255.92 827.587 2257.7 829.159 2259.33 830.811C2260.96 832.462 2262.47 833.877 2262.66 833.956C2262.86 834.035 2263.79 835.175 2264.8 836.472C2265.76 837.77 2266.89 839.185 2267.32 839.618C2268.67 841.112 2270.53 843.903 2270.53 844.493C2270.53 844.807 2270.8 845.358 2271.11 845.712C2271.66 846.301 2274.84 852.671 2276.04 855.541C2276.58 856.799 2277.24 859.079 2277.71 861.36C2277.82 861.871 2278.17 863.011 2278.44 863.915C2279.18 866.117 2280.15 870.52 2281 875.592C2281.62 879.131 2281.7 881.372 2281.58 890.925C2281.51 897.098 2281.39 902.484 2281.27 902.917C2281.2 903.349 2281 904.49 2280.85 905.472C2279.37 914.201 2276.19 924.266 2273.17 930.045C2272.01 932.208 2270.69 934.802 2270.22 935.785C2269.72 936.808 2268.94 938.066 2268.48 938.577C2266.93 940.307 2264.87 943.02 2264.14 944.278C2263.71 944.985 2263.24 945.575 2263.01 945.575C2262.82 945.575 2261.42 946.873 2259.91 948.485C2258.4 950.057 2256.89 951.512 2256.54 951.709C2255.96 952.023 2254.83 952.927 2252 955.326C2251.42 955.797 2249.83 956.78 2248.43 957.488C2247.04 958.196 2244.52 959.532 2242.81 960.397C2238.39 962.678 2237.27 963.15 2234.67 963.897C2230.02 965.155 2229.63 965.273 2229.05 965.391C2228.74 965.469 2227.42 965.823 2226.14 966.177C2224.86 966.491 2223.23 966.885 2222.57 967.003C2219.78 967.474 2219.08 967.553 2217.22 967.828C2216.18 967.946 2215.01 968.143 2214.7 968.182C2214.35 968.261 2202.68 968.418 2188.73 968.575L2163.33 968.89L2163.45 890.139L2163.53 811.428L2189.23 811.624C2203.34 811.742 2215.52 811.939 2216.25 812.057Z" fill="black"/>
</svg>
