<svg width="1019" height="1543" viewBox="0 0 1019 1543" fill="none" xmlns="http://www.w3.org/2000/svg">
<path d="M279.364 1510C278.265 1510 277.716 1509.45 277.716 1508.35V1473.2C277.716 1472.1 278.265 1471.55 279.364 1471.55H282.513C283.612 1471.55 284.161 1472.1 284.161 1473.2V1508.35C284.161 1509.45 283.612 1510 282.513 1510H279.364ZM279.364 1464.59C278.265 1464.59 277.716 1464.04 277.716 1462.94V1459.79C277.716 1458.69 278.265 1458.14 279.364 1458.14H282.513C283.612 1458.14 284.161 1458.69 284.161 1459.79V1462.94C284.161 1464.04 283.612 1464.59 282.513 1464.59H279.364ZM296.209 1510C295.111 1510 294.562 1509.45 294.562 1508.35V1473.2C294.562 1472.1 295.111 1471.55 296.209 1471.55H299.286C300.384 1471.55 300.934 1472.1 300.934 1473.2V1476.13H301.08C302.667 1474.37 304.376 1473.06 306.207 1472.21C308.038 1471.35 310.321 1470.93 313.055 1470.93C317.499 1470.93 320.685 1472.18 322.613 1474.7C324.566 1477.19 325.543 1480.61 325.543 1484.95V1508.35C325.543 1509.45 324.994 1510 323.895 1510H320.746C319.647 1510 319.098 1509.45 319.098 1508.35V1486.71C319.098 1481.92 318.304 1478.9 316.717 1477.63C315.13 1476.33 313.116 1475.69 310.675 1475.69C307.501 1475.69 305.096 1476.64 303.46 1478.54C301.825 1480.42 301.007 1483.66 301.007 1488.25V1508.35C301.007 1509.45 300.458 1510 299.359 1510H296.209ZM334.002 1476.38C332.904 1476.38 332.354 1475.95 332.354 1475.1V1472.83C332.354 1471.98 332.904 1471.55 334.002 1471.55H338.324V1468.25C338.324 1467.76 338.446 1467.3 338.69 1466.86L341.253 1462.21C341.717 1461.35 342.096 1460.93 342.389 1460.93H343.67C344.403 1460.93 344.769 1461.35 344.769 1462.21V1471.55H352.569C353.668 1471.55 354.217 1471.98 354.217 1472.83V1475.1C354.217 1475.95 353.668 1476.38 352.569 1476.38H344.769V1499.71C344.769 1502.27 345.147 1503.95 345.904 1504.73C346.686 1505.48 347.613 1505.86 348.688 1505.86C349.518 1505.86 350.506 1505.62 351.654 1505.13C352.826 1504.64 353.631 1504.23 354.071 1503.88C354.51 1503.54 354.852 1503.65 355.096 1504.21L356.305 1507.03C356.5 1507.52 356.354 1507.91 355.865 1508.21C354.913 1508.77 353.521 1509.32 351.69 1509.85C349.859 1510.37 348.028 1510.62 346.197 1510.62C343.658 1510.62 341.705 1509.71 340.338 1507.88C338.995 1506.04 338.324 1503.46 338.324 1500.11V1476.38H334.002ZM361.542 1490.77C361.542 1484.72 363.055 1479.9 366.083 1476.31C369.11 1472.72 373.443 1470.93 379.083 1470.93C383.771 1470.93 387.652 1472.57 390.729 1475.87C393.829 1479.14 395.379 1484.38 395.379 1491.58C395.379 1492.68 394.879 1493.23 393.878 1493.23H368.353C368.768 1497.94 370.038 1501.22 372.162 1503.08C374.286 1504.91 376.69 1505.83 379.376 1505.83C382.208 1505.83 384.381 1505.35 385.895 1504.4C387.408 1503.44 388.519 1502.5 389.227 1501.58C390.008 1500.55 390.765 1500.36 391.498 1500.99L393.658 1502.86C394.22 1503.35 394.22 1504.02 393.658 1504.87C393.194 1505.58 391.864 1506.72 389.667 1508.28C387.494 1509.84 384.063 1510.62 379.376 1510.62C373.272 1510.62 368.768 1508.83 365.863 1505.24C362.982 1501.65 361.542 1496.83 361.542 1490.77ZM368.207 1488.47H388.897C388.8 1485.05 387.921 1482.06 386.261 1479.49C384.601 1476.91 382.159 1475.61 378.937 1475.61C376.104 1475.61 373.7 1476.56 371.722 1478.47C369.745 1480.35 368.573 1483.68 368.207 1488.47ZM405.487 1510C404.388 1510 403.839 1509.45 403.839 1508.35V1462.65C403.839 1462.16 403.961 1461.7 404.205 1461.26L406.769 1456.61C407.232 1455.75 407.611 1455.32 407.904 1455.32H409.186C409.918 1455.32 410.284 1455.75 410.284 1456.61V1508.35C410.284 1509.45 409.735 1510 408.636 1510H405.487Z" fill="white"/>
<path d="M22.2666 599.899C22.055 599.379 22.2503 599.004 22.8525 598.776C24.1058 598.304 25.2939 597.548 26.417 596.506C27.54 595.464 28.4271 594.536 29.0781 593.723C29.5501 593.137 30.0059 592.844 30.4453 592.844H32.5205C33.2692 592.844 33.6436 593.21 33.6436 593.942V626.901C33.6436 627.634 33.2773 628 32.5449 628H30.4453C29.7129 628 29.3467 627.634 29.3467 626.901V600.144C29.3467 599.655 29.363 599.167 29.3955 598.679H29.3467C28.8421 599.313 28.1016 599.965 27.125 600.632C26.1484 601.299 25.2533 601.787 24.4395 602.097C23.7233 602.373 23.2513 602.243 23.0234 601.706L22.2666 599.899ZM44.1904 628C43.458 628 43.0918 627.634 43.0918 626.901V623.923C43.0918 623.19 43.458 622.824 44.1904 622.824H46.9248C47.6572 622.824 48.0234 623.19 48.0234 623.923V626.901C48.0234 627.634 47.6572 628 46.9248 628H44.1904ZM55.1523 610.642C55.1523 604.945 55.9336 600.51 57.4961 597.336C59.0586 594.146 62.0371 592.551 66.4316 592.551C70.8262 592.551 73.8047 594.146 75.3672 597.336C76.9297 600.51 77.7109 604.945 77.7109 610.642C77.7109 616.338 76.9297 620.782 75.3672 623.972C73.8047 627.146 70.8262 628.732 66.4316 628.732C62.0371 628.732 59.0586 627.146 57.4961 623.972C55.9336 620.782 55.1523 616.338 55.1523 610.642ZM59.6934 610.642C59.6934 615.199 60.084 618.771 60.8652 621.359C61.6465 623.931 63.502 625.217 66.4316 625.217C69.3613 625.217 71.2168 623.931 71.998 621.359C72.7793 618.771 73.1699 615.199 73.1699 610.642C73.1699 606.084 72.7793 602.52 71.998 599.948C71.2168 597.36 69.3613 596.066 66.4316 596.066C63.502 596.066 61.6465 597.36 60.8652 599.948C60.084 602.52 59.6934 606.084 59.6934 610.642Z" fill="white"/>
<path d="M22.2666 207.899C22.055 207.379 22.2503 207.004 22.8525 206.776C24.1058 206.304 25.2939 205.548 26.417 204.506C27.54 203.464 28.4271 202.536 29.0781 201.723C29.5501 201.137 30.0059 200.844 30.4453 200.844H32.5205C33.2692 200.844 33.6436 201.21 33.6436 201.942V234.901C33.6436 235.634 33.2773 236 32.5449 236H30.4453C29.7129 236 29.3467 235.634 29.3467 234.901V208.144C29.3467 207.655 29.363 207.167 29.3955 206.679H29.3467C28.8421 207.313 28.1016 207.965 27.125 208.632C26.1484 209.299 25.2533 209.787 24.4395 210.097C23.7233 210.373 23.2513 210.243 23.0234 209.706L22.2666 207.899ZM44.1904 236C43.458 236 43.0918 235.634 43.0918 234.901V231.923C43.0918 231.19 43.458 230.824 44.1904 230.824H46.9248C47.6572 230.824 48.0234 231.19 48.0234 231.923V234.901C48.0234 235.634 47.6572 236 46.9248 236H44.1904ZM56.373 232.021C55.7546 231.207 55.6813 230.588 56.1533 230.165L57.667 228.822C58.2204 228.334 58.8633 228.537 59.5957 229.433C60.0352 229.97 60.8083 230.71 61.915 231.654C63.0218 232.598 64.4622 233.07 66.2363 233.07C68.5638 233.07 70.3135 232.354 71.4854 230.922C72.6735 229.49 73.2676 227.593 73.2676 225.233C73.2676 223.004 72.763 221.246 71.7539 219.96C70.7448 218.674 69.2311 218.031 67.2129 218.031C65.9596 218.031 64.918 218.153 64.0879 218.397C63.2578 218.642 62.3952 219.154 61.5 219.936C60.8815 220.473 60.2305 220.741 59.5469 220.741H58.3994C57.667 220.741 57.3008 220.375 57.3008 219.643V202.382C57.3008 201.649 57.667 201.283 58.3994 201.283H75.2451C75.9775 201.283 76.3438 201.649 76.3438 202.382V204.188C76.3438 204.921 75.9775 205.287 75.2451 205.287H61.5977V214.931C61.5977 215.419 61.5814 215.907 61.5488 216.396H61.6465C62.5579 215.631 63.624 215.102 64.8447 214.809C66.0654 214.516 67.1966 214.369 68.2383 214.369C71.2656 214.369 73.6582 215.378 75.416 217.396C77.1738 219.415 78.0527 222.06 78.0527 225.331C78.0527 228.896 76.9948 231.687 74.8789 233.705C72.7793 235.723 69.9147 236.732 66.2852 236.732C63.6322 236.732 61.4919 236.187 59.8643 235.097C58.2529 233.99 57.0892 232.965 56.373 232.021Z" fill="white"/>
<path d="M16.8467 1002.64C16.8467 996.945 17.6279 992.51 19.1904 989.336C20.7529 986.146 23.7314 984.551 28.126 984.551C32.5205 984.551 35.499 986.146 37.0615 989.336C38.624 992.51 39.4053 996.945 39.4053 1002.64C39.4053 1008.34 38.624 1012.78 37.0615 1015.97C35.499 1019.15 32.5205 1020.73 28.126 1020.73C23.7314 1020.73 20.7529 1019.15 19.1904 1015.97C17.6279 1012.78 16.8467 1008.34 16.8467 1002.64ZM21.3877 1002.64C21.3877 1007.2 21.7783 1010.77 22.5596 1013.36C23.3408 1015.93 25.1963 1017.22 28.126 1017.22C31.0557 1017.22 32.9111 1015.93 33.6924 1013.36C34.4736 1010.77 34.8643 1007.2 34.8643 1002.64C34.8643 998.084 34.4736 994.52 33.6924 991.948C32.9111 989.36 31.0557 988.066 28.126 988.066C25.1963 988.066 23.3408 989.36 22.5596 991.948C21.7783 994.52 21.3877 998.084 21.3877 1002.64ZM47.6328 1020C46.9004 1020 46.5342 1019.63 46.5342 1018.9V1015.92C46.5342 1015.19 46.9004 1014.82 47.6328 1014.82H50.3672C51.0996 1014.82 51.4658 1015.19 51.4658 1015.92V1018.9C51.4658 1019.63 51.0996 1020 50.3672 1020H47.6328ZM59.8154 1016.02C59.1969 1015.21 59.1237 1014.59 59.5957 1014.17L61.1094 1012.82C61.6628 1012.33 62.3057 1012.54 63.0381 1013.43C63.4775 1013.97 64.2507 1014.71 65.3574 1015.65C66.4642 1016.6 67.9046 1017.07 69.6787 1017.07C72.0062 1017.07 73.7559 1016.35 74.9277 1014.92C76.1159 1013.49 76.71 1011.59 76.71 1009.23C76.71 1007 76.2054 1005.25 75.1963 1003.96C74.1872 1002.67 72.6735 1002.03 70.6553 1002.03C69.402 1002.03 68.3604 1002.15 67.5303 1002.4C66.7002 1002.64 65.8376 1003.15 64.9424 1003.94C64.3239 1004.47 63.6729 1004.74 62.9893 1004.74H61.8418C61.1094 1004.74 60.7432 1004.38 60.7432 1003.64V986.382C60.7432 985.649 61.1094 985.283 61.8418 985.283H78.6875C79.4199 985.283 79.7861 985.649 79.7861 986.382V988.188C79.7861 988.921 79.4199 989.287 78.6875 989.287H65.04V998.931C65.04 999.419 65.0238 999.907 64.9912 1000.4H65.0889C66.0003 999.631 67.0664 999.102 68.2871 998.809C69.5078 998.516 70.639 998.369 71.6807 998.369C74.708 998.369 77.1006 999.378 78.8584 1001.4C80.6162 1003.41 81.4951 1006.06 81.4951 1009.33C81.4951 1012.9 80.4372 1015.69 78.3213 1017.71C76.2217 1019.72 73.3571 1020.73 69.7275 1020.73C67.0745 1020.73 64.9342 1020.19 63.3066 1019.1C61.6953 1017.99 60.5316 1016.96 59.8154 1016.02Z" fill="white"/>
<path d="M659.298 1494.77C659.298 1489.52 660.567 1484.91 663.106 1480.93C665.646 1476.93 669.356 1474.93 674.239 1474.93C677.047 1474.93 679.293 1475.39 680.978 1476.32C682.662 1477.24 684.176 1478.51 685.519 1480.13H685.592L685.812 1477.2C685.885 1476.1 686.361 1475.55 687.24 1475.55H690.316C691.415 1475.55 691.964 1476.1 691.964 1477.2V1514.29C691.964 1518.98 690.877 1522.64 688.705 1525.28C686.556 1527.94 682.296 1529.27 675.924 1529.27C671.651 1529.27 668.453 1528.78 666.329 1527.81C664.205 1526.85 662.691 1525.84 661.788 1524.77C661.129 1523.96 661.092 1523.28 661.678 1522.72L663.692 1520.74C664.254 1520.2 665.035 1520.37 666.036 1521.25C667.33 1522.42 668.575 1523.25 669.771 1523.74C670.968 1524.25 673.031 1524.51 675.96 1524.51C679.281 1524.51 681.698 1523.8 683.211 1522.39C684.75 1520.97 685.519 1518.04 685.519 1513.6V1511.4C685.519 1510.64 685.543 1509.9 685.592 1509.17H685.519C684.249 1510.85 682.748 1512.18 681.014 1513.16C679.305 1514.13 677.047 1514.62 674.239 1514.62C669.356 1514.62 665.646 1512.63 663.106 1508.65C660.567 1504.65 659.298 1500.02 659.298 1494.77ZM666.109 1494.77C666.109 1499.27 666.878 1502.9 668.417 1505.69C669.979 1508.47 672.616 1509.86 676.327 1509.86C678.963 1509.86 681.148 1508.97 682.882 1507.19C684.64 1505.38 685.519 1502.65 685.519 1498.99V1490.56C685.519 1486.9 684.64 1484.18 682.882 1482.4C681.148 1480.59 678.963 1479.69 676.327 1479.69C672.616 1479.69 669.979 1481.08 668.417 1483.86C666.878 1486.64 666.109 1490.28 666.109 1494.77ZM704.049 1514C702.95 1514 702.401 1513.45 702.401 1512.35V1477.2C702.401 1476.1 702.95 1475.55 704.049 1475.55H707.125C708.224 1475.55 708.773 1476.1 708.773 1477.2V1481.59H708.919C710.091 1479.39 711.471 1477.73 713.058 1476.61C714.645 1475.49 716.622 1474.93 718.99 1474.93C720.553 1474.93 721.651 1475.06 722.286 1475.33C722.848 1475.55 723.055 1475.91 722.909 1476.43L722.066 1479.43C721.944 1479.87 721.627 1480.04 721.114 1479.94C720.26 1479.77 719.454 1479.69 718.697 1479.69C715.841 1479.69 713.485 1480.98 711.629 1483.57C709.774 1486.13 708.846 1489.63 708.846 1494.08V1512.35C708.846 1513.45 708.297 1514 707.198 1514H704.049ZM726.754 1503.75C726.754 1499.4 728.78 1496.21 732.833 1494.19C736.91 1492.16 742.989 1490.98 751.07 1490.64V1488.15C751.07 1485.85 750.545 1483.87 749.496 1482.21C748.47 1480.53 746.419 1479.69 743.343 1479.69C741.39 1479.69 739.828 1479.88 738.656 1480.27C737.484 1480.64 736.41 1481.14 735.433 1481.77C734.481 1482.38 733.565 1483.18 732.687 1484.15C732.027 1484.89 731.405 1484.92 730.819 1484.26L728.915 1482.07C728.377 1481.46 728.561 1480.72 729.464 1479.87C730.758 1478.65 732.015 1477.73 733.236 1477.12C734.457 1476.51 735.97 1476 737.777 1475.58C739.608 1475.15 741.463 1474.93 743.343 1474.93C748.446 1474.93 752.083 1476.24 754.256 1478.88C756.429 1481.49 757.516 1485.08 757.516 1489.65V1512.35C757.516 1513.45 756.966 1514 755.868 1514H752.572C751.62 1514 751.144 1513.45 751.144 1512.35V1510.56H751.07C749.142 1512.07 747.25 1513.13 745.394 1513.74C743.563 1514.33 741.512 1514.62 739.242 1514.62C735.238 1514.62 732.149 1513.67 729.977 1511.77C727.828 1509.84 726.754 1507.16 726.754 1503.75ZM733.419 1503.89C733.419 1505.41 733.736 1506.63 734.371 1507.55C735.006 1508.46 735.885 1509.04 737.008 1509.31C738.131 1509.56 739.303 1509.68 740.523 1509.68C742.403 1509.68 744.186 1509.5 745.87 1509.13C747.555 1508.76 749.288 1507.8 751.07 1506.24V1495.43C746.139 1495.8 742.623 1496.25 740.523 1496.79C738.424 1497.3 736.715 1498.2 735.396 1499.5C734.078 1500.77 733.419 1502.23 733.419 1503.89ZM765.023 1477.34C764.608 1476.15 764.938 1475.55 766.012 1475.55H770.003C770.785 1475.55 771.334 1476.02 771.651 1476.98L779.415 1501.15C780.05 1503.12 780.477 1504.49 780.697 1505.25C780.941 1505.98 781.161 1506.9 781.356 1507.99H781.502C781.698 1506.9 781.905 1505.98 782.125 1505.25C782.369 1504.49 782.809 1503.12 783.443 1501.15L791.207 1476.98C791.524 1476.02 792.074 1475.55 792.855 1475.55H796.847C797.921 1475.55 798.25 1476.15 797.835 1477.34L785.824 1511.77C785.311 1513.26 784.652 1514 783.846 1514H779.012C778.207 1514 777.547 1513.26 777.035 1511.77L765.023 1477.34ZM805.709 1514C804.61 1514 804.061 1513.45 804.061 1512.35V1477.2C804.061 1476.1 804.61 1475.55 805.709 1475.55H808.858C809.957 1475.55 810.506 1476.1 810.506 1477.2V1512.35C810.506 1513.45 809.957 1514 808.858 1514H805.709ZM805.709 1468.59C804.61 1468.59 804.061 1468.04 804.061 1466.94V1463.79C804.061 1462.69 804.61 1462.14 805.709 1462.14H808.858C809.957 1462.14 810.506 1462.69 810.506 1463.79V1466.94C810.506 1468.04 809.957 1468.59 808.858 1468.59H805.709ZM819.039 1480.38C817.94 1480.38 817.391 1479.95 817.391 1479.1V1476.83C817.391 1475.98 817.94 1475.55 819.039 1475.55H823.36V1472.25C823.36 1471.76 823.482 1471.3 823.727 1470.86L826.29 1466.21C826.754 1465.35 827.132 1464.93 827.425 1464.93H828.707C829.439 1464.93 829.806 1465.35 829.806 1466.21V1475.55H837.606C838.705 1475.55 839.254 1475.98 839.254 1476.83V1479.1C839.254 1479.95 838.705 1480.38 837.606 1480.38H829.806V1503.71C829.806 1506.27 830.184 1507.95 830.941 1508.73C831.722 1509.48 832.65 1509.86 833.724 1509.86C834.554 1509.86 835.543 1509.62 836.69 1509.13C837.862 1508.64 838.668 1508.23 839.107 1507.88C839.547 1507.54 839.889 1507.65 840.133 1508.21L841.341 1511.03C841.537 1511.52 841.39 1511.91 840.902 1512.21C839.95 1512.77 838.558 1513.32 836.727 1513.85C834.896 1514.37 833.065 1514.62 831.234 1514.62C828.695 1514.62 826.742 1513.71 825.375 1511.88C824.032 1510.04 823.36 1507.46 823.36 1504.11V1480.38H819.039ZM846.578 1494.77C846.578 1489.04 848.092 1484.3 851.119 1480.56C854.171 1476.81 858.626 1474.93 864.486 1474.93C870.345 1474.93 874.789 1476.81 877.816 1480.56C880.868 1484.3 882.394 1489.04 882.394 1494.77C882.394 1500.51 880.868 1505.26 877.816 1509.02C874.789 1512.75 870.345 1514.62 864.486 1514.62C858.626 1514.62 854.171 1512.75 851.119 1509.02C848.092 1505.26 846.578 1500.51 846.578 1494.77ZM853.39 1494.77C853.39 1499.9 854.403 1503.7 856.429 1506.16C858.456 1508.63 861.141 1509.86 864.486 1509.86C867.831 1509.86 870.516 1508.63 872.542 1506.16C874.569 1503.7 875.582 1499.9 875.582 1494.77C875.582 1489.65 874.569 1485.85 872.542 1483.38C870.516 1480.92 867.831 1479.69 864.486 1479.69C861.141 1479.69 858.456 1480.92 856.429 1483.38C854.403 1485.85 853.39 1489.65 853.39 1494.77ZM892.354 1514C891.256 1514 890.707 1513.45 890.707 1512.35V1477.2C890.707 1476.1 891.256 1475.55 892.354 1475.55H895.431C896.529 1475.55 897.079 1476.1 897.079 1477.2V1480.13H897.225C898.812 1478.37 900.521 1477.06 902.352 1476.21C904.183 1475.35 906.466 1474.93 909.2 1474.93C913.644 1474.93 916.83 1476.18 918.758 1478.7C920.711 1481.19 921.688 1484.61 921.688 1488.95V1512.35C921.688 1513.45 921.139 1514 920.04 1514H916.891C915.792 1514 915.243 1513.45 915.243 1512.35V1490.71C915.243 1485.92 914.449 1482.9 912.862 1481.63C911.275 1480.33 909.261 1479.69 906.82 1479.69C903.646 1479.69 901.241 1480.64 899.605 1482.54C897.97 1484.42 897.152 1487.66 897.152 1492.25V1512.35C897.152 1513.45 896.603 1514 895.504 1514H892.354Z" fill="white"/>
<path d="M260.515 42.8467C260.061 42.4219 259.965 42.0264 260.229 41.6602L261.218 40.2759C261.54 39.8364 262.016 39.8584 262.646 40.3418C263.51 41.001 264.47 41.5283 265.524 41.9238C266.594 42.3193 267.81 42.5171 269.172 42.5171C269.978 42.5171 270.695 42.4219 271.325 42.2314C271.955 42.0264 272.504 41.6528 272.973 41.1108C273.457 40.5688 273.698 39.8438 273.698 38.9355C273.698 38.4082 273.581 37.9102 273.347 37.4414C273.127 36.9727 272.775 36.5991 272.292 36.3208C271.823 36.0278 271.362 35.8008 270.908 35.6396C270.161 35.3613 269.414 35.1343 268.667 34.9585C267.934 34.7681 266.967 34.4824 265.766 34.1016C264.96 33.8525 264.199 33.501 263.481 33.0469C262.763 32.5781 262.133 31.9482 261.591 31.1572C261.064 30.3662 260.8 29.2749 260.8 27.8833C260.8 26.4624 261.232 25.2393 262.097 24.2139C262.961 23.1885 264.045 22.4927 265.349 22.1265C266.652 21.7456 267.919 21.5552 269.15 21.5552C270.966 21.5552 272.424 21.7676 273.522 22.1924C274.636 22.6025 275.595 23.0933 276.401 23.6646C276.87 24.0015 276.936 24.3896 276.599 24.8291L275.61 26.1475C275.302 26.5723 274.826 26.5576 274.182 26.1035C273.64 25.7227 272.871 25.3638 271.875 25.0269C270.878 24.6899 270.007 24.5215 269.26 24.5215C268.337 24.5215 267.546 24.624 266.887 24.8291C266.228 25.0342 265.693 25.3857 265.283 25.8838C264.873 26.3818 264.667 26.9678 264.667 27.6416C264.667 28.1543 264.748 28.6157 264.909 29.0259C265.07 29.4214 265.371 29.7876 265.81 30.1245C266.25 30.4614 266.865 30.7324 267.656 30.9375C268.886 31.2598 270.007 31.5527 271.018 31.8164C272.043 32.0801 272.966 32.4023 273.786 32.7832C274.855 33.2812 275.676 33.8306 276.247 34.4312C276.833 35.0317 277.236 35.6836 277.456 36.3867C277.675 37.0752 277.785 37.8442 277.785 38.6938C277.785 40.2612 277.316 41.5869 276.379 42.6709C275.456 43.7549 274.423 44.48 273.281 44.8462C272.138 45.1978 270.761 45.3735 269.15 45.3735C266.967 45.3735 265.092 45.0659 263.525 44.4507C261.972 43.8208 260.969 43.2861 260.515 42.8467ZM280.905 38.8477C280.905 36.2402 282.121 34.3286 284.553 33.1128C286.999 31.897 290.646 31.1865 295.495 30.9814V29.4873C295.495 28.1104 295.18 26.9238 294.55 25.9277C293.935 24.917 292.705 24.4116 290.859 24.4116C289.687 24.4116 288.75 24.5288 288.046 24.7632C287.343 24.9829 286.699 25.2832 286.113 25.6641C285.542 26.0303 284.992 26.5063 284.465 27.0923C284.069 27.5317 283.696 27.5537 283.344 27.1582L282.202 25.8398C281.879 25.4736 281.989 25.0342 282.531 24.5215C283.308 23.7891 284.062 23.2397 284.794 22.8735C285.527 22.5073 286.435 22.1997 287.519 21.9507C288.618 21.687 289.731 21.5552 290.859 21.5552C293.92 21.5552 296.103 22.3462 297.407 23.9282C298.71 25.4956 299.362 27.6489 299.362 30.3882V44.0112C299.362 44.6704 299.033 45 298.374 45H296.396C295.825 45 295.539 44.6704 295.539 44.0112V42.9346H295.495C294.338 43.8428 293.203 44.48 292.089 44.8462C290.991 45.1978 289.76 45.3735 288.398 45.3735C285.996 45.3735 284.143 44.8022 282.839 43.6597C281.55 42.5024 280.905 40.8984 280.905 38.8477ZM284.904 38.9355C284.904 39.8438 285.095 40.5762 285.476 41.1328C285.856 41.6748 286.384 42.0264 287.058 42.1875C287.731 42.334 288.435 42.4072 289.167 42.4072C290.295 42.4072 291.364 42.2974 292.375 42.0776C293.386 41.8579 294.426 41.2793 295.495 40.3418V33.8599C292.536 34.0796 290.427 34.3506 289.167 34.6729C287.907 34.9805 286.882 35.5225 286.091 36.2988C285.3 37.0605 284.904 37.9395 284.904 38.9355ZM306.613 45C305.954 45 305.625 44.6704 305.625 44.0112V22.9175C305.625 22.2583 305.954 21.9287 306.613 21.9287H308.459C309.118 21.9287 309.448 22.2583 309.448 22.9175V24.6753H309.536C310.488 23.6206 311.521 22.8369 312.634 22.3242C313.747 21.8115 314.816 21.5552 315.842 21.5552C317.731 21.5552 319.182 22.0312 320.192 22.9834C321.218 23.9209 321.877 24.8657 322.17 25.8179H322.258C323.063 24.6167 324.082 23.606 325.312 22.7856C326.542 21.9653 327.854 21.5552 329.245 21.5552C331.574 21.5552 333.332 22.3096 334.519 23.8184C335.705 25.3125 336.298 27.3633 336.298 29.9707V44.0112C336.298 44.6704 335.969 45 335.31 45H333.42C332.761 45 332.431 44.6704 332.431 44.0112V31.2451C332.431 28.374 332.072 26.521 331.354 25.686C330.637 24.8364 329.531 24.4116 328.037 24.4116C326.572 24.4116 325.349 25.0415 324.367 26.3013C323.386 27.5464 322.895 29.4287 322.895 31.9482V44.0112C322.895 44.6704 322.565 45 321.906 45H320.017C319.357 45 319.028 44.6704 319.028 44.0112V31.2451C319.028 28.374 318.669 26.521 317.951 25.686C317.233 24.8364 316.127 24.4116 314.633 24.4116C313.168 24.4116 311.945 24.9829 310.964 26.1255C309.982 27.2534 309.492 29.1943 309.492 31.9482V44.0112C309.492 44.6704 309.162 45 308.503 45H306.613ZM341.242 33.4644C341.242 29.8315 342.15 26.9385 343.967 24.7852C345.783 22.6318 348.383 21.5552 351.767 21.5552C354.58 21.5552 356.909 22.5439 358.754 24.5215C360.615 26.4844 361.545 29.6265 361.545 33.9478C361.545 34.6069 361.245 34.9365 360.644 34.9365H345.329C345.578 37.7637 346.34 39.7339 347.614 40.8472C348.889 41.9458 350.332 42.4951 351.943 42.4951C353.642 42.4951 354.946 42.2095 355.854 41.6382C356.762 41.0669 357.429 40.5029 357.854 39.9463C358.322 39.3311 358.776 39.2139 359.216 39.5947L360.512 40.7153C360.849 41.0083 360.849 41.4111 360.512 41.9238C360.234 42.3486 359.436 43.0298 358.117 43.9673C356.813 44.9048 354.755 45.3735 351.943 45.3735C348.281 45.3735 345.578 44.2969 343.835 42.1436C342.106 39.9902 341.242 37.0972 341.242 33.4644ZM345.241 32.0801H357.656C357.597 30.0293 357.07 28.2349 356.074 26.6968C355.078 25.144 353.613 24.3677 351.679 24.3677C349.98 24.3677 348.537 24.939 347.351 26.0815C346.164 27.2095 345.461 29.209 345.241 32.0801ZM380.354 33.4644C380.354 30.022 381.203 27.1802 382.902 24.939C384.616 22.6831 387.231 21.5552 390.747 21.5552C393.12 21.5552 394.929 21.98 396.174 22.8296C397.434 23.6646 398.342 24.5215 398.898 25.4004C399.206 25.8838 399.14 26.272 398.701 26.5649L397.316 27.4658C396.877 27.7734 396.438 27.5757 395.998 26.8726C395.573 26.1987 394.973 25.6201 394.196 25.1367C393.435 24.6533 392.285 24.4116 390.747 24.4116C388.74 24.4116 387.187 25.1514 386.088 26.6309C384.99 28.1104 384.44 30.3882 384.44 33.4644C384.44 36.5405 384.99 38.8184 386.088 40.2979C387.187 41.7773 388.74 42.5171 390.747 42.5171C392.373 42.5171 393.618 42.2095 394.482 41.5942C395.346 40.9644 395.976 40.2832 396.372 39.5508C396.752 38.8623 397.185 38.6646 397.668 38.9575L399.14 39.8364C399.58 40.1001 399.646 40.4956 399.338 41.0229C398.972 41.6528 398.137 42.5391 396.833 43.6816C395.544 44.8096 393.515 45.3735 390.747 45.3735C387.231 45.3735 384.616 44.2529 382.902 42.0117C381.203 39.7559 380.354 36.9067 380.354 33.4644ZM402.897 38.8477C402.897 36.2402 404.113 34.3286 406.545 33.1128C408.991 31.897 412.639 31.1865 417.487 30.9814V29.4873C417.487 28.1104 417.172 26.9238 416.542 25.9277C415.927 24.917 414.697 24.4116 412.851 24.4116C411.679 24.4116 410.742 24.5288 410.039 24.7632C409.335 24.9829 408.691 25.2832 408.105 25.6641C407.534 26.0303 406.984 26.5063 406.457 27.0923C406.062 27.5317 405.688 27.5537 405.336 27.1582L404.194 25.8398C403.872 25.4736 403.981 25.0342 404.523 24.5215C405.3 23.7891 406.054 23.2397 406.787 22.8735C407.519 22.5073 408.427 22.1997 409.511 21.9507C410.61 21.687 411.723 21.5552 412.851 21.5552C415.913 21.5552 418.095 22.3462 419.399 23.9282C420.703 25.4956 421.354 27.6489 421.354 30.3882V44.0112C421.354 44.6704 421.025 45 420.366 45H418.388C417.817 45 417.531 44.6704 417.531 44.0112V42.9346H417.487C416.33 43.8428 415.195 44.48 414.082 44.8462C412.983 45.1978 411.752 45.3735 410.39 45.3735C407.988 45.3735 406.135 44.8022 404.831 43.6597C403.542 42.5024 402.897 40.8984 402.897 38.8477ZM406.896 38.9355C406.896 39.8438 407.087 40.5762 407.468 41.1328C407.849 41.6748 408.376 42.0264 409.05 42.1875C409.724 42.334 410.427 42.4072 411.159 42.4072C412.287 42.4072 413.356 42.2974 414.367 42.0776C415.378 41.8579 416.418 41.2793 417.487 40.3418V33.8599C414.528 34.0796 412.419 34.3506 411.159 34.6729C409.899 34.9805 408.874 35.5225 408.083 36.2988C407.292 37.0605 406.896 37.9395 406.896 38.9355ZM428.605 45C427.946 45 427.617 44.6704 427.617 44.0112V16.5894C427.617 16.2964 427.69 16.0181 427.836 15.7544L429.375 12.9639C429.653 12.4512 429.88 12.1948 430.056 12.1948H430.825C431.264 12.1948 431.484 12.4512 431.484 12.9639V44.0112C431.484 44.6704 431.154 45 430.495 45H428.605ZM436.472 33.4644C436.472 30.022 437.321 27.1802 439.021 24.939C440.734 22.6831 443.349 21.5552 446.865 21.5552C449.238 21.5552 451.047 21.98 452.292 22.8296C453.552 23.6646 454.46 24.5215 455.017 25.4004C455.324 25.8838 455.258 26.272 454.819 26.5649L453.435 27.4658C452.995 27.7734 452.556 27.5757 452.116 26.8726C451.691 26.1987 451.091 25.6201 450.314 25.1367C449.553 24.6533 448.403 24.4116 446.865 24.4116C444.858 24.4116 443.305 25.1514 442.207 26.6309C441.108 28.1104 440.559 30.3882 440.559 33.4644C440.559 36.5405 441.108 38.8184 442.207 40.2979C443.305 41.7773 444.858 42.5171 446.865 42.5171C448.491 42.5171 449.736 42.2095 450.6 41.5942C451.464 40.9644 452.094 40.2832 452.49 39.5508C452.871 38.8623 453.303 38.6646 453.786 38.9575L455.258 39.8364C455.698 40.1001 455.764 40.4956 455.456 41.0229C455.09 41.6528 454.255 42.5391 452.951 43.6816C451.662 44.8096 449.633 45.3735 446.865 45.3735C443.349 45.3735 440.734 44.2529 439.021 42.0117C437.321 39.7559 436.472 36.9067 436.472 33.4644ZM460.224 36.958V22.9175C460.224 22.2583 460.554 21.9287 461.213 21.9287H463.103C463.762 21.9287 464.091 22.2583 464.091 22.9175V35.9033C464.091 38.7744 464.567 40.5981 465.52 41.3745C466.472 42.1362 467.651 42.5171 469.057 42.5171C470.903 42.5171 472.316 41.9531 473.298 40.8252C474.279 39.6826 474.77 37.7344 474.77 34.9805V22.9175C474.77 22.2583 475.1 21.9287 475.759 21.9287H477.648C478.308 21.9287 478.637 22.2583 478.637 22.9175V44.0112C478.637 44.6704 478.308 45 477.648 45H475.803C475.144 45 474.814 44.6704 474.814 44.0112V42.2534H474.726C473.774 43.3081 472.749 44.0918 471.65 44.6045C470.551 45.1172 469.211 45.3735 467.629 45.3735C465.065 45.3735 463.19 44.6265 462.004 43.1323C460.817 41.6235 460.224 39.5654 460.224 36.958ZM485.866 45C485.207 45 484.877 44.6704 484.877 44.0112V16.5894C484.877 16.2964 484.951 16.0181 485.097 15.7544L486.635 12.9639C486.914 12.4512 487.141 12.1948 487.316 12.1948H488.085C488.525 12.1948 488.745 12.4512 488.745 12.9639V44.0112C488.745 44.6704 488.415 45 487.756 45H485.866ZM493.732 38.8477C493.732 36.2402 494.948 34.3286 497.38 33.1128C499.826 31.897 503.474 31.1865 508.322 30.9814V29.4873C508.322 28.1104 508.007 26.9238 507.377 25.9277C506.762 24.917 505.532 24.4116 503.686 24.4116C502.514 24.4116 501.577 24.5288 500.874 24.7632C500.17 24.9829 499.526 25.2832 498.94 25.6641C498.369 26.0303 497.819 26.5063 497.292 27.0923C496.896 27.5317 496.523 27.5537 496.171 27.1582L495.029 25.8398C494.707 25.4736 494.816 25.0342 495.358 24.5215C496.135 23.7891 496.889 23.2397 497.622 22.8735C498.354 22.5073 499.262 22.1997 500.346 21.9507C501.445 21.687 502.558 21.5552 503.686 21.5552C506.748 21.5552 508.93 22.3462 510.234 23.9282C511.538 25.4956 512.189 27.6489 512.189 30.3882V44.0112C512.189 44.6704 511.86 45 511.201 45H509.223C508.652 45 508.366 44.6704 508.366 44.0112V42.9346H508.322C507.165 43.8428 506.03 44.48 504.917 44.8462C503.818 45.1978 502.587 45.3735 501.225 45.3735C498.823 45.3735 496.97 44.8022 495.666 43.6597C494.377 42.5024 493.732 40.8984 493.732 38.8477ZM497.731 38.9355C497.731 39.8438 497.922 40.5762 498.303 41.1328C498.684 41.6748 499.211 42.0264 499.885 42.1875C500.559 42.334 501.262 42.4072 501.994 42.4072C503.122 42.4072 504.191 42.2974 505.202 42.0776C506.213 41.8579 507.253 41.2793 508.322 40.3418V33.8599C505.363 34.0796 503.254 34.3506 501.994 34.6729C500.734 34.9805 499.709 35.5225 498.918 36.2988C498.127 37.0605 497.731 37.9395 497.731 38.9355ZM517.331 24.8291C516.672 24.8291 516.342 24.5728 516.342 24.0601V22.6978C516.342 22.1851 516.672 21.9287 517.331 21.9287H519.924V19.9512C519.924 19.6582 519.997 19.3799 520.144 19.1162L521.682 16.3257C521.96 15.813 522.187 15.5566 522.363 15.5566H523.132C523.571 15.5566 523.791 15.813 523.791 16.3257V21.9287H528.471C529.13 21.9287 529.46 22.1851 529.46 22.6978V24.0601C529.46 24.5728 529.13 24.8291 528.471 24.8291H523.791V38.8257C523.791 40.3638 524.018 41.3672 524.472 41.8359C524.941 42.29 525.498 42.5171 526.142 42.5171C526.64 42.5171 527.233 42.3706 527.922 42.0776C528.625 41.7847 529.108 41.5356 529.372 41.3306C529.636 41.1255 529.841 41.1914 529.987 41.5283L530.712 43.2202C530.83 43.5132 530.742 43.7476 530.449 43.9233C529.877 44.2603 529.042 44.5898 527.944 44.9121C526.845 45.2197 525.747 45.3735 524.648 45.3735C523.125 45.3735 521.953 44.8242 521.132 43.7256C520.327 42.627 519.924 41.0742 519.924 39.0674V24.8291H517.331ZM536.096 45C535.437 45 535.107 44.6704 535.107 44.0112V22.9175C535.107 22.2583 535.437 21.9287 536.096 21.9287H537.985C538.645 21.9287 538.974 22.2583 538.974 22.9175V44.0112C538.974 44.6704 538.645 45 537.985 45H536.096ZM536.096 17.7539C535.437 17.7539 535.107 17.4243 535.107 16.7651V14.8755C535.107 14.2163 535.437 13.8867 536.096 13.8867H537.985C538.645 13.8867 538.974 14.2163 538.974 14.8755V16.7651C538.974 17.4243 538.645 17.7539 537.985 17.7539H536.096ZM543.962 33.4644C543.962 30.022 544.87 27.1802 546.687 24.939C548.518 22.6831 551.191 21.5552 554.707 21.5552C558.222 21.5552 560.888 22.6831 562.705 24.939C564.536 27.1802 565.451 30.022 565.451 33.4644C565.451 36.9067 564.536 39.7559 562.705 42.0117C560.888 44.2529 558.222 45.3735 554.707 45.3735C551.191 45.3735 548.518 44.2529 546.687 42.0117C544.87 39.7559 543.962 36.9067 543.962 33.4644ZM548.049 33.4644C548.049 36.5405 548.657 38.8184 549.873 40.2979C551.088 41.7773 552.7 42.5171 554.707 42.5171C556.713 42.5171 558.325 41.7773 559.541 40.2979C560.756 38.8184 561.364 36.5405 561.364 33.4644C561.364 30.3882 560.756 28.1104 559.541 26.6309C558.325 25.1514 556.713 24.4116 554.707 24.4116C552.7 24.4116 551.088 25.1514 549.873 26.6309C548.657 28.1104 548.049 30.3882 548.049 33.4644ZM571.428 45C570.769 45 570.439 44.6704 570.439 44.0112V22.9175C570.439 22.2583 570.769 21.9287 571.428 21.9287H573.273C573.933 21.9287 574.262 22.2583 574.262 22.9175V24.6753H574.35C575.302 23.6206 576.328 22.8369 577.426 22.3242C578.525 21.8115 579.895 21.5552 581.535 21.5552C584.201 21.5552 586.113 22.3096 587.27 23.8184C588.442 25.3125 589.028 27.3633 589.028 29.9707V44.0112C589.028 44.6704 588.698 45 588.039 45H586.149C585.49 45 585.161 44.6704 585.161 44.0112V31.0254C585.161 28.1543 584.685 26.3379 583.732 25.5762C582.78 24.7998 581.572 24.4116 580.107 24.4116C578.203 24.4116 576.76 24.9829 575.778 26.1255C574.797 27.2534 574.306 29.1943 574.306 31.9482V44.0112C574.306 44.6704 573.977 45 573.317 45H571.428ZM611.198 53.7891C610.539 53.7891 610.209 53.4595 610.209 52.8003V22.9175C610.209 22.2583 610.539 21.9287 611.198 21.9287H613.044C613.571 21.9287 613.857 22.2583 613.901 22.9175L614.033 24.6753H614.077C614.882 23.7085 615.791 22.9468 616.801 22.3901C617.812 21.8335 619.16 21.5552 620.844 21.5552C623.774 21.5552 626 22.7563 627.524 25.1587C629.047 27.5464 629.809 30.3149 629.809 33.4644C629.809 36.6138 629.047 39.3896 627.524 41.792C626 44.1797 623.774 45.3735 620.844 45.3735C619.16 45.3735 617.812 45.0952 616.801 44.5386C615.791 43.9819 614.882 43.2202 614.077 42.2534H614.033C614.062 42.6929 614.077 43.1396 614.077 43.5938V52.8003C614.077 53.4595 613.747 53.7891 613.088 53.7891H611.198ZM614.077 35.9912C614.077 38.1885 614.597 39.8291 615.637 40.9131C616.691 41.9824 618.01 42.5171 619.592 42.5171C621.818 42.5171 623.393 41.6821 624.316 40.0122C625.253 38.3423 625.722 36.1597 625.722 33.4644C625.722 30.769 625.253 28.5864 624.316 26.9165C623.393 25.2466 621.818 24.4116 619.592 24.4116C618.01 24.4116 616.691 24.9536 615.637 26.0376C614.597 27.1069 614.077 28.7402 614.077 30.9375V35.9912ZM633.566 33.4644C633.566 29.8315 634.475 26.9385 636.291 24.7852C638.107 22.6318 640.708 21.5552 644.091 21.5552C646.904 21.5552 649.233 22.5439 651.079 24.5215C652.939 26.4844 653.869 29.6265 653.869 33.9478C653.869 34.6069 653.569 34.9365 652.968 34.9365H637.653C637.902 37.7637 638.664 39.7339 639.938 40.8472C641.213 41.9458 642.656 42.4951 644.267 42.4951C645.966 42.4951 647.27 42.2095 648.178 41.6382C649.086 41.0669 649.753 40.5029 650.178 39.9463C650.646 39.3311 651.101 39.2139 651.54 39.5947L652.836 40.7153C653.173 41.0083 653.173 41.4111 652.836 41.9238C652.558 42.3486 651.76 43.0298 650.441 43.9673C649.138 44.9048 647.08 45.3735 644.267 45.3735C640.605 45.3735 637.902 44.2969 636.159 42.1436C634.431 39.9902 633.566 37.0972 633.566 33.4644ZM637.565 32.0801H649.98C649.921 30.0293 649.394 28.2349 648.398 26.6968C647.402 25.144 645.937 24.3677 644.003 24.3677C642.304 24.3677 640.861 24.939 639.675 26.0815C638.488 27.2095 637.785 29.209 637.565 32.0801ZM659.934 45C659.274 45 658.945 44.6704 658.945 44.0112V22.9175C658.945 22.2583 659.274 21.9287 659.934 21.9287H661.779C662.438 21.9287 662.768 22.2583 662.768 22.9175V25.5542H662.856C663.559 24.2358 664.387 23.2397 665.339 22.5659C666.291 21.8921 667.478 21.5552 668.898 21.5552C669.836 21.5552 670.495 21.6357 670.876 21.7969C671.213 21.9287 671.337 22.1484 671.25 22.4561L670.744 24.2578C670.671 24.5215 670.48 24.624 670.173 24.5654C669.66 24.4629 669.177 24.4116 668.723 24.4116C667.009 24.4116 665.595 25.188 664.482 26.7407C663.369 28.2788 662.812 30.3809 662.812 33.0469V44.0112C662.812 44.6704 662.482 45 661.823 45H659.934ZM673.667 24.8291C673.007 24.8291 672.678 24.5728 672.678 24.0601V22.6978C672.678 22.1851 673.007 21.9287 673.667 21.9287H676.018V18.6548C676.018 16.2085 676.677 14.5239 677.995 13.6011C679.313 12.6636 680.822 12.1948 682.521 12.1948C683.532 12.1948 684.345 12.2461 684.96 12.3486C685.59 12.4512 686.33 12.6782 687.18 13.0298C687.502 13.1616 687.597 13.396 687.465 13.7329L686.784 15.4688C686.667 15.7617 686.411 15.8203 686.015 15.6445C685.693 15.498 685.297 15.3662 684.829 15.249C684.36 15.1172 683.854 15.0513 683.312 15.0513C682.097 15.0513 681.218 15.3442 680.676 15.9302C680.148 16.5161 679.885 17.6367 679.885 19.292V21.9287H683.906C684.565 21.9287 684.895 22.1851 684.895 22.6978V24.0601C684.895 24.5728 684.565 24.8291 683.906 24.8291H679.885V44.0112C679.885 44.6704 679.555 45 678.896 45H677.006C676.347 45 676.018 44.6704 676.018 44.0112V24.8291H673.667ZM687.883 33.4644C687.883 30.022 688.791 27.1802 690.607 24.939C692.438 22.6831 695.112 21.5552 698.627 21.5552C702.143 21.5552 704.809 22.6831 706.625 24.939C708.457 27.1802 709.372 30.022 709.372 33.4644C709.372 36.9067 708.457 39.7559 706.625 42.0117C704.809 44.2529 702.143 45.3735 698.627 45.3735C695.112 45.3735 692.438 44.2529 690.607 42.0117C688.791 39.7559 687.883 36.9067 687.883 33.4644ZM691.97 33.4644C691.97 36.5405 692.578 38.8184 693.793 40.2979C695.009 41.7773 696.621 42.5171 698.627 42.5171C700.634 42.5171 702.246 41.7773 703.461 40.2979C704.677 38.8184 705.285 36.5405 705.285 33.4644C705.285 30.3882 704.677 28.1104 703.461 26.6309C702.246 25.1514 700.634 24.4116 698.627 24.4116C696.621 24.4116 695.009 25.1514 693.793 26.6309C692.578 28.1104 691.97 30.3882 691.97 33.4644ZM715.349 45C714.689 45 714.36 44.6704 714.36 44.0112V22.9175C714.36 22.2583 714.689 21.9287 715.349 21.9287H717.194C717.854 21.9287 718.183 22.2583 718.183 22.9175V25.5542H718.271C718.974 24.2358 719.802 23.2397 720.754 22.5659C721.706 21.8921 722.893 21.5552 724.313 21.5552C725.251 21.5552 725.91 21.6357 726.291 21.7969C726.628 21.9287 726.752 22.1484 726.665 22.4561L726.159 24.2578C726.086 24.5215 725.896 24.624 725.588 24.5654C725.075 24.4629 724.592 24.4116 724.138 24.4116C722.424 24.4116 721.01 25.188 719.897 26.7407C718.784 28.2788 718.227 30.3809 718.227 33.0469V44.0112C718.227 44.6704 717.897 45 717.238 45H715.349ZM731.213 45C730.554 45 730.224 44.6704 730.224 44.0112V22.9175C730.224 22.2583 730.554 21.9287 731.213 21.9287H733.059C733.718 21.9287 734.047 22.2583 734.047 22.9175V24.6753H734.135C735.087 23.6206 736.12 22.8369 737.233 22.3242C738.347 21.8115 739.416 21.5552 740.441 21.5552C742.331 21.5552 743.781 22.0312 744.792 22.9834C745.817 23.9209 746.477 24.8657 746.77 25.8179H746.857C747.663 24.6167 748.681 23.606 749.912 22.7856C751.142 21.9653 752.453 21.5552 753.845 21.5552C756.174 21.5552 757.932 22.3096 759.118 23.8184C760.305 25.3125 760.898 27.3633 760.898 29.9707V44.0112C760.898 44.6704 760.568 45 759.909 45H758.02C757.36 45 757.031 44.6704 757.031 44.0112V31.2451C757.031 28.374 756.672 26.521 755.954 25.686C755.236 24.8364 754.13 24.4116 752.636 24.4116C751.171 24.4116 749.948 25.0415 748.967 26.3013C747.985 27.5464 747.495 29.4287 747.495 31.9482V44.0112C747.495 44.6704 747.165 45 746.506 45H744.616C743.957 45 743.627 44.6704 743.627 44.0112V31.2451C743.627 28.374 743.269 26.521 742.551 25.686C741.833 24.8364 740.727 24.4116 739.233 24.4116C737.768 24.4116 736.545 24.9829 735.563 26.1255C734.582 27.2534 734.091 29.1943 734.091 31.9482V44.0112C734.091 44.6704 733.762 45 733.103 45H731.213ZM765.842 33.4644C765.842 29.8315 766.75 26.9385 768.566 24.7852C770.383 22.6318 772.983 21.5552 776.367 21.5552C779.179 21.5552 781.508 22.5439 783.354 24.5215C785.214 26.4844 786.145 29.6265 786.145 33.9478C786.145 34.6069 785.844 34.9365 785.244 34.9365H769.929C770.178 37.7637 770.939 39.7339 772.214 40.8472C773.488 41.9458 774.931 42.4951 776.542 42.4951C778.242 42.4951 779.545 42.2095 780.454 41.6382C781.362 41.0669 782.028 40.5029 782.453 39.9463C782.922 39.3311 783.376 39.2139 783.815 39.5947L785.112 40.7153C785.449 41.0083 785.449 41.4111 785.112 41.9238C784.833 42.3486 784.035 43.0298 782.717 43.9673C781.413 44.9048 779.355 45.3735 776.542 45.3735C772.88 45.3735 770.178 44.2969 768.435 42.1436C766.706 39.9902 765.842 37.0972 765.842 33.4644ZM769.841 32.0801H782.255C782.197 30.0293 781.669 28.2349 780.673 26.6968C779.677 25.144 778.212 24.3677 776.279 24.3677C774.58 24.3677 773.137 24.939 771.95 26.0815C770.764 27.2095 770.061 29.209 769.841 32.0801ZM789.968 33.4644C789.968 30.3149 790.729 27.5464 792.253 25.1587C793.776 22.7563 796.003 21.5552 798.933 21.5552C800.617 21.5552 801.965 21.8335 802.976 22.3901C803.986 22.9468 804.895 23.7085 805.7 24.6753H805.744C805.715 24.2358 805.7 23.7891 805.7 23.335V13.5571C805.7 12.8979 806.03 12.5684 806.689 12.5684H808.579C809.238 12.5684 809.567 12.8979 809.567 13.5571V44.0112C809.567 44.6704 809.238 45 808.579 45H806.733C806.206 45 805.92 44.6704 805.876 44.0112L805.744 42.2534H805.7C804.895 43.2202 803.986 43.9819 802.976 44.5386C801.965 45.0952 800.617 45.3735 798.933 45.3735C796.003 45.3735 793.776 44.1797 792.253 41.792C790.729 39.3896 789.968 36.6138 789.968 33.4644ZM794.055 33.4644C794.055 36.1597 794.516 38.3423 795.439 40.0122C796.376 41.6821 797.958 42.5171 800.185 42.5171C801.767 42.5171 803.078 41.9824 804.118 40.9131C805.173 39.8291 805.7 38.1885 805.7 35.9912V30.9375C805.7 28.7402 805.173 27.1069 804.118 26.0376C803.078 24.9536 801.767 24.4116 800.185 24.4116C797.958 24.4116 796.376 25.2466 795.439 26.9165C794.516 28.5864 794.055 30.769 794.055 33.4644ZM829.562 33.4644C829.562 30.022 830.471 27.1802 832.287 24.939C834.118 22.6831 836.792 21.5552 840.307 21.5552C843.823 21.5552 846.489 22.6831 848.305 24.939C850.136 27.1802 851.052 30.022 851.052 33.4644C851.052 36.9067 850.136 39.7559 848.305 42.0117C846.489 44.2529 843.823 45.3735 840.307 45.3735C836.792 45.3735 834.118 44.2529 832.287 42.0117C830.471 39.7559 829.562 36.9067 829.562 33.4644ZM833.649 33.4644C833.649 36.5405 834.257 38.8184 835.473 40.2979C836.689 41.7773 838.3 42.5171 840.307 42.5171C842.314 42.5171 843.925 41.7773 845.141 40.2979C846.357 38.8184 846.965 36.5405 846.965 33.4644C846.965 30.3882 846.357 28.1104 845.141 26.6309C843.925 25.1514 842.314 24.4116 840.307 24.4116C838.3 24.4116 836.689 25.1514 835.473 26.6309C834.257 28.1104 833.649 30.3882 833.649 33.4644ZM857.028 45C856.369 45 856.04 44.6704 856.04 44.0112V22.9175C856.04 22.2583 856.369 21.9287 857.028 21.9287H858.874C859.533 21.9287 859.863 22.2583 859.863 22.9175V24.6753H859.951C860.903 23.6206 861.928 22.8369 863.027 22.3242C864.125 21.8115 865.495 21.5552 867.136 21.5552C869.802 21.5552 871.713 22.3096 872.871 23.8184C874.042 25.3125 874.628 27.3633 874.628 29.9707V44.0112C874.628 44.6704 874.299 45 873.64 45H871.75C871.091 45 870.761 44.6704 870.761 44.0112V31.0254C870.761 28.1543 870.285 26.3379 869.333 25.5762C868.381 24.7998 867.172 24.4116 865.708 24.4116C863.803 24.4116 862.36 24.9829 861.379 26.1255C860.397 27.2534 859.907 29.1943 859.907 31.9482V44.0112C859.907 44.6704 859.577 45 858.918 45H857.028ZM370.07 98.4644C370.07 95.3149 370.832 92.5464 372.355 90.1587C373.879 87.7563 376.105 86.5552 379.035 86.5552C380.72 86.5552 382.067 86.8335 383.078 87.3901C384.089 87.9468 384.997 88.7085 385.803 89.6753H385.847C385.817 89.2358 385.803 88.7891 385.803 88.335V78.5571C385.803 77.8979 386.132 77.5684 386.792 77.5684H388.681C389.34 77.5684 389.67 77.8979 389.67 78.5571V109.011C389.67 109.67 389.34 110 388.681 110H386.835C386.308 110 386.022 109.67 385.979 109.011L385.847 107.253H385.803C384.997 108.22 384.089 108.982 383.078 109.539C382.067 110.095 380.72 110.374 379.035 110.374C376.105 110.374 373.879 109.18 372.355 106.792C370.832 104.39 370.07 101.614 370.07 98.4644ZM374.157 98.4644C374.157 101.16 374.619 103.342 375.542 105.012C376.479 106.682 378.061 107.517 380.288 107.517C381.87 107.517 383.181 106.982 384.221 105.913C385.275 104.829 385.803 103.188 385.803 100.991V95.9375C385.803 93.7402 385.275 92.1069 384.221 91.0376C383.181 89.9536 381.87 89.4116 380.288 89.4116C378.061 89.4116 376.479 90.2466 375.542 91.9165C374.619 93.5864 374.157 95.769 374.157 98.4644ZM396.921 110C396.262 110 395.932 109.67 395.932 109.011V87.9175C395.932 87.2583 396.262 86.9287 396.921 86.9287H398.811C399.47 86.9287 399.799 87.2583 399.799 87.9175V109.011C399.799 109.67 399.47 110 398.811 110H396.921ZM396.921 82.7539C396.262 82.7539 395.932 82.4243 395.932 81.7651V79.8755C395.932 79.2163 396.262 78.8867 396.921 78.8867H398.811C399.47 78.8867 399.799 79.2163 399.799 79.8755V81.7651C399.799 82.4243 399.47 82.7539 398.811 82.7539H396.921ZM404.897 89.8291C404.238 89.8291 403.908 89.5728 403.908 89.0601V87.6978C403.908 87.1851 404.238 86.9287 404.897 86.9287H407.248V83.6548C407.248 81.2085 407.907 79.5239 409.226 78.6011C410.544 77.6636 412.053 77.1948 413.752 77.1948C414.763 77.1948 415.576 77.2461 416.191 77.3486C416.821 77.4512 417.561 77.6782 418.41 78.0298C418.732 78.1616 418.828 78.396 418.696 78.7329L418.015 80.4688C417.897 80.7617 417.641 80.8203 417.246 80.6445C416.923 80.498 416.528 80.3662 416.059 80.249C415.59 80.1172 415.085 80.0513 414.543 80.0513C413.327 80.0513 412.448 80.3442 411.906 80.9302C411.379 81.5161 411.115 82.6367 411.115 84.292V86.9287H415.136C415.795 86.9287 416.125 87.1851 416.125 87.6978V89.0601C416.125 89.5728 415.795 89.8291 415.136 89.8291H411.115V109.011C411.115 109.67 410.786 110 410.126 110H408.237C407.578 110 407.248 109.67 407.248 109.011V89.8291H404.897ZM419.223 89.8291C418.564 89.8291 418.234 89.5728 418.234 89.0601V87.6978C418.234 87.1851 418.564 86.9287 419.223 86.9287H421.574V83.6548C421.574 81.2085 422.233 79.5239 423.552 78.6011C424.87 77.6636 426.379 77.1948 428.078 77.1948C429.089 77.1948 429.902 77.2461 430.517 77.3486C431.147 77.4512 431.887 77.6782 432.736 78.0298C433.059 78.1616 433.154 78.396 433.022 78.7329L432.341 80.4688C432.224 80.7617 431.967 80.8203 431.572 80.6445C431.25 80.498 430.854 80.3662 430.385 80.249C429.917 80.1172 429.411 80.0513 428.869 80.0513C427.653 80.0513 426.774 80.3442 426.232 80.9302C425.705 81.5161 425.441 82.6367 425.441 84.292V86.9287H429.462C430.122 86.9287 430.451 87.1851 430.451 87.6978V89.0601C430.451 89.5728 430.122 89.8291 429.462 89.8291H425.441V109.011C425.441 109.67 425.112 110 424.453 110H422.563C421.904 110 421.574 109.67 421.574 109.011V89.8291H419.223ZM433.439 98.4644C433.439 94.8315 434.348 91.9385 436.164 89.7852C437.98 87.6318 440.581 86.5552 443.964 86.5552C446.777 86.5552 449.106 87.5439 450.952 89.5215C452.812 91.4844 453.742 94.6265 453.742 98.9478C453.742 99.6069 453.442 99.9365 452.841 99.9365H437.526C437.775 102.764 438.537 104.734 439.812 105.847C441.086 106.946 442.529 107.495 444.14 107.495C445.839 107.495 447.143 107.209 448.051 106.638C448.959 106.067 449.626 105.503 450.051 104.946C450.52 104.331 450.974 104.214 451.413 104.595L452.709 105.715C453.046 106.008 453.046 106.411 452.709 106.924C452.431 107.349 451.633 108.03 450.314 108.967C449.011 109.905 446.953 110.374 444.14 110.374C440.478 110.374 437.775 109.297 436.032 107.144C434.304 104.99 433.439 102.097 433.439 98.4644ZM437.438 97.0801H449.853C449.794 95.0293 449.267 93.2349 448.271 91.6968C447.275 90.144 445.81 89.3677 443.876 89.3677C442.177 89.3677 440.734 89.939 439.548 91.0815C438.361 92.2095 437.658 94.209 437.438 97.0801ZM459.807 110C459.147 110 458.818 109.67 458.818 109.011V87.9175C458.818 87.2583 459.147 86.9287 459.807 86.9287H461.652C462.312 86.9287 462.641 87.2583 462.641 87.9175V90.5542H462.729C463.432 89.2358 464.26 88.2397 465.212 87.5659C466.164 86.8921 467.351 86.5552 468.771 86.5552C469.709 86.5552 470.368 86.6357 470.749 86.7969C471.086 86.9287 471.21 87.1484 471.123 87.4561L470.617 89.2578C470.544 89.5215 470.354 89.624 470.046 89.5654C469.533 89.4629 469.05 89.4116 468.596 89.4116C466.882 89.4116 465.468 90.188 464.355 91.7407C463.242 93.2788 462.685 95.3809 462.685 98.0469V109.011C462.685 109.67 462.355 110 461.696 110H459.807ZM473.43 98.4644C473.43 94.8315 474.338 91.9385 476.154 89.7852C477.971 87.6318 480.571 86.5552 483.955 86.5552C486.767 86.5552 489.096 87.5439 490.942 89.5215C492.802 91.4844 493.732 94.6265 493.732 98.9478C493.732 99.6069 493.432 99.9365 492.832 99.9365H477.517C477.766 102.764 478.527 104.734 479.802 105.847C481.076 106.946 482.519 107.495 484.13 107.495C485.83 107.495 487.133 107.209 488.042 106.638C488.95 106.067 489.616 105.503 490.041 104.946C490.51 104.331 490.964 104.214 491.403 104.595L492.7 105.715C493.037 106.008 493.037 106.411 492.7 106.924C492.421 107.349 491.623 108.03 490.305 108.967C489.001 109.905 486.943 110.374 484.13 110.374C480.468 110.374 477.766 109.297 476.022 107.144C474.294 104.99 473.43 102.097 473.43 98.4644ZM477.429 97.0801H489.843C489.785 95.0293 489.257 93.2349 488.261 91.6968C487.265 90.144 485.8 89.3677 483.867 89.3677C482.167 89.3677 480.725 89.939 479.538 91.0815C478.352 92.2095 477.648 94.209 477.429 97.0801ZM499.797 110C499.138 110 498.808 109.67 498.808 109.011V87.9175C498.808 87.2583 499.138 86.9287 499.797 86.9287H501.643C502.302 86.9287 502.631 87.2583 502.631 87.9175V89.6753H502.719C503.671 88.6206 504.697 87.8369 505.795 87.3242C506.894 86.8115 508.264 86.5552 509.904 86.5552C512.57 86.5552 514.482 87.3096 515.639 88.8184C516.811 90.3125 517.397 92.3633 517.397 94.9707V109.011C517.397 109.67 517.067 110 516.408 110H514.519C513.859 110 513.53 109.67 513.53 109.011V96.0254C513.53 93.1543 513.054 91.3379 512.102 90.5762C511.149 89.7998 509.941 89.4116 508.476 89.4116C506.572 89.4116 505.129 89.9829 504.147 91.1255C503.166 92.2534 502.675 94.1943 502.675 96.9482V109.011C502.675 109.67 502.346 110 501.687 110H499.797ZM522.473 89.8291C521.813 89.8291 521.484 89.5728 521.484 89.0601V87.6978C521.484 87.1851 521.813 86.9287 522.473 86.9287H525.065V84.9512C525.065 84.6582 525.139 84.3799 525.285 84.1162L526.823 81.3257C527.102 80.813 527.329 80.5566 527.504 80.5566H528.273C528.713 80.5566 528.933 80.813 528.933 81.3257V86.9287H533.613C534.272 86.9287 534.602 87.1851 534.602 87.6978V89.0601C534.602 89.5728 534.272 89.8291 533.613 89.8291H528.933V103.826C528.933 105.364 529.16 106.367 529.614 106.836C530.083 107.29 530.639 107.517 531.284 107.517C531.782 107.517 532.375 107.371 533.063 107.078C533.767 106.785 534.25 106.536 534.514 106.331C534.777 106.125 534.982 106.191 535.129 106.528L535.854 108.22C535.971 108.513 535.883 108.748 535.59 108.923C535.019 109.26 534.184 109.59 533.085 109.912C531.987 110.22 530.888 110.374 529.79 110.374C528.266 110.374 527.094 109.824 526.274 108.726C525.468 107.627 525.065 106.074 525.065 104.067V89.8291H522.473ZM556.223 118.789C555.563 118.789 555.234 118.459 555.234 117.8V87.9175C555.234 87.2583 555.563 86.9287 556.223 86.9287H558.068C558.596 86.9287 558.881 87.2583 558.925 87.9175L559.057 89.6753H559.101C559.907 88.7085 560.815 87.9468 561.826 87.3901C562.836 86.8335 564.184 86.5552 565.869 86.5552C568.798 86.5552 571.025 87.7563 572.548 90.1587C574.072 92.5464 574.833 95.3149 574.833 98.4644C574.833 101.614 574.072 104.39 572.548 106.792C571.025 109.18 568.798 110.374 565.869 110.374C564.184 110.374 562.836 110.095 561.826 109.539C560.815 108.982 559.907 108.22 559.101 107.253H559.057C559.086 107.693 559.101 108.14 559.101 108.594V117.8C559.101 118.459 558.771 118.789 558.112 118.789H556.223ZM559.101 100.991C559.101 103.188 559.621 104.829 560.661 105.913C561.716 106.982 563.034 107.517 564.616 107.517C566.843 107.517 568.417 106.682 569.34 105.012C570.278 103.342 570.747 101.16 570.747 98.4644C570.747 95.769 570.278 93.5864 569.34 91.9165C568.417 90.2466 566.843 89.4116 564.616 89.4116C563.034 89.4116 561.716 89.9536 560.661 91.0376C559.621 92.1069 559.101 93.7402 559.101 95.9375V100.991ZM580.832 110C580.173 110 579.843 109.67 579.843 109.011V87.9175C579.843 87.2583 580.173 86.9287 580.832 86.9287H582.678C583.337 86.9287 583.667 87.2583 583.667 87.9175V90.5542H583.754C584.458 89.2358 585.285 88.2397 586.237 87.5659C587.189 86.8921 588.376 86.5552 589.797 86.5552C590.734 86.5552 591.394 86.6357 591.774 86.7969C592.111 86.9287 592.236 87.1484 592.148 87.4561L591.643 89.2578C591.569 89.5215 591.379 89.624 591.071 89.5654C590.559 89.4629 590.075 89.4116 589.621 89.4116C587.907 89.4116 586.494 90.188 585.38 91.7407C584.267 93.2788 583.71 95.3809 583.71 98.0469V109.011C583.71 109.67 583.381 110 582.722 110H580.832ZM594.455 98.4644C594.455 95.022 595.363 92.1802 597.18 89.939C599.011 87.6831 601.684 86.5552 605.2 86.5552C608.715 86.5552 611.381 87.6831 613.198 89.939C615.029 92.1802 615.944 95.022 615.944 98.4644C615.944 101.907 615.029 104.756 613.198 107.012C611.381 109.253 608.715 110.374 605.2 110.374C601.684 110.374 599.011 109.253 597.18 107.012C595.363 104.756 594.455 101.907 594.455 98.4644ZM598.542 98.4644C598.542 101.541 599.15 103.818 600.366 105.298C601.582 106.777 603.193 107.517 605.2 107.517C607.207 107.517 608.818 106.777 610.034 105.298C611.25 103.818 611.857 101.541 611.857 98.4644C611.857 95.3882 611.25 93.1104 610.034 91.6309C608.818 90.1514 607.207 89.4116 605.2 89.4116C603.193 89.4116 601.582 90.1514 600.366 91.6309C599.15 93.1104 598.542 95.3882 598.542 98.4644ZM619.68 98.4644C619.68 95.022 620.529 92.1802 622.229 89.939C623.942 87.6831 626.557 86.5552 630.073 86.5552C632.446 86.5552 634.255 86.98 635.5 87.8296C636.76 88.6646 637.668 89.5215 638.225 90.4004C638.532 90.8838 638.466 91.272 638.027 91.5649L636.643 92.4658C636.203 92.7734 635.764 92.5757 635.324 91.8726C634.899 91.1987 634.299 90.6201 633.522 90.1367C632.761 89.6533 631.611 89.4116 630.073 89.4116C628.066 89.4116 626.513 90.1514 625.415 91.6309C624.316 93.1104 623.767 95.3882 623.767 98.4644C623.767 101.541 624.316 103.818 625.415 105.298C626.513 106.777 628.066 107.517 630.073 107.517C631.699 107.517 632.944 107.209 633.808 106.594C634.672 105.964 635.302 105.283 635.698 104.551C636.079 103.862 636.511 103.665 636.994 103.958L638.466 104.836C638.906 105.1 638.972 105.496 638.664 106.023C638.298 106.653 637.463 107.539 636.159 108.682C634.87 109.81 632.841 110.374 630.073 110.374C626.557 110.374 623.942 109.253 622.229 107.012C620.529 104.756 619.68 101.907 619.68 98.4644ZM642.224 98.4644C642.224 94.8315 643.132 91.9385 644.948 89.7852C646.765 87.6318 649.365 86.5552 652.749 86.5552C655.561 86.5552 657.89 87.5439 659.736 89.5215C661.596 91.4844 662.526 94.6265 662.526 98.9478C662.526 99.6069 662.226 99.9365 661.625 99.9365H646.311C646.56 102.764 647.321 104.734 648.596 105.847C649.87 106.946 651.313 107.495 652.924 107.495C654.624 107.495 655.927 107.209 656.835 106.638C657.744 106.067 658.41 105.503 658.835 104.946C659.304 104.331 659.758 104.214 660.197 104.595L661.494 105.715C661.831 106.008 661.831 106.411 661.494 106.924C661.215 107.349 660.417 108.03 659.099 108.967C657.795 109.905 655.737 110.374 652.924 110.374C649.262 110.374 646.56 109.297 644.816 107.144C643.088 104.99 642.224 102.097 642.224 98.4644ZM646.223 97.0801H658.637C658.579 95.0293 658.051 93.2349 657.055 91.6968C656.059 90.144 654.594 89.3677 652.661 89.3677C650.961 89.3677 649.519 89.939 648.332 91.0815C647.146 92.2095 646.442 94.209 646.223 97.0801ZM666.701 107.847C666.247 107.422 666.152 107.026 666.416 106.66L667.404 105.276C667.727 104.836 668.203 104.858 668.833 105.342C669.697 106.001 670.656 106.528 671.711 106.924C672.78 107.319 673.996 107.517 675.358 107.517C676.164 107.517 676.882 107.422 677.512 107.231C678.142 107.026 678.691 106.653 679.16 106.111C679.643 105.569 679.885 104.844 679.885 103.936C679.885 103.408 679.768 102.91 679.533 102.441C679.313 101.973 678.962 101.599 678.479 101.321C678.01 101.028 677.548 100.801 677.094 100.64C676.347 100.361 675.6 100.134 674.853 99.9585C674.121 99.7681 673.154 99.4824 671.953 99.1016C671.147 98.8525 670.385 98.501 669.667 98.0469C668.95 97.5781 668.32 96.9482 667.778 96.1572C667.25 95.3662 666.987 94.2749 666.987 92.8833C666.987 91.4624 667.419 90.2393 668.283 89.2139C669.147 88.1885 670.231 87.4927 671.535 87.1265C672.839 86.7456 674.106 86.5552 675.336 86.5552C677.153 86.5552 678.61 86.7676 679.709 87.1924C680.822 87.6025 681.782 88.0933 682.587 88.6646C683.056 89.0015 683.122 89.3896 682.785 89.8291L681.796 91.1475C681.489 91.5723 681.013 91.5576 680.368 91.1035C679.826 90.7227 679.057 90.3638 678.061 90.0269C677.065 89.6899 676.193 89.5215 675.446 89.5215C674.523 89.5215 673.732 89.624 673.073 89.8291C672.414 90.0342 671.879 90.3857 671.469 90.8838C671.059 91.3818 670.854 91.9678 670.854 92.6416C670.854 93.1543 670.935 93.6157 671.096 94.0259C671.257 94.4214 671.557 94.7876 671.997 95.1245C672.436 95.4614 673.051 95.7324 673.842 95.9375C675.073 96.2598 676.193 96.5527 677.204 96.8164C678.229 97.0801 679.152 97.4023 679.973 97.7832C681.042 98.2812 681.862 98.8306 682.434 99.4312C683.02 100.032 683.422 100.684 683.642 101.387C683.862 102.075 683.972 102.844 683.972 103.694C683.972 105.261 683.503 106.587 682.565 107.671C681.643 108.755 680.61 109.48 679.467 109.846C678.325 110.198 676.948 110.374 675.336 110.374C673.154 110.374 671.279 110.066 669.711 109.451C668.159 108.821 667.155 108.286 666.701 107.847ZM687.443 107.847C686.989 107.422 686.894 107.026 687.158 106.66L688.146 105.276C688.469 104.836 688.945 104.858 689.575 105.342C690.439 106.001 691.398 106.528 692.453 106.924C693.522 107.319 694.738 107.517 696.101 107.517C696.906 107.517 697.624 107.422 698.254 107.231C698.884 107.026 699.433 106.653 699.902 106.111C700.385 105.569 700.627 104.844 700.627 103.936C700.627 103.408 700.51 102.91 700.275 102.441C700.056 101.973 699.704 101.599 699.221 101.321C698.752 101.028 698.291 100.801 697.836 100.64C697.089 100.361 696.342 100.134 695.595 99.9585C694.863 99.7681 693.896 99.4824 692.695 99.1016C691.889 98.8525 691.127 98.501 690.41 98.0469C689.692 97.5781 689.062 96.9482 688.52 96.1572C687.993 95.3662 687.729 94.2749 687.729 92.8833C687.729 91.4624 688.161 90.2393 689.025 89.2139C689.89 88.1885 690.974 87.4927 692.277 87.1265C693.581 86.7456 694.848 86.5552 696.079 86.5552C697.895 86.5552 699.353 86.7676 700.451 87.1924C701.564 87.6025 702.524 88.0933 703.33 88.6646C703.798 89.0015 703.864 89.3896 703.527 89.8291L702.539 91.1475C702.231 91.5723 701.755 91.5576 701.11 91.1035C700.568 90.7227 699.799 90.3638 698.803 90.0269C697.807 89.6899 696.936 89.5215 696.188 89.5215C695.266 89.5215 694.475 89.624 693.815 89.8291C693.156 90.0342 692.622 90.3857 692.211 90.8838C691.801 91.3818 691.596 91.9678 691.596 92.6416C691.596 93.1543 691.677 93.6157 691.838 94.0259C691.999 94.4214 692.299 94.7876 692.739 95.1245C693.178 95.4614 693.793 95.7324 694.584 95.9375C695.815 96.2598 696.936 96.5527 697.946 96.8164C698.972 97.0801 699.895 97.4023 700.715 97.7832C701.784 98.2812 702.604 98.8306 703.176 99.4312C703.762 100.032 704.165 100.684 704.384 101.387C704.604 102.075 704.714 102.844 704.714 103.694C704.714 105.261 704.245 106.587 703.308 107.671C702.385 108.755 701.352 109.48 700.209 109.846C699.067 110.198 697.69 110.374 696.079 110.374C693.896 110.374 692.021 110.066 690.454 109.451C688.901 108.821 687.897 108.286 687.443 107.847ZM707.834 98.4644C707.834 95.022 708.742 92.1802 710.559 89.939C712.39 87.6831 715.063 86.5552 718.579 86.5552C722.094 86.5552 724.76 87.6831 726.577 89.939C728.408 92.1802 729.323 95.022 729.323 98.4644C729.323 101.907 728.408 104.756 726.577 107.012C724.76 109.253 722.094 110.374 718.579 110.374C715.063 110.374 712.39 109.253 710.559 107.012C708.742 104.756 707.834 101.907 707.834 98.4644ZM711.921 98.4644C711.921 101.541 712.529 103.818 713.745 105.298C714.96 106.777 716.572 107.517 718.579 107.517C720.585 107.517 722.197 106.777 723.413 105.298C724.628 103.818 725.236 101.541 725.236 98.4644C725.236 95.3882 724.628 93.1104 723.413 91.6309C722.197 90.1514 720.585 89.4116 718.579 89.4116C716.572 89.4116 714.96 90.1514 713.745 91.6309C712.529 93.1104 711.921 95.3882 711.921 98.4644ZM735.3 110C734.641 110 734.311 109.67 734.311 109.011V87.9175C734.311 87.2583 734.641 86.9287 735.3 86.9287H737.146C737.805 86.9287 738.134 87.2583 738.134 87.9175V90.5542H738.222C738.925 89.2358 739.753 88.2397 740.705 87.5659C741.657 86.8921 742.844 86.5552 744.265 86.5552C745.202 86.5552 745.861 86.6357 746.242 86.7969C746.579 86.9287 746.704 87.1484 746.616 87.4561L746.11 89.2578C746.037 89.5215 745.847 89.624 745.539 89.5654C745.026 89.4629 744.543 89.4116 744.089 89.4116C742.375 89.4116 740.961 90.188 739.848 91.7407C738.735 93.2788 738.178 95.3809 738.178 98.0469V109.011C738.178 109.67 737.849 110 737.189 110H735.3ZM749.274 107.847C748.82 107.422 748.725 107.026 748.989 106.66L749.978 105.276C750.3 104.836 750.776 104.858 751.406 105.342C752.27 106.001 753.229 106.528 754.284 106.924C755.354 107.319 756.569 107.517 757.932 107.517C758.737 107.517 759.455 107.422 760.085 107.231C760.715 107.026 761.264 106.653 761.733 106.111C762.216 105.569 762.458 104.844 762.458 103.936C762.458 103.408 762.341 102.91 762.106 102.441C761.887 101.973 761.535 101.599 761.052 101.321C760.583 101.028 760.122 100.801 759.667 100.64C758.92 100.361 758.173 100.134 757.426 99.9585C756.694 99.7681 755.727 99.4824 754.526 99.1016C753.72 98.8525 752.958 98.501 752.241 98.0469C751.523 97.5781 750.893 96.9482 750.351 96.1572C749.824 95.3662 749.56 94.2749 749.56 92.8833C749.56 91.4624 749.992 90.2393 750.856 89.2139C751.721 88.1885 752.805 87.4927 754.108 87.1265C755.412 86.7456 756.679 86.5552 757.91 86.5552C759.726 86.5552 761.184 86.7676 762.282 87.1924C763.396 87.6025 764.355 88.0933 765.161 88.6646C765.629 89.0015 765.695 89.3896 765.358 89.8291L764.37 91.1475C764.062 91.5723 763.586 91.5576 762.941 91.1035C762.399 90.7227 761.63 90.3638 760.634 90.0269C759.638 89.6899 758.767 89.5215 758.02 89.5215C757.097 89.5215 756.306 89.624 755.646 89.8291C754.987 90.0342 754.453 90.3857 754.042 90.8838C753.632 91.3818 753.427 91.9678 753.427 92.6416C753.427 93.1543 753.508 93.6157 753.669 94.0259C753.83 94.4214 754.13 94.7876 754.57 95.1245C755.009 95.4614 755.625 95.7324 756.416 95.9375C757.646 96.2598 758.767 96.5527 759.777 96.8164C760.803 97.0801 761.726 97.4023 762.546 97.7832C763.615 98.2812 764.436 98.8306 765.007 99.4312C765.593 100.032 765.996 100.684 766.215 101.387C766.435 102.075 766.545 102.844 766.545 103.694C766.545 105.261 766.076 106.587 765.139 107.671C764.216 108.755 763.183 109.48 762.041 109.846C760.898 110.198 759.521 110.374 757.91 110.374C755.727 110.374 753.852 110.066 752.285 109.451C750.732 108.821 749.729 108.286 749.274 107.847Z" fill="white"/>
<line x1="1019" y1="1391" x2="143" y2="1391" stroke="white" stroke-width="8"/>
<rect x="256" y="442" width="176" height="945" fill="#75D573"/>
<rect x="703" y="202" width="176" height="1185" fill="#75D573"/>
<path d="M1019 994L143 994" stroke="white" stroke-width="4"/>
<line x1="1019" y1="604" x2="143" y2="604" stroke="white" stroke-width="4"/>
<line x1="1019" y1="212" x2="143" y2="212" stroke="white" stroke-width="4"/>
<path d="M143 119L143 1395" stroke="white" stroke-width="8"/>
</svg>
