<svg width="1278" height="1278" viewBox="0 0 1278 1278" fill="none" xmlns="http://www.w3.org/2000/svg">
<path d="M549.616 243.261C490.046 258.38 404.944 309.404 363.339 353.813C342.537 376.491 311.333 423.735 295.258 458.696C267.837 516.335 265 530.508 265 612.713C265 697.753 266.891 706.257 299.986 774.29C342.537 860.275 397.38 913.188 485.318 954.764C542.997 982.165 557.181 985 638.5 985C719.819 985 734.003 982.165 791.682 954.764C879.62 913.188 934.463 860.275 977.014 774.29C1010.11 706.257 1012 697.753 1012 611.768C1012 525.783 1010.11 517.279 977.014 449.247C912.715 320.742 799.247 244.206 659.303 237.592C619.589 235.702 570.419 238.537 549.616 243.261ZM768.989 299.955C795.465 311.293 818.158 322.632 818.158 324.522C818.158 345.309 762.37 433.184 740.622 446.413C716.982 459.641 713.2 467.2 717.928 488.933C720.765 506.886 718.873 517.279 709.418 521.059C677.268 533.343 706.581 611.768 743.458 611.768C752.914 611.768 777.499 596.65 798.301 578.697C818.158 560.744 838.961 545.626 844.634 545.626C855.035 545.626 865.437 567.359 865.437 589.091C865.437 605.154 817.213 630.666 785.063 630.666C691.452 630.666 664.03 727.045 742.513 779.959C772.771 799.802 816.267 865.944 818.158 891.456C818.158 911.299 721.71 945.315 648.901 950.039L579.875 954.764L586.494 922.637C593.113 888.621 618.643 830.983 645.119 790.353C654.575 776.179 658.357 757.281 654.575 743.108C647.01 711.927 565.691 674.131 491.937 668.462C438.039 663.737 435.203 661.848 432.366 637.28C428.584 608.934 432.366 607.044 457.896 623.107C481.535 637.28 504.229 620.272 508.011 585.311C509.903 564.524 516.522 558.855 539.215 556.965C586.494 551.295 600.677 530.508 600.677 469.09C600.677 408.617 585.548 384.995 547.725 384.995C535.433 384.995 525.032 380.27 525.032 375.546C525.032 355.703 554.344 295.23 570.419 282.947C595.004 264.049 707.527 273.498 768.989 299.955ZM496.665 332.081C476.808 384.995 494.773 422.79 540.161 422.79C562.854 422.79 563.8 425.625 560.963 467.2C558.127 508.775 556.235 511.61 526.923 519.169C508.957 523.894 489.1 538.067 479.644 553.185C468.297 571.138 456.951 577.752 441.822 575.863C413.454 571.138 394.543 588.146 390.761 619.328L387.924 644.84L355.775 608.934C337.809 590.036 317.952 573.973 310.387 573.973C277.292 573.973 341.591 429.405 400.216 373.656C439.93 334.916 496.665 297.12 504.229 303.734C505.175 305.624 502.338 317.908 496.665 332.081ZM947.701 473.814C970.395 522.949 974.177 543.736 974.177 611.768C974.177 679.801 970.395 700.588 947.701 749.722C923.116 801.691 862.6 877.283 852.199 865.944C850.308 864.054 838.015 840.432 824.777 813.975C807.757 780.904 791.682 762.006 770.88 753.502C715.091 730.825 726.438 668.462 786.954 668.462C818.158 668.462 867.328 646.729 888.13 623.107C909.878 597.595 904.205 541.847 875.838 514.445C859.763 497.437 854.09 497.437 829.505 506.886C813.43 513.5 789.791 531.453 775.608 547.516C756.696 568.303 747.241 573.028 739.676 565.469C732.111 557.91 734.948 551.295 751.023 539.957C767.097 528.618 770.88 519.169 766.152 501.216C762.37 484.208 766.152 473.814 782.227 460.586C794.519 451.137 814.376 421.846 827.614 395.389L850.308 347.199L885.294 381.215C905.151 400.113 932.572 441.688 947.701 473.814ZM330.244 634.446C337.809 647.674 364.285 671.296 387.924 687.36C418.182 708.147 430.475 723.265 430.475 738.384C430.475 750.667 438.985 789.408 450.332 824.369C460.733 858.385 467.352 892.401 465.461 898.07C458.842 919.803 357.666 811.14 332.135 754.447C289.585 659.958 288.639 571.138 330.244 634.446ZM569.473 725.155C582.711 735.549 599.732 744.053 606.351 744.053C625.262 744.053 622.425 765.786 599.732 794.132C589.33 808.306 572.31 845.156 560.963 876.338C537.324 947.204 514.63 950.984 504.229 885.787C501.392 862.164 491.937 824.369 483.427 801.691C474.916 779.014 468.297 748.777 468.297 733.659C468.297 708.147 471.134 706.257 507.066 706.257C531.651 706.257 554.344 712.872 569.473 725.155Z" fill="#75D573"/>
</svg>
