<svg width="1607" height="1097" viewBox="0 0 1607 1097" fill="none" xmlns="http://www.w3.org/2000/svg">
<path d="M110 571.701L110.341 571.464L113.988 568.992L115.078 568.253L118.044 566.282L119.816 565.106L122.162 563.573L124.553 562.011L126.335 560.864L129.291 558.96L130.559 558.154L134.028 555.949L134.831 555.445L138.766 552.974L143.503 550.032L147.92 547.317L152.368 544.607L152.978 544.236L156.855 541.898L157.716 541.379L161.38 539.189L162.453 538.547L165.943 536.479L167.191 535.74L170.542 533.77L171.928 532.955L175.177 531.06L176.666 530.192L179.848 528.351L181.403 527.451L184.553 525.642L186.141 524.73L189.293 522.932L190.878 522.029L194.068 520.223L195.616 519.347L198.875 517.514L200.353 516.683L203.716 514.804L205.091 514.037L208.591 512.095L209.828 511.408L213.497 509.385L214.566 508.797L218.437 506.676L219.303 506.202L223.408 503.967L224.041 503.622L228.412 501.257L233.447 498.548L238.253 495.978L242.991 493.46L243.616 493.129L247.728 490.956L248.748 490.42L252.466 488.466L253.911 487.71L257.203 485.99L259.105 485.001L261.941 483.527L264.331 482.292L266.678 481.078L269.588 479.582L271.416 478.642L274.875 476.873L276.153 476.219L280.193 474.164L280.891 473.809L285.542 471.454L290.366 469.025L290.925 468.745L295.103 466.651L296.338 466.035L299.841 464.289L301.783 463.326L304.578 461.939L307.258 460.617L309.316 459.601L312.763 457.907L314.053 457.274L318.299 455.198L323.528 452.653L328.266 450.359L329.469 449.779L333.003 448.076L335.101 447.07L337.741 445.804L340.764 444.36L342.478 443.542L346.457 441.651L347.216 441.291L351.953 439.049L356.691 436.819L357.941 436.232L361.428 434.598L363.731 433.523L366.166 432.387L369.552 430.814L370.903 430.186L375.403 428.104L380.378 425.813L381.289 425.395L385.116 423.641L387.208 422.685L389.853 421.478L393.157 419.976L394.591 419.325L399.137 417.267L404.066 415.046L405.153 414.557L408.803 412.92L411.201 411.848L413.541 410.803L417.281 409.139L418.278 408.695L423.016 406.596L427.753 404.505L429.541 403.72L432.491 402.424L435.72 401.01L437.228 400.351L441.931 398.301L446.703 396.23L448.18 395.592L451.441 394.182L454.46 392.882L456.178 392.143L460.773 390.173L465.653 388.089L467.123 387.464L470.391 386.074L473.506 384.754L475.128 384.067L479.866 382.068L484.603 380.078L486.376 379.335L489.341 378.095L492.863 376.626L494.078 376.12L498.816 374.152L499.385 373.917L503.553 372.192L505.944 371.207L508.291 370.24L512.536 368.498L517.766 366.359L519.166 365.789L522.503 364.43L525.832 363.079L527.241 362.508L531.978 360.593L532.533 360.37L536.716 358.686L539.273 357.66L541.453 356.786L546.046 354.951L550.928 353.008L552.86 352.242L555.666 351.13L559.709 349.532L560.403 349.258L565.141 347.394L566.598 346.823L569.878 345.537L573.523 344.114L574.616 343.687L579.353 341.844L580.487 341.404L584.091 340.007L587.489 338.695L588.828 338.178L593.566 336.355L594.53 335.985L598.303 334.539L601.611 333.276L603.041 332.73L607.778 330.928L608.73 330.567L612.516 329.132L615.891 327.857L617.253 327.343L621.991 325.56L623.09 325.148L626.728 323.784L630.33 322.439L631.466 322.015L636.203 320.252L637.612 319.729L640.941 318.495L644.933 317.02L645.678 316.745L650.416 315.001L652.298 314.31L655.153 313.263L659.702 311.601L664.628 309.807L667.152 308.892L669.366 308.089L674.103 306.376L674.642 306.182L678.841 304.67L682.176 303.473L683.578 302.97L688.316 301.276L689.754 300.764L693.053 299.588L697.374 298.054L702.528 296.231L705.041 295.345L707.266 294.561L712.003 292.897L712.75 292.635L716.741 291.239L720.506 289.926L721.478 289.587L726.216 287.941L728.308 287.217L730.953 286.301L735.691 284.667L740.428 283.038L744.049 281.798L745.166 281.415L749.903 279.798L751.99 279.089L754.641 278.187L759.378 276.582L759.978 276.379L764.116 274.982L768.015 273.67L768.853 273.388L773.591 271.799L776.101 270.96L778.328 270.216L783.066 268.639L784.235 268.251L787.803 267.067L792.417 265.542L797.278 263.94L800.653 262.832L802.016 262.385L806.753 260.835L808.939 260.123L811.491 259.291L816.228 257.752L817.275 257.414L820.966 256.219L825.662 254.704L830.441 253.168L834.104 251.995L835.178 251.651L839.916 250.139L842.599 249.285L844.653 248.632L849.391 247.131L851.147 246.576L854.128 245.635L858.866 244.144L859.75 243.867L863.603 242.658L868.341 241.178L873.078 239.703L877.121 238.448L877.816 238.233L882.553 236.768L885.892 235.739L887.291 235.308L892.028 233.853L894.72 233.029L896.766 232.403L901.503 230.959L903.606 230.32L906.241 229.519L910.978 228.085L912.551 227.61L915.716 226.656L920.453 225.231L921.555 224.901L925.191 223.812L929.928 222.397L930.619 222.192L934.666 220.988L939.403 219.583L944.141 218.184L948.878 216.789L953.616 215.399L958.183 214.064L963.091 212.634L967.498 211.354L972.566 209.888L976.878 208.645L982.041 207.161L986.323 205.935L991.516 204.454L995.835 203.226L1000.99 201.765L1005.41 200.517L1010.47 199.096L1015.06 197.807L1019.94 196.445L1024.68 195.126L1029.42 193.812L1034.15 192.503L1038.89 191.199L1043.63 189.899L1044.43 189.679L1048.37 188.603L1053.1 187.312L1054.36 186.97L1057.84 186.026L1062.58 184.744L1064.37 184.26L1067.32 183.467L1072.05 182.194L1074.46 181.551L1076.79 180.926L1081.53 179.662L1084.62 178.842L1086.27 178.403L1091 177.148L1094.85 176.132L1095.74 175.898L1100.48 174.652L1105.17 173.423L1109.95 172.173L1114.69 170.941L1115.57 170.714L1119.43 169.712L1124.17 168.489L1126.05 168.004L1128.9 167.269L1133.64 166.054L1136.61 165.295L1138.38 164.843L1143.12 163.636L1147.26 162.585L1147.85 162.434L1152.59 161.236L1157.33 160.043L1157.99 159.876L1162.07 158.853L1166.8 157.668L1168.82 157.167L1171.54 156.487L1176.28 155.311L1179.73 154.457L1181.02 154.139L1185.75 152.97L1190.49 151.807L1195.23 150.647L1199.97 149.491L1201.83 149.039L1204.7 148.34L1209.44 147.193L1213.02 146.329L1214.18 146.05L1218.92 144.911L1223.65 143.776L1224.31 143.62L1228.39 142.646L1233.13 141.519L1235.7 140.91L1237.87 140.397L1242.6 139.278L1247.18 138.201L1252.08 137.054L1256.82 135.948L1258.78 135.492L1261.55 134.846L1266.29 133.748L1270.47 132.782L1271.03 132.654L1275.77 131.564L1280.5 130.478L1282.28 130.073L1285.24 129.396L1289.98 128.319L1294.19 127.364L1294.72 127.245L1299.45 126.175L1304.19 125.109L1306.22 124.654L1308.93 124.047L1313.67 122.989L1318.36 121.945L1323.14 120.884L1327.88 119.838L1330.62 119.235L1332.62 118.796L1337.35 117.757L1342.09 116.723L1342.99 116.526L1346.83 115.692L1351.57 114.665L1355.5 113.817L1356.3 113.642L1361.04 112.623L1365.78 111.608L1368.12 111.107L1370.52 110.597L1375.25 109.589L1379.99 108.585L1380.88 108.398L1384.73 107.586L1389.47 106.589L1393.77 105.689L1398.94 104.609L1403.68 103.624L1406.79 102.979L1408.42 102.643L1413.15 101.666L1417.89 100.692L1419.95 100.27L1422.63 99.7225L1427.37 98.7566L1432.1 97.7943L1433.26 97.5605L1436.84 96.8359L1441.58 95.8811L1446.32 94.93L1451.05 93.9826L1455.79 93.0389L1460.31 92.1417L1465.27 91.1626L1470 90.23L1474.07 89.4324L1474.74 89.301L1479.48 88.3756L1484.22 87.454L1487.99 86.723L1488.95 86.5359L1493.69 85.6215L1498.43 84.7107L1502.07 84.0136L1503.17 83.8035L1507.9 82.9L1512.64 82" stroke="#75D573" stroke-width="9" stroke-miterlimit="10" stroke-linecap="round" stroke-linejoin="round"/>
<path d="M110 0L92.6795 30H127.321L110 0ZM107 27L107 1037H113L113 27H107Z" fill="white"/>
<path d="M1607 1036.51L1577.01 1019.17L1576.99 1053.82L1607 1036.51ZM109.999 1039L1580 1039.5L1580 1033.5L110.001 1033L109.999 1039Z" fill="white"/>
<path d="M694.759 1072.75C694.759 1068.76 695.745 1065.64 697.716 1063.38C699.698 1061.11 702.541 1059.98 706.244 1059.98C708.408 1059.98 710.197 1060.35 711.61 1061.09C713.023 1061.82 714.037 1062.82 714.652 1064.1C714.971 1064.76 714.92 1065.22 714.498 1065.47L713.148 1066.25C712.692 1066.51 712.288 1066.3 711.935 1065.6C711.559 1064.89 710.943 1064.21 710.089 1063.59C709.234 1062.96 708.01 1062.65 706.415 1062.65C703.566 1062.65 701.493 1063.54 700.194 1065.31C698.906 1067.08 698.263 1069.56 698.263 1072.75C698.263 1075.94 698.906 1078.42 700.194 1080.2C701.493 1081.96 703.566 1082.85 706.415 1082.85C708.055 1082.85 709.365 1082.47 710.345 1081.72C711.336 1080.97 712.054 1080.18 712.499 1079.36C712.852 1078.7 713.262 1078.5 713.729 1078.76L715.147 1079.57C715.558 1079.8 715.592 1080.26 715.25 1080.93C714.578 1082.24 713.484 1083.34 711.969 1084.21C710.453 1085.08 708.545 1085.51 706.244 1085.51C702.541 1085.51 699.698 1084.38 697.716 1082.13C695.745 1079.86 694.759 1076.73 694.759 1072.75ZM720.907 1085C720.337 1085 720.052 1084.69 720.052 1084.06V1061.43C720.052 1060.81 720.337 1060.49 720.907 1060.49H728.084C731.958 1060.49 734.573 1061.15 735.929 1062.46C737.285 1063.76 737.962 1065.55 737.962 1067.82C737.962 1070.1 737.285 1071.9 735.929 1073.21C734.573 1074.51 731.958 1075.16 728.084 1075.16H723.333V1084.06C723.333 1084.69 723.049 1085 722.479 1085H720.907ZM723.333 1072.35H728.136C730.642 1072.35 732.351 1072 733.263 1071.29C734.174 1070.58 734.63 1069.42 734.63 1067.82C734.63 1066.23 734.174 1065.08 733.263 1064.37C732.351 1063.65 730.642 1063.3 728.136 1063.3H723.333V1072.35ZM742.406 1075.65V1061.43C742.406 1060.81 742.691 1060.49 743.26 1060.49H744.833C745.402 1060.49 745.687 1060.81 745.687 1061.43V1075.14C745.687 1078.33 746.137 1080.41 747.037 1081.39C747.949 1082.36 749.43 1082.85 751.48 1082.85C753.531 1082.85 755.007 1082.36 755.907 1081.39C756.818 1080.41 757.274 1078.33 757.274 1075.14V1061.43C757.274 1060.81 757.559 1060.49 758.128 1060.49H759.701C760.27 1060.49 760.555 1060.81 760.555 1061.43V1075.65C760.555 1079.26 759.723 1081.81 758.06 1083.29C756.408 1084.77 754.215 1085.51 751.48 1085.51C748.746 1085.51 746.547 1084.77 744.884 1083.29C743.232 1081.81 742.406 1079.26 742.406 1075.65ZM778.021 1075.65V1061.43C778.021 1060.81 778.306 1060.49 778.875 1060.49H780.448C781.017 1060.49 781.302 1060.81 781.302 1061.43V1075.14C781.302 1078.33 781.752 1080.41 782.652 1081.39C783.564 1082.36 785.045 1082.85 787.096 1082.85C789.146 1082.85 790.622 1082.36 791.522 1081.39C792.433 1080.41 792.889 1078.33 792.889 1075.14V1061.43C792.889 1060.81 793.174 1060.49 793.744 1060.49H795.316C795.886 1060.49 796.17 1060.81 796.17 1061.43V1075.65C796.17 1079.26 795.339 1081.81 793.675 1083.29C792.023 1084.77 789.83 1085.51 787.096 1085.51C784.361 1085.51 782.162 1084.77 780.499 1083.29C778.847 1081.81 778.021 1079.26 778.021 1075.65ZM800.631 1069.31C800.118 1069.31 799.862 1069.11 799.862 1068.71V1067.65C799.862 1067.26 800.118 1067.06 800.631 1067.06H802.647V1065.52C802.647 1065.29 802.704 1065.07 802.818 1064.87L804.015 1062.7C804.231 1062.3 804.408 1062.1 804.544 1062.1H805.143C805.484 1062.1 805.655 1062.3 805.655 1062.7V1067.06H809.295C809.808 1067.06 810.064 1067.26 810.064 1067.65V1068.71C810.064 1069.11 809.808 1069.31 809.295 1069.31H805.655V1080.2C805.655 1081.39 805.832 1082.17 806.185 1082.54C806.55 1082.89 806.983 1083.07 807.484 1083.07C807.871 1083.07 808.333 1082.95 808.868 1082.73C809.415 1082.5 809.791 1082.31 809.996 1082.15C810.201 1081.99 810.361 1082.04 810.475 1082.3L811.039 1083.62C811.13 1083.84 811.061 1084.03 810.833 1084.16C810.389 1084.42 809.74 1084.68 808.885 1084.93C808.031 1085.17 807.176 1085.29 806.322 1085.29C805.137 1085.29 804.225 1084.86 803.587 1084.01C802.961 1083.15 802.647 1081.95 802.647 1080.39V1069.31H800.631ZM815.226 1085C814.713 1085 814.457 1084.74 814.457 1084.23V1067.82C814.457 1067.31 814.713 1067.06 815.226 1067.06H816.695C817.208 1067.06 817.464 1067.31 817.464 1067.82V1084.23C817.464 1084.74 817.208 1085 816.695 1085H815.226ZM815.226 1063.81C814.713 1063.81 814.457 1063.55 814.457 1063.04V1061.57C814.457 1061.06 814.713 1060.8 815.226 1060.8H816.695C817.208 1060.8 817.464 1061.06 817.464 1061.57V1063.04C817.464 1063.55 817.208 1063.81 816.695 1063.81H815.226ZM823.087 1085C822.574 1085 822.318 1084.74 822.318 1084.23V1062.9C822.318 1062.67 822.375 1062.46 822.489 1062.25L823.685 1060.08C823.902 1059.68 824.078 1059.48 824.215 1059.48H824.813C825.155 1059.48 825.326 1059.68 825.326 1060.08V1084.23C825.326 1084.74 825.069 1085 824.557 1085H823.087ZM830.948 1085C830.436 1085 830.179 1084.74 830.179 1084.23V1067.82C830.179 1067.31 830.436 1067.06 830.948 1067.06H832.418C832.931 1067.06 833.187 1067.31 833.187 1067.82V1084.23C833.187 1084.74 832.931 1085 832.418 1085H830.948ZM830.948 1063.81C830.436 1063.81 830.179 1063.55 830.179 1063.04V1061.57C830.179 1061.06 830.436 1060.8 830.948 1060.8H832.418C832.931 1060.8 833.187 1061.06 833.187 1061.57V1063.04C833.187 1063.55 832.931 1063.81 832.418 1063.81H830.948ZM837.323 1085C836.81 1085 836.554 1084.8 836.554 1084.4V1083.53C836.554 1083.14 836.753 1082.69 837.152 1082.16L847.03 1069.31V1069.28C846.688 1069.3 846.346 1069.31 846.004 1069.31H837.733C837.22 1069.31 836.964 1069.11 836.964 1068.71V1067.65C836.964 1067.26 837.22 1067.06 837.733 1067.06H849.73C850.243 1067.06 850.499 1067.26 850.499 1067.65V1068.46C850.499 1068.8 850.288 1069.24 849.867 1069.79L839.92 1082.74V1082.78C840.262 1082.76 840.604 1082.74 840.946 1082.74H850.14C850.653 1082.74 850.909 1082.94 850.909 1083.34V1084.4C850.909 1084.8 850.653 1085 850.14 1085H837.323ZM853.302 1080.21C853.302 1078.19 854.247 1076.7 856.139 1075.75C858.041 1074.81 860.878 1074.26 864.649 1074.1V1072.93C864.649 1071.86 864.404 1070.94 863.915 1070.17C863.436 1069.38 862.479 1068.99 861.043 1068.99C860.132 1068.99 859.403 1069.08 858.856 1069.26C858.309 1069.43 857.808 1069.66 857.352 1069.96C856.908 1070.25 856.48 1070.62 856.07 1071.07C855.763 1071.41 855.472 1071.43 855.199 1071.12L854.31 1070.1C854.059 1069.81 854.145 1069.47 854.566 1069.07C855.17 1068.5 855.757 1068.08 856.327 1067.79C856.896 1067.51 857.603 1067.27 858.446 1067.07C859.3 1066.87 860.166 1066.77 861.043 1066.77C863.425 1066.77 865.122 1067.38 866.136 1068.61C867.15 1069.83 867.657 1071.5 867.657 1073.64V1084.23C867.657 1084.74 867.401 1085 866.888 1085H865.35C864.906 1085 864.684 1084.74 864.684 1084.23V1083.39H864.649C863.749 1084.1 862.866 1084.6 862 1084.88C861.146 1085.15 860.189 1085.29 859.129 1085.29C857.261 1085.29 855.82 1084.85 854.806 1083.96C853.803 1083.06 853.302 1081.81 853.302 1080.21ZM856.412 1080.28C856.412 1080.99 856.56 1081.56 856.856 1081.99C857.153 1082.41 857.563 1082.69 858.087 1082.81C858.611 1082.93 859.158 1082.98 859.728 1082.98C860.605 1082.98 861.437 1082.9 862.223 1082.73C863.009 1082.56 863.818 1082.11 864.649 1081.38V1076.34C862.348 1076.51 860.707 1076.72 859.728 1076.97C858.748 1077.21 857.95 1077.63 857.335 1078.23C856.72 1078.82 856.412 1079.51 856.412 1080.28ZM871.656 1069.31C871.144 1069.31 870.887 1069.11 870.887 1068.71V1067.65C870.887 1067.26 871.144 1067.06 871.656 1067.06H873.673V1065.52C873.673 1065.29 873.73 1065.07 873.844 1064.87L875.04 1062.7C875.257 1062.3 875.433 1062.1 875.57 1062.1H876.168C876.51 1062.1 876.681 1062.3 876.681 1062.7V1067.06H880.321C880.833 1067.06 881.09 1067.26 881.09 1067.65V1068.71C881.09 1069.11 880.833 1069.31 880.321 1069.31H876.681V1080.2C876.681 1081.39 876.857 1082.17 877.21 1082.54C877.575 1082.89 878.008 1083.07 878.509 1083.07C878.897 1083.07 879.358 1082.95 879.894 1082.73C880.44 1082.5 880.816 1082.31 881.021 1082.15C881.227 1081.99 881.386 1082.04 881.5 1082.3L882.064 1083.62C882.155 1083.84 882.087 1084.03 881.859 1084.16C881.415 1084.42 880.765 1084.68 879.911 1084.93C879.056 1085.17 878.202 1085.29 877.347 1085.29C876.162 1085.29 875.251 1084.86 874.613 1084.01C873.986 1083.15 873.673 1081.95 873.673 1080.39V1069.31H871.656ZM886.251 1085C885.738 1085 885.482 1084.74 885.482 1084.23V1067.82C885.482 1067.31 885.738 1067.06 886.251 1067.06H887.721C888.233 1067.06 888.49 1067.31 888.49 1067.82V1084.23C888.49 1084.74 888.233 1085 887.721 1085H886.251ZM886.251 1063.81C885.738 1063.81 885.482 1063.55 885.482 1063.04V1061.57C885.482 1061.06 885.738 1060.8 886.251 1060.8H887.721C888.233 1060.8 888.49 1061.06 888.49 1061.57V1063.04C888.49 1063.55 888.233 1063.81 887.721 1063.81H886.251ZM892.369 1076.03C892.369 1073.35 893.076 1071.14 894.488 1069.4C895.912 1067.64 897.992 1066.77 900.726 1066.77C903.46 1066.77 905.534 1067.64 906.947 1069.4C908.371 1071.14 909.083 1073.35 909.083 1076.03C909.083 1078.71 908.371 1080.92 906.947 1082.68C905.534 1084.42 903.46 1085.29 900.726 1085.29C897.992 1085.29 895.912 1084.42 894.488 1082.68C893.076 1080.92 892.369 1078.71 892.369 1076.03ZM895.548 1076.03C895.548 1078.42 896.021 1080.19 896.966 1081.34C897.912 1082.49 899.165 1083.07 900.726 1083.07C902.287 1083.07 903.54 1082.49 904.486 1081.34C905.431 1080.19 905.904 1078.42 905.904 1076.03C905.904 1073.64 905.431 1071.86 904.486 1070.71C903.54 1069.56 902.287 1068.99 900.726 1068.99C899.165 1068.99 897.912 1069.56 896.966 1070.71C896.021 1071.86 895.548 1073.64 895.548 1076.03ZM913.731 1085C913.219 1085 912.962 1084.74 912.962 1084.23V1067.82C912.962 1067.31 913.219 1067.06 913.731 1067.06H915.167C915.68 1067.06 915.936 1067.31 915.936 1067.82V1069.19H916.004C916.745 1068.37 917.542 1067.76 918.397 1067.36C919.251 1066.96 920.317 1066.77 921.593 1066.77C923.666 1066.77 925.153 1067.35 926.053 1068.53C926.965 1069.69 927.42 1071.28 927.42 1073.31V1084.23C927.42 1084.74 927.164 1085 926.651 1085H925.182C924.669 1085 924.413 1084.74 924.413 1084.23V1074.13C924.413 1071.9 924.042 1070.49 923.302 1069.89C922.561 1069.29 921.621 1068.99 920.482 1068.99C919.001 1068.99 917.879 1069.43 917.115 1070.32C916.352 1071.2 915.97 1072.71 915.97 1074.85V1084.23C915.97 1084.74 915.714 1085 915.201 1085H913.731Z" fill="white"/>
<path d="M35 699.562C35 700.131 34.6867 700.416 34.0601 700.416H11.4331C10.8065 700.416 10.4932 700.131 10.4932 699.562V692.384C10.4932 688.51 11.1483 685.895 12.4585 684.54C13.7573 683.184 15.5461 682.506 17.8247 682.506C20.1034 682.506 21.8978 683.184 23.208 684.54C24.5068 685.895 25.1562 688.51 25.1562 692.384V697.135H34.0601C34.6867 697.135 35 697.42 35 697.989V699.562ZM22.3535 697.135V692.333C22.3535 689.826 22.0003 688.117 21.2939 687.206C20.5762 686.294 19.4198 685.838 17.8247 685.838C16.2297 685.838 15.0789 686.294 14.3726 687.206C13.6548 688.117 13.2959 689.826 13.2959 692.333V697.135H22.3535ZM26.0278 679.515C23.3504 679.515 21.1401 678.809 19.397 677.396C17.6424 675.972 16.7651 673.893 16.7651 671.158C16.7651 668.424 17.6424 666.35 19.397 664.938C21.1401 663.513 23.3504 662.801 26.0278 662.801C28.7052 662.801 30.9212 663.513 32.6758 664.938C34.4189 666.35 35.2905 668.424 35.2905 671.158C35.2905 673.893 34.4189 675.972 32.6758 677.396C30.9212 678.809 28.7052 679.515 26.0278 679.515ZM26.0278 676.336C28.4204 676.336 30.1921 675.864 31.3428 674.918C32.4935 673.972 33.0688 672.719 33.0688 671.158C33.0688 669.597 32.4935 668.344 31.3428 667.398C30.1921 666.453 28.4204 665.98 26.0278 665.98C23.6353 665.98 21.8636 666.453 20.7129 667.398C19.5622 668.344 18.9868 669.597 18.9868 671.158C18.9868 672.719 19.5622 673.972 20.7129 674.918C21.8636 675.864 23.6353 676.336 26.0278 676.336ZM17.8931 660.357C17.3348 660.506 17.0557 660.352 17.0557 659.896V658.102C17.0557 657.691 17.2778 657.435 17.7222 657.333L29.0015 654.82C29.3319 654.741 29.8503 654.621 30.5566 654.461C31.263 654.291 31.7814 654.171 32.1118 654.103V654.034C31.7928 653.977 31.3143 653.88 30.6763 653.744C30.0382 653.596 29.48 653.459 29.0015 653.333L17.7222 650.326C17.2778 650.212 17.0557 649.955 17.0557 649.557V648.019C17.0557 647.62 17.2778 647.363 17.7222 647.25L29.0015 644.242C29.48 644.116 30.0382 643.985 30.6763 643.849C31.3143 643.701 31.7928 643.598 32.1118 643.541V643.473C31.7814 643.404 31.263 643.29 30.5566 643.131C29.8503 642.96 29.3319 642.835 29.0015 642.755L17.7222 640.243C17.2778 640.14 17.0557 639.884 17.0557 639.474V637.679C17.0557 637.223 17.3348 637.07 17.8931 637.218L33.9575 641.456C34.6525 641.638 35 641.946 35 642.379V644.43C35 644.863 34.6525 645.17 33.9575 645.353L22.6611 648.258C21.8636 648.463 21.3053 648.594 20.9863 648.651C20.6673 648.696 20.3654 648.736 20.0806 648.771V648.805C20.3654 648.839 20.6673 648.884 20.9863 648.941C21.3053 648.987 21.8636 649.112 22.6611 649.317L33.9575 652.223C34.6525 652.405 35 652.713 35 653.146V655.196C35 655.629 34.6525 655.937 33.9575 656.119L17.8931 660.357ZM26.0278 635.218C23.2023 635.218 20.9521 634.512 19.2773 633.099C17.6025 631.686 16.7651 629.664 16.7651 627.032C16.7651 624.845 17.5342 623.033 19.0723 621.598C20.599 620.151 23.0428 619.427 26.4038 619.427C26.9165 619.427 27.1729 619.661 27.1729 620.128V632.04C29.3717 631.846 30.9041 631.253 31.77 630.262C32.6245 629.271 33.0518 628.149 33.0518 626.896C33.0518 625.574 32.8296 624.56 32.3853 623.854C31.9409 623.147 31.5023 622.629 31.0693 622.298C30.5908 621.934 30.4997 621.581 30.7959 621.239L31.6675 620.23C31.8953 619.968 32.2087 619.968 32.6074 620.23C32.9378 620.447 33.4676 621.068 34.1968 622.093C34.9259 623.107 35.2905 624.708 35.2905 626.896C35.2905 629.744 34.4531 631.846 32.7783 633.202C31.1035 634.546 28.8534 635.218 26.0278 635.218ZM24.9512 632.108V622.452C23.3561 622.498 21.9604 622.908 20.7642 623.683C19.5565 624.457 18.9526 625.597 18.9526 627.101C18.9526 628.422 19.397 629.544 20.2856 630.467C21.1629 631.39 22.7181 631.937 24.9512 632.108ZM35 614.71C35 615.223 34.7437 615.479 34.231 615.479H17.8247C17.312 615.479 17.0557 615.223 17.0557 614.71V613.275C17.0557 612.762 17.312 612.506 17.8247 612.506H19.8755V612.438C18.8501 611.891 18.0754 611.247 17.5513 610.506C17.0272 609.766 16.7651 608.843 16.7651 607.738C16.7651 607.009 16.8278 606.496 16.9531 606.2C17.0557 605.938 17.2266 605.841 17.4658 605.909L18.8672 606.302C19.0723 606.359 19.152 606.507 19.1064 606.747C19.0267 607.145 18.9868 607.521 18.9868 607.875C18.9868 609.208 19.5907 610.307 20.7983 611.173C21.9946 612.039 23.6296 612.472 25.7031 612.472H34.231C34.7437 612.472 35 612.728 35 613.241V614.71ZM26.0278 592.459C23.3504 592.459 21.1401 591.799 19.397 590.477C17.6424 589.144 16.7651 587.11 16.7651 584.376C16.7651 582.53 17.0955 581.123 17.7563 580.155C18.4058 579.175 19.0723 578.469 19.7559 578.036C20.1318 577.796 20.4338 577.848 20.6616 578.189L21.3623 579.266C21.6016 579.608 21.4478 579.95 20.9009 580.292C20.3768 580.622 19.9268 581.089 19.5508 581.693C19.1748 582.285 18.9868 583.18 18.9868 584.376C18.9868 585.937 19.5622 587.145 20.7129 587.999C21.8636 588.854 23.6353 589.281 26.0278 589.281C28.4204 589.281 30.1921 588.854 31.3428 587.999C32.4935 587.145 33.0688 585.937 33.0688 584.376C33.0688 583.111 32.8296 582.143 32.3511 581.471C31.8612 580.799 31.3314 580.309 30.7617 580.001C30.2262 579.705 30.0724 579.369 30.3003 578.993L30.9839 577.848C31.189 577.506 31.4966 577.455 31.9067 577.694C32.3966 577.979 33.0859 578.628 33.9746 579.642C34.8519 580.645 35.2905 582.223 35.2905 584.376C35.2905 587.11 34.4189 589.144 32.6758 590.477C30.9212 591.799 28.7052 592.459 26.0278 592.459ZM26.0278 574.925C23.3504 574.925 21.1401 574.219 19.397 572.806C17.6424 571.382 16.7651 569.303 16.7651 566.568C16.7651 563.834 17.6424 561.76 19.397 560.348C21.1401 558.924 23.3504 558.211 26.0278 558.211C28.7052 558.211 30.9212 558.924 32.6758 560.348C34.4189 561.76 35.2905 563.834 35.2905 566.568C35.2905 569.303 34.4189 571.382 32.6758 572.806C30.9212 574.219 28.7052 574.925 26.0278 574.925ZM26.0278 571.747C28.4204 571.747 30.1921 571.274 31.3428 570.328C32.4935 569.382 33.0688 568.129 33.0688 566.568C33.0688 565.007 32.4935 563.754 31.3428 562.809C30.1921 561.863 28.4204 561.39 26.0278 561.39C23.6353 561.39 21.8636 561.863 20.7129 562.809C19.5622 563.754 18.9868 565.007 18.9868 566.568C18.9868 568.129 19.5622 569.382 20.7129 570.328C21.8636 571.274 23.6353 571.747 26.0278 571.747ZM35 553.563C35 554.076 34.7437 554.332 34.231 554.332H17.8247C17.312 554.332 17.0557 554.076 17.0557 553.563V552.127C17.0557 551.615 17.312 551.358 17.8247 551.358H19.1919V551.29C18.3716 550.549 17.762 549.752 17.3633 548.897C16.9645 548.043 16.7651 546.978 16.7651 545.702C16.7651 543.628 17.3519 542.141 18.5254 541.241C19.6875 540.33 21.2826 539.874 23.3105 539.874H34.231C34.7437 539.874 35 540.13 35 540.643V542.113C35 542.625 34.7437 542.882 34.231 542.882H24.1309C21.8978 542.882 20.485 543.252 19.8926 543.993C19.2887 544.733 18.9868 545.673 18.9868 546.812C18.9868 548.294 19.4312 549.416 20.3198 550.179C21.1971 550.943 22.7067 551.324 24.8486 551.324H34.231C34.7437 551.324 35 551.581 35 552.093V553.563ZM33.3252 535.755C32.9948 536.109 32.6872 536.183 32.4023 535.978L31.3257 535.208C30.9839 534.958 31.001 534.588 31.377 534.098C31.8896 533.425 32.2998 532.679 32.6074 531.859C32.915 531.027 33.0688 530.082 33.0688 529.022C33.0688 528.395 32.9948 527.837 32.8467 527.347C32.6872 526.857 32.3966 526.43 31.9751 526.065C31.5535 525.689 30.9896 525.501 30.2832 525.501C29.873 525.501 29.4857 525.593 29.1211 525.775C28.7565 525.946 28.466 526.219 28.2495 526.595C28.0216 526.96 27.8451 527.319 27.7197 527.672C27.5033 528.253 27.3267 528.834 27.1899 529.415C27.0418 529.985 26.8197 530.737 26.5234 531.671C26.3298 532.298 26.0563 532.89 25.7031 533.448C25.3385 534.007 24.8486 534.496 24.2334 534.918C23.6182 535.328 22.7694 535.533 21.687 535.533C20.5819 535.533 19.6305 535.197 18.833 534.525C18.0355 533.853 17.4943 533.01 17.2095 531.996C16.9132 530.982 16.7651 529.996 16.7651 529.039C16.7651 527.626 16.9303 526.493 17.2607 525.638C17.5798 524.772 17.9614 524.026 18.4058 523.399C18.6678 523.035 18.9697 522.984 19.3115 523.246L20.3369 524.015C20.6673 524.254 20.6559 524.624 20.3027 525.125C20.0065 525.547 19.7274 526.145 19.4653 526.92C19.2033 527.695 19.0723 528.373 19.0723 528.954C19.0723 529.671 19.152 530.287 19.3115 530.799C19.471 531.312 19.7445 531.728 20.1318 532.047C20.5192 532.366 20.9749 532.525 21.499 532.525C21.8978 532.525 22.2567 532.463 22.5757 532.337C22.8833 532.212 23.1681 531.979 23.4302 531.637C23.6922 531.295 23.903 530.816 24.0625 530.201C24.3132 529.244 24.541 528.373 24.7461 527.586C24.9512 526.789 25.2018 526.071 25.498 525.433C25.8854 524.601 26.3127 523.963 26.7798 523.519C27.2469 523.063 27.7539 522.75 28.3008 522.579C28.8363 522.408 29.4344 522.323 30.0952 522.323C31.3143 522.323 32.3454 522.687 33.1885 523.417C34.0316 524.134 34.5955 524.938 34.8804 525.826C35.1538 526.715 35.2905 527.786 35.2905 529.039C35.2905 530.737 35.0513 532.195 34.5728 533.414C34.0828 534.622 33.667 535.402 33.3252 535.755ZM28.7451 518.956H17.8247C17.312 518.956 17.0557 518.7 17.0557 518.187V516.717C17.0557 516.205 17.312 515.948 17.8247 515.948H27.9248C30.1579 515.948 31.5763 515.578 32.1802 514.837C32.7726 514.097 33.0688 513.18 33.0688 512.086C33.0688 510.65 32.6302 509.551 31.7529 508.788C30.8643 508.024 29.349 507.643 27.207 507.643H17.8247C17.312 507.643 17.0557 507.386 17.0557 506.874V505.404C17.0557 504.891 17.312 504.635 17.8247 504.635H34.231C34.7437 504.635 35 504.891 35 505.404V506.839C35 507.352 34.7437 507.608 34.231 507.608H32.8638V507.677C33.6841 508.417 34.2936 509.215 34.6924 510.069C35.0911 510.924 35.2905 511.966 35.2905 513.197C35.2905 515.191 34.7095 516.649 33.5474 517.572C32.3739 518.495 30.7731 518.956 28.7451 518.956ZM35 499.012C35 499.525 34.7437 499.781 34.231 499.781H17.8247C17.312 499.781 17.0557 499.525 17.0557 499.012V497.577C17.0557 497.064 17.312 496.808 17.8247 496.808H19.1919V496.739C18.3716 495.999 17.762 495.195 17.3633 494.33C16.9645 493.464 16.7651 492.632 16.7651 491.834C16.7651 490.365 17.1354 489.237 17.876 488.451C18.6051 487.653 19.34 487.14 20.0806 486.913V486.844C19.1463 486.218 18.3602 485.426 17.7222 484.469C17.0841 483.512 16.7651 482.492 16.7651 481.41C16.7651 479.598 17.3519 478.231 18.5254 477.308C19.6875 476.385 21.2826 475.924 23.3105 475.924H34.231C34.7437 475.924 35 476.18 35 476.693V478.163C35 478.675 34.7437 478.932 34.231 478.932H24.3018C22.0687 478.932 20.6274 479.211 19.978 479.769C19.3172 480.327 18.9868 481.188 18.9868 482.35C18.9868 483.489 19.4767 484.44 20.4565 485.204C21.425 485.967 22.889 486.349 24.8486 486.349H34.231C34.7437 486.349 35 486.605 35 487.118V488.587C35 489.1 34.7437 489.356 34.231 489.356H24.3018C22.0687 489.356 20.6274 489.636 19.978 490.194C19.3172 490.752 18.9868 491.612 18.9868 492.774C18.9868 493.914 19.4312 494.865 20.3198 495.628C21.1971 496.392 22.7067 496.773 24.8486 496.773H34.231C34.7437 496.773 35 497.03 35 497.542V499.012ZM41.8359 470.335C41.8359 470.848 41.5796 471.104 41.0669 471.104H17.8247C17.312 471.104 17.0557 470.848 17.0557 470.335V468.9C17.0557 468.49 17.312 468.268 17.8247 468.233L19.1919 468.131V468.097C18.4399 467.47 17.8475 466.764 17.4146 465.978C16.9816 465.191 16.7651 464.143 16.7651 462.833C16.7651 460.554 17.6994 458.823 19.5679 457.638C21.425 456.453 23.5783 455.86 26.0278 455.86C28.4774 455.86 30.6364 456.453 32.5049 457.638C34.362 458.823 35.2905 460.554 35.2905 462.833C35.2905 464.143 35.0741 465.191 34.6411 465.978C34.2082 466.764 33.6157 467.47 32.8638 468.097V468.131C33.2056 468.108 33.5531 468.097 33.9062 468.097H41.0669C41.5796 468.097 41.8359 468.353 41.8359 468.866V470.335ZM27.9932 468.097C29.7021 468.097 30.9782 467.692 31.8213 466.883C32.653 466.063 33.0688 465.038 33.0688 463.807C33.0688 462.075 32.4194 460.851 31.1206 460.133C29.8218 459.404 28.1242 459.039 26.0278 459.039C23.9315 459.039 22.2339 459.404 20.9351 460.133C19.6362 460.851 18.9868 462.075 18.9868 463.807C18.9868 465.038 19.4084 466.063 20.2515 466.883C21.0832 467.692 22.3535 468.097 24.0625 468.097H27.9932ZM19.3115 452.835C19.3115 453.348 19.1121 453.604 18.7134 453.604H17.6538C17.255 453.604 17.0557 453.348 17.0557 452.835V450.819H15.5176C15.2897 450.819 15.0732 450.762 14.8682 450.648L12.6978 449.452C12.299 449.235 12.0996 449.059 12.0996 448.922V448.324C12.0996 447.982 12.299 447.811 12.6978 447.811H17.0557V444.171C17.0557 443.658 17.255 443.402 17.6538 443.402H18.7134C19.1121 443.402 19.3115 443.658 19.3115 444.171V447.811H30.1978C31.394 447.811 32.1745 447.634 32.5391 447.281C32.8923 446.917 33.0688 446.484 33.0688 445.982C33.0688 445.595 32.9549 445.134 32.7271 444.598C32.4992 444.051 32.3055 443.675 32.146 443.47C31.9865 443.265 32.0378 443.106 32.2998 442.992L33.6157 442.428C33.8436 442.337 34.0259 442.405 34.1626 442.633C34.4246 443.077 34.681 443.727 34.9316 444.581C35.1709 445.436 35.2905 446.29 35.2905 447.145C35.2905 448.329 34.8633 449.241 34.0088 449.879C33.1543 450.506 31.9466 450.819 30.3857 450.819H19.3115V452.835ZM35 438.241C35 438.753 34.7437 439.01 34.231 439.01H17.8247C17.312 439.01 17.0557 438.753 17.0557 438.241V436.771C17.0557 436.258 17.312 436.002 17.8247 436.002H34.231C34.7437 436.002 35 436.258 35 436.771V438.241ZM13.8086 438.241C13.8086 438.753 13.5522 439.01 13.0396 439.01H11.5698C11.0571 439.01 10.8008 438.753 10.8008 438.241V436.771C10.8008 436.258 11.0571 436.002 11.5698 436.002H13.0396C13.5522 436.002 13.8086 436.258 13.8086 436.771V438.241ZM26.0278 432.123C23.3504 432.123 21.1401 431.416 19.397 430.003C17.6424 428.579 16.7651 426.5 16.7651 423.766C16.7651 421.031 17.6424 418.958 19.397 417.545C21.1401 416.121 23.3504 415.409 26.0278 415.409C28.7052 415.409 30.9212 416.121 32.6758 417.545C34.4189 418.958 35.2905 421.031 35.2905 423.766C35.2905 426.5 34.4189 428.579 32.6758 430.003C30.9212 431.416 28.7052 432.123 26.0278 432.123ZM26.0278 428.944C28.4204 428.944 30.1921 428.471 31.3428 427.525C32.4935 426.58 33.0688 425.326 33.0688 423.766C33.0688 422.205 32.4935 420.951 31.3428 420.006C30.1921 419.06 28.4204 418.587 26.0278 418.587C23.6353 418.587 21.8636 419.06 20.7129 420.006C19.5622 420.951 18.9868 422.205 18.9868 423.766C18.9868 425.326 19.5622 426.58 20.7129 427.525C21.8636 428.471 23.6353 428.944 26.0278 428.944ZM35 410.76C35 411.273 34.7437 411.529 34.231 411.529H17.8247C17.312 411.529 17.0557 411.273 17.0557 410.76V409.325C17.0557 408.812 17.312 408.556 17.8247 408.556H19.1919V408.487C18.3716 407.747 17.762 406.949 17.3633 406.095C16.9645 405.24 16.7651 404.175 16.7651 402.899C16.7651 400.825 17.3519 399.339 18.5254 398.438C19.6875 397.527 21.2826 397.071 23.3105 397.071H34.231C34.7437 397.071 35 397.328 35 397.84V399.31C35 399.823 34.7437 400.079 34.231 400.079H24.1309C21.8978 400.079 20.485 400.449 19.8926 401.19C19.2887 401.931 18.9868 402.87 18.9868 404.01C18.9868 405.491 19.4312 406.613 20.3198 407.376C21.1971 408.14 22.7067 408.521 24.8486 408.521H34.231C34.7437 408.521 35 408.778 35 409.291V410.76Z" fill="white"/>
<path d="M61.974 93V67.5455H70.5748C72.5718 67.5455 74.2041 67.9059 75.4719 68.6268C76.7479 69.3394 77.6925 70.3047 78.3057 71.5227C78.9188 72.7408 79.2254 74.0997 79.2254 75.5994C79.2254 77.0992 78.9188 78.4622 78.3057 79.6886C77.7008 80.9149 76.7645 81.8926 75.4967 82.6218C74.229 83.3427 72.6049 83.7031 70.6246 83.7031H64.4598V80.9688H70.5251C71.8923 80.9688 72.9902 80.7326 73.8188 80.2603C74.6474 79.788 75.2481 79.15 75.621 78.3462C76.0022 77.5342 76.1927 76.6186 76.1927 75.5994C76.1927 74.5803 76.0022 73.6688 75.621 72.8651C75.2481 72.0613 74.6433 71.4316 73.8064 70.9759C72.9695 70.5118 71.8592 70.2798 70.4754 70.2798H65.0564V93H61.974Z" fill="white"/>
<path d="M69.5845 93V86.4545H70.5561V87.4773H70.6413C70.7777 87.1278 70.9979 86.8565 71.3018 86.6634C71.6058 86.4673 71.9709 86.3693 72.397 86.3693C72.8288 86.3693 73.1882 86.4673 73.4751 86.6634C73.7649 86.8565 73.9908 87.1278 74.1527 87.4773H74.2209C74.3885 87.1392 74.6399 86.8707 74.9751 86.6719C75.3104 86.4702 75.7124 86.3693 76.1811 86.3693C76.7663 86.3693 77.245 86.5526 77.6172 86.919C77.9893 87.2827 78.1754 87.8494 78.1754 88.6193V93H77.1697V88.6193C77.1697 88.1364 77.0376 87.7912 76.7734 87.5838C76.5092 87.3764 76.1982 87.2727 75.8402 87.2727C75.38 87.2727 75.0234 87.4119 74.7706 87.6903C74.5178 87.9659 74.3913 88.3153 74.3913 88.7386V93H73.3686V88.517C73.3686 88.1449 73.2479 87.8452 73.0064 87.6179C72.7649 87.3878 72.4538 87.2727 72.0732 87.2727C71.8118 87.2727 71.5675 87.3423 71.3402 87.4815C71.1158 87.6207 70.9339 87.8139 70.7947 88.0611C70.6584 88.3054 70.5902 88.5881 70.5902 88.9091V93H69.5845ZM81.9403 93.1534C81.5256 93.1534 81.1491 93.0753 80.8111 92.919C80.473 92.7599 80.2045 92.5312 80.0057 92.233C79.8068 91.9318 79.7074 91.5682 79.7074 91.142C79.7074 90.767 79.7813 90.4631 79.929 90.2301C80.0767 89.9943 80.2741 89.8097 80.5213 89.6761C80.7685 89.5426 81.0412 89.4432 81.3395 89.3778C81.6406 89.3097 81.9432 89.2557 82.2472 89.2159C82.6449 89.1648 82.9673 89.1264 83.2145 89.1009C83.4645 89.0724 83.6463 89.0256 83.7599 88.9602C83.8764 88.8949 83.9347 88.7812 83.9347 88.6193V88.5852C83.9347 88.1648 83.8196 87.8381 83.5895 87.6051C83.3622 87.3722 83.017 87.2557 82.554 87.2557C82.0739 87.2557 81.6974 87.3608 81.4247 87.571C81.152 87.7812 80.9602 88.0057 80.8494 88.2443L79.8949 87.9034C80.0653 87.5057 80.2926 87.196 80.5767 86.9744C80.8636 86.75 81.1761 86.5937 81.5142 86.5057C81.8551 86.4148 82.1903 86.3693 82.5199 86.3693C82.7301 86.3693 82.9716 86.3949 83.2443 86.446C83.5199 86.4943 83.7855 86.5952 84.0412 86.7486C84.2997 86.902 84.5142 87.1335 84.6847 87.4432C84.8551 87.7528 84.9403 88.1676 84.9403 88.6875V93H83.9347V92.1136H83.8835C83.8153 92.2557 83.7017 92.4077 83.5426 92.5696C83.3835 92.7315 83.1719 92.8693 82.9077 92.983C82.6435 93.0966 82.321 93.1534 81.9403 93.1534ZM82.0938 92.25C82.4915 92.25 82.8267 92.1719 83.0994 92.0156C83.375 91.8594 83.5824 91.6577 83.7216 91.4105C83.8636 91.1634 83.9347 90.9034 83.9347 90.6307V89.7102C83.892 89.7614 83.7983 89.8082 83.6534 89.8509C83.5114 89.8906 83.3466 89.9261 83.1591 89.9574C82.9744 89.9858 82.794 90.0114 82.6179 90.0341C82.4446 90.054 82.304 90.071 82.196 90.0852C81.9347 90.1193 81.6903 90.1747 81.4631 90.2514C81.2386 90.3253 81.0568 90.4375 80.9176 90.5881C80.7813 90.7358 80.7131 90.9375 80.7131 91.1932C80.7131 91.5426 80.8423 91.8068 81.1009 91.9858C81.3622 92.1619 81.6932 92.25 82.0938 92.25ZM87.5259 86.4545L89.0941 89.1307L90.6623 86.4545H91.8214L89.7077 89.7273L91.8214 93H90.6623L89.0941 90.4602L87.5259 93H86.3668L88.4464 89.7273L86.3668 86.4545H87.5259Z" fill="white"/>
<path d="M68.974 583V557.545H77.5748C79.5718 557.545 81.2041 557.906 82.4719 558.627C83.7479 559.339 84.6925 560.305 85.3057 561.523C85.9188 562.741 86.2254 564.1 86.2254 565.599C86.2254 567.099 85.9188 568.462 85.3057 569.689C84.7008 570.915 83.7645 571.893 82.4967 572.622C81.229 573.343 79.6049 573.703 77.6246 573.703H71.4598V570.969H77.5251C78.8923 570.969 79.9902 570.733 80.8188 570.26C81.6474 569.788 82.2481 569.15 82.621 568.346C83.0022 567.534 83.1927 566.619 83.1927 565.599C83.1927 564.58 83.0022 563.669 82.621 562.865C82.2481 562.061 81.6433 561.432 80.8064 560.976C79.9695 560.512 78.8592 560.28 77.4754 560.28H72.0564V583H68.974Z" fill="white"/>
<path d="M78.354 583V576.455H79.3597V583H78.354ZM78.8654 575.364C78.6694 575.364 78.5004 575.297 78.3583 575.163C78.2191 575.03 78.1495 574.869 78.1495 574.682C78.1495 574.494 78.2191 574.334 78.3583 574.2C78.5004 574.067 78.6694 574 78.8654 574C79.0614 574 79.229 574.067 79.3683 574.2C79.5103 574.334 79.5813 574.494 79.5813 574.682C79.5813 574.869 79.5103 575.03 79.3683 575.163C79.229 575.297 79.0614 575.364 78.8654 575.364ZM83.6733 583.136C83.1278 583.136 82.6463 582.999 82.2287 582.723C81.8111 582.445 81.4844 582.053 81.2486 581.547C81.0128 581.038 80.8949 580.438 80.8949 579.744C80.8949 579.057 81.0128 578.46 81.2486 577.955C81.4844 577.449 81.8125 577.058 82.233 576.783C82.6534 576.507 83.1392 576.369 83.6903 576.369C84.1165 576.369 84.4531 576.44 84.7003 576.582C84.9503 576.722 85.1406 576.881 85.2713 577.06C85.4048 577.236 85.5085 577.381 85.5824 577.494H85.6676V574.273H86.6733V583H85.7017V581.994H85.5824C85.5085 582.114 85.4034 582.264 85.267 582.446C85.1307 582.625 84.9361 582.786 84.6832 582.928C84.4304 583.067 84.0938 583.136 83.6733 583.136ZM83.8097 582.233C84.2131 582.233 84.554 582.128 84.8324 581.918C85.1108 581.705 85.3224 581.411 85.4673 581.036C85.6122 580.658 85.6847 580.222 85.6847 579.727C85.6847 579.239 85.6136 578.811 85.4716 578.445C85.3295 578.075 85.1193 577.788 84.8409 577.584C84.5625 577.376 84.2188 577.273 83.8097 577.273C83.3835 577.273 83.0284 577.382 82.7443 577.601C82.4631 577.817 82.2514 578.111 82.1094 578.483C81.9702 578.852 81.9006 579.267 81.9006 579.727C81.9006 580.193 81.9716 580.616 82.1136 580.997C82.2585 581.375 82.4716 581.676 82.7528 581.901C83.0369 582.122 83.3892 582.233 83.8097 582.233ZM89.6605 574.273V583H88.6548V574.273H89.6605ZM94.2468 583.136C93.6161 583.136 93.0721 582.997 92.6147 582.719C92.1602 582.438 91.8093 582.045 91.5621 581.543C91.3178 581.037 91.1957 580.449 91.1957 579.778C91.1957 579.108 91.3178 578.517 91.5621 578.006C91.8093 577.491 92.1531 577.091 92.5934 576.804C93.0366 576.514 93.5536 576.369 94.1445 576.369C94.4854 576.369 94.8221 576.426 95.1545 576.54C95.4869 576.653 95.7894 576.838 96.0621 577.094C96.3349 577.347 96.5522 577.682 96.7141 578.099C96.8761 578.517 96.957 579.031 96.957 579.642V580.068H91.9116V579.199H95.9343C95.9343 578.83 95.8604 578.5 95.7127 578.21C95.5678 577.92 95.3604 577.692 95.0906 577.524C94.8235 577.357 94.5082 577.273 94.1445 577.273C93.744 577.273 93.3974 577.372 93.1048 577.571C92.815 577.767 92.592 578.023 92.4357 578.338C92.2795 578.653 92.2013 578.991 92.2013 579.352V579.932C92.2013 580.426 92.2866 580.845 92.457 581.189C92.6303 581.53 92.8704 581.79 93.1772 581.969C93.484 582.145 93.8406 582.233 94.2468 582.233C94.511 582.233 94.7496 582.196 94.9627 582.122C95.1786 582.045 95.3647 581.932 95.521 581.781C95.6772 581.628 95.7979 581.437 95.8832 581.21L96.8548 581.483C96.7525 581.812 96.5806 582.102 96.3391 582.352C96.0977 582.599 95.7994 582.793 95.4442 582.932C95.0891 583.068 94.69 583.136 94.2468 583.136Z" fill="white"/>
<line x1="1515.5" x2="1515.5" y2="1036" stroke="#FF0000" stroke-width="5" stroke-dasharray="10 10"/>
<line x1="1513" y1="83" x2="110" y2="82.9999" stroke="white" stroke-width="2" stroke-dasharray="6 6"/>
<line x1="1513" y1="573" x2="110" y2="573" stroke="white" stroke-width="2" stroke-dasharray="6 6"/>
<path d="M1489.43 1062.33C1489.28 1061.97 1489.42 1061.7 1489.84 1061.54C1490.72 1061.21 1491.55 1060.68 1492.33 1059.95C1493.12 1059.22 1493.74 1058.58 1494.2 1058.01C1494.53 1057.6 1494.85 1057.39 1495.15 1057.39H1496.61C1497.13 1057.39 1497.39 1057.65 1497.39 1058.16V1081.23C1497.39 1081.74 1497.14 1082 1496.62 1082H1495.15C1494.64 1082 1494.38 1081.74 1494.38 1081.23V1062.5C1494.38 1062.16 1494.4 1061.82 1494.42 1061.48H1494.38C1494.03 1061.92 1493.51 1062.38 1492.83 1062.84C1492.15 1063.31 1491.52 1063.65 1490.95 1063.87C1490.45 1064.06 1490.12 1063.97 1489.96 1063.59L1489.43 1062.33ZM1502.19 1069.85C1502.19 1065.86 1502.74 1062.76 1503.84 1060.54C1504.93 1058.3 1507.01 1057.19 1510.09 1057.19C1513.17 1057.19 1515.25 1058.3 1516.35 1060.54C1517.44 1062.76 1517.99 1065.86 1517.99 1069.85C1517.99 1073.84 1517.44 1076.95 1516.35 1079.18C1515.25 1081.4 1513.17 1082.51 1510.09 1082.51C1507.01 1082.51 1504.93 1081.4 1503.84 1079.18C1502.74 1076.95 1502.19 1073.84 1502.19 1069.85ZM1505.37 1069.85C1505.37 1073.04 1505.65 1075.54 1506.19 1077.35C1506.74 1079.15 1508.04 1080.05 1510.09 1080.05C1512.14 1080.05 1513.44 1079.15 1513.99 1077.35C1514.53 1075.54 1514.81 1073.04 1514.81 1069.85C1514.81 1066.66 1514.53 1064.16 1513.99 1062.36C1513.44 1060.55 1512.14 1059.65 1510.09 1059.65C1508.04 1059.65 1506.74 1060.55 1506.19 1062.36C1505.65 1064.16 1505.37 1066.66 1505.37 1069.85ZM1521.16 1069.85C1521.16 1065.86 1521.71 1062.76 1522.81 1060.54C1523.9 1058.3 1525.98 1057.19 1529.06 1057.19C1532.14 1057.19 1534.22 1058.3 1535.31 1060.54C1536.41 1062.76 1536.96 1065.86 1536.96 1069.85C1536.96 1073.84 1536.41 1076.95 1535.31 1079.18C1534.22 1081.4 1532.14 1082.51 1529.06 1082.51C1525.98 1082.51 1523.9 1081.4 1522.81 1079.18C1521.71 1076.95 1521.16 1073.84 1521.16 1069.85ZM1524.34 1069.85C1524.34 1073.04 1524.62 1075.54 1525.16 1077.35C1525.71 1079.15 1527.01 1080.05 1529.06 1080.05C1531.11 1080.05 1532.41 1079.15 1532.96 1077.35C1533.5 1075.54 1533.78 1073.04 1533.78 1069.85C1533.78 1066.66 1533.5 1064.16 1532.96 1062.36C1532.41 1060.55 1531.11 1059.65 1529.06 1059.65C1527.01 1059.65 1525.71 1060.55 1525.16 1062.36C1524.62 1064.16 1524.34 1066.66 1524.34 1069.85Z" fill="white"/>
<path d="M101.604 1069.85C101.604 1065.86 102.151 1062.76 103.245 1060.54C104.339 1058.3 106.424 1057.19 109.5 1057.19C112.576 1057.19 114.661 1058.3 115.755 1060.54C116.849 1062.76 117.396 1065.86 117.396 1069.85C117.396 1073.84 116.849 1076.95 115.755 1079.18C114.661 1081.4 112.576 1082.51 109.5 1082.51C106.424 1082.51 104.339 1081.4 103.245 1079.18C102.151 1076.95 101.604 1073.84 101.604 1069.85ZM104.783 1069.85C104.783 1073.04 105.057 1075.54 105.604 1077.35C106.15 1079.15 107.449 1080.05 109.5 1080.05C111.551 1080.05 112.85 1079.15 113.396 1077.35C113.943 1075.54 114.217 1073.04 114.217 1069.85C114.217 1066.66 113.943 1064.16 113.396 1062.36C112.85 1060.55 111.551 1059.65 109.5 1059.65C107.449 1059.65 106.15 1060.55 105.604 1062.36C105.057 1064.16 104.783 1066.66 104.783 1069.85Z" fill="white"/>
</svg>
