<svg width="1638" height="1097" viewBox="0 0 1638 1097" fill="none" xmlns="http://www.w3.org/2000/svg">
<path d="M141 571.701L141.341 571.464L144.988 568.992L146.078 568.253L149.044 566.282L150.816 565.106L153.162 563.573L155.553 562.011L157.335 560.864L160.291 558.96L161.559 558.154L165.028 555.949L165.831 555.445L169.766 552.974L174.503 550.032L178.92 547.317L183.368 544.607L183.978 544.236L187.855 541.898L188.716 541.379L192.38 539.189L193.453 538.547L196.943 536.479L198.191 535.74L201.542 533.77L202.928 532.955L206.177 531.06L207.666 530.192L210.848 528.351L212.403 527.451L215.553 525.642L217.141 524.73L220.293 522.932L221.878 522.029L225.068 520.223L226.616 519.347L229.875 517.514L231.353 516.683L234.716 514.804L236.091 514.037L239.591 512.095L240.828 511.408L244.497 509.385L245.566 508.797L249.437 506.676L250.303 506.202L254.408 503.967L255.041 503.622L259.412 501.257L264.447 498.548L269.253 495.978L273.991 493.46L274.616 493.129L278.728 490.956L279.748 490.42L283.466 488.466L284.911 487.71L288.203 485.99L290.105 485.001L292.941 483.527L295.331 482.292L297.678 481.078L300.588 479.582L302.416 478.642L305.875 476.873L307.153 476.219L311.193 474.164L311.891 473.809L316.542 471.454L321.366 469.025L321.925 468.745L326.103 466.651L327.338 466.035L330.841 464.289L332.783 463.326L335.578 461.939L338.258 460.617L340.316 459.601L343.763 457.907L345.053 457.274L349.299 455.198L354.528 452.653L359.266 450.359L360.469 449.779L364.003 448.076L366.101 447.07L368.741 445.804L371.764 444.36L373.478 443.542L377.457 441.651L378.216 441.291L382.953 439.049L387.691 436.819L388.941 436.232L392.428 434.598L394.731 433.523L397.166 432.387L400.552 430.814L401.903 430.186L406.403 428.104L411.378 425.813L412.289 425.395L416.116 423.641L418.208 422.685L420.853 421.478L424.157 419.976L425.591 419.325L430.137 417.267L435.066 415.046L436.153 414.557L439.803 412.92L442.201 411.848L444.541 410.803L448.281 409.139L449.278 408.695L454.016 406.596L458.753 404.505L460.541 403.72L463.491 402.424L466.72 401.01L468.228 400.351L472.931 398.301L477.703 396.23L479.18 395.592L482.441 394.182L485.46 392.882L487.178 392.143L491.773 390.173L496.653 388.089L498.123 387.464L501.391 386.074L504.506 384.754L506.128 384.067L510.866 382.068L515.603 380.078L517.376 379.335L520.341 378.095L523.863 376.626L525.078 376.12L529.816 374.152L530.385 373.917L534.553 372.192L536.944 371.207L539.291 370.24L543.536 368.498L548.766 366.359L550.166 365.789L553.503 364.43L556.832 363.079L558.241 362.508L562.978 360.593L563.533 360.37L567.716 358.686L570.273 357.66L572.453 356.786L577.046 354.951L581.928 353.008L583.86 352.242L586.666 351.13L590.709 349.532L591.403 349.258L596.141 347.394L597.598 346.823L600.878 345.537L604.523 344.114L605.616 343.687L610.353 341.844L611.487 341.404L615.091 340.007L618.489 338.695L619.828 338.178L624.566 336.355L625.53 335.985L629.303 334.539L632.611 333.276L634.041 332.73L638.778 330.928L639.73 330.567L643.516 329.132L646.891 327.857L648.253 327.343L652.991 325.56L654.09 325.148L657.728 323.784L661.33 322.439L662.466 322.015L667.203 320.252L668.612 319.729L671.941 318.495L675.933 317.02L676.678 316.745L681.416 315.001L683.298 314.31L686.153 313.263L690.702 311.601L695.628 309.807L698.152 308.892L700.366 308.089L705.103 306.376L705.642 306.182L709.841 304.67L713.176 303.473L714.578 302.97L719.316 301.276L720.754 300.764L724.053 299.588L728.374 298.054L733.528 296.231L736.041 295.345L738.266 294.561L743.003 292.897L743.75 292.635L747.741 291.239L751.506 289.926L752.478 289.587L757.216 287.941L759.308 287.217L761.953 286.301L766.691 284.667L771.428 283.038L775.049 281.798L776.166 281.415L780.903 279.798L782.99 279.089L785.641 278.187L790.378 276.582L790.978 276.379L795.116 274.982L799.015 273.67L799.853 273.388L804.591 271.799L807.101 270.96L809.328 270.216L814.066 268.639L815.235 268.251L818.803 267.067L823.417 265.542L828.278 263.94L831.653 262.832L833.016 262.385L837.753 260.835L839.939 260.123L842.491 259.291L847.228 257.752L848.275 257.414L851.966 256.219L856.662 254.704L861.441 253.168L865.104 251.995L866.178 251.651L870.916 250.139L873.599 249.285L875.653 248.632L880.391 247.131L882.147 246.576L885.128 245.635L889.866 244.144L890.75 243.867L894.603 242.658L899.341 241.178L904.078 239.703L908.121 238.448L908.816 238.233L913.553 236.768L916.892 235.739L918.291 235.308L923.028 233.853L925.72 233.029L927.766 232.403L932.503 230.959L934.606 230.32L937.241 229.519L941.978 228.085L943.551 227.61L946.716 226.656L951.453 225.231L952.555 224.901L956.191 223.812L960.928 222.397L961.619 222.192L965.666 220.988L970.403 219.583L975.141 218.184L979.878 216.789L984.616 215.399L989.183 214.064L994.091 212.634L998.498 211.354L1003.57 209.888L1007.88 208.645L1013.04 207.161L1017.32 205.935L1022.52 204.454L1026.83 203.226L1031.99 201.765L1036.41 200.517L1041.47 199.096L1046.06 197.807L1050.94 196.445L1055.68 195.126L1060.42 193.812L1065.15 192.503L1069.89 191.199L1074.63 189.899L1075.43 189.679L1079.37 188.603L1084.1 187.312L1085.36 186.97L1088.84 186.026L1093.58 184.744L1095.37 184.26L1098.32 183.467L1103.05 182.194L1105.46 181.551L1107.79 180.926L1112.53 179.662L1115.62 178.842L1117.27 178.403L1122 177.148L1125.85 176.132L1126.74 175.898L1131.48 174.652L1136.17 173.423L1140.95 172.173L1145.69 170.941L1146.57 170.714L1150.43 169.712L1155.17 168.489L1157.05 168.004L1159.9 167.269L1164.64 166.054L1167.61 165.295L1169.38 164.843L1174.12 163.636L1178.26 162.585L1178.85 162.434L1183.59 161.236L1188.33 160.043L1188.99 159.876L1193.07 158.853L1197.8 157.668L1199.82 157.167L1202.54 156.487L1207.28 155.311L1210.73 154.457L1212.02 154.139L1216.75 152.97L1221.49 151.807L1226.23 150.647L1230.97 149.491L1232.83 149.039L1235.7 148.34L1240.44 147.193L1244.02 146.329L1245.18 146.05L1249.92 144.911L1254.65 143.776L1255.31 143.62L1259.39 142.646L1264.13 141.519L1266.7 140.91L1268.87 140.397L1273.6 139.278L1278.18 138.201L1283.08 137.054L1287.82 135.948L1289.78 135.492L1292.55 134.846L1297.29 133.748L1301.47 132.782L1302.03 132.654L1306.77 131.564L1311.5 130.478L1313.28 130.073L1316.24 129.396L1320.98 128.319L1325.19 127.364L1325.72 127.245L1330.45 126.175L1335.19 125.109L1337.22 124.654L1339.93 124.047L1344.67 122.989L1349.36 121.945L1354.14 120.884L1358.88 119.838L1361.62 119.235L1363.62 118.796L1368.35 117.757L1373.09 116.723L1373.99 116.526L1377.83 115.692L1382.57 114.665L1386.5 113.817L1387.3 113.642L1392.04 112.623L1396.78 111.608L1399.12 111.107L1401.52 110.597L1406.25 109.589L1410.99 108.585L1411.88 108.398L1415.73 107.586L1420.47 106.589L1424.77 105.689L1429.94 104.609L1434.68 103.624L1437.79 102.979L1439.42 102.643L1444.15 101.666L1448.89 100.692L1450.95 100.27L1453.63 99.7225L1458.37 98.7566L1463.1 97.7943L1464.26 97.5605L1467.84 96.8359L1472.58 95.8811L1477.32 94.93L1482.05 93.9826L1486.79 93.0389L1491.31 92.1417L1496.27 91.1626L1501 90.23L1505.07 89.4324L1505.74 89.301L1510.48 88.3756L1515.22 87.454L1518.99 86.723L1519.95 86.5359L1524.69 85.6215L1529.43 84.7107L1533.07 84.0136L1534.17 83.8035L1538.9 82.9L1543.64 82" stroke="#00FF38" stroke-opacity="0.8" stroke-width="6" stroke-miterlimit="10" stroke-linecap="round" stroke-linejoin="round"/>
<path d="M141 0L123.679 30H158.321L141 0ZM138 27L138 1037H144L144 27H138Z" fill="black"/>
<path d="M1638 1036.51L1608.01 1019.17L1607.99 1053.82L1638 1036.51ZM140.999 1039L1611 1039.5L1611 1033.5L141.001 1033L140.999 1039Z" fill="black"/>
<path d="M725.759 1072.75C725.759 1068.76 726.745 1065.64 728.716 1063.38C730.698 1061.11 733.541 1059.98 737.244 1059.98C739.408 1059.98 741.197 1060.35 742.61 1061.09C744.023 1061.82 745.037 1062.82 745.652 1064.1C745.971 1064.76 745.92 1065.22 745.498 1065.47L744.148 1066.25C743.692 1066.51 743.288 1066.3 742.935 1065.6C742.559 1064.89 741.943 1064.21 741.089 1063.59C740.234 1062.96 739.01 1062.65 737.415 1062.65C734.566 1062.65 732.493 1063.54 731.194 1065.31C729.906 1067.08 729.263 1069.56 729.263 1072.75C729.263 1075.94 729.906 1078.42 731.194 1080.2C732.493 1081.96 734.566 1082.85 737.415 1082.85C739.055 1082.85 740.365 1082.47 741.345 1081.72C742.336 1080.97 743.054 1080.18 743.499 1079.36C743.852 1078.7 744.262 1078.5 744.729 1078.76L746.147 1079.57C746.558 1079.8 746.592 1080.26 746.25 1080.93C745.578 1082.24 744.484 1083.34 742.969 1084.21C741.453 1085.08 739.545 1085.51 737.244 1085.51C733.541 1085.51 730.698 1084.38 728.716 1082.13C726.745 1079.86 725.759 1076.73 725.759 1072.75ZM751.907 1085C751.337 1085 751.052 1084.69 751.052 1084.06V1061.43C751.052 1060.81 751.337 1060.49 751.907 1060.49H759.084C762.958 1060.49 765.573 1061.15 766.929 1062.46C768.285 1063.76 768.962 1065.55 768.962 1067.82C768.962 1070.1 768.285 1071.9 766.929 1073.21C765.573 1074.51 762.958 1075.16 759.084 1075.16H754.333V1084.06C754.333 1084.69 754.049 1085 753.479 1085H751.907ZM754.333 1072.35H759.136C761.642 1072.35 763.351 1072 764.263 1071.29C765.174 1070.58 765.63 1069.42 765.63 1067.82C765.63 1066.23 765.174 1065.08 764.263 1064.37C763.351 1063.65 761.642 1063.3 759.136 1063.3H754.333V1072.35ZM773.406 1075.65V1061.43C773.406 1060.81 773.691 1060.49 774.26 1060.49H775.833C776.402 1060.49 776.687 1060.81 776.687 1061.43V1075.14C776.687 1078.33 777.137 1080.41 778.037 1081.39C778.949 1082.36 780.43 1082.85 782.48 1082.85C784.531 1082.85 786.007 1082.36 786.907 1081.39C787.818 1080.41 788.274 1078.33 788.274 1075.14V1061.43C788.274 1060.81 788.559 1060.49 789.128 1060.49H790.701C791.27 1060.49 791.555 1060.81 791.555 1061.43V1075.65C791.555 1079.26 790.723 1081.81 789.06 1083.29C787.408 1084.77 785.215 1085.51 782.48 1085.51C779.746 1085.51 777.547 1084.77 775.884 1083.29C774.232 1081.81 773.406 1079.26 773.406 1075.65ZM809.021 1075.65V1061.43C809.021 1060.81 809.306 1060.49 809.875 1060.49H811.448C812.017 1060.49 812.302 1060.81 812.302 1061.43V1075.14C812.302 1078.33 812.752 1080.41 813.652 1081.39C814.564 1082.36 816.045 1082.85 818.096 1082.85C820.146 1082.85 821.622 1082.36 822.522 1081.39C823.433 1080.41 823.889 1078.33 823.889 1075.14V1061.43C823.889 1060.81 824.174 1060.49 824.744 1060.49H826.316C826.886 1060.49 827.17 1060.81 827.17 1061.43V1075.65C827.17 1079.26 826.339 1081.81 824.675 1083.29C823.023 1084.77 820.83 1085.51 818.096 1085.51C815.361 1085.51 813.162 1084.77 811.499 1083.29C809.847 1081.81 809.021 1079.26 809.021 1075.65ZM831.631 1069.31C831.118 1069.31 830.862 1069.11 830.862 1068.71V1067.65C830.862 1067.26 831.118 1067.06 831.631 1067.06H833.647V1065.52C833.647 1065.29 833.704 1065.07 833.818 1064.87L835.015 1062.7C835.231 1062.3 835.408 1062.1 835.544 1062.1H836.143C836.484 1062.1 836.655 1062.3 836.655 1062.7V1067.06H840.295C840.808 1067.06 841.064 1067.26 841.064 1067.65V1068.71C841.064 1069.11 840.808 1069.31 840.295 1069.31H836.655V1080.2C836.655 1081.39 836.832 1082.17 837.185 1082.54C837.55 1082.89 837.983 1083.07 838.484 1083.07C838.871 1083.07 839.333 1082.95 839.868 1082.73C840.415 1082.5 840.791 1082.31 840.996 1082.15C841.201 1081.99 841.361 1082.04 841.475 1082.3L842.039 1083.62C842.13 1083.84 842.061 1084.03 841.833 1084.16C841.389 1084.42 840.74 1084.68 839.885 1084.93C839.031 1085.17 838.176 1085.29 837.322 1085.29C836.137 1085.29 835.225 1084.86 834.587 1084.01C833.961 1083.15 833.647 1081.95 833.647 1080.39V1069.31H831.631ZM846.226 1085C845.713 1085 845.457 1084.74 845.457 1084.23V1067.82C845.457 1067.31 845.713 1067.06 846.226 1067.06H847.695C848.208 1067.06 848.464 1067.31 848.464 1067.82V1084.23C848.464 1084.74 848.208 1085 847.695 1085H846.226ZM846.226 1063.81C845.713 1063.81 845.457 1063.55 845.457 1063.04V1061.57C845.457 1061.06 845.713 1060.8 846.226 1060.8H847.695C848.208 1060.8 848.464 1061.06 848.464 1061.57V1063.04C848.464 1063.55 848.208 1063.81 847.695 1063.81H846.226ZM854.087 1085C853.574 1085 853.318 1084.74 853.318 1084.23V1062.9C853.318 1062.67 853.375 1062.46 853.489 1062.25L854.685 1060.08C854.902 1059.68 855.078 1059.48 855.215 1059.48H855.813C856.155 1059.48 856.326 1059.68 856.326 1060.08V1084.23C856.326 1084.74 856.069 1085 855.557 1085H854.087ZM861.948 1085C861.436 1085 861.179 1084.74 861.179 1084.23V1067.82C861.179 1067.31 861.436 1067.06 861.948 1067.06H863.418C863.931 1067.06 864.187 1067.31 864.187 1067.82V1084.23C864.187 1084.74 863.931 1085 863.418 1085H861.948ZM861.948 1063.81C861.436 1063.81 861.179 1063.55 861.179 1063.04V1061.57C861.179 1061.06 861.436 1060.8 861.948 1060.8H863.418C863.931 1060.8 864.187 1061.06 864.187 1061.57V1063.04C864.187 1063.55 863.931 1063.81 863.418 1063.81H861.948ZM868.323 1085C867.81 1085 867.554 1084.8 867.554 1084.4V1083.53C867.554 1083.14 867.753 1082.69 868.152 1082.16L878.03 1069.31V1069.28C877.688 1069.3 877.346 1069.31 877.004 1069.31H868.733C868.22 1069.31 867.964 1069.11 867.964 1068.71V1067.65C867.964 1067.26 868.22 1067.06 868.733 1067.06H880.73C881.243 1067.06 881.499 1067.26 881.499 1067.65V1068.46C881.499 1068.8 881.288 1069.24 880.867 1069.79L870.92 1082.74V1082.78C871.262 1082.76 871.604 1082.74 871.946 1082.74H881.14C881.653 1082.74 881.909 1082.94 881.909 1083.34V1084.4C881.909 1084.8 881.653 1085 881.14 1085H868.323ZM884.302 1080.21C884.302 1078.19 885.247 1076.7 887.139 1075.75C889.041 1074.81 891.878 1074.26 895.649 1074.1V1072.93C895.649 1071.86 895.404 1070.94 894.915 1070.17C894.436 1069.38 893.479 1068.99 892.043 1068.99C891.132 1068.99 890.403 1069.08 889.856 1069.26C889.309 1069.43 888.808 1069.66 888.352 1069.96C887.908 1070.25 887.48 1070.62 887.07 1071.07C886.763 1071.41 886.472 1071.43 886.199 1071.12L885.31 1070.1C885.059 1069.81 885.145 1069.47 885.566 1069.07C886.17 1068.5 886.757 1068.08 887.327 1067.79C887.896 1067.51 888.603 1067.27 889.446 1067.07C890.3 1066.87 891.166 1066.77 892.043 1066.77C894.425 1066.77 896.122 1067.38 897.136 1068.61C898.15 1069.83 898.657 1071.5 898.657 1073.64V1084.23C898.657 1084.74 898.401 1085 897.888 1085H896.35C895.906 1085 895.684 1084.74 895.684 1084.23V1083.39H895.649C894.749 1084.1 893.866 1084.6 893 1084.88C892.146 1085.15 891.189 1085.29 890.129 1085.29C888.261 1085.29 886.82 1084.85 885.806 1083.96C884.803 1083.06 884.302 1081.81 884.302 1080.21ZM887.412 1080.28C887.412 1080.99 887.56 1081.56 887.856 1081.99C888.153 1082.41 888.563 1082.69 889.087 1082.81C889.611 1082.93 890.158 1082.98 890.728 1082.98C891.605 1082.98 892.437 1082.9 893.223 1082.73C894.009 1082.56 894.818 1082.11 895.649 1081.38V1076.34C893.348 1076.51 891.707 1076.72 890.728 1076.97C889.748 1077.21 888.95 1077.63 888.335 1078.23C887.72 1078.82 887.412 1079.51 887.412 1080.28ZM902.656 1069.31C902.144 1069.31 901.887 1069.11 901.887 1068.71V1067.65C901.887 1067.26 902.144 1067.06 902.656 1067.06H904.673V1065.52C904.673 1065.29 904.73 1065.07 904.844 1064.87L906.04 1062.7C906.257 1062.3 906.433 1062.1 906.57 1062.1H907.168C907.51 1062.1 907.681 1062.3 907.681 1062.7V1067.06H911.321C911.833 1067.06 912.09 1067.26 912.09 1067.65V1068.71C912.09 1069.11 911.833 1069.31 911.321 1069.31H907.681V1080.2C907.681 1081.39 907.857 1082.17 908.21 1082.54C908.575 1082.89 909.008 1083.07 909.509 1083.07C909.897 1083.07 910.358 1082.95 910.894 1082.73C911.44 1082.5 911.816 1082.31 912.021 1082.15C912.227 1081.99 912.386 1082.04 912.5 1082.3L913.064 1083.62C913.155 1083.84 913.087 1084.03 912.859 1084.16C912.415 1084.42 911.765 1084.68 910.911 1084.93C910.056 1085.17 909.202 1085.29 908.347 1085.29C907.162 1085.29 906.251 1084.86 905.613 1084.01C904.986 1083.15 904.673 1081.95 904.673 1080.39V1069.31H902.656ZM917.251 1085C916.738 1085 916.482 1084.74 916.482 1084.23V1067.82C916.482 1067.31 916.738 1067.06 917.251 1067.06H918.721C919.233 1067.06 919.49 1067.31 919.49 1067.82V1084.23C919.49 1084.74 919.233 1085 918.721 1085H917.251ZM917.251 1063.81C916.738 1063.81 916.482 1063.55 916.482 1063.04V1061.57C916.482 1061.06 916.738 1060.8 917.251 1060.8H918.721C919.233 1060.8 919.49 1061.06 919.49 1061.57V1063.04C919.49 1063.55 919.233 1063.81 918.721 1063.81H917.251ZM923.369 1076.03C923.369 1073.35 924.076 1071.14 925.488 1069.4C926.912 1067.64 928.992 1066.77 931.726 1066.77C934.46 1066.77 936.534 1067.64 937.947 1069.4C939.371 1071.14 940.083 1073.35 940.083 1076.03C940.083 1078.71 939.371 1080.92 937.947 1082.68C936.534 1084.42 934.46 1085.29 931.726 1085.29C928.992 1085.29 926.912 1084.42 925.488 1082.68C924.076 1080.92 923.369 1078.71 923.369 1076.03ZM926.548 1076.03C926.548 1078.42 927.021 1080.19 927.966 1081.34C928.912 1082.49 930.165 1083.07 931.726 1083.07C933.287 1083.07 934.54 1082.49 935.486 1081.34C936.431 1080.19 936.904 1078.42 936.904 1076.03C936.904 1073.64 936.431 1071.86 935.486 1070.71C934.54 1069.56 933.287 1068.99 931.726 1068.99C930.165 1068.99 928.912 1069.56 927.966 1070.71C927.021 1071.86 926.548 1073.64 926.548 1076.03ZM944.731 1085C944.219 1085 943.962 1084.74 943.962 1084.23V1067.82C943.962 1067.31 944.219 1067.06 944.731 1067.06H946.167C946.68 1067.06 946.936 1067.31 946.936 1067.82V1069.19H947.004C947.745 1068.37 948.542 1067.76 949.397 1067.36C950.251 1066.96 951.317 1066.77 952.593 1066.77C954.666 1066.77 956.153 1067.35 957.053 1068.53C957.965 1069.69 958.42 1071.28 958.42 1073.31V1084.23C958.42 1084.74 958.164 1085 957.651 1085H956.182C955.669 1085 955.413 1084.74 955.413 1084.23V1074.13C955.413 1071.9 955.042 1070.49 954.302 1069.89C953.561 1069.29 952.621 1068.99 951.482 1068.99C950.001 1068.99 948.879 1069.43 948.115 1070.32C947.352 1071.2 946.97 1072.71 946.97 1074.85V1084.23C946.97 1084.74 946.714 1085 946.201 1085H944.731Z" fill="black"/>
<path d="M35 699.562C35 700.131 34.6867 700.416 34.0601 700.416H11.4331C10.8065 700.416 10.4932 700.131 10.4932 699.562V692.384C10.4932 688.51 11.1483 685.895 12.4585 684.54C13.7573 683.184 15.5461 682.506 17.8247 682.506C20.1034 682.506 21.8978 683.184 23.208 684.54C24.5068 685.895 25.1562 688.51 25.1562 692.384V697.135H34.0601C34.6867 697.135 35 697.42 35 697.989V699.562ZM22.3535 697.135V692.333C22.3535 689.826 22.0003 688.117 21.2939 687.206C20.5762 686.294 19.4198 685.838 17.8247 685.838C16.2297 685.838 15.0789 686.294 14.3726 687.206C13.6548 688.117 13.2959 689.826 13.2959 692.333V697.135H22.3535ZM26.0278 679.515C23.3504 679.515 21.1401 678.809 19.397 677.396C17.6424 675.972 16.7651 673.893 16.7651 671.158C16.7651 668.424 17.6424 666.35 19.397 664.938C21.1401 663.513 23.3504 662.801 26.0278 662.801C28.7052 662.801 30.9212 663.513 32.6758 664.938C34.4189 666.35 35.2905 668.424 35.2905 671.158C35.2905 673.893 34.4189 675.972 32.6758 677.396C30.9212 678.809 28.7052 679.515 26.0278 679.515ZM26.0278 676.336C28.4204 676.336 30.1921 675.864 31.3428 674.918C32.4935 673.972 33.0688 672.719 33.0688 671.158C33.0688 669.597 32.4935 668.344 31.3428 667.398C30.1921 666.453 28.4204 665.98 26.0278 665.98C23.6353 665.98 21.8636 666.453 20.7129 667.398C19.5622 668.344 18.9868 669.597 18.9868 671.158C18.9868 672.719 19.5622 673.972 20.7129 674.918C21.8636 675.864 23.6353 676.336 26.0278 676.336ZM17.8931 660.357C17.3348 660.506 17.0557 660.352 17.0557 659.896V658.102C17.0557 657.691 17.2778 657.435 17.7222 657.333L29.0015 654.82C29.3319 654.741 29.8503 654.621 30.5566 654.461C31.263 654.291 31.7814 654.171 32.1118 654.103V654.034C31.7928 653.977 31.3143 653.88 30.6763 653.744C30.0382 653.596 29.48 653.459 29.0015 653.333L17.7222 650.326C17.2778 650.212 17.0557 649.955 17.0557 649.557V648.019C17.0557 647.62 17.2778 647.363 17.7222 647.25L29.0015 644.242C29.48 644.116 30.0382 643.985 30.6763 643.849C31.3143 643.701 31.7928 643.598 32.1118 643.541V643.473C31.7814 643.404 31.263 643.29 30.5566 643.131C29.8503 642.96 29.3319 642.835 29.0015 642.755L17.7222 640.243C17.2778 640.14 17.0557 639.884 17.0557 639.474V637.679C17.0557 637.223 17.3348 637.07 17.8931 637.218L33.9575 641.456C34.6525 641.638 35 641.946 35 642.379V644.43C35 644.863 34.6525 645.17 33.9575 645.353L22.6611 648.258C21.8636 648.463 21.3053 648.594 20.9863 648.651C20.6673 648.696 20.3654 648.736 20.0806 648.771V648.805C20.3654 648.839 20.6673 648.884 20.9863 648.941C21.3053 648.987 21.8636 649.112 22.6611 649.317L33.9575 652.223C34.6525 652.405 35 652.713 35 653.146V655.196C35 655.629 34.6525 655.937 33.9575 656.119L17.8931 660.357ZM26.0278 635.218C23.2023 635.218 20.9521 634.512 19.2773 633.099C17.6025 631.686 16.7651 629.664 16.7651 627.032C16.7651 624.845 17.5342 623.033 19.0723 621.598C20.599 620.151 23.0428 619.427 26.4038 619.427C26.9165 619.427 27.1729 619.661 27.1729 620.128V632.04C29.3717 631.846 30.9041 631.253 31.77 630.262C32.6245 629.271 33.0518 628.149 33.0518 626.896C33.0518 625.574 32.8296 624.56 32.3853 623.854C31.9409 623.147 31.5023 622.629 31.0693 622.298C30.5908 621.934 30.4997 621.581 30.7959 621.239L31.6675 620.23C31.8953 619.968 32.2087 619.968 32.6074 620.23C32.9378 620.447 33.4676 621.068 34.1968 622.093C34.9259 623.107 35.2905 624.708 35.2905 626.896C35.2905 629.744 34.4531 631.846 32.7783 633.202C31.1035 634.546 28.8534 635.218 26.0278 635.218ZM24.9512 632.108V622.452C23.3561 622.498 21.9604 622.908 20.7642 623.683C19.5565 624.457 18.9526 625.597 18.9526 627.101C18.9526 628.422 19.397 629.544 20.2856 630.467C21.1629 631.39 22.7181 631.937 24.9512 632.108ZM35 614.71C35 615.223 34.7437 615.479 34.231 615.479H17.8247C17.312 615.479 17.0557 615.223 17.0557 614.71V613.275C17.0557 612.762 17.312 612.506 17.8247 612.506H19.8755V612.438C18.8501 611.891 18.0754 611.247 17.5513 610.506C17.0272 609.766 16.7651 608.843 16.7651 607.738C16.7651 607.009 16.8278 606.496 16.9531 606.2C17.0557 605.938 17.2266 605.841 17.4658 605.909L18.8672 606.302C19.0723 606.359 19.152 606.507 19.1064 606.747C19.0267 607.145 18.9868 607.521 18.9868 607.875C18.9868 609.208 19.5907 610.307 20.7983 611.173C21.9946 612.039 23.6296 612.472 25.7031 612.472H34.231C34.7437 612.472 35 612.728 35 613.241V614.71ZM26.0278 592.459C23.3504 592.459 21.1401 591.799 19.397 590.477C17.6424 589.144 16.7651 587.11 16.7651 584.376C16.7651 582.53 17.0955 581.123 17.7563 580.155C18.4058 579.175 19.0723 578.469 19.7559 578.036C20.1318 577.796 20.4338 577.848 20.6616 578.189L21.3623 579.266C21.6016 579.608 21.4478 579.95 20.9009 580.292C20.3768 580.622 19.9268 581.089 19.5508 581.693C19.1748 582.285 18.9868 583.18 18.9868 584.376C18.9868 585.937 19.5622 587.145 20.7129 587.999C21.8636 588.854 23.6353 589.281 26.0278 589.281C28.4204 589.281 30.1921 588.854 31.3428 587.999C32.4935 587.145 33.0688 585.937 33.0688 584.376C33.0688 583.111 32.8296 582.143 32.3511 581.471C31.8612 580.799 31.3314 580.309 30.7617 580.001C30.2262 579.705 30.0724 579.369 30.3003 578.993L30.9839 577.848C31.189 577.506 31.4966 577.455 31.9067 577.694C32.3966 577.979 33.0859 578.628 33.9746 579.642C34.8519 580.645 35.2905 582.223 35.2905 584.376C35.2905 587.11 34.4189 589.144 32.6758 590.477C30.9212 591.799 28.7052 592.459 26.0278 592.459ZM26.0278 574.925C23.3504 574.925 21.1401 574.219 19.397 572.806C17.6424 571.382 16.7651 569.303 16.7651 566.568C16.7651 563.834 17.6424 561.76 19.397 560.348C21.1401 558.924 23.3504 558.211 26.0278 558.211C28.7052 558.211 30.9212 558.924 32.6758 560.348C34.4189 561.76 35.2905 563.834 35.2905 566.568C35.2905 569.303 34.4189 571.382 32.6758 572.806C30.9212 574.219 28.7052 574.925 26.0278 574.925ZM26.0278 571.747C28.4204 571.747 30.1921 571.274 31.3428 570.328C32.4935 569.382 33.0688 568.129 33.0688 566.568C33.0688 565.007 32.4935 563.754 31.3428 562.809C30.1921 561.863 28.4204 561.39 26.0278 561.39C23.6353 561.39 21.8636 561.863 20.7129 562.809C19.5622 563.754 18.9868 565.007 18.9868 566.568C18.9868 568.129 19.5622 569.382 20.7129 570.328C21.8636 571.274 23.6353 571.747 26.0278 571.747ZM35 553.563C35 554.076 34.7437 554.332 34.231 554.332H17.8247C17.312 554.332 17.0557 554.076 17.0557 553.563V552.127C17.0557 551.615 17.312 551.358 17.8247 551.358H19.1919V551.29C18.3716 550.549 17.762 549.752 17.3633 548.897C16.9645 548.043 16.7651 546.978 16.7651 545.702C16.7651 543.628 17.3519 542.141 18.5254 541.241C19.6875 540.33 21.2826 539.874 23.3105 539.874H34.231C34.7437 539.874 35 540.13 35 540.643V542.113C35 542.625 34.7437 542.882 34.231 542.882H24.1309C21.8978 542.882 20.485 543.252 19.8926 543.993C19.2887 544.733 18.9868 545.673 18.9868 546.812C18.9868 548.294 19.4312 549.416 20.3198 550.179C21.1971 550.943 22.7067 551.324 24.8486 551.324H34.231C34.7437 551.324 35 551.581 35 552.093V553.563ZM33.3252 535.755C32.9948 536.109 32.6872 536.183 32.4023 535.978L31.3257 535.208C30.9839 534.958 31.001 534.588 31.377 534.098C31.8896 533.425 32.2998 532.679 32.6074 531.859C32.915 531.027 33.0688 530.082 33.0688 529.022C33.0688 528.395 32.9948 527.837 32.8467 527.347C32.6872 526.857 32.3966 526.43 31.9751 526.065C31.5535 525.689 30.9896 525.501 30.2832 525.501C29.873 525.501 29.4857 525.593 29.1211 525.775C28.7565 525.946 28.466 526.219 28.2495 526.595C28.0216 526.96 27.8451 527.319 27.7197 527.672C27.5033 528.253 27.3267 528.834 27.1899 529.415C27.0418 529.985 26.8197 530.737 26.5234 531.671C26.3298 532.298 26.0563 532.89 25.7031 533.448C25.3385 534.007 24.8486 534.496 24.2334 534.918C23.6182 535.328 22.7694 535.533 21.687 535.533C20.5819 535.533 19.6305 535.197 18.833 534.525C18.0355 533.853 17.4943 533.01 17.2095 531.996C16.9132 530.982 16.7651 529.996 16.7651 529.039C16.7651 527.626 16.9303 526.493 17.2607 525.638C17.5798 524.772 17.9614 524.026 18.4058 523.399C18.6678 523.035 18.9697 522.984 19.3115 523.246L20.3369 524.015C20.6673 524.254 20.6559 524.624 20.3027 525.125C20.0065 525.547 19.7274 526.145 19.4653 526.92C19.2033 527.695 19.0723 528.373 19.0723 528.954C19.0723 529.671 19.152 530.287 19.3115 530.799C19.471 531.312 19.7445 531.728 20.1318 532.047C20.5192 532.366 20.9749 532.525 21.499 532.525C21.8978 532.525 22.2567 532.463 22.5757 532.337C22.8833 532.212 23.1681 531.979 23.4302 531.637C23.6922 531.295 23.903 530.816 24.0625 530.201C24.3132 529.244 24.541 528.373 24.7461 527.586C24.9512 526.789 25.2018 526.071 25.498 525.433C25.8854 524.601 26.3127 523.963 26.7798 523.519C27.2469 523.063 27.7539 522.75 28.3008 522.579C28.8363 522.408 29.4344 522.323 30.0952 522.323C31.3143 522.323 32.3454 522.687 33.1885 523.417C34.0316 524.134 34.5955 524.938 34.8804 525.826C35.1538 526.715 35.2905 527.786 35.2905 529.039C35.2905 530.737 35.0513 532.195 34.5728 533.414C34.0828 534.622 33.667 535.402 33.3252 535.755ZM28.7451 518.956H17.8247C17.312 518.956 17.0557 518.7 17.0557 518.187V516.717C17.0557 516.205 17.312 515.948 17.8247 515.948H27.9248C30.1579 515.948 31.5763 515.578 32.1802 514.837C32.7726 514.097 33.0688 513.18 33.0688 512.086C33.0688 510.65 32.6302 509.551 31.7529 508.788C30.8643 508.024 29.349 507.643 27.207 507.643H17.8247C17.312 507.643 17.0557 507.386 17.0557 506.874V505.404C17.0557 504.891 17.312 504.635 17.8247 504.635H34.231C34.7437 504.635 35 504.891 35 505.404V506.839C35 507.352 34.7437 507.608 34.231 507.608H32.8638V507.677C33.6841 508.417 34.2936 509.215 34.6924 510.069C35.0911 510.924 35.2905 511.966 35.2905 513.197C35.2905 515.191 34.7095 516.649 33.5474 517.572C32.3739 518.495 30.7731 518.956 28.7451 518.956ZM35 499.012C35 499.525 34.7437 499.781 34.231 499.781H17.8247C17.312 499.781 17.0557 499.525 17.0557 499.012V497.577C17.0557 497.064 17.312 496.808 17.8247 496.808H19.1919V496.739C18.3716 495.999 17.762 495.195 17.3633 494.33C16.9645 493.464 16.7651 492.632 16.7651 491.834C16.7651 490.365 17.1354 489.237 17.876 488.451C18.6051 487.653 19.34 487.14 20.0806 486.913V486.844C19.1463 486.218 18.3602 485.426 17.7222 484.469C17.0841 483.512 16.7651 482.492 16.7651 481.41C16.7651 479.598 17.3519 478.231 18.5254 477.308C19.6875 476.385 21.2826 475.924 23.3105 475.924H34.231C34.7437 475.924 35 476.18 35 476.693V478.163C35 478.675 34.7437 478.932 34.231 478.932H24.3018C22.0687 478.932 20.6274 479.211 19.978 479.769C19.3172 480.327 18.9868 481.188 18.9868 482.35C18.9868 483.489 19.4767 484.44 20.4565 485.204C21.425 485.967 22.889 486.349 24.8486 486.349H34.231C34.7437 486.349 35 486.605 35 487.118V488.587C35 489.1 34.7437 489.356 34.231 489.356H24.3018C22.0687 489.356 20.6274 489.636 19.978 490.194C19.3172 490.752 18.9868 491.612 18.9868 492.774C18.9868 493.914 19.4312 494.865 20.3198 495.628C21.1971 496.392 22.7067 496.773 24.8486 496.773H34.231C34.7437 496.773 35 497.03 35 497.542V499.012ZM41.8359 470.335C41.8359 470.848 41.5796 471.104 41.0669 471.104H17.8247C17.312 471.104 17.0557 470.848 17.0557 470.335V468.9C17.0557 468.49 17.312 468.268 17.8247 468.233L19.1919 468.131V468.097C18.4399 467.47 17.8475 466.764 17.4146 465.978C16.9816 465.191 16.7651 464.143 16.7651 462.833C16.7651 460.554 17.6994 458.823 19.5679 457.638C21.425 456.453 23.5783 455.86 26.0278 455.86C28.4774 455.86 30.6364 456.453 32.5049 457.638C34.362 458.823 35.2905 460.554 35.2905 462.833C35.2905 464.143 35.0741 465.191 34.6411 465.978C34.2082 466.764 33.6157 467.47 32.8638 468.097V468.131C33.2056 468.108 33.5531 468.097 33.9062 468.097H41.0669C41.5796 468.097 41.8359 468.353 41.8359 468.866V470.335ZM27.9932 468.097C29.7021 468.097 30.9782 467.692 31.8213 466.883C32.653 466.063 33.0688 465.038 33.0688 463.807C33.0688 462.075 32.4194 460.851 31.1206 460.133C29.8218 459.404 28.1242 459.039 26.0278 459.039C23.9315 459.039 22.2339 459.404 20.9351 460.133C19.6362 460.851 18.9868 462.075 18.9868 463.807C18.9868 465.038 19.4084 466.063 20.2515 466.883C21.0832 467.692 22.3535 468.097 24.0625 468.097H27.9932ZM19.3115 452.835C19.3115 453.348 19.1121 453.604 18.7134 453.604H17.6538C17.255 453.604 17.0557 453.348 17.0557 452.835V450.819H15.5176C15.2897 450.819 15.0732 450.762 14.8682 450.648L12.6978 449.452C12.299 449.235 12.0996 449.059 12.0996 448.922V448.324C12.0996 447.982 12.299 447.811 12.6978 447.811H17.0557V444.171C17.0557 443.658 17.255 443.402 17.6538 443.402H18.7134C19.1121 443.402 19.3115 443.658 19.3115 444.171V447.811H30.1978C31.394 447.811 32.1745 447.634 32.5391 447.281C32.8923 446.917 33.0688 446.484 33.0688 445.982C33.0688 445.595 32.9549 445.134 32.7271 444.598C32.4992 444.051 32.3055 443.675 32.146 443.47C31.9865 443.265 32.0378 443.106 32.2998 442.992L33.6157 442.428C33.8436 442.337 34.0259 442.405 34.1626 442.633C34.4246 443.077 34.681 443.727 34.9316 444.581C35.1709 445.436 35.2905 446.29 35.2905 447.145C35.2905 448.329 34.8633 449.241 34.0088 449.879C33.1543 450.506 31.9466 450.819 30.3857 450.819H19.3115V452.835ZM35 438.241C35 438.753 34.7437 439.01 34.231 439.01H17.8247C17.312 439.01 17.0557 438.753 17.0557 438.241V436.771C17.0557 436.258 17.312 436.002 17.8247 436.002H34.231C34.7437 436.002 35 436.258 35 436.771V438.241ZM13.8086 438.241C13.8086 438.753 13.5522 439.01 13.0396 439.01H11.5698C11.0571 439.01 10.8008 438.753 10.8008 438.241V436.771C10.8008 436.258 11.0571 436.002 11.5698 436.002H13.0396C13.5522 436.002 13.8086 436.258 13.8086 436.771V438.241ZM26.0278 432.123C23.3504 432.123 21.1401 431.416 19.397 430.003C17.6424 428.579 16.7651 426.5 16.7651 423.766C16.7651 421.031 17.6424 418.958 19.397 417.545C21.1401 416.121 23.3504 415.409 26.0278 415.409C28.7052 415.409 30.9212 416.121 32.6758 417.545C34.4189 418.958 35.2905 421.031 35.2905 423.766C35.2905 426.5 34.4189 428.579 32.6758 430.003C30.9212 431.416 28.7052 432.123 26.0278 432.123ZM26.0278 428.944C28.4204 428.944 30.1921 428.471 31.3428 427.525C32.4935 426.58 33.0688 425.326 33.0688 423.766C33.0688 422.205 32.4935 420.951 31.3428 420.006C30.1921 419.06 28.4204 418.587 26.0278 418.587C23.6353 418.587 21.8636 419.06 20.7129 420.006C19.5622 420.951 18.9868 422.205 18.9868 423.766C18.9868 425.326 19.5622 426.58 20.7129 427.525C21.8636 428.471 23.6353 428.944 26.0278 428.944ZM35 410.76C35 411.273 34.7437 411.529 34.231 411.529H17.8247C17.312 411.529 17.0557 411.273 17.0557 410.76V409.325C17.0557 408.812 17.312 408.556 17.8247 408.556H19.1919V408.487C18.3716 407.747 17.762 406.949 17.3633 406.095C16.9645 405.24 16.7651 404.175 16.7651 402.899C16.7651 400.825 17.3519 399.339 18.5254 398.438C19.6875 397.527 21.2826 397.071 23.3105 397.071H34.231C34.7437 397.071 35 397.328 35 397.84V399.31C35 399.823 34.7437 400.079 34.231 400.079H24.1309C21.8978 400.079 20.485 400.449 19.8926 401.19C19.2887 401.931 18.9868 402.87 18.9868 404.01C18.9868 405.491 19.4312 406.613 20.3198 407.376C21.1971 408.14 22.7067 408.521 24.8486 408.521H34.231C34.7437 408.521 35 408.778 35 409.291V410.76Z" fill="black"/>
<path d="M92.974 93V67.5455H101.575C103.572 67.5455 105.204 67.9059 106.472 68.6268C107.748 69.3394 108.693 70.3047 109.306 71.5227C109.919 72.7408 110.225 74.0997 110.225 75.5994C110.225 77.0992 109.919 78.4622 109.306 79.6886C108.701 80.9149 107.764 81.8926 106.497 82.6218C105.229 83.3427 103.605 83.7031 101.625 83.7031H95.4598V80.9688H101.525C102.892 80.9688 103.99 80.7326 104.819 80.2603C105.647 79.788 106.248 79.15 106.621 78.3462C107.002 77.5342 107.193 76.6186 107.193 75.5994C107.193 74.5803 107.002 73.6688 106.621 72.8651C106.248 72.0613 105.643 71.4316 104.806 70.9759C103.969 70.5118 102.859 70.2798 101.475 70.2798H96.0564V93H92.974Z" fill="black"/>
<path d="M100.585 93V86.4545H101.556V87.4773H101.641C101.778 87.1278 101.998 86.8565 102.302 86.6634C102.606 86.4673 102.971 86.3693 103.397 86.3693C103.829 86.3693 104.188 86.4673 104.475 86.6634C104.765 86.8565 104.991 87.1278 105.153 87.4773H105.221C105.388 87.1392 105.64 86.8707 105.975 86.6719C106.31 86.4702 106.712 86.3693 107.181 86.3693C107.766 86.3693 108.245 86.5526 108.617 86.919C108.989 87.2827 109.175 87.8494 109.175 88.6193V93H108.17V88.6193C108.17 88.1364 108.038 87.7912 107.773 87.5838C107.509 87.3764 107.198 87.2727 106.84 87.2727C106.38 87.2727 106.023 87.4119 105.771 87.6903C105.518 87.9659 105.391 88.3153 105.391 88.7386V93H104.369V88.517C104.369 88.1449 104.248 87.8452 104.006 87.6179C103.765 87.3878 103.454 87.2727 103.073 87.2727C102.812 87.2727 102.567 87.3423 102.34 87.4815C102.116 87.6207 101.934 87.8139 101.795 88.0611C101.658 88.3054 101.59 88.5881 101.59 88.9091V93H100.585ZM112.94 93.1534C112.526 93.1534 112.149 93.0753 111.811 92.919C111.473 92.7599 111.205 92.5312 111.006 92.233C110.807 91.9318 110.707 91.5682 110.707 91.142C110.707 90.767 110.781 90.4631 110.929 90.2301C111.077 89.9943 111.274 89.8097 111.521 89.6761C111.768 89.5426 112.041 89.4432 112.339 89.3778C112.641 89.3097 112.943 89.2557 113.247 89.2159C113.645 89.1648 113.967 89.1264 114.214 89.1009C114.464 89.0724 114.646 89.0256 114.76 88.9602C114.876 88.8949 114.935 88.7812 114.935 88.6193V88.5852C114.935 88.1648 114.82 87.8381 114.589 87.6051C114.362 87.3722 114.017 87.2557 113.554 87.2557C113.074 87.2557 112.697 87.3608 112.425 87.571C112.152 87.7812 111.96 88.0057 111.849 88.2443L110.895 87.9034C111.065 87.5057 111.293 87.196 111.577 86.9744C111.864 86.75 112.176 86.5937 112.514 86.5057C112.855 86.4148 113.19 86.3693 113.52 86.3693C113.73 86.3693 113.972 86.3949 114.244 86.446C114.52 86.4943 114.786 86.5952 115.041 86.7486C115.3 86.902 115.514 87.1335 115.685 87.4432C115.855 87.7528 115.94 88.1676 115.94 88.6875V93H114.935V92.1136H114.884C114.815 92.2557 114.702 92.4077 114.543 92.5696C114.384 92.7315 114.172 92.8693 113.908 92.983C113.643 93.0966 113.321 93.1534 112.94 93.1534ZM113.094 92.25C113.491 92.25 113.827 92.1719 114.099 92.0156C114.375 91.8594 114.582 91.6577 114.722 91.4105C114.864 91.1634 114.935 90.9034 114.935 90.6307V89.7102C114.892 89.7614 114.798 89.8082 114.653 89.8509C114.511 89.8906 114.347 89.9261 114.159 89.9574C113.974 89.9858 113.794 90.0114 113.618 90.0341C113.445 90.054 113.304 90.071 113.196 90.0852C112.935 90.1193 112.69 90.1747 112.463 90.2514C112.239 90.3253 112.057 90.4375 111.918 90.5881C111.781 90.7358 111.713 90.9375 111.713 91.1932C111.713 91.5426 111.842 91.8068 112.101 91.9858C112.362 92.1619 112.693 92.25 113.094 92.25ZM118.526 86.4545L120.094 89.1307L121.662 86.4545H122.821L120.708 89.7273L122.821 93H121.662L120.094 90.4602L118.526 93H117.367L119.446 89.7273L117.367 86.4545H118.526Z" fill="black"/>
<path d="M99.974 583V557.545H108.575C110.572 557.545 112.204 557.906 113.472 558.627C114.748 559.339 115.693 560.305 116.306 561.523C116.919 562.741 117.225 564.1 117.225 565.599C117.225 567.099 116.919 568.462 116.306 569.689C115.701 570.915 114.764 571.893 113.497 572.622C112.229 573.343 110.605 573.703 108.625 573.703H102.46V570.969H108.525C109.892 570.969 110.99 570.733 111.819 570.26C112.647 569.788 113.248 569.15 113.621 568.346C114.002 567.534 114.193 566.619 114.193 565.599C114.193 564.58 114.002 563.669 113.621 562.865C113.248 562.061 112.643 561.432 111.806 560.976C110.969 560.512 109.859 560.28 108.475 560.28H103.056V583H99.974Z" fill="black"/>
<path d="M109.354 583V576.455H110.36V583H109.354ZM109.865 575.364C109.669 575.364 109.5 575.297 109.358 575.163C109.219 575.03 109.15 574.869 109.15 574.682C109.15 574.494 109.219 574.334 109.358 574.2C109.5 574.067 109.669 574 109.865 574C110.061 574 110.229 574.067 110.368 574.2C110.51 574.334 110.581 574.494 110.581 574.682C110.581 574.869 110.51 575.03 110.368 575.163C110.229 575.297 110.061 575.364 109.865 575.364ZM114.673 583.136C114.128 583.136 113.646 582.999 113.229 582.723C112.811 582.445 112.484 582.053 112.249 581.547C112.013 581.038 111.895 580.438 111.895 579.744C111.895 579.057 112.013 578.46 112.249 577.955C112.484 577.449 112.813 577.058 113.233 576.783C113.653 576.507 114.139 576.369 114.69 576.369C115.116 576.369 115.453 576.44 115.7 576.582C115.95 576.722 116.141 576.881 116.271 577.06C116.405 577.236 116.509 577.381 116.582 577.494H116.668V574.273H117.673V583H116.702V581.994H116.582C116.509 582.114 116.403 582.264 116.267 582.446C116.131 582.625 115.936 582.786 115.683 582.928C115.43 583.067 115.094 583.136 114.673 583.136ZM114.81 582.233C115.213 582.233 115.554 582.128 115.832 581.918C116.111 581.705 116.322 581.411 116.467 581.036C116.612 580.658 116.685 580.222 116.685 579.727C116.685 579.239 116.614 578.811 116.472 578.445C116.33 578.075 116.119 577.788 115.841 577.584C115.563 577.376 115.219 577.273 114.81 577.273C114.384 577.273 114.028 577.382 113.744 577.601C113.463 577.817 113.251 578.111 113.109 578.483C112.97 578.852 112.901 579.267 112.901 579.727C112.901 580.193 112.972 580.616 113.114 580.997C113.259 581.375 113.472 581.676 113.753 581.901C114.037 582.122 114.389 582.233 114.81 582.233ZM120.661 574.273V583H119.655V574.273H120.661ZM125.247 583.136C124.616 583.136 124.072 582.997 123.615 582.719C123.16 582.438 122.809 582.045 122.562 581.543C122.318 581.037 122.196 580.449 122.196 579.778C122.196 579.108 122.318 578.517 122.562 578.006C122.809 577.491 123.153 577.091 123.593 576.804C124.037 576.514 124.554 576.369 125.145 576.369C125.485 576.369 125.822 576.426 126.154 576.54C126.487 576.653 126.789 576.838 127.062 577.094C127.335 577.347 127.552 577.682 127.714 578.099C127.876 578.517 127.957 579.031 127.957 579.642V580.068H122.912V579.199H126.934C126.934 578.83 126.86 578.5 126.713 578.21C126.568 577.92 126.36 577.692 126.091 577.524C125.824 577.357 125.508 577.273 125.145 577.273C124.744 577.273 124.397 577.372 124.105 577.571C123.815 577.767 123.592 578.023 123.436 578.338C123.279 578.653 123.201 578.991 123.201 579.352V579.932C123.201 580.426 123.287 580.845 123.457 581.189C123.63 581.53 123.87 581.79 124.177 581.969C124.484 582.145 124.841 582.233 125.247 582.233C125.511 582.233 125.75 582.196 125.963 582.122C126.179 582.045 126.365 581.932 126.521 581.781C126.677 581.628 126.798 581.437 126.883 581.21L127.855 581.483C127.752 581.812 127.581 582.102 127.339 582.352C127.098 582.599 126.799 582.793 126.444 582.932C126.089 583.068 125.69 583.136 125.247 583.136Z" fill="black"/>
<line x1="1546.5" x2="1546.5" y2="1036" stroke="#FF0000" stroke-width="5" stroke-dasharray="10 10"/>
<line x1="1544" y1="82.5" x2="141" y2="82.4999" stroke="black" stroke-dasharray="6 6"/>
<line x1="1544" y1="572.5" x2="141" y2="572.5" stroke="black" stroke-dasharray="6 6"/>
<path d="M1520.43 1062.33C1520.28 1061.97 1520.42 1061.7 1520.84 1061.54C1521.72 1061.21 1522.55 1060.68 1523.33 1059.95C1524.12 1059.22 1524.74 1058.58 1525.2 1058.01C1525.53 1057.6 1525.85 1057.39 1526.15 1057.39H1527.61C1528.13 1057.39 1528.39 1057.65 1528.39 1058.16V1081.23C1528.39 1081.74 1528.14 1082 1527.62 1082H1526.15C1525.64 1082 1525.38 1081.74 1525.38 1081.23V1062.5C1525.38 1062.16 1525.4 1061.82 1525.42 1061.48H1525.38C1525.03 1061.92 1524.51 1062.38 1523.83 1062.84C1523.15 1063.31 1522.52 1063.65 1521.95 1063.87C1521.45 1064.06 1521.12 1063.97 1520.96 1063.59L1520.43 1062.33ZM1533.19 1069.85C1533.19 1065.86 1533.74 1062.76 1534.84 1060.54C1535.93 1058.3 1538.01 1057.19 1541.09 1057.19C1544.17 1057.19 1546.25 1058.3 1547.35 1060.54C1548.44 1062.76 1548.99 1065.86 1548.99 1069.85C1548.99 1073.84 1548.44 1076.95 1547.35 1079.18C1546.25 1081.4 1544.17 1082.51 1541.09 1082.51C1538.01 1082.51 1535.93 1081.4 1534.84 1079.18C1533.74 1076.95 1533.19 1073.84 1533.19 1069.85ZM1536.37 1069.85C1536.37 1073.04 1536.65 1075.54 1537.19 1077.35C1537.74 1079.15 1539.04 1080.05 1541.09 1080.05C1543.14 1080.05 1544.44 1079.15 1544.99 1077.35C1545.53 1075.54 1545.81 1073.04 1545.81 1069.85C1545.81 1066.66 1545.53 1064.16 1544.99 1062.36C1544.44 1060.55 1543.14 1059.65 1541.09 1059.65C1539.04 1059.65 1537.74 1060.55 1537.19 1062.36C1536.65 1064.16 1536.37 1066.66 1536.37 1069.85ZM1552.16 1069.85C1552.16 1065.86 1552.71 1062.76 1553.81 1060.54C1554.9 1058.3 1556.98 1057.19 1560.06 1057.19C1563.14 1057.19 1565.22 1058.3 1566.31 1060.54C1567.41 1062.76 1567.96 1065.86 1567.96 1069.85C1567.96 1073.84 1567.41 1076.95 1566.31 1079.18C1565.22 1081.4 1563.14 1082.51 1560.06 1082.51C1556.98 1082.51 1554.9 1081.4 1553.81 1079.18C1552.71 1076.95 1552.16 1073.84 1552.16 1069.85ZM1555.34 1069.85C1555.34 1073.04 1555.62 1075.54 1556.16 1077.35C1556.71 1079.15 1558.01 1080.05 1560.06 1080.05C1562.11 1080.05 1563.41 1079.15 1563.96 1077.35C1564.5 1075.54 1564.78 1073.04 1564.78 1069.85C1564.78 1066.66 1564.5 1064.16 1563.96 1062.36C1563.41 1060.55 1562.11 1059.65 1560.06 1059.65C1558.01 1059.65 1556.71 1060.55 1556.16 1062.36C1555.62 1064.16 1555.34 1066.66 1555.34 1069.85Z" fill="black"/>
<path d="M132.604 1069.85C132.604 1065.86 133.151 1062.76 134.245 1060.54C135.339 1058.3 137.424 1057.19 140.5 1057.19C143.576 1057.19 145.661 1058.3 146.755 1060.54C147.849 1062.76 148.396 1065.86 148.396 1069.85C148.396 1073.84 147.849 1076.95 146.755 1079.18C145.661 1081.4 143.576 1082.51 140.5 1082.51C137.424 1082.51 135.339 1081.4 134.245 1079.18C133.151 1076.95 132.604 1073.84 132.604 1069.85ZM135.783 1069.85C135.783 1073.04 136.057 1075.54 136.604 1077.35C137.15 1079.15 138.449 1080.05 140.5 1080.05C142.551 1080.05 143.85 1079.15 144.396 1077.35C144.943 1075.54 145.217 1073.04 145.217 1069.85C145.217 1066.66 144.943 1064.16 144.396 1062.36C143.85 1060.55 142.551 1059.65 140.5 1059.65C138.449 1059.65 137.15 1060.55 136.604 1062.36C136.057 1064.16 135.783 1066.66 135.783 1069.85Z" fill="black"/>
</svg>
