<svg width="1271" height="1271" viewBox="0 0 1271 1271" fill="none" xmlns="http://www.w3.org/2000/svg">
<path d="M257.65 1081.08C249.155 1086.08 241.655 1090.63 235.147 1094.74C229.186 1097.41 221.158 1096.84 211.066 1093.01L198.089 1088.08C182.229 1082.07 175.76 1073.03 178.682 1060.99C181.604 1048.94 186.143 1039.15 192.299 1031.61L1017.64 188.571C1020.18 186.242 1022.44 184.632 1024.42 183.741C1026.96 181.413 1030.21 179.358 1034.18 177.576C1042.13 174.013 1051.15 174.146 1061.25 177.975L1072.06 182.077C1087.92 188.094 1094.66 196.408 1092.29 207.02C1091.9 216.74 1086.36 226.976 1075.69 237.728L257.65 1081.08Z" fill="#75D573"/>
<path fill-rule="evenodd" clip-rule="evenodd" d="M380 594H360C252 594 198 534.809 198 416.428V352.582C198 236.861 252 179 360 179H380C488 179 542 236.861 542 352.582V416.428C542 534.809 488 594 380 594ZM450 272.774C463.333 286.075 470 313.343 470 354.577V416.428C470 458.992 463.333 486.925 450 500.226C438 513.527 414.667 520.178 380 520.178H360C325.333 520.178 301.333 513.527 288 500.226C276 486.925 270 458.992 270 416.428V354.577C270 312.013 276 284.08 288 270.779C301.333 257.478 325.333 250.827 360 250.827H380C414.667 250.827 438 258.143 450 272.774Z" fill="#75D573"/>
<path fill-rule="evenodd" clip-rule="evenodd" d="M914.762 1074H894.238C783.413 1074 728 1013.92 728 893.769V828.231C728 708.077 783.413 648 894.238 648H914.762C1025.59 648 1081 708.077 1081 828.231V893.769C1081 1013.92 1025.59 1074 914.762 1074ZM986.593 744.26C1000.28 757.913 1007.12 786.587 1007.12 830.279V891.721C1007.12 934.048 1000.28 962.721 986.593 977.74C974.279 992.76 950.335 1000.27 914.762 1000.27H894.238C858.665 1000.27 834.037 992.76 820.355 977.74C808.041 962.721 801.884 934.048 801.884 891.721V830.279C801.884 786.587 808.041 757.913 820.355 744.26C834.037 729.24 858.665 721.731 894.238 721.731H914.762C950.335 721.731 974.279 729.24 986.593 744.26Z" fill="#75D573"/>
</svg>
