<svg width="1278" height="1278" viewBox="0 0 1278 1278" fill="none" xmlns="http://www.w3.org/2000/svg">
<path d="M964.661 841.922C963.753 842.968 962.319 843.121 962.015 843.789C957.262 854.234 948.737 860.844 939.581 867.163C927.697 875.365 917.881 870.462 914.556 858.817C911.343 847.564 909.352 835.962 906.822 824.515C903.412 809.09 894.492 797.026 883.774 785.91C881.247 783.289 878.75 779.642 878.292 776.194C876.323 761.367 885.006 758.749 899.675 757.528C930.698 754.947 951.001 773.873 961.133 800.549C961.827 802.378 962.931 804.052 964.253 805.335C964.661 817.004 964.661 829.136 964.661 841.922Z" fill="#E1CAA2"/>
<path d="M682.583 894.244C651.402 894.244 620.914 894.603 590.439 894.133C564.572 893.734 538.706 892.644 512.865 891.359C493.835 890.411 474.836 888.759 455.853 887.091C454.052 886.932 451.661 884.753 450.889 882.939C441.599 861.135 432.113 839.396 423.574 817.294C412.605 788.897 402.211 760.272 392.015 731.586C383.047 706.353 376.625 680.435 374.028 653.719C372.718 640.237 371.267 626.679 371.402 613.17C371.555 597.921 374.91 583.001 381.15 568.948C381.763 567.567 384.203 566.331 385.877 566.214C390.971 565.86 396.111 565.949 401.225 566.115C412.761 566.491 424.387 568.162 435.803 567.212C441.634 566.726 447.231 567.049 452.685 567.919C463.256 569.606 473.287 573.352 483.431 577.262C502.352 584.554 521.514 590.994 542.319 589.876C552.718 589.317 560.927 583.193 563.063 573.074C563.675 570.176 562.853 566.975 562.72 564.501C570.235 563.165 577.57 561.721 584.959 560.658C586.523 560.433 588.79 561.1 589.882 562.2C606.027 578.48 627.818 573.636 642.744 561.58C654.108 552.401 663.645 540.978 674.887 531.625C680.428 527.014 687.867 524.553 694.654 521.592C721.557 509.855 748.585 498.406 775.473 486.634C786.044 482.005 796.781 477.506 806.663 471.636C813.684 467.465 817.901 469.767 822.257 474.681C833.039 486.849 841.599 500.375 847.424 515.629C858.852 545.556 864.516 576.95 871.061 608.11C875.902 631.16 880.673 654.236 884.806 677.42C888.198 696.445 890.573 715.651 893.472 734.765C894.148 739.218 895.125 743.626 895.996 748.225C891.935 749.655 887.717 751.122 883.512 752.626C868.22 758.096 864.725 778.035 875.3 788.891C879.627 793.332 883.676 798.063 887.635 802.841C895.737 812.615 898.143 824.575 900.458 836.609C903.109 850.389 905.451 864.281 909.189 877.774C911.007 884.335 908.463 884.215 903.825 884.523C877.469 886.276 851.126 888.231 824.775 890.052C810.323 891.05 795.874 892.404 781.403 892.749C748.702 893.527 715.989 893.778 682.583 894.244ZM635.55 701.535C630.846 698.327 626.555 693.607 621.362 692.191C605.001 687.73 589.104 690.165 574.461 698.965C566.312 703.862 562.664 712.436 564.175 719.693C550.688 724.652 537.771 730.541 527.651 741.248C518.992 750.409 516.37 764.286 521.786 773.177C529.027 785.063 544.116 792.272 556.002 788.218C564.392 785.356 572.312 780.929 580.141 776.652C594.429 768.846 608.798 762.095 625.788 762.856C639.504 763.47 653.296 763.517 667.005 762.835C681.846 762.096 694.529 756.879 700.791 741.833C705.196 731.25 702.922 720.574 693.035 714.113C675.786 702.841 656.108 702.531 635.55 701.535ZM424.124 675.819C426.817 694.722 436.74 709.31 452.319 719.564C472.945 733.14 494.601 734.733 517.524 724.089C545.028 711.319 562.775 676.025 551.606 643.825C540.818 612.726 507.146 592.75 475.558 599.842C441.531 607.482 418.704 639.362 424.124 675.819ZM671.057 677.741C681.529 681.615 692.119 683.426 703.455 682.115C727.764 679.303 745.25 666.251 755.807 645.262C766.373 624.253 765.091 602.554 752.503 582.101C741.277 563.861 724.711 553.305 703.76 550.918C680.922 548.315 661.442 556.304 646.343 573.795C632.132 590.257 627.32 609.5 631.964 630.654C636.746 652.437 650.006 667.732 671.057 677.741ZM627.319 771.358C622.616 771.862 617.912 772.366 612.646 772.93C614.79 780.067 616.528 786.769 618.839 793.268C620.936 799.163 625.479 802.274 631.71 800.529C637.381 798.94 640.578 794.394 640.576 788.506C640.575 783.358 639.606 778.21 639.063 773.047C635.251 772.432 631.922 771.895 627.319 771.358ZM585.604 785.272C583.998 786.425 582.391 787.578 579.94 789.337C583.303 794.21 586.025 799.174 589.719 803.26C594.888 808.978 604.424 806.944 605.466 799.424C606.477 792.117 604.652 784.418 603.971 775.575C596.668 779.28 591.497 781.905 585.604 785.272Z" fill="#60D0E4"/>
<path d="M671.057 677.741C681.529 681.615 692.119 683.426 703.455 682.115C727.764 679.303 745.25 666.251 755.807 645.262C766.373 624.253 765.091 602.554 752.503 582.101C741.277 563.861 724.711 553.305 703.76 550.918C680.922 548.315 661.442 556.304 646.343 573.795C632.132 590.257 627.32 609.5 631.964 630.654C636.746 652.437 650.006 667.732 671.057 677.741Z" fill="white"/>
<path d="M424.124 675.819C426.817 694.722 436.74 709.31 452.319 719.564C472.945 733.14 494.601 734.733 517.524 724.089C545.028 711.319 562.775 676.025 551.606 643.825C540.818 612.726 507.146 592.75 475.558 599.842C441.531 607.482 418.704 639.362 424.124 675.819Z" fill="white"/>
<path d="M642.227 342.56C658.107 348.234 673.444 353.789 688.759 359.407C694.913 361.664 697.102 367.623 693.379 373C686.341 383.166 683.04 394.378 682.411 406.634C682.311 408.574 680.443 411.388 678.686 412.137C642.28 427.651 605.121 441.169 566.366 449.385C546.194 453.661 525.572 456.02 505.055 458.4C493.135 459.782 480.929 460.642 469.017 459.68C451.757 458.286 434.647 455.031 417.279 452.543C417.279 439.446 416.971 428.289 417.477 417.17C417.62 414.03 419.616 410.581 421.664 407.983C446.389 376.617 474.252 348.687 509.309 328.708C525.207 319.648 542.706 319.026 559.582 322.241C586.343 327.34 612.645 334.852 639.134 341.37C640.018 341.587 640.83 342.094 642.227 342.56Z" fill="#638B18"/>
<path d="M633.5 438.974C648.093 433.38 662.124 427.822 676.153 422.26C678.654 421.268 684.112 419.068 684.112 419.068C684.112 419.068 690.762 432.091 699.202 432.761C699.779 432.807 700.596 434.589 700.655 435.601C701.018 441.912 694.317 452.608 688.286 454.941C664.557 464.118 641.169 474.444 616.903 481.895C590.638 489.959 563.801 496.936 536.717 501.318C513.225 505.118 489.047 504.772 465.156 505.928C459.713 506.191 454.174 505.307 448.736 504.54C445.219 504.044 442.539 502.638 440.747 498.652C435.225 486.374 428.927 474.446 422.47 461.453C447.412 468.578 472.368 469.747 497.237 468.049C518.075 466.626 539.044 464.076 559.409 459.56C584.217 454.058 608.454 445.976 633.5 438.974Z" fill="#E1CAA2"/>
<path d="M616.558 537.635C610.941 536.275 605.616 532.953 600.668 533.443C592.69 534.233 587.47 539.975 584.783 547.933C584.035 550.151 581.379 552.899 579.236 553.262C571.106 554.637 562.386 557.167 554.706 555.497C542.196 552.777 529.593 558.511 517.177 552.786C505.568 547.433 493.047 544.043 480.894 539.888C466.58 534.995 452.225 530.221 437.903 525.351C436.83 524.986 435.878 524.264 434.857 523.7C438.371 519.414 446.587 521.275 447.707 513.671C447.781 513.17 451.989 513.132 454.274 513.126C472.498 513.079 490.764 513.894 508.936 512.928C555.02 510.479 598.863 497.623 642.05 482.341C655.245 477.672 668.117 472.096 681.151 466.97C683.213 466.159 685.348 465.534 689.248 464.214C681.233 473.615 674.732 481.847 667.594 489.483C654.767 503.205 641.698 516.71 628.406 529.981C625.271 533.111 620.849 534.951 616.558 537.635Z" fill="#638B18"/>
<path d="M774.746 259.043C774.952 279.403 767.99 297.32 760.895 315.204C761.332 315.685 761.77 316.165 762.207 316.646C765.82 313.38 769.433 310.114 773.39 306.537C773.922 308.589 774.677 311.5 775.834 315.967C785.726 304.572 798.429 296.675 804.161 280.689C805.843 286.788 807.296 292.056 809.053 298.429C817.925 288.886 826.421 279.746 834.224 271.352C838.942 290.492 824.833 317.144 796.982 338.176C800.489 338.357 803.297 338.503 806.946 338.691C802.074 345.136 797.485 351.207 792.68 357.564C762.205 342.952 744.422 362.281 727.439 381.921C724.007 376.895 720.926 371.339 716.843 366.658C711.336 360.345 704.752 364.909 699.091 366.465C699.805 350.901 700.499 335.763 701.255 319.275C705.037 321.6 708.911 323.983 713.393 326.739C725.618 312.1 734.046 295.344 732.799 272.516C736.425 275.905 738.716 278.047 740.197 279.43C746.044 270.71 752.155 261.236 758.668 252.046C761.549 247.981 766.277 244.185 770.837 246.936C773.481 248.531 773.529 254.428 774.746 259.043Z" fill="#E1CAA2"/>
<path d="M724.485 976.532C721.359 977.183 718.233 977.834 716.863 978.12C719.272 979.909 725.292 982.719 724.998 984.462C724.001 990.368 718.07 989.232 713.585 989.12C707.41 988.967 705.947 986.64 707.378 979.912C699.349 980.917 691.384 981.915 683.003 983.263C682.589 983.614 682.63 983.591 682.63 983.591C673.15 984.101 663.67 984.61 652.305 985.22C656.288 986.674 658.819 987.216 660.901 988.493C662.307 989.355 663.901 991.25 663.902 992.685C663.903 994.112 662.325 996.205 660.91 996.855C654.889 999.62 648.482 999.584 642.856 996.266C636.984 992.802 640.363 989.652 644.172 986.09C636.247 986.652 628.322 987.213 620.929 987.737C622.327 990.113 625.07 992.745 624.598 994.525C624.094 996.429 620.622 998.649 618.336 998.777C610.817 999.199 603.22 999.06 595.714 998.416C593.413 998.218 591.311 995.702 588.7 993.97C596.363 984.797 606.201 989.043 616.097 987.241C608.977 986.367 603.05 986.417 597.681 984.711C594.016 983.547 591.129 979.931 587.894 977.411C590.859 974.514 593.345 970.396 596.899 969.005C602.4 966.852 608.598 965.904 614.558 965.607C631.239 964.774 647.959 964.738 664.643 963.947C669.879 963.698 675.328 962.735 680.136 960.77C682.746 959.703 684.213 955.839 686.195 953.237C683.726 951.398 681.497 948.608 678.739 947.91C672.029 946.213 664.977 945.876 658.255 944.212C654.659 943.321 649.985 941.638 648.432 938.847C646.115 934.683 647.132 929.206 652.78 927.457C661.138 924.869 669.663 921.586 678.239 921.181C698.1 920.242 718.042 920.567 737.931 921.106C741.335 921.198 746.582 924.277 747.455 927.075C748.353 929.956 745.655 934.771 743.244 937.67C740.097 941.452 735.686 944.182 731.819 947.365C734.841 950.938 737.889 954.489 740.855 958.109C741.256 958.598 741.24 959.428 741.088 960.978C738.348 964.575 736.151 967.529 733.468 969.944C730.722 972.416 727.499 974.358 724.485 976.532Z" fill="#715131"/>
<path d="M752.846 368.056C760.564 363.416 768.325 359.541 776.939 361.301C795.248 365.041 798.188 375.269 799.584 390.035C801.645 411.837 797.972 433.229 790.454 453.957C789.134 457.597 787.764 458.857 784.286 458.566C778.346 458.069 772.335 456.829 766.47 457.311C747.584 458.86 728.753 461.072 709.896 462.978C706.988 463.272 704.053 463.299 700.36 463.489C709.067 435.931 717.791 410.032 734.332 387.791C739.578 380.738 746.373 374.838 752.846 368.056ZM773.328 410.1C772.202 414.884 771.076 419.667 769.95 424.45C770.678 424.694 771.407 424.937 772.135 425.181C775.575 417.677 779.369 410.311 782.35 402.629C785.087 395.574 782.802 388.684 776.436 387.374C770.558 386.164 763.389 386.119 758.065 388.462C748.98 392.459 745.74 402.031 742.697 410.925C741.335 414.908 740.815 419.179 739.913 423.32C741.996 423.128 742.402 422.449 742.874 421.817C748.879 413.768 754.369 405.231 761.214 397.973C763.377 395.68 769.172 396.812 773.304 396.377C773.507 399.43 773.78 402.48 773.877 405.536C773.913 406.652 773.534 407.781 773.328 410.1Z" fill="#60D0E4"/>
<path d="M339.085 1005.98C338.075 997.945 342.99 994.37 349.698 993.004C365.795 989.724 381.89 986.237 398.146 983.988C422.372 980.638 445.09 972.612 466.794 962.07C486.285 952.603 506.351 953.556 526.732 955.248C533.384 955.801 540.056 957.004 546.5 958.731C548.84 959.359 550.539 962.379 552.53 964.308C550.608 966.055 548.929 968.875 546.724 969.375C532.745 972.545 518.732 975.739 504.574 977.903C483.094 981.186 461.45 983.397 439.959 986.616C434.897 987.374 430.165 990.339 425.281 992.289C425.422 993.351 425.563 994.414 425.704 995.476C429.095 996.177 432.457 997.127 435.882 997.523C442.076 998.24 448.478 997.949 454.452 999.444C457.324 1000.16 461.125 1003.85 461.342 1006.46C461.526 1008.67 457.493 1012.81 454.752 1013.39C445.746 1015.3 436.482 1016.92 427.313 1016.94C406.964 1016.99 386.613 1016.01 367.993 1015.5C366.933 1017.77 366.238 1021.59 364.831 1021.87C358.793 1023.09 352.547 1023.53 346.374 1023.56C345.364 1023.57 344.337 1020.11 343.28 1017.69C343.244 1017.13 343.222 1017.15 343.798 1017.16C349.041 1016.24 353.708 1015.31 358.1 1014.44C351.574 1011.52 345.303 1008.72 339.044 1005.94C339.056 1005.95 339.085 1005.98 339.085 1005.98Z" fill="#715131"/>
<path d="M385.639 538.509C380.92 543.797 378.639 538.515 377.473 536.426C370.403 523.768 363.054 511.15 357.487 497.813C354.003 489.469 353.172 479.938 351.704 470.85C349.759 458.812 361.169 443.93 372.706 441.638C374.951 441.192 376.942 439.464 379.4 438.138C379.742 438.416 380.86 440.058 382.258 440.348C397.368 443.477 406.855 453.943 414.124 466.186C422.827 480.844 430.179 496.304 437.787 510.789C419.531 520.473 402.801 529.348 385.639 538.509ZM377.168 467.293C368.137 476.667 370.499 493.204 382.143 501.129C381.274 497.27 379.773 493.544 379.77 489.816C379.766 485.504 381.081 481.191 381.824 476.879C385.251 479.609 389.263 481.857 391.987 485.166C398.096 492.586 403.565 500.532 409.295 508.264C408.22 496.639 404.137 486.496 397.821 477.085C393.034 469.953 387.028 466.05 377.168 467.293Z" fill="#60D0E4"/>
<path d="M383.707 820.156C387.781 808.728 394.096 799.501 403.494 791.913C412.382 813.932 421.082 835.547 429.835 857.14C433.052 865.073 436.707 872.848 439.488 880.926C440.296 883.272 439.644 887.053 438.166 889.095C430.756 899.337 419.834 903.713 407.774 905.348C394.003 907.214 381.148 898.348 377.5 882.874C372.504 861.679 374.847 840.76 383.707 820.156Z" fill="#E1CAA2"/>
<path d="M809.513 416.298C828.235 412.094 846.582 408.442 865.418 409.807C868.721 410.047 871.906 411.918 875.146 413.036C873.654 416.486 873.109 421.169 870.505 423.168C860.132 431.128 849.633 439.186 838.229 445.482C816.867 457.275 795.117 468.455 773.02 478.804C748.459 490.306 723.334 500.608 698.43 511.374C697.23 511.892 695.787 511.846 693.279 512.255C698.853 505.389 703.328 498.788 708.898 493.3C715.341 486.952 716.415 480.089 713.541 472.107C725.725 467.253 775.844 464.526 792.381 467.827C801.349 454.589 803.738 439.093 806.895 423.842C807.398 421.415 808.351 419.081 809.513 416.298Z" fill="#638B18"/>
<path d="M329.519 534.456C338.242 528.146 346.618 522.218 354.709 516.492C362.596 528.172 369.773 538.491 376.576 549.051C378.847 552.576 380.489 552.564 383.691 550.233C389.174 546.242 395.058 542.802 400.07 539.583C403.788 544.77 406.128 550.117 410.199 553.11C414.054 555.943 419.725 556.307 424.39 559.322C420.088 558.793 415.799 558.032 411.481 557.781C400.872 557.165 390.203 557.252 379.644 556.197C363.712 554.606 347.522 553.83 332.692 546.713C325.019 543.03 324.935 542.492 329.519 534.456Z" fill="#638B18"/>
<path d="M343.255 1017.12C337.166 1018.04 331.084 1019.15 324.954 1019.77C323.479 1019.92 321.841 1018.45 320.278 1017.73C321.138 1016.31 321.998 1014.89 322.949 1013.32C320.203 1012.96 317.262 1012.59 314.322 1012.21C313.881 1011.42 313.441 1010.62 313 1009.83C314.811 1008.92 316.621 1008.01 318.568 1007.03C316.898 1005.47 315.631 1004.28 313.757 1002.52C319.79 998.302 325.909 996.938 332.377 997.938C333.632 998.132 334.442 1001.2 335.458 1002.95C334.86 1003.4 334.262 1003.84 333.664 1004.29C335.169 1004.81 336.674 1005.33 338.633 1005.92C339.087 1005.98 339.058 1005.95 339.039 1006.39C338.678 1008.13 338.336 1009.43 337.992 1010.73C343.839 1012.47 343.839 1012.47 343.224 1017.15C343.224 1017.15 343.245 1017.13 343.255 1017.12Z" fill="#715131"/>
<path d="M387.577 1029.68C380.704 1029.45 373.974 1030.95 368.129 1023.85C372.469 1021.96 376.003 1019.39 379.765 1018.99C387.082 1018.23 394.535 1018.48 401.912 1018.78C403.577 1018.85 405.159 1020.89 406.779 1022.02C405.521 1023.44 404.512 1025.64 402.96 1026.14C398.153 1027.66 393.141 1028.54 387.577 1029.68Z" fill="#715131"/>
<path d="M423.095 1021.27C439.748 1018.28 438.669 1017.13 446.141 1022.22C443.989 1028.81 437.767 1029.71 432.511 1030.91C426.766 1032.22 420.67 1032.18 414.72 1032.26C413.376 1032.28 411.502 1030.64 410.852 1029.28C410.508 1028.57 411.98 1026.33 413.14 1025.67C416.119 1023.97 419.383 1022.76 423.095 1021.27Z" fill="#715131"/>
<path d="M724.953 976.498C727.499 974.358 730.722 972.416 733.468 969.944C736.151 967.529 738.347 964.574 741.118 961.484C740.796 965.106 740.114 969.101 739.34 973.632C740.498 973.925 743.962 974.206 746.705 975.759C747.985 976.484 747.87 979.673 748.387 981.745C743.486 982.206 738.531 983.251 733.712 982.812C732.015 982.658 730.648 978.873 728.491 975.852C728.405 975.869 726.913 976.167 724.953 976.498Z" fill="#715131"/>
<path d="M682.57 983.629C687.584 984.19 692.649 984.548 697.622 985.425C698.746 985.623 700.028 987.515 700.332 988.836C700.526 989.685 699.299 991.278 698.309 991.911C693.53 994.968 679.243 993.481 673.634 988.547C676.746 986.942 679.331 985.608 682.273 983.933C682.629 983.591 682.588 983.614 682.57 983.629Z" fill="#715131"/>
<path d="M636.545 701.764C656.108 702.532 675.786 702.841 693.035 714.113C702.922 720.574 705.196 731.25 700.791 741.833C694.529 756.879 681.846 762.096 667.005 762.835C653.296 763.517 639.504 763.47 625.788 762.856C608.798 762.095 594.429 768.846 580.141 776.652C572.312 780.929 564.392 785.356 556.002 788.218C544.116 792.272 529.027 785.063 521.786 773.177C516.37 764.286 518.992 750.409 527.651 741.248C537.771 730.541 550.688 724.652 564.789 720.118C567.416 722.691 569.045 725.555 571.504 726.872C588.042 735.727 604.602 733.718 620.909 726.055C631.101 721.265 638.24 714.304 636.545 701.764ZM633.031 726.658C629.965 728.995 627.148 731.799 623.789 733.585C611.53 740.105 598.075 741.248 584.611 740.381C579.261 740.036 572.733 738.296 569.146 734.755C563.468 729.151 559.11 729.764 553.362 733.45C548.247 736.731 542.383 738.977 537.661 742.708C530.747 748.17 526.536 755.516 527.635 764.804C528.607 773.015 534.814 777.053 541.657 778.868C551.165 781.39 560.392 780.059 568.984 774.091C588.062 760.837 608.656 752.326 632.711 754.452C642.862 755.348 653.177 754.958 663.384 754.462C669.186 754.18 675.319 753.449 680.595 751.235C688.926 747.74 694.064 742.902 693.946 731.31C693.857 722.66 687.976 719.715 682 717.42C668.914 712.395 655.241 710.072 643.049 711.441C639.464 717.02 636.601 721.475 633.031 726.658Z" fill="black"/>
<path d="M636.047 701.649C638.239 714.304 631.101 721.265 620.909 726.055C604.602 733.718 588.042 735.727 571.504 726.872C569.045 725.555 567.415 722.691 565.319 720.056C562.664 712.435 566.312 703.862 574.461 698.965C589.104 690.165 605.001 687.73 621.362 692.191C626.555 693.607 630.846 698.327 636.047 701.649Z" fill="#221F1F"/>
<path d="M627.957 771.358C631.923 771.895 635.251 772.432 639.063 773.047C639.606 778.21 640.575 783.358 640.576 788.506C640.578 794.394 637.381 798.94 631.71 800.529C625.479 802.274 620.936 799.163 618.839 793.268C616.528 786.769 614.79 780.067 612.646 772.93C617.912 772.366 622.616 771.862 627.957 771.358Z" fill="black"/>
<path d="M585.965 784.901C591.497 781.905 596.668 779.28 603.971 775.575C604.652 784.418 606.477 792.117 605.466 799.424C604.424 806.944 594.888 808.978 589.719 803.26C586.025 799.174 583.303 794.21 579.94 789.337C582.391 787.578 583.998 786.425 585.965 784.901Z" fill="black"/>
<path d="M773.336 409.502C773.534 407.781 773.913 406.652 773.877 405.536C773.78 402.48 773.507 399.43 773.304 396.377C769.172 396.812 763.377 395.68 761.214 397.973C754.369 405.231 748.879 413.768 742.874 421.817C742.402 422.449 741.996 423.128 739.913 423.32C740.815 419.179 741.335 414.908 742.697 410.925C745.74 402.031 748.98 392.459 758.065 388.462C763.389 386.119 770.558 386.164 776.436 387.374C782.802 388.684 785.087 395.574 782.35 402.629C779.369 410.311 775.575 417.677 772.135 425.181C771.407 424.937 770.678 424.694 769.95 424.45C771.076 419.667 772.202 414.884 773.336 409.502Z" fill="#010203"/>
<path d="M377.726 467.16C387.028 466.05 393.034 469.953 397.821 477.085C404.137 486.496 408.22 496.639 409.295 508.264C403.565 500.532 398.096 492.586 391.987 485.166C389.263 481.857 385.251 479.609 381.824 476.879C381.081 481.191 379.766 485.504 379.77 489.816C379.773 493.544 381.274 497.27 382.143 501.129C370.499 493.204 368.137 476.667 377.726 467.16Z" fill="#232222"/>
<path d="M463.727 699.339C456.843 680.854 466.061 666.322 483.917 666.629C492.891 666.784 501.406 673.12 503.735 681.377C506.694 691.865 503.383 701.085 494.613 706.774C486.991 711.718 476.119 711.145 469.306 705.298C467.38 703.645 465.757 701.64 463.727 699.339Z" fill="#221F1F"/>
<path d="M675.438 657.24C665.307 650.033 662.604 637.334 668.725 627.391C674.672 617.732 687.771 614.437 698.178 619.984C707.513 624.959 711.935 637.429 707.749 646.976C702.703 658.484 691.175 663.579 679.624 659.364C678.323 658.889 677.113 658.162 675.438 657.24Z" fill="#221F1F"/>
<path d="M633.385 726.293C636.601 721.474 639.464 717.02 643.049 711.441C655.241 710.072 668.914 712.395 682 717.42C687.976 719.715 693.857 722.66 693.946 731.31C694.064 742.902 688.926 747.74 680.595 751.235C675.319 753.449 669.186 754.18 663.384 754.462C653.177 754.958 642.862 755.348 632.711 754.452C608.656 752.326 588.062 760.837 568.984 774.091C560.392 780.059 551.165 781.39 541.657 778.868C534.814 777.053 528.607 773.015 527.635 764.804C526.536 755.516 530.747 748.17 537.661 742.708C542.383 738.977 548.247 736.731 553.362 733.45C559.11 729.764 563.468 729.151 569.146 734.755C572.733 738.296 579.261 740.036 584.611 740.381C598.075 741.248 611.53 740.105 623.789 733.585C627.148 731.799 629.965 728.994 633.385 726.293Z" fill="#E1CAA2"/>
<path d="M452.685 567.919C463.256 569.606 473.287 573.352 483.431 577.262C502.352 584.554 521.514 590.994 542.319 589.876C552.718 589.317 560.927 583.193 563.063 573.074C563.675 570.176 562.853 566.975 562.72 564.501L554.706 555.497C542.196 552.777 529.593 558.511 517.177 552.786C505.568 547.433 493.047 544.043 480.894 539.888C466.58 534.995 452.225 530.221 437.903 525.351C436.83 524.986 435.878 524.264 434.857 523.7L400.07 539.583C403.788 544.77 406.128 550.117 410.199 553.11C414.054 555.943 419.725 556.307 424.39 559.322L452.685 567.919Z" fill="black"/>
<path d="M589.882 562.2C606.027 578.48 627.818 573.636 642.744 561.58C654.108 552.401 663.645 540.978 674.887 531.625L693.279 512.255C698.853 505.389 703.328 498.788 708.898 493.3C715.341 486.952 716.415 480.089 713.541 472.107L689.248 464.214C681.233 473.615 674.732 481.847 667.594 489.483C654.767 503.205 641.698 516.71 628.406 529.981C625.271 533.111 620.849 534.951 616.558 537.635C610.941 536.275 605.616 532.953 600.668 533.443C592.69 534.233 587.47 539.975 584.783 547.933L589.882 562.2Z" fill="black"/>
<path d="M688 408C688 393.857 689.5 382 701 373C704.59 370.19 705.1 368.903 709.445 370.283C718 373 720 379.5 722 388C722.824 391.5 716.5 415 703.5 424C695.66 429.428 688 417 688 408Z" fill="#E1CAA2"/>
</svg>
