<svg width="817" height="760" viewBox="0 0 817 760" fill="none" xmlns="http://www.w3.org/2000/svg">
<path d="M470.109 526.749C471.411 526.202 473.016 525.972 473.972 525.062C510.922 489.88 527.614 446.843 521.186 396.165C512.829 330.282 465.375 280.847 400.112 268.159C394.92 267.15 389.623 266.681 383.866 265.891C384.815 250.293 385.752 234.916 386.687 219.552C453.217 221.733 534.586 268.397 561.565 358.536C588.34 447.99 549.997 541.839 466.987 587.444C389.238 630.157 291.105 615.252 229.314 548.067C167.064 480.383 159.693 378.832 211.241 304.631C224.021 313.437 236.806 322.246 249.184 330.775C243.999 341.575 237.897 351.656 234.141 362.546C213.91 421.209 224.399 474.227 267.336 519.049C302.539 555.796 346.833 569.165 397.142 562.009C423.796 558.218 447.298 547.04 468.123 530.106C469.129 529.288 469.909 528.193 470.477 526.979C470.161 526.731 470.109 526.749 470.109 526.749Z" fill="#646464"/>
<path d="M542.37 233.455C529.451 223.539 516.815 213.835 504.1 204.236C502.329 202.9 500.105 202.161 501.792 199.297C509.191 186.731 516.559 174.147 524.394 160.793C607.447 213.577 658.247 287.509 666.444 385.126C677.37 515.229 623.226 614.576 508.582 676.661C406.109 732.156 285.562 716.671 199.023 652.601C204.781 644.759 210.54 636.9 216.317 629.055C218.977 625.443 221.762 621.918 224.324 618.237C226.087 615.703 227.631 615.157 230.398 617.168C248.967 630.66 269.269 640.896 290.87 648.548C307.654 654.493 324.813 659.075 342.597 660.669C353.995 661.69 365.451 662.521 376.887 662.597C405.423 662.789 433.005 657.169 459.685 647.282C490.132 635.998 517.269 619.308 541.269 597.302C570.021 570.937 591.101 539.513 605.105 503.242C613.221 482.222 618.221 460.484 620.265 437.996C624.82 387.891 615.055 340.73 591.37 296.492C578.712 272.852 562.237 252.021 542.37 233.455Z" fill="#FDD0A2"/>
<path d="M470.175 526.704C465.465 529.947 460.791 533.285 456.017 536.473C426.307 556.309 393.74 564.381 358.112 560.936C298.63 555.185 245.39 511.461 230.605 449.14C211.836 370.027 260.015 292.044 337.176 272.702C347.714 270.06 358.64 268.968 370.351 266.996C370.351 283.693 370.351 299.208 370.351 315.026C338.309 316.934 311.85 330.345 292.571 356.772C277.594 377.301 271.627 400.591 274.414 425.671C280.16 477.365 324.281 515.944 375.41 514.686C427.206 513.412 469.859 472.699 473.141 421.943C476.474 370.385 439.533 320.085 378.873 315.05C379.475 299.729 380.078 284.37 380.741 267.501C391.348 269.323 401.691 270.041 411.381 272.939C469.13 290.21 506.015 328.296 517.608 387.412C528.023 440.521 511.585 486.504 472.144 523.927C471.422 524.612 470.735 525.333 470.073 526.393C470.114 526.749 470.166 526.731 470.175 526.704Z" fill="#E6560E"/>
<path d="M598.911 316.94C649.139 434.249 602.728 564.954 499.085 626.058C388.63 691.179 266.556 655.843 203.68 591.737C214.369 580.652 225.066 569.558 235.754 558.474C335.716 650.584 471.704 615.727 532.164 534.583C599.878 443.705 580.41 308.326 475.279 244.123C483.079 230.871 490.882 217.611 499.098 203.652C544.381 231.213 577.456 268.662 598.911 316.94Z" fill="#FDAE6C"/>
<path d="M248.4 684.393C274.35 696.506 301.064 704.93 329.092 708.626C343.541 710.532 358.171 712.585 372.664 712.244C390.837 711.818 409.071 709.771 427.07 707.046C456.728 702.556 484.632 692.16 511.175 678.398C531.302 667.962 549.972 655.236 567.162 640.324C589.561 620.894 608.867 598.868 624.682 573.791C627.781 568.876 630.737 563.87 634.109 558.331C647.836 565.847 661.451 573.301 675.698 581.101C628.593 662.94 561.167 719.256 470.851 745.217C362.78 776.281 262.287 757.319 169.125 692.931C178.816 679.788 188.013 667.314 196.585 655.688C214.118 665.408 231.089 674.815 248.4 684.393Z" fill="#FDD0A3"/>
<path d="M355.523 367.907C330.916 377.873 318.4 402.967 325.086 428.346C331.504 452.704 355.807 468.316 381.541 464.611C405.154 461.212 424.395 439.052 423.939 414.997C423.433 388.285 404.706 366.946 375.424 364.395C375.424 349.059 375.424 333.681 375.424 318.312C412.638 310.158 463.155 353.395 470.025 399.49C478.537 456.603 438.16 505.192 385.699 511.749C325.018 519.334 272.386 469.699 276.099 408.837C279.411 354.556 326.322 316.65 371.744 317.886C371.744 333.254 371.744 348.639 371.744 363.946C366.45 365.22 361.169 366.49 355.523 367.907Z" fill="#6CAED6"/>
<path d="M666.08 361.857C659.235 326.141 647.017 292.915 628.458 262.069C605.603 224.083 575.797 192.727 539.035 167.968C537.656 167.039 536.29 166.09 534.946 165.113C534.699 164.934 534.584 164.572 534.211 163.982C542.407 151.107 550.681 138.107 558.949 125.117C668.539 192.117 730.909 325.785 715.703 450.865C700.325 449.195 684.937 447.523 669.178 445.811C671.904 417.421 670.993 389.77 666.08 361.857Z" fill="#75C477"/>
<path d="M203.13 555.641C198.174 559.448 193.209 563.245 188.267 567.069C186.822 568.187 185.44 569.384 183.537 570.949C150.905 530.832 132.315 485.196 128.406 433.893C124.047 376.695 138.353 324.238 170.378 276.287C183.567 285.375 196.286 294.14 208.757 302.733C160.217 384.563 163.682 463.745 219.293 541.175C216.107 543.933 212.616 546.955 209.133 550.336C209.142 550.696 209.122 550.653 208.778 550.61C206.659 552.265 204.885 553.963 203.132 555.671C203.153 555.681 203.13 555.641 203.13 555.641Z" fill="#646464"/>
<path d="M809.146 332.691C813.228 353.486 815.409 374.053 816.334 395.385C800.557 396.071 785.236 396.737 769.637 397.416C768.803 389.137 768.464 381.017 767.092 373.076C763.483 352.186 760.316 331.158 755.33 310.584C748.451 282.203 737.159 255.335 723.495 229.508C711.245 206.354 696.832 184.624 680.179 164.411C678.013 161.783 677.7 160.141 680.43 157.885C691.3 148.902 702.075 139.804 713.486 130.244C762.674 189.654 794.587 256.81 809.146 332.691Z" fill="#BCBDDC"/>
<path d="M717.263 371.495C713.468 352.856 710.821 334.345 705.714 316.539C692.951 272.041 671.543 231.849 642.169 195.977C641.349 194.974 640.73 193.806 639.727 192.272C651.536 182.323 663.196 172.501 675.43 162.195C698.097 188.71 716.277 217.733 730.743 249.058C754.443 300.38 766.794 354.314 767.312 411.728C751.515 411.728 736.173 411.728 720.835 411.728C719.669 398.635 718.48 385.29 717.263 371.495Z" fill="#9F9BC8"/>
<path d="M146.077 225.668C149.97 221.644 153.915 217.668 157.748 213.587C200.371 168.206 252.36 139.327 313.023 126.102C326.568 123.15 340.479 121.87 354.866 119.724C355.81 136.235 356.687 151.576 357.561 166.853C345.016 168.848 332.977 170.215 321.185 172.737C281.749 181.172 246.159 198.063 215.507 224.258C202.543 235.336 191.3 248.45 179.517 260.868C176.963 263.561 175.532 264.267 172.323 261.725C162.538 253.976 152.423 246.643 142.456 239.124C141.287 238.242 140.234 237.207 139.016 236.147C141.516 232.722 143.846 229.53 146.158 226.015C146.139 225.691 146.077 225.668 146.077 225.668Z" fill="#FDAE6C"/>
<path d="M180.936 280.916C177.976 278.757 175.301 276.818 172.008 274.429C175.84 269.211 179.192 263.917 183.257 259.243C197.787 242.536 213.423 227.034 231.702 214.278C256.77 196.783 283.887 183.785 313.652 176.899C327.781 173.631 342.301 172.051 356.64 169.687C361.051 168.96 362.209 170.762 362.264 175.164C362.434 188.736 363.167 202.301 363.686 216.011C355.093 217.23 346.404 218.153 337.837 219.733C304.361 225.91 274.361 239.685 247.975 261.286C234.939 271.959 223.291 283.915 213.55 297.679C211.503 300.572 209.612 300.9 206.602 298.724C198.263 292.694 189.698 286.976 180.936 280.916Z" fill="#C6DBEF"/>
<path d="M188.343 158.487C182.767 150.812 177.407 143.423 171.672 135.517C225.753 96.912 285.548 75.6033 351.99 70.8052C352.654 80.2061 353.311 89.2675 353.926 98.3318C354.286 103.637 354.526 108.951 354.923 114.253C355.108 116.721 354.807 118.392 351.717 118.613C296.459 122.557 246.388 140.976 201.112 172.725C200.713 173.005 200.217 173.147 199.357 173.541C195.78 168.65 192.17 163.711 188.343 158.487Z" fill="#FDAF6C"/>
<path d="M274.747 303.311C267.635 310.986 260.762 318.409 254.03 325.959C252.507 327.667 251.484 329.451 248.847 327.62C236.978 319.379 225.056 311.214 212.633 302.664C228.183 280.021 247.586 262.024 270.537 247.807C299.191 230.059 330.481 220.674 364.816 218.693C365.357 234.331 365.887 249.658 366.438 265.594C331.592 268.392 300.908 280.019 274.747 303.311Z" fill="#9FCAE1"/>
<path d="M367.504 462.71C344.165 458.249 329.303 443.157 325.918 421.78C322.186 398.209 337.464 374.065 362.196 367.979C387.912 361.65 414.205 377.778 420.289 403.56C427.541 434.291 404.975 462.862 373.457 462.844C371.625 462.843 369.793 462.767 367.504 462.71Z" fill="#3282BD"/>
<path d="M618.955 106.888C639.223 122.96 657.502 140.564 674.078 160.481C662.127 170.545 650.319 180.487 638.121 190.759C633.974 186.142 630.012 181.519 625.828 177.107C607.429 157.707 587.206 140.442 564.741 125.917C560.937 123.458 560.91 121.702 563.252 118.171C570.784 106.816 577.959 95.2221 585.941 82.667C597.1 90.8476 607.889 98.7567 618.955 106.888Z" fill="#A2D99C"/>
<path d="M692.797 494.047C696.407 494.953 699.59 495.995 702.853 496.4C706.983 496.913 707.9 498.987 706.669 502.569C701.125 518.708 695.935 534.982 689.877 550.925C686.294 560.354 681.33 569.258 676.689 579.027C662.753 571.456 649.266 564.13 636.469 557.178C645.563 533.677 654.555 510.441 663.669 486.891C672.825 489.124 682.615 491.512 692.797 494.047Z" fill="#DADAEB"/>
<path d="M614.287 71.8252C618.952 65.1491 623.414 58.7683 628.165 51.9746C650.617 67.4363 670.735 84.9384 688.721 102.874C677.993 114.507 667.455 125.935 657.319 136.926C638.48 120.969 620.378 105.635 601.719 89.83C605.584 84.2941 609.834 78.2073 614.287 71.8252Z" fill="#766CB2"/>
<path d="M736.369 513.534C742.194 515.09 747.621 516.554 753.679 518.187C752.421 522.675 751.558 526.886 750.07 530.862C743.893 547.369 737.549 563.813 731.204 580.257C730.382 582.388 729.664 584.8 726.257 583.127C713.289 576.76 700.246 570.544 686.672 564.002C688.824 559.116 691.139 554.555 692.876 549.783C697.596 536.818 702.225 523.815 706.541 510.712C707.74 507.072 709.134 505.92 712.897 507.061C720.531 509.377 728.274 511.336 736.369 513.534Z" fill="#979797"/>
<path d="M723.335 414.565C737.106 414.382 750.396 414.25 763.683 413.985C766.541 413.928 768.042 414.61 767.839 417.855C767.136 429.122 766.606 440.4 765.955 451.67C765.871 453.125 765.461 454.56 765.128 456.418C749.566 454.74 734.286 453.093 718.477 451.389C718.755 446.621 719.054 442.07 719.278 437.515C719.596 431.048 719.725 424.568 720.258 418.12C720.361 416.873 721.949 415.749 723.335 414.565Z" fill="#75C477"/>
<path d="M183.182 640.661C178.314 636.379 173.742 632.292 168.57 627.671C179.551 616.291 190.324 605.126 201.334 593.715C209.236 600.4 216.903 606.886 225 613.736C215.85 626.09 206.622 638.548 196.968 651.583C192.208 647.799 187.842 644.327 183.182 640.661Z" fill="#FDAF6D"/>
<path d="M671.379 454.632C686.092 456.413 700.358 458.182 715.386 460.046C713.258 471.102 711.286 481.767 709.029 492.371C708.821 493.351 706.607 494.805 705.653 494.589C691.49 491.375 677.383 487.915 662.844 484.413C664.644 474.734 666.268 465.649 668.126 456.612C668.295 455.791 669.961 455.278 671.379 454.632Z" fill="#FDD0A3"/>
<path d="M146.121 225.661C144.038 225.041 141.538 225.002 139.967 223.774C130.144 216.098 120.525 208.16 110.849 200.297C109.579 199.265 108.368 198.162 107.07 197.042C110.405 192.643 113.57 188.467 116.433 183.992C116.13 183.693 116.143 183.74 116.143 183.74C117.848 182.559 119.695 181.536 121.227 180.161C123.814 177.841 126.201 175.299 128.297 173.222C139.291 184.222 150.271 195.209 161.216 206.161C156.262 212.133 150.902 218.595 145.806 225.363C146.07 225.668 146.133 225.692 146.121 225.661Z" fill="#786EB2"/>
<path d="M453.211 222.731C458.015 211.032 462.68 199.69 467.672 187.554C477.757 192.533 487.353 197.271 497.424 202.243C489.279 216.092 481.481 229.352 473.482 242.954C465.65 239.111 457.981 235.349 449.82 231.345C450.927 228.535 452 225.812 453.211 222.731Z" fill="#FD8E3E"/>
<path d="M663.972 145.835C661.902 143.446 660.081 141.309 658.875 139.894C669.623 128.598 680.229 117.451 691.443 105.666C696.934 111.604 702.1 116.874 706.895 122.464C712.056 128.481 711.879 128.582 705.602 133.868C695.845 142.084 686.126 150.344 676.07 158.857C672.029 154.502 668.125 150.295 663.972 145.835Z" fill="#A2D99C"/>
<path d="M183.867 155.944C188.553 162.401 193.018 168.576 197.638 174.966C191.074 180.236 184.757 185.307 178.014 190.72C167.74 179.033 157.469 167.351 146.812 155.23C154.537 149.061 162.001 143.1 169.898 136.794C174.708 143.394 179.177 149.528 183.867 155.944Z" fill="#33A456"/>
<path d="M388.379 196.021C389.06 187.131 389.722 178.709 390.447 169.499C399.045 170.57 407.341 171.604 416.605 172.759C413.749 188.457 410.98 203.674 408.146 219.255C401.073 218.378 394.404 217.55 387.352 216.675C387.701 209.689 388.031 203.089 388.379 196.021Z" fill="#FDAF6D"/>
<path d="M725.91 481.814C721.794 481.06 718.104 480.355 714.172 479.605C715.224 473.187 716.211 467.168 717.323 460.385C732.871 462.381 748.366 464.369 764.332 466.419C763.08 474.112 761.919 481.246 760.702 488.729C748.952 486.382 737.644 484.124 725.91 481.814Z" fill="#34A457"/>
<path d="M209.12 550.684C210.409 550.228 211.919 550.06 212.984 549.283C215.777 547.245 218.376 544.941 221.299 542.542C225.347 546.955 229.233 551.191 233.431 555.767C222.114 566.567 210.888 577.28 199.471 588.175C197.211 586.048 193.986 583.013 190.458 580.307C190.154 580.637 190.218 580.663 190.55 580.404C188.969 577.982 187.056 575.818 185.134 573.671C185.125 573.689 185.161 573.688 185.161 573.688C189.473 569.675 193.795 565.672 198.092 561.643C200.009 559.845 201.875 557.994 203.445 555.905C203.127 555.642 203.15 555.681 203.367 556.041C205.429 554.485 207.274 552.569 209.119 550.654C209.119 550.654 209.139 550.696 209.12 550.684Z" fill="#3383BE"/>
<path d="M456.992 183.763C459.5 184.714 461.63 185.572 464.353 186.669C462.755 190.767 461.316 194.569 459.794 198.337C456.006 207.715 452.08 217.039 448.432 226.471C447.384 229.183 446.425 230.023 443.362 229.027C430.694 224.906 430.562 225.002 434.062 212.358C437.061 201.521 440.305 190.751 443.605 179.387C448.227 180.909 452.42 182.29 456.992 183.763Z" fill="#9FCBE1"/>
<path d="M725.497 585.311C726.343 586.365 727.522 587.563 727.272 588.114C725.092 592.924 722.655 597.617 720.08 602.776C709.377 596.985 699.172 591.467 688.974 585.935C688.392 585.619 687.877 585.184 687.324 584.814C684.639 583.022 679.599 581.036 679.729 579.483C680.054 575.61 682.479 571.778 684.644 568.292C685.165 567.451 688.246 567.379 689.645 568.033C701.552 573.6 713.342 579.415 725.497 585.311Z" fill="#DBDBEB"/>
<path d="M190.176 580.609C192.87 584.038 195.543 587.493 198.461 591.266C187.383 601.773 176.242 612.339 164.502 623.473C161.517 620.352 157.612 616.271 153.562 612.038C155.357 610.122 156.695 608.693 158.086 606.954C158.139 606.643 158.067 606.671 158.416 606.675C161.554 603.991 164.343 601.304 167.133 598.65C167.134 598.684 167.067 598.671 167.416 598.675C170.554 595.992 173.342 593.304 176.132 590.65C176.134 590.684 176.067 590.669 176.417 590.681C179.554 588 182.341 585.308 185.131 582.649C185.134 582.683 185.067 582.667 185.424 582.683C187.26 582.02 188.739 581.341 190.218 580.662C190.218 580.662 190.155 580.636 190.176 580.609Z" fill="#6EAFD7"/>
<path d="M144.432 128.389C148.676 133.709 152.68 138.765 156.904 144.099C153.059 147.323 149.527 150.283 145.477 153.678C135.092 141.849 124.864 130.199 114.359 118.233C118.911 114.441 123.075 110.972 127.619 107.187C133.313 114.381 138.753 121.253 144.432 128.389Z" fill="#76C578"/>
<path d="M604.495 82.0615C599.273 89.3858 599.269 89.3909 592.104 84.6486C590.468 83.5655 588.864 82.4337 586.922 81.1031C595.427 67.765 603.757 54.7009 612.345 41.2314C617.264 44.4972 621.614 47.3855 626.41 50.5702C619.023 61.1809 611.86 71.4703 604.495 82.0615Z" fill="#C8E9C1"/>
<path d="M116.156 183.694C114.197 185.367 112.214 187.037 109.741 189.12C98.1278 179.231 86.4414 169.28 74.1172 158.786C77.9556 154.629 81.4768 150.768 85.0923 146.998C85.3518 146.728 86.3005 147.118 87.2595 147.385C87.5902 147.568 87.6004 147.66 87.8157 147.947C93.0812 152.894 98.1315 157.555 103.206 162.205C103.231 162.194 103.234 162.196 103.234 162.196C108.662 167.535 114.09 172.874 119.6 178.293C118.257 180.124 117.192 181.575 116.136 183.383C116.145 183.74 116.132 183.692 116.156 183.694Z" fill="#989898"/>
<path d="M420.541 194.092C421.948 187.534 423.222 181.379 424.711 174.191C429.871 175.519 434.788 176.648 439.578 178.173C440.259 178.39 440.895 180.693 440.593 181.76C436.901 194.836 428.141 223.691 428.141 223.691C424.44 223.073 419.051 221.665 415.094 220.633C416.919 211.657 418.665 203.076 420.541 194.092Z" fill="#6EAFD7"/>
<path d="M746.147 504.712C734.329 501.865 722.926 499.067 710.836 496.101C711.711 491.853 712.125 487.702 713.616 483.983C714.032 482.944 717.729 482.584 719.745 482.933C728.561 484.457 737.311 486.368 746.089 488.116C750.613 489.017 755.146 489.872 760.212 490.851C759.04 496.263 757.969 501.206 756.717 506.989C753.152 506.207 749.857 505.484 746.147 504.712Z" fill="#FDD1A3"/>
<path d="M480.504 156.02C482.436 151.401 484.198 147.126 486.326 141.964C491.513 144.268 496.371 146.425 501.746 148.813C499.599 153.349 497.737 157.356 495.813 161.332C491.482 170.282 487.062 179.189 482.809 188.175C481.645 190.636 480.426 191.162 477.804 190.065C468.328 186.103 468.259 186.193 472.079 176.633C474.787 169.859 477.58 163.12 480.504 156.02Z" fill="#6EAFD7"/>
<path d="M773.527 412.475C771.834 411.506 769.721 410.683 769.534 409.543C769.035 406.501 769.364 403.323 769.364 399.538C785.264 398.866 800.77 398.209 816.678 397.536C816.678 402.482 816.678 406.729 816.678 412.476C802.426 412.476 788.206 412.476 773.527 412.475Z" fill="#A09CC9"/>
<path d="M471.405 139.123C467.063 151.17 462.851 162.864 458.709 174.582C456.356 181.238 456.407 181.261 449.693 179.003C447.982 178.428 446.284 177.817 444.297 177.124C448.727 162.029 453.095 147.141 457.601 131.789C461.9 133.175 465.994 134.363 469.958 135.888C470.747 136.191 471.041 137.783 471.405 139.123Z" fill="#C7DCEF"/>
<path d="M404.756 148.258C404.118 153.28 403.523 157.866 403.14 162.469C402.641 168.485 402.16 168.907 396.315 167.95C394.54 167.66 392.726 167.606 390.359 167.392C391.361 151.981 392.351 136.742 393.403 120.563C398.276 121.009 402.89 121.432 407.76 121.877C406.771 130.824 405.832 139.326 404.756 148.258Z" fill="#FDD1A4"/>
<path d="M117.164 101.622C117.19 101.95 117.114 102.335 117.259 102.596C118.496 104.814 121.361 107.881 120.725 109.04C119.164 111.886 115.995 113.849 112.984 116.616C102.381 104.579 92.2299 93.0555 81.7969 81.2119C85.0048 78.4944 87.6601 75.9881 90.6126 73.9024C91.4832 73.2874 93.194 73.8618 94.8466 73.7955C95.1735 73.7 95.1783 73.6505 95.0385 73.9968C96.332 76.1229 97.7653 77.9027 99.1704 79.6865C99.1423 79.6904 99.1635 79.6377 99.1598 79.9894C102.17 83.788 105.184 87.235 108.17 90.6862C108.142 90.6904 108.164 90.638 108.158 90.99C111.168 94.7887 114.183 98.2354 117.17 101.678C117.142 101.675 117.164 101.622 117.164 101.622Z" fill="#A3DA9D"/>
<path d="M519.549 158.177C520.275 159.63 521.436 161.306 521 162.066C513.649 174.881 506.1 187.581 498.389 200.655C495.875 199.252 493.605 197.986 490.883 196.466C498.308 182.518 505.601 168.818 513.07 154.789C515.477 156.031 517.359 157.002 519.549 158.177Z" fill="#FD9042"/>
<path d="M87.6003 147.66C87.6003 147.66 87.59 147.568 87.6055 147.589C86.7981 142.637 90.8189 140.645 93.0455 138.272C104.07 149.324 115.013 160.293 126.258 171.565C125.117 172.452 122.971 174.118 120.811 175.795C115.673 171.505 109.88 166.669 103.66 162.014C103.234 162.196 103.23 162.194 103.512 161.885C99.1072 156.855 94.4442 152.111 89.6846 147.466C89.3611 147.15 88.3119 147.578 87.6003 147.66Z" fill="#7A71B4"/>
<path d="M139.308 164.618C149.682 175.806 159.796 186.762 170.392 198.24C168.036 200.208 166.145 201.788 164.609 203.07C153.784 192.14 142.871 181.123 131.297 169.436C133.439 168.041 136.244 166.214 139.308 164.618Z" fill="#6EAFD7"/>
<path d="M539.485 135.006C542.812 129.423 545.935 124.143 549.317 118.423C552.048 120.068 554.534 121.566 557.497 123.35C549.043 136.667 540.721 149.774 532.097 163.357C529.77 161.923 527.73 160.666 525.336 159.191C530.091 151.047 534.686 143.178 539.485 135.006Z" fill="#38A65A"/>
<path d="M473.792 164.369C471.003 171.152 468.381 177.588 465.77 183.995C458.502 183.136 458.113 182.387 460.55 175.737C464.314 165.469 467.964 155.158 471.602 144.845C474.563 136.45 474.524 136.437 483.09 141.182C480.064 148.751 477.011 156.386 473.792 164.369Z" fill="#A1CCE2"/>
<path d="M416.736 123.429C419.591 123.391 422.176 123.662 425.614 124.021C424.373 131.295 423.254 138.088 422.048 144.866C420.769 152.054 419.358 159.218 418.106 166.41C417.637 169.106 417.166 171.156 413.485 170.488C409.938 169.844 409.925 167.821 410.337 165.091C412.414 151.312 414.43 137.523 416.736 123.429Z" fill="#FDB171"/>
<path d="M165.339 135.439C164.197 137.293 163.038 139.157 161.378 140.283C160.798 140.677 158.569 139.584 157.797 138.611C148.953 127.46 140.245 116.202 131.422 104.871C131.672 104.502 131.862 104.028 132.208 103.741C138.091 98.8499 138.196 98.7795 142.681 104.761C150.237 114.837 157.651 125.02 165.339 135.439Z" fill="#DBDBEB"/>
<path d="M402.831 99.3817C402.161 105.935 401.544 112.03 400.899 118.398C398.705 118.398 396.494 118.398 393.633 118.398C394.617 102.576 395.579 87.0902 396.578 71.0347C399.503 71.2627 402.065 71.4623 405.325 71.7164C404.502 80.8879 403.692 89.9054 402.831 99.3817Z" fill="#38A65A"/>
<path d="M158.127 606.606C156.057 607.459 153.998 608.348 151.405 609.469C150.16 608.014 148.586 606.173 146.75 604.026C158.626 594.169 170.254 584.487 181.952 574.889C182.598 574.359 183.818 574.529 184.966 574.031C185.161 573.688 185.125 573.689 184.766 573.905C185.252 575.666 186.098 577.211 186.667 578.249C186.029 580.008 185.548 581.338 185.066 582.667C185.066 582.667 185.133 582.684 184.86 582.327C181.746 584.871 178.906 587.77 176.066 590.669C176.066 590.669 176.133 590.684 175.863 590.323C172.751 592.866 169.909 595.768 167.066 598.671C167.066 598.671 167.134 598.685 166.864 598.323C163.752 600.865 160.909 603.769 158.067 606.672C158.067 606.672 158.138 606.643 158.127 606.606Z" fill="#3886BF"/>
<path d="M110.923 78.9099C107.451 74.4703 104.215 70.2975 101.039 66.2016C106.149 60.2564 106.721 60.2548 110.988 65.9073C118.381 75.7012 125.774 85.495 133.142 95.3079C133.822 96.2139 134.32 97.2572 134.876 98.1931C130.237 103.115 129.974 103.119 126.228 98.3566C121.202 91.9657 116.182 85.5702 110.923 78.9099Z" fill="#A4DA9E"/>
<path d="M499.113 176.647C496.53 181.529 494.076 186.061 491.672 190.62C488.922 195.835 488.736 195.89 483.125 192.039C485.319 187.549 487.575 182.982 489.788 178.394C493.328 171.053 496.798 163.678 500.376 156.355C503.712 149.527 503.757 149.549 510.981 154.072C507.094 161.448 503.18 168.879 499.113 176.647Z" fill="#FDD2A5"/>
<path d="M68.4487 144.503C71.0536 147.043 73.6586 149.583 76.6136 152.465C75.2764 154.097 74.0768 155.561 72.5402 157.436C60.4858 147.211 48.7613 137.265 36.6016 126.951C38.4071 124.976 39.9267 123.313 41.7316 121.339C44.1595 123.375 46.4051 125.259 49.0146 127.368C49.3784 127.593 49.615 127.685 49.8272 127.978C52.7376 130.587 55.4357 132.904 58.2487 135.398C58.7871 135.94 59.2108 136.305 59.8574 136.956C62.4316 139.235 64.7828 141.228 67.2408 143.387C67.7147 143.869 68.0817 144.186 68.4487 144.503Z" fill="#FDB06F"/>
<path d="M709.566 500.032C710.725 499.358 711.831 498.629 712.712 498.839C727.046 502.264 741.35 505.808 756.02 509.412C755.507 511.553 755.059 513.424 754.459 515.93C751.408 515.159 748.604 514.484 745.819 513.741C734.644 510.759 723.496 507.673 712.289 504.821C709.648 504.149 708.411 503.171 709.566 500.032Z" fill="#686868"/>
<path d="M140.094 159.586C144.909 157.157 148.03 159.415 151.098 163.08C159.175 172.73 167.492 182.181 175.986 192.027C174.798 193.325 173.742 194.478 172.381 195.965C171.073 194.839 169.886 193.994 168.911 192.951C159.836 183.256 150.775 173.549 141.79 163.772C140.967 162.877 140.697 161.475 140.165 159.973C140.158 159.637 140.094 159.586 140.094 159.586Z" fill="#DBDBEB"/>
<path d="M405.183 94.7764C405.966 86.9448 406.741 79.5733 407.582 71.582C409.961 72.1441 411.933 72.6099 413.982 73.0941C412.297 87.6773 410.755 101.796 408.9 115.874C408.72 117.241 406.614 118.355 405.402 119.587C404.662 118.22 403.22 116.811 403.3 115.494C403.71 108.729 404.511 101.987 405.183 94.7764Z" fill="#FDD3A8"/>
<path d="M80.9306 167.909C90.2009 175.757 99.2045 183.37 108.208 190.982C108.241 191.571 108.274 192.161 108.308 192.75C106.54 193.136 104.028 194.475 103.117 193.764C91.5974 184.771 80.3082 175.482 68.6562 166.022C69.9601 164.239 70.9965 162.822 72.4507 160.833C75.4088 163.297 78.0364 165.485 80.9306 167.909Z" fill="#A29ECA"/>
<path d="M70.0039 95.9452C80.2185 106.653 90.1924 117.115 100.595 128.027C99.3924 129.385 98.4586 130.44 98.1028 130.841C86.1324 119.701 74.8451 109.196 63.0781 98.2443C65.8385 96.5275 66.1114 92.0183 70.0039 95.9452Z" fill="#FDB171"/>
<path d="M161.063 255.798C165.84 259.392 170.321 262.79 174.973 266.318C174.085 267.567 173.339 268.618 172.214 270.202C159.412 261.092 146.778 252.101 133.688 242.786C134.838 241.155 135.825 239.755 137.21 237.792C145.277 243.891 153.022 249.746 161.063 255.798Z" fill="#FD9245"/>
<path d="M58.4546 40.2471C67.8381 51.4456 77.0105 62.3554 86.5275 73.675C85.1866 74.9354 84.0805 75.9751 82.623 77.3451C72.2285 65.317 62.1885 53.699 52.1484 42.081C52.2007 41.5348 52.253 40.9886 52.3053 40.4425C54.2847 40.2811 56.2642 40.1197 58.4546 40.2471Z" fill="#FDD2A5"/>
<path d="M140.129 159.601C137.818 157.516 135.374 155.617 133.279 153.39C124.534 144.096 115.893 134.704 106.391 124.459C107.836 123.343 109.082 122.38 110.256 121.474C111.074 121.785 111.67 121.827 111.955 122.146C121.447 132.781 130.862 143.486 140.422 154.06C142.2 156.027 142.026 157.386 140.144 159.258C140.091 159.587 140.156 159.637 140.129 159.601Z" fill="#9A9A9A"/>
<path d="M112.15 140.061C117.8 146.119 123.45 152.178 129.467 158.487C129.834 158.737 130.148 159.056 130.148 159.056C130.616 161.526 136.008 163.272 131.501 166.515C120.378 155.52 109.384 144.653 98.1562 133.555C99.1831 132.396 100.244 131.199 101.87 129.365C105.07 132.787 108.084 136.011 111.464 139.486C111.83 139.737 112.15 140.061 112.15 140.061Z" fill="#FDB06F"/>
<path d="M510.987 146.62C509.863 147.504 508.739 148.388 506.546 150.114C506.218 148.298 505.377 146.705 505.839 145.728C512.147 132.401 518.637 119.158 525.023 106.015C529.709 106.247 529.499 108.235 527.827 111.469C521.898 122.936 516.178 134.511 510.722 146.364C511.066 146.683 510.987 146.62 510.987 146.62Z" fill="#3CA85D"/>
<path d="M668.602 450.694C669.567 449.566 670.678 448.054 671.628 448.149C685.568 449.546 699.492 451.109 713.398 452.817C714.373 452.936 715.171 454.497 716.052 455.388C715.038 456.155 713.966 457.645 713.019 457.57C707.77 457.154 702.552 456.352 697.322 455.693C688.984 454.642 680.639 453.641 672.312 452.506C671.057 452.335 669.884 451.556 668.602 450.694Z" fill="#CBEAC4"/>
<path d="M374.184 262.329C374.18 248.875 374.098 235.88 374.299 222.89C374.321 221.485 375.987 220.106 376.89 218.715C377.651 220.077 379.084 221.448 379.067 222.801C378.897 236.092 378.525 249.382 378.063 262.667C378.029 263.65 376.858 264.594 376.216 265.556C375.54 264.634 374.864 263.712 374.184 262.329Z" fill="#CDDFF1"/>
<path d="M409.446 125.242C410.554 123.905 411.597 122.985 412.639 122.064C413.143 123.293 414.218 124.6 414.062 125.739C412.088 140.166 409.936 154.569 407.818 169.061C404.145 169.534 404.345 167.646 404.651 165.206C406.3 152.033 407.817 138.843 409.446 125.242Z" fill="#7DC87F"/>
<path d="M118.622 215.233C125.651 220.776 132.401 226.096 139.151 231.417C139.03 231.971 138.909 232.525 138.788 233.079C137.415 232.907 135.688 233.208 134.721 232.489C123.14 223.87 111.673 215.1 99.8438 206.118C100.738 204.862 101.539 203.736 102.456 202.449C107.934 206.781 113.138 210.895 118.622 215.233Z" fill="#3CA85D"/>
<path d="M95.1908 73.6894C95.3028 72.0443 95.3916 70.4102 95.4804 68.776C96.044 68.7104 96.6076 68.6447 97.1713 68.5791C106.849 80.763 116.526 92.947 126.25 105.189C124.034 106.428 124.034 106.428 117.501 101.448C117.158 101.623 117.136 101.675 117.394 101.354C114.487 97.5674 111.322 94.1029 108.158 90.6383C108.158 90.6383 108.136 90.6907 108.394 90.3612C105.487 86.5672 102.322 83.1026 99.1575 79.638C99.1575 79.638 99.1363 79.6907 99.3955 79.3694C98.1605 77.2489 96.6664 75.4499 95.1723 73.6508C95.1723 73.6508 95.1675 73.7003 95.1908 73.6894Z" fill="#7DC87F"/>
<path d="M378.054 291.556C377.592 299.716 377.144 307.393 376.697 315.07C376.296 315.173 375.895 315.275 375.495 315.377C375.072 314.215 374.288 313.056 374.28 311.891C374.194 298.285 374.166 284.677 374.331 271.072C374.344 269.94 375.87 268.826 376.693 267.704C377.459 268.886 378.894 270.076 378.88 271.25C378.802 277.86 378.376 284.466 378.054 291.556Z" fill="#AED3E6"/>
<path d="M511.035 146.652C512.077 145.236 513.391 143.977 514.179 142.446C519.186 132.719 524.07 122.928 529.014 113.168C529.747 111.721 530.577 110.322 532.692 108.797C532.994 110.007 533.935 111.551 533.503 112.376C526.737 125.284 519.799 138.103 512.861 150.92C512.674 151.267 512.045 151.376 510.609 152.121C510.816 150.081 510.953 148.718 511.038 146.988C510.985 146.62 511.064 146.683 511.035 146.652Z" fill="#FDD4A9"/>
<path d="M78.0887 142.842C68.6528 134.188 59.4593 125.805 50.3867 117.294C49.3857 116.355 49.0757 114.68 48.4453 113.346C49.7915 113.803 51.4738 113.895 52.4319 114.776C62.0797 123.64 71.6157 132.626 81.1615 141.601C82.1796 142.558 83.0604 143.661 84.005 144.697C83.6561 145.169 83.3072 145.642 82.9583 146.114C81.4277 145.102 79.8971 144.089 78.0887 142.842Z" fill="#9F9F9F"/>
<path d="M370.196 230.654C370.196 242.606 370.196 254.071 370.196 265.536C369.691 265.557 369.186 265.578 368.681 265.599C368.053 250.127 367.425 234.655 366.797 219.183C367.222 218.88 367.648 218.578 368.073 218.275C368.769 219.25 369.967 220.178 370.065 221.211C370.347 224.173 370.184 227.179 370.196 230.654Z" fill="#E86625"/>
<path d="M49.2841 34.6246C50.1755 36.0807 51.0669 37.5368 51.9583 38.9929C51.4009 39.3985 50.8436 39.8041 50.2862 40.2097C40.181 28.3197 30.0699 16.4347 20.0416 4.48023C19.9218 4.33746 20.8693 3.29939 21.5514 2.35791C23.3679 4.44464 24.99 6.30799 26.9535 8.45939C27.2949 8.74744 27.5765 8.73681 27.6848 9.07719C29.5564 11.1968 31.3196 12.9761 33.1053 14.7194C33.1276 14.6835 33.0679 14.7453 33.0292 15.0936C34.6975 17.3796 36.4046 19.3173 38.0978 21.3999C38.0841 21.5447 38.2843 21.757 38.2843 21.757C38.2843 21.757 38.5748 21.7291 38.7059 22.0648C40.5919 24.3516 42.3468 26.3027 44.0806 28.4056C44.0594 28.5574 44.2732 28.7789 44.2732 28.7789C44.2732 28.7789 44.5784 28.7406 44.6702 29.0903C46.2157 31.0436 47.6694 32.6471 49.0911 34.3309C49.0591 34.4112 49.2841 34.6246 49.2841 34.6246Z" fill="#40AA61"/>
<path d="M35.506 124.3C32.6838 122.845 29.9215 121.402 27.5943 119.443C18.7019 111.954 9.92435 104.329 1.19086 96.6553C0.461548 96.0145 0.38163 94.6346 0 93.5981C0.993462 93.7504 2.28851 93.5516 2.93536 94.1072C13.3922 103.09 23.782 112.152 34.1286 121.262C34.9011 121.942 35.2304 123.125 35.506 124.3Z" fill="#FDD4A9"/>
<path d="M359.13 156.713C358.467 145.687 357.768 135.139 357.19 124.584C357.104 123.01 357.591 121.404 357.814 119.812C358.467 119.841 359.121 119.87 359.775 119.899C360.506 135.3 361.237 150.702 362.023 167.257C357.654 163.94 359.842 160.186 359.13 156.713Z" fill="#CDDFF1"/>
<path d="M49.6915 34.6189C49.2816 34.6244 49.0566 34.4111 49.1429 33.9076C47.6781 31.8496 46.127 30.295 44.5759 28.7405L44.2707 28.7787C44.2707 28.7787 44.0569 28.5573 44.1423 27.9942C42.3426 25.5305 40.4574 23.6297 38.5723 21.729L38.2818 21.7569C38.2818 21.7569 38.0815 21.5446 38.1545 20.995C36.5068 18.5454 34.7861 16.6452 33.0654 14.7451C33.0654 14.7451 33.1251 14.6834 33.1719 14.3436C31.3372 12.2481 29.4556 10.4924 27.574 8.73668C27.574 8.73668 27.2924 8.74731 27.2546 8.69051C26.2565 5.97827 25.2962 3.32284 24.3359 0.667408C24.5982 0.444939 24.8604 0.222469 25.1227 0C35.1155 11.8788 45.1084 23.7577 55.1013 35.6365C54.8712 35.8895 54.6411 36.1425 54.411 36.3954C52.9745 35.8014 51.5379 35.2074 49.6915 34.6189Z" fill="#FDD6AE"/>
<path d="M59.9963 149.859C63.6582 152.921 67.0469 155.758 70.4356 158.594C70.0066 159.093 69.5776 159.591 69.1485 160.089C57.2917 150.202 45.4349 140.314 33.5781 130.427C34.0896 129.809 34.6011 129.191 35.1125 128.573C43.3161 135.593 51.5196 142.613 59.9963 149.859Z" fill="#A8A5CE"/>
<path d="M414.319 201.982C416.247 192.307 418.102 183.057 419.958 173.807C420.735 173.969 421.512 174.13 422.289 174.292C419.152 189.578 416.014 204.865 412.877 220.151C412.348 220.066 411.818 219.981 411.289 219.895C412.275 214.066 413.261 208.237 414.319 201.982Z" fill="#C4C4C4"/>
<path d="M67.3732 41.4389C75.2074 51.0255 82.8034 60.3487 90.3994 69.672C89.9341 70.0509 89.4688 70.4299 89.0036 70.8088C79.281 59.118 69.5585 47.4271 59.8359 35.7363C60.3465 35.2886 60.857 34.8408 61.3675 34.3931C63.29 36.6539 65.2124 38.9148 67.3732 41.4389Z" fill="#ADDEA8"/>
<path d="M59.6358 136.671C59.2122 136.305 58.7885 135.94 58.306 135.007C56.3235 130.969 54.2898 127.641 49.6163 127.686C49.6163 127.686 49.3798 127.594 49.3468 127.553C47.5425 124.689 45.7712 121.864 44 119.04C44.2351 118.719 44.4701 118.399 44.7052 118.079C54.4485 127.049 64.1919 136.019 74.0088 145.366C74.0824 145.742 73.8931 145.909 73.8931 145.909C72.3695 145.438 70.8459 144.968 68.8862 144.5C68.083 144.186 67.716 143.87 67.2974 142.992C65.7072 139.193 63.8103 136.428 59.6358 136.671Z" fill="#AAD0E4"/>
<path d="M78.9805 189.865C72.9011 185.484 66.8216 181.103 60.7422 176.722C60.907 176.323 61.0718 175.924 61.2366 175.526C62.3504 175.607 63.4643 175.687 64.9068 175.716C65.2354 175.664 65.1783 175.632 65.1638 176.025C66.6631 177.169 68.1768 177.92 69.829 178.675C70.1785 178.768 70.2477 178.922 70.1339 179.539C71.4579 180.841 72.8234 181.741 74.1722 182.609C74.1554 182.576 74.2018 182.519 74.2018 182.519C75.4981 183.612 76.7943 184.705 78.6114 185.781C79.1322 185.765 79.1778 186.138 79.1204 186.545C79.2018 187.75 79.3405 188.546 79.3541 189.473C79.2289 189.603 78.9805 189.865 78.9805 189.865Z" fill="#FDD6AE"/>
<path d="M112.615 140.118C112.154 140.061 111.835 139.737 111.807 139.709C111.584 138.717 111.389 137.753 111.242 136.182C111.29 135.574 111.635 135.279 111.635 135.279C114.795 138.475 117.955 141.67 121.076 145.33C121.038 145.795 120.727 146.105 120.727 146.105C118.176 144.128 115.626 142.152 112.615 140.118Z" fill="#83BBDC"/>
<path d="M70.1747 179.139C70.247 178.922 70.1777 178.768 69.6198 178.385C67.9077 177.272 66.5426 176.452 65.1775 175.632C65.1775 175.632 65.2347 175.664 65.2596 175.643C64.5439 174.523 63.8032 173.423 63.0625 172.323C63.3148 172.068 63.5672 171.813 63.8195 171.558C67.8174 174.739 71.8207 177.912 75.7696 181.152C75.8408 181.211 75.2611 182.062 74.5931 182.532C74.2011 182.519 74.1547 182.576 74.1208 182.267C72.7829 181.018 71.4787 180.079 70.1747 179.139Z" fill="#65BA7F"/>
<path d="M430.202 128.429C429.118 134.11 428.053 139.42 426.988 144.731C426.612 144.659 426.236 144.586 425.859 144.513C427.042 138.364 428.224 132.214 429.406 126.065C429.773 126.13 430.139 126.195 430.506 126.26C430.412 126.86 430.317 127.46 430.202 128.429Z" fill="#FDDFBF"/>
<path d="M130.556 159.103C130.147 159.056 129.832 158.737 129.804 158.71C129.583 157.712 129.39 156.742 129.195 155.202C129.193 154.633 129.398 154.435 129.398 154.435C131.164 155.97 132.93 157.505 135.576 159.806C133.253 159.475 132.109 159.312 130.556 159.103Z" fill="#83BBDC"/>
<path d="M96.1409 199.64C96.0239 200.545 95.9069 201.45 95.6733 203.256C93.127 201.072 91.115 199.346 89.0941 197.185C89.085 196.751 89.2603 196.534 89.5848 196.578C90.3473 196.632 90.7854 196.643 91.1898 196.666C91.1561 196.679 91.1538 196.607 91.2775 196.936C92.997 198.072 94.5929 198.879 96.1634 199.688C96.1381 199.691 96.1409 199.64 96.1409 199.64Z" fill="#FDD6AE"/>
<path d="M74.175 145.655C75.9241 146.818 77.5823 148.069 79.2404 149.32C78.859 149.762 78.4775 150.205 78.096 150.647C76.7555 149.279 75.4149 147.911 73.9845 146.226C73.8947 145.909 74.084 145.742 74.175 145.655Z" fill="#AAD0E4"/>
<path d="M89.0048 196.861C87.0647 195.789 85.2108 194.607 83.2915 193.017C83.226 192.609 83.4825 192.347 83.8375 192.44C85.1942 192.572 86.1958 192.609 87.169 192.666C87.1405 192.686 87.186 192.633 87.1439 192.964C87.8233 194.374 88.5448 195.454 89.2663 196.534C89.2663 196.534 89.0909 196.751 89.0048 196.861Z" fill="#FDD6AE"/>
<path d="M85.7061 189.043C87.4512 190.358 89.1964 191.673 90.9138 193.472C90.7569 194.088 90.6277 194.221 90.2422 194.171C89.0528 193.536 88.1197 193.085 87.1866 192.633C87.1866 192.633 87.1411 192.686 87.1268 192.362C86.4055 191.314 85.6985 190.59 85.1797 189.669C85.4807 189.329 85.5934 189.186 85.7061 189.043Z" fill="#65BA7F"/>
<path d="M79.1786 186.138C79.1786 186.138 79.133 185.765 79.0407 185.737C78.2077 184.931 77.4672 184.153 76.7266 183.376C76.9222 183.094 77.1178 182.812 77.3134 182.531C78.8663 183.658 80.4191 184.786 81.941 186.419C81.7712 187.069 81.6323 187.213 81.2191 187.174C80.356 186.707 79.7673 186.422 79.1786 186.138Z" fill="#65BA7F"/>
<path d="M106.226 128.685C107.132 129.924 107.781 130.917 108.431 131.911C108.129 132.144 107.827 132.376 107.525 132.609C106.431 131.316 105.337 130.023 104.242 128.729C104.818 128.633 105.394 128.536 106.226 128.685Z" fill="#83BBDC"/>
<path d="M83.0921 192.741C81.7575 192.046 80.5503 191.219 79.1612 190.128C78.9794 189.865 79.2278 189.603 79.7085 189.563C81.1904 189.562 82.1914 189.602 83.161 189.659C83.1295 189.676 83.1838 189.627 83.1303 189.974C83.2099 190.996 83.343 191.671 83.4761 192.347C83.4761 192.347 83.2196 192.609 83.0921 192.741Z" fill="#FDD6AE"/>
<path d="M91.0736 193.756C92.2611 194.255 93.2549 194.954 94.281 196.067C94.3133 196.481 94.0201 196.827 93.6349 196.709C92.5512 196.596 91.8526 196.601 91.154 196.607C91.154 196.607 91.1563 196.679 91.4353 196.392C91.307 195.521 90.8996 194.937 90.4922 194.353C90.6214 194.22 90.7506 194.088 91.0736 193.756Z" fill="#65BA7F"/>
<path d="M94.4684 196.313C95.3156 197.325 96.0111 198.505 96.4255 199.662C96.1444 199.64 96.1416 199.691 96.0578 199.404C95.3238 198.354 94.6736 197.591 94.0234 196.828C94.0234 196.828 94.3166 196.482 94.4684 196.313Z" fill="#65BA7F"/>
<path d="M82.1169 186.709C83.3166 187.196 84.3083 187.9 85.4999 188.824C85.5872 189.186 85.4745 189.329 84.8702 189.591C83.9806 189.683 83.5826 189.655 83.1846 189.627C83.1846 189.627 83.1302 189.675 83.1677 189.357C82.6341 188.478 82.0632 187.918 81.4922 187.357C81.6311 187.213 81.77 187.069 82.1169 186.709Z" fill="#65BA7F"/>
<path d="M424.203 154.276C424.224 153.565 424.293 153.131 424.362 152.698C424.536 152.694 424.71 152.69 424.885 152.686C424.885 153.359 424.893 154.032 424.871 154.705C424.869 154.769 424.639 154.9 424.571 154.87C424.443 154.814 424.356 154.664 424.203 154.276Z" fill="#FDDFBF"/>
<path d="M426.077 148.166C426.059 148.881 425.994 149.317 425.929 149.753C425.75 149.758 425.571 149.763 425.392 149.768C425.392 149.092 425.383 148.417 425.407 147.742C425.409 147.675 425.641 147.539 425.709 147.568C425.838 147.624 425.925 147.776 426.077 148.166Z" fill="#FDDFBF"/>
<path d="M111.111 135.72C110.732 135.273 110.526 134.681 110.32 134.088C110.669 134.305 111.018 134.521 111.498 135.009C111.63 135.279 111.285 135.574 111.111 135.72Z" fill="#83BBDC"/>
<path d="M126.958 152.881C126.631 152.778 126.367 152.587 126.203 151.946C126.241 151.582 126.526 151.29 126.526 151.29C126.85 151.387 127.113 151.572 127.279 152.212C127.244 152.58 126.958 152.881 126.958 152.881Z" fill="#83BBDC"/>
<path d="M127.985 153.855C127.654 153.772 127.388 153.591 127.073 153.097C126.959 152.881 127.245 152.58 127.393 152.428C127.83 152.439 128.066 152.657 128.231 153.275C128.211 153.62 127.985 153.855 127.985 153.855Z" fill="#83BBDC"/>
<path d="M129.091 154.732C128.658 154.749 128.393 154.57 128.09 154.074C127.985 153.855 128.21 153.62 128.326 153.5C128.746 153.519 128.992 153.726 129.29 154.218C129.399 154.434 129.193 154.633 129.091 154.732Z" fill="#83BBDC"/>
<path d="M126.101 151.725C125.805 151.554 125.657 151.242 125.508 150.929C125.735 150.921 125.963 150.913 126.362 151.097C126.533 151.29 126.248 151.582 126.101 151.725Z" fill="#83BBDC"/>
<path d="M124.258 148.561C124.416 148.862 124.574 149.163 124.732 149.464C124.509 149.483 124.286 149.503 124.034 149.18C124.004 148.839 124.258 148.561 124.258 148.561Z" fill="#83BBDC"/>
<path d="M123.877 148.978C123.448 148.985 123.186 148.797 122.984 148.194C123.004 147.835 123.277 147.541 123.277 147.541C123.603 147.642 123.862 147.833 124.157 148.337C124.258 148.56 124.004 148.839 123.877 148.978Z" fill="#83BBDC"/>
<path d="M122.869 147.98C122.434 147.983 122.177 147.789 121.984 147.185C122.01 146.828 122.283 146.539 122.283 146.539C122.607 146.639 122.867 146.828 123.173 147.322C123.281 147.541 123.008 147.835 122.869 147.98Z" fill="#83BBDC"/>
<path d="M121.869 146.97C121.442 146.959 121.198 146.754 120.862 146.301C120.726 146.105 121.036 145.795 121.195 145.643C121.66 145.618 121.901 145.823 122.181 146.321C122.283 146.539 122.009 146.828 121.869 146.97Z" fill="#83BBDC"/>
<path d="M97.5003 203.296C97.4129 203.194 97.7144 203.135 97.7144 203.135C97.7144 203.135 97.5876 203.398 97.5003 203.296Z" fill="#FDD6AE"/>
<path d="M38.7031 22.0645C40.4572 23.6295 42.3423 25.5302 44.1632 27.8422C42.3441 26.3024 40.5891 24.3513 38.7031 22.0645Z" fill="#FEFEFE"/>
<path d="M33.0234 15.0933C34.7828 16.6451 36.5035 18.5452 38.165 20.85C36.3988 19.317 34.6918 17.3793 33.0234 15.0933Z" fill="#FEFEFE"/>
<path d="M27.6797 9.07715C29.453 10.4925 31.3346 12.2482 33.147 14.3796C31.3145 12.9761 29.5513 11.1968 27.6797 9.07715Z" fill="#FEFEFE"/>
<path d="M44.6719 29.0903C46.1312 30.2952 47.6823 31.8497 49.1791 33.8274C47.6711 32.6471 46.2174 31.0436 44.6719 29.0903Z" fill="#FEFEFE"/>
<path d="M70.1328 179.54C71.4784 180.079 72.7825 181.018 74.1373 182.3C72.8224 181.741 71.4568 180.841 70.1328 179.54Z" fill="#FEFEFE"/>
<path d="M65.1641 176.025C66.5436 176.452 67.9086 177.272 69.4822 178.381C68.177 177.92 66.6633 177.169 65.1641 176.025Z" fill="#FEFEFE"/>
</svg>
