<svg width="2123" height="1709" viewBox="0 0 2123 1709" fill="none" xmlns="http://www.w3.org/2000/svg">
<path fill-rule="evenodd" clip-rule="evenodd" d="M975.721 1131.67C966.06 1100.64 969.121 1067.04 984.23 1038.26C999.339 1009.48 1025.26 987.888 1056.29 978.225C1087.32 968.563 1120.91 971.624 1149.68 986.735C1178.46 1001.85 1200.05 1027.77 1209.71 1058.8C1219.37 1089.84 1216.31 1123.44 1201.2 1152.22C1186.09 1180.99 1160.17 1202.59 1129.14 1212.25C1098.11 1221.91 1064.52 1218.85 1035.75 1203.74C1006.97 1188.63 985.383 1162.7 975.721 1131.67Z" fill="#3182BD"/>
<path fill-rule="evenodd" clip-rule="evenodd" d="M858.728 1168.1C839.405 1106.04 845.527 1038.83 875.745 981.281C905.963 923.728 957.803 880.539 1019.86 861.213C1081.92 841.888 1149.11 848.01 1206.65 878.233C1264.2 908.456 1307.38 960.304 1326.7 1022.37C1346.03 1084.44 1339.9 1151.64 1309.69 1209.19C1279.47 1266.75 1227.63 1309.94 1165.57 1329.26C1103.51 1348.59 1036.32 1342.46 978.777 1312.24C921.233 1282.02 878.05 1230.17 858.728 1168.1ZM975.721 1131.67C985.383 1162.7 1006.97 1188.63 1035.75 1203.74C1064.52 1218.85 1098.11 1221.91 1129.14 1212.25C1160.17 1202.59 1186.09 1180.99 1201.2 1152.22C1216.31 1123.44 1219.37 1089.84 1209.71 1058.8C1200.05 1027.77 1178.46 1001.85 1149.68 986.735C1120.91 971.624 1087.32 968.563 1056.29 978.225C1025.26 987.888 999.339 1009.48 984.23 1038.26C969.121 1067.04 966.06 1100.64 975.721 1131.67Z" fill="#6BAED6"/>
<path fill-rule="evenodd" clip-rule="evenodd" d="M741.734 1204.54C727.382 1158.44 722.25 1109.96 726.63 1061.88C731.01 1013.8 744.816 967.049 767.26 924.303C789.704 881.557 820.346 843.651 857.437 812.749C894.528 781.847 937.342 758.555 983.434 744.201C1029.53 729.848 1077.99 724.715 1126.07 729.096C1174.14 733.476 1220.88 747.284 1263.62 769.732C1306.36 792.179 1344.26 822.826 1375.16 859.923C1406.06 897.02 1429.35 939.84 1443.7 985.938C1458.05 1032.04 1463.18 1080.51 1458.8 1128.59C1454.42 1176.68 1440.62 1223.42 1418.17 1266.17C1395.73 1308.92 1365.08 1346.82 1327.99 1377.72C1290.9 1408.63 1248.09 1431.92 1202 1446.27C1155.91 1460.63 1107.44 1465.76 1059.36 1461.38C1011.29 1457 964.547 1443.19 921.808 1420.74C879.068 1398.3 841.168 1367.65 810.271 1330.55C779.374 1293.45 756.085 1250.63 741.734 1204.54ZM858.728 1168.1C878.05 1230.17 921.233 1282.02 978.777 1312.24C1036.32 1342.46 1103.51 1348.59 1165.57 1329.26C1227.63 1309.94 1279.47 1266.75 1309.69 1209.19C1339.9 1151.64 1346.03 1084.44 1326.7 1022.37C1307.38 960.304 1264.2 908.456 1206.65 878.233C1149.11 848.01 1081.92 841.888 1019.86 861.213C957.803 880.539 905.963 923.728 875.745 981.281C845.527 1038.83 839.405 1106.04 858.728 1168.1Z" fill="#9ECAE1"/>
<path fill-rule="evenodd" clip-rule="evenodd" d="M1560.69 949.506C1583.29 1022.1 1588.7 1098.96 1576.48 1174.01C1564.27 1249.05 1534.76 1320.23 1490.3 1381.91C1445.85 1443.59 1387.65 1494.08 1320.33 1529.38C1253 1564.69 1178.38 1583.85 1102.37 1585.35C1026.36 1586.85 951.048 1570.64 882.382 1538.01C813.715 1505.39 753.578 1457.23 706.726 1397.35C659.873 1337.47 627.59 1267.51 612.427 1193.01C597.265 1118.5 599.64 1041.49 619.363 968.056L737.701 999.851C722.909 1054.92 721.128 1112.68 732.499 1168.56C743.871 1224.44 768.084 1276.91 803.223 1321.82C838.362 1366.73 883.465 1402.85 934.965 1427.32C986.465 1451.79 1042.95 1463.95 1099.96 1462.82C1156.96 1461.7 1212.93 1447.33 1263.42 1420.85C1313.92 1394.37 1357.56 1356.5 1390.91 1310.24C1424.25 1263.98 1446.38 1210.6 1455.54 1154.32C1464.7 1098.03 1460.65 1040.39 1443.7 985.938L1560.69 949.506Z" fill="#C6DBEF"/>
<path fill-rule="evenodd" clip-rule="evenodd" d="M1677.69 913.073C1705.01 1000.84 1712.24 1093.64 1698.84 1184.58C1685.44 1275.52 1651.75 1362.29 1600.27 1438.44C1548.79 1514.59 1480.84 1578.19 1401.45 1624.51C1322.06 1670.83 1233.27 1698.7 1141.65 1706.04C1050.03 1713.38 957.937 1700.02 872.186 1666.93C786.435 1633.84 709.226 1581.88 646.279 1514.89C583.333 1447.91 536.261 1367.62 508.552 1279.97C480.842 1192.32 473.206 1099.56 486.207 1008.56L607.509 1025.89C597.107 1098.7 603.217 1172.9 625.384 1243.02C647.552 1313.14 685.209 1377.38 735.567 1430.96C785.924 1484.55 847.691 1526.12 916.292 1552.59C984.893 1579.06 1058.57 1589.76 1131.86 1583.88C1205.16 1578.01 1276.19 1555.72 1339.7 1518.66C1403.21 1481.6 1457.58 1430.72 1498.76 1369.8C1539.94 1308.88 1566.89 1239.47 1577.61 1166.71C1588.33 1093.96 1582.55 1019.72 1560.69 949.506L1677.69 913.073Z" fill="#C7E9C0"/>
<path fill-rule="evenodd" clip-rule="evenodd" d="M486.207 1008.56C489.689 984.184 494.638 960.04 501.025 936.261L619.363 968.056C614.253 987.08 610.295 1006.39 607.509 1025.89L486.207 1008.56Z" fill="#E6550D"/>
<path fill-rule="evenodd" clip-rule="evenodd" d="M364.905 991.224C368.562 965.627 373.567 940.241 379.898 915.171L498.701 945.182C493.425 966.073 489.254 987.228 486.207 1008.56L364.905 991.224Z" fill="#FD8D3C"/>
<path fill-rule="evenodd" clip-rule="evenodd" d="M243.604 973.888C247.87 944.025 253.709 914.408 261.095 885.16L379.898 915.171C373.567 940.241 368.562 965.627 364.905 991.224L243.604 973.888Z" fill="#FDAE6B"/>
<path fill-rule="evenodd" clip-rule="evenodd" d="M122.302 956.552C126.058 930.26 130.881 904.13 136.759 878.229L256.254 905.355C251.111 928.018 246.89 950.882 243.604 973.888L122.302 956.552Z" fill="#FDD0A2"/>
<path fill-rule="evenodd" clip-rule="evenodd" d="M1 939.217C3.06188 924.785 5.40963 910.395 8.0419 896.056L128.561 918.188C126.221 930.933 124.135 943.724 122.302 956.552L1 939.217Z" fill="#FDD0A2"/>
<path fill-rule="evenodd" clip-rule="evenodd" d="M8.0419 896.056C9.76442 886.673 11.6086 877.313 13.5739 867.977L133.479 893.229C131.732 901.527 130.092 909.847 128.561 918.188L8.0419 896.056Z" fill="#31A354"/>
<path fill-rule="evenodd" clip-rule="evenodd" d="M13.5739 867.977C14.7601 862.343 15.9905 856.718 17.2647 851.103L136.759 878.229C135.627 883.22 134.533 888.22 133.479 893.229L13.5739 867.977Z" fill="#74C476"/>
<path fill-rule="evenodd" clip-rule="evenodd" d="M136.759 878.229C138.51 870.514 140.354 862.82 142.291 855.149L261.095 885.16C259.4 891.872 257.786 898.604 256.254 905.355L136.759 878.229Z" fill="#A1D99B"/>
<path fill-rule="evenodd" clip-rule="evenodd" d="M379.898 915.171C380.801 911.595 381.73 908.027 382.687 904.465L501.025 936.261C500.228 939.229 499.453 942.202 498.701 945.182L379.898 915.171Z" fill="#E6550D"/>
<path fill-rule="evenodd" clip-rule="evenodd" d="M619.363 968.056C636.986 902.447 668.05 841.218 710.587 788.253C753.123 735.289 806.202 691.745 866.456 660.384C926.71 629.024 992.823 610.531 1060.6 606.08C1128.38 601.629 1196.34 611.316 1260.18 634.528L1218.31 749.705C1170.44 732.297 1119.46 725.031 1068.63 728.369C1017.8 731.708 968.211 745.577 923.021 769.098C877.83 792.618 838.021 825.276 806.119 864.999C774.217 904.723 750.918 950.645 737.701 999.851L619.363 968.056Z" fill="#756BB1"/>
<path fill-rule="evenodd" clip-rule="evenodd" d="M501.025 936.261C539.435 793.26 628.318 669.007 751.238 586.478C874.157 503.949 1022.8 468.728 1169.67 487.328L1154.28 608.909C1036.78 594.03 917.869 622.207 819.533 688.23C721.198 754.253 650.091 853.656 619.363 968.056L501.025 936.261Z" fill="#C7E9C0"/>
<path fill-rule="evenodd" clip-rule="evenodd" d="M1169.67 487.328C1214.85 493.049 1259.25 503.789 1302.05 519.35L1260.18 634.528C1225.94 622.079 1190.42 613.486 1154.28 608.909L1169.67 487.328Z" fill="#9E9AC8"/>
<path fill-rule="evenodd" clip-rule="evenodd" d="M1185.07 365.746C1232.77 371.786 1279.76 382.492 1325.37 397.709L1286.59 513.964C1248.58 501.283 1209.42 492.361 1169.67 487.328L1185.07 365.746Z" fill="#FD8D3C"/>
<path fill-rule="evenodd" clip-rule="evenodd" d="M1200.46 244.164C1256.11 251.211 1310.93 263.701 1364.14 281.455L1325.37 397.709C1279.76 382.492 1232.77 371.786 1185.07 365.746L1200.46 244.164Z" fill="#FDAE6B"/>
<path fill-rule="evenodd" clip-rule="evenodd" d="M1215.85 122.582C1264.83 128.785 1313.28 138.681 1360.78 152.186L1327.27 270.067C1285.71 258.251 1243.32 249.592 1200.46 244.164L1215.85 122.582Z" fill="#FDD0A2"/>
<path fill-rule="evenodd" clip-rule="evenodd" d="M1231.24 1C1271.16 6.05504 1310.77 13.2914 1349.9 22.6765L1321.32 141.85C1286.54 133.508 1251.33 127.075 1215.85 122.582L1231.24 1Z" fill="#FDD0A2"/>
<path fill-rule="evenodd" clip-rule="evenodd" d="M1349.9 22.6765C1359.17 24.9013 1368.42 27.2464 1377.64 29.7112L1345.98 148.103C1337.79 145.912 1329.57 143.827 1321.32 141.85L1349.9 22.6765Z" fill="#31A354"/>
<path fill-rule="evenodd" clip-rule="evenodd" d="M1377.64 29.7112C1383.2 31.1988 1388.75 32.7299 1394.28 34.3045L1360.78 152.186C1355.85 150.786 1350.92 149.425 1345.98 148.103L1377.64 29.7112Z" fill="#74C476"/>
<path fill-rule="evenodd" clip-rule="evenodd" d="M1360.78 152.186C1374.92 156.207 1388.97 160.547 1402.92 165.2L1364.14 281.455C1351.94 277.383 1339.64 273.586 1327.27 270.067L1360.78 152.186Z" fill="#A1D99B"/>
<path fill-rule="evenodd" clip-rule="evenodd" d="M1325.37 397.709C1331.58 399.781 1337.76 401.936 1343.91 404.173L1302.05 519.35C1296.92 517.486 1291.77 515.691 1286.59 513.964L1325.37 397.709Z" fill="#9E9AC8"/>
<path fill-rule="evenodd" clip-rule="evenodd" d="M1260.18 634.528C1331.14 660.331 1395.19 702.183 1447.32 756.82C1499.44 811.456 1538.24 877.4 1560.69 949.506L1443.7 985.938C1426.86 931.859 1397.76 882.402 1358.67 841.424C1319.57 800.447 1271.54 769.057 1218.31 749.705L1260.18 634.528Z" fill="#BCBDDC"/>
<path fill-rule="evenodd" clip-rule="evenodd" d="M1302.05 519.35C1441.24 569.962 1557.39 669.292 1629.01 798.955L1521.75 858.212C1464.46 754.481 1371.54 675.017 1260.18 634.528L1302.05 519.35Z" fill="#C7E9C0"/>
<path fill-rule="evenodd" clip-rule="evenodd" d="M1629.01 798.955C1649.05 835.249 1665.36 873.484 1677.69 913.073L1560.69 949.506C1550.83 917.835 1537.78 887.247 1521.75 858.212L1629.01 798.955Z" fill="#DADAEB"/>
<path fill-rule="evenodd" clip-rule="evenodd" d="M1736.26 739.699C1757.42 778.003 1775.11 818.119 1789.14 859.57L1673.07 898.848C1661.38 864.306 1646.64 830.875 1629.01 798.955L1736.26 739.699Z" fill="#FD8D3C"/>
<path fill-rule="evenodd" clip-rule="evenodd" d="M1843.52 680.443C1868.2 725.131 1888.85 771.933 1905.21 820.292L1789.14 859.57C1775.11 818.119 1757.42 778.003 1736.26 739.699L1843.52 680.443Z" fill="#FDAE6B"/>
<path fill-rule="evenodd" clip-rule="evenodd" d="M1950.78 621.186C1972.51 660.525 1991.5 701.311 2007.64 743.256L1893.27 787.254C1879.15 750.552 1862.53 714.864 1843.52 680.443L1950.78 621.186Z" fill="#FDD0A2"/>
<path fill-rule="evenodd" clip-rule="evenodd" d="M2058.04 561.93C2075.08 592.784 2090.63 624.437 2104.64 656.78L1992.2 705.497C1979.75 676.748 1965.93 648.612 1950.78 621.186L2058.04 561.93Z" fill="#FDD0A2"/>
<path fill-rule="evenodd" clip-rule="evenodd" d="M2104.64 656.78C2108.43 665.534 2112.11 674.337 2115.67 683.186L2002.01 728.969C1998.84 721.103 1995.57 713.279 1992.2 705.497L2104.64 656.78Z" fill="#31A354"/>
<path fill-rule="evenodd" clip-rule="evenodd" d="M2115.67 683.186C2117.82 688.527 2119.93 693.885 2122 699.259L2007.64 743.256C2005.8 738.479 2003.92 733.717 2002.01 728.969L2115.67 683.186Z" fill="#74C476"/>
<path fill-rule="evenodd" clip-rule="evenodd" d="M2007.64 743.256C2012.44 755.748 2016.99 768.337 2021.28 781.014L1905.21 820.292C1901.45 809.199 1897.47 798.184 1893.27 787.254L2007.64 743.256Z" fill="#A1D99B"/>
<path fill-rule="evenodd" clip-rule="evenodd" d="M1789.14 859.57C1791.05 865.237 1792.9 870.927 1794.68 876.64L1677.69 913.073C1676.2 908.312 1674.66 903.571 1673.07 898.848L1789.14 859.57Z" fill="#DADAEB"/>
<path d="M1443.7 985.938C1429.35 939.84 1406.06 897.02 1375.16 859.923C1344.26 822.826 1306.36 792.179 1263.62 769.732C1220.88 747.284 1174.14 733.476 1126.07 729.096C1077.99 724.715 1029.53 729.848 983.434 744.201C937.342 758.555 894.528 781.847 857.437 812.749C820.346 843.651 789.704 881.557 767.26 924.303C744.816 967.049 731.01 1013.8 726.63 1061.88C722.25 1109.96 727.382 1158.44 741.734 1204.54C756.085 1250.63 779.374 1293.45 810.271 1330.55C841.168 1367.65 879.068 1398.3 921.808 1420.74C964.547 1443.19 1011.29 1457 1059.36 1461.38C1107.44 1465.76 1155.91 1460.63 1202 1446.27C1248.09 1431.92 1290.9 1408.63 1327.99 1377.72C1365.08 1346.82 1395.73 1308.92 1418.17 1266.17C1440.62 1223.42 1454.42 1176.68 1458.8 1128.59C1463.18 1080.51 1458.05 1032.04 1443.7 985.938ZM1443.7 985.938C1460.65 1040.39 1464.7 1098.03 1455.54 1154.32C1446.38 1210.6 1424.25 1263.98 1390.91 1310.24C1357.56 1356.5 1313.92 1394.37 1263.42 1420.85C1212.93 1447.33 1156.96 1461.7 1099.96 1462.82C1042.95 1463.95 986.465 1451.79 934.965 1427.32C883.465 1402.85 838.362 1366.73 803.223 1321.82C768.084 1276.91 743.871 1224.44 732.499 1168.56C721.128 1112.68 722.909 1054.92 737.701 999.851M1443.7 985.938L1560.69 949.506M1443.7 985.938C1426.86 931.859 1397.76 882.402 1358.67 841.424C1319.57 800.447 1271.54 769.057 1218.31 749.705M1560.69 949.506C1583.29 1022.1 1588.7 1098.96 1576.48 1174.01C1564.27 1249.05 1534.76 1320.23 1490.3 1381.91C1445.85 1443.59 1387.65 1494.08 1320.33 1529.38C1253 1564.69 1178.38 1583.85 1102.37 1585.35C1026.36 1586.85 951.048 1570.64 882.382 1538.01C813.715 1505.39 753.578 1457.23 706.726 1397.35C659.873 1337.47 627.59 1267.51 612.427 1193.01C597.265 1118.5 599.64 1041.49 619.363 968.056M1560.69 949.506C1582.55 1019.72 1588.33 1093.96 1577.61 1166.71C1566.89 1239.47 1539.94 1308.88 1498.76 1369.8C1457.58 1430.72 1403.21 1481.6 1339.7 1518.66C1276.19 1555.72 1205.16 1578.01 1131.86 1583.88C1058.57 1589.76 984.893 1579.06 916.292 1552.59C847.691 1526.12 785.924 1484.55 735.567 1430.96C685.209 1377.38 647.552 1313.14 625.384 1243.02C603.217 1172.9 597.107 1098.7 607.509 1025.89M1560.69 949.506L1677.69 913.073M1560.69 949.506C1538.24 877.4 1499.44 811.456 1447.32 756.82C1395.19 702.183 1331.14 660.331 1260.18 634.528M1560.69 949.506C1550.83 917.835 1537.78 887.247 1521.75 858.212M619.363 968.056L737.701 999.851M619.363 968.056L501.025 936.261M619.363 968.056C614.253 987.08 610.295 1006.39 607.509 1025.89M619.363 968.056C636.986 902.447 668.05 841.218 710.587 788.253C753.123 735.289 806.202 691.745 866.456 660.384C926.71 629.024 992.823 610.531 1060.6 606.08C1128.38 601.629 1196.34 611.316 1260.18 634.528M619.363 968.056C650.091 853.656 721.198 754.253 819.533 688.23C917.869 622.207 1036.78 594.03 1154.28 608.909M737.701 999.851C750.918 950.645 774.217 904.723 806.119 864.999C838.021 825.276 877.83 792.618 923.021 769.098C968.211 745.577 1017.8 731.708 1068.63 728.369C1119.46 725.031 1170.44 732.297 1218.31 749.705M1677.69 913.073C1705.01 1000.84 1712.24 1093.64 1698.84 1184.58C1685.44 1275.52 1651.75 1362.29 1600.27 1438.44C1548.79 1514.59 1480.84 1578.19 1401.45 1624.51C1322.06 1670.83 1233.27 1698.7 1141.65 1706.04C1050.03 1713.38 957.937 1700.02 872.186 1666.93C786.435 1633.84 709.226 1581.88 646.279 1514.89C583.333 1447.91 536.261 1367.62 508.552 1279.97C480.842 1192.32 473.206 1099.56 486.207 1008.56M1677.69 913.073C1665.36 873.484 1649.05 835.249 1629.01 798.955M1677.69 913.073L1794.68 876.64C1792.9 870.927 1791.05 865.237 1789.14 859.57M1677.69 913.073C1676.2 908.312 1674.66 903.571 1673.07 898.848M486.207 1008.56L607.509 1025.89M486.207 1008.56C489.689 984.184 494.638 960.04 501.025 936.261M486.207 1008.56C489.254 987.228 493.425 966.073 498.701 945.182M486.207 1008.56L364.905 991.224M501.025 936.261L382.687 904.465C381.73 908.027 380.801 911.595 379.898 915.171M501.025 936.261C500.228 939.229 499.453 942.202 498.701 945.182M501.025 936.261C539.435 793.26 628.318 669.007 751.238 586.478C874.157 503.949 1022.8 468.728 1169.67 487.328M364.905 991.224C368.562 965.627 373.567 940.241 379.898 915.171M364.905 991.224L243.604 973.888M379.898 915.171L498.701 945.182M379.898 915.171L261.095 885.16M243.604 973.888C247.87 944.025 253.709 914.408 261.095 885.16M243.604 973.888C246.89 950.882 251.111 928.018 256.254 905.355M243.604 973.888L122.302 956.552M261.095 885.16L142.291 855.149C140.354 862.82 138.51 870.514 136.759 878.229M261.095 885.16C259.4 891.872 257.786 898.604 256.254 905.355M122.302 956.552C126.058 930.26 130.881 904.13 136.759 878.229M122.302 956.552C124.135 943.724 126.221 930.933 128.561 918.188M122.302 956.552L1 939.217C3.06188 924.785 5.40963 910.395 8.0419 896.056M136.759 878.229L256.254 905.355M136.759 878.229L17.2647 851.103C15.9905 856.718 14.7601 862.343 13.5739 867.977M136.759 878.229C135.627 883.22 134.533 888.22 133.479 893.229M8.0419 896.056L128.561 918.188M8.0419 896.056C9.76442 886.673 11.6086 877.313 13.5739 867.977M128.561 918.188C130.092 909.847 131.732 901.527 133.479 893.229M13.5739 867.977L133.479 893.229M1260.18 634.528L1218.31 749.705M1260.18 634.528L1302.05 519.35M1260.18 634.528C1225.94 622.079 1190.42 613.486 1154.28 608.909M1260.18 634.528C1371.54 675.017 1464.46 754.481 1521.75 858.212M1169.67 487.328L1154.28 608.909M1169.67 487.328C1214.85 493.049 1259.25 503.789 1302.05 519.35M1169.67 487.328C1209.42 492.361 1248.58 501.283 1286.59 513.964M1169.67 487.328L1185.07 365.746M1302.05 519.35L1343.91 404.173C1337.76 401.936 1331.58 399.781 1325.37 397.709M1302.05 519.35C1296.92 517.486 1291.77 515.691 1286.59 513.964M1302.05 519.35C1441.24 569.962 1557.39 669.292 1629.01 798.955M1185.07 365.746C1232.77 371.786 1279.76 382.492 1325.37 397.709M1185.07 365.746L1200.46 244.164M1325.37 397.709L1286.59 513.964M1325.37 397.709L1364.14 281.455M1200.46 244.164C1256.11 251.211 1310.93 263.701 1364.14 281.455M1200.46 244.164C1243.32 249.592 1285.71 258.251 1327.27 270.067M1200.46 244.164L1215.85 122.582M1364.14 281.455L1402.92 165.2C1388.97 160.547 1374.92 156.207 1360.78 152.186M1364.14 281.455C1351.94 277.383 1339.64 273.586 1327.27 270.067M1215.85 122.582C1264.83 128.785 1313.28 138.681 1360.78 152.186M1215.85 122.582C1251.33 127.075 1286.54 133.508 1321.32 141.85M1215.85 122.582L1231.24 1C1271.16 6.05504 1310.77 13.2914 1349.9 22.6765M1360.78 152.186L1327.27 270.067M1360.78 152.186L1394.28 34.3045C1388.75 32.7299 1383.2 31.1988 1377.64 29.7112M1360.78 152.186C1355.85 150.786 1350.92 149.425 1345.98 148.103M1349.9 22.6765L1321.32 141.85M1349.9 22.6765C1359.17 24.9013 1368.42 27.2464 1377.64 29.7112M1321.32 141.85C1329.57 143.827 1337.79 145.912 1345.98 148.103M1377.64 29.7112L1345.98 148.103M1629.01 798.955L1521.75 858.212M1629.01 798.955C1646.64 830.875 1661.38 864.306 1673.07 898.848M1629.01 798.955L1736.26 739.699M1736.26 739.699C1757.42 778.003 1775.11 818.119 1789.14 859.57M1736.26 739.699L1843.52 680.443M1789.14 859.57L1673.07 898.848M1789.14 859.57L1905.21 820.292M1843.52 680.443C1868.2 725.131 1888.85 771.933 1905.21 820.292M1843.52 680.443C1862.53 714.864 1879.15 750.552 1893.27 787.254M1843.52 680.443L1950.78 621.186M1905.21 820.292L2021.28 781.014C2016.99 768.337 2012.44 755.748 2007.64 743.256M1905.21 820.292C1901.45 809.199 1897.47 798.184 1893.27 787.254M1950.78 621.186C1972.51 660.525 1991.5 701.311 2007.64 743.256M1950.78 621.186C1965.93 648.612 1979.75 676.748 1992.2 705.497M1950.78 621.186L2058.04 561.93C2075.08 592.784 2090.63 624.437 2104.64 656.78M2007.64 743.256L1893.27 787.254M2007.64 743.256L2122 699.259C2119.93 693.885 2117.82 688.527 2115.67 683.186M2007.64 743.256C2005.8 738.479 2003.92 733.717 2002.01 728.969M2104.64 656.78L1992.2 705.497M2104.64 656.78C2108.43 665.534 2112.11 674.337 2115.67 683.186M1992.2 705.497C1995.57 713.279 1998.84 721.103 2002.01 728.969M2115.67 683.186L2002.01 728.969M975.721 1131.67C966.06 1100.64 969.121 1067.04 984.23 1038.26C999.339 1009.48 1025.26 987.888 1056.29 978.225C1087.32 968.563 1120.91 971.624 1149.68 986.735C1178.46 1001.85 1200.05 1027.77 1209.71 1058.8C1219.37 1089.84 1216.31 1123.44 1201.2 1152.22C1186.09 1180.99 1160.17 1202.59 1129.14 1212.25C1098.11 1221.91 1064.52 1218.85 1035.75 1203.74C1006.97 1188.63 985.383 1162.7 975.721 1131.67ZM858.728 1168.1C839.405 1106.04 845.527 1038.83 875.745 981.281C905.963 923.728 957.803 880.539 1019.86 861.213C1081.92 841.888 1149.11 848.01 1206.65 878.233C1264.2 908.456 1307.38 960.304 1326.7 1022.37C1346.03 1084.44 1339.9 1151.64 1309.69 1209.19C1279.47 1266.75 1227.63 1309.94 1165.57 1329.26C1103.51 1348.59 1036.32 1342.46 978.777 1312.24C921.233 1282.02 878.05 1230.17 858.728 1168.1Z" stroke="#1C1C1C"/>
</svg>
