<svg width="1299" height="1278" viewBox="0 0 1299 1278" fill="none" xmlns="http://www.w3.org/2000/svg">
<path d="M336.238 536.782L345.867 558.54L355.981 554.064L368.069 548.715V522.696L336.238 536.782Z" fill="#75D573"/>
<path d="M368.069 548.715L599.889 446.128L780.063 555.436C791.76 552.205 803.992 550.262 816.597 549.77L601.718 419.407L601.615 419.345L600.859 419.679L368.069 522.696V548.715Z" fill="#75D573"/>
<path d="M896.57 567.444L983.479 527.802L993.007 523.456L983.479 501.653L865.687 555.383C876.478 558.349 886.815 562.412 896.57 567.444Z" fill="#75D573"/>
<path d="M368.069 378H331V888.104H896.175L871.726 863.655C856.349 868.543 839.968 871.181 822.972 871.181C794.675 871.181 768.086 863.87 744.989 851.035H368.069V548.715L355.981 554.064L345.867 558.54L336.238 536.782L368.069 522.696V378Z" fill="#75D573"/>
<path d="M599.889 446.128L368.069 548.715V851.035H744.989C695.615 823.595 662.205 770.906 662.205 710.414C662.205 636.484 712.106 574.21 780.063 555.436L599.889 446.128Z" fill="#75D573" fill-opacity="0.3"/>
<path d="M983.479 527.802L896.57 567.444C948.211 594.082 983.562 647.877 983.739 709.946L983.479 527.802Z" fill="#75D573" fill-opacity="0.3"/>
<path fill-rule="evenodd" clip-rule="evenodd" d="M1020.68 946.125C1038.11 946.125 1052.24 932.012 1052.24 914.604C1052.24 907.579 1049.94 901.09 1046.05 895.85C1045.37 894.931 1044.63 894.051 1043.86 893.213C1043.6 892.934 1043.34 892.659 1043.07 892.389L1043.01 892.33L1042.92 892.241L927.39 776.836C940.09 757.362 947.474 734.088 947.474 709.087C947.474 640.613 892.093 585.104 823.777 585.104C755.461 585.104 700.08 640.613 700.08 709.087C700.08 777.56 755.461 833.07 823.777 833.07C844.26 833.07 863.581 828.079 880.594 819.246L998.483 937.007C1004.18 942.644 1012.03 946.125 1020.68 946.125ZM823.777 770.027C857.238 770.027 884.363 742.743 884.363 709.087C884.363 675.43 857.238 648.146 823.777 648.146C790.316 648.146 763.191 675.43 763.191 709.087C763.191 742.743 790.316 770.027 823.777 770.027Z" fill="#75D573"/>
</svg>
