<svg width="1278" height="1278" viewBox="0 0 1278 1278" fill="none" xmlns="http://www.w3.org/2000/svg">
<path d="M758.062 636.077L808.583 567.114L758.062 498.391" stroke="#75D573" stroke-width="60" stroke-linecap="round"/>
<path d="M617.828 685.481L665.704 449.497" stroke="#75D573" stroke-width="60" stroke-linecap="round"/>
<path d="M527.34 496.523L476.578 565.96L527.34 634.888" stroke="#75D573" stroke-width="60" stroke-linecap="round"/>
<path d="M284 784.281V349M284 784.281C284 800.85 297.431 814.281 314 814.281M284 784.281V784.281C284 800.85 297.431 814.281 314 814.281V814.281M284 349C284 332.431 297.431 319 314 319M284 349V349C284 332.431 297.431 319 314 319V319M314 319H963.979M963.979 319C980.547 319 993.979 332.431 993.979 349M963.979 319V319C980.547 319 993.979 332.431 993.979 349V349M993.979 349V784.281M993.979 784.281C993.979 800.85 980.547 814.281 963.979 814.281M993.979 784.281V784.281C993.979 800.85 980.547 814.281 963.979 814.281V814.281M963.979 814.281H314" stroke="#75D573" stroke-width="60" stroke-linecap="round" stroke-linejoin="round"/>
<path d="M604.341 832.457V959.685H518.008H640.692M761.105 959.685H676.475M676.475 959.685V832.457M676.475 959.685H640.692M640.692 832.457V959.685" stroke="#75D573" stroke-width="60" stroke-linecap="round" stroke-linejoin="round"/>
</svg>
