<svg width="6641" height="4159" viewBox="0 0 6641 4159" fill="none" xmlns="http://www.w3.org/2000/svg">
<path d="M322 2V3800.5L6637.5 2H322Z" fill="#AE5C5C"/>
<path d="M6637.5 2L322 3800.5L6637.5 2808.5V2Z" fill="#B78E56"/>
<path d="M6637.5 2808.5L322 3800.5L6637.5 3474V2808.5Z" fill="#B5BB5A"/>
<path d="M6637.5 3474L322 3800.5L6637.5 3720.5V3474Z" fill="#94BE62"/>
<path d="M6637.5 3720.5L322 3800.5H6637.5V3720.5Z" fill="#629C4D"/>
<path d="M322 3808C3374.34 2876 4615.66 2218.5 6636 1287" stroke="white" stroke-width="15"/>
<path d="M2018 2C1907.65 625.5 1408.83 3278.5 322 3801" stroke="white" stroke-width="15"/>
<path d="M322 3801C532.872 3765.49 589 2899.26 589 2" stroke="white" stroke-width="15"/>
<path d="M322 3799C752.198 3667.31 892.192 1942.81 930 2" stroke="white" stroke-width="15"/>
<path d="M322 3801C541.057 3673.64 3409.62 3632.19 6638 3621" stroke="white" stroke-width="15"/>
<path d="M322 3801L6640 3106" stroke="white" stroke-width="15"/>
<path d="M631.859 128.988C631.859 115.316 635.219 104.613 641.938 96.8789C648.695 89.1055 658.422 85.2188 671.117 85.2188C683.812 85.2188 693.52 89.1055 700.238 96.8789C706.996 104.613 710.375 115.316 710.375 128.988C710.375 142.66 706.996 153.383 700.238 161.156C693.52 168.891 683.812 172.758 671.117 172.758C658.422 172.758 648.695 168.891 641.938 161.156C635.219 153.383 631.859 142.66 631.859 128.988ZM643.871 128.988C643.871 139.926 646.117 148.441 650.609 154.535C655.102 160.59 661.938 163.617 671.117 163.617C680.297 163.617 687.133 160.59 691.625 154.535C696.117 148.441 698.363 139.926 698.363 128.988C698.363 118.051 696.117 109.555 691.625 103.5C687.133 97.4062 680.297 94.3594 671.117 94.3594C661.938 94.3594 655.102 97.4062 650.609 103.5C646.117 109.555 643.871 118.051 643.871 128.988ZM723.031 139.125C723.031 127.094 725.062 116.547 729.125 107.484C733.188 98.4219 738.324 90.4336 744.535 83.5195C746.02 81.8398 747.348 81.4492 748.52 82.3477L750.57 83.9297C751.781 84.8672 751.742 86.0195 750.453 87.3867C746.938 91.1367 743.402 97.4648 739.848 106.371C736.293 115.238 734.516 126.156 734.516 139.125C734.516 152.094 736.293 163.012 739.848 171.879C743.402 180.785 746.938 187.113 750.453 190.863C751.742 192.23 751.781 193.383 750.57 194.32L748.52 195.902C747.348 196.801 746.02 196.41 744.535 194.73C738.324 187.816 733.188 179.828 729.125 170.766C725.062 161.703 723.031 151.156 723.031 139.125ZM765.98 171C764.223 171 763.344 170.121 763.344 168.363V112.113C763.344 110.355 764.223 109.477 765.98 109.477H770.902C772.66 109.477 773.539 110.355 773.539 112.113V116.801H773.773C776.312 113.988 779.047 111.898 781.977 110.531C784.906 109.164 788.559 108.48 792.934 108.48C800.043 108.48 805.141 110.492 808.227 114.516C811.352 118.5 812.914 123.969 812.914 130.922V168.363C812.914 170.121 812.035 171 810.277 171H805.238C803.48 171 802.602 170.121 802.602 168.363V133.734C802.602 126.078 801.332 121.234 798.793 119.203C796.254 117.133 793.031 116.098 789.125 116.098C784.047 116.098 780.199 117.621 777.582 120.668C774.965 123.676 773.656 128.852 773.656 136.195V168.363C773.656 170.121 772.777 171 771.02 171H765.98ZM832.719 90.1992C832.719 88.0508 833.695 86.9766 835.648 86.9766H841.742C843.695 86.9766 844.672 88.0508 844.672 90.1992L843.441 145.512C843.441 147.27 842.562 148.148 840.805 148.148H836.586C834.828 148.148 833.949 147.27 833.949 145.512L832.719 90.1992ZM835.414 171C833.656 171 832.777 170.121 832.777 168.363V161.215C832.777 159.457 833.656 158.578 835.414 158.578H841.977C843.734 158.578 844.613 159.457 844.613 161.215V168.363C844.613 170.121 843.734 171 841.977 171H835.414ZM862.543 194.32C861.332 193.383 861.371 192.23 862.66 190.863C866.176 187.113 869.711 180.785 873.266 171.879C876.82 163.012 878.598 152.094 878.598 139.125C878.598 126.156 876.82 115.238 873.266 106.371C869.711 97.4648 866.176 91.1367 862.66 87.3867C861.371 86.0195 861.332 84.8672 862.543 83.9297L864.594 82.3477C865.766 81.4492 867.094 81.8398 868.578 83.5195C874.789 90.4336 879.926 98.4219 883.988 107.484C888.051 116.547 890.082 127.094 890.082 139.125C890.082 151.156 888.051 161.703 883.988 170.766C879.926 179.828 874.789 187.816 868.578 194.73C867.094 196.41 865.766 196.801 864.594 195.902L862.543 194.32Z" fill="white"/>
<path d="M1000.55 363.988C1000.55 350.316 1003.91 339.613 1010.62 331.879C1017.38 324.105 1027.11 320.219 1039.8 320.219C1052.5 320.219 1062.21 324.105 1068.93 331.879C1075.68 339.613 1079.06 350.316 1079.06 363.988C1079.06 377.66 1075.68 388.383 1068.93 396.156C1062.21 403.891 1052.5 407.758 1039.8 407.758C1027.11 407.758 1017.38 403.891 1010.62 396.156C1003.91 388.383 1000.55 377.66 1000.55 363.988ZM1012.56 363.988C1012.56 374.926 1014.8 383.441 1019.3 389.535C1023.79 395.59 1030.62 398.617 1039.8 398.617C1048.98 398.617 1055.82 395.59 1060.31 389.535C1064.8 383.441 1067.05 374.926 1067.05 363.988C1067.05 353.051 1064.8 344.555 1060.31 338.5C1055.82 332.406 1048.98 329.359 1039.8 329.359C1030.62 329.359 1023.79 332.406 1019.3 338.5C1014.8 344.555 1012.56 353.051 1012.56 363.988ZM1091.72 374.125C1091.72 362.094 1093.75 351.547 1097.81 342.484C1101.88 333.422 1107.01 325.434 1113.22 318.52C1114.71 316.84 1116.04 316.449 1117.21 317.348L1119.26 318.93C1120.47 319.867 1120.43 321.02 1119.14 322.387C1115.62 326.137 1112.09 332.465 1108.54 341.371C1104.98 350.238 1103.2 361.156 1103.2 374.125C1103.2 387.094 1104.98 398.012 1108.54 406.879C1112.09 415.785 1115.62 422.113 1119.14 425.863C1120.43 427.23 1120.47 428.383 1119.26 429.32L1117.21 430.902C1116.04 431.801 1114.71 431.41 1113.22 429.73C1107.01 422.816 1101.88 414.828 1097.81 405.766C1093.75 396.703 1091.72 386.156 1091.72 374.125ZM1132.5 406C1130.35 406 1129.28 405.121 1129.28 403.363V400.551C1129.28 399.027 1129.92 397.621 1131.21 396.332L1154.18 373.188C1160.98 366.352 1165.43 361.078 1167.54 357.367C1169.69 353.617 1170.76 349.301 1170.76 344.418C1170.76 340.316 1169.55 336.84 1167.13 333.988C1164.75 331.137 1161.11 329.711 1156.23 329.711C1151.86 329.711 1148.22 330.824 1145.33 333.051C1142.44 335.277 1140.35 339.008 1139.06 344.242C1138.52 346.469 1137.36 347.328 1135.61 346.82L1131.04 345.473C1129.82 345.121 1129.53 343.461 1130.16 340.492C1131.29 335.375 1134.02 330.844 1138.36 326.898C1142.73 322.914 1148.54 320.922 1155.76 320.922C1164.94 320.922 1171.64 323.227 1175.86 327.836C1180.12 332.445 1182.25 338.09 1182.25 344.77C1182.25 351.293 1180.49 356.918 1176.97 361.645C1173.5 366.371 1168.71 371.684 1162.62 377.582L1143.34 396.273V396.508C1144.39 396.43 1145.96 396.391 1148.03 396.391H1179.96C1182.11 396.391 1183.18 397.27 1183.18 399.027V403.363C1183.18 405.121 1182.11 406 1179.96 406H1132.5ZM1195.37 351.918C1194.24 351.176 1194.12 350.082 1195.02 348.637L1210.43 323.969C1211.25 322.641 1212.52 321.977 1214.24 321.977H1216.7C1218.42 321.977 1219.69 322.641 1220.51 323.969L1235.92 348.637C1236.82 350.082 1236.7 351.176 1235.57 351.918L1232.7 353.793C1231.56 354.535 1230.51 354.145 1229.53 352.621L1215.53 330.414H1215.41L1201.41 352.621C1200.43 354.145 1199.38 354.535 1198.24 353.793L1195.37 351.918ZM1250.45 406C1248.69 406 1247.81 405.121 1247.81 403.363V347.113C1247.81 345.355 1248.69 344.477 1250.45 344.477H1255.37C1257.13 344.477 1258.01 345.355 1258.01 347.113V351.801H1258.24C1260.78 348.988 1263.52 346.898 1266.45 345.531C1269.38 344.164 1273.03 343.48 1277.4 343.48C1284.51 343.48 1289.61 345.492 1292.7 349.516C1295.82 353.5 1297.38 358.969 1297.38 365.922V403.363C1297.38 405.121 1296.5 406 1294.75 406H1289.71C1287.95 406 1287.07 405.121 1287.07 403.363V368.734C1287.07 361.078 1285.8 356.234 1283.26 354.203C1280.72 352.133 1277.5 351.098 1273.59 351.098C1268.52 351.098 1264.67 352.621 1262.05 355.668C1259.43 358.676 1258.12 363.852 1258.12 371.195V403.363C1258.12 405.121 1257.25 406 1255.49 406H1250.45ZM1311.86 429.32C1310.64 428.383 1310.68 427.23 1311.97 425.863C1315.49 422.113 1319.02 415.785 1322.58 406.879C1326.13 398.012 1327.91 387.094 1327.91 374.125C1327.91 361.156 1326.13 350.238 1322.58 341.371C1319.02 332.465 1315.49 326.137 1311.97 322.387C1310.68 321.02 1310.64 319.867 1311.86 318.93L1313.91 317.348C1315.08 316.449 1316.41 316.84 1317.89 318.52C1324.1 325.434 1329.24 333.422 1333.3 342.484C1337.36 351.547 1339.39 362.094 1339.39 374.125C1339.39 386.156 1337.36 396.703 1333.3 405.766C1329.24 414.828 1324.1 422.816 1317.89 429.73C1316.41 431.41 1315.08 431.801 1313.91 430.902L1311.86 429.32Z" fill="white"/>
<path d="M1983.55 598.988C1983.55 585.316 1986.91 574.613 1993.62 566.879C2000.38 559.105 2010.11 555.219 2022.8 555.219C2035.5 555.219 2045.21 559.105 2051.93 566.879C2058.68 574.613 2062.06 585.316 2062.06 598.988C2062.06 612.66 2058.68 623.383 2051.93 631.156C2045.21 638.891 2035.5 642.758 2022.8 642.758C2010.11 642.758 2000.38 638.891 1993.62 631.156C1986.91 623.383 1983.55 612.66 1983.55 598.988ZM1995.56 598.988C1995.56 609.926 1997.8 618.441 2002.3 624.535C2006.79 630.59 2013.62 633.617 2022.8 633.617C2031.98 633.617 2038.82 630.59 2043.31 624.535C2047.8 618.441 2050.05 609.926 2050.05 598.988C2050.05 588.051 2047.8 579.555 2043.31 573.5C2038.82 567.406 2031.98 564.359 2022.8 564.359C2013.62 564.359 2006.79 567.406 2002.3 573.5C1997.8 579.555 1995.56 588.051 1995.56 598.988ZM2074.72 609.125C2074.72 597.094 2076.75 586.547 2080.81 577.484C2084.88 568.422 2090.01 560.434 2096.22 553.52C2097.71 551.84 2099.04 551.449 2100.21 552.348L2102.26 553.93C2103.47 554.867 2103.43 556.02 2102.14 557.387C2098.62 561.137 2095.09 567.465 2091.54 576.371C2087.98 585.238 2086.2 596.156 2086.2 609.125C2086.2 622.094 2087.98 633.012 2091.54 641.879C2095.09 650.785 2098.62 657.113 2102.14 660.863C2103.43 662.23 2103.47 663.383 2102.26 664.32L2100.21 665.902C2099.04 666.801 2097.71 666.41 2096.22 664.73C2090.01 657.816 2084.88 649.828 2080.81 640.766C2076.75 631.703 2074.72 621.156 2074.72 609.125ZM2117.67 641C2115.91 641 2115.03 640.121 2115.03 638.363V582.113C2115.03 580.355 2115.91 579.477 2117.67 579.477H2122.59C2124.35 579.477 2125.23 580.355 2125.23 582.113V586.801H2125.46C2128 583.988 2130.73 581.898 2133.66 580.531C2136.59 579.164 2140.25 578.48 2144.62 578.48C2151.73 578.48 2156.83 580.492 2159.91 584.516C2163.04 588.5 2164.6 593.969 2164.6 600.922V638.363C2164.6 640.121 2163.72 641 2161.96 641H2156.93C2155.17 641 2154.29 640.121 2154.29 638.363V603.734C2154.29 596.078 2153.02 591.234 2150.48 589.203C2147.94 587.133 2144.72 586.098 2140.81 586.098C2135.73 586.098 2131.89 587.621 2129.27 590.668C2126.65 593.676 2125.34 598.852 2125.34 606.195V638.363C2125.34 640.121 2124.46 641 2122.71 641H2117.67ZM2179.43 586.918C2178.29 586.176 2178.18 585.082 2179.07 583.637L2194.48 558.969C2195.3 557.641 2196.57 556.977 2198.29 556.977H2200.75C2202.47 556.977 2203.74 557.641 2204.56 558.969L2219.97 583.637C2220.87 585.082 2220.75 586.176 2219.62 586.918L2216.75 588.793C2215.62 589.535 2214.56 589.145 2213.59 587.621L2199.58 565.414H2199.46L2185.46 587.621C2184.48 589.145 2183.43 589.535 2182.3 588.793L2179.43 586.918ZM2232.34 641C2230.19 641 2229.11 640.121 2229.11 638.363V635.551C2229.11 634.027 2229.76 632.621 2231.05 631.332L2254.02 608.188C2260.81 601.352 2265.27 596.078 2267.38 592.367C2269.52 588.617 2270.6 584.301 2270.6 579.418C2270.6 575.316 2269.39 571.84 2266.96 568.988C2264.58 566.137 2260.95 564.711 2256.07 564.711C2251.69 564.711 2248.06 565.824 2245.17 568.051C2242.28 570.277 2240.19 574.008 2238.9 579.242C2238.35 581.469 2237.2 582.328 2235.44 581.82L2230.87 580.473C2229.66 580.121 2229.37 578.461 2229.99 575.492C2231.12 570.375 2233.86 565.844 2238.2 561.898C2242.57 557.914 2248.37 555.922 2255.6 555.922C2264.78 555.922 2271.48 558.227 2275.7 562.836C2279.95 567.445 2282.08 573.09 2282.08 579.77C2282.08 586.293 2280.32 591.918 2276.81 596.645C2273.33 601.371 2268.55 606.684 2262.45 612.582L2243.18 631.273V631.508C2244.23 631.43 2245.79 631.391 2247.86 631.391H2279.8C2281.95 631.391 2283.02 632.27 2283.02 634.027V638.363C2283.02 640.121 2281.95 641 2279.8 641H2232.34ZM2294.86 664.32C2293.64 663.383 2293.68 662.23 2294.97 660.863C2298.49 657.113 2302.02 650.785 2305.58 641.879C2309.13 633.012 2310.91 622.094 2310.91 609.125C2310.91 596.156 2309.13 585.238 2305.58 576.371C2302.02 567.465 2298.49 561.137 2294.97 557.387C2293.68 556.02 2293.64 554.867 2294.86 553.93L2296.91 552.348C2298.08 551.449 2299.41 551.84 2300.89 553.52C2307.1 560.434 2312.24 568.422 2316.3 577.484C2320.36 586.547 2322.39 597.094 2322.39 609.125C2322.39 621.156 2320.36 631.703 2316.3 640.766C2312.24 649.828 2307.1 657.816 2300.89 664.73C2299.41 666.41 2298.08 666.801 2296.91 665.902L2294.86 664.32Z" fill="white"/>
<path d="M5937.51 1192.99C5937.51 1179.32 5940.87 1168.61 5947.59 1160.88C5954.34 1153.11 5964.07 1149.22 5976.77 1149.22C5989.46 1149.22 5999.17 1153.11 6005.89 1160.88C6012.64 1168.61 6016.02 1179.32 6016.02 1192.99C6016.02 1206.66 6012.64 1217.38 6005.89 1225.16C5999.17 1232.89 5989.46 1236.76 5976.77 1236.76C5964.07 1236.76 5954.34 1232.89 5947.59 1225.16C5940.87 1217.38 5937.51 1206.66 5937.51 1192.99ZM5949.52 1192.99C5949.52 1203.93 5951.77 1212.44 5956.26 1218.54C5960.75 1224.59 5967.59 1227.62 5976.77 1227.62C5985.95 1227.62 5992.78 1224.59 5997.27 1218.54C6001.77 1212.44 6004.01 1203.93 6004.01 1192.99C6004.01 1182.05 6001.77 1173.55 5997.27 1167.5C5992.78 1161.41 5985.95 1158.36 5976.77 1158.36C5967.59 1158.36 5960.75 1161.41 5956.26 1167.5C5951.77 1173.55 5949.52 1182.05 5949.52 1192.99ZM6028.68 1203.12C6028.68 1191.09 6030.71 1180.55 6034.77 1171.48C6038.84 1162.42 6043.97 1154.43 6050.18 1147.52C6051.67 1145.84 6053 1145.45 6054.17 1146.35L6056.22 1147.93C6057.43 1148.87 6057.39 1150.02 6056.1 1151.39C6052.59 1155.14 6049.05 1161.46 6045.5 1170.37C6041.94 1179.24 6040.16 1190.16 6040.16 1203.12C6040.16 1216.09 6041.94 1227.01 6045.5 1235.88C6049.05 1244.79 6052.59 1251.11 6056.1 1254.86C6057.39 1256.23 6057.43 1257.38 6056.22 1258.32L6054.17 1259.9C6053 1260.8 6051.67 1260.41 6050.18 1258.73C6043.97 1251.82 6038.84 1243.83 6034.77 1234.77C6030.71 1225.7 6028.68 1215.16 6028.68 1203.12ZM6071.63 1235C6069.87 1235 6068.99 1234.12 6068.99 1232.36V1176.11C6068.99 1174.36 6069.87 1173.48 6071.63 1173.48H6076.55C6078.31 1173.48 6079.19 1174.36 6079.19 1176.11V1180.8H6079.42C6081.96 1177.99 6084.7 1175.9 6087.62 1174.53C6090.55 1173.16 6094.21 1172.48 6098.58 1172.48C6105.69 1172.48 6110.79 1174.49 6113.88 1178.52C6117 1182.5 6118.56 1187.97 6118.56 1194.92V1232.36C6118.56 1234.12 6117.68 1235 6115.93 1235H6110.89C6109.13 1235 6108.25 1234.12 6108.25 1232.36V1197.73C6108.25 1190.08 6106.98 1185.23 6104.44 1183.2C6101.9 1181.13 6098.68 1180.1 6094.77 1180.1C6089.7 1180.1 6085.85 1181.62 6083.23 1184.67C6080.61 1187.68 6079.3 1192.85 6079.3 1200.2V1232.36C6079.3 1234.12 6078.43 1235 6076.67 1235H6071.63ZM6177.68 1235C6175.93 1235 6175.05 1234.12 6175.05 1232.36V1159.24C6175.05 1158.46 6175.24 1157.71 6175.63 1157.01L6179.73 1149.57C6180.48 1148.2 6181.08 1147.52 6181.55 1147.52H6183.6C6184.77 1147.52 6185.36 1148.2 6185.36 1149.57V1232.36C6185.36 1234.12 6184.48 1235 6182.72 1235H6177.68ZM6198.66 1204.24C6198.66 1195.06 6201.08 1187.48 6205.93 1181.5C6210.81 1175.49 6217.94 1172.48 6227.31 1172.48C6236.69 1172.48 6243.8 1175.49 6248.64 1181.5C6253.52 1187.48 6255.96 1195.06 6255.96 1204.24C6255.96 1213.42 6253.52 1221.02 6248.64 1227.03C6243.8 1233.01 6236.69 1236 6227.31 1236C6217.94 1236 6210.81 1233.01 6205.93 1227.03C6201.08 1221.02 6198.66 1213.42 6198.66 1204.24ZM6209.56 1204.24C6209.56 1212.44 6211.18 1218.52 6214.42 1222.46C6217.66 1226.41 6221.96 1228.38 6227.31 1228.38C6232.66 1228.38 6236.96 1226.41 6240.2 1222.46C6243.45 1218.52 6245.07 1212.44 6245.07 1204.24C6245.07 1196.04 6243.45 1189.96 6240.2 1186.02C6236.96 1182.07 6232.66 1180.1 6227.31 1180.1C6221.96 1180.1 6217.66 1182.07 6214.42 1186.02C6211.18 1189.96 6209.56 1196.04 6209.56 1204.24ZM6265.93 1204.24C6265.93 1195.84 6267.96 1188.46 6272.02 1182.09C6276.08 1175.68 6282.02 1172.48 6289.83 1172.48C6294.32 1172.48 6297.92 1173.22 6300.61 1174.71C6303.31 1176.19 6305.73 1178.22 6307.88 1180.8H6308L6308.35 1176.11C6308.46 1174.36 6309.23 1173.48 6310.63 1173.48H6315.55C6317.31 1173.48 6318.19 1174.36 6318.19 1176.11V1235.47C6318.19 1242.97 6316.45 1248.83 6312.98 1253.05C6309.54 1257.3 6302.72 1259.43 6292.53 1259.43C6285.69 1259.43 6280.57 1258.65 6277.18 1257.09C6273.78 1255.57 6271.36 1253.95 6269.91 1252.23C6268.86 1250.94 6268.8 1249.84 6269.73 1248.95L6272.96 1245.78C6273.86 1244.92 6275.11 1245.2 6276.71 1246.6C6278.78 1248.48 6280.77 1249.8 6282.68 1250.59C6284.6 1251.41 6287.9 1251.82 6292.59 1251.82C6297.9 1251.82 6301.77 1250.68 6304.19 1248.42C6306.65 1246.15 6307.88 1241.46 6307.88 1234.36V1230.84C6307.88 1229.63 6307.92 1228.44 6308 1227.27H6307.88C6305.85 1229.96 6303.45 1232.09 6300.67 1233.65C6297.94 1235.21 6294.32 1236 6289.83 1236C6282.02 1236 6276.08 1232.81 6272.02 1226.45C6267.96 1220.04 6265.93 1212.64 6265.93 1204.24ZM6276.82 1204.24C6276.82 1211.43 6278.05 1217.25 6280.52 1221.7C6283.02 1226.15 6287.23 1228.38 6293.17 1228.38C6297.39 1228.38 6300.89 1226.95 6303.66 1224.1C6306.47 1221.21 6307.88 1216.84 6307.88 1210.98V1197.5C6307.88 1191.64 6306.47 1187.29 6303.66 1184.43C6300.89 1181.54 6297.39 1180.1 6293.17 1180.1C6287.23 1180.1 6283.02 1182.32 6280.52 1186.78C6278.05 1191.23 6276.82 1197.05 6276.82 1204.24ZM6377.49 1235C6375.73 1235 6374.85 1234.12 6374.85 1232.36V1176.11C6374.85 1174.36 6375.73 1173.48 6377.49 1173.48H6382.41C6384.17 1173.48 6385.05 1174.36 6385.05 1176.11V1180.8H6385.28C6387.82 1177.99 6390.55 1175.9 6393.48 1174.53C6396.41 1173.16 6400.07 1172.48 6404.44 1172.48C6411.55 1172.48 6416.65 1174.49 6419.73 1178.52C6422.86 1182.5 6424.42 1187.97 6424.42 1194.92V1232.36C6424.42 1234.12 6423.54 1235 6421.79 1235H6416.75C6414.99 1235 6414.11 1234.12 6414.11 1232.36V1197.73C6414.11 1190.08 6412.84 1185.23 6410.3 1183.2C6407.76 1181.13 6404.54 1180.1 6400.63 1180.1C6395.55 1180.1 6391.71 1181.62 6389.09 1184.67C6386.47 1187.68 6385.16 1192.85 6385.16 1200.2V1232.36C6385.16 1234.12 6384.29 1235 6382.53 1235H6377.49ZM6438.89 1258.32C6437.68 1257.38 6437.72 1256.23 6439.01 1254.86C6442.53 1251.11 6446.06 1244.79 6449.62 1235.88C6453.17 1227.01 6454.95 1216.09 6454.95 1203.12C6454.95 1190.16 6453.17 1179.24 6449.62 1170.37C6446.06 1161.46 6442.53 1155.14 6439.01 1151.39C6437.72 1150.02 6437.68 1148.87 6438.89 1147.93L6440.95 1146.35C6442.12 1145.45 6443.45 1145.84 6444.93 1147.52C6451.14 1154.43 6456.28 1162.42 6460.34 1171.48C6464.4 1180.55 6466.43 1191.09 6466.43 1203.12C6466.43 1215.16 6464.4 1225.7 6460.34 1234.77C6456.28 1243.83 6451.14 1251.82 6444.93 1258.73C6443.45 1260.41 6442.12 1260.8 6440.95 1259.9L6438.89 1258.32Z" fill="white"/>
<path d="M3128.7 4081C3125.77 4081 3124.31 4079.39 3124.31 4076.17V3959.8C3124.31 3956.58 3125.77 3954.96 3128.7 3954.96H3205.61C3208.83 3954.96 3210.44 3956.28 3210.44 3958.92V3965.42C3210.44 3968.06 3208.83 3969.38 3205.61 3969.38H3141.18V4008.4H3200.33C3203.55 4008.4 3205.17 4009.72 3205.17 4012.36V4018.86C3205.17 4021.5 3203.55 4022.82 3200.33 4022.82H3141.18V4066.59H3208.24C3211.46 4066.59 3213.08 4067.9 3213.08 4070.54V4077.04C3213.08 4079.68 3211.46 4081 3208.24 4081H3128.7ZM3237.42 4081C3234.79 4081 3233.47 4079.68 3233.47 4077.04V3967.36C3233.47 3966.19 3233.76 3965.07 3234.35 3964.02L3240.5 3952.86C3241.61 3950.8 3242.52 3949.78 3243.22 3949.78H3246.3C3248.06 3949.78 3248.94 3950.8 3248.94 3952.86V4077.04C3248.94 4079.68 3247.62 4081 3244.98 4081H3237.42ZM3268.89 4034.86C3268.89 4020.33 3272.52 4008.75 3279.79 4000.14C3287.05 3991.53 3297.45 3987.22 3310.99 3987.22C3322.24 3987.22 3331.55 3991.18 3338.94 3999.09C3346.38 4006.94 3350.1 4019.51 3350.1 4036.79C3350.1 4039.43 3348.9 4040.75 3346.49 4040.75H3285.23C3286.23 4052.05 3289.28 4059.94 3294.38 4064.39C3299.47 4068.78 3305.24 4070.98 3311.69 4070.98C3318.49 4070.98 3323.7 4069.84 3327.33 4067.55C3330.97 4065.27 3333.63 4063.01 3335.33 4060.79C3337.21 4058.32 3339.02 4057.86 3340.78 4059.38L3345.97 4063.86C3347.31 4065.03 3347.31 4066.64 3345.97 4068.7C3344.85 4070.39 3341.66 4073.12 3336.39 4076.87C3331.17 4080.62 3322.94 4082.49 3311.69 4082.49C3297.04 4082.49 3286.23 4078.19 3279.26 4069.57C3272.34 4060.96 3268.89 4049.39 3268.89 4034.86ZM3284.88 4029.32H3334.54C3334.31 4021.12 3332.2 4013.94 3328.21 4007.79C3324.23 4001.58 3318.37 3998.47 3310.63 3998.47C3303.84 3998.47 3298.07 4000.76 3293.32 4005.33C3288.57 4009.84 3285.76 4017.84 3284.88 4029.32ZM3374.36 4081C3371.72 4081 3370.4 4079.68 3370.4 4077.04V3992.67C3370.4 3990.03 3371.72 3988.71 3374.36 3988.71H3381.74C3384.38 3988.71 3385.69 3990.03 3385.69 3992.67V3999.7H3386.04C3389.85 3995.48 3393.98 3992.35 3398.44 3990.3C3402.89 3988.25 3407.17 3987.22 3411.27 3987.22C3418.83 3987.22 3424.63 3989.12 3428.67 3992.93C3432.77 3996.68 3435.41 4000.46 3436.58 4004.27H3436.93C3440.16 3999.47 3444.23 3995.42 3449.15 3992.14C3454.07 3988.86 3459.32 3987.22 3464.88 3987.22C3474.2 3987.22 3481.23 3990.24 3485.98 3996.27C3490.72 4002.25 3493.1 4010.45 3493.1 4020.88V4077.04C3493.1 4079.68 3491.78 4081 3489.14 4081H3481.58C3478.95 4081 3477.63 4079.68 3477.63 4077.04V4025.98C3477.63 4014.5 3476.19 4007.08 3473.32 4003.74C3470.45 4000.35 3466.03 3998.65 3460.05 3998.65C3454.19 3998.65 3449.3 4001.17 3445.37 4006.21C3441.45 4011.19 3439.48 4018.71 3439.48 4028.79V4077.04C3439.48 4079.68 3438.16 4081 3435.53 4081H3427.97C3425.33 4081 3424.01 4079.68 3424.01 4077.04V4025.98C3424.01 4014.5 3422.58 4007.08 3419.71 4003.74C3416.84 4000.35 3412.41 3998.65 3406.44 3998.65C3400.58 3998.65 3395.68 4000.93 3391.76 4005.5C3387.83 4010.01 3385.87 4017.78 3385.87 4028.79V4077.04C3385.87 4079.68 3384.55 4081 3381.91 4081H3374.36ZM3512.87 4034.86C3512.87 4020.33 3516.5 4008.75 3523.77 4000.14C3531.04 3991.53 3541.44 3987.22 3554.97 3987.22C3566.22 3987.22 3575.54 3991.18 3582.92 3999.09C3590.36 4006.94 3594.08 4019.51 3594.08 4036.79C3594.08 4039.43 3592.88 4040.75 3590.48 4040.75H3529.22C3530.21 4052.05 3533.26 4059.94 3538.36 4064.39C3543.46 4068.78 3549.23 4070.98 3555.67 4070.98C3562.47 4070.98 3567.69 4069.84 3571.32 4067.55C3574.95 4065.27 3577.62 4063.01 3579.32 4060.79C3581.19 4058.32 3583.01 4057.86 3584.77 4059.38L3589.95 4063.86C3591.3 4065.03 3591.3 4066.64 3589.95 4068.7C3588.84 4070.39 3585.64 4073.12 3580.37 4076.87C3575.16 4080.62 3566.92 4082.49 3555.67 4082.49C3541.03 4082.49 3530.21 4078.19 3523.24 4069.57C3516.33 4060.96 3512.87 4049.39 3512.87 4034.86ZM3528.87 4029.32H3578.53C3578.29 4021.12 3576.18 4013.94 3572.2 4007.79C3568.21 4001.58 3562.35 3998.47 3554.62 3998.47C3547.82 3998.47 3542.05 4000.76 3537.3 4005.33C3532.56 4009.84 3529.75 4017.84 3528.87 4029.32ZM3618.34 4081C3615.7 4081 3614.38 4079.68 3614.38 4077.04V3992.67C3614.38 3990.03 3615.7 3988.71 3618.34 3988.71H3625.72C3628.36 3988.71 3629.68 3990.03 3629.68 3992.67V3999.7H3630.03C3633.84 3995.48 3637.94 3992.35 3642.33 3990.3C3646.73 3988.25 3652.21 3987.22 3658.77 3987.22C3669.43 3987.22 3677.08 3990.24 3681.71 3996.27C3686.4 4002.25 3688.74 4010.45 3688.74 4020.88V4077.04C3688.74 4079.68 3687.42 4081 3684.79 4081H3677.23C3674.59 4081 3673.27 4079.68 3673.27 4077.04V4025.1C3673.27 4013.62 3671.37 4006.35 3667.56 4003.3C3663.75 4000.2 3658.92 3998.65 3653.06 3998.65C3645.44 3998.65 3639.67 4000.93 3635.74 4005.5C3631.82 4010.01 3629.85 4017.78 3629.85 4028.79V4077.04C3629.85 4079.68 3628.54 4081 3625.9 4081H3618.34ZM3709.04 4000.32C3706.41 4000.32 3705.09 3999.29 3705.09 3997.24V3991.79C3705.09 3989.74 3706.41 3988.71 3709.04 3988.71H3719.41V3980.8C3719.41 3979.63 3719.71 3978.52 3720.29 3977.46L3726.45 3966.3C3727.56 3964.25 3728.47 3963.23 3729.17 3963.23H3732.25C3734 3963.23 3734.88 3964.25 3734.88 3966.3V3988.71H3753.6C3756.24 3988.71 3757.56 3989.74 3757.56 3991.79V3997.24C3757.56 3999.29 3756.24 4000.32 3753.6 4000.32H3734.88V4056.3C3734.88 4062.46 3735.79 4066.47 3737.61 4068.34C3739.48 4070.16 3741.71 4071.07 3744.29 4071.07C3746.28 4071.07 3748.65 4070.48 3751.41 4069.31C3754.22 4068.14 3756.15 4067.14 3757.21 4066.32C3758.26 4065.5 3759.08 4065.77 3759.67 4067.11L3762.57 4073.88C3763.04 4075.05 3762.69 4075.99 3761.51 4076.69C3759.23 4078.04 3755.89 4079.36 3751.49 4080.65C3747.1 4081.88 3742.71 4082.49 3738.31 4082.49C3732.22 4082.49 3727.53 4080.3 3724.25 4075.9C3721.03 4071.51 3719.41 4065.3 3719.41 4057.27V4000.32H3709.04ZM3776.54 4072.39C3774.73 4070.69 3774.35 4069.11 3775.4 4067.64L3779.36 4062.1C3780.64 4060.35 3782.55 4060.43 3785.07 4062.37C3788.53 4065 3792.36 4067.11 3796.58 4068.7C3800.86 4070.28 3805.72 4071.07 3811.17 4071.07C3814.39 4071.07 3817.27 4070.69 3819.79 4069.93C3822.3 4069.11 3824.5 4067.61 3826.38 4065.44C3828.31 4063.28 3829.28 4060.38 3829.28 4056.74C3829.28 4054.63 3828.81 4052.64 3827.87 4050.77C3826.99 4048.89 3825.59 4047.4 3823.65 4046.28C3821.78 4045.11 3819.93 4044.2 3818.12 4043.56C3815.13 4042.45 3812.14 4041.54 3809.15 4040.83C3806.22 4040.07 3802.35 4038.93 3797.55 4037.41C3794.33 4036.41 3791.28 4035 3788.41 4033.19C3785.54 4031.31 3783.02 4028.79 3780.85 4025.63C3778.74 4022.46 3777.69 4018.1 3777.69 4012.53C3777.69 4006.85 3779.41 4001.96 3782.87 3997.86C3786.33 3993.75 3790.66 3990.97 3795.88 3989.51C3801.09 3987.98 3806.16 3987.22 3811.08 3987.22C3818.35 3987.22 3824.18 3988.07 3828.57 3989.77C3833.03 3991.41 3836.87 3993.37 3840.09 3995.66C3841.96 3997.01 3842.23 3998.56 3840.88 4000.32L3836.92 4005.59C3835.69 4007.29 3833.79 4007.23 3831.21 4005.41C3829.04 4003.89 3825.97 4002.46 3821.98 4001.11C3818 3999.76 3814.51 3999.09 3811.52 3999.09C3807.83 3999.09 3804.67 3999.5 3802.03 4000.32C3799.39 4001.14 3797.26 4002.54 3795.62 4004.54C3793.97 4006.53 3793.15 4008.87 3793.15 4011.57C3793.15 4013.62 3793.48 4015.46 3794.12 4017.1C3794.77 4018.69 3795.97 4020.15 3797.72 4021.5C3799.48 4022.85 3801.94 4023.93 3805.11 4024.75C3810.03 4026.04 3814.51 4027.21 3818.55 4028.27C3822.66 4029.32 3826.35 4030.61 3829.63 4032.13C3833.91 4034.12 3837.19 4036.32 3839.47 4038.72C3841.82 4041.13 3843.43 4043.73 3844.31 4046.55C3845.19 4049.3 3845.62 4052.38 3845.62 4055.78C3845.62 4062.04 3843.75 4067.35 3840 4071.68C3836.31 4076.02 3832.18 4078.92 3827.61 4080.38C3823.04 4081.79 3817.53 4082.49 3811.08 4082.49C3802.35 4082.49 3794.85 4081.26 3788.58 4078.8C3782.37 4076.28 3778.36 4074.14 3776.54 4072.39Z" fill="white"/>
<path d="M117.982 2331.55C97.4746 2331.55 81.4199 2326.51 69.8184 2316.43C58.1582 2306.29 52.3281 2291.71 52.3281 2272.66C52.3281 2253.62 58.1582 2239.06 69.8184 2228.98C81.4199 2218.84 97.4746 2213.78 117.982 2213.78C138.49 2213.78 154.574 2218.84 166.234 2228.98C177.836 2239.06 183.637 2253.62 183.637 2272.66C183.637 2291.71 177.836 2306.29 166.234 2316.43C154.574 2326.51 138.49 2331.55 117.982 2331.55ZM117.982 2313.53C134.389 2313.53 147.162 2310.16 156.303 2303.42C165.385 2296.69 169.926 2286.43 169.926 2272.66C169.926 2258.89 165.385 2248.64 156.303 2241.9C147.162 2235.16 134.389 2231.79 117.982 2231.79C101.576 2231.79 88.832 2235.16 79.75 2241.9C70.6094 2248.64 66.0391 2258.89 66.0391 2272.66C66.0391 2286.43 70.6094 2296.69 79.75 2303.42C88.832 2310.16 101.576 2313.53 117.982 2313.53ZM216.156 2189.25C216.156 2191.89 214.838 2193.21 212.201 2193.21H92.6699C90.0332 2193.21 88.7148 2191.89 88.7148 2189.25V2181.87C88.7148 2179.76 90.0332 2178.62 92.6699 2178.44L99.7012 2177.92V2177.74C95.834 2174.52 92.7871 2170.88 90.5605 2166.84C88.334 2162.8 87.2207 2157.41 87.2207 2150.67C87.2207 2138.95 92.0254 2130.04 101.635 2123.95C111.186 2117.86 122.26 2114.81 134.857 2114.81C147.455 2114.81 158.559 2117.86 168.168 2123.95C177.719 2130.04 182.494 2138.95 182.494 2150.67C182.494 2157.41 181.381 2162.8 179.154 2166.84C176.928 2170.88 173.881 2174.52 170.014 2177.74V2177.92C171.771 2177.8 173.559 2177.74 175.375 2177.74H212.201C214.838 2177.74 216.156 2179.06 216.156 2181.7V2189.25ZM144.965 2177.74C153.754 2177.74 160.316 2175.66 164.652 2171.5C168.93 2167.28 171.068 2162.01 171.068 2155.68C171.068 2146.77 167.729 2140.47 161.049 2136.78C154.369 2133.03 145.639 2131.16 134.857 2131.16C124.076 2131.16 115.346 2133.03 108.666 2136.78C101.986 2140.47 98.6465 2146.77 98.6465 2155.68C98.6465 2162.01 100.814 2167.28 105.15 2171.5C109.428 2175.66 115.961 2177.74 124.75 2177.74H144.965ZM134.857 2099.78C120.326 2099.78 108.754 2096.15 100.141 2088.88C91.5273 2081.62 87.2207 2071.22 87.2207 2057.68C87.2207 2046.43 91.1758 2037.12 99.0859 2029.73C106.938 2022.29 119.506 2018.57 136.791 2018.57C139.428 2018.57 140.746 2019.77 140.746 2022.17V2083.43C152.055 2082.44 159.936 2079.39 164.389 2074.29C168.783 2069.2 170.98 2063.42 170.98 2056.98C170.98 2050.18 169.838 2044.97 167.553 2041.33C165.268 2037.7 163.012 2035.04 160.785 2033.34C158.324 2031.46 157.855 2029.64 159.379 2027.89L163.861 2022.7C165.033 2021.35 166.645 2021.35 168.695 2022.7C170.395 2023.81 173.119 2027.01 176.869 2032.28C180.619 2037.5 182.494 2045.73 182.494 2056.98C182.494 2071.63 178.188 2082.44 169.574 2089.41C160.961 2096.32 149.389 2099.78 134.857 2099.78ZM129.32 2083.79V2034.13C121.117 2034.36 113.939 2036.47 107.787 2040.46C101.576 2044.44 98.4707 2050.3 98.4707 2058.03C98.4707 2064.83 100.756 2070.6 105.326 2075.35C109.838 2080.09 117.836 2082.91 129.32 2083.79ZM181 1994.31C181 1996.95 179.682 1998.27 177.045 1998.27H92.6699C90.0332 1998.27 88.7148 1996.95 88.7148 1994.31L88.7148 1986.93C88.7148 1984.29 90.0332 1982.97 92.6699 1982.97H103.217V1982.62C97.9434 1979.81 93.959 1976.5 91.2637 1972.69C88.5684 1968.88 87.2207 1964.14 87.2207 1958.45C87.2207 1954.7 87.543 1952.07 88.1875 1950.54C88.7148 1949.2 89.5938 1948.7 90.8242 1949.05L98.0313 1951.07C99.0859 1951.36 99.4961 1952.12 99.2617 1953.36C98.8516 1955.41 98.6465 1957.34 98.6465 1959.16C98.6465 1966.01 101.752 1971.67 107.963 1976.12C114.115 1980.57 122.523 1982.8 133.188 1982.8H177.045C179.682 1982.8 181 1984.12 181 1986.75V1994.31ZM156.391 1939.82C145.961 1939.82 138.314 1934.96 133.451 1925.23C128.588 1915.45 125.746 1900.86 124.926 1881.46H118.949C113.441 1881.46 108.695 1882.72 104.711 1885.24C100.668 1887.7 98.6465 1892.62 98.6465 1900.01C98.6465 1904.69 99.1152 1908.44 100.053 1911.26C100.932 1914.07 102.133 1916.65 103.656 1918.99C105.121 1921.28 107.025 1923.47 109.369 1925.58C111.127 1927.16 111.215 1928.66 109.633 1930.06L104.359 1934.63C102.895 1935.92 101.137 1935.48 99.0859 1933.32C96.1563 1930.21 93.959 1927.19 92.4941 1924.26C91.0293 1921.33 89.7988 1917.7 88.8027 1913.37C87.748 1908.97 87.2207 1904.52 87.2207 1900.01C87.2207 1887.76 90.3848 1879.03 96.7129 1873.81C102.982 1868.6 111.596 1865.99 122.553 1865.99H177.045C179.682 1865.99 181 1867.31 181 1869.95V1877.86C181 1880.14 179.682 1881.29 177.045 1881.29H172.738V1881.46C176.371 1886.09 178.92 1890.63 180.385 1895.08C181.791 1899.48 182.494 1904.4 182.494 1909.85C182.494 1919.46 180.209 1926.87 175.639 1932.09C171.01 1937.24 164.594 1939.82 156.391 1939.82ZM156.742 1923.82C160.375 1923.82 163.305 1923.06 165.531 1921.54C167.699 1920.02 169.105 1917.91 169.75 1915.21C170.336 1912.52 170.629 1909.7 170.629 1906.77C170.629 1902.26 170.189 1897.98 169.311 1893.94C168.432 1889.9 166.117 1885.74 162.367 1881.46H136.439C137.318 1893.3 138.402 1901.73 139.691 1906.77C140.922 1911.81 143.09 1915.91 146.195 1919.08C149.242 1922.24 152.758 1923.82 156.742 1923.82ZM100.316 1845.43C100.316 1848.06 99.291 1849.38 97.2402 1849.38H91.791C89.7402 1849.38 88.7148 1848.06 88.7148 1845.43V1835.05H80.8047C79.6328 1835.05 78.5195 1834.76 77.4648 1834.18L66.3027 1828.02C64.252 1826.91 63.2266 1826 63.2266 1825.3V1822.22C63.2266 1820.46 64.252 1819.59 66.3027 1819.59H88.7148V1800.87C88.7148 1798.23 89.7402 1796.91 91.791 1796.91H97.2402C99.291 1796.91 100.316 1798.23 100.316 1800.87V1819.59H156.303C162.455 1819.59 166.469 1818.68 168.344 1816.86C170.16 1814.99 171.068 1812.76 171.068 1810.18C171.068 1808.19 170.482 1805.82 169.311 1803.06C168.139 1800.25 167.143 1798.32 166.322 1797.26C165.502 1796.21 165.766 1795.39 167.113 1794.8L173.881 1791.9C175.053 1791.43 175.99 1791.78 176.693 1792.96C178.041 1795.24 179.359 1798.58 180.648 1802.97C181.879 1807.37 182.494 1811.76 182.494 1816.16C182.494 1822.25 180.297 1826.94 175.902 1830.22C171.508 1833.44 165.297 1835.05 157.27 1835.05H100.316V1845.43ZM181 1770.37C181 1773 179.682 1774.32 177.045 1774.32H92.6699C90.0332 1774.32 88.7148 1773 88.7148 1770.37V1762.81C88.7148 1760.17 90.0332 1758.85 92.6699 1758.85H177.045C179.682 1758.85 181 1760.17 181 1762.81V1770.37ZM72.0156 1770.37C72.0156 1773 70.6973 1774.32 68.0605 1774.32H60.502C57.8652 1774.32 56.5469 1773 56.5469 1770.37V1762.81C56.5469 1760.17 57.8652 1758.85 60.502 1758.85H68.0605C70.6973 1758.85 72.0156 1760.17 72.0156 1762.81V1770.37ZM134.857 1738.9C121.088 1738.9 109.721 1735.27 100.756 1728C91.7324 1720.68 87.2207 1709.99 87.2207 1695.92C87.2207 1681.86 91.7324 1671.2 100.756 1663.93C109.721 1656.61 121.088 1652.95 134.857 1652.95C148.627 1652.95 160.023 1656.61 169.047 1663.93C178.012 1671.2 182.494 1681.86 182.494 1695.92C182.494 1709.99 178.012 1720.68 169.047 1728C160.023 1735.27 148.627 1738.9 134.857 1738.9ZM134.857 1722.55C147.162 1722.55 156.273 1720.12 162.191 1715.26C168.109 1710.4 171.068 1703.95 171.068 1695.92C171.068 1687.9 168.109 1681.45 162.191 1676.59C156.273 1671.72 147.162 1669.29 134.857 1669.29C122.553 1669.29 113.441 1671.72 107.523 1676.59C101.605 1681.45 98.6465 1687.9 98.6465 1695.92C98.6465 1703.95 101.605 1710.4 107.523 1715.26C113.441 1720.12 122.553 1722.55 134.857 1722.55ZM181 1629.04C181 1631.68 179.682 1632.99 177.045 1632.99H92.6699C90.0332 1632.99 88.7148 1631.68 88.7148 1629.04V1621.66C88.7148 1619.02 90.0332 1617.7 92.6699 1617.7H99.7012V1617.35C95.4824 1613.54 92.3477 1609.44 90.2969 1605.04C88.2461 1600.65 87.2207 1595.17 87.2207 1588.61C87.2207 1577.95 90.2383 1570.3 96.2734 1565.67C102.25 1560.98 110.453 1558.64 120.883 1558.64H177.045C179.682 1558.64 181 1559.96 181 1562.59V1570.15C181 1572.79 179.682 1574.11 177.045 1574.11H125.102C113.617 1574.11 106.352 1576.01 103.305 1579.82C100.199 1583.63 98.6465 1588.46 98.6465 1594.32C98.6465 1601.94 100.932 1607.71 105.502 1611.64C110.014 1615.56 117.777 1617.53 128.793 1617.53H177.045C179.682 1617.53 181 1618.84 181 1621.48V1629.04ZM172.387 1537.46C170.688 1539.27 169.105 1539.65 167.641 1538.6L162.104 1534.64C160.346 1533.36 160.434 1531.45 162.367 1528.93C165.004 1525.47 167.113 1521.64 168.695 1517.42C170.277 1513.14 171.068 1508.28 171.068 1502.83C171.068 1499.61 170.688 1496.73 169.926 1494.21C169.105 1491.7 167.611 1489.5 165.443 1487.62C163.275 1485.69 160.375 1484.72 156.742 1484.72C154.633 1484.72 152.641 1485.19 150.766 1486.13C148.891 1487.01 147.396 1488.41 146.283 1490.35C145.111 1492.22 144.203 1494.07 143.559 1495.88C142.445 1498.87 141.537 1501.86 140.834 1504.85C140.072 1507.78 138.93 1511.65 137.406 1516.45C136.41 1519.67 135.004 1522.72 133.188 1525.59C131.313 1528.46 128.793 1530.98 125.629 1533.15C122.465 1535.26 118.1 1536.31 112.533 1536.31C106.85 1536.31 101.957 1534.59 97.8555 1531.13C93.7539 1527.67 90.9707 1523.34 89.5059 1518.12C87.9824 1512.91 87.2207 1507.84 87.2207 1502.92C87.2207 1495.65 88.0703 1489.82 89.7695 1485.43C91.4102 1480.97 93.373 1477.13 95.6582 1473.91C97.0059 1472.04 98.5586 1471.77 100.316 1473.12L105.59 1477.08C107.289 1478.31 107.23 1480.21 105.414 1482.79C103.891 1484.96 102.455 1488.03 101.107 1492.02C99.7598 1496 99.0859 1499.49 99.0859 1502.48C99.0859 1506.17 99.4961 1509.33 100.316 1511.97C101.137 1514.61 102.543 1516.74 104.535 1518.38C106.527 1520.03 108.871 1520.85 111.566 1520.85C113.617 1520.85 115.463 1520.52 117.104 1519.88C118.686 1519.23 120.15 1518.03 121.498 1516.28C122.846 1514.52 123.93 1512.06 124.75 1508.89C126.039 1503.97 127.211 1499.49 128.266 1495.45C129.32 1491.34 130.609 1487.65 132.133 1484.37C134.125 1480.09 136.322 1476.81 138.725 1474.53C141.127 1472.18 143.734 1470.57 146.547 1469.69C149.301 1468.81 152.377 1468.38 155.775 1468.38C162.045 1468.38 167.348 1470.25 171.684 1474C176.02 1477.69 178.92 1481.82 180.385 1486.39C181.791 1490.96 182.494 1496.47 182.494 1502.92C182.494 1511.65 181.264 1519.15 178.803 1525.42C176.283 1531.63 174.145 1535.64 172.387 1537.46Z" fill="white"/>
<path d="M6330.44 2984.99C6330.44 2971.32 6333.8 2960.61 6340.52 2952.88C6347.27 2945.11 6357 2941.22 6369.7 2941.22C6382.39 2941.22 6392.1 2945.11 6398.82 2952.88C6405.57 2960.61 6408.95 2971.32 6408.95 2984.99C6408.95 2998.66 6405.57 3009.38 6398.82 3017.16C6392.1 3024.89 6382.39 3028.76 6369.7 3028.76C6357 3028.76 6347.27 3024.89 6340.52 3017.16C6333.8 3009.38 6330.44 2998.66 6330.44 2984.99ZM6342.45 2984.99C6342.45 2995.93 6344.7 3004.44 6349.19 3010.54C6353.68 3016.59 6360.52 3019.62 6369.7 3019.62C6378.88 3019.62 6385.71 3016.59 6390.2 3010.54C6394.7 3004.44 6396.94 2995.93 6396.94 2984.99C6396.94 2974.05 6394.7 2965.55 6390.2 2959.5C6385.71 2953.41 6378.88 2950.36 6369.7 2950.36C6360.52 2950.36 6353.68 2953.41 6349.19 2959.5C6344.7 2965.55 6342.45 2974.05 6342.45 2984.99ZM6421.61 2995.12C6421.61 2983.09 6423.64 2972.55 6427.7 2963.48C6431.77 2954.42 6436.9 2946.43 6443.11 2939.52C6444.6 2937.84 6445.93 2937.45 6447.1 2938.35L6449.15 2939.93C6450.36 2940.87 6450.32 2942.02 6449.03 2943.39C6445.52 2947.14 6441.98 2953.46 6438.43 2962.37C6434.87 2971.24 6433.09 2982.16 6433.09 2995.12C6433.09 3008.09 6434.87 3019.01 6438.43 3027.88C6441.98 3036.79 6445.52 3043.11 6449.03 3046.86C6450.32 3048.23 6450.36 3049.38 6449.15 3050.32L6447.1 3051.9C6445.93 3052.8 6444.6 3052.41 6443.11 3050.73C6436.9 3043.82 6431.77 3035.83 6427.7 3026.77C6423.64 3017.7 6421.61 3007.16 6421.61 2995.12ZM6464.56 3027C6462.8 3027 6461.92 3026.12 6461.92 3024.36V2968.11C6461.92 2966.36 6462.8 2965.48 6464.56 2965.48H6469.48C6471.24 2965.48 6472.12 2966.36 6472.12 2968.11V2972.8H6472.35C6474.89 2969.99 6477.62 2967.9 6480.55 2966.53C6483.48 2965.16 6487.14 2964.48 6491.51 2964.48C6498.62 2964.48 6503.72 2966.49 6506.8 2970.52C6509.93 2974.5 6511.49 2979.97 6511.49 2986.92V3024.36C6511.49 3026.12 6510.61 3027 6508.86 3027H6503.82C6502.06 3027 6501.18 3026.12 6501.18 3024.36V2989.73C6501.18 2982.08 6499.91 2977.23 6497.37 2975.2C6494.83 2973.13 6491.61 2972.1 6487.7 2972.1C6482.62 2972.1 6478.78 2973.62 6476.16 2976.67C6473.54 2979.68 6472.23 2984.85 6472.23 2992.2V3024.36C6472.23 3026.12 6471.36 3027 6469.6 3027H6464.56ZM6525.96 3050.32C6524.75 3049.38 6524.79 3048.23 6526.08 3046.86C6529.6 3043.11 6533.13 3036.79 6536.69 3027.88C6540.24 3019.01 6542.02 3008.09 6542.02 2995.12C6542.02 2982.16 6540.24 2971.24 6536.69 2962.37C6533.13 2953.46 6529.6 2947.14 6526.08 2943.39C6524.79 2942.02 6524.75 2940.87 6525.96 2939.93L6528.02 2938.35C6529.19 2937.45 6530.52 2937.84 6532 2939.52C6538.21 2946.43 6543.35 2954.42 6547.41 2963.48C6551.47 2972.55 6553.5 2983.09 6553.5 2995.12C6553.5 3007.16 6551.47 3017.7 6547.41 3026.77C6543.35 3035.83 6538.21 3043.82 6532 3050.73C6530.52 3052.41 6529.19 3052.8 6528.02 3051.9L6525.96 3050.32Z" fill="white"/>
<path d="M6161.54 3475.99C6161.54 3462.32 6164.89 3451.61 6171.61 3443.88C6178.37 3436.11 6188.1 3432.22 6200.79 3432.22C6213.49 3432.22 6223.2 3436.11 6229.91 3443.88C6236.67 3451.61 6240.05 3462.32 6240.05 3475.99C6240.05 3489.66 6236.67 3500.38 6229.91 3508.16C6223.2 3515.89 6213.49 3519.76 6200.79 3519.76C6188.1 3519.76 6178.37 3515.89 6171.61 3508.16C6164.89 3500.38 6161.54 3489.66 6161.54 3475.99ZM6173.55 3475.99C6173.55 3486.93 6175.79 3495.44 6180.29 3501.54C6184.78 3507.59 6191.61 3510.62 6200.79 3510.62C6209.97 3510.62 6216.81 3507.59 6221.3 3501.54C6225.79 3495.44 6228.04 3486.93 6228.04 3475.99C6228.04 3465.05 6225.79 3456.55 6221.3 3450.5C6216.81 3444.41 6209.97 3441.36 6200.79 3441.36C6191.61 3441.36 6184.78 3444.41 6180.29 3450.5C6175.79 3456.55 6173.55 3465.05 6173.55 3475.99ZM6252.71 3486.12C6252.71 3474.09 6254.74 3463.55 6258.8 3454.48C6262.86 3445.42 6268 3437.43 6274.21 3430.52C6275.7 3428.84 6277.02 3428.45 6278.2 3429.35L6280.25 3430.93C6281.46 3431.87 6281.42 3433.02 6280.13 3434.39C6276.61 3438.14 6273.08 3444.46 6269.52 3453.37C6265.97 3462.24 6264.19 3473.16 6264.19 3486.12C6264.19 3499.09 6265.97 3510.01 6269.52 3518.88C6273.08 3527.79 6276.61 3534.11 6280.13 3537.86C6281.42 3539.23 6281.46 3540.38 6280.25 3541.32L6278.2 3542.9C6277.02 3543.8 6275.7 3543.41 6274.21 3541.73C6268 3534.82 6262.86 3526.83 6258.8 3517.77C6254.74 3508.7 6252.71 3498.16 6252.71 3486.12ZM6295.66 3518C6293.9 3518 6293.02 3517.12 6293.02 3515.36V3442.24C6293.02 3441.46 6293.21 3440.71 6293.61 3440.01L6297.71 3432.57C6298.45 3431.2 6299.05 3430.52 6299.52 3430.52H6301.57C6302.75 3430.52 6303.33 3431.2 6303.33 3432.57V3515.36C6303.33 3517.12 6302.45 3518 6300.7 3518H6295.66ZM6316.63 3487.24C6316.63 3478.06 6319.05 3470.48 6323.9 3464.5C6328.78 3458.49 6335.91 3455.48 6345.29 3455.48C6354.66 3455.48 6361.77 3458.49 6366.61 3464.5C6371.5 3470.48 6373.94 3478.06 6373.94 3487.24C6373.94 3496.42 6371.5 3504.02 6366.61 3510.03C6361.77 3516.01 6354.66 3519 6345.29 3519C6335.91 3519 6328.78 3516.01 6323.9 3510.03C6319.05 3504.02 6316.63 3496.42 6316.63 3487.24ZM6327.53 3487.24C6327.53 3495.44 6329.15 3501.52 6332.39 3505.46C6335.64 3509.41 6339.93 3511.38 6345.29 3511.38C6350.64 3511.38 6354.93 3509.41 6358.18 3505.46C6361.42 3501.52 6363.04 3495.44 6363.04 3487.24C6363.04 3479.04 6361.42 3472.96 6358.18 3469.02C6354.93 3465.07 6350.64 3463.1 6345.29 3463.1C6339.93 3463.1 6335.64 3465.07 6332.39 3469.02C6329.15 3472.96 6327.53 3479.04 6327.53 3487.24ZM6383.9 3487.24C6383.9 3478.84 6385.93 3471.46 6389.99 3465.09C6394.05 3458.68 6399.99 3455.48 6407.8 3455.48C6412.3 3455.48 6415.89 3456.22 6418.59 3457.71C6421.28 3459.19 6423.7 3461.22 6425.85 3463.8H6425.97L6426.32 3459.11C6426.44 3457.36 6427.2 3456.48 6428.61 3456.48H6433.53C6435.29 3456.48 6436.16 3457.36 6436.16 3459.11V3518.47C6436.16 3525.97 6434.43 3531.83 6430.95 3536.05C6427.51 3540.3 6420.7 3542.43 6410.5 3542.43C6403.66 3542.43 6398.55 3541.65 6395.15 3540.09C6391.75 3538.57 6389.33 3536.95 6387.88 3535.23C6386.83 3533.94 6386.77 3532.84 6387.71 3531.95L6390.93 3528.78C6391.83 3527.92 6393.08 3528.2 6394.68 3529.6C6396.75 3531.48 6398.74 3532.8 6400.66 3533.59C6402.57 3534.41 6405.87 3534.82 6410.56 3534.82C6415.87 3534.82 6419.74 3533.68 6422.16 3531.42C6424.62 3529.15 6425.85 3524.46 6425.85 3517.36V3513.84C6425.85 3512.63 6425.89 3511.44 6425.97 3510.27H6425.85C6423.82 3512.96 6421.42 3515.09 6418.64 3516.65C6415.91 3518.21 6412.3 3519 6407.8 3519C6399.99 3519 6394.05 3515.81 6389.99 3509.45C6385.93 3503.04 6383.9 3495.64 6383.9 3487.24ZM6394.8 3487.24C6394.8 3494.43 6396.03 3500.25 6398.49 3504.7C6400.99 3509.15 6405.21 3511.38 6411.14 3511.38C6415.36 3511.38 6418.86 3509.95 6421.63 3507.1C6424.45 3504.21 6425.85 3499.84 6425.85 3493.98V3480.5C6425.85 3474.64 6424.45 3470.29 6421.63 3467.43C6418.86 3464.54 6415.36 3463.1 6411.14 3463.1C6405.21 3463.1 6400.99 3465.32 6398.49 3469.78C6396.03 3474.23 6394.8 3480.05 6394.8 3487.24ZM6495.46 3518C6493.7 3518 6492.82 3517.12 6492.82 3515.36V3459.11C6492.82 3457.36 6493.7 3456.48 6495.46 3456.48H6500.38C6502.14 3456.48 6503.02 3457.36 6503.02 3459.11V3463.8H6503.25C6505.79 3460.99 6508.53 3458.9 6511.46 3457.53C6514.39 3456.16 6518.04 3455.48 6522.41 3455.48C6529.52 3455.48 6534.62 3457.49 6537.71 3461.52C6540.83 3465.5 6542.39 3470.97 6542.39 3477.92V3515.36C6542.39 3517.12 6541.52 3518 6539.76 3518H6534.72C6532.96 3518 6532.08 3517.12 6532.08 3515.36V3480.73C6532.08 3473.08 6530.81 3468.23 6528.27 3466.2C6525.73 3464.13 6522.51 3463.1 6518.61 3463.1C6513.53 3463.1 6509.68 3464.62 6507.06 3467.67C6504.45 3470.68 6503.14 3475.85 6503.14 3483.2V3515.36C6503.14 3517.12 6502.26 3518 6500.5 3518H6495.46ZM6556.87 3541.32C6555.66 3540.38 6555.7 3539.23 6556.98 3537.86C6560.5 3534.11 6564.04 3527.79 6567.59 3518.88C6571.14 3510.01 6572.92 3499.09 6572.92 3486.12C6572.92 3473.16 6571.14 3462.24 6567.59 3453.37C6564.04 3444.46 6560.5 3438.14 6556.98 3434.39C6555.7 3433.02 6555.66 3431.87 6556.87 3430.93L6558.92 3429.35C6560.09 3428.45 6561.42 3428.84 6562.9 3430.52C6569.11 3437.43 6574.25 3445.42 6578.31 3454.48C6582.38 3463.55 6584.41 3474.09 6584.41 3486.12C6584.41 3498.16 6582.38 3508.7 6578.31 3517.77C6574.25 3526.83 6569.11 3534.82 6562.9 3541.73C6561.42 3543.41 6560.09 3543.8 6558.92 3542.9L6556.87 3541.32Z" fill="white"/>
<path d="M6330.73 3713.99C6330.73 3700.32 6334.09 3689.61 6340.8 3681.88C6347.56 3674.11 6357.29 3670.22 6369.98 3670.22C6382.68 3670.22 6392.39 3674.11 6399.11 3681.88C6405.86 3689.61 6409.24 3700.32 6409.24 3713.99C6409.24 3727.66 6405.86 3738.38 6399.11 3746.16C6392.39 3753.89 6382.68 3757.76 6369.98 3757.76C6357.29 3757.76 6347.56 3753.89 6340.8 3746.16C6334.09 3738.38 6330.73 3727.66 6330.73 3713.99ZM6342.74 3713.99C6342.74 3724.93 6344.98 3733.44 6349.48 3739.54C6353.97 3745.59 6360.8 3748.62 6369.98 3748.62C6379.16 3748.62 6386 3745.59 6390.49 3739.54C6394.98 3733.44 6397.23 3724.93 6397.23 3713.99C6397.23 3703.05 6394.98 3694.55 6390.49 3688.5C6386 3682.41 6379.16 3679.36 6369.98 3679.36C6360.8 3679.36 6353.97 3682.41 6349.48 3688.5C6344.98 3694.55 6342.74 3703.05 6342.74 3713.99ZM6421.9 3724.12C6421.9 3712.09 6423.93 3701.55 6427.99 3692.48C6432.05 3683.42 6437.19 3675.43 6443.4 3668.52C6444.89 3666.84 6446.21 3666.45 6447.39 3667.35L6449.44 3668.93C6450.65 3669.87 6450.61 3671.02 6449.32 3672.39C6445.8 3676.14 6442.27 3682.46 6438.71 3691.37C6435.16 3700.24 6433.38 3711.16 6433.38 3724.12C6433.38 3737.09 6435.16 3748.01 6438.71 3756.88C6442.27 3765.79 6445.8 3772.11 6449.32 3775.86C6450.61 3777.23 6450.65 3778.38 6449.44 3779.32L6447.39 3780.9C6446.21 3781.8 6444.89 3781.41 6443.4 3779.73C6437.19 3772.82 6432.05 3764.83 6427.99 3755.77C6423.93 3746.7 6421.9 3736.16 6421.9 3724.12ZM6464.09 3688.56C6463.58 3687.31 6464.05 3686.41 6465.49 3685.86C6468.5 3684.73 6471.35 3682.91 6474.05 3680.41C6476.74 3677.91 6478.87 3675.69 6480.43 3673.73C6481.57 3672.33 6482.66 3671.62 6483.71 3671.62H6488.7C6490.49 3671.62 6491.39 3672.5 6491.39 3674.26V3753.36C6491.39 3755.12 6490.51 3756 6488.75 3756H6483.71C6481.96 3756 6481.08 3755.12 6481.08 3753.36V3689.14C6481.08 3687.97 6481.12 3686.8 6481.2 3685.63H6481.08C6479.87 3687.15 6478.09 3688.71 6475.75 3690.32C6473.4 3691.92 6471.25 3693.09 6469.3 3693.83C6467.58 3694.5 6466.45 3694.18 6465.9 3692.89L6464.09 3688.56ZM6508.68 3779.32C6507.46 3778.38 6507.5 3777.23 6508.79 3775.86C6512.31 3772.11 6515.84 3765.79 6519.4 3756.88C6522.95 3748.01 6524.73 3737.09 6524.73 3724.12C6524.73 3711.16 6522.95 3700.24 6519.4 3691.37C6515.84 3682.46 6512.31 3676.14 6508.79 3672.39C6507.5 3671.02 6507.46 3669.87 6508.68 3668.93L6510.73 3667.35C6511.9 3666.45 6513.23 3666.84 6514.71 3668.52C6520.92 3675.43 6526.06 3683.42 6530.12 3692.48C6534.18 3701.55 6536.21 3712.09 6536.21 3724.12C6536.21 3736.16 6534.18 3746.7 6530.12 3755.77C6526.06 3764.83 6520.92 3772.82 6514.71 3779.73C6513.23 3781.41 6511.9 3781.8 6510.73 3780.9L6508.68 3779.32Z" fill="white"/>
<line x1="329.5" y1="3.27835e-07" x2="329.5" y2="3799" stroke="white" stroke-width="15"/>
<line x1="322" y1="3800.5" x2="6636" y2="3800.5" stroke="white" stroke-width="15"/>
</svg>
