<svg width="1278" height="1278" viewBox="0 0 1278 1278" fill="none" xmlns="http://www.w3.org/2000/svg">
<g filter="url(#filter0_d_155_40)">
<path d="M669.678 723.616L670.14 704.85C670.69 682.446 689.089 664.569 711.596 664.569H861.784C885.084 664.569 903.811 683.677 903.241 706.871L902.829 723.616M669.678 723.616L670.908 923.929C671.031 946.648 689.561 965 712.376 965H862.589C885.578 965 904.18 946.378 904.057 923.486L902.829 723.616M669.678 723.616H902.829M828.744 778.919L841.947 769.729C845.383 767.337 850.1 769.785 850.1 773.959V825.786M726.007 879.266L739.21 870.076C742.646 867.684 747.363 870.132 747.363 874.306V926.132M374 372.048L374.461 353.282C375.012 330.877 393.41 313 415.917 313H566.106C589.406 313 608.132 332.109 607.562 355.302L607.151 372.048M374 372.048L375.23 572.361C375.353 595.079 393.883 613.431 416.698 613.431H566.91C589.9 613.431 608.502 594.809 608.378 571.918L607.151 372.048M374 372.048H607.151M426.747 423.281L439.95 414.091C443.385 411.7 448.103 414.147 448.103 418.322V470.148M537.144 520.982L550.347 511.792C553.782 509.401 558.5 511.848 558.5 516.023V567.849M607.887 794.542H531.19C509.098 794.542 491.19 776.634 491.19 754.542V663.503M491.19 663.503L448.042 706.65M491.19 663.503L534.337 706.65M666.974 491.98H743.672C765.763 491.98 783.672 509.889 783.672 531.98V623.02M783.672 623.02L826.819 579.873M783.672 623.02L740.525 579.873M727.355 786.661V805.862C727.355 816.865 736.313 825.786 747.363 825.786C758.414 825.786 767.372 816.865 767.372 805.862V786.661C767.372 775.658 758.414 766.738 747.363 766.738C736.313 766.738 727.355 775.658 727.355 786.661ZM817.196 887.008V906.209C817.196 917.212 826.154 926.132 837.204 926.132C848.255 926.132 857.213 917.212 857.213 906.209V887.008C857.213 876.004 848.255 867.084 837.204 867.084C826.154 867.084 817.196 876.004 817.196 887.008ZM526.089 431.023V450.224C526.089 461.228 535.047 470.148 546.098 470.148C557.148 470.148 566.106 461.228 566.106 450.224V431.023C566.106 420.02 557.148 411.1 546.098 411.1C535.047 411.1 526.089 420.02 526.089 431.023ZM428.094 528.724V547.925C428.094 558.929 437.053 567.849 448.103 567.849C459.154 567.849 468.112 558.929 468.112 547.925V528.724C468.112 517.721 459.154 508.801 448.103 508.801C437.053 508.801 428.094 517.721 428.094 528.724Z" stroke="#75D573" stroke-width="22" stroke-linecap="round"/>
</g>
<defs>
<filter id="filter0_d_155_40" x="359" y="302" width="560.057" height="682" filterUnits="userSpaceOnUse" color-interpolation-filters="sRGB">
<feFlood flood-opacity="0" result="BackgroundImageFix"/>
<feColorMatrix in="SourceAlpha" type="matrix" values="0 0 0 0 0 0 0 0 0 0 0 0 0 0 0 0 0 0 127 0" result="hardAlpha"/>
<feOffset dy="4"/>
<feGaussianBlur stdDeviation="2"/>
<feComposite in2="hardAlpha" operator="out"/>
<feColorMatrix type="matrix" values="0 0 0 0 0 0 0 0 0 0 0 0 0 0 0 0 0 0 0.25 0"/>
<feBlend mode="normal" in2="BackgroundImageFix" result="effect1_dropShadow_155_40"/>
<feBlend mode="normal" in="SourceGraphic" in2="effect1_dropShadow_155_40" result="shape"/>
</filter>
</defs>
</svg>
