<svg width="1086" height="1543" viewBox="0 0 1086 1543" fill="none" xmlns="http://www.w3.org/2000/svg">
<path d="M346.364 1510C345.265 1510 344.716 1509.45 344.716 1508.35V1473.2C344.716 1472.1 345.265 1471.55 346.364 1471.55H349.513C350.612 1471.55 351.161 1472.1 351.161 1473.2V1508.35C351.161 1509.45 350.612 1510 349.513 1510H346.364ZM346.364 1464.59C345.265 1464.59 344.716 1464.04 344.716 1462.94V1459.79C344.716 1458.69 345.265 1458.14 346.364 1458.14H349.513C350.612 1458.14 351.161 1458.69 351.161 1459.79V1462.94C351.161 1464.04 350.612 1464.59 349.513 1464.59H346.364ZM363.209 1510C362.111 1510 361.562 1509.45 361.562 1508.35V1473.2C361.562 1472.1 362.111 1471.55 363.209 1471.55H366.286C367.384 1471.55 367.934 1472.1 367.934 1473.2V1476.13H368.08C369.667 1474.37 371.376 1473.06 373.207 1472.21C375.038 1471.35 377.321 1470.93 380.055 1470.93C384.499 1470.93 387.685 1472.18 389.613 1474.7C391.566 1477.19 392.543 1480.61 392.543 1484.95V1508.35C392.543 1509.45 391.994 1510 390.895 1510H387.746C386.647 1510 386.098 1509.45 386.098 1508.35V1486.71C386.098 1481.92 385.304 1478.9 383.717 1477.63C382.13 1476.33 380.116 1475.69 377.675 1475.69C374.501 1475.69 372.096 1476.64 370.46 1478.54C368.825 1480.42 368.007 1483.66 368.007 1488.25V1508.35C368.007 1509.45 367.458 1510 366.359 1510H363.209ZM401.002 1476.38C399.904 1476.38 399.354 1475.95 399.354 1475.1V1472.83C399.354 1471.98 399.904 1471.55 401.002 1471.55H405.324V1468.25C405.324 1467.76 405.446 1467.3 405.69 1466.86L408.253 1462.21C408.717 1461.35 409.096 1460.93 409.389 1460.93H410.67C411.403 1460.93 411.769 1461.35 411.769 1462.21V1471.55H419.569C420.668 1471.55 421.217 1471.98 421.217 1472.83V1475.1C421.217 1475.95 420.668 1476.38 419.569 1476.38H411.769V1499.71C411.769 1502.27 412.147 1503.95 412.904 1504.73C413.686 1505.48 414.613 1505.86 415.688 1505.86C416.518 1505.86 417.506 1505.62 418.654 1505.13C419.826 1504.64 420.631 1504.23 421.071 1503.88C421.51 1503.54 421.852 1503.65 422.096 1504.21L423.305 1507.03C423.5 1507.52 423.354 1507.91 422.865 1508.21C421.913 1508.77 420.521 1509.32 418.69 1509.85C416.859 1510.37 415.028 1510.62 413.197 1510.62C410.658 1510.62 408.705 1509.71 407.338 1507.88C405.995 1506.04 405.324 1503.46 405.324 1500.11V1476.38H401.002ZM428.542 1490.77C428.542 1484.72 430.055 1479.9 433.083 1476.31C436.11 1472.72 440.443 1470.93 446.083 1470.93C450.771 1470.93 454.652 1472.57 457.729 1475.87C460.829 1479.14 462.379 1484.38 462.379 1491.58C462.379 1492.68 461.879 1493.23 460.878 1493.23H435.353C435.768 1497.94 437.038 1501.22 439.162 1503.08C441.286 1504.91 443.69 1505.83 446.376 1505.83C449.208 1505.83 451.381 1505.35 452.895 1504.4C454.408 1503.44 455.519 1502.5 456.227 1501.58C457.008 1500.55 457.765 1500.36 458.498 1500.99L460.658 1502.86C461.22 1503.35 461.22 1504.02 460.658 1504.87C460.194 1505.58 458.864 1506.72 456.667 1508.28C454.494 1509.84 451.063 1510.62 446.376 1510.62C440.272 1510.62 435.768 1508.83 432.863 1505.24C429.982 1501.65 428.542 1496.83 428.542 1490.77ZM435.207 1488.47H455.897C455.8 1485.05 454.921 1482.06 453.261 1479.49C451.601 1476.91 449.159 1475.61 445.937 1475.61C443.104 1475.61 440.7 1476.56 438.722 1478.47C436.745 1480.35 435.573 1483.68 435.207 1488.47ZM472.487 1510C471.388 1510 470.839 1509.45 470.839 1508.35V1462.65C470.839 1462.16 470.961 1461.7 471.205 1461.26L473.769 1456.61C474.232 1455.75 474.611 1455.32 474.904 1455.32H476.186C476.918 1455.32 477.284 1455.75 477.284 1456.61V1508.35C477.284 1509.45 476.735 1510 475.636 1510H472.487Z" fill="white"/>
<path d="M89.2666 599.899C89.055 599.379 89.2503 599.004 89.8525 598.776C91.1058 598.304 92.2939 597.548 93.417 596.506C94.54 595.464 95.4271 594.536 96.0781 593.723C96.5501 593.137 97.0059 592.844 97.4453 592.844H99.5205C100.269 592.844 100.644 593.21 100.644 593.942V626.901C100.644 627.634 100.277 628 99.5449 628H97.4453C96.7129 628 96.3467 627.634 96.3467 626.901V600.144C96.3467 599.655 96.363 599.167 96.3955 598.679H96.3467C95.8421 599.313 95.1016 599.965 94.125 600.632C93.1484 601.299 92.2533 601.787 91.4395 602.097C90.7233 602.373 90.2513 602.243 90.0234 601.706L89.2666 599.899ZM111.19 628C110.458 628 110.092 627.634 110.092 626.901V623.923C110.092 623.19 110.458 622.824 111.19 622.824H113.925C114.657 622.824 115.023 623.19 115.023 623.923V626.901C115.023 627.634 114.657 628 113.925 628H111.19ZM122.152 610.642C122.152 604.945 122.934 600.51 124.496 597.336C126.059 594.146 129.037 592.551 133.432 592.551C137.826 592.551 140.805 594.146 142.367 597.336C143.93 600.51 144.711 604.945 144.711 610.642C144.711 616.338 143.93 620.782 142.367 623.972C140.805 627.146 137.826 628.732 133.432 628.732C129.037 628.732 126.059 627.146 124.496 623.972C122.934 620.782 122.152 616.338 122.152 610.642ZM126.693 610.642C126.693 615.199 127.084 618.771 127.865 621.359C128.646 623.931 130.502 625.217 133.432 625.217C136.361 625.217 138.217 623.931 138.998 621.359C139.779 618.771 140.17 615.199 140.17 610.642C140.17 606.084 139.779 602.52 138.998 599.948C138.217 597.36 136.361 596.066 133.432 596.066C130.502 596.066 128.646 597.36 127.865 599.948C127.084 602.52 126.693 606.084 126.693 610.642Z" fill="white"/>
<path d="M89.2666 207.899C89.055 207.379 89.2503 207.004 89.8525 206.776C91.1058 206.304 92.2939 205.548 93.417 204.506C94.54 203.464 95.4271 202.536 96.0781 201.723C96.5501 201.137 97.0059 200.844 97.4453 200.844H99.5205C100.269 200.844 100.644 201.21 100.644 201.942V234.901C100.644 235.634 100.277 236 99.5449 236H97.4453C96.7129 236 96.3467 235.634 96.3467 234.901V208.144C96.3467 207.655 96.363 207.167 96.3955 206.679H96.3467C95.8421 207.313 95.1016 207.965 94.125 208.632C93.1484 209.299 92.2533 209.787 91.4395 210.097C90.7233 210.373 90.2513 210.243 90.0234 209.706L89.2666 207.899ZM111.19 236C110.458 236 110.092 235.634 110.092 234.901V231.923C110.092 231.19 110.458 230.824 111.19 230.824H113.925C114.657 230.824 115.023 231.19 115.023 231.923V234.901C115.023 235.634 114.657 236 113.925 236H111.19ZM123.373 232.021C122.755 231.207 122.681 230.588 123.153 230.165L124.667 228.822C125.22 228.334 125.863 228.537 126.596 229.433C127.035 229.97 127.808 230.71 128.915 231.654C130.022 232.598 131.462 233.07 133.236 233.07C135.564 233.07 137.313 232.354 138.485 230.922C139.674 229.49 140.268 227.593 140.268 225.233C140.268 223.004 139.763 221.246 138.754 219.96C137.745 218.674 136.231 218.031 134.213 218.031C132.96 218.031 131.918 218.153 131.088 218.397C130.258 218.642 129.395 219.154 128.5 219.936C127.882 220.473 127.23 220.741 126.547 220.741H125.399C124.667 220.741 124.301 220.375 124.301 219.643V202.382C124.301 201.649 124.667 201.283 125.399 201.283H142.245C142.978 201.283 143.344 201.649 143.344 202.382V204.188C143.344 204.921 142.978 205.287 142.245 205.287H128.598V214.931C128.598 215.419 128.581 215.907 128.549 216.396H128.646C129.558 215.631 130.624 215.102 131.845 214.809C133.065 214.516 134.197 214.369 135.238 214.369C138.266 214.369 140.658 215.378 142.416 217.396C144.174 219.415 145.053 222.06 145.053 225.331C145.053 228.896 143.995 231.687 141.879 233.705C139.779 235.723 136.915 236.732 133.285 236.732C130.632 236.732 128.492 236.187 126.864 235.097C125.253 233.99 124.089 232.965 123.373 232.021Z" fill="white"/>
<path d="M83.8467 1002.64C83.8467 996.945 84.6279 992.51 86.1904 989.336C87.7529 986.146 90.7314 984.551 95.126 984.551C99.5205 984.551 102.499 986.146 104.062 989.336C105.624 992.51 106.405 996.945 106.405 1002.64C106.405 1008.34 105.624 1012.78 104.062 1015.97C102.499 1019.15 99.5205 1020.73 95.126 1020.73C90.7314 1020.73 87.7529 1019.15 86.1904 1015.97C84.6279 1012.78 83.8467 1008.34 83.8467 1002.64ZM88.3877 1002.64C88.3877 1007.2 88.7783 1010.77 89.5596 1013.36C90.3408 1015.93 92.1963 1017.22 95.126 1017.22C98.0557 1017.22 99.9111 1015.93 100.692 1013.36C101.474 1010.77 101.864 1007.2 101.864 1002.64C101.864 998.084 101.474 994.52 100.692 991.948C99.9111 989.36 98.0557 988.066 95.126 988.066C92.1963 988.066 90.3408 989.36 89.5596 991.948C88.7783 994.52 88.3877 998.084 88.3877 1002.64ZM114.633 1020C113.9 1020 113.534 1019.63 113.534 1018.9V1015.92C113.534 1015.19 113.9 1014.82 114.633 1014.82H117.367C118.1 1014.82 118.466 1015.19 118.466 1015.92V1018.9C118.466 1019.63 118.1 1020 117.367 1020H114.633ZM126.815 1016.02C126.197 1015.21 126.124 1014.59 126.596 1014.17L128.109 1012.82C128.663 1012.33 129.306 1012.54 130.038 1013.43C130.478 1013.97 131.251 1014.71 132.357 1015.65C133.464 1016.6 134.905 1017.07 136.679 1017.07C139.006 1017.07 140.756 1016.35 141.928 1014.92C143.116 1013.49 143.71 1011.59 143.71 1009.23C143.71 1007 143.205 1005.25 142.196 1003.96C141.187 1002.67 139.674 1002.03 137.655 1002.03C136.402 1002.03 135.36 1002.15 134.53 1002.4C133.7 1002.64 132.838 1003.15 131.942 1003.94C131.324 1004.47 130.673 1004.74 129.989 1004.74H128.842C128.109 1004.74 127.743 1004.38 127.743 1003.64V986.382C127.743 985.649 128.109 985.283 128.842 985.283H145.688C146.42 985.283 146.786 985.649 146.786 986.382V988.188C146.786 988.921 146.42 989.287 145.688 989.287H132.04V998.931C132.04 999.419 132.024 999.907 131.991 1000.4H132.089C133 999.631 134.066 999.102 135.287 998.809C136.508 998.516 137.639 998.369 138.681 998.369C141.708 998.369 144.101 999.378 145.858 1001.4C147.616 1003.41 148.495 1006.06 148.495 1009.33C148.495 1012.9 147.437 1015.69 145.321 1017.71C143.222 1019.72 140.357 1020.73 136.728 1020.73C134.075 1020.73 131.934 1020.19 130.307 1019.1C128.695 1017.99 127.532 1016.96 126.815 1016.02Z" fill="white"/>
<path d="M726.298 1494.77C726.298 1489.52 727.567 1484.91 730.106 1480.93C732.646 1476.93 736.356 1474.93 741.239 1474.93C744.047 1474.93 746.293 1475.39 747.978 1476.32C749.662 1477.24 751.176 1478.51 752.519 1480.13H752.592L752.812 1477.2C752.885 1476.1 753.361 1475.55 754.24 1475.55H757.316C758.415 1475.55 758.964 1476.1 758.964 1477.2V1514.29C758.964 1518.98 757.877 1522.64 755.705 1525.28C753.556 1527.94 749.296 1529.27 742.924 1529.27C738.651 1529.27 735.453 1528.78 733.329 1527.81C731.205 1526.85 729.691 1525.84 728.788 1524.77C728.129 1523.96 728.092 1523.28 728.678 1522.72L730.692 1520.74C731.254 1520.2 732.035 1520.37 733.036 1521.25C734.33 1522.42 735.575 1523.25 736.771 1523.74C737.968 1524.25 740.031 1524.51 742.96 1524.51C746.281 1524.51 748.698 1523.8 750.211 1522.39C751.75 1520.97 752.519 1518.04 752.519 1513.6V1511.4C752.519 1510.64 752.543 1509.9 752.592 1509.17H752.519C751.249 1510.85 749.748 1512.18 748.014 1513.16C746.305 1514.13 744.047 1514.62 741.239 1514.62C736.356 1514.62 732.646 1512.63 730.106 1508.65C727.567 1504.65 726.298 1500.02 726.298 1494.77ZM733.109 1494.77C733.109 1499.27 733.878 1502.9 735.417 1505.69C736.979 1508.47 739.616 1509.86 743.327 1509.86C745.963 1509.86 748.148 1508.97 749.882 1507.19C751.64 1505.38 752.519 1502.65 752.519 1498.99V1490.56C752.519 1486.9 751.64 1484.18 749.882 1482.4C748.148 1480.59 745.963 1479.69 743.327 1479.69C739.616 1479.69 736.979 1481.08 735.417 1483.86C733.878 1486.64 733.109 1490.28 733.109 1494.77ZM771.049 1514C769.95 1514 769.401 1513.45 769.401 1512.35V1477.2C769.401 1476.1 769.95 1475.55 771.049 1475.55H774.125C775.224 1475.55 775.773 1476.1 775.773 1477.2V1481.59H775.919C777.091 1479.39 778.471 1477.73 780.058 1476.61C781.645 1475.49 783.622 1474.93 785.99 1474.93C787.553 1474.93 788.651 1475.06 789.286 1475.33C789.848 1475.55 790.055 1475.91 789.909 1476.43L789.066 1479.43C788.944 1479.87 788.627 1480.04 788.114 1479.94C787.26 1479.77 786.454 1479.69 785.697 1479.69C782.841 1479.69 780.485 1480.98 778.629 1483.57C776.774 1486.13 775.846 1489.63 775.846 1494.08V1512.35C775.846 1513.45 775.297 1514 774.198 1514H771.049ZM793.754 1503.75C793.754 1499.4 795.78 1496.21 799.833 1494.19C803.91 1492.16 809.989 1490.98 818.07 1490.64V1488.15C818.07 1485.85 817.545 1483.87 816.496 1482.21C815.47 1480.53 813.419 1479.69 810.343 1479.69C808.39 1479.69 806.828 1479.88 805.656 1480.27C804.484 1480.64 803.41 1481.14 802.433 1481.77C801.481 1482.38 800.565 1483.18 799.687 1484.15C799.027 1484.89 798.405 1484.92 797.819 1484.26L795.915 1482.07C795.377 1481.46 795.561 1480.72 796.464 1479.87C797.758 1478.65 799.015 1477.73 800.236 1477.12C801.457 1476.51 802.97 1476 804.777 1475.58C806.608 1475.15 808.463 1474.93 810.343 1474.93C815.446 1474.93 819.083 1476.24 821.256 1478.88C823.429 1481.49 824.516 1485.08 824.516 1489.65V1512.35C824.516 1513.45 823.966 1514 822.868 1514H819.572C818.62 1514 818.144 1513.45 818.144 1512.35V1510.56H818.07C816.142 1512.07 814.25 1513.13 812.394 1513.74C810.563 1514.33 808.512 1514.62 806.242 1514.62C802.238 1514.62 799.149 1513.67 796.977 1511.77C794.828 1509.84 793.754 1507.16 793.754 1503.75ZM800.419 1503.89C800.419 1505.41 800.736 1506.63 801.371 1507.55C802.006 1508.46 802.885 1509.04 804.008 1509.31C805.131 1509.56 806.303 1509.68 807.523 1509.68C809.403 1509.68 811.186 1509.5 812.87 1509.13C814.555 1508.76 816.288 1507.8 818.07 1506.24V1495.43C813.139 1495.8 809.623 1496.25 807.523 1496.79C805.424 1497.3 803.715 1498.2 802.396 1499.5C801.078 1500.77 800.419 1502.23 800.419 1503.89ZM832.023 1477.34C831.608 1476.15 831.938 1475.55 833.012 1475.55H837.003C837.785 1475.55 838.334 1476.02 838.651 1476.98L846.415 1501.15C847.05 1503.12 847.477 1504.49 847.697 1505.25C847.941 1505.98 848.161 1506.9 848.356 1507.99H848.502C848.698 1506.9 848.905 1505.98 849.125 1505.25C849.369 1504.49 849.809 1503.12 850.443 1501.15L858.207 1476.98C858.524 1476.02 859.074 1475.55 859.855 1475.55H863.847C864.921 1475.55 865.25 1476.15 864.835 1477.34L852.824 1511.77C852.311 1513.26 851.652 1514 850.846 1514H846.012C845.207 1514 844.547 1513.26 844.035 1511.77L832.023 1477.34ZM872.709 1514C871.61 1514 871.061 1513.45 871.061 1512.35V1477.2C871.061 1476.1 871.61 1475.55 872.709 1475.55H875.858C876.957 1475.55 877.506 1476.1 877.506 1477.2V1512.35C877.506 1513.45 876.957 1514 875.858 1514H872.709ZM872.709 1468.59C871.61 1468.59 871.061 1468.04 871.061 1466.94V1463.79C871.061 1462.69 871.61 1462.14 872.709 1462.14H875.858C876.957 1462.14 877.506 1462.69 877.506 1463.79V1466.94C877.506 1468.04 876.957 1468.59 875.858 1468.59H872.709ZM886.039 1480.38C884.94 1480.38 884.391 1479.95 884.391 1479.1V1476.83C884.391 1475.98 884.94 1475.55 886.039 1475.55H890.36V1472.25C890.36 1471.76 890.482 1471.3 890.727 1470.86L893.29 1466.21C893.754 1465.35 894.132 1464.93 894.425 1464.93H895.707C896.439 1464.93 896.806 1465.35 896.806 1466.21V1475.55H904.606C905.705 1475.55 906.254 1475.98 906.254 1476.83V1479.1C906.254 1479.95 905.705 1480.38 904.606 1480.38H896.806V1503.71C896.806 1506.27 897.184 1507.95 897.941 1508.73C898.722 1509.48 899.65 1509.86 900.724 1509.86C901.554 1509.86 902.543 1509.62 903.69 1509.13C904.862 1508.64 905.668 1508.23 906.107 1507.88C906.547 1507.54 906.889 1507.65 907.133 1508.21L908.341 1511.03C908.537 1511.52 908.39 1511.91 907.902 1512.21C906.95 1512.77 905.558 1513.32 903.727 1513.85C901.896 1514.37 900.065 1514.62 898.234 1514.62C895.695 1514.62 893.742 1513.71 892.375 1511.88C891.032 1510.04 890.36 1507.46 890.36 1504.11V1480.38H886.039ZM913.578 1494.77C913.578 1489.04 915.092 1484.3 918.119 1480.56C921.171 1476.81 925.626 1474.93 931.486 1474.93C937.345 1474.93 941.789 1476.81 944.816 1480.56C947.868 1484.3 949.394 1489.04 949.394 1494.77C949.394 1500.51 947.868 1505.26 944.816 1509.02C941.789 1512.75 937.345 1514.62 931.486 1514.62C925.626 1514.62 921.171 1512.75 918.119 1509.02C915.092 1505.26 913.578 1500.51 913.578 1494.77ZM920.39 1494.77C920.39 1499.9 921.403 1503.7 923.429 1506.16C925.456 1508.63 928.141 1509.86 931.486 1509.86C934.831 1509.86 937.516 1508.63 939.542 1506.16C941.569 1503.7 942.582 1499.9 942.582 1494.77C942.582 1489.65 941.569 1485.85 939.542 1483.38C937.516 1480.92 934.831 1479.69 931.486 1479.69C928.141 1479.69 925.456 1480.92 923.429 1483.38C921.403 1485.85 920.39 1489.65 920.39 1494.77ZM959.354 1514C958.256 1514 957.707 1513.45 957.707 1512.35V1477.2C957.707 1476.1 958.256 1475.55 959.354 1475.55H962.431C963.529 1475.55 964.079 1476.1 964.079 1477.2V1480.13H964.225C965.812 1478.37 967.521 1477.06 969.352 1476.21C971.183 1475.35 973.466 1474.93 976.2 1474.93C980.644 1474.93 983.83 1476.18 985.758 1478.7C987.711 1481.19 988.688 1484.61 988.688 1488.95V1512.35C988.688 1513.45 988.139 1514 987.04 1514H983.891C982.792 1514 982.243 1513.45 982.243 1512.35V1490.71C982.243 1485.92 981.449 1482.9 979.862 1481.63C978.275 1480.33 976.261 1479.69 973.82 1479.69C970.646 1479.69 968.241 1480.64 966.605 1482.54C964.97 1484.42 964.152 1487.66 964.152 1492.25V1512.35C964.152 1513.45 963.603 1514 962.504 1514H959.354Z" fill="white"/>
<path d="M327.515 42.8467C327.061 42.4219 326.965 42.0264 327.229 41.6602L328.218 40.2759C328.54 39.8364 329.016 39.8584 329.646 40.3418C330.51 41.001 331.47 41.5283 332.524 41.9238C333.594 42.3193 334.81 42.5171 336.172 42.5171C336.978 42.5171 337.695 42.4219 338.325 42.2314C338.955 42.0264 339.504 41.6528 339.973 41.1108C340.457 40.5688 340.698 39.8438 340.698 38.9355C340.698 38.4082 340.581 37.9102 340.347 37.4414C340.127 36.9727 339.775 36.5991 339.292 36.3208C338.823 36.0278 338.362 35.8008 337.908 35.6396C337.161 35.3613 336.414 35.1343 335.667 34.9585C334.934 34.7681 333.967 34.4824 332.766 34.1016C331.96 33.8525 331.199 33.501 330.481 33.0469C329.763 32.5781 329.133 31.9482 328.591 31.1572C328.064 30.3662 327.8 29.2749 327.8 27.8833C327.8 26.4624 328.232 25.2393 329.097 24.2139C329.961 23.1885 331.045 22.4927 332.349 22.1265C333.652 21.7456 334.919 21.5552 336.15 21.5552C337.966 21.5552 339.424 21.7676 340.522 22.1924C341.636 22.6025 342.595 23.0933 343.401 23.6646C343.87 24.0015 343.936 24.3896 343.599 24.8291L342.61 26.1475C342.302 26.5723 341.826 26.5576 341.182 26.1035C340.64 25.7227 339.871 25.3638 338.875 25.0269C337.878 24.6899 337.007 24.5215 336.26 24.5215C335.337 24.5215 334.546 24.624 333.887 24.8291C333.228 25.0342 332.693 25.3857 332.283 25.8838C331.873 26.3818 331.667 26.9678 331.667 27.6416C331.667 28.1543 331.748 28.6157 331.909 29.0259C332.07 29.4214 332.371 29.7876 332.81 30.1245C333.25 30.4614 333.865 30.7324 334.656 30.9375C335.886 31.2598 337.007 31.5527 338.018 31.8164C339.043 32.0801 339.966 32.4023 340.786 32.7832C341.855 33.2812 342.676 33.8306 343.247 34.4312C343.833 35.0317 344.236 35.6836 344.456 36.3867C344.675 37.0752 344.785 37.8442 344.785 38.6938C344.785 40.2612 344.316 41.5869 343.379 42.6709C342.456 43.7549 341.423 44.48 340.281 44.8462C339.138 45.1978 337.761 45.3735 336.15 45.3735C333.967 45.3735 332.092 45.0659 330.525 44.4507C328.972 43.8208 327.969 43.2861 327.515 42.8467ZM347.905 38.8477C347.905 36.2402 349.121 34.3286 351.553 33.1128C353.999 31.897 357.646 31.1865 362.495 30.9814V29.4873C362.495 28.1104 362.18 26.9238 361.55 25.9277C360.935 24.917 359.705 24.4116 357.859 24.4116C356.687 24.4116 355.75 24.5288 355.046 24.7632C354.343 24.9829 353.699 25.2832 353.113 25.6641C352.542 26.0303 351.992 26.5063 351.465 27.0923C351.069 27.5317 350.696 27.5537 350.344 27.1582L349.202 25.8398C348.879 25.4736 348.989 25.0342 349.531 24.5215C350.308 23.7891 351.062 23.2397 351.794 22.8735C352.527 22.5073 353.435 22.1997 354.519 21.9507C355.618 21.687 356.731 21.5552 357.859 21.5552C360.92 21.5552 363.103 22.3462 364.407 23.9282C365.71 25.4956 366.362 27.6489 366.362 30.3882V44.0112C366.362 44.6704 366.033 45 365.374 45H363.396C362.825 45 362.539 44.6704 362.539 44.0112V42.9346H362.495C361.338 43.8428 360.203 44.48 359.089 44.8462C357.991 45.1978 356.76 45.3735 355.398 45.3735C352.996 45.3735 351.143 44.8022 349.839 43.6597C348.55 42.5024 347.905 40.8984 347.905 38.8477ZM351.904 38.9355C351.904 39.8438 352.095 40.5762 352.476 41.1328C352.856 41.6748 353.384 42.0264 354.058 42.1875C354.731 42.334 355.435 42.4072 356.167 42.4072C357.295 42.4072 358.364 42.2974 359.375 42.0776C360.386 41.8579 361.426 41.2793 362.495 40.3418V33.8599C359.536 34.0796 357.427 34.3506 356.167 34.6729C354.907 34.9805 353.882 35.5225 353.091 36.2988C352.3 37.0605 351.904 37.9395 351.904 38.9355ZM373.613 45C372.954 45 372.625 44.6704 372.625 44.0112V22.9175C372.625 22.2583 372.954 21.9287 373.613 21.9287H375.459C376.118 21.9287 376.448 22.2583 376.448 22.9175V24.6753H376.536C377.488 23.6206 378.521 22.8369 379.634 22.3242C380.747 21.8115 381.816 21.5552 382.842 21.5552C384.731 21.5552 386.182 22.0312 387.192 22.9834C388.218 23.9209 388.877 24.8657 389.17 25.8179H389.258C390.063 24.6167 391.082 23.606 392.312 22.7856C393.542 21.9653 394.854 21.5552 396.245 21.5552C398.574 21.5552 400.332 22.3096 401.519 23.8184C402.705 25.3125 403.298 27.3633 403.298 29.9707V44.0112C403.298 44.6704 402.969 45 402.31 45H400.42C399.761 45 399.431 44.6704 399.431 44.0112V31.2451C399.431 28.374 399.072 26.521 398.354 25.686C397.637 24.8364 396.531 24.4116 395.037 24.4116C393.572 24.4116 392.349 25.0415 391.367 26.3013C390.386 27.5464 389.895 29.4287 389.895 31.9482V44.0112C389.895 44.6704 389.565 45 388.906 45H387.017C386.357 45 386.028 44.6704 386.028 44.0112V31.2451C386.028 28.374 385.669 26.521 384.951 25.686C384.233 24.8364 383.127 24.4116 381.633 24.4116C380.168 24.4116 378.945 24.9829 377.964 26.1255C376.982 27.2534 376.492 29.1943 376.492 31.9482V44.0112C376.492 44.6704 376.162 45 375.503 45H373.613ZM408.242 33.4644C408.242 29.8315 409.15 26.9385 410.967 24.7852C412.783 22.6318 415.383 21.5552 418.767 21.5552C421.58 21.5552 423.909 22.5439 425.754 24.5215C427.615 26.4844 428.545 29.6265 428.545 33.9478C428.545 34.6069 428.245 34.9365 427.644 34.9365H412.329C412.578 37.7637 413.34 39.7339 414.614 40.8472C415.889 41.9458 417.332 42.4951 418.943 42.4951C420.642 42.4951 421.946 42.2095 422.854 41.6382C423.762 41.0669 424.429 40.5029 424.854 39.9463C425.322 39.3311 425.776 39.2139 426.216 39.5947L427.512 40.7153C427.849 41.0083 427.849 41.4111 427.512 41.9238C427.234 42.3486 426.436 43.0298 425.117 43.9673C423.813 44.9048 421.755 45.3735 418.943 45.3735C415.281 45.3735 412.578 44.2969 410.835 42.1436C409.106 39.9902 408.242 37.0972 408.242 33.4644ZM412.241 32.0801H424.656C424.597 30.0293 424.07 28.2349 423.074 26.6968C422.078 25.144 420.613 24.3677 418.679 24.3677C416.98 24.3677 415.537 24.939 414.351 26.0815C413.164 27.2095 412.461 29.209 412.241 32.0801ZM447.354 33.4644C447.354 30.022 448.203 27.1802 449.902 24.939C451.616 22.6831 454.231 21.5552 457.747 21.5552C460.12 21.5552 461.929 21.98 463.174 22.8296C464.434 23.6646 465.342 24.5215 465.898 25.4004C466.206 25.8838 466.14 26.272 465.701 26.5649L464.316 27.4658C463.877 27.7734 463.438 27.5757 462.998 26.8726C462.573 26.1987 461.973 25.6201 461.196 25.1367C460.435 24.6533 459.285 24.4116 457.747 24.4116C455.74 24.4116 454.187 25.1514 453.088 26.6309C451.99 28.1104 451.44 30.3882 451.44 33.4644C451.44 36.5405 451.99 38.8184 453.088 40.2979C454.187 41.7773 455.74 42.5171 457.747 42.5171C459.373 42.5171 460.618 42.2095 461.482 41.5942C462.346 40.9644 462.976 40.2832 463.372 39.5508C463.752 38.8623 464.185 38.6646 464.668 38.9575L466.14 39.8364C466.58 40.1001 466.646 40.4956 466.338 41.0229C465.972 41.6528 465.137 42.5391 463.833 43.6816C462.544 44.8096 460.515 45.3735 457.747 45.3735C454.231 45.3735 451.616 44.2529 449.902 42.0117C448.203 39.7559 447.354 36.9067 447.354 33.4644ZM469.897 38.8477C469.897 36.2402 471.113 34.3286 473.545 33.1128C475.991 31.897 479.639 31.1865 484.487 30.9814V29.4873C484.487 28.1104 484.172 26.9238 483.542 25.9277C482.927 24.917 481.697 24.4116 479.851 24.4116C478.679 24.4116 477.742 24.5288 477.039 24.7632C476.335 24.9829 475.691 25.2832 475.105 25.6641C474.534 26.0303 473.984 26.5063 473.457 27.0923C473.062 27.5317 472.688 27.5537 472.336 27.1582L471.194 25.8398C470.872 25.4736 470.981 25.0342 471.523 24.5215C472.3 23.7891 473.054 23.2397 473.787 22.8735C474.519 22.5073 475.427 22.1997 476.511 21.9507C477.61 21.687 478.723 21.5552 479.851 21.5552C482.913 21.5552 485.095 22.3462 486.399 23.9282C487.703 25.4956 488.354 27.6489 488.354 30.3882V44.0112C488.354 44.6704 488.025 45 487.366 45H485.388C484.817 45 484.531 44.6704 484.531 44.0112V42.9346H484.487C483.33 43.8428 482.195 44.48 481.082 44.8462C479.983 45.1978 478.752 45.3735 477.39 45.3735C474.988 45.3735 473.135 44.8022 471.831 43.6597C470.542 42.5024 469.897 40.8984 469.897 38.8477ZM473.896 38.9355C473.896 39.8438 474.087 40.5762 474.468 41.1328C474.849 41.6748 475.376 42.0264 476.05 42.1875C476.724 42.334 477.427 42.4072 478.159 42.4072C479.287 42.4072 480.356 42.2974 481.367 42.0776C482.378 41.8579 483.418 41.2793 484.487 40.3418V33.8599C481.528 34.0796 479.419 34.3506 478.159 34.6729C476.899 34.9805 475.874 35.5225 475.083 36.2988C474.292 37.0605 473.896 37.9395 473.896 38.9355ZM495.605 45C494.946 45 494.617 44.6704 494.617 44.0112V16.5894C494.617 16.2964 494.69 16.0181 494.836 15.7544L496.375 12.9639C496.653 12.4512 496.88 12.1948 497.056 12.1948H497.825C498.264 12.1948 498.484 12.4512 498.484 12.9639V44.0112C498.484 44.6704 498.154 45 497.495 45H495.605ZM503.472 33.4644C503.472 30.022 504.321 27.1802 506.021 24.939C507.734 22.6831 510.349 21.5552 513.865 21.5552C516.238 21.5552 518.047 21.98 519.292 22.8296C520.552 23.6646 521.46 24.5215 522.017 25.4004C522.324 25.8838 522.258 26.272 521.819 26.5649L520.435 27.4658C519.995 27.7734 519.556 27.5757 519.116 26.8726C518.691 26.1987 518.091 25.6201 517.314 25.1367C516.553 24.6533 515.403 24.4116 513.865 24.4116C511.858 24.4116 510.305 25.1514 509.207 26.6309C508.108 28.1104 507.559 30.3882 507.559 33.4644C507.559 36.5405 508.108 38.8184 509.207 40.2979C510.305 41.7773 511.858 42.5171 513.865 42.5171C515.491 42.5171 516.736 42.2095 517.6 41.5942C518.464 40.9644 519.094 40.2832 519.49 39.5508C519.871 38.8623 520.303 38.6646 520.786 38.9575L522.258 39.8364C522.698 40.1001 522.764 40.4956 522.456 41.0229C522.09 41.6528 521.255 42.5391 519.951 43.6816C518.662 44.8096 516.633 45.3735 513.865 45.3735C510.349 45.3735 507.734 44.2529 506.021 42.0117C504.321 39.7559 503.472 36.9067 503.472 33.4644ZM527.224 36.958V22.9175C527.224 22.2583 527.554 21.9287 528.213 21.9287H530.103C530.762 21.9287 531.091 22.2583 531.091 22.9175V35.9033C531.091 38.7744 531.567 40.5981 532.52 41.3745C533.472 42.1362 534.651 42.5171 536.057 42.5171C537.903 42.5171 539.316 41.9531 540.298 40.8252C541.279 39.6826 541.77 37.7344 541.77 34.9805V22.9175C541.77 22.2583 542.1 21.9287 542.759 21.9287H544.648C545.308 21.9287 545.637 22.2583 545.637 22.9175V44.0112C545.637 44.6704 545.308 45 544.648 45H542.803C542.144 45 541.814 44.6704 541.814 44.0112V42.2534H541.726C540.774 43.3081 539.749 44.0918 538.65 44.6045C537.551 45.1172 536.211 45.3735 534.629 45.3735C532.065 45.3735 530.19 44.6265 529.004 43.1323C527.817 41.6235 527.224 39.5654 527.224 36.958ZM552.866 45C552.207 45 551.877 44.6704 551.877 44.0112V16.5894C551.877 16.2964 551.951 16.0181 552.097 15.7544L553.635 12.9639C553.914 12.4512 554.141 12.1948 554.316 12.1948H555.085C555.525 12.1948 555.745 12.4512 555.745 12.9639V44.0112C555.745 44.6704 555.415 45 554.756 45H552.866ZM560.732 38.8477C560.732 36.2402 561.948 34.3286 564.38 33.1128C566.826 31.897 570.474 31.1865 575.322 30.9814V29.4873C575.322 28.1104 575.007 26.9238 574.377 25.9277C573.762 24.917 572.532 24.4116 570.686 24.4116C569.514 24.4116 568.577 24.5288 567.874 24.7632C567.17 24.9829 566.526 25.2832 565.94 25.6641C565.369 26.0303 564.819 26.5063 564.292 27.0923C563.896 27.5317 563.523 27.5537 563.171 27.1582L562.029 25.8398C561.707 25.4736 561.816 25.0342 562.358 24.5215C563.135 23.7891 563.889 23.2397 564.622 22.8735C565.354 22.5073 566.262 22.1997 567.346 21.9507C568.445 21.687 569.558 21.5552 570.686 21.5552C573.748 21.5552 575.93 22.3462 577.234 23.9282C578.538 25.4956 579.189 27.6489 579.189 30.3882V44.0112C579.189 44.6704 578.86 45 578.201 45H576.223C575.652 45 575.366 44.6704 575.366 44.0112V42.9346H575.322C574.165 43.8428 573.03 44.48 571.917 44.8462C570.818 45.1978 569.587 45.3735 568.225 45.3735C565.823 45.3735 563.97 44.8022 562.666 43.6597C561.377 42.5024 560.732 40.8984 560.732 38.8477ZM564.731 38.9355C564.731 39.8438 564.922 40.5762 565.303 41.1328C565.684 41.6748 566.211 42.0264 566.885 42.1875C567.559 42.334 568.262 42.4072 568.994 42.4072C570.122 42.4072 571.191 42.2974 572.202 42.0776C573.213 41.8579 574.253 41.2793 575.322 40.3418V33.8599C572.363 34.0796 570.254 34.3506 568.994 34.6729C567.734 34.9805 566.709 35.5225 565.918 36.2988C565.127 37.0605 564.731 37.9395 564.731 38.9355ZM584.331 24.8291C583.672 24.8291 583.342 24.5728 583.342 24.0601V22.6978C583.342 22.1851 583.672 21.9287 584.331 21.9287H586.924V19.9512C586.924 19.6582 586.997 19.3799 587.144 19.1162L588.682 16.3257C588.96 15.813 589.187 15.5566 589.363 15.5566H590.132C590.571 15.5566 590.791 15.813 590.791 16.3257V21.9287H595.471C596.13 21.9287 596.46 22.1851 596.46 22.6978V24.0601C596.46 24.5728 596.13 24.8291 595.471 24.8291H590.791V38.8257C590.791 40.3638 591.018 41.3672 591.472 41.8359C591.941 42.29 592.498 42.5171 593.142 42.5171C593.64 42.5171 594.233 42.3706 594.922 42.0776C595.625 41.7847 596.108 41.5356 596.372 41.3306C596.636 41.1255 596.841 41.1914 596.987 41.5283L597.712 43.2202C597.83 43.5132 597.742 43.7476 597.449 43.9233C596.877 44.2603 596.042 44.5898 594.944 44.9121C593.845 45.2197 592.747 45.3735 591.648 45.3735C590.125 45.3735 588.953 44.8242 588.132 43.7256C587.327 42.627 586.924 41.0742 586.924 39.0674V24.8291H584.331ZM603.096 45C602.437 45 602.107 44.6704 602.107 44.0112V22.9175C602.107 22.2583 602.437 21.9287 603.096 21.9287H604.985C605.645 21.9287 605.974 22.2583 605.974 22.9175V44.0112C605.974 44.6704 605.645 45 604.985 45H603.096ZM603.096 17.7539C602.437 17.7539 602.107 17.4243 602.107 16.7651V14.8755C602.107 14.2163 602.437 13.8867 603.096 13.8867H604.985C605.645 13.8867 605.974 14.2163 605.974 14.8755V16.7651C605.974 17.4243 605.645 17.7539 604.985 17.7539H603.096ZM610.962 33.4644C610.962 30.022 611.87 27.1802 613.687 24.939C615.518 22.6831 618.191 21.5552 621.707 21.5552C625.222 21.5552 627.888 22.6831 629.705 24.939C631.536 27.1802 632.451 30.022 632.451 33.4644C632.451 36.9067 631.536 39.7559 629.705 42.0117C627.888 44.2529 625.222 45.3735 621.707 45.3735C618.191 45.3735 615.518 44.2529 613.687 42.0117C611.87 39.7559 610.962 36.9067 610.962 33.4644ZM615.049 33.4644C615.049 36.5405 615.657 38.8184 616.873 40.2979C618.088 41.7773 619.7 42.5171 621.707 42.5171C623.713 42.5171 625.325 41.7773 626.541 40.2979C627.756 38.8184 628.364 36.5405 628.364 33.4644C628.364 30.3882 627.756 28.1104 626.541 26.6309C625.325 25.1514 623.713 24.4116 621.707 24.4116C619.7 24.4116 618.088 25.1514 616.873 26.6309C615.657 28.1104 615.049 30.3882 615.049 33.4644ZM638.428 45C637.769 45 637.439 44.6704 637.439 44.0112V22.9175C637.439 22.2583 637.769 21.9287 638.428 21.9287H640.273C640.933 21.9287 641.262 22.2583 641.262 22.9175V24.6753H641.35C642.302 23.6206 643.328 22.8369 644.426 22.3242C645.525 21.8115 646.895 21.5552 648.535 21.5552C651.201 21.5552 653.113 22.3096 654.27 23.8184C655.442 25.3125 656.028 27.3633 656.028 29.9707V44.0112C656.028 44.6704 655.698 45 655.039 45H653.149C652.49 45 652.161 44.6704 652.161 44.0112V31.0254C652.161 28.1543 651.685 26.3379 650.732 25.5762C649.78 24.7998 648.572 24.4116 647.107 24.4116C645.203 24.4116 643.76 24.9829 642.778 26.1255C641.797 27.2534 641.306 29.1943 641.306 31.9482V44.0112C641.306 44.6704 640.977 45 640.317 45H638.428ZM678.198 53.7891C677.539 53.7891 677.209 53.4595 677.209 52.8003V22.9175C677.209 22.2583 677.539 21.9287 678.198 21.9287H680.044C680.571 21.9287 680.857 22.2583 680.901 22.9175L681.033 24.6753H681.077C681.882 23.7085 682.791 22.9468 683.801 22.3901C684.812 21.8335 686.16 21.5552 687.844 21.5552C690.774 21.5552 693 22.7563 694.524 25.1587C696.047 27.5464 696.809 30.3149 696.809 33.4644C696.809 36.6138 696.047 39.3896 694.524 41.792C693 44.1797 690.774 45.3735 687.844 45.3735C686.16 45.3735 684.812 45.0952 683.801 44.5386C682.791 43.9819 681.882 43.2202 681.077 42.2534H681.033C681.062 42.6929 681.077 43.1396 681.077 43.5938V52.8003C681.077 53.4595 680.747 53.7891 680.088 53.7891H678.198ZM681.077 35.9912C681.077 38.1885 681.597 39.8291 682.637 40.9131C683.691 41.9824 685.01 42.5171 686.592 42.5171C688.818 42.5171 690.393 41.6821 691.316 40.0122C692.253 38.3423 692.722 36.1597 692.722 33.4644C692.722 30.769 692.253 28.5864 691.316 26.9165C690.393 25.2466 688.818 24.4116 686.592 24.4116C685.01 24.4116 683.691 24.9536 682.637 26.0376C681.597 27.1069 681.077 28.7402 681.077 30.9375V35.9912ZM700.566 33.4644C700.566 29.8315 701.475 26.9385 703.291 24.7852C705.107 22.6318 707.708 21.5552 711.091 21.5552C713.904 21.5552 716.233 22.5439 718.079 24.5215C719.939 26.4844 720.869 29.6265 720.869 33.9478C720.869 34.6069 720.569 34.9365 719.968 34.9365H704.653C704.902 37.7637 705.664 39.7339 706.938 40.8472C708.213 41.9458 709.656 42.4951 711.267 42.4951C712.966 42.4951 714.27 42.2095 715.178 41.6382C716.086 41.0669 716.753 40.5029 717.178 39.9463C717.646 39.3311 718.101 39.2139 718.54 39.5947L719.836 40.7153C720.173 41.0083 720.173 41.4111 719.836 41.9238C719.558 42.3486 718.76 43.0298 717.441 43.9673C716.138 44.9048 714.08 45.3735 711.267 45.3735C707.605 45.3735 704.902 44.2969 703.159 42.1436C701.431 39.9902 700.566 37.0972 700.566 33.4644ZM704.565 32.0801H716.98C716.921 30.0293 716.394 28.2349 715.398 26.6968C714.402 25.144 712.937 24.3677 711.003 24.3677C709.304 24.3677 707.861 24.939 706.675 26.0815C705.488 27.2095 704.785 29.209 704.565 32.0801ZM726.934 45C726.274 45 725.945 44.6704 725.945 44.0112V22.9175C725.945 22.2583 726.274 21.9287 726.934 21.9287H728.779C729.438 21.9287 729.768 22.2583 729.768 22.9175V25.5542H729.856C730.559 24.2358 731.387 23.2397 732.339 22.5659C733.291 21.8921 734.478 21.5552 735.898 21.5552C736.836 21.5552 737.495 21.6357 737.876 21.7969C738.213 21.9287 738.337 22.1484 738.25 22.4561L737.744 24.2578C737.671 24.5215 737.48 24.624 737.173 24.5654C736.66 24.4629 736.177 24.4116 735.723 24.4116C734.009 24.4116 732.595 25.188 731.482 26.7407C730.369 28.2788 729.812 30.3809 729.812 33.0469V44.0112C729.812 44.6704 729.482 45 728.823 45H726.934ZM740.667 24.8291C740.007 24.8291 739.678 24.5728 739.678 24.0601V22.6978C739.678 22.1851 740.007 21.9287 740.667 21.9287H743.018V18.6548C743.018 16.2085 743.677 14.5239 744.995 13.6011C746.313 12.6636 747.822 12.1948 749.521 12.1948C750.532 12.1948 751.345 12.2461 751.96 12.3486C752.59 12.4512 753.33 12.6782 754.18 13.0298C754.502 13.1616 754.597 13.396 754.465 13.7329L753.784 15.4688C753.667 15.7617 753.411 15.8203 753.015 15.6445C752.693 15.498 752.297 15.3662 751.829 15.249C751.36 15.1172 750.854 15.0513 750.312 15.0513C749.097 15.0513 748.218 15.3442 747.676 15.9302C747.148 16.5161 746.885 17.6367 746.885 19.292V21.9287H750.906C751.565 21.9287 751.895 22.1851 751.895 22.6978V24.0601C751.895 24.5728 751.565 24.8291 750.906 24.8291H746.885V44.0112C746.885 44.6704 746.555 45 745.896 45H744.006C743.347 45 743.018 44.6704 743.018 44.0112V24.8291H740.667ZM754.883 33.4644C754.883 30.022 755.791 27.1802 757.607 24.939C759.438 22.6831 762.112 21.5552 765.627 21.5552C769.143 21.5552 771.809 22.6831 773.625 24.939C775.457 27.1802 776.372 30.022 776.372 33.4644C776.372 36.9067 775.457 39.7559 773.625 42.0117C771.809 44.2529 769.143 45.3735 765.627 45.3735C762.112 45.3735 759.438 44.2529 757.607 42.0117C755.791 39.7559 754.883 36.9067 754.883 33.4644ZM758.97 33.4644C758.97 36.5405 759.578 38.8184 760.793 40.2979C762.009 41.7773 763.621 42.5171 765.627 42.5171C767.634 42.5171 769.246 41.7773 770.461 40.2979C771.677 38.8184 772.285 36.5405 772.285 33.4644C772.285 30.3882 771.677 28.1104 770.461 26.6309C769.246 25.1514 767.634 24.4116 765.627 24.4116C763.621 24.4116 762.009 25.1514 760.793 26.6309C759.578 28.1104 758.97 30.3882 758.97 33.4644ZM782.349 45C781.689 45 781.36 44.6704 781.36 44.0112V22.9175C781.36 22.2583 781.689 21.9287 782.349 21.9287H784.194C784.854 21.9287 785.183 22.2583 785.183 22.9175V25.5542H785.271C785.974 24.2358 786.802 23.2397 787.754 22.5659C788.706 21.8921 789.893 21.5552 791.313 21.5552C792.251 21.5552 792.91 21.6357 793.291 21.7969C793.628 21.9287 793.752 22.1484 793.665 22.4561L793.159 24.2578C793.086 24.5215 792.896 24.624 792.588 24.5654C792.075 24.4629 791.592 24.4116 791.138 24.4116C789.424 24.4116 788.01 25.188 786.897 26.7407C785.784 28.2788 785.227 30.3809 785.227 33.0469V44.0112C785.227 44.6704 784.897 45 784.238 45H782.349ZM798.213 45C797.554 45 797.224 44.6704 797.224 44.0112V22.9175C797.224 22.2583 797.554 21.9287 798.213 21.9287H800.059C800.718 21.9287 801.047 22.2583 801.047 22.9175V24.6753H801.135C802.087 23.6206 803.12 22.8369 804.233 22.3242C805.347 21.8115 806.416 21.5552 807.441 21.5552C809.331 21.5552 810.781 22.0312 811.792 22.9834C812.817 23.9209 813.477 24.8657 813.77 25.8179H813.857C814.663 24.6167 815.681 23.606 816.912 22.7856C818.142 21.9653 819.453 21.5552 820.845 21.5552C823.174 21.5552 824.932 22.3096 826.118 23.8184C827.305 25.3125 827.898 27.3633 827.898 29.9707V44.0112C827.898 44.6704 827.568 45 826.909 45H825.02C824.36 45 824.031 44.6704 824.031 44.0112V31.2451C824.031 28.374 823.672 26.521 822.954 25.686C822.236 24.8364 821.13 24.4116 819.636 24.4116C818.171 24.4116 816.948 25.0415 815.967 26.3013C814.985 27.5464 814.495 29.4287 814.495 31.9482V44.0112C814.495 44.6704 814.165 45 813.506 45H811.616C810.957 45 810.627 44.6704 810.627 44.0112V31.2451C810.627 28.374 810.269 26.521 809.551 25.686C808.833 24.8364 807.727 24.4116 806.233 24.4116C804.768 24.4116 803.545 24.9829 802.563 26.1255C801.582 27.2534 801.091 29.1943 801.091 31.9482V44.0112C801.091 44.6704 800.762 45 800.103 45H798.213ZM832.842 33.4644C832.842 29.8315 833.75 26.9385 835.566 24.7852C837.383 22.6318 839.983 21.5552 843.367 21.5552C846.179 21.5552 848.508 22.5439 850.354 24.5215C852.214 26.4844 853.145 29.6265 853.145 33.9478C853.145 34.6069 852.844 34.9365 852.244 34.9365H836.929C837.178 37.7637 837.939 39.7339 839.214 40.8472C840.488 41.9458 841.931 42.4951 843.542 42.4951C845.242 42.4951 846.545 42.2095 847.454 41.6382C848.362 41.0669 849.028 40.5029 849.453 39.9463C849.922 39.3311 850.376 39.2139 850.815 39.5947L852.112 40.7153C852.449 41.0083 852.449 41.4111 852.112 41.9238C851.833 42.3486 851.035 43.0298 849.717 43.9673C848.413 44.9048 846.355 45.3735 843.542 45.3735C839.88 45.3735 837.178 44.2969 835.435 42.1436C833.706 39.9902 832.842 37.0972 832.842 33.4644ZM836.841 32.0801H849.255C849.197 30.0293 848.669 28.2349 847.673 26.6968C846.677 25.144 845.212 24.3677 843.279 24.3677C841.58 24.3677 840.137 24.939 838.95 26.0815C837.764 27.2095 837.061 29.209 836.841 32.0801ZM856.968 33.4644C856.968 30.3149 857.729 27.5464 859.253 25.1587C860.776 22.7563 863.003 21.5552 865.933 21.5552C867.617 21.5552 868.965 21.8335 869.976 22.3901C870.986 22.9468 871.895 23.7085 872.7 24.6753H872.744C872.715 24.2358 872.7 23.7891 872.7 23.335V13.5571C872.7 12.8979 873.03 12.5684 873.689 12.5684H875.579C876.238 12.5684 876.567 12.8979 876.567 13.5571V44.0112C876.567 44.6704 876.238 45 875.579 45H873.733C873.206 45 872.92 44.6704 872.876 44.0112L872.744 42.2534H872.7C871.895 43.2202 870.986 43.9819 869.976 44.5386C868.965 45.0952 867.617 45.3735 865.933 45.3735C863.003 45.3735 860.776 44.1797 859.253 41.792C857.729 39.3896 856.968 36.6138 856.968 33.4644ZM861.055 33.4644C861.055 36.1597 861.516 38.3423 862.439 40.0122C863.376 41.6821 864.958 42.5171 867.185 42.5171C868.767 42.5171 870.078 41.9824 871.118 40.9131C872.173 39.8291 872.7 38.1885 872.7 35.9912V30.9375C872.7 28.7402 872.173 27.1069 871.118 26.0376C870.078 24.9536 868.767 24.4116 867.185 24.4116C864.958 24.4116 863.376 25.2466 862.439 26.9165C861.516 28.5864 861.055 30.769 861.055 33.4644ZM896.562 33.4644C896.562 30.022 897.471 27.1802 899.287 24.939C901.118 22.6831 903.792 21.5552 907.307 21.5552C910.823 21.5552 913.489 22.6831 915.305 24.939C917.136 27.1802 918.052 30.022 918.052 33.4644C918.052 36.9067 917.136 39.7559 915.305 42.0117C913.489 44.2529 910.823 45.3735 907.307 45.3735C903.792 45.3735 901.118 44.2529 899.287 42.0117C897.471 39.7559 896.562 36.9067 896.562 33.4644ZM900.649 33.4644C900.649 36.5405 901.257 38.8184 902.473 40.2979C903.689 41.7773 905.3 42.5171 907.307 42.5171C909.314 42.5171 910.925 41.7773 912.141 40.2979C913.357 38.8184 913.965 36.5405 913.965 33.4644C913.965 30.3882 913.357 28.1104 912.141 26.6309C910.925 25.1514 909.314 24.4116 907.307 24.4116C905.3 24.4116 903.689 25.1514 902.473 26.6309C901.257 28.1104 900.649 30.3882 900.649 33.4644ZM924.028 45C923.369 45 923.04 44.6704 923.04 44.0112V22.9175C923.04 22.2583 923.369 21.9287 924.028 21.9287H925.874C926.533 21.9287 926.863 22.2583 926.863 22.9175V24.6753H926.951C927.903 23.6206 928.928 22.8369 930.027 22.3242C931.125 21.8115 932.495 21.5552 934.136 21.5552C936.802 21.5552 938.713 22.3096 939.871 23.8184C941.042 25.3125 941.628 27.3633 941.628 29.9707V44.0112C941.628 44.6704 941.299 45 940.64 45H938.75C938.091 45 937.761 44.6704 937.761 44.0112V31.0254C937.761 28.1543 937.285 26.3379 936.333 25.5762C935.381 24.7998 934.172 24.4116 932.708 24.4116C930.803 24.4116 929.36 24.9829 928.379 26.1255C927.397 27.2534 926.907 29.1943 926.907 31.9482V44.0112C926.907 44.6704 926.577 45 925.918 45H924.028ZM437.07 98.4644C437.07 95.3149 437.832 92.5464 439.355 90.1587C440.879 87.7563 443.105 86.5552 446.035 86.5552C447.72 86.5552 449.067 86.8335 450.078 87.3901C451.089 87.9468 451.997 88.7085 452.803 89.6753H452.847C452.817 89.2358 452.803 88.7891 452.803 88.335V78.5571C452.803 77.8979 453.132 77.5684 453.792 77.5684H455.681C456.34 77.5684 456.67 77.8979 456.67 78.5571V109.011C456.67 109.67 456.34 110 455.681 110H453.835C453.308 110 453.022 109.67 452.979 109.011L452.847 107.253H452.803C451.997 108.22 451.089 108.982 450.078 109.539C449.067 110.095 447.72 110.374 446.035 110.374C443.105 110.374 440.879 109.18 439.355 106.792C437.832 104.39 437.07 101.614 437.07 98.4644ZM441.157 98.4644C441.157 101.16 441.619 103.342 442.542 105.012C443.479 106.682 445.061 107.517 447.288 107.517C448.87 107.517 450.181 106.982 451.221 105.913C452.275 104.829 452.803 103.188 452.803 100.991V95.9375C452.803 93.7402 452.275 92.1069 451.221 91.0376C450.181 89.9536 448.87 89.4116 447.288 89.4116C445.061 89.4116 443.479 90.2466 442.542 91.9165C441.619 93.5864 441.157 95.769 441.157 98.4644ZM463.921 110C463.262 110 462.932 109.67 462.932 109.011V87.9175C462.932 87.2583 463.262 86.9287 463.921 86.9287H465.811C466.47 86.9287 466.799 87.2583 466.799 87.9175V109.011C466.799 109.67 466.47 110 465.811 110H463.921ZM463.921 82.7539C463.262 82.7539 462.932 82.4243 462.932 81.7651V79.8755C462.932 79.2163 463.262 78.8867 463.921 78.8867H465.811C466.47 78.8867 466.799 79.2163 466.799 79.8755V81.7651C466.799 82.4243 466.47 82.7539 465.811 82.7539H463.921ZM471.897 89.8291C471.238 89.8291 470.908 89.5728 470.908 89.0601V87.6978C470.908 87.1851 471.238 86.9287 471.897 86.9287H474.248V83.6548C474.248 81.2085 474.907 79.5239 476.226 78.6011C477.544 77.6636 479.053 77.1948 480.752 77.1948C481.763 77.1948 482.576 77.2461 483.191 77.3486C483.821 77.4512 484.561 77.6782 485.41 78.0298C485.732 78.1616 485.828 78.396 485.696 78.7329L485.015 80.4688C484.897 80.7617 484.641 80.8203 484.246 80.6445C483.923 80.498 483.528 80.3662 483.059 80.249C482.59 80.1172 482.085 80.0513 481.543 80.0513C480.327 80.0513 479.448 80.3442 478.906 80.9302C478.379 81.5161 478.115 82.6367 478.115 84.292V86.9287H482.136C482.795 86.9287 483.125 87.1851 483.125 87.6978V89.0601C483.125 89.5728 482.795 89.8291 482.136 89.8291H478.115V109.011C478.115 109.67 477.786 110 477.126 110H475.237C474.578 110 474.248 109.67 474.248 109.011V89.8291H471.897ZM486.223 89.8291C485.564 89.8291 485.234 89.5728 485.234 89.0601V87.6978C485.234 87.1851 485.564 86.9287 486.223 86.9287H488.574V83.6548C488.574 81.2085 489.233 79.5239 490.552 78.6011C491.87 77.6636 493.379 77.1948 495.078 77.1948C496.089 77.1948 496.902 77.2461 497.517 77.3486C498.147 77.4512 498.887 77.6782 499.736 78.0298C500.059 78.1616 500.154 78.396 500.022 78.7329L499.341 80.4688C499.224 80.7617 498.967 80.8203 498.572 80.6445C498.25 80.498 497.854 80.3662 497.385 80.249C496.917 80.1172 496.411 80.0513 495.869 80.0513C494.653 80.0513 493.774 80.3442 493.232 80.9302C492.705 81.5161 492.441 82.6367 492.441 84.292V86.9287H496.462C497.122 86.9287 497.451 87.1851 497.451 87.6978V89.0601C497.451 89.5728 497.122 89.8291 496.462 89.8291H492.441V109.011C492.441 109.67 492.112 110 491.453 110H489.563C488.904 110 488.574 109.67 488.574 109.011V89.8291H486.223ZM500.439 98.4644C500.439 94.8315 501.348 91.9385 503.164 89.7852C504.98 87.6318 507.581 86.5552 510.964 86.5552C513.777 86.5552 516.106 87.5439 517.952 89.5215C519.812 91.4844 520.742 94.6265 520.742 98.9478C520.742 99.6069 520.442 99.9365 519.841 99.9365H504.526C504.775 102.764 505.537 104.734 506.812 105.847C508.086 106.946 509.529 107.495 511.14 107.495C512.839 107.495 514.143 107.209 515.051 106.638C515.959 106.067 516.626 105.503 517.051 104.946C517.52 104.331 517.974 104.214 518.413 104.595L519.709 105.715C520.046 106.008 520.046 106.411 519.709 106.924C519.431 107.349 518.633 108.03 517.314 108.967C516.011 109.905 513.953 110.374 511.14 110.374C507.478 110.374 504.775 109.297 503.032 107.144C501.304 104.99 500.439 102.097 500.439 98.4644ZM504.438 97.0801H516.853C516.794 95.0293 516.267 93.2349 515.271 91.6968C514.275 90.144 512.81 89.3677 510.876 89.3677C509.177 89.3677 507.734 89.939 506.548 91.0815C505.361 92.2095 504.658 94.209 504.438 97.0801ZM526.807 110C526.147 110 525.818 109.67 525.818 109.011V87.9175C525.818 87.2583 526.147 86.9287 526.807 86.9287H528.652C529.312 86.9287 529.641 87.2583 529.641 87.9175V90.5542H529.729C530.432 89.2358 531.26 88.2397 532.212 87.5659C533.164 86.8921 534.351 86.5552 535.771 86.5552C536.709 86.5552 537.368 86.6357 537.749 86.7969C538.086 86.9287 538.21 87.1484 538.123 87.4561L537.617 89.2578C537.544 89.5215 537.354 89.624 537.046 89.5654C536.533 89.4629 536.05 89.4116 535.596 89.4116C533.882 89.4116 532.468 90.188 531.355 91.7407C530.242 93.2788 529.685 95.3809 529.685 98.0469V109.011C529.685 109.67 529.355 110 528.696 110H526.807ZM540.43 98.4644C540.43 94.8315 541.338 91.9385 543.154 89.7852C544.971 87.6318 547.571 86.5552 550.955 86.5552C553.767 86.5552 556.096 87.5439 557.942 89.5215C559.802 91.4844 560.732 94.6265 560.732 98.9478C560.732 99.6069 560.432 99.9365 559.832 99.9365H544.517C544.766 102.764 545.527 104.734 546.802 105.847C548.076 106.946 549.519 107.495 551.13 107.495C552.83 107.495 554.133 107.209 555.042 106.638C555.95 106.067 556.616 105.503 557.041 104.946C557.51 104.331 557.964 104.214 558.403 104.595L559.7 105.715C560.037 106.008 560.037 106.411 559.7 106.924C559.421 107.349 558.623 108.03 557.305 108.967C556.001 109.905 553.943 110.374 551.13 110.374C547.468 110.374 544.766 109.297 543.022 107.144C541.294 104.99 540.43 102.097 540.43 98.4644ZM544.429 97.0801H556.843C556.785 95.0293 556.257 93.2349 555.261 91.6968C554.265 90.144 552.8 89.3677 550.867 89.3677C549.167 89.3677 547.725 89.939 546.538 91.0815C545.352 92.2095 544.648 94.209 544.429 97.0801ZM566.797 110C566.138 110 565.808 109.67 565.808 109.011V87.9175C565.808 87.2583 566.138 86.9287 566.797 86.9287H568.643C569.302 86.9287 569.631 87.2583 569.631 87.9175V89.6753H569.719C570.671 88.6206 571.697 87.8369 572.795 87.3242C573.894 86.8115 575.264 86.5552 576.904 86.5552C579.57 86.5552 581.482 87.3096 582.639 88.8184C583.811 90.3125 584.397 92.3633 584.397 94.9707V109.011C584.397 109.67 584.067 110 583.408 110H581.519C580.859 110 580.53 109.67 580.53 109.011V96.0254C580.53 93.1543 580.054 91.3379 579.102 90.5762C578.149 89.7998 576.941 89.4116 575.476 89.4116C573.572 89.4116 572.129 89.9829 571.147 91.1255C570.166 92.2534 569.675 94.1943 569.675 96.9482V109.011C569.675 109.67 569.346 110 568.687 110H566.797ZM589.473 89.8291C588.813 89.8291 588.484 89.5728 588.484 89.0601V87.6978C588.484 87.1851 588.813 86.9287 589.473 86.9287H592.065V84.9512C592.065 84.6582 592.139 84.3799 592.285 84.1162L593.823 81.3257C594.102 80.813 594.329 80.5566 594.504 80.5566H595.273C595.713 80.5566 595.933 80.813 595.933 81.3257V86.9287H600.613C601.272 86.9287 601.602 87.1851 601.602 87.6978V89.0601C601.602 89.5728 601.272 89.8291 600.613 89.8291H595.933V103.826C595.933 105.364 596.16 106.367 596.614 106.836C597.083 107.29 597.639 107.517 598.284 107.517C598.782 107.517 599.375 107.371 600.063 107.078C600.767 106.785 601.25 106.536 601.514 106.331C601.777 106.125 601.982 106.191 602.129 106.528L602.854 108.22C602.971 108.513 602.883 108.748 602.59 108.923C602.019 109.26 601.184 109.59 600.085 109.912C598.987 110.22 597.888 110.374 596.79 110.374C595.266 110.374 594.094 109.824 593.274 108.726C592.468 107.627 592.065 106.074 592.065 104.067V89.8291H589.473ZM623.223 118.789C622.563 118.789 622.234 118.459 622.234 117.8V87.9175C622.234 87.2583 622.563 86.9287 623.223 86.9287H625.068C625.596 86.9287 625.881 87.2583 625.925 87.9175L626.057 89.6753H626.101C626.907 88.7085 627.815 87.9468 628.826 87.3901C629.836 86.8335 631.184 86.5552 632.869 86.5552C635.798 86.5552 638.025 87.7563 639.548 90.1587C641.072 92.5464 641.833 95.3149 641.833 98.4644C641.833 101.614 641.072 104.39 639.548 106.792C638.025 109.18 635.798 110.374 632.869 110.374C631.184 110.374 629.836 110.095 628.826 109.539C627.815 108.982 626.907 108.22 626.101 107.253H626.057C626.086 107.693 626.101 108.14 626.101 108.594V117.8C626.101 118.459 625.771 118.789 625.112 118.789H623.223ZM626.101 100.991C626.101 103.188 626.621 104.829 627.661 105.913C628.716 106.982 630.034 107.517 631.616 107.517C633.843 107.517 635.417 106.682 636.34 105.012C637.278 103.342 637.747 101.16 637.747 98.4644C637.747 95.769 637.278 93.5864 636.34 91.9165C635.417 90.2466 633.843 89.4116 631.616 89.4116C630.034 89.4116 628.716 89.9536 627.661 91.0376C626.621 92.1069 626.101 93.7402 626.101 95.9375V100.991ZM647.832 110C647.173 110 646.843 109.67 646.843 109.011V87.9175C646.843 87.2583 647.173 86.9287 647.832 86.9287H649.678C650.337 86.9287 650.667 87.2583 650.667 87.9175V90.5542H650.754C651.458 89.2358 652.285 88.2397 653.237 87.5659C654.189 86.8921 655.376 86.5552 656.797 86.5552C657.734 86.5552 658.394 86.6357 658.774 86.7969C659.111 86.9287 659.236 87.1484 659.148 87.4561L658.643 89.2578C658.569 89.5215 658.379 89.624 658.071 89.5654C657.559 89.4629 657.075 89.4116 656.621 89.4116C654.907 89.4116 653.494 90.188 652.38 91.7407C651.267 93.2788 650.71 95.3809 650.71 98.0469V109.011C650.71 109.67 650.381 110 649.722 110H647.832ZM661.455 98.4644C661.455 95.022 662.363 92.1802 664.18 89.939C666.011 87.6831 668.684 86.5552 672.2 86.5552C675.715 86.5552 678.381 87.6831 680.198 89.939C682.029 92.1802 682.944 95.022 682.944 98.4644C682.944 101.907 682.029 104.756 680.198 107.012C678.381 109.253 675.715 110.374 672.2 110.374C668.684 110.374 666.011 109.253 664.18 107.012C662.363 104.756 661.455 101.907 661.455 98.4644ZM665.542 98.4644C665.542 101.541 666.15 103.818 667.366 105.298C668.582 106.777 670.193 107.517 672.2 107.517C674.207 107.517 675.818 106.777 677.034 105.298C678.25 103.818 678.857 101.541 678.857 98.4644C678.857 95.3882 678.25 93.1104 677.034 91.6309C675.818 90.1514 674.207 89.4116 672.2 89.4116C670.193 89.4116 668.582 90.1514 667.366 91.6309C666.15 93.1104 665.542 95.3882 665.542 98.4644ZM686.68 98.4644C686.68 95.022 687.529 92.1802 689.229 89.939C690.942 87.6831 693.557 86.5552 697.073 86.5552C699.446 86.5552 701.255 86.98 702.5 87.8296C703.76 88.6646 704.668 89.5215 705.225 90.4004C705.532 90.8838 705.466 91.272 705.027 91.5649L703.643 92.4658C703.203 92.7734 702.764 92.5757 702.324 91.8726C701.899 91.1987 701.299 90.6201 700.522 90.1367C699.761 89.6533 698.611 89.4116 697.073 89.4116C695.066 89.4116 693.513 90.1514 692.415 91.6309C691.316 93.1104 690.767 95.3882 690.767 98.4644C690.767 101.541 691.316 103.818 692.415 105.298C693.513 106.777 695.066 107.517 697.073 107.517C698.699 107.517 699.944 107.209 700.808 106.594C701.672 105.964 702.302 105.283 702.698 104.551C703.079 103.862 703.511 103.665 703.994 103.958L705.466 104.836C705.906 105.1 705.972 105.496 705.664 106.023C705.298 106.653 704.463 107.539 703.159 108.682C701.87 109.81 699.841 110.374 697.073 110.374C693.557 110.374 690.942 109.253 689.229 107.012C687.529 104.756 686.68 101.907 686.68 98.4644ZM709.224 98.4644C709.224 94.8315 710.132 91.9385 711.948 89.7852C713.765 87.6318 716.365 86.5552 719.749 86.5552C722.561 86.5552 724.89 87.5439 726.736 89.5215C728.596 91.4844 729.526 94.6265 729.526 98.9478C729.526 99.6069 729.226 99.9365 728.625 99.9365H713.311C713.56 102.764 714.321 104.734 715.596 105.847C716.87 106.946 718.313 107.495 719.924 107.495C721.624 107.495 722.927 107.209 723.835 106.638C724.744 106.067 725.41 105.503 725.835 104.946C726.304 104.331 726.758 104.214 727.197 104.595L728.494 105.715C728.831 106.008 728.831 106.411 728.494 106.924C728.215 107.349 727.417 108.03 726.099 108.967C724.795 109.905 722.737 110.374 719.924 110.374C716.262 110.374 713.56 109.297 711.816 107.144C710.088 104.99 709.224 102.097 709.224 98.4644ZM713.223 97.0801H725.637C725.579 95.0293 725.051 93.2349 724.055 91.6968C723.059 90.144 721.594 89.3677 719.661 89.3677C717.961 89.3677 716.519 89.939 715.332 91.0815C714.146 92.2095 713.442 94.209 713.223 97.0801ZM733.701 107.847C733.247 107.422 733.152 107.026 733.416 106.66L734.404 105.276C734.727 104.836 735.203 104.858 735.833 105.342C736.697 106.001 737.656 106.528 738.711 106.924C739.78 107.319 740.996 107.517 742.358 107.517C743.164 107.517 743.882 107.422 744.512 107.231C745.142 107.026 745.691 106.653 746.16 106.111C746.643 105.569 746.885 104.844 746.885 103.936C746.885 103.408 746.768 102.91 746.533 102.441C746.313 101.973 745.962 101.599 745.479 101.321C745.01 101.028 744.548 100.801 744.094 100.64C743.347 100.361 742.6 100.134 741.853 99.9585C741.121 99.7681 740.154 99.4824 738.953 99.1016C738.147 98.8525 737.385 98.501 736.667 98.0469C735.95 97.5781 735.32 96.9482 734.778 96.1572C734.25 95.3662 733.987 94.2749 733.987 92.8833C733.987 91.4624 734.419 90.2393 735.283 89.2139C736.147 88.1885 737.231 87.4927 738.535 87.1265C739.839 86.7456 741.106 86.5552 742.336 86.5552C744.153 86.5552 745.61 86.7676 746.709 87.1924C747.822 87.6025 748.782 88.0933 749.587 88.6646C750.056 89.0015 750.122 89.3896 749.785 89.8291L748.796 91.1475C748.489 91.5723 748.013 91.5576 747.368 91.1035C746.826 90.7227 746.057 90.3638 745.061 90.0269C744.065 89.6899 743.193 89.5215 742.446 89.5215C741.523 89.5215 740.732 89.624 740.073 89.8291C739.414 90.0342 738.879 90.3857 738.469 90.8838C738.059 91.3818 737.854 91.9678 737.854 92.6416C737.854 93.1543 737.935 93.6157 738.096 94.0259C738.257 94.4214 738.557 94.7876 738.997 95.1245C739.436 95.4614 740.051 95.7324 740.842 95.9375C742.073 96.2598 743.193 96.5527 744.204 96.8164C745.229 97.0801 746.152 97.4023 746.973 97.7832C748.042 98.2812 748.862 98.8306 749.434 99.4312C750.02 100.032 750.422 100.684 750.642 101.387C750.862 102.075 750.972 102.844 750.972 103.694C750.972 105.261 750.503 106.587 749.565 107.671C748.643 108.755 747.61 109.48 746.467 109.846C745.325 110.198 743.948 110.374 742.336 110.374C740.154 110.374 738.279 110.066 736.711 109.451C735.159 108.821 734.155 108.286 733.701 107.847ZM754.443 107.847C753.989 107.422 753.894 107.026 754.158 106.66L755.146 105.276C755.469 104.836 755.945 104.858 756.575 105.342C757.439 106.001 758.398 106.528 759.453 106.924C760.522 107.319 761.738 107.517 763.101 107.517C763.906 107.517 764.624 107.422 765.254 107.231C765.884 107.026 766.433 106.653 766.902 106.111C767.385 105.569 767.627 104.844 767.627 103.936C767.627 103.408 767.51 102.91 767.275 102.441C767.056 101.973 766.704 101.599 766.221 101.321C765.752 101.028 765.291 100.801 764.836 100.64C764.089 100.361 763.342 100.134 762.595 99.9585C761.863 99.7681 760.896 99.4824 759.695 99.1016C758.889 98.8525 758.127 98.501 757.41 98.0469C756.692 97.5781 756.062 96.9482 755.52 96.1572C754.993 95.3662 754.729 94.2749 754.729 92.8833C754.729 91.4624 755.161 90.2393 756.025 89.2139C756.89 88.1885 757.974 87.4927 759.277 87.1265C760.581 86.7456 761.848 86.5552 763.079 86.5552C764.895 86.5552 766.353 86.7676 767.451 87.1924C768.564 87.6025 769.524 88.0933 770.33 88.6646C770.798 89.0015 770.864 89.3896 770.527 89.8291L769.539 91.1475C769.231 91.5723 768.755 91.5576 768.11 91.1035C767.568 90.7227 766.799 90.3638 765.803 90.0269C764.807 89.6899 763.936 89.5215 763.188 89.5215C762.266 89.5215 761.475 89.624 760.815 89.8291C760.156 90.0342 759.622 90.3857 759.211 90.8838C758.801 91.3818 758.596 91.9678 758.596 92.6416C758.596 93.1543 758.677 93.6157 758.838 94.0259C758.999 94.4214 759.299 94.7876 759.739 95.1245C760.178 95.4614 760.793 95.7324 761.584 95.9375C762.815 96.2598 763.936 96.5527 764.946 96.8164C765.972 97.0801 766.895 97.4023 767.715 97.7832C768.784 98.2812 769.604 98.8306 770.176 99.4312C770.762 100.032 771.165 100.684 771.384 101.387C771.604 102.075 771.714 102.844 771.714 103.694C771.714 105.261 771.245 106.587 770.308 107.671C769.385 108.755 768.352 109.48 767.209 109.846C766.067 110.198 764.69 110.374 763.079 110.374C760.896 110.374 759.021 110.066 757.454 109.451C755.901 108.821 754.897 108.286 754.443 107.847ZM774.834 98.4644C774.834 95.022 775.742 92.1802 777.559 89.939C779.39 87.6831 782.063 86.5552 785.579 86.5552C789.094 86.5552 791.76 87.6831 793.577 89.939C795.408 92.1802 796.323 95.022 796.323 98.4644C796.323 101.907 795.408 104.756 793.577 107.012C791.76 109.253 789.094 110.374 785.579 110.374C782.063 110.374 779.39 109.253 777.559 107.012C775.742 104.756 774.834 101.907 774.834 98.4644ZM778.921 98.4644C778.921 101.541 779.529 103.818 780.745 105.298C781.96 106.777 783.572 107.517 785.579 107.517C787.585 107.517 789.197 106.777 790.413 105.298C791.628 103.818 792.236 101.541 792.236 98.4644C792.236 95.3882 791.628 93.1104 790.413 91.6309C789.197 90.1514 787.585 89.4116 785.579 89.4116C783.572 89.4116 781.96 90.1514 780.745 91.6309C779.529 93.1104 778.921 95.3882 778.921 98.4644ZM802.3 110C801.641 110 801.311 109.67 801.311 109.011V87.9175C801.311 87.2583 801.641 86.9287 802.3 86.9287H804.146C804.805 86.9287 805.134 87.2583 805.134 87.9175V90.5542H805.222C805.925 89.2358 806.753 88.2397 807.705 87.5659C808.657 86.8921 809.844 86.5552 811.265 86.5552C812.202 86.5552 812.861 86.6357 813.242 86.7969C813.579 86.9287 813.704 87.1484 813.616 87.4561L813.11 89.2578C813.037 89.5215 812.847 89.624 812.539 89.5654C812.026 89.4629 811.543 89.4116 811.089 89.4116C809.375 89.4116 807.961 90.188 806.848 91.7407C805.735 93.2788 805.178 95.3809 805.178 98.0469V109.011C805.178 109.67 804.849 110 804.189 110H802.3ZM816.274 107.847C815.82 107.422 815.725 107.026 815.989 106.66L816.978 105.276C817.3 104.836 817.776 104.858 818.406 105.342C819.27 106.001 820.229 106.528 821.284 106.924C822.354 107.319 823.569 107.517 824.932 107.517C825.737 107.517 826.455 107.422 827.085 107.231C827.715 107.026 828.264 106.653 828.733 106.111C829.216 105.569 829.458 104.844 829.458 103.936C829.458 103.408 829.341 102.91 829.106 102.441C828.887 101.973 828.535 101.599 828.052 101.321C827.583 101.028 827.122 100.801 826.667 100.64C825.92 100.361 825.173 100.134 824.426 99.9585C823.694 99.7681 822.727 99.4824 821.526 99.1016C820.72 98.8525 819.958 98.501 819.241 98.0469C818.523 97.5781 817.893 96.9482 817.351 96.1572C816.824 95.3662 816.56 94.2749 816.56 92.8833C816.56 91.4624 816.992 90.2393 817.856 89.2139C818.721 88.1885 819.805 87.4927 821.108 87.1265C822.412 86.7456 823.679 86.5552 824.91 86.5552C826.726 86.5552 828.184 86.7676 829.282 87.1924C830.396 87.6025 831.355 88.0933 832.161 88.6646C832.629 89.0015 832.695 89.3896 832.358 89.8291L831.37 91.1475C831.062 91.5723 830.586 91.5576 829.941 91.1035C829.399 90.7227 828.63 90.3638 827.634 90.0269C826.638 89.6899 825.767 89.5215 825.02 89.5215C824.097 89.5215 823.306 89.624 822.646 89.8291C821.987 90.0342 821.453 90.3857 821.042 90.8838C820.632 91.3818 820.427 91.9678 820.427 92.6416C820.427 93.1543 820.508 93.6157 820.669 94.0259C820.83 94.4214 821.13 94.7876 821.57 95.1245C822.009 95.4614 822.625 95.7324 823.416 95.9375C824.646 96.2598 825.767 96.5527 826.777 96.8164C827.803 97.0801 828.726 97.4023 829.546 97.7832C830.615 98.2812 831.436 98.8306 832.007 99.4312C832.593 100.032 832.996 100.684 833.215 101.387C833.435 102.075 833.545 102.844 833.545 103.694C833.545 105.261 833.076 106.587 832.139 107.671C831.216 108.755 830.183 109.48 829.041 109.846C827.898 110.198 826.521 110.374 824.91 110.374C822.727 110.374 820.852 110.066 819.285 109.451C817.732 108.821 816.729 108.286 816.274 107.847Z" fill="white"/>
<path d="M45 970.728C45 971.387 44.6704 971.717 44.0112 971.717H22.9175C22.2583 971.717 21.9287 971.387 21.9287 970.728V968.882C21.9287 968.223 22.2583 967.894 22.9175 967.894H24.6753V967.806C23.6206 966.854 22.8369 965.821 22.3242 964.708C21.8115 963.594 21.5552 962.525 21.5552 961.5C21.5552 959.61 22.0313 958.16 22.9834 957.149C23.9209 956.124 24.8657 955.464 25.8179 955.171V955.083C24.6167 954.278 23.606 953.26 22.7856 952.029C21.9653 950.799 21.5552 949.488 21.5552 948.096C21.5552 945.767 22.3096 944.009 23.8184 942.823C25.3125 941.636 27.3633 941.043 29.9707 941.043H44.0112C44.6704 941.043 45 941.373 45 942.032V943.921C45 944.581 44.6704 944.91 44.0112 944.91H31.2451C28.374 944.91 26.521 945.269 25.686 945.987C24.8364 946.705 24.4116 947.811 24.4116 949.305C24.4116 950.77 25.0415 951.993 26.3013 952.974C27.5464 953.956 29.4287 954.446 31.9482 954.446H44.0112C44.6704 954.446 45 954.776 45 955.435V957.325C45 957.984 44.6704 958.313 44.0112 958.313H31.2451C28.374 958.313 26.521 958.672 25.686 959.39C24.8364 960.108 24.4116 961.214 24.4116 962.708C24.4116 964.173 24.9829 965.396 26.1255 966.377C27.2534 967.359 29.1943 967.85 31.9482 967.85H44.0112C44.6704 967.85 45 968.179 45 968.838V970.728ZM33.4644 936.099C29.8315 936.099 26.9385 935.191 24.7852 933.375C22.6318 931.558 21.5552 928.958 21.5552 925.574C21.5552 922.762 22.5439 920.433 24.5215 918.587C26.4844 916.727 29.6265 915.796 33.9478 915.796C34.6069 915.796 34.9365 916.097 34.9365 916.697V932.012C37.7637 931.763 39.7339 931.001 40.8472 929.727C41.9458 928.453 42.4951 927.01 42.4951 925.398C42.4951 923.699 42.2095 922.396 41.6382 921.487C41.0669 920.579 40.5029 919.913 39.9463 919.488C39.3311 919.019 39.2139 918.565 39.5947 918.125L40.7153 916.829C41.0083 916.492 41.4111 916.492 41.9238 916.829C42.3486 917.107 43.0298 917.906 43.9673 919.224C44.9048 920.528 45.3735 922.586 45.3735 925.398C45.3735 929.061 44.2969 931.763 42.1436 933.506C39.9902 935.235 37.0972 936.099 33.4644 936.099ZM32.0801 932.1V919.686C30.0293 919.744 28.2349 920.271 26.6968 921.268C25.144 922.264 24.3677 923.729 24.3677 925.662C24.3677 927.361 24.939 928.804 26.0815 929.991C27.2095 931.177 29.209 931.88 32.0801 932.1ZM24.8291 911.841C24.8291 912.5 24.5728 912.83 24.0601 912.83H22.6978C22.1851 912.83 21.9287 912.5 21.9287 911.841V909.249H19.9512C19.6582 909.249 19.3799 909.175 19.1162 909.029L16.3257 907.491C15.813 907.212 15.5566 906.985 15.5566 906.81V906.041C15.5566 905.601 15.813 905.381 16.3257 905.381H21.9287V900.701C21.9287 900.042 22.1851 899.712 22.6978 899.712H24.0601C24.5728 899.712 24.8291 900.042 24.8291 900.701V905.381H38.8257C40.3638 905.381 41.3672 905.154 41.8359 904.7C42.29 904.231 42.5171 903.675 42.5171 903.03C42.5171 902.532 42.3706 901.939 42.0776 901.25C41.7847 900.547 41.5356 900.064 41.3306 899.8C41.1255 899.537 41.1914 899.332 41.5283 899.185L43.2202 898.46C43.5132 898.343 43.7476 898.431 43.9233 898.724C44.2603 899.295 44.5898 900.13 44.9121 901.229C45.2197 902.327 45.3735 903.426 45.3735 904.524C45.3735 906.048 44.8242 907.22 43.7256 908.04C42.627 908.846 41.0742 909.249 39.0674 909.249H24.8291V911.841ZM45 893.077C45 893.736 44.6704 894.065 44.0112 894.065H22.9175C22.2583 894.065 21.9287 893.736 21.9287 893.077V891.231C21.9287 890.572 22.2583 890.242 22.9175 890.242H25.5542V890.154C24.2358 889.451 23.2397 888.624 22.5659 887.671C21.8921 886.719 21.5552 885.533 21.5552 884.112C21.5552 883.174 21.6357 882.515 21.7969 882.134C21.9287 881.797 22.1484 881.673 22.4561 881.761L24.2578 882.266C24.5215 882.339 24.624 882.53 24.5654 882.837C24.4629 883.35 24.4116 883.833 24.4116 884.288C24.4116 886.001 25.188 887.415 26.7407 888.528C28.2788 889.642 30.3809 890.198 33.0469 890.198H44.0112C44.6704 890.198 45 890.528 45 891.187V893.077ZM45 877.212C45 877.872 44.6704 878.201 44.0112 878.201H22.9175C22.2583 878.201 21.9287 877.872 21.9287 877.212V875.323C21.9287 874.664 22.2583 874.334 22.9175 874.334H44.0112C44.6704 874.334 45 874.664 45 875.323V877.212ZM17.7539 877.212C17.7539 877.872 17.4243 878.201 16.7651 878.201H14.8755C14.2163 878.201 13.8867 877.872 13.8867 877.212V875.323C13.8867 874.664 14.2163 874.334 14.8755 874.334H16.7651C17.4243 874.334 17.7539 874.664 17.7539 875.323V877.212ZM33.4644 869.346C30.022 869.346 27.1802 868.497 24.939 866.797C22.6831 865.083 21.5552 862.469 21.5552 858.953C21.5552 856.58 21.98 854.771 22.8296 853.526C23.6646 852.266 24.5215 851.358 25.4004 850.801C25.8838 850.494 26.272 850.56 26.5649 850.999L27.4658 852.383C27.7734 852.823 27.5757 853.262 26.8726 853.702C26.1987 854.126 25.6201 854.727 25.1367 855.503C24.6533 856.265 24.4116 857.415 24.4116 858.953C24.4116 860.96 25.1514 862.513 26.6309 863.611C28.1104 864.71 30.3882 865.259 33.4644 865.259C36.5405 865.259 38.8184 864.71 40.2979 863.611C41.7773 862.513 42.5171 860.96 42.5171 858.953C42.5171 857.327 42.2095 856.082 41.5942 855.218C40.9644 854.354 40.2832 853.724 39.5508 853.328C38.8623 852.947 38.6646 852.515 38.9575 852.032L39.8364 850.56C40.1001 850.12 40.4956 850.054 41.0229 850.362C41.6528 850.728 42.5391 851.563 43.6816 852.867C44.8096 854.156 45.3735 856.185 45.3735 858.953C45.3735 862.469 44.2529 865.083 42.0117 866.797C39.7559 868.497 36.9067 869.346 33.4644 869.346ZM24.8291 831.685C24.8291 832.344 24.5728 832.674 24.0601 832.674H22.6978C22.1851 832.674 21.9287 832.344 21.9287 831.685V829.092H19.9512C19.6582 829.092 19.3799 829.019 19.1162 828.873L16.3257 827.334C15.813 827.056 15.5566 826.829 15.5566 826.653V825.884C15.5566 825.445 15.813 825.225 16.3257 825.225H21.9287V820.545C21.9287 819.886 22.1851 819.556 22.6978 819.556H24.0601C24.5728 819.556 24.8291 819.886 24.8291 820.545V825.225H38.8257C40.3638 825.225 41.3672 824.998 41.8359 824.544C42.29 824.075 42.5171 823.519 42.5171 822.874C42.5171 822.376 42.3706 821.783 42.0776 821.094C41.7847 820.391 41.5356 819.908 41.3306 819.644C41.1255 819.38 41.1914 819.175 41.5283 819.029L43.2202 818.304C43.5132 818.187 43.7476 818.274 43.9233 818.567C44.2603 819.139 44.5898 819.974 44.9121 821.072C45.2197 822.171 45.3735 823.27 45.3735 824.368C45.3735 825.892 44.8242 827.063 43.7256 827.884C42.627 828.689 41.0742 829.092 39.0674 829.092H24.8291V831.685ZM33.4644 815.162C30.022 815.162 27.1802 814.253 24.939 812.437C22.6831 810.606 21.5552 807.933 21.5552 804.417C21.5552 800.901 22.6831 798.235 24.939 796.419C27.1802 794.588 30.022 793.672 33.4644 793.672C36.9067 793.672 39.7559 794.588 42.0117 796.419C44.2529 798.235 45.3735 800.901 45.3735 804.417C45.3735 807.933 44.2529 810.606 42.0117 812.437C39.7559 814.253 36.9067 815.162 33.4644 815.162ZM33.4644 811.075C36.5405 811.075 38.8184 810.467 40.2979 809.251C41.7773 808.035 42.5171 806.424 42.5171 804.417C42.5171 802.41 41.7773 800.799 40.2979 799.583C38.8184 798.367 36.5405 797.759 33.4644 797.759C30.3882 797.759 28.1104 798.367 26.6309 799.583C25.1514 800.799 24.4116 802.41 24.4116 804.417C24.4116 806.424 25.1514 808.035 26.6309 809.251C28.1104 810.467 30.3882 811.075 33.4644 811.075ZM45 787.696C45 788.355 44.6704 788.685 44.0112 788.685H22.9175C22.2583 788.685 21.9287 788.355 21.9287 787.696V785.85C21.9287 785.191 22.2583 784.861 22.9175 784.861H24.6753V784.773C23.6206 783.821 22.8369 782.796 22.3242 781.697C21.8115 780.599 21.5552 779.229 21.5552 777.588C21.5552 774.922 22.3096 773.011 23.8184 771.854C25.3125 770.682 27.3633 770.096 29.9707 770.096H44.0112C44.6704 770.096 45 770.425 45 771.084V772.974C45 773.633 44.6704 773.963 44.0112 773.963H31.0254C28.1543 773.963 26.3379 774.439 25.5762 775.391C24.7998 776.343 24.4116 777.552 24.4116 779.017C24.4116 780.921 24.9829 782.364 26.1255 783.345C27.2534 784.327 29.1943 784.817 31.9482 784.817H44.0112C44.6704 784.817 45 785.147 45 785.806V787.696ZM45 762.911C45 763.57 44.6704 763.899 44.0112 763.899H22.9175C22.2583 763.899 21.9287 763.57 21.9287 762.911V761.065C21.9287 760.406 22.2583 760.076 22.9175 760.076H24.6753V759.988C23.6206 759.036 22.8369 758.011 22.3242 756.912C21.8115 755.813 21.5552 754.444 21.5552 752.803C21.5552 750.137 22.3096 748.226 23.8184 747.068C25.3125 745.896 27.3633 745.311 29.9707 745.311H44.0112C44.6704 745.311 45 745.64 45 746.299V748.189C45 748.848 44.6704 749.178 44.0112 749.178H31.0254C28.1543 749.178 26.3379 749.654 25.5762 750.606C24.7998 751.558 24.4116 752.767 24.4116 754.231C24.4116 756.136 24.9829 757.579 26.1255 758.56C27.2534 759.542 29.1943 760.032 31.9482 760.032H44.0112C44.6704 760.032 45 760.362 45 761.021V762.911ZM33.4644 740.367C29.8315 740.367 26.9385 739.458 24.7852 737.642C22.6318 735.826 21.5552 733.226 21.5552 729.842C21.5552 727.029 22.5439 724.7 24.5215 722.854C26.4844 720.994 29.6265 720.064 33.9478 720.064C34.6069 720.064 34.9365 720.364 34.9365 720.965V736.28C37.7637 736.031 39.7339 735.269 40.8472 733.995C41.9458 732.72 42.4951 731.277 42.4951 729.666C42.4951 727.967 42.2095 726.663 41.6382 725.755C41.0669 724.847 40.5029 724.18 39.9463 723.755C39.3311 723.287 39.2139 722.833 39.5947 722.393L40.7153 721.097C41.0083 720.76 41.4111 720.76 41.9238 721.097C42.3486 721.375 43.0298 722.173 43.9673 723.492C44.9048 724.795 45.3735 726.854 45.3735 729.666C45.3735 733.328 44.2969 736.031 42.1436 737.774C39.9902 739.502 37.0972 740.367 33.4644 740.367ZM32.0801 736.368V723.953C30.0293 724.012 28.2349 724.539 26.6968 725.535C25.144 726.531 24.3677 727.996 24.3677 729.93C24.3677 731.629 24.939 733.072 26.0815 734.258C27.2095 735.445 29.209 736.148 32.0801 736.368ZM42.8467 715.889C42.4219 716.343 42.0264 716.438 41.6602 716.175L40.2759 715.186C39.8364 714.864 39.8584 714.388 40.3418 713.758C41.001 712.894 41.5283 711.934 41.9238 710.879C42.3193 709.81 42.5171 708.594 42.5171 707.232C42.5171 706.426 42.4219 705.708 42.2314 705.079C42.0264 704.449 41.6528 703.899 41.1108 703.431C40.5688 702.947 39.8438 702.706 38.9355 702.706C38.4082 702.706 37.9102 702.823 37.4414 703.057C36.9727 703.277 36.5991 703.628 36.3208 704.112C36.0278 704.581 35.8008 705.042 35.6396 705.496C35.3613 706.243 35.1343 706.99 34.9585 707.737C34.7681 708.47 34.4824 709.437 34.1016 710.638C33.8525 711.443 33.501 712.205 33.0469 712.923C32.5781 713.641 31.9482 714.271 31.1572 714.812C30.3662 715.34 29.2749 715.604 27.8833 715.604C26.4624 715.604 25.2393 715.171 24.2139 714.307C23.1885 713.443 22.4927 712.359 22.1265 711.055C21.7456 709.751 21.5552 708.484 21.5552 707.254C21.5552 705.438 21.7676 703.98 22.1924 702.881C22.6025 701.768 23.0933 700.809 23.6646 700.003C24.0015 699.534 24.3896 699.468 24.8291 699.805L26.1475 700.794C26.5723 701.102 26.5576 701.578 26.1035 702.222C25.7227 702.764 25.3638 703.533 25.0269 704.529C24.6899 705.525 24.5215 706.397 24.5215 707.144C24.5215 708.067 24.624 708.858 24.8291 709.517C25.0342 710.176 25.3857 710.711 25.8838 711.121C26.3818 711.531 26.9678 711.736 27.6416 711.736C28.1543 711.736 28.6157 711.656 29.0259 711.495C29.4214 711.333 29.7876 711.033 30.1245 710.594C30.4614 710.154 30.7324 709.539 30.9375 708.748C31.2598 707.518 31.5527 706.397 31.8164 705.386C32.0801 704.361 32.4023 703.438 32.7832 702.618C33.2813 701.548 33.8306 700.728 34.4312 700.157C35.0317 699.571 35.6836 699.168 36.3867 698.948C37.0752 698.729 37.8442 698.619 38.6938 698.619C40.2612 698.619 41.5869 699.087 42.6709 700.025C43.7549 700.948 44.48 701.98 44.8462 703.123C45.1978 704.266 45.3735 705.643 45.3735 707.254C45.3735 709.437 45.0659 711.312 44.4507 712.879C43.8208 714.432 43.2861 715.435 42.8467 715.889ZM33.4644 680.513C30.022 680.513 27.1802 679.605 24.939 677.789C22.6831 675.958 21.5552 673.284 21.5552 669.769C21.5552 666.253 22.6831 663.587 24.939 661.771C27.1802 659.939 30.022 659.024 33.4644 659.024C36.9067 659.024 39.7559 659.939 42.0117 661.771C44.2529 663.587 45.3735 666.253 45.3735 669.769C45.3735 673.284 44.2529 675.958 42.0117 677.789C39.7559 679.605 36.9067 680.513 33.4644 680.513ZM33.4644 676.426C36.5405 676.426 38.8184 675.818 40.2979 674.603C41.7773 673.387 42.5171 671.775 42.5171 669.769C42.5171 667.762 41.7773 666.15 40.2979 664.935C38.8184 663.719 36.5405 663.111 33.4644 663.111C30.3882 663.111 28.1104 663.719 26.6309 664.935C25.1514 666.15 24.4116 667.762 24.4116 669.769C24.4116 671.775 25.1514 673.387 26.6309 674.603C28.1104 675.818 30.3882 676.426 33.4644 676.426ZM24.8291 655.179C24.8291 655.838 24.5728 656.167 24.0601 656.167H22.6978C22.1851 656.167 21.9287 655.838 21.9287 655.179V652.828H18.6548C16.2085 652.828 14.5239 652.168 13.6011 650.85C12.6636 649.532 12.1948 648.023 12.1948 646.324C12.1948 645.313 12.2461 644.5 12.3486 643.885C12.4512 643.255 12.6782 642.515 13.0298 641.666C13.1616 641.343 13.396 641.248 13.7329 641.38L15.4688 642.061C15.7617 642.178 15.8203 642.435 15.6445 642.83C15.498 643.152 15.3662 643.548 15.249 644.017C15.1172 644.485 15.0513 644.991 15.0513 645.533C15.0513 646.749 15.3442 647.627 15.9302 648.169C16.5161 648.697 17.6367 648.96 19.292 648.96H21.9287V644.939C21.9287 644.28 22.1851 643.951 22.6978 643.951H24.0601C24.5728 643.951 24.8291 644.28 24.8291 644.939V648.96H44.0112C44.6704 648.96 45 649.29 45 649.949V651.839C45 652.498 44.6704 652.828 44.0112 652.828H24.8291V655.179ZM29.2456 625.823C24.1187 625.823 20.105 624.556 17.2046 622.022C14.2896 619.473 12.832 615.818 12.832 611.058C12.832 608.274 13.3081 605.975 14.2603 604.158C15.1978 602.342 16.4868 601.038 18.1274 600.247C18.9771 599.837 19.563 599.903 19.8853 600.445L20.896 602.181C21.2329 602.767 20.9546 603.287 20.061 603.741C19.1382 604.224 18.2739 605.015 17.4683 606.114C16.6626 607.212 16.2598 608.787 16.2598 610.838C16.2598 614.5 17.4023 617.166 19.6875 618.836C21.958 620.491 25.144 621.319 29.2456 621.319C33.3472 621.319 36.5405 620.491 38.8257 618.836C41.0962 617.166 42.2314 614.5 42.2314 610.838C42.2314 608.729 41.748 607.044 40.7813 605.784C39.8145 604.51 38.8037 603.587 37.749 603.016C36.8994 602.562 36.6431 602.034 36.98 601.434L38.0127 599.61C38.3203 599.083 38.9063 599.039 39.7705 599.478C41.4551 600.342 42.8613 601.749 43.9893 603.697C45.1025 605.645 45.6592 608.099 45.6592 611.058C45.6592 615.818 44.209 619.473 41.3086 622.022C38.3936 624.556 34.3726 625.823 29.2456 625.823ZM29.2456 595.018C24.1187 595.018 20.105 593.758 17.2046 591.238C14.2896 588.704 12.832 585.057 12.832 580.296C12.832 575.535 14.2896 571.895 17.2046 569.375C20.105 566.841 24.1187 565.574 29.2456 565.574C34.3726 565.574 38.3936 566.841 41.3086 569.375C44.209 571.895 45.6592 575.535 45.6592 580.296C45.6592 585.057 44.209 588.704 41.3086 591.238C38.3936 593.758 34.3726 595.018 29.2456 595.018ZM29.2456 590.513C33.3472 590.513 36.5405 589.671 38.8257 587.986C41.0962 586.302 42.2314 583.738 42.2314 580.296C42.2314 576.854 41.0962 574.29 38.8257 572.605C36.5405 570.921 33.3472 570.079 29.2456 570.079C25.144 570.079 21.958 570.921 19.6875 572.605C17.4023 574.29 16.2598 576.854 16.2598 580.296C16.2598 583.738 17.4023 586.302 19.6875 587.986C21.958 589.671 25.144 590.513 29.2456 590.513ZM45 560.257C45 561.062 44.6704 561.465 44.0112 561.465H42.9565C42.3853 561.465 41.8579 561.224 41.3745 560.74L32.6953 552.127C30.1318 549.578 28.1543 547.908 26.7627 547.117C25.3564 546.312 23.7378 545.909 21.9067 545.909C20.3687 545.909 19.0649 546.363 17.9956 547.271C16.9263 548.165 16.3916 549.527 16.3916 551.358C16.3916 552.999 16.8091 554.361 17.644 555.445C18.479 556.529 19.8779 557.312 21.8408 557.796C22.6758 558.001 22.998 558.433 22.8076 559.092L22.3022 560.806C22.1704 561.26 21.5479 561.37 20.4346 561.136C18.5156 560.711 16.8164 559.686 15.3369 558.06C13.8428 556.419 13.0957 554.244 13.0957 551.534C13.0957 548.091 13.96 545.579 15.6885 543.997C17.417 542.4 19.5337 541.602 22.0386 541.602C24.4849 541.602 26.5942 542.261 28.3667 543.58C30.1392 544.883 32.1313 546.678 34.3433 548.963L41.3525 556.192H41.4404C41.4111 555.796 41.3965 555.21 41.3965 554.434L41.3965 542.459C41.3965 541.653 41.7261 541.25 42.3853 541.25H44.0112C44.6704 541.25 45 541.653 45 542.459L45 560.257Z" fill="white"/>
<line x1="1086" y1="1391" x2="210" y2="1391" stroke="white" stroke-width="8"/>
<rect x="323" y="442" width="176" height="945" fill="#75D573"/>
<rect x="770" y="202" width="176" height="1185" fill="#75D573"/>
<path d="M1086 994L210 994" stroke="white" stroke-width="4"/>
<line x1="1086" y1="604" x2="210" y2="604" stroke="white" stroke-width="4"/>
<line x1="1086" y1="212" x2="210" y2="212" stroke="white" stroke-width="4"/>
<path d="M210 119L210 1395" stroke="white" stroke-width="8"/>
</svg>
