<svg width="1278" height="1278" viewBox="0 0 1278 1278" fill="none" xmlns="http://www.w3.org/2000/svg">
<path d="M709.937 891.2H563.002C554.718 891.2 548.002 884.484 548.002 876.2V756.053M853.842 656.199V620.907M548.002 620.907H853.842M548.002 620.907V756.053M548.002 620.907V506.095M853.842 620.907V506.095M548.002 756.053H709.937M843.377 495.629H558.467M843.377 495.629C849.157 495.629 853.842 500.315 853.842 506.095M843.377 495.629V495.629C849.157 495.629 853.842 500.315 853.842 506.095V506.095M558.467 495.629C552.687 495.629 548.002 500.315 548.002 506.095M558.467 495.629V495.629C552.687 495.629 548.002 500.315 548.002 506.095V506.095" stroke="#75D573" stroke-width="50" stroke-linecap="round" stroke-linejoin="round"/>
<path d="M530.616 637.956H413C404.716 637.956 398 631.24 398 622.956V530.693M648.467 478.536V423.43M398 423.43H648.467M398 423.43V530.693M398 423.43V332.306M648.467 423.43V332.306M398 530.693H530.616M639.896 324H406.57M639.896 324C644.63 324 648.467 327.719 648.467 332.306M639.896 324L644.281 328.186L648.467 332.306M406.57 324C401.837 324 398 327.719 398 332.306M406.57 324L401.14 329.233L398 332.306" stroke="#75D573" stroke-width="50" stroke-linecap="round" stroke-linejoin="round"/>
<path d="M773.354 754.254C773.354 754.254 787.115 716.096 829.026 716.096C856.863 716.096 880.321 735.172 880.321 762.073C880.321 804.609 829.026 822.75 829.026 869.04" stroke="#75D573" stroke-width="50" stroke-linecap="round"/>
<circle cx="826.811" cy="931.415" r="23.4577" fill="#75D573"/>
</svg>
