<svg width="1278" height="1278" viewBox="0 0 1278 1278" fill="none" xmlns="http://www.w3.org/2000/svg">
<path d="M453.383 276.526C435.819 279.719 435.021 283.709 435.021 346.755V413.791L462.963 409.003C501.284 402.618 525.235 420.973 545.992 472.049L563.556 515.143L455.778 757.75L348 1001.16L428.634 1003.55C473.342 1004.35 512.461 1002.75 514.856 999.559C518.049 996.367 545.193 932.523 574.733 859.103C604.272 785.682 630.617 726.626 632.214 728.222C633.811 730.617 652.173 776.903 673.728 831.969C695.284 887.832 718.436 942.1 725.621 954.07C752.765 994.771 831.802 1014.72 905.251 1000.36L930 994.771V929.331V863.093L899.663 867.083C859.745 872.669 850.165 862.295 819.029 780.096C648.181 329.198 644.189 322.015 578.724 288.497C545.193 271.738 500.486 267.748 453.383 276.526Z" fill="#75D573"/>
</svg>
