<svg width="2785" height="804" viewBox="0 0 2785 804" fill="none" xmlns="http://www.w3.org/2000/svg">
<path d="M2431.98 312.005C2431.79 311.288 2431.99 310.929 2432.57 310.929H2434.88C2435.41 310.929 2435.74 311.214 2435.87 311.786L2439.1 326.288C2439.2 326.712 2439.35 327.379 2439.56 328.287C2439.78 329.195 2439.93 329.862 2440.02 330.287H2440.11C2440.18 329.876 2440.31 329.261 2440.48 328.441C2440.67 327.621 2440.85 326.903 2441.01 326.288L2444.88 311.786C2445.02 311.214 2445.35 310.929 2445.86 310.929H2447.84C2448.35 310.929 2448.68 311.214 2448.83 311.786L2452.7 326.288C2452.86 326.903 2453.03 327.621 2453.2 328.441C2453.39 329.261 2453.53 329.876 2453.6 330.287H2453.69C2453.77 329.862 2453.92 329.195 2454.13 328.287C2454.35 327.379 2454.51 326.712 2454.61 326.288L2457.84 311.786C2457.97 311.214 2458.3 310.929 2458.83 310.929H2461.14C2461.72 310.929 2461.92 311.288 2461.73 312.005L2456.28 332.66C2456.05 333.553 2455.65 334 2455.09 334H2452.46C2451.9 334 2451.5 333.553 2451.27 332.66L2447.53 318.136C2447.27 317.11 2447.1 316.393 2447.03 315.982C2446.97 315.572 2446.92 315.184 2446.88 314.818H2446.83C2446.79 315.184 2446.73 315.572 2446.66 315.982C2446.6 316.393 2446.44 317.11 2446.17 318.136L2442.44 332.66C2442.2 333.553 2441.81 334 2441.25 334H2438.61C2438.06 334 2437.66 333.553 2437.43 332.66L2431.98 312.005ZM2466.54 334C2465.88 334 2465.55 333.67 2465.55 333.011V311.917C2465.55 311.258 2465.88 310.929 2466.54 310.929H2468.43C2469.09 310.929 2469.42 311.258 2469.42 311.917V333.011C2469.42 333.67 2469.09 334 2468.43 334H2466.54ZM2466.54 306.754C2465.88 306.754 2465.55 306.424 2465.55 305.765V303.875C2465.55 303.216 2465.88 302.887 2466.54 302.887H2468.43C2469.09 302.887 2469.42 303.216 2469.42 303.875V305.765C2469.42 306.424 2469.09 306.754 2468.43 306.754H2466.54ZM2474.54 313.829C2473.88 313.829 2473.55 313.573 2473.55 313.06V311.698C2473.55 311.185 2473.88 310.929 2474.54 310.929H2477.13V308.951C2477.13 308.658 2477.21 308.38 2477.35 308.116L2478.89 305.326C2479.17 304.813 2479.4 304.557 2479.57 304.557H2480.34C2480.78 304.557 2481 304.813 2481 305.326V310.929H2485.68C2486.34 310.929 2486.67 311.185 2486.67 311.698V313.06C2486.67 313.573 2486.34 313.829 2485.68 313.829H2481V327.826C2481 329.364 2481.23 330.367 2481.68 330.836C2482.15 331.29 2482.71 331.517 2483.35 331.517C2483.85 331.517 2484.44 331.371 2485.13 331.078C2485.83 330.785 2486.32 330.536 2486.58 330.331C2486.84 330.125 2487.05 330.191 2487.2 330.528L2487.92 332.22C2488.04 332.513 2487.95 332.748 2487.66 332.923C2487.09 333.26 2486.25 333.59 2485.15 333.912C2484.05 334.22 2482.95 334.374 2481.86 334.374C2480.33 334.374 2479.16 333.824 2478.34 332.726C2477.53 331.627 2477.13 330.074 2477.13 328.067V313.829H2474.54ZM2493.3 334C2492.64 334 2492.31 333.67 2492.31 333.011V302.557C2492.31 301.898 2492.64 301.568 2493.3 301.568H2495.19C2495.85 301.568 2496.18 301.898 2496.18 302.557V312.357C2496.18 312.796 2496.17 313.236 2496.14 313.675H2496.23C2497.18 312.621 2498.2 311.837 2499.3 311.324C2500.4 310.812 2501.77 310.555 2503.41 310.555C2506.08 310.555 2507.99 311.31 2509.15 312.818C2510.32 314.312 2510.9 316.363 2510.9 318.971V333.011C2510.9 333.67 2510.57 334 2509.92 334H2508.03C2507.37 334 2507.04 333.67 2507.04 333.011V320.025C2507.04 317.154 2506.56 315.338 2505.61 314.576C2504.66 313.8 2503.45 313.412 2501.98 313.412C2500.08 313.412 2498.64 313.983 2497.65 315.125C2496.67 316.253 2496.18 318.194 2496.18 320.948V333.011C2496.18 333.67 2495.85 334 2495.19 334H2493.3ZM2515.85 322.464C2515.85 319.022 2516.76 316.18 2518.57 313.939C2520.4 311.683 2523.08 310.555 2526.59 310.555C2530.11 310.555 2532.77 311.683 2534.59 313.939C2536.42 316.18 2537.34 319.022 2537.34 322.464C2537.34 325.907 2536.42 328.756 2534.59 331.012C2532.77 333.253 2530.11 334.374 2526.59 334.374C2523.08 334.374 2520.4 333.253 2518.57 331.012C2516.76 328.756 2515.85 325.907 2515.85 322.464ZM2519.93 322.464C2519.93 325.541 2520.54 327.818 2521.76 329.298C2522.97 330.777 2524.59 331.517 2526.59 331.517C2528.6 331.517 2530.21 330.777 2531.43 329.298C2532.64 327.818 2533.25 325.541 2533.25 322.464C2533.25 319.388 2532.64 317.11 2531.43 315.631C2530.21 314.151 2528.6 313.412 2526.59 313.412C2524.59 313.412 2522.97 314.151 2521.76 315.631C2520.54 317.11 2519.93 319.388 2519.93 322.464ZM2542.28 325.958V311.917C2542.28 311.258 2542.61 310.929 2543.27 310.929H2545.16C2545.82 310.929 2546.15 311.258 2546.15 311.917V324.903C2546.15 327.774 2546.62 329.598 2547.58 330.375C2548.53 331.136 2549.71 331.517 2551.11 331.517C2552.96 331.517 2554.37 330.953 2555.35 329.825C2556.34 328.683 2556.83 326.734 2556.83 323.98V311.917C2556.83 311.258 2557.16 310.929 2557.82 310.929H2559.71C2560.36 310.929 2560.69 311.258 2560.69 311.917V333.011C2560.69 333.67 2560.36 334 2559.71 334H2557.86C2557.2 334 2556.87 333.67 2556.87 333.011V331.253H2556.78C2555.83 332.308 2554.81 333.092 2553.71 333.604C2552.61 334.117 2551.27 334.374 2549.69 334.374C2547.12 334.374 2545.25 333.626 2544.06 332.132C2542.87 330.624 2542.28 328.565 2542.28 325.958ZM2565.81 313.829C2565.15 313.829 2564.82 313.573 2564.82 313.06V311.698C2564.82 311.185 2565.15 310.929 2565.81 310.929H2568.41V308.951C2568.41 308.658 2568.48 308.38 2568.63 308.116L2570.16 305.326C2570.44 304.813 2570.67 304.557 2570.85 304.557H2571.61C2572.05 304.557 2572.27 304.813 2572.27 305.326V310.929H2576.95C2577.61 310.929 2577.94 311.185 2577.94 311.698V313.06C2577.94 313.573 2577.61 313.829 2576.95 313.829H2572.27V327.826C2572.27 329.364 2572.5 330.367 2572.95 330.836C2573.42 331.29 2573.98 331.517 2574.62 331.517C2575.12 331.517 2575.72 331.371 2576.4 331.078C2577.11 330.785 2577.59 330.536 2577.85 330.331C2578.12 330.125 2578.32 330.191 2578.47 330.528L2579.19 332.22C2579.31 332.513 2579.22 332.748 2578.93 332.923C2578.36 333.26 2577.52 333.59 2576.43 333.912C2575.33 334.22 2574.23 334.374 2573.13 334.374C2571.61 334.374 2570.44 333.824 2569.61 332.726C2568.81 331.627 2568.41 330.074 2568.41 328.067V313.829H2565.81ZM2597.32 322.464C2597.32 319.022 2598.17 316.18 2599.87 313.939C2601.58 311.683 2604.2 310.555 2607.72 310.555C2610.09 310.555 2611.9 310.98 2613.14 311.83C2614.4 312.665 2615.31 313.521 2615.87 314.4C2616.17 314.884 2616.11 315.272 2615.67 315.565L2614.29 316.466C2613.85 316.773 2613.41 316.576 2612.97 315.873C2612.54 315.199 2611.94 314.62 2611.17 314.137C2610.4 313.653 2609.25 313.412 2607.72 313.412C2605.71 313.412 2604.16 314.151 2603.06 315.631C2601.96 317.11 2601.41 319.388 2601.41 322.464C2601.41 325.541 2601.96 327.818 2603.06 329.298C2604.16 330.777 2605.71 331.517 2607.72 331.517C2609.34 331.517 2610.59 331.209 2611.45 330.594C2612.31 329.964 2612.94 329.283 2613.34 328.551C2613.72 327.862 2614.15 327.665 2614.64 327.958L2616.11 328.836C2616.55 329.1 2616.61 329.496 2616.31 330.023C2615.94 330.653 2615.11 331.539 2613.8 332.682C2612.51 333.81 2610.48 334.374 2607.72 334.374C2604.2 334.374 2601.58 333.253 2599.87 331.012C2598.17 328.756 2597.32 325.907 2597.32 322.464ZM2619.87 327.848C2619.87 325.24 2621.08 323.329 2623.51 322.113C2625.96 320.897 2629.61 320.187 2634.46 319.981V318.487C2634.46 317.11 2634.14 315.924 2633.51 314.928C2632.9 313.917 2631.67 313.412 2629.82 313.412C2628.65 313.412 2627.71 313.529 2627.01 313.763C2626.3 313.983 2625.66 314.283 2625.07 314.664C2624.5 315.03 2623.95 315.506 2623.43 316.092C2623.03 316.532 2622.66 316.554 2622.31 316.158L2621.16 314.84C2620.84 314.474 2620.95 314.034 2621.49 313.521C2622.27 312.789 2623.02 312.24 2623.76 311.874C2624.49 311.507 2625.4 311.2 2626.48 310.951C2627.58 310.687 2628.69 310.555 2629.82 310.555C2632.88 310.555 2635.06 311.346 2636.37 312.928C2637.67 314.496 2638.32 316.649 2638.32 319.388V333.011C2638.32 333.67 2637.99 334 2637.33 334H2635.36C2634.79 334 2634.5 333.67 2634.5 333.011V331.935H2634.46C2633.3 332.843 2632.16 333.48 2631.05 333.846C2629.95 334.198 2628.72 334.374 2627.36 334.374C2624.96 334.374 2623.1 333.802 2621.8 332.66C2620.51 331.502 2619.87 329.898 2619.87 327.848ZM2623.87 327.936C2623.87 328.844 2624.06 329.576 2624.44 330.133C2624.82 330.675 2625.34 331.026 2626.02 331.188C2626.69 331.334 2627.4 331.407 2628.13 331.407C2629.26 331.407 2630.33 331.297 2631.34 331.078C2632.35 330.858 2633.39 330.279 2634.46 329.342V322.86C2631.5 323.08 2629.39 323.351 2628.13 323.673C2626.87 323.98 2625.84 324.522 2625.05 325.299C2624.26 326.061 2623.87 326.939 2623.87 327.936ZM2643.33 322.464C2643.33 319.022 2644.18 316.18 2645.88 313.939C2647.6 311.683 2650.21 310.555 2653.73 310.555C2656.1 310.555 2657.91 310.98 2659.15 311.83C2660.41 312.665 2661.32 313.521 2661.88 314.4C2662.19 314.884 2662.12 315.272 2661.68 315.565L2660.3 316.466C2659.86 316.773 2659.42 316.576 2658.98 315.873C2658.55 315.199 2657.95 314.62 2657.18 314.137C2656.41 313.653 2655.26 313.412 2653.73 313.412C2651.72 313.412 2650.17 314.151 2649.07 315.631C2647.97 317.11 2647.42 319.388 2647.42 322.464C2647.42 325.541 2647.97 327.818 2649.07 329.298C2650.17 330.777 2651.72 331.517 2653.73 331.517C2655.35 331.517 2656.6 331.209 2657.46 330.594C2658.33 329.964 2658.96 329.283 2659.35 328.551C2659.73 327.862 2660.16 327.665 2660.65 327.958L2662.12 328.836C2662.56 329.1 2662.62 329.496 2662.32 330.023C2661.95 330.653 2661.12 331.539 2659.81 332.682C2658.52 333.81 2656.49 334.374 2653.73 334.374C2650.21 334.374 2647.6 333.253 2645.88 331.012C2644.18 328.756 2643.33 325.907 2643.33 322.464ZM2668.12 334C2667.46 334 2667.13 333.67 2667.13 333.011V302.557C2667.13 301.898 2667.46 301.568 2668.12 301.568H2670.01C2670.67 301.568 2671 301.898 2671 302.557V312.357C2671 312.796 2670.98 313.236 2670.95 313.675H2671.04C2671.99 312.621 2673.02 311.837 2674.12 311.324C2675.22 310.812 2676.58 310.555 2678.23 310.555C2680.89 310.555 2682.8 311.31 2683.96 312.818C2685.13 314.312 2685.72 316.363 2685.72 318.971V333.011C2685.72 333.67 2685.39 334 2684.73 334H2682.84C2682.18 334 2681.85 333.67 2681.85 333.011V320.025C2681.85 317.154 2681.38 315.338 2680.42 314.576C2679.47 313.8 2678.26 313.412 2676.8 313.412C2674.89 313.412 2673.45 313.983 2672.47 315.125C2671.49 316.253 2671 318.194 2671 320.948V333.011C2671 333.67 2670.67 334 2670.01 334H2668.12ZM2692.9 334C2692.24 334 2691.91 333.67 2691.91 333.011V311.917C2691.91 311.258 2692.24 310.929 2692.9 310.929H2694.79C2695.45 310.929 2695.78 311.258 2695.78 311.917V333.011C2695.78 333.67 2695.45 334 2694.79 334H2692.9ZM2692.9 306.754C2692.24 306.754 2691.91 306.424 2691.91 305.765V303.875C2691.91 303.216 2692.24 302.887 2692.9 302.887H2694.79C2695.45 302.887 2695.78 303.216 2695.78 303.875V305.765C2695.78 306.424 2695.45 306.754 2694.79 306.754H2692.9ZM2703.01 334C2702.35 334 2702.02 333.67 2702.02 333.011V311.917C2702.02 311.258 2702.35 310.929 2703.01 310.929H2704.86C2705.52 310.929 2705.85 311.258 2705.85 311.917V313.675H2705.93C2706.89 312.621 2707.91 311.837 2709.01 311.324C2710.11 310.812 2711.48 310.555 2713.12 310.555C2715.78 310.555 2717.7 311.31 2718.85 312.818C2720.02 314.312 2720.61 316.363 2720.61 318.971V333.011C2720.61 333.67 2720.28 334 2719.62 334H2717.73C2717.07 334 2716.74 333.67 2716.74 333.011V320.025C2716.74 317.154 2716.27 315.338 2715.32 314.576C2714.36 313.8 2713.15 313.412 2711.69 313.412C2709.79 313.412 2708.34 313.983 2707.36 315.125C2706.38 316.253 2705.89 318.194 2705.89 320.948V333.011C2705.89 333.67 2705.56 334 2704.9 334H2703.01ZM2725.55 322.464C2725.55 319.315 2726.32 316.546 2727.84 314.159C2729.36 311.756 2731.59 310.555 2734.52 310.555C2736.2 310.555 2737.55 310.833 2738.56 311.39C2739.57 311.947 2740.48 312.708 2741.29 313.675H2741.33L2741.46 311.917C2741.51 311.258 2741.79 310.929 2742.32 310.929H2744.17C2744.82 310.929 2745.15 311.258 2745.15 311.917V334.176C2745.15 336.988 2744.5 339.186 2743.2 340.768C2741.91 342.364 2739.35 343.163 2735.53 343.163C2732.97 343.163 2731.05 342.87 2729.77 342.284C2728.5 341.712 2727.59 341.104 2727.05 340.46C2726.65 339.977 2726.63 339.566 2726.98 339.229L2728.19 338.043C2728.53 337.721 2729 337.823 2729.6 338.351C2730.37 339.054 2731.12 339.552 2731.84 339.845C2732.56 340.152 2733.79 340.306 2735.55 340.306C2737.54 340.306 2738.99 339.881 2739.9 339.032C2740.83 338.182 2741.29 336.424 2741.29 333.758V332.44C2741.29 331.986 2741.3 331.539 2741.33 331.1H2741.29C2740.53 332.11 2739.62 332.909 2738.58 333.495C2737.56 334.081 2736.2 334.374 2734.52 334.374C2731.59 334.374 2729.36 333.18 2727.84 330.792C2726.32 328.39 2725.55 325.614 2725.55 322.464ZM2729.64 322.464C2729.64 325.16 2730.1 327.342 2731.03 329.012C2731.96 330.682 2733.55 331.517 2735.77 331.517C2737.35 331.517 2738.67 330.982 2739.71 329.913C2740.76 328.829 2741.29 327.188 2741.29 324.991V319.938C2741.29 317.74 2740.76 316.107 2739.71 315.038C2738.67 313.954 2737.35 313.412 2735.77 313.412C2733.55 313.412 2731.96 314.247 2731.03 315.917C2730.1 317.586 2729.64 319.769 2729.64 322.464Z" fill="white"/>
<path d="M2479.22 602.005C2479.03 601.288 2479.23 600.929 2479.82 600.929H2482.12C2482.65 600.929 2482.98 601.214 2483.11 601.786L2486.34 616.288C2486.44 616.712 2486.6 617.379 2486.8 618.287C2487.02 619.195 2487.18 619.862 2487.26 620.287H2487.35C2487.43 619.876 2487.55 619.261 2487.73 618.441C2487.92 617.621 2488.09 616.903 2488.25 616.288L2492.12 601.786C2492.27 601.214 2492.6 600.929 2493.11 600.929H2495.09C2495.6 600.929 2495.93 601.214 2496.08 601.786L2499.94 616.288C2500.1 616.903 2500.27 617.621 2500.45 618.441C2500.64 619.261 2500.77 619.876 2500.84 620.287H2500.93C2501.02 619.862 2501.17 619.195 2501.37 618.287C2501.59 617.379 2501.75 616.712 2501.85 616.288L2505.08 601.786C2505.22 601.214 2505.55 600.929 2506.07 600.929H2508.38C2508.97 600.929 2509.16 601.288 2508.97 602.005L2503.52 622.66C2503.29 623.553 2502.89 624 2502.34 624H2499.7C2499.14 624 2498.75 623.553 2498.51 622.66L2494.78 608.136C2494.52 607.11 2494.35 606.393 2494.27 605.982C2494.22 605.572 2494.16 605.184 2494.12 604.818H2494.08C2494.03 605.184 2493.97 605.572 2493.9 605.982C2493.84 606.393 2493.68 607.11 2493.42 608.136L2489.68 622.66C2489.45 623.553 2489.05 624 2488.5 624H2485.86C2485.3 624 2484.91 623.553 2484.67 622.66L2479.22 602.005ZM2513.79 624C2513.13 624 2512.8 623.67 2512.8 623.011V601.917C2512.8 601.258 2513.13 600.929 2513.79 600.929H2515.68C2516.33 600.929 2516.66 601.258 2516.66 601.917V623.011C2516.66 623.67 2516.33 624 2515.68 624H2513.79ZM2513.79 596.754C2513.13 596.754 2512.8 596.424 2512.8 595.765V593.875C2512.8 593.216 2513.13 592.887 2513.79 592.887H2515.68C2516.33 592.887 2516.66 593.216 2516.66 593.875V595.765C2516.66 596.424 2516.33 596.754 2515.68 596.754H2513.79ZM2521.78 603.829C2521.12 603.829 2520.79 603.573 2520.79 603.06V601.698C2520.79 601.185 2521.12 600.929 2521.78 600.929H2524.38V598.951C2524.38 598.658 2524.45 598.38 2524.6 598.116L2526.13 595.326C2526.41 594.813 2526.64 594.557 2526.82 594.557H2527.58C2528.02 594.557 2528.24 594.813 2528.24 595.326V600.929H2532.92C2533.58 600.929 2533.91 601.185 2533.91 601.698V603.06C2533.91 603.573 2533.58 603.829 2532.92 603.829H2528.24V617.826C2528.24 619.364 2528.47 620.367 2528.92 620.836C2529.39 621.29 2529.95 621.517 2530.59 621.517C2531.09 621.517 2531.69 621.371 2532.37 621.078C2533.08 620.785 2533.56 620.536 2533.82 620.331C2534.09 620.125 2534.29 620.191 2534.44 620.528L2535.17 622.22C2535.28 622.513 2535.19 622.748 2534.9 622.923C2534.33 623.26 2533.5 623.59 2532.4 623.912C2531.3 624.22 2530.2 624.374 2529.1 624.374C2527.58 624.374 2526.41 623.824 2525.58 622.726C2524.78 621.627 2524.38 620.074 2524.38 618.067V603.829H2521.78ZM2540.55 624C2539.89 624 2539.56 623.67 2539.56 623.011V592.557C2539.56 591.898 2539.89 591.568 2540.55 591.568H2542.44C2543.1 591.568 2543.43 591.898 2543.43 592.557V602.357C2543.43 602.796 2543.41 603.236 2543.38 603.675H2543.47C2544.42 602.621 2545.45 601.837 2546.55 601.324C2547.65 600.812 2549.02 600.555 2550.66 600.555C2553.32 600.555 2555.23 601.31 2556.39 602.818C2557.56 604.312 2558.15 606.363 2558.15 608.971V623.011C2558.15 623.67 2557.82 624 2557.16 624H2555.27C2554.61 624 2554.28 623.67 2554.28 623.011V610.025C2554.28 607.154 2553.81 605.338 2552.85 604.576C2551.9 603.8 2550.69 603.412 2549.23 603.412C2547.32 603.412 2545.88 603.983 2544.9 605.125C2543.92 606.253 2543.43 608.194 2543.43 610.948V623.011C2543.43 623.67 2543.1 624 2542.44 624H2540.55ZM2578.08 612.464C2578.08 609.022 2578.93 606.18 2580.63 603.939C2582.34 601.683 2584.96 600.555 2588.47 600.555C2590.84 600.555 2592.65 600.98 2593.9 601.83C2595.16 602.665 2596.07 603.521 2596.62 604.4C2596.93 604.884 2596.86 605.272 2596.42 605.565L2595.04 606.466C2594.6 606.773 2594.16 606.576 2593.72 605.873C2593.3 605.199 2592.7 604.62 2591.92 604.137C2591.16 603.653 2590.01 603.412 2588.47 603.412C2586.46 603.412 2584.91 604.151 2583.81 605.631C2582.71 607.11 2582.16 609.388 2582.16 612.464C2582.16 615.541 2582.71 617.818 2583.81 619.298C2584.91 620.777 2586.46 621.517 2588.47 621.517C2590.1 621.517 2591.34 621.209 2592.21 620.594C2593.07 619.964 2593.7 619.283 2594.1 618.551C2594.48 617.862 2594.91 617.665 2595.39 617.958L2596.86 618.836C2597.3 619.1 2597.37 619.496 2597.06 620.023C2596.7 620.653 2595.86 621.539 2594.56 622.682C2593.27 623.81 2591.24 624.374 2588.47 624.374C2584.96 624.374 2582.34 623.253 2580.63 621.012C2578.93 618.756 2578.08 615.907 2578.08 612.464ZM2600.62 617.848C2600.62 615.24 2601.84 613.329 2604.27 612.113C2606.72 610.897 2610.36 610.187 2615.21 609.981V608.487C2615.21 607.11 2614.9 605.924 2614.27 604.928C2613.65 603.917 2612.42 603.412 2610.58 603.412C2609.4 603.412 2608.47 603.529 2607.76 603.763C2607.06 603.983 2606.42 604.283 2605.83 604.664C2605.26 605.03 2604.71 605.506 2604.18 606.092C2603.79 606.532 2603.41 606.554 2603.06 606.158L2601.92 604.84C2601.6 604.474 2601.71 604.034 2602.25 603.521C2603.02 602.789 2603.78 602.24 2604.51 601.874C2605.24 601.507 2606.15 601.2 2607.24 600.951C2608.33 600.687 2609.45 600.555 2610.58 600.555C2613.64 600.555 2615.82 601.346 2617.12 602.928C2618.43 604.496 2619.08 606.649 2619.08 609.388V623.011C2619.08 623.67 2618.75 624 2618.09 624H2616.11C2615.54 624 2615.26 623.67 2615.26 623.011V621.935H2615.21C2614.05 622.843 2612.92 623.48 2611.81 623.846C2610.71 624.198 2609.48 624.374 2608.11 624.374C2605.71 624.374 2603.86 623.802 2602.56 622.66C2601.27 621.502 2600.62 619.898 2600.62 617.848ZM2604.62 617.936C2604.62 618.844 2604.81 619.576 2605.19 620.133C2605.57 620.675 2606.1 621.026 2606.77 621.188C2607.45 621.334 2608.15 621.407 2608.88 621.407C2610.01 621.407 2611.08 621.297 2612.09 621.078C2613.1 620.858 2614.14 620.279 2615.21 619.342V612.86C2612.25 613.08 2610.14 613.351 2608.88 613.673C2607.62 613.98 2606.6 614.522 2605.81 615.299C2605.02 616.061 2604.62 616.939 2604.62 617.936ZM2624.09 612.464C2624.09 609.022 2624.94 606.18 2626.64 603.939C2628.35 601.683 2630.97 600.555 2634.48 600.555C2636.85 600.555 2638.66 600.98 2639.91 601.83C2641.17 602.665 2642.08 603.521 2642.63 604.4C2642.94 604.884 2642.88 605.272 2642.44 605.565L2641.05 606.466C2640.61 606.773 2640.17 606.576 2639.73 605.873C2639.31 605.199 2638.71 604.62 2637.93 604.137C2637.17 603.653 2636.02 603.412 2634.48 603.412C2632.47 603.412 2630.92 604.151 2629.82 605.631C2628.72 607.11 2628.18 609.388 2628.18 612.464C2628.18 615.541 2628.72 617.818 2629.82 619.298C2630.92 620.777 2632.47 621.517 2634.48 621.517C2636.11 621.517 2637.35 621.209 2638.22 620.594C2639.08 619.964 2639.71 619.283 2640.11 618.551C2640.49 617.862 2640.92 617.665 2641.4 617.958L2642.88 618.836C2643.31 619.1 2643.38 619.496 2643.07 620.023C2642.71 620.653 2641.87 621.539 2640.57 622.682C2639.28 623.81 2637.25 624.374 2634.48 624.374C2630.97 624.374 2628.35 623.253 2626.64 621.012C2624.94 618.756 2624.09 615.907 2624.09 612.464ZM2648.87 624C2648.21 624 2647.88 623.67 2647.88 623.011V592.557C2647.88 591.898 2648.21 591.568 2648.87 591.568H2650.76C2651.42 591.568 2651.75 591.898 2651.75 592.557V602.357C2651.75 602.796 2651.74 603.236 2651.71 603.675H2651.8C2652.75 602.621 2653.77 601.837 2654.87 601.324C2655.97 600.812 2657.34 600.555 2658.98 600.555C2661.65 600.555 2663.56 601.31 2664.72 602.818C2665.89 604.312 2666.47 606.363 2666.47 608.971V623.011C2666.47 623.67 2666.14 624 2665.48 624H2663.6C2662.94 624 2662.61 623.67 2662.61 623.011V610.025C2662.61 607.154 2662.13 605.338 2661.18 604.576C2660.23 603.8 2659.02 603.412 2657.55 603.412C2655.65 603.412 2654.21 603.983 2653.22 605.125C2652.24 606.253 2651.75 608.194 2651.75 610.948V623.011C2651.75 623.67 2651.42 624 2650.76 624H2648.87ZM2673.66 624C2673 624 2672.67 623.67 2672.67 623.011V601.917C2672.67 601.258 2673 600.929 2673.66 600.929H2675.55C2676.21 600.929 2676.54 601.258 2676.54 601.917V623.011C2676.54 623.67 2676.21 624 2675.55 624H2673.66ZM2673.66 596.754C2673 596.754 2672.67 596.424 2672.67 595.765V593.875C2672.67 593.216 2673 592.887 2673.66 592.887H2675.55C2676.21 592.887 2676.54 593.216 2676.54 593.875V595.765C2676.54 596.424 2676.21 596.754 2675.55 596.754H2673.66ZM2683.77 624C2683.11 624 2682.78 623.67 2682.78 623.011V601.917C2682.78 601.258 2683.11 600.929 2683.77 600.929H2685.61C2686.27 600.929 2686.6 601.258 2686.6 601.917V603.675H2686.69C2687.64 602.621 2688.67 601.837 2689.76 601.324C2690.86 600.812 2692.23 600.555 2693.87 600.555C2696.54 600.555 2698.45 601.31 2699.61 602.818C2700.78 604.312 2701.37 606.363 2701.37 608.971V623.011C2701.37 623.67 2701.04 624 2700.38 624H2698.49C2697.83 624 2697.5 623.67 2697.5 623.011V610.025C2697.5 607.154 2697.02 605.338 2696.07 604.576C2695.12 603.8 2693.91 603.412 2692.45 603.412C2690.54 603.412 2689.1 603.983 2688.12 605.125C2687.14 606.253 2686.64 608.194 2686.64 610.948V623.011C2686.64 623.67 2686.31 624 2685.66 624H2683.77ZM2706.31 612.464C2706.31 609.315 2707.07 606.546 2708.6 604.159C2710.12 601.756 2712.35 600.555 2715.27 600.555C2716.96 600.555 2718.31 600.833 2719.32 601.39C2720.33 601.947 2721.24 602.708 2722.04 603.675H2722.09L2722.22 601.917C2722.26 601.258 2722.55 600.929 2723.08 600.929H2724.92C2725.58 600.929 2725.91 601.258 2725.91 601.917V624.176C2725.91 626.988 2725.26 629.186 2723.95 630.768C2722.67 632.364 2720.11 633.163 2716.29 633.163C2713.72 633.163 2711.8 632.87 2710.53 632.284C2709.25 631.712 2708.35 631.104 2707.8 630.46C2707.41 629.977 2707.39 629.566 2707.74 629.229L2708.95 628.043C2709.28 627.721 2709.75 627.823 2710.35 628.351C2711.13 629.054 2711.88 629.552 2712.59 629.845C2713.31 630.152 2714.55 630.306 2716.31 630.306C2718.3 630.306 2719.75 629.881 2720.66 629.032C2721.58 628.182 2722.04 626.424 2722.04 623.758V622.44C2722.04 621.986 2722.06 621.539 2722.09 621.1H2722.04C2721.28 622.11 2720.38 622.909 2719.34 623.495C2718.31 624.081 2716.96 624.374 2715.27 624.374C2712.35 624.374 2710.12 623.18 2708.6 620.792C2707.07 618.39 2706.31 615.614 2706.31 612.464ZM2710.4 612.464C2710.4 615.16 2710.86 617.342 2711.78 619.012C2712.72 620.682 2714.3 621.517 2716.53 621.517C2718.11 621.517 2719.42 620.982 2720.46 619.913C2721.52 618.829 2722.04 617.188 2722.04 614.991V609.938C2722.04 607.74 2721.52 606.107 2720.46 605.038C2719.42 603.954 2718.11 603.412 2716.53 603.412C2714.3 603.412 2712.72 604.247 2711.78 605.917C2710.86 607.586 2710.4 609.769 2710.4 612.464Z" fill="white"/>
<path d="M2352 204L2352 804" stroke="white" stroke-width="5"/>
<path d="M1042.45 24.8291C1041.79 24.8291 1041.46 24.5728 1041.46 24.0601V22.6978C1041.46 22.1851 1041.79 21.9287 1042.45 21.9287H1045.04V19.9512C1045.04 19.6582 1045.12 19.3799 1045.26 19.1162L1046.8 16.3257C1047.08 15.813 1047.31 15.5566 1047.48 15.5566H1048.25C1048.69 15.5566 1048.91 15.813 1048.91 16.3257V21.9287H1053.59C1054.25 21.9287 1054.58 22.1851 1054.58 22.6978V24.0601C1054.58 24.5728 1054.25 24.8291 1053.59 24.8291H1048.91V38.8257C1048.91 40.3638 1049.14 41.3672 1049.59 41.8359C1050.06 42.29 1050.62 42.5171 1051.26 42.5171C1051.76 42.5171 1052.35 42.3706 1053.04 42.0776C1053.75 41.7847 1054.23 41.5356 1054.49 41.3306C1054.76 41.1255 1054.96 41.1914 1055.11 41.5283L1055.83 43.2202C1055.95 43.5132 1055.86 43.7476 1055.57 43.9233C1055 44.2603 1054.16 44.5898 1053.06 44.9121C1051.97 45.2197 1050.87 45.3735 1049.77 45.3735C1048.24 45.3735 1047.07 44.8242 1046.25 43.7256C1045.45 42.627 1045.04 41.0742 1045.04 39.0674V24.8291H1042.45ZM1061.22 45C1060.56 45 1060.23 44.6704 1060.23 44.0112V22.9175C1060.23 22.2583 1060.56 21.9287 1061.22 21.9287H1063.11C1063.76 21.9287 1064.09 22.2583 1064.09 22.9175V44.0112C1064.09 44.6704 1063.76 45 1063.11 45H1061.22ZM1061.22 17.7539C1060.56 17.7539 1060.23 17.4243 1060.23 16.7651V14.8755C1060.23 14.2163 1060.56 13.8867 1061.22 13.8867H1063.11C1063.76 13.8867 1064.09 14.2163 1064.09 14.8755V16.7651C1064.09 17.4243 1063.76 17.7539 1063.11 17.7539H1061.22ZM1071.32 45C1070.66 45 1070.33 44.6704 1070.33 44.0112V22.9175C1070.33 22.2583 1070.66 21.9287 1071.32 21.9287H1073.17C1073.83 21.9287 1074.16 22.2583 1074.16 22.9175V24.6753H1074.25C1075.2 23.6206 1076.23 22.8369 1077.34 22.3242C1078.46 21.8115 1079.53 21.5552 1080.55 21.5552C1082.44 21.5552 1083.89 22.0312 1084.9 22.9834C1085.93 23.9209 1086.59 24.8657 1086.88 25.8179H1086.97C1087.77 24.6167 1088.79 23.606 1090.02 22.7856C1091.25 21.9653 1092.56 21.5552 1093.96 21.5552C1096.28 21.5552 1098.04 22.3096 1099.23 23.8184C1100.42 25.3125 1101.01 27.3633 1101.01 29.9707V44.0112C1101.01 44.6704 1100.68 45 1100.02 45H1098.13C1097.47 45 1097.14 44.6704 1097.14 44.0112V31.2451C1097.14 28.374 1096.78 26.521 1096.06 25.686C1095.35 24.8364 1094.24 24.4116 1092.75 24.4116C1091.28 24.4116 1090.06 25.0415 1089.08 26.3013C1088.1 27.5464 1087.6 29.4287 1087.6 31.9482V44.0112C1087.6 44.6704 1087.28 45 1086.62 45H1084.73C1084.07 45 1083.74 44.6704 1083.74 44.0112V31.2451C1083.74 28.374 1083.38 26.521 1082.66 25.686C1081.94 24.8364 1080.84 24.4116 1079.34 24.4116C1077.88 24.4116 1076.66 24.9829 1075.67 26.1255C1074.69 27.2534 1074.2 29.1943 1074.2 31.9482V44.0112C1074.2 44.6704 1073.87 45 1073.21 45H1071.32ZM1105.95 33.4644C1105.95 29.8315 1106.86 26.9385 1108.68 24.7852C1110.49 22.6318 1113.09 21.5552 1116.48 21.5552C1119.29 21.5552 1121.62 22.5439 1123.46 24.5215C1125.32 26.4844 1126.25 29.6265 1126.25 33.9478C1126.25 34.6069 1125.95 34.9365 1125.35 34.9365H1110.04C1110.29 37.7637 1111.05 39.7339 1112.32 40.8472C1113.6 41.9458 1115.04 42.4951 1116.65 42.4951C1118.35 42.4951 1119.66 42.2095 1120.56 41.6382C1121.47 41.0669 1122.14 40.5029 1122.56 39.9463C1123.03 39.3311 1123.49 39.2139 1123.93 39.5947L1125.22 40.7153C1125.56 41.0083 1125.56 41.4111 1125.22 41.9238C1124.94 42.3486 1124.15 43.0298 1122.83 43.9673C1121.52 44.9048 1119.47 45.3735 1116.65 45.3735C1112.99 45.3735 1110.29 44.2969 1108.54 42.1436C1106.82 39.9902 1105.95 37.0972 1105.95 33.4644ZM1109.95 32.0801H1122.37C1122.31 30.0293 1121.78 28.2349 1120.78 26.6968C1119.79 25.144 1118.32 24.3677 1116.39 24.3677C1114.69 24.3677 1113.25 24.939 1112.06 26.0815C1110.87 27.2095 1110.17 29.209 1109.95 32.0801ZM1145.2 24.8291C1144.54 24.8291 1144.21 24.5728 1144.21 24.0601V22.6978C1144.21 22.1851 1144.54 21.9287 1145.2 21.9287H1147.79V19.9512C1147.79 19.6582 1147.86 19.3799 1148.01 19.1162L1149.55 16.3257C1149.82 15.813 1150.05 15.5566 1150.23 15.5566H1151C1151.44 15.5566 1151.66 15.813 1151.66 16.3257V21.9287H1156.34C1156.99 21.9287 1157.32 22.1851 1157.32 22.6978V24.0601C1157.32 24.5728 1156.99 24.8291 1156.34 24.8291H1151.66V38.8257C1151.66 40.3638 1151.88 41.3672 1152.34 41.8359C1152.81 42.29 1153.36 42.5171 1154.01 42.5171C1154.5 42.5171 1155.1 42.3706 1155.79 42.0776C1156.49 41.7847 1156.97 41.5356 1157.24 41.3306C1157.5 41.1255 1157.71 41.1914 1157.85 41.5283L1158.58 43.2202C1158.69 43.5132 1158.61 43.7476 1158.31 43.9233C1157.74 44.2603 1156.91 44.5898 1155.81 44.9121C1154.71 45.2197 1153.61 45.3735 1152.51 45.3735C1150.99 45.3735 1149.82 44.8242 1149 43.7256C1148.19 42.627 1147.79 41.0742 1147.79 39.0674V24.8291H1145.2ZM1161.72 33.4644C1161.72 30.022 1162.63 27.1802 1164.44 24.939C1166.27 22.6831 1168.95 21.5552 1172.46 21.5552C1175.98 21.5552 1178.65 22.6831 1180.46 24.939C1182.29 27.1802 1183.21 30.022 1183.21 33.4644C1183.21 36.9067 1182.29 39.7559 1180.46 42.0117C1178.65 44.2529 1175.98 45.3735 1172.46 45.3735C1168.95 45.3735 1166.27 44.2529 1164.44 42.0117C1162.63 39.7559 1161.72 36.9067 1161.72 33.4644ZM1165.81 33.4644C1165.81 36.5405 1166.41 38.8184 1167.63 40.2979C1168.85 41.7773 1170.46 42.5171 1172.46 42.5171C1174.47 42.5171 1176.08 41.7773 1177.3 40.2979C1178.51 38.8184 1179.12 36.5405 1179.12 33.4644C1179.12 30.3882 1178.51 28.1104 1177.3 26.6309C1176.08 25.1514 1174.47 24.4116 1172.46 24.4116C1170.46 24.4116 1168.85 25.1514 1167.63 26.6309C1166.41 28.1104 1165.81 30.3882 1165.81 33.4644ZM1201.93 33.4644C1201.93 30.022 1202.78 27.1802 1204.48 24.939C1206.19 22.6831 1208.81 21.5552 1212.32 21.5552C1214.69 21.5552 1216.5 21.98 1217.75 22.8296C1219.01 23.6646 1219.92 24.5215 1220.47 25.4004C1220.78 25.8838 1220.72 26.272 1220.28 26.5649L1218.89 27.4658C1218.45 27.7734 1218.01 27.5757 1217.57 26.8726C1217.15 26.1987 1216.55 25.6201 1215.77 25.1367C1215.01 24.6533 1213.86 24.4116 1212.32 24.4116C1210.31 24.4116 1208.76 25.1514 1207.66 26.6309C1206.56 28.1104 1206.02 30.3882 1206.02 33.4644C1206.02 36.5405 1206.56 38.8184 1207.66 40.2979C1208.76 41.7773 1210.31 42.5171 1212.32 42.5171C1213.95 42.5171 1215.19 42.2095 1216.06 41.5942C1216.92 40.9644 1217.55 40.2832 1217.95 39.5508C1218.33 38.8623 1218.76 38.6646 1219.24 38.9575L1220.72 39.8364C1221.15 40.1001 1221.22 40.4956 1220.91 41.0229C1220.55 41.6528 1219.71 42.5391 1218.41 43.6816C1217.12 44.8096 1215.09 45.3735 1212.32 45.3735C1208.81 45.3735 1206.19 44.2529 1204.48 42.0117C1202.78 39.7559 1201.93 36.9067 1201.93 33.4644ZM1224.47 33.4644C1224.47 30.022 1225.38 27.1802 1227.2 24.939C1229.03 22.6831 1231.7 21.5552 1235.22 21.5552C1238.73 21.5552 1241.4 22.6831 1243.22 24.939C1245.05 27.1802 1245.96 30.022 1245.96 33.4644C1245.96 36.9067 1245.05 39.7559 1243.22 42.0117C1241.4 44.2529 1238.73 45.3735 1235.22 45.3735C1231.7 45.3735 1229.03 44.2529 1227.2 42.0117C1225.38 39.7559 1224.47 36.9067 1224.47 33.4644ZM1228.56 33.4644C1228.56 36.5405 1229.17 38.8184 1230.38 40.2979C1231.6 41.7773 1233.21 42.5171 1235.22 42.5171C1237.22 42.5171 1238.84 41.7773 1240.05 40.2979C1241.27 38.8184 1241.88 36.5405 1241.88 33.4644C1241.88 30.3882 1241.27 28.1104 1240.05 26.6309C1238.84 25.1514 1237.22 24.4116 1235.22 24.4116C1233.21 24.4116 1231.6 25.1514 1230.38 26.6309C1229.17 28.1104 1228.56 30.3882 1228.56 33.4644ZM1251.94 45C1251.28 45 1250.95 44.6704 1250.95 44.0112V22.9175C1250.95 22.2583 1251.28 21.9287 1251.94 21.9287H1253.78C1254.44 21.9287 1254.77 22.2583 1254.77 22.9175V24.6753H1254.86C1255.81 23.6206 1256.85 22.8369 1257.96 22.3242C1259.07 21.8115 1260.14 21.5552 1261.17 21.5552C1263.06 21.5552 1264.51 22.0312 1265.52 22.9834C1266.54 23.9209 1267.2 24.8657 1267.5 25.8179H1267.58C1268.39 24.6167 1269.41 23.606 1270.64 22.7856C1271.87 21.9653 1273.18 21.5552 1274.57 21.5552C1276.9 21.5552 1278.66 22.3096 1279.84 23.8184C1281.03 25.3125 1281.62 27.3633 1281.62 29.9707V44.0112C1281.62 44.6704 1281.29 45 1280.63 45H1278.75C1278.09 45 1277.76 44.6704 1277.76 44.0112V31.2451C1277.76 28.374 1277.4 26.521 1276.68 25.686C1275.96 24.8364 1274.86 24.4116 1273.36 24.4116C1271.9 24.4116 1270.67 25.0415 1269.69 26.3013C1268.71 27.5464 1268.22 29.4287 1268.22 31.9482V44.0112C1268.22 44.6704 1267.89 45 1267.23 45H1265.34C1264.68 45 1264.35 44.6704 1264.35 44.0112V31.2451C1264.35 28.374 1263.99 26.521 1263.28 25.686C1262.56 24.8364 1261.45 24.4116 1259.96 24.4116C1258.49 24.4116 1257.27 24.9829 1256.29 26.1255C1255.31 27.2534 1254.82 29.1943 1254.82 31.9482V44.0112C1254.82 44.6704 1254.49 45 1253.83 45H1251.94ZM1288.81 53.7891C1288.15 53.7891 1287.82 53.4595 1287.82 52.8003V22.9175C1287.82 22.2583 1288.15 21.9287 1288.81 21.9287H1290.65C1291.18 21.9287 1291.47 22.2583 1291.51 22.9175L1291.64 24.6753H1291.69C1292.49 23.7085 1293.4 22.9468 1294.41 22.3901C1295.42 21.8335 1296.77 21.5552 1298.45 21.5552C1301.38 21.5552 1303.61 22.7563 1305.13 25.1587C1306.66 27.5464 1307.42 30.3149 1307.42 33.4644C1307.42 36.6138 1306.66 39.3896 1305.13 41.792C1303.61 44.1797 1301.38 45.3735 1298.45 45.3735C1296.77 45.3735 1295.42 45.0952 1294.41 44.5386C1293.4 43.9819 1292.49 43.2202 1291.69 42.2534H1291.64C1291.67 42.6929 1291.69 43.1396 1291.69 43.5938V52.8003C1291.69 53.4595 1291.36 53.7891 1290.7 53.7891H1288.81ZM1291.69 35.9912C1291.69 38.1885 1292.21 39.8291 1293.25 40.9131C1294.3 41.9824 1295.62 42.5171 1297.2 42.5171C1299.43 42.5171 1301 41.6821 1301.93 40.0122C1302.86 38.3423 1303.33 36.1597 1303.33 33.4644C1303.33 30.769 1302.86 28.5864 1301.93 26.9165C1301 25.2466 1299.43 24.4116 1297.2 24.4116C1295.62 24.4116 1294.3 24.9536 1293.25 26.0376C1292.21 27.1069 1291.69 28.7402 1291.69 30.9375V35.9912ZM1313.42 45C1312.76 45 1312.43 44.6704 1312.43 44.0112V16.5894C1312.43 16.2964 1312.5 16.0181 1312.65 15.7544L1314.19 12.9639C1314.47 12.4512 1314.69 12.1948 1314.87 12.1948H1315.64C1316.08 12.1948 1316.3 12.4512 1316.3 12.9639V44.0112C1316.3 44.6704 1315.97 45 1315.31 45H1313.42ZM1321.28 33.4644C1321.28 29.8315 1322.19 26.9385 1324.01 24.7852C1325.83 22.6318 1328.43 21.5552 1331.81 21.5552C1334.62 21.5552 1336.95 22.5439 1338.8 24.5215C1340.66 26.4844 1341.59 29.6265 1341.59 33.9478C1341.59 34.6069 1341.29 34.9365 1340.69 34.9365H1325.37C1325.62 37.7637 1326.38 39.7339 1327.66 40.8472C1328.93 41.9458 1330.37 42.4951 1331.98 42.4951C1333.68 42.4951 1334.99 42.2095 1335.9 41.6382C1336.8 41.0669 1337.47 40.5029 1337.9 39.9463C1338.36 39.3311 1338.82 39.2139 1339.26 39.5947L1340.55 40.7153C1340.89 41.0083 1340.89 41.4111 1340.55 41.9238C1340.28 42.3486 1339.48 43.0298 1338.16 43.9673C1336.86 44.9048 1334.8 45.3735 1331.98 45.3735C1328.32 45.3735 1325.62 44.2969 1323.88 42.1436C1322.15 39.9902 1321.28 37.0972 1321.28 33.4644ZM1325.28 32.0801H1337.7C1337.64 30.0293 1337.11 28.2349 1336.12 26.6968C1335.12 25.144 1333.65 24.3677 1331.72 24.3677C1330.02 24.3677 1328.58 24.939 1327.39 26.0815C1326.21 27.2095 1325.5 29.209 1325.28 32.0801ZM1345.54 24.8291C1344.88 24.8291 1344.55 24.5728 1344.55 24.0601V22.6978C1344.55 22.1851 1344.88 21.9287 1345.54 21.9287H1348.13V19.9512C1348.13 19.6582 1348.21 19.3799 1348.35 19.1162L1349.89 16.3257C1350.17 15.813 1350.4 15.5566 1350.57 15.5566H1351.34C1351.78 15.5566 1352 15.813 1352 16.3257V21.9287H1356.68C1357.34 21.9287 1357.67 22.1851 1357.67 22.6978V24.0601C1357.67 24.5728 1357.34 24.8291 1356.68 24.8291H1352V38.8257C1352 40.3638 1352.23 41.3672 1352.68 41.8359C1353.15 42.29 1353.71 42.5171 1354.35 42.5171C1354.85 42.5171 1355.44 42.3706 1356.13 42.0776C1356.84 41.7847 1357.32 41.5356 1357.58 41.3306C1357.85 41.1255 1358.05 41.1914 1358.2 41.5283L1358.92 43.2202C1359.04 43.5132 1358.95 43.7476 1358.66 43.9233C1358.09 44.2603 1357.25 44.5898 1356.15 44.9121C1355.06 45.2197 1353.96 45.3735 1352.86 45.3735C1351.34 45.3735 1350.16 44.8242 1349.34 43.7256C1348.54 42.627 1348.13 41.0742 1348.13 39.0674V24.8291H1345.54ZM1362.07 33.4644C1362.07 29.8315 1362.97 26.9385 1364.79 24.7852C1366.61 22.6318 1369.21 21.5552 1372.59 21.5552C1375.4 21.5552 1377.73 22.5439 1379.58 24.5215C1381.44 26.4844 1382.37 29.6265 1382.37 33.9478C1382.37 34.6069 1382.07 34.9365 1381.47 34.9365H1366.15C1366.4 37.7637 1367.16 39.7339 1368.44 40.8472C1369.71 41.9458 1371.15 42.4951 1372.77 42.4951C1374.47 42.4951 1375.77 42.2095 1376.68 41.6382C1377.59 41.0669 1378.25 40.5029 1378.68 39.9463C1379.15 39.3311 1379.6 39.2139 1380.04 39.5947L1381.34 40.7153C1381.67 41.0083 1381.67 41.4111 1381.34 41.9238C1381.06 42.3486 1380.26 43.0298 1378.94 43.9673C1377.64 44.9048 1375.58 45.3735 1372.77 45.3735C1369.1 45.3735 1366.4 44.2969 1364.66 42.1436C1362.93 39.9902 1362.07 37.0972 1362.07 33.4644ZM1366.06 32.0801H1378.48C1378.42 30.0293 1377.89 28.2349 1376.9 26.6968C1375.9 25.144 1374.44 24.3677 1372.5 24.3677C1370.8 24.3677 1369.36 24.939 1368.17 26.0815C1366.99 27.2095 1366.28 29.209 1366.06 32.0801ZM1401.33 30.2563C1401.33 23.811 1402.45 19.3433 1404.69 16.853C1406.93 14.3481 1409.66 13.0957 1412.87 13.0957C1414.7 13.0957 1416.16 13.3301 1417.26 13.7988C1418.36 14.2676 1419.3 14.8682 1420.1 15.6006C1420.71 16.1719 1420.85 16.6479 1420.51 17.0288L1419.48 18.2373C1419.07 18.7061 1418.54 18.6621 1417.88 18.1055C1417.33 17.6367 1416.68 17.2339 1415.92 16.897C1415.16 16.5601 1414.07 16.3916 1412.67 16.3916C1410.69 16.3916 1408.97 17.3804 1407.5 19.3579C1406.04 21.3354 1405.31 24.4409 1405.31 28.6743H1405.35C1406.01 27.7222 1406.96 26.9165 1408.19 26.2573C1409.43 25.5835 1411 25.2466 1412.89 25.2466C1415.23 25.2466 1417.29 26.0522 1419.06 27.6636C1420.83 29.2603 1421.72 31.6699 1421.72 34.8926C1421.72 38.0859 1420.87 40.6787 1419.17 42.6709C1417.49 44.6631 1414.99 45.6592 1411.68 45.6592C1408.22 45.6592 1405.63 44.2896 1403.9 41.5503C1402.19 38.7964 1401.33 35.0317 1401.33 30.2563ZM1406.05 35.1782C1406.05 36.9946 1406.55 38.6499 1407.55 40.144C1408.56 41.6235 1409.95 42.3633 1411.72 42.3633C1413.55 42.3633 1414.96 41.6748 1415.94 40.2979C1416.92 38.9209 1417.41 37.1631 1417.41 35.0244C1417.41 32.9004 1416.92 31.3037 1415.92 30.2344C1414.92 29.1504 1413.68 28.6084 1412.19 28.6084C1410.25 28.6084 1408.74 29.2017 1407.66 30.3882C1406.59 31.5747 1406.05 33.1714 1406.05 35.1782ZM1425.74 29.3774C1425.74 24.2505 1426.45 20.2588 1427.85 17.4023C1429.26 14.5312 1431.94 13.0957 1435.89 13.0957C1439.85 13.0957 1442.53 14.5312 1443.94 17.4023C1445.34 20.2588 1446.04 24.2505 1446.04 29.3774C1446.04 34.5044 1445.34 38.5034 1443.94 41.3745C1442.53 44.231 1439.85 45.6592 1435.89 45.6592C1431.94 45.6592 1429.26 44.231 1427.85 41.3745C1426.45 38.5034 1425.74 34.5044 1425.74 29.3774ZM1429.83 29.3774C1429.83 33.479 1430.18 36.6943 1430.88 39.0234C1431.59 41.3379 1433.26 42.4951 1435.89 42.4951C1438.53 42.4951 1440.2 41.3379 1440.9 39.0234C1441.61 36.6943 1441.96 33.479 1441.96 29.3774C1441.96 25.2759 1441.61 22.0679 1440.9 19.7534C1440.2 17.4243 1438.53 16.2598 1435.89 16.2598C1433.26 16.2598 1431.59 17.4243 1430.88 19.7534C1430.18 22.0679 1429.83 25.2759 1429.83 29.3774ZM1467.18 45C1466.52 45 1466.19 44.6704 1466.19 44.0112V22.9175C1466.19 22.2583 1466.52 21.9287 1467.18 21.9287H1469.03C1469.69 21.9287 1470.02 22.2583 1470.02 22.9175V25.5542H1470.1C1470.81 24.2358 1471.64 23.2397 1472.59 22.5659C1473.54 21.8921 1474.73 21.5552 1476.15 21.5552C1477.08 21.5552 1477.74 21.6357 1478.12 21.7969C1478.46 21.9287 1478.59 22.1484 1478.5 22.4561L1477.99 24.2578C1477.92 24.5215 1477.73 24.624 1477.42 24.5654C1476.91 24.4629 1476.43 24.4116 1475.97 24.4116C1474.26 24.4116 1472.84 25.188 1471.73 26.7407C1470.62 28.2788 1470.06 30.3809 1470.06 33.0469V44.0112C1470.06 44.6704 1469.73 45 1469.07 45H1467.18ZM1480.81 33.4644C1480.81 29.8315 1481.71 26.9385 1483.53 24.7852C1485.35 22.6318 1487.95 21.5552 1491.33 21.5552C1494.14 21.5552 1496.47 22.5439 1498.32 24.5215C1500.18 26.4844 1501.11 29.6265 1501.11 33.9478C1501.11 34.6069 1500.81 34.9365 1500.21 34.9365H1484.89C1485.14 37.7637 1485.9 39.7339 1487.18 40.8472C1488.45 41.9458 1489.9 42.4951 1491.51 42.4951C1493.21 42.4951 1494.51 42.2095 1495.42 41.6382C1496.33 41.0669 1496.99 40.5029 1497.42 39.9463C1497.89 39.3311 1498.34 39.2139 1498.78 39.5947L1500.08 40.7153C1500.41 41.0083 1500.41 41.4111 1500.08 41.9238C1499.8 42.3486 1499 43.0298 1497.68 43.9673C1496.38 44.9048 1494.32 45.3735 1491.51 45.3735C1487.84 45.3735 1485.14 44.2969 1483.4 42.1436C1481.67 39.9902 1480.81 37.0972 1480.81 33.4644ZM1484.8 32.0801H1497.22C1497.16 30.0293 1496.63 28.2349 1495.64 26.6968C1494.64 25.144 1493.18 24.3677 1491.24 24.3677C1489.54 24.3677 1488.1 24.939 1486.91 26.0815C1485.73 27.2095 1485.02 29.209 1484.8 32.0801ZM1504.93 33.4644C1504.93 30.3149 1505.69 27.5464 1507.22 25.1587C1508.74 22.7563 1510.97 21.5552 1513.9 21.5552C1515.58 21.5552 1516.93 21.8335 1517.94 22.3901C1518.95 22.9468 1519.86 23.7085 1520.66 24.6753H1520.71L1520.84 22.9175C1520.88 22.2583 1521.17 21.9287 1521.7 21.9287H1523.54C1524.2 21.9287 1524.53 22.2583 1524.53 22.9175V52.8003C1524.53 53.4595 1524.2 53.7891 1523.54 53.7891H1521.65C1520.99 53.7891 1520.66 53.4595 1520.66 52.8003V43.5938C1520.66 43.1396 1520.68 42.6929 1520.71 42.2534H1520.66C1519.86 43.2202 1518.95 43.9819 1517.94 44.5386C1516.93 45.0952 1515.58 45.3735 1513.9 45.3735C1510.97 45.3735 1508.74 44.1797 1507.22 41.792C1505.69 39.3896 1504.93 36.6138 1504.93 33.4644ZM1509.02 33.4644C1509.02 36.1597 1509.48 38.3423 1510.4 40.0122C1511.34 41.6821 1512.92 42.5171 1515.15 42.5171C1516.73 42.5171 1518.04 41.9824 1519.08 40.9131C1520.14 39.8291 1520.66 38.1885 1520.66 35.9912V30.9375C1520.66 28.7402 1520.14 27.1069 1519.08 26.0376C1518.04 24.9536 1516.73 24.4116 1515.15 24.4116C1512.92 24.4116 1511.34 25.2466 1510.4 26.9165C1509.48 28.5864 1509.02 30.769 1509.02 33.4644ZM1530.75 36.958V22.9175C1530.75 22.2583 1531.08 21.9287 1531.74 21.9287H1533.63C1534.29 21.9287 1534.62 22.2583 1534.62 22.9175V35.9033C1534.62 38.7744 1535.09 40.5981 1536.04 41.3745C1537 42.1362 1538.18 42.5171 1539.58 42.5171C1541.43 42.5171 1542.84 41.9531 1543.82 40.8252C1544.8 39.6826 1545.3 37.7344 1545.3 34.9805V22.9175C1545.3 22.2583 1545.62 21.9287 1546.28 21.9287H1548.17C1548.83 21.9287 1549.16 22.2583 1549.16 22.9175V44.0112C1549.16 44.6704 1548.83 45 1548.17 45H1546.33C1545.67 45 1545.34 44.6704 1545.34 44.0112V42.2534H1545.25C1544.3 43.3081 1543.27 44.0918 1542.18 44.6045C1541.08 45.1172 1539.74 45.3735 1538.15 45.3735C1535.59 45.3735 1533.72 44.6265 1532.53 43.1323C1531.34 41.6235 1530.75 39.5654 1530.75 36.958ZM1554.15 33.4644C1554.15 29.8315 1555.06 26.9385 1556.88 24.7852C1558.69 22.6318 1561.29 21.5552 1564.68 21.5552C1567.49 21.5552 1569.82 22.5439 1571.66 24.5215C1573.52 26.4844 1574.45 29.6265 1574.45 33.9478C1574.45 34.6069 1574.15 34.9365 1573.55 34.9365H1558.24C1558.49 37.7637 1559.25 39.7339 1560.52 40.8472C1561.8 41.9458 1563.24 42.4951 1564.85 42.4951C1566.55 42.4951 1567.85 42.2095 1568.76 41.6382C1569.67 41.0669 1570.34 40.5029 1570.76 39.9463C1571.23 39.3311 1571.68 39.2139 1572.12 39.5947L1573.42 40.7153C1573.76 41.0083 1573.76 41.4111 1573.42 41.9238C1573.14 42.3486 1572.34 43.0298 1571.03 43.9673C1569.72 44.9048 1567.66 45.3735 1564.85 45.3735C1561.19 45.3735 1558.49 44.2969 1556.74 42.1436C1555.01 39.9902 1554.15 37.0972 1554.15 33.4644ZM1558.15 32.0801H1570.56C1570.51 30.0293 1569.98 28.2349 1568.98 26.6968C1567.99 25.144 1566.52 24.3677 1564.59 24.3677C1562.89 24.3677 1561.45 24.939 1560.26 26.0815C1559.07 27.2095 1558.37 29.209 1558.15 32.0801ZM1578.63 42.8467C1578.17 42.4219 1578.08 42.0264 1578.34 41.6602L1579.33 40.2759C1579.65 39.8364 1580.13 39.8584 1580.76 40.3418C1581.62 41.001 1582.58 41.5283 1583.64 41.9238C1584.71 42.3193 1585.92 42.5171 1587.29 42.5171C1588.09 42.5171 1588.81 42.4219 1589.44 42.2314C1590.07 42.0264 1590.62 41.6528 1591.09 41.1108C1591.57 40.5688 1591.81 39.8438 1591.81 38.9355C1591.81 38.4082 1591.69 37.9102 1591.46 37.4414C1591.24 36.9727 1590.89 36.5991 1590.41 36.3208C1589.94 36.0278 1589.48 35.8008 1589.02 35.6396C1588.27 35.3613 1587.53 35.1343 1586.78 34.9585C1586.05 34.7681 1585.08 34.4824 1583.88 34.1016C1583.07 33.8525 1582.31 33.501 1581.59 33.0469C1580.88 32.5781 1580.25 31.9482 1579.7 31.1572C1579.18 30.3662 1578.91 29.2749 1578.91 27.8833C1578.91 26.4624 1579.35 25.2393 1580.21 24.2139C1581.07 23.1885 1582.16 22.4927 1583.46 22.1265C1584.77 21.7456 1586.03 21.5552 1587.26 21.5552C1589.08 21.5552 1590.54 21.7676 1591.64 22.1924C1592.75 22.6025 1593.71 23.0933 1594.51 23.6646C1594.98 24.0015 1595.05 24.3896 1594.71 24.8291L1593.72 26.1475C1593.42 26.5723 1592.94 26.5576 1592.29 26.1035C1591.75 25.7227 1590.98 25.3638 1589.99 25.0269C1588.99 24.6899 1588.12 24.5215 1587.37 24.5215C1586.45 24.5215 1585.66 24.624 1585 24.8291C1584.34 25.0342 1583.81 25.3857 1583.4 25.8838C1582.99 26.3818 1582.78 26.9678 1582.78 27.6416C1582.78 28.1543 1582.86 28.6157 1583.02 29.0259C1583.18 29.4214 1583.48 29.7876 1583.92 30.1245C1584.36 30.4614 1584.98 30.7324 1585.77 30.9375C1587 31.2598 1588.12 31.5527 1589.13 31.8164C1590.16 32.0801 1591.08 32.4023 1591.9 32.7832C1592.97 33.2812 1593.79 33.8306 1594.36 34.4312C1594.95 35.0317 1595.35 35.6836 1595.57 36.3867C1595.79 37.0752 1595.9 37.8442 1595.9 38.6938C1595.9 40.2612 1595.43 41.5869 1594.49 42.6709C1593.57 43.7549 1592.54 44.48 1591.39 44.8462C1590.25 45.1978 1588.87 45.3735 1587.26 45.3735C1585.08 45.3735 1583.21 45.0659 1581.64 44.4507C1580.09 43.8208 1579.08 43.2861 1578.63 42.8467ZM1599.15 24.8291C1598.49 24.8291 1598.16 24.5728 1598.16 24.0601V22.6978C1598.16 22.1851 1598.49 21.9287 1599.15 21.9287H1601.74V19.9512C1601.74 19.6582 1601.82 19.3799 1601.96 19.1162L1603.5 16.3257C1603.78 15.813 1604.01 15.5566 1604.18 15.5566H1604.95C1605.39 15.5566 1605.61 15.813 1605.61 16.3257V21.9287H1610.29C1610.95 21.9287 1611.28 22.1851 1611.28 22.6978V24.0601C1611.28 24.5728 1610.95 24.8291 1610.29 24.8291H1605.61V38.8257C1605.61 40.3638 1605.84 41.3672 1606.29 41.8359C1606.76 42.29 1607.32 42.5171 1607.96 42.5171C1608.46 42.5171 1609.05 42.3706 1609.74 42.0776C1610.44 41.7847 1610.93 41.5356 1611.19 41.3306C1611.46 41.1255 1611.66 41.1914 1611.81 41.5283L1612.53 43.2202C1612.65 43.5132 1612.56 43.7476 1612.27 43.9233C1611.7 44.2603 1610.86 44.5898 1609.76 44.9121C1608.66 45.2197 1607.57 45.3735 1606.47 45.3735C1604.94 45.3735 1603.77 44.8242 1602.95 43.7256C1602.15 42.627 1601.74 41.0742 1601.74 39.0674V24.8291H1599.15ZM1616.03 42.8467C1615.57 42.4219 1615.48 42.0264 1615.74 41.6602L1616.73 40.2759C1617.05 39.8364 1617.53 39.8584 1618.16 40.3418C1619.02 41.001 1619.98 41.5283 1621.04 41.9238C1622.1 42.3193 1623.32 42.5171 1624.68 42.5171C1625.49 42.5171 1626.21 42.4219 1626.84 42.2314C1627.47 42.0264 1628.02 41.6528 1628.48 41.1108C1628.97 40.5688 1629.21 39.8438 1629.21 38.9355C1629.21 38.4082 1629.09 37.9102 1628.86 37.4414C1628.64 36.9727 1628.29 36.5991 1627.8 36.3208C1627.33 36.0278 1626.87 35.8008 1626.42 35.6396C1625.67 35.3613 1624.92 35.1343 1624.18 34.9585C1623.44 34.7681 1622.48 34.4824 1621.28 34.1016C1620.47 33.8525 1619.71 33.501 1618.99 33.0469C1618.27 32.5781 1617.64 31.9482 1617.1 31.1572C1616.57 30.3662 1616.31 29.2749 1616.31 27.8833C1616.31 26.4624 1616.74 25.2393 1617.61 24.2139C1618.47 23.1885 1619.56 22.4927 1620.86 22.1265C1622.16 21.7456 1623.43 21.5552 1624.66 21.5552C1626.48 21.5552 1627.93 21.7676 1629.03 22.1924C1630.15 22.6025 1631.11 23.0933 1631.91 23.6646C1632.38 24.0015 1632.45 24.3896 1632.11 24.8291L1631.12 26.1475C1630.81 26.5723 1630.34 26.5576 1629.69 26.1035C1629.15 25.7227 1628.38 25.3638 1627.39 25.0269C1626.39 24.6899 1625.52 24.5215 1624.77 24.5215C1623.85 24.5215 1623.06 24.624 1622.4 24.8291C1621.74 25.0342 1621.2 25.3857 1620.79 25.8838C1620.38 26.3818 1620.18 26.9678 1620.18 27.6416C1620.18 28.1543 1620.26 28.6157 1620.42 29.0259C1620.58 29.4214 1620.88 29.7876 1621.32 30.1245C1621.76 30.4614 1622.38 30.7324 1623.17 30.9375C1624.4 31.2598 1625.52 31.5527 1626.53 31.8164C1627.55 32.0801 1628.48 32.4023 1629.3 32.7832C1630.37 33.2812 1631.19 33.8306 1631.76 34.4312C1632.34 35.0317 1632.75 35.6836 1632.97 36.3867C1633.19 37.0752 1633.3 37.8442 1633.3 38.6938C1633.3 40.2612 1632.83 41.5869 1631.89 42.6709C1630.97 43.7549 1629.93 44.48 1628.79 44.8462C1627.65 45.1978 1626.27 45.3735 1624.66 45.3735C1622.48 45.3735 1620.6 45.0659 1619.04 44.4507C1617.48 43.8208 1616.48 43.2861 1616.03 42.8467ZM1125.71 98.4644C1125.71 94.8315 1126.61 91.9385 1128.43 89.7852C1130.25 87.6318 1132.85 86.5552 1136.23 86.5552C1139.04 86.5552 1141.37 87.5439 1143.22 89.5215C1145.08 91.4844 1146.01 94.6265 1146.01 98.9478C1146.01 99.6069 1145.71 99.9365 1145.11 99.9365H1129.79C1130.04 102.764 1130.8 104.734 1132.08 105.847C1133.35 106.946 1134.79 107.495 1136.41 107.495C1138.11 107.495 1139.41 107.209 1140.32 106.638C1141.23 106.067 1141.89 105.503 1142.32 104.946C1142.79 104.331 1143.24 104.214 1143.68 104.595L1144.98 105.715C1145.31 106.008 1145.31 106.411 1144.98 106.924C1144.7 107.349 1143.9 108.03 1142.58 108.967C1141.28 109.905 1139.22 110.374 1136.41 110.374C1132.74 110.374 1130.04 109.297 1128.3 107.144C1126.57 104.99 1125.71 102.097 1125.71 98.4644ZM1129.7 97.0801H1142.12C1142.06 95.0293 1141.53 93.2349 1140.54 91.6968C1139.54 90.144 1138.08 89.3677 1136.14 89.3677C1134.44 89.3677 1133 89.939 1131.81 91.0815C1130.63 92.2095 1129.92 94.209 1129.7 97.0801ZM1149.88 110C1148.89 110 1148.7 109.568 1149.3 108.704L1156.8 97.8491L1150.14 88.2251C1149.54 87.3608 1149.73 86.9287 1150.71 86.9287H1152.86C1153.39 86.9287 1153.78 87.1191 1154.03 87.5L1158.88 95.1465L1163.72 87.5C1163.95 87.1191 1164.34 86.9287 1164.88 86.9287H1167.06C1168.04 86.9287 1168.23 87.3608 1167.63 88.2251L1160.97 97.8491L1168.46 108.704C1169.06 109.568 1168.87 110 1167.89 110H1165.74C1165.21 110 1164.82 109.81 1164.58 109.429L1158.88 100.53L1153.19 109.429C1152.94 109.81 1152.56 110 1152.03 110H1149.88ZM1172.81 118.789C1172.16 118.789 1171.83 118.459 1171.83 117.8V87.9175C1171.83 87.2583 1172.16 86.9287 1172.81 86.9287H1174.66C1175.19 86.9287 1175.47 87.2583 1175.52 87.9175L1175.65 89.6753H1175.69C1176.5 88.7085 1177.41 87.9468 1178.42 87.3901C1179.43 86.8335 1180.78 86.5552 1182.46 86.5552C1185.39 86.5552 1187.62 87.7563 1189.14 90.1587C1190.66 92.5464 1191.43 95.3149 1191.43 98.4644C1191.43 101.614 1190.66 104.39 1189.14 106.792C1187.62 109.18 1185.39 110.374 1182.46 110.374C1180.78 110.374 1179.43 110.095 1178.42 109.539C1177.41 108.982 1176.5 108.22 1175.69 107.253H1175.65C1175.68 107.693 1175.69 108.14 1175.69 108.594V117.8C1175.69 118.459 1175.36 118.789 1174.7 118.789H1172.81ZM1175.69 100.991C1175.69 103.188 1176.21 104.829 1177.25 105.913C1178.31 106.982 1179.63 107.517 1181.21 107.517C1183.44 107.517 1185.01 106.682 1185.93 105.012C1186.87 103.342 1187.34 101.16 1187.34 98.4644C1187.34 95.769 1186.87 93.5864 1185.93 91.9165C1185.01 90.2466 1183.44 89.4116 1181.21 89.4116C1179.63 89.4116 1178.31 89.9536 1177.25 91.0376C1176.21 92.1069 1175.69 93.7402 1175.69 95.9375V100.991ZM1197.42 110C1196.77 110 1196.44 109.67 1196.44 109.011V87.9175C1196.44 87.2583 1196.77 86.9287 1197.42 86.9287H1199.27C1199.93 86.9287 1200.26 87.2583 1200.26 87.9175V90.5542H1200.35C1201.05 89.2358 1201.88 88.2397 1202.83 87.5659C1203.78 86.8921 1204.97 86.5552 1206.39 86.5552C1207.33 86.5552 1207.99 86.6357 1208.37 86.7969C1208.7 86.9287 1208.83 87.1484 1208.74 87.4561L1208.23 89.2578C1208.16 89.5215 1207.97 89.624 1207.66 89.5654C1207.15 89.4629 1206.67 89.4116 1206.21 89.4116C1204.5 89.4116 1203.09 90.188 1201.97 91.7407C1200.86 93.2788 1200.3 95.3809 1200.3 98.0469V109.011C1200.3 109.67 1199.97 110 1199.31 110H1197.42ZM1211.05 98.4644C1211.05 94.8315 1211.96 91.9385 1213.77 89.7852C1215.59 87.6318 1218.19 86.5552 1221.57 86.5552C1224.38 86.5552 1226.71 87.5439 1228.56 89.5215C1230.42 91.4844 1231.35 94.6265 1231.35 98.9478C1231.35 99.6069 1231.05 99.9365 1230.45 99.9365H1215.13C1215.38 102.764 1216.15 104.734 1217.42 105.847C1218.69 106.946 1220.14 107.495 1221.75 107.495C1223.45 107.495 1224.75 107.209 1225.66 106.638C1226.57 106.067 1227.23 105.503 1227.66 104.946C1228.13 104.331 1228.58 104.214 1229.02 104.595L1230.32 105.715C1230.65 106.008 1230.65 106.411 1230.32 106.924C1230.04 107.349 1229.24 108.03 1227.92 108.967C1226.62 109.905 1224.56 110.374 1221.75 110.374C1218.09 110.374 1215.38 109.297 1213.64 107.144C1211.91 104.99 1211.05 102.097 1211.05 98.4644ZM1215.05 97.0801H1227.46C1227.4 95.0293 1226.88 93.2349 1225.88 91.6968C1224.88 90.144 1223.42 89.3677 1221.48 89.3677C1219.79 89.3677 1218.34 89.939 1217.16 91.0815C1215.97 92.2095 1215.27 94.209 1215.05 97.0801ZM1235.52 107.847C1235.07 107.422 1234.98 107.026 1235.24 106.66L1236.23 105.276C1236.55 104.836 1237.03 104.858 1237.66 105.342C1238.52 106.001 1239.48 106.528 1240.53 106.924C1241.6 107.319 1242.82 107.517 1244.18 107.517C1244.99 107.517 1245.71 107.422 1246.34 107.231C1246.97 107.026 1247.51 106.653 1247.98 106.111C1248.47 105.569 1248.71 104.844 1248.71 103.936C1248.71 103.408 1248.59 102.91 1248.36 102.441C1248.14 101.973 1247.79 101.599 1247.3 101.321C1246.83 101.028 1246.37 100.801 1245.92 100.64C1245.17 100.361 1244.42 100.134 1243.68 99.9585C1242.94 99.7681 1241.98 99.4824 1240.78 99.1016C1239.97 98.8525 1239.21 98.501 1238.49 98.0469C1237.77 97.5781 1237.14 96.9482 1236.6 96.1572C1236.07 95.3662 1235.81 94.2749 1235.81 92.8833C1235.81 91.4624 1236.24 90.2393 1237.11 89.2139C1237.97 88.1885 1239.06 87.4927 1240.36 87.1265C1241.66 86.7456 1242.93 86.5552 1244.16 86.5552C1245.98 86.5552 1247.43 86.7676 1248.53 87.1924C1249.65 87.6025 1250.61 88.0933 1251.41 88.6646C1251.88 89.0015 1251.95 89.3896 1251.61 89.8291L1250.62 91.1475C1250.31 91.5723 1249.84 91.5576 1249.19 91.1035C1248.65 90.7227 1247.88 90.3638 1246.88 90.0269C1245.89 89.6899 1245.02 89.5215 1244.27 89.5215C1243.35 89.5215 1242.56 89.624 1241.9 89.8291C1241.24 90.0342 1240.7 90.3857 1240.29 90.8838C1239.88 91.3818 1239.68 91.9678 1239.68 92.6416C1239.68 93.1543 1239.76 93.6157 1239.92 94.0259C1240.08 94.4214 1240.38 94.7876 1240.82 95.1245C1241.26 95.4614 1241.88 95.7324 1242.67 95.9375C1243.9 96.2598 1245.02 96.5527 1246.03 96.8164C1247.05 97.0801 1247.98 97.4023 1248.8 97.7832C1249.87 98.2812 1250.69 98.8306 1251.26 99.4312C1251.84 100.032 1252.25 100.684 1252.47 101.387C1252.69 102.075 1252.8 102.844 1252.8 103.694C1252.8 105.261 1252.33 106.587 1251.39 107.671C1250.47 108.755 1249.43 109.48 1248.29 109.846C1247.15 110.198 1245.77 110.374 1244.16 110.374C1241.98 110.374 1240.1 110.066 1238.54 109.451C1236.98 108.821 1235.98 108.286 1235.52 107.847ZM1256.27 107.847C1255.81 107.422 1255.72 107.026 1255.98 106.66L1256.97 105.276C1257.29 104.836 1257.77 104.858 1258.4 105.342C1259.26 106.001 1260.22 106.528 1261.28 106.924C1262.35 107.319 1263.56 107.517 1264.92 107.517C1265.73 107.517 1266.45 107.422 1267.08 107.231C1267.71 107.026 1268.26 106.653 1268.73 106.111C1269.21 105.569 1269.45 104.844 1269.45 103.936C1269.45 103.408 1269.33 102.91 1269.1 102.441C1268.88 101.973 1268.53 101.599 1268.04 101.321C1267.58 101.028 1267.11 100.801 1266.66 100.64C1265.91 100.361 1265.17 100.134 1264.42 99.9585C1263.69 99.7681 1262.72 99.4824 1261.52 99.1016C1260.71 98.8525 1259.95 98.501 1259.23 98.0469C1258.52 97.5781 1257.89 96.9482 1257.34 96.1572C1256.82 95.3662 1256.55 94.2749 1256.55 92.8833C1256.55 91.4624 1256.98 90.2393 1257.85 89.2139C1258.71 88.1885 1259.8 87.4927 1261.1 87.1265C1262.4 86.7456 1263.67 86.5552 1264.9 86.5552C1266.72 86.5552 1268.18 86.7676 1269.27 87.1924C1270.39 87.6025 1271.35 88.0933 1272.15 88.6646C1272.62 89.0015 1272.69 89.3896 1272.35 89.8291L1271.36 91.1475C1271.05 91.5723 1270.58 91.5576 1269.93 91.1035C1269.39 90.7227 1268.62 90.3638 1267.63 90.0269C1266.63 89.6899 1265.76 89.5215 1265.01 89.5215C1264.09 89.5215 1263.3 89.624 1262.64 89.8291C1261.98 90.0342 1261.45 90.3857 1261.04 90.8838C1260.62 91.3818 1260.42 91.9678 1260.42 92.6416C1260.42 93.1543 1260.5 93.6157 1260.66 94.0259C1260.82 94.4214 1261.12 94.7876 1261.56 95.1245C1262 95.4614 1262.62 95.7324 1263.41 95.9375C1264.64 96.2598 1265.76 96.5527 1266.77 96.8164C1267.8 97.0801 1268.72 97.4023 1269.54 97.7832C1270.61 98.2812 1271.43 98.8306 1272 99.4312C1272.59 100.032 1272.99 100.684 1273.21 101.387C1273.43 102.075 1273.54 102.844 1273.54 103.694C1273.54 105.261 1273.07 106.587 1272.13 107.671C1271.21 108.755 1270.18 109.48 1269.03 109.846C1267.89 110.198 1266.51 110.374 1264.9 110.374C1262.72 110.374 1260.84 110.066 1259.28 109.451C1257.72 108.821 1256.72 108.286 1256.27 107.847ZM1276.66 98.4644C1276.66 94.8315 1277.57 91.9385 1279.38 89.7852C1281.2 87.6318 1283.8 86.5552 1287.18 86.5552C1290 86.5552 1292.32 87.5439 1294.17 89.5215C1296.03 91.4844 1296.96 94.6265 1296.96 98.9478C1296.96 99.6069 1296.66 99.9365 1296.06 99.9365H1280.74C1280.99 102.764 1281.76 104.734 1283.03 105.847C1284.3 106.946 1285.75 107.495 1287.36 107.495C1289.06 107.495 1290.36 107.209 1291.27 106.638C1292.18 106.067 1292.84 105.503 1293.27 104.946C1293.74 104.331 1294.19 104.214 1294.63 104.595L1295.93 105.715C1296.26 106.008 1296.26 106.411 1295.93 106.924C1295.65 107.349 1294.85 108.03 1293.53 108.967C1292.23 109.905 1290.17 110.374 1287.36 110.374C1283.7 110.374 1280.99 109.297 1279.25 107.144C1277.52 104.99 1276.66 102.097 1276.66 98.4644ZM1280.66 97.0801H1293.07C1293.01 95.0293 1292.49 93.2349 1291.49 91.6968C1290.49 90.144 1289.03 89.3677 1287.09 89.3677C1285.4 89.3677 1283.95 89.939 1282.77 91.0815C1281.58 92.2095 1280.88 94.209 1280.66 97.0801ZM1300.78 98.4644C1300.78 95.3149 1301.55 92.5464 1303.07 90.1587C1304.59 87.7563 1306.82 86.5552 1309.75 86.5552C1311.43 86.5552 1312.78 86.8335 1313.79 87.3901C1314.8 87.9468 1315.71 88.7085 1316.52 89.6753H1316.56C1316.53 89.2358 1316.52 88.7891 1316.52 88.335V78.5571C1316.52 77.8979 1316.85 77.5684 1317.5 77.5684H1319.39C1320.05 77.5684 1320.38 77.8979 1320.38 78.5571V109.011C1320.38 109.67 1320.05 110 1319.39 110H1317.55C1317.02 110 1316.74 109.67 1316.69 109.011L1316.56 107.253H1316.52C1315.71 108.22 1314.8 108.982 1313.79 109.539C1312.78 110.095 1311.43 110.374 1309.75 110.374C1306.82 110.374 1304.59 109.18 1303.07 106.792C1301.55 104.39 1300.78 101.614 1300.78 98.4644ZM1304.87 98.4644C1304.87 101.16 1305.33 103.342 1306.25 105.012C1307.19 106.682 1308.77 107.517 1311 107.517C1312.58 107.517 1313.89 106.982 1314.93 105.913C1315.99 104.829 1316.52 103.188 1316.52 100.991V95.9375C1316.52 93.7402 1315.99 92.1069 1314.93 91.0376C1313.89 89.9536 1312.58 89.4116 1311 89.4116C1308.77 89.4116 1307.19 90.2466 1306.25 91.9165C1305.33 93.5864 1304.87 95.769 1304.87 98.4644ZM1342.62 110C1341.96 110 1341.63 109.67 1341.63 109.011V87.9175C1341.63 87.2583 1341.96 86.9287 1342.62 86.9287H1344.51C1345.17 86.9287 1345.5 87.2583 1345.5 87.9175V109.011C1345.5 109.67 1345.17 110 1344.51 110H1342.62ZM1342.62 82.7539C1341.96 82.7539 1341.63 82.4243 1341.63 81.7651V79.8755C1341.63 79.2163 1341.96 78.8867 1342.62 78.8867H1344.51C1345.17 78.8867 1345.5 79.2163 1345.5 79.8755V81.7651C1345.5 82.4243 1345.17 82.7539 1344.51 82.7539H1342.62ZM1352.73 110C1352.07 110 1351.74 109.67 1351.74 109.011V87.9175C1351.74 87.2583 1352.07 86.9287 1352.73 86.9287H1354.57C1355.23 86.9287 1355.56 87.2583 1355.56 87.9175V89.6753H1355.65C1356.6 88.6206 1357.63 87.8369 1358.73 87.3242C1359.82 86.8115 1361.19 86.5552 1362.83 86.5552C1365.5 86.5552 1367.41 87.3096 1368.57 88.8184C1369.74 90.3125 1370.33 92.3633 1370.33 94.9707V109.011C1370.33 109.67 1370 110 1369.34 110H1367.45C1366.79 110 1366.46 109.67 1366.46 109.011V96.0254C1366.46 93.1543 1365.98 91.3379 1365.03 90.5762C1364.08 89.7998 1362.87 89.4116 1361.41 89.4116C1359.5 89.4116 1358.06 89.9829 1357.08 91.1255C1356.1 92.2534 1355.61 94.1943 1355.61 96.9482V109.011C1355.61 109.67 1355.28 110 1354.62 110H1352.73ZM1390.61 107.847C1390.15 107.422 1390.06 107.026 1390.32 106.66L1391.31 105.276C1391.63 104.836 1392.11 104.858 1392.74 105.342C1393.6 106.001 1394.56 106.528 1395.62 106.924C1396.69 107.319 1397.9 107.517 1399.27 107.517C1400.07 107.517 1400.79 107.422 1401.42 107.231C1402.05 107.026 1402.6 106.653 1403.07 106.111C1403.55 105.569 1403.79 104.844 1403.79 103.936C1403.79 103.408 1403.67 102.91 1403.44 102.441C1403.22 101.973 1402.87 101.599 1402.39 101.321C1401.92 101.028 1401.46 100.801 1401 100.64C1400.25 100.361 1399.51 100.134 1398.76 99.9585C1398.03 99.7681 1397.06 99.4824 1395.86 99.1016C1395.05 98.8525 1394.29 98.501 1393.57 98.0469C1392.86 97.5781 1392.23 96.9482 1391.68 96.1572C1391.16 95.3662 1390.89 94.2749 1390.89 92.8833C1390.89 91.4624 1391.33 90.2393 1392.19 89.2139C1393.05 88.1885 1394.14 87.4927 1395.44 87.1265C1396.75 86.7456 1398.01 86.5552 1399.24 86.5552C1401.06 86.5552 1402.52 86.7676 1403.62 87.1924C1404.73 87.6025 1405.69 88.0933 1406.49 88.6646C1406.96 89.0015 1407.03 89.3896 1406.69 89.8291L1405.7 91.1475C1405.4 91.5723 1404.92 91.5576 1404.27 91.1035C1403.73 90.7227 1402.96 90.3638 1401.97 90.0269C1400.97 89.6899 1400.1 89.5215 1399.35 89.5215C1398.43 89.5215 1397.64 89.624 1396.98 89.8291C1396.32 90.0342 1395.79 90.3857 1395.38 90.8838C1394.97 91.3818 1394.76 91.9678 1394.76 92.6416C1394.76 93.1543 1394.84 93.6157 1395 94.0259C1395.16 94.4214 1395.46 94.7876 1395.9 95.1245C1396.34 95.4614 1396.96 95.7324 1397.75 95.9375C1398.98 96.2598 1400.1 96.5527 1401.11 96.8164C1402.14 97.0801 1403.06 97.4023 1403.88 97.7832C1404.95 98.2812 1405.77 98.8306 1406.34 99.4312C1406.93 100.032 1407.33 100.684 1407.55 101.387C1407.77 102.075 1407.88 102.844 1407.88 103.694C1407.88 105.261 1407.41 106.587 1406.47 107.671C1405.55 108.755 1404.52 109.48 1403.37 109.846C1402.23 110.198 1400.85 110.374 1399.24 110.374C1397.06 110.374 1395.19 110.066 1393.62 109.451C1392.07 108.821 1391.06 108.286 1390.61 107.847ZM1411 98.4644C1411 94.8315 1411.91 91.9385 1413.72 89.7852C1415.54 87.6318 1418.14 86.5552 1421.52 86.5552C1424.34 86.5552 1426.67 87.5439 1428.51 89.5215C1430.37 91.4844 1431.3 94.6265 1431.3 98.9478C1431.3 99.6069 1431 99.9365 1430.4 99.9365H1415.09C1415.33 102.764 1416.1 104.734 1417.37 105.847C1418.65 106.946 1420.09 107.495 1421.7 107.495C1423.4 107.495 1424.7 107.209 1425.61 106.638C1426.52 106.067 1427.19 105.503 1427.61 104.946C1428.08 104.331 1428.53 104.214 1428.97 104.595L1430.27 105.715C1430.61 106.008 1430.61 106.411 1430.27 106.924C1429.99 107.349 1429.19 108.03 1427.87 108.967C1426.57 109.905 1424.51 110.374 1421.7 110.374C1418.04 110.374 1415.33 109.297 1413.59 107.144C1411.86 104.99 1411 102.097 1411 98.4644ZM1415 97.0801H1427.41C1427.35 95.0293 1426.83 93.2349 1425.83 91.6968C1424.83 90.144 1423.37 89.3677 1421.44 89.3677C1419.74 89.3677 1418.29 89.939 1417.11 91.0815C1415.92 92.2095 1415.22 94.209 1415 97.0801ZM1435.12 98.4644C1435.12 95.022 1435.97 92.1802 1437.67 89.939C1439.39 87.6831 1442 86.5552 1445.52 86.5552C1447.89 86.5552 1449.7 86.98 1450.94 87.8296C1452.2 88.6646 1453.11 89.5215 1453.67 90.4004C1453.98 90.8838 1453.91 91.272 1453.47 91.5649L1452.09 92.4658C1451.65 92.7734 1451.21 92.5757 1450.77 91.8726C1450.34 91.1987 1449.74 90.6201 1448.97 90.1367C1448.21 89.6533 1447.06 89.4116 1445.52 89.4116C1443.51 89.4116 1441.96 90.1514 1440.86 91.6309C1439.76 93.1104 1439.21 95.3882 1439.21 98.4644C1439.21 101.541 1439.76 103.818 1440.86 105.298C1441.96 106.777 1443.51 107.517 1445.52 107.517C1447.14 107.517 1448.39 107.209 1449.25 106.594C1450.12 105.964 1450.75 105.283 1451.14 104.551C1451.52 103.862 1451.96 103.665 1452.44 103.958L1453.91 104.836C1454.35 105.1 1454.42 105.496 1454.11 106.023C1453.74 106.653 1452.91 107.539 1451.6 108.682C1450.31 109.81 1448.29 110.374 1445.52 110.374C1442 110.374 1439.39 109.253 1437.67 107.012C1435.97 104.756 1435.12 101.907 1435.12 98.4644ZM1457.67 98.4644C1457.67 95.022 1458.58 92.1802 1460.39 89.939C1462.22 87.6831 1464.9 86.5552 1468.41 86.5552C1471.93 86.5552 1474.59 87.6831 1476.41 89.939C1478.24 92.1802 1479.16 95.022 1479.16 98.4644C1479.16 101.907 1478.24 104.756 1476.41 107.012C1474.59 109.253 1471.93 110.374 1468.41 110.374C1464.9 110.374 1462.22 109.253 1460.39 107.012C1458.58 104.756 1457.67 101.907 1457.67 98.4644ZM1461.76 98.4644C1461.76 101.541 1462.36 103.818 1463.58 105.298C1464.79 106.777 1466.41 107.517 1468.41 107.517C1470.42 107.517 1472.03 106.777 1473.25 105.298C1474.46 103.818 1475.07 101.541 1475.07 98.4644C1475.07 95.3882 1474.46 93.1104 1473.25 91.6309C1472.03 90.1514 1470.42 89.4116 1468.41 89.4116C1466.41 89.4116 1464.79 90.1514 1463.58 91.6309C1462.36 93.1104 1461.76 95.3882 1461.76 98.4644ZM1485.13 110C1484.48 110 1484.15 109.67 1484.15 109.011V87.9175C1484.15 87.2583 1484.48 86.9287 1485.13 86.9287H1486.98C1487.64 86.9287 1487.97 87.2583 1487.97 87.9175V89.6753H1488.06C1489.01 88.6206 1490.03 87.8369 1491.13 87.3242C1492.23 86.8115 1493.6 86.5552 1495.24 86.5552C1497.91 86.5552 1499.82 87.3096 1500.98 88.8184C1502.15 90.3125 1502.73 92.3633 1502.73 94.9707V109.011C1502.73 109.67 1502.4 110 1501.75 110H1499.86C1499.2 110 1498.87 109.67 1498.87 109.011V96.0254C1498.87 93.1543 1498.39 91.3379 1497.44 90.5762C1496.49 89.7998 1495.28 89.4116 1493.81 89.4116C1491.91 89.4116 1490.47 89.9829 1489.48 91.1255C1488.5 92.2534 1488.01 94.1943 1488.01 96.9482V109.011C1488.01 109.67 1487.68 110 1487.02 110H1485.13ZM1507.68 98.4644C1507.68 95.3149 1508.44 92.5464 1509.96 90.1587C1511.49 87.7563 1513.71 86.5552 1516.64 86.5552C1518.33 86.5552 1519.68 86.8335 1520.69 87.3901C1521.7 87.9468 1522.6 88.7085 1523.41 89.6753H1523.45C1523.43 89.2358 1523.41 88.7891 1523.41 88.335V78.5571C1523.41 77.8979 1523.74 77.5684 1524.4 77.5684H1526.29C1526.95 77.5684 1527.28 77.8979 1527.28 78.5571V109.011C1527.28 109.67 1526.95 110 1526.29 110H1524.44C1523.92 110 1523.63 109.67 1523.59 109.011L1523.45 107.253H1523.41C1522.6 108.22 1521.7 108.982 1520.69 109.539C1519.68 110.095 1518.33 110.374 1516.64 110.374C1513.71 110.374 1511.49 109.18 1509.96 106.792C1508.44 104.39 1507.68 101.614 1507.68 98.4644ZM1511.77 98.4644C1511.77 101.16 1512.23 103.342 1513.15 105.012C1514.09 106.682 1515.67 107.517 1517.9 107.517C1519.48 107.517 1520.79 106.982 1521.83 105.913C1522.88 104.829 1523.41 103.188 1523.41 100.991V95.9375C1523.41 93.7402 1522.88 92.1069 1521.83 91.0376C1520.79 89.9536 1519.48 89.4116 1517.9 89.4116C1515.67 89.4116 1514.09 90.2466 1513.15 91.9165C1512.23 93.5864 1511.77 95.769 1511.77 98.4644ZM1532.64 107.847C1532.19 107.422 1532.09 107.026 1532.35 106.66L1533.34 105.276C1533.66 104.836 1534.14 104.858 1534.77 105.342C1535.63 106.001 1536.59 106.528 1537.65 106.924C1538.72 107.319 1539.93 107.517 1541.3 107.517C1542.1 107.517 1542.82 107.422 1543.45 107.231C1544.08 107.026 1544.63 106.653 1545.1 106.111C1545.58 105.569 1545.82 104.844 1545.82 103.936C1545.82 103.408 1545.71 102.91 1545.47 102.441C1545.25 101.973 1544.9 101.599 1544.42 101.321C1543.95 101.028 1543.49 100.801 1543.03 100.64C1542.29 100.361 1541.54 100.134 1540.79 99.9585C1540.06 99.7681 1539.09 99.4824 1537.89 99.1016C1537.08 98.8525 1536.32 98.501 1535.61 98.0469C1534.89 97.5781 1534.26 96.9482 1533.72 96.1572C1533.19 95.3662 1532.92 94.2749 1532.92 92.8833C1532.92 91.4624 1533.36 90.2393 1534.22 89.2139C1535.09 88.1885 1536.17 87.4927 1537.47 87.1265C1538.78 86.7456 1540.04 86.5552 1541.27 86.5552C1543.09 86.5552 1544.55 86.7676 1545.65 87.1924C1546.76 87.6025 1547.72 88.0933 1548.53 88.6646C1548.99 89.0015 1549.06 89.3896 1548.72 89.8291L1547.73 91.1475C1547.43 91.5723 1546.95 91.5576 1546.31 91.1035C1545.76 90.7227 1545 90.3638 1544 90.0269C1543 89.6899 1542.13 89.5215 1541.38 89.5215C1540.46 89.5215 1539.67 89.624 1539.01 89.8291C1538.35 90.0342 1537.82 90.3857 1537.41 90.8838C1537 91.3818 1536.79 91.9678 1536.79 92.6416C1536.79 93.1543 1536.87 93.6157 1537.03 94.0259C1537.19 94.4214 1537.5 94.7876 1537.93 95.1245C1538.37 95.4614 1538.99 95.7324 1539.78 95.9375C1541.01 96.2598 1542.13 96.5527 1543.14 96.8164C1544.17 97.0801 1545.09 97.4023 1545.91 97.7832C1546.98 98.2812 1547.8 98.8306 1548.37 99.4312C1548.96 100.032 1549.36 100.684 1549.58 101.387C1549.8 102.075 1549.91 102.844 1549.91 103.694C1549.91 105.261 1549.44 106.587 1548.5 107.671C1547.58 108.755 1546.55 109.48 1545.41 109.846C1544.26 110.198 1542.89 110.374 1541.27 110.374C1539.09 110.374 1537.22 110.066 1535.65 109.451C1534.1 108.821 1533.09 108.286 1532.64 107.847Z" fill="white"/>
<rect y="454" width="200" height="2352" transform="rotate(-90 0 454)" fill="#75D573"/>
<rect x="2313" y="724" width="200" height="39" transform="rotate(-90 2313 724)" fill="#75D573"/>
<path d="M2267.23 611.709C2267.04 611.241 2267.21 610.904 2267.75 610.699C2268.88 610.274 2269.95 609.593 2270.96 608.655C2271.97 607.718 2272.77 606.883 2273.36 606.15C2273.78 605.623 2274.19 605.359 2274.59 605.359H2276.46C2277.13 605.359 2277.47 605.689 2277.47 606.348V636.011C2277.47 636.67 2277.14 637 2276.48 637H2274.59C2273.93 637 2273.6 636.67 2273.6 636.011V611.929C2273.6 611.49 2273.61 611.05 2273.64 610.611H2273.6C2273.14 611.182 2272.48 611.768 2271.6 612.369C2270.72 612.969 2269.91 613.409 2269.18 613.687C2268.54 613.936 2268.11 613.819 2267.91 613.335L2267.23 611.709Z" fill="white"/>
</svg>
