<svg width="1279" height="1278" viewBox="0 0 1279 1278" fill="none" xmlns="http://www.w3.org/2000/svg">
<path d="M752.524 822H527.57C527.57 822 509.335 822.162 500.768 811.737C493.733 803.176 493 793.636 493 793.636V484.393C493 484.393 496.677 469.023 503.523 462.537C511.278 455.191 527.57 456.029 527.57 456.029H752.524C752.524 456.029 769.374 457.786 777.84 467.794C784.997 476.254 786.106 484.393 786.106 484.393V793.636C786.106 793.636 786.106 802.975 774.833 811.987C762.307 822 752.524 822 752.524 822Z" stroke="#75D573" stroke-width="35" stroke-linejoin="round"/>
<path d="M570.162 528.122L701.935 528.122" stroke="#75D573" stroke-width="35" stroke-linecap="round" stroke-linejoin="round"/>
<path d="M636.299 610.228L713.959 610.228" stroke="#75D573" stroke-width="35" stroke-linecap="round" stroke-linejoin="round"/>
<path d="M636.299 675.312L713.959 675.312" stroke="#75D573" stroke-width="35" stroke-linecap="round" stroke-linejoin="round"/>
<path d="M636.299 739.394L713.959 739.394" stroke="#75D573" stroke-width="35" stroke-linecap="round" stroke-linejoin="round"/>
<circle cx="565" cy="609" r="17" fill="#75D573"/>
<circle cx="565" cy="670" r="17" fill="#75D573"/>
<circle cx="565" cy="739" r="17" fill="#75D573"/>
<path d="M431.354 399.646L408.939 315.995L347.702 377.232L431.354 399.646ZM320.05 298.95L378.321 357.22L388.927 346.613L330.657 288.343L320.05 298.95Z" fill="#75D573"/>
<line x1="307.839" y1="276.161" x2="400.839" y2="369.161" stroke="#75D573" stroke-width="25"/>
<path d="M821 400.354L904.652 377.939L843.414 316.702L821 400.354ZM921.697 289.05L863.426 347.321L874.033 357.927L932.303 299.657L921.697 289.05Z" fill="#75D573"/>
<line x1="941.839" y1="278.839" x2="848.839" y2="371.839" stroke="#75D573" stroke-width="25"/>
<path d="M431.354 869L408.939 952.652L347.702 891.414L431.354 869ZM320.05 969.697L378.321 911.426L388.927 922.033L330.657 980.303L320.05 969.697Z" fill="#75D573"/>
<line y1="-12.5" x2="131.522" y2="-12.5" transform="matrix(0.707107 -0.707107 -0.707107 -0.707107 304 980)" stroke="#75D573" stroke-width="25"/>
<path d="M830 869L913.652 891.414L852.414 952.652L830 869ZM930.697 980.303L872.426 922.033L883.033 911.426L941.303 969.697L930.697 980.303Z" fill="#75D573"/>
<line y1="-12.5" x2="131.522" y2="-12.5" transform="matrix(-0.707107 -0.707107 -0.707107 0.707107 942 997)" stroke="#75D573" stroke-width="25"/>
</svg>
