<svg width="1261" height="975" viewBox="0 0 1261 975" fill="none" xmlns="http://www.w3.org/2000/svg">
<line x1="2.18557e-07" y1="890.5" x2="1261" y2="890.5" stroke="white" stroke-width="5"/>
<rect x="922" y="65" width="278" height="828" fill="#75D573"/>
<rect x="494" y="756" width="278" height="137" fill="#75D573"/>
<rect x="66" y="876" width="278" height="17" fill="#75D573"/>
<path d="M146.487 856C145.681 856 145.278 855.67 145.278 855.011V853.957C145.278 853.385 145.52 852.858 146.003 852.375L154.617 843.695C157.166 841.132 158.835 839.154 159.626 837.763C160.432 836.356 160.835 834.738 160.835 832.907C160.835 831.369 160.381 830.065 159.473 828.996C158.579 827.926 157.217 827.392 155.386 827.392C153.745 827.392 152.383 827.809 151.299 828.644C150.215 829.479 149.431 830.878 148.948 832.841C148.743 833.676 148.311 833.998 147.651 833.808L145.938 833.302C145.483 833.17 145.374 832.548 145.608 831.435C146.033 829.516 147.058 827.816 148.684 826.337C150.325 824.843 152.5 824.096 155.21 824.096C158.652 824.096 161.165 824.96 162.747 826.688C164.343 828.417 165.142 830.534 165.142 833.039C165.142 835.485 164.482 837.594 163.164 839.367C161.86 841.139 160.066 843.131 157.781 845.343L150.552 852.353V852.44C150.947 852.411 151.533 852.396 152.31 852.396H164.285C165.09 852.396 165.493 852.726 165.493 853.385V855.011C165.493 855.67 165.09 856 164.285 856H146.487ZM172.942 856C172.283 856 171.953 855.67 171.953 855.011V852.331C171.953 851.671 172.283 851.342 172.942 851.342H175.491C176.15 851.342 176.479 851.671 176.479 852.331V855.011C176.479 856.549 176.311 857.89 175.974 859.032C175.652 860.189 175.007 861.2 174.041 862.064C173.718 862.343 173.447 862.379 173.228 862.174L172.239 861.251C172.019 861.046 172.07 860.797 172.393 860.504C172.891 860.065 173.293 859.428 173.601 858.593C173.923 857.772 174.084 856.908 174.084 856H172.942ZM183.687 852.748C183.101 852.074 182.983 851.525 183.335 851.1L184.478 849.716C184.976 849.115 185.569 849.247 186.257 850.111C187.019 851.063 187.957 851.847 189.07 852.462C190.198 853.063 191.377 853.363 192.607 853.363C195.024 853.363 196.738 852.763 197.749 851.562C198.76 850.36 199.265 848.756 199.265 846.75C199.265 844.625 198.591 843.087 197.244 842.135C195.896 841.183 194.387 840.707 192.717 840.707H190.784C190.125 840.707 189.795 840.465 189.795 839.982V838.356C189.795 837.843 190.125 837.587 190.784 837.587H192.344C193.955 837.587 195.332 837.06 196.475 836.005C197.632 834.95 198.21 833.515 198.21 831.698C198.21 830.438 197.749 829.406 196.826 828.6C195.903 827.794 194.607 827.392 192.937 827.392C191.37 827.392 190.088 827.75 189.092 828.468C188.096 829.186 187.393 829.809 186.982 830.336C186.44 831.039 185.913 831.149 185.4 830.666L184.104 829.413C183.723 829.047 183.892 828.439 184.609 827.589C185.371 826.696 186.462 825.89 187.883 825.172C189.319 824.455 191.025 824.096 193.003 824.096C196.035 824.096 198.35 824.828 199.946 826.293C201.543 827.758 202.341 829.655 202.341 831.984C202.341 833.83 201.77 835.375 200.627 836.62C199.5 837.851 198.262 838.612 196.914 838.905V838.993C198.481 839.213 199.983 840.062 201.418 841.542C202.854 843.021 203.572 844.787 203.572 846.837C203.572 849.884 202.686 852.287 200.913 854.044C199.155 855.788 196.357 856.659 192.52 856.659C190.293 856.659 188.455 856.227 187.004 855.363C185.554 854.484 184.448 853.612 183.687 852.748ZM224.248 856C223.589 856 223.259 855.67 223.259 855.011V824.557C223.259 823.898 223.589 823.568 224.248 823.568H226.138C226.797 823.568 227.126 823.898 227.126 824.557V842.838C227.126 843.278 227.112 843.717 227.083 844.157H227.126L236.025 833.5C236.348 833.119 236.736 832.929 237.19 832.929H239.189C240.303 832.929 240.493 833.361 239.761 834.225L232.861 842.443L240.75 854.704C241.306 855.568 241.116 856 240.178 856H238.025C237.542 856 237.124 855.729 236.772 855.187L230.444 845.321L227.126 849.276V855.011C227.126 855.67 226.797 856 226.138 856H224.248ZM246.309 856C245.649 856 245.32 855.67 245.32 855.011V824.557C245.32 823.898 245.649 823.568 246.309 823.568H248.198C248.857 823.568 249.187 823.898 249.187 824.557V834.335C249.187 834.789 249.172 835.236 249.143 835.675H249.187C249.993 834.708 250.901 833.947 251.912 833.39C252.922 832.833 254.27 832.555 255.955 832.555C258.884 832.555 261.111 833.756 262.634 836.159C264.158 838.546 264.919 841.315 264.919 844.464C264.919 847.614 264.158 850.39 262.634 852.792C261.111 855.18 258.884 856.374 255.955 856.374C254.27 856.374 252.922 856.095 251.912 855.539C250.901 854.982 249.993 854.22 249.187 853.253H249.143L249.011 855.011C248.967 855.67 248.682 856 248.154 856H246.309ZM249.187 846.991C249.187 849.188 249.707 850.829 250.747 851.913C251.802 852.982 253.12 853.517 254.702 853.517C256.929 853.517 258.503 852.682 259.426 851.012C260.364 849.342 260.833 847.16 260.833 844.464C260.833 841.769 260.364 839.586 259.426 837.917C258.503 836.247 256.929 835.412 254.702 835.412C253.12 835.412 251.802 835.954 250.747 837.038C249.707 838.107 249.187 839.74 249.187 841.938V846.991Z" fill="white"/>
<path d="M565.917 710.709C565.727 710.241 565.903 709.904 566.445 709.699C567.573 709.274 568.642 708.593 569.653 707.655C570.664 706.718 571.462 705.883 572.048 705.15C572.473 704.623 572.883 704.359 573.278 704.359H575.146C575.82 704.359 576.157 704.689 576.157 705.348V735.011C576.157 735.67 575.827 736 575.168 736H573.278C572.619 736 572.29 735.67 572.29 735.011V710.929C572.29 710.49 572.304 710.05 572.333 709.611H572.29C571.835 710.182 571.169 710.768 570.29 711.369C569.411 711.969 568.605 712.409 567.873 712.687C567.229 712.936 566.804 712.819 566.599 712.335L565.917 710.709ZM582.265 714.862C582.265 711.669 583.107 709.076 584.792 707.084C586.491 705.092 588.996 704.096 592.307 704.096C595.764 704.096 598.349 705.473 600.063 708.227C601.792 710.966 602.656 714.723 602.656 719.499C602.656 725.944 601.535 730.419 599.294 732.924C597.053 735.414 594.328 736.659 591.12 736.659C589.289 736.659 587.824 736.425 586.726 735.956C585.627 735.487 584.682 734.887 583.891 734.154C583.276 733.583 583.137 733.107 583.474 732.726L584.506 731.518C584.917 731.049 585.451 731.093 586.11 731.649C586.652 732.118 587.304 732.521 588.066 732.858C588.828 733.195 589.912 733.363 591.318 733.363C593.295 733.363 595.017 732.375 596.481 730.397C597.946 728.419 598.679 725.314 598.679 721.081H598.635C597.976 722.033 597.023 722.846 595.778 723.52C594.548 724.179 592.988 724.508 591.098 724.508C588.754 724.508 586.696 723.71 584.924 722.113C583.151 720.502 582.265 718.085 582.265 714.862ZM586.572 714.73C586.572 716.854 587.07 718.458 588.066 719.542C589.062 720.612 590.307 721.146 591.801 721.146C593.735 721.146 595.236 720.553 596.306 719.367C597.39 718.18 597.932 716.583 597.932 714.577C597.932 712.76 597.426 711.112 596.416 709.633C595.419 708.139 594.035 707.392 592.263 707.392C590.432 707.392 589.025 708.08 588.044 709.457C587.062 710.834 586.572 712.592 586.572 714.73ZM610.039 736C609.379 736 609.05 735.67 609.05 735.011V732.331C609.05 731.671 609.379 731.342 610.039 731.342H612.587C613.247 731.342 613.576 731.671 613.576 732.331V735.011C613.576 736.549 613.408 737.89 613.071 739.032C612.749 740.189 612.104 741.2 611.137 742.064C610.815 742.343 610.544 742.379 610.324 742.174L609.335 741.251C609.116 741.046 609.167 740.797 609.489 740.504C609.987 740.065 610.39 739.428 610.698 738.593C611.02 737.772 611.181 736.908 611.181 736H610.039ZM619.882 721.256C619.882 714.811 621.003 710.343 623.244 707.853C625.485 705.348 628.21 704.096 631.418 704.096C633.249 704.096 634.714 704.33 635.812 704.799C636.911 705.268 637.856 705.868 638.647 706.601C639.262 707.172 639.401 707.648 639.064 708.029L638.032 709.237C637.622 709.706 637.087 709.662 636.428 709.105C635.886 708.637 635.234 708.234 634.472 707.897C633.71 707.56 632.626 707.392 631.22 707.392C629.243 707.392 627.521 708.38 626.057 710.358C624.592 712.335 623.859 715.441 623.859 719.674H623.903C624.562 718.722 625.507 717.917 626.738 717.257C627.983 716.583 629.55 716.247 631.44 716.247C633.784 716.247 635.842 717.052 637.614 718.664C639.387 720.26 640.273 722.67 640.273 725.893C640.273 729.086 639.423 731.679 637.724 733.671C636.04 735.663 633.542 736.659 630.231 736.659C626.774 736.659 624.182 735.29 622.453 732.55C620.739 729.796 619.882 726.032 619.882 721.256ZM624.606 726.178C624.606 727.995 625.104 729.65 626.101 731.144C627.111 732.624 628.503 733.363 630.275 733.363C632.106 733.363 633.513 732.675 634.494 731.298C635.476 729.921 635.966 728.163 635.966 726.024C635.966 723.9 635.468 722.304 634.472 721.234C633.476 720.15 632.231 719.608 630.737 719.608C628.803 719.608 627.294 720.202 626.21 721.388C625.141 722.575 624.606 724.171 624.606 726.178ZM661.345 736C660.686 736 660.356 735.67 660.356 735.011V704.557C660.356 703.898 660.686 703.568 661.345 703.568H663.234C663.894 703.568 664.223 703.898 664.223 704.557V722.838C664.223 723.278 664.208 723.717 664.179 724.157H664.223L673.122 713.5C673.444 713.119 673.833 712.929 674.287 712.929H676.286C677.399 712.929 677.59 713.361 676.857 714.225L669.958 722.443L677.846 734.704C678.403 735.568 678.212 736 677.275 736H675.122C674.638 736 674.221 735.729 673.869 735.187L667.541 725.321L664.223 729.276V735.011C664.223 735.67 663.894 736 663.234 736H661.345ZM683.405 736C682.746 736 682.417 735.67 682.417 735.011V704.557C682.417 703.898 682.746 703.568 683.405 703.568H685.295C685.954 703.568 686.284 703.898 686.284 704.557V714.335C686.284 714.789 686.269 715.236 686.24 715.675H686.284C687.089 714.708 687.998 713.947 689.008 713.39C690.019 712.833 691.367 712.555 693.051 712.555C695.981 712.555 698.208 713.756 699.731 716.159C701.254 718.546 702.016 721.315 702.016 724.464C702.016 727.614 701.254 730.39 699.731 732.792C698.208 735.18 695.981 736.374 693.051 736.374C691.367 736.374 690.019 736.095 689.008 735.539C687.998 734.982 687.089 734.22 686.284 733.253H686.24L686.108 735.011C686.064 735.67 685.778 736 685.251 736H683.405ZM686.284 726.991C686.284 729.188 686.804 730.829 687.844 731.913C688.898 732.982 690.217 733.517 691.799 733.517C694.025 733.517 695.6 732.682 696.523 731.012C697.46 729.342 697.929 727.16 697.929 724.464C697.929 721.769 697.46 719.586 696.523 717.917C695.6 716.247 694.025 715.412 691.799 715.412C690.217 715.412 688.898 715.954 687.844 717.038C686.804 718.107 686.284 719.74 686.284 721.938V726.991Z" fill="white"/>
<path d="M1001.01 19.7095C1000.82 19.2407 1000.99 18.9038 1001.54 18.6987C1002.66 18.2739 1003.73 17.5928 1004.74 16.6553C1005.76 15.7178 1006.55 14.8828 1007.14 14.1504C1007.56 13.623 1007.97 13.3594 1008.37 13.3594H1010.24C1010.91 13.3594 1011.25 13.689 1011.25 14.3481V44.0112C1011.25 44.6704 1010.92 45 1010.26 45H1008.37C1007.71 45 1007.38 44.6704 1007.38 44.0112V19.9292C1007.38 19.4897 1007.4 19.0503 1007.43 18.6108H1007.38C1006.93 19.1821 1006.26 19.7681 1005.38 20.3687C1004.5 20.9692 1003.7 21.4087 1002.96 21.687C1002.32 21.936 1001.9 21.8188 1001.69 21.3354L1001.01 19.7095ZM1018.68 45C1017.87 45 1017.47 44.6704 1017.47 44.0112V42.9565C1017.47 42.3853 1017.71 41.8579 1018.19 41.3745L1026.81 32.6953C1029.35 30.1318 1031.02 28.1543 1031.81 26.7627C1032.62 25.3564 1033.02 23.7378 1033.02 21.9067C1033.02 20.3687 1032.57 19.0649 1031.66 17.9956C1030.77 16.9263 1029.41 16.3916 1027.57 16.3916C1025.93 16.3916 1024.57 16.8091 1023.49 17.644C1022.4 18.479 1021.62 19.8779 1021.14 21.8408C1020.93 22.6758 1020.5 22.998 1019.84 22.8076L1018.13 22.3022C1017.67 22.1704 1017.56 21.5479 1017.8 20.4346C1018.22 18.5156 1019.25 16.8164 1020.87 15.3369C1022.51 13.8428 1024.69 13.0957 1027.4 13.0957C1030.84 13.0957 1033.35 13.96 1034.94 15.6885C1036.53 17.417 1037.33 19.5337 1037.33 22.0386C1037.33 24.4849 1036.67 26.5942 1035.35 28.3667C1034.05 30.1392 1032.25 32.1313 1029.97 34.3433L1022.74 41.3525V41.4404C1023.14 41.4111 1023.72 41.3965 1024.5 41.3965H1036.47C1037.28 41.3965 1037.68 41.7261 1037.68 42.3853V44.0112C1037.68 44.6704 1037.28 45 1036.47 45H1018.68ZM1041.81 29.3774C1041.81 24.2505 1042.52 20.2588 1043.92 17.4023C1045.33 14.5312 1048.01 13.0957 1051.96 13.0957C1055.92 13.0957 1058.6 14.5312 1060.01 17.4023C1061.41 20.2588 1062.12 24.2505 1062.12 29.3774C1062.12 34.5044 1061.41 38.5034 1060.01 41.3745C1058.6 44.231 1055.92 45.6592 1051.96 45.6592C1048.01 45.6592 1045.33 44.231 1043.92 41.3745C1042.52 38.5034 1041.81 34.5044 1041.81 29.3774ZM1045.9 29.3774C1045.9 33.479 1046.25 36.6943 1046.95 39.0234C1047.66 41.3379 1049.33 42.4951 1051.96 42.4951C1054.6 42.4951 1056.27 41.3379 1056.97 39.0234C1057.68 36.6943 1058.03 33.479 1058.03 29.3774C1058.03 25.2759 1057.68 22.0679 1056.97 19.7534C1056.27 17.4243 1054.6 16.2598 1051.96 16.2598C1049.33 16.2598 1047.66 17.4243 1046.95 19.7534C1046.25 22.0679 1045.9 25.2759 1045.9 29.3774ZM1083.25 45C1082.59 45 1082.26 44.6704 1082.26 44.0112V13.5571C1082.26 12.8979 1082.59 12.5684 1083.25 12.5684H1085.14C1085.8 12.5684 1086.13 12.8979 1086.13 13.5571V31.8384C1086.13 32.2778 1086.12 32.7173 1086.09 33.1567H1086.13L1095.03 22.5C1095.35 22.1191 1095.74 21.9287 1096.19 21.9287H1098.19C1099.31 21.9287 1099.5 22.3608 1098.77 23.2251L1091.87 31.4429L1099.75 43.7036C1100.31 44.5679 1100.12 45 1099.18 45H1097.03C1096.55 45 1096.13 44.729 1095.78 44.187L1089.45 34.3213L1086.13 38.2764V44.0112C1086.13 44.6704 1085.8 45 1085.14 45H1083.25ZM1105.31 45C1104.65 45 1104.32 44.6704 1104.32 44.0112V13.5571C1104.32 12.8979 1104.65 12.5684 1105.31 12.5684H1107.2C1107.86 12.5684 1108.19 12.8979 1108.19 13.5571V23.335C1108.19 23.7891 1108.18 24.2358 1108.15 24.6753H1108.19C1109 23.7085 1109.91 22.9468 1110.92 22.3901C1111.93 21.8335 1113.27 21.5552 1114.96 21.5552C1117.89 21.5552 1120.12 22.7563 1121.64 25.1587C1123.16 27.5464 1123.92 30.3149 1123.92 33.4644C1123.92 36.6138 1123.16 39.3896 1121.64 41.792C1120.12 44.1797 1117.89 45.3735 1114.96 45.3735C1113.27 45.3735 1111.93 45.0952 1110.92 44.5386C1109.91 43.9819 1109 43.2202 1108.19 42.2534H1108.15L1108.02 44.0112C1107.97 44.6704 1107.69 45 1107.16 45H1105.31ZM1108.19 35.9912C1108.19 38.1885 1108.71 39.8291 1109.75 40.9131C1110.81 41.9824 1112.12 42.5171 1113.71 42.5171C1115.93 42.5171 1117.51 41.6821 1118.43 40.0122C1119.37 38.3423 1119.84 36.1597 1119.84 33.4644C1119.84 30.769 1119.37 28.5864 1118.43 26.9165C1117.51 25.2466 1115.93 24.4116 1113.71 24.4116C1112.12 24.4116 1110.81 24.9536 1109.75 26.0376C1108.71 27.1069 1108.19 28.7402 1108.19 30.9375V35.9912Z" fill="white"/>
<path d="M173.711 952.847C173.257 952.422 173.162 952.026 173.425 951.66L174.414 950.276C174.736 949.836 175.212 949.858 175.842 950.342C176.707 951.001 177.666 951.528 178.721 951.924C179.79 952.319 181.006 952.517 182.368 952.517C183.174 952.517 183.892 952.422 184.521 952.231C185.151 952.026 185.701 951.653 186.169 951.111C186.653 950.569 186.895 949.844 186.895 948.936C186.895 948.408 186.777 947.91 186.543 947.441C186.323 946.973 185.972 946.599 185.488 946.321C185.02 946.028 184.558 945.801 184.104 945.64C183.357 945.361 182.61 945.134 181.863 944.958C181.13 944.768 180.164 944.482 178.962 944.102C178.157 943.853 177.395 943.501 176.677 943.047C175.959 942.578 175.33 941.948 174.788 941.157C174.26 940.366 173.997 939.275 173.997 937.883C173.997 936.462 174.429 935.239 175.293 934.214C176.157 933.188 177.241 932.493 178.545 932.126C179.849 931.746 181.116 931.555 182.346 931.555C184.163 931.555 185.62 931.768 186.719 932.192C187.832 932.603 188.792 933.093 189.597 933.665C190.066 934.001 190.132 934.39 189.795 934.829L188.806 936.147C188.499 936.572 188.022 936.558 187.378 936.104C186.836 935.723 186.067 935.364 185.071 935.027C184.075 934.69 183.203 934.521 182.456 934.521C181.533 934.521 180.742 934.624 180.083 934.829C179.424 935.034 178.889 935.386 178.479 935.884C178.069 936.382 177.864 936.968 177.864 937.642C177.864 938.154 177.944 938.616 178.105 939.026C178.267 939.421 178.567 939.788 179.006 940.125C179.446 940.461 180.061 940.732 180.852 940.938C182.083 941.26 183.203 941.553 184.214 941.816C185.239 942.08 186.162 942.402 186.982 942.783C188.052 943.281 188.872 943.831 189.443 944.431C190.029 945.032 190.432 945.684 190.652 946.387C190.872 947.075 190.981 947.844 190.981 948.694C190.981 950.261 190.513 951.587 189.575 952.671C188.652 953.755 187.62 954.48 186.477 954.846C185.334 955.198 183.958 955.374 182.346 955.374C180.164 955.374 178.289 955.066 176.721 954.451C175.168 953.821 174.165 953.286 173.711 952.847ZM193.596 933.005C193.347 932.288 193.545 931.929 194.189 931.929H196.584C197.053 931.929 197.383 932.214 197.573 932.786L202.231 947.288C202.612 948.474 202.869 949.294 203 949.749C203.147 950.188 203.279 950.737 203.396 951.396H203.484C203.601 950.737 203.726 950.188 203.857 949.749C204.004 949.294 204.268 948.474 204.648 947.288L209.307 932.786C209.497 932.214 209.827 931.929 210.295 931.929H212.69C213.335 931.929 213.533 932.288 213.284 933.005L206.077 953.66C205.769 954.553 205.374 955 204.89 955H201.99C201.506 955 201.111 954.553 200.803 953.66L193.596 933.005ZM215.767 943.464C215.767 940.315 216.528 937.546 218.052 935.159C219.575 932.756 221.802 931.555 224.731 931.555C226.416 931.555 227.764 931.833 228.774 932.39C229.785 932.947 230.693 933.708 231.499 934.675H231.543L231.675 932.917C231.719 932.258 232.004 931.929 232.532 931.929H234.377C235.037 931.929 235.366 932.258 235.366 932.917V955.176C235.366 957.988 234.714 960.186 233.411 961.768C232.122 963.364 229.565 964.163 225.742 964.163C223.179 964.163 221.26 963.87 219.985 963.284C218.711 962.712 217.803 962.104 217.261 961.46C216.865 960.977 216.843 960.566 217.195 960.229L218.403 959.043C218.74 958.721 219.209 958.823 219.81 959.351C220.586 960.054 221.333 960.552 222.051 960.845C222.769 961.152 224.006 961.306 225.764 961.306C227.756 961.306 229.207 960.881 230.115 960.032C231.038 959.182 231.499 957.424 231.499 954.758V953.44C231.499 952.986 231.514 952.539 231.543 952.1H231.499C230.737 953.11 229.836 953.909 228.796 954.495C227.771 955.081 226.416 955.374 224.731 955.374C221.802 955.374 219.575 954.18 218.052 951.792C216.528 949.39 215.767 946.614 215.767 943.464ZM219.854 943.464C219.854 946.16 220.315 948.342 221.238 950.012C222.175 951.682 223.757 952.517 225.984 952.517C227.566 952.517 228.877 951.982 229.917 950.913C230.972 949.829 231.499 948.188 231.499 945.991V940.938C231.499 938.74 230.972 937.107 229.917 936.038C228.877 934.954 227.566 934.412 225.984 934.412C223.757 934.412 222.175 935.247 221.238 936.917C220.315 938.586 219.854 940.769 219.854 943.464Z" fill="white"/>
<path d="M598.607 963.789C597.948 963.789 597.618 963.459 597.618 962.8V932.917C597.618 932.258 597.948 931.929 598.607 931.929H600.453C600.98 931.929 601.266 932.258 601.31 932.917L601.441 934.675H601.485C602.291 933.708 603.199 932.947 604.21 932.39C605.221 931.833 606.568 931.555 608.253 931.555C611.183 931.555 613.409 932.756 614.933 935.159C616.456 937.546 617.218 940.315 617.218 943.464C617.218 946.614 616.456 949.39 614.933 951.792C613.409 954.18 611.183 955.374 608.253 955.374C606.568 955.374 605.221 955.095 604.21 954.539C603.199 953.982 602.291 953.22 601.485 952.253H601.441C601.471 952.693 601.485 953.14 601.485 953.594V962.8C601.485 963.459 601.156 963.789 600.497 963.789H598.607ZM601.485 945.991C601.485 948.188 602.005 949.829 603.045 950.913C604.1 951.982 605.418 952.517 607 952.517C609.227 952.517 610.802 951.682 611.725 950.012C612.662 948.342 613.131 946.16 613.131 943.464C613.131 940.769 612.662 938.586 611.725 936.917C610.802 935.247 609.227 934.412 607 934.412C605.418 934.412 604.1 934.954 603.045 936.038C602.005 937.107 601.485 938.74 601.485 940.938V945.991ZM623.216 955C622.557 955 622.228 954.67 622.228 954.011V932.917C622.228 932.258 622.557 931.929 623.216 931.929H625.062C625.721 931.929 626.051 932.258 626.051 932.917V934.675H626.139C627.091 933.621 628.116 932.837 629.215 932.324C630.313 931.812 631.683 931.555 633.324 931.555C635.99 931.555 637.901 932.31 639.059 933.818C640.23 935.312 640.816 937.363 640.816 939.971V954.011C640.816 954.67 640.487 955 639.828 955H637.938C637.279 955 636.949 954.67 636.949 954.011V941.025C636.949 938.154 636.473 936.338 635.521 935.576C634.569 934.8 633.36 934.412 631.896 934.412C629.991 934.412 628.548 934.983 627.567 936.125C626.585 937.253 626.095 939.194 626.095 941.948V954.011C626.095 954.67 625.765 955 625.106 955H623.216ZM645.76 943.464C645.76 940.315 646.522 937.546 648.045 935.159C649.569 932.756 651.795 931.555 654.725 931.555C656.41 931.555 657.757 931.833 658.768 932.39C659.779 932.947 660.687 933.708 661.493 934.675H661.537L661.668 932.917C661.712 932.258 661.998 931.929 662.525 931.929H664.371C665.03 931.929 665.36 932.258 665.36 932.917V955.176C665.36 957.988 664.708 960.186 663.404 961.768C662.115 963.364 659.559 964.163 655.736 964.163C653.172 964.163 651.253 963.87 649.979 963.284C648.705 962.712 647.796 962.104 647.254 961.46C646.859 960.977 646.837 960.566 647.188 960.229L648.397 959.043C648.734 958.721 649.203 958.823 649.803 959.351C650.58 960.054 651.327 960.552 652.044 960.845C652.762 961.152 654 961.306 655.758 961.306C657.75 961.306 659.2 960.881 660.108 960.032C661.031 959.182 661.493 957.424 661.493 954.758V953.44C661.493 952.986 661.507 952.539 661.537 952.1H661.493C660.731 953.11 659.83 953.909 658.79 954.495C657.765 955.081 656.41 955.374 654.725 955.374C651.795 955.374 649.569 954.18 648.045 951.792C646.522 949.39 645.76 946.614 645.76 943.464ZM649.847 943.464C649.847 946.16 650.309 948.342 651.231 950.012C652.169 951.682 653.751 952.517 655.978 952.517C657.56 952.517 658.871 951.982 659.911 950.913C660.965 949.829 661.493 948.188 661.493 945.991V940.938C661.493 938.74 660.965 937.107 659.911 936.038C658.871 934.954 657.56 934.412 655.978 934.412C653.751 934.412 652.169 935.247 651.231 936.917C650.309 938.586 649.847 940.769 649.847 943.464Z" fill="white"/>
<path d="M1029.51 963.723C1029.19 963.577 1029.06 963.342 1029.12 963.02L1029.49 961.24C1029.56 960.889 1029.75 960.779 1030.04 960.911C1030.61 961.174 1031.31 961.306 1032.15 961.306C1033.01 961.306 1033.64 960.881 1034.02 960.032C1034.41 959.182 1034.61 957.461 1034.61 954.868V932.917C1034.61 932.258 1034.94 931.929 1035.6 931.929H1037.49C1038.15 931.929 1038.48 932.258 1038.48 932.917V957.043C1038.48 959.885 1037.94 961.782 1036.85 962.734C1035.78 963.687 1034.45 964.163 1032.85 964.163C1031.3 964.163 1030.19 964.016 1029.51 963.723ZM1035.6 927.754C1034.94 927.754 1034.61 927.424 1034.61 926.765V924.875C1034.61 924.216 1034.94 923.887 1035.6 923.887H1037.49C1038.15 923.887 1038.48 924.216 1038.48 924.875V926.765C1038.48 927.424 1038.15 927.754 1037.49 927.754H1035.6ZM1045.62 963.789C1044.96 963.789 1044.63 963.459 1044.63 962.8V932.917C1044.63 932.258 1044.96 931.929 1045.62 931.929H1047.46C1047.99 931.929 1048.28 932.258 1048.32 932.917L1048.45 934.675H1048.5C1049.3 933.708 1050.21 932.947 1051.22 932.39C1052.23 931.833 1053.58 931.555 1055.27 931.555C1058.19 931.555 1060.42 932.756 1061.94 935.159C1063.47 937.546 1064.23 940.315 1064.23 943.464C1064.23 946.614 1063.47 949.39 1061.94 951.792C1060.42 954.18 1058.19 955.374 1055.27 955.374C1053.58 955.374 1052.23 955.095 1051.22 954.539C1050.21 953.982 1049.3 953.22 1048.5 952.253H1048.45C1048.48 952.693 1048.5 953.14 1048.5 953.594V962.8C1048.5 963.459 1048.17 963.789 1047.51 963.789H1045.62ZM1048.5 945.991C1048.5 948.188 1049.02 949.829 1050.06 950.913C1051.11 951.982 1052.43 952.517 1054.01 952.517C1056.24 952.517 1057.81 951.682 1058.74 950.012C1059.67 948.342 1060.14 946.16 1060.14 943.464C1060.14 940.769 1059.67 938.586 1058.74 936.917C1057.81 935.247 1056.24 934.412 1054.01 934.412C1052.43 934.412 1051.11 934.954 1050.06 936.038C1049.02 937.107 1048.5 938.74 1048.5 940.938V945.991ZM1067.99 943.464C1067.99 940.315 1068.75 937.546 1070.27 935.159C1071.8 932.756 1074.02 931.555 1076.95 931.555C1078.64 931.555 1079.98 931.833 1081 932.39C1082.01 932.947 1082.91 933.708 1083.72 934.675H1083.76L1083.9 932.917C1083.94 932.258 1084.23 931.929 1084.75 931.929H1086.6C1087.26 931.929 1087.59 932.258 1087.59 932.917V955.176C1087.59 957.988 1086.94 960.186 1085.63 961.768C1084.34 963.364 1081.79 964.163 1077.96 964.163C1075.4 964.163 1073.48 963.87 1072.21 963.284C1070.93 962.712 1070.02 962.104 1069.48 961.46C1069.09 960.977 1069.06 960.566 1069.42 960.229L1070.62 959.043C1070.96 958.721 1071.43 958.823 1072.03 959.351C1072.81 960.054 1073.55 960.552 1074.27 960.845C1074.99 961.152 1076.23 961.306 1077.98 961.306C1079.98 961.306 1081.43 960.881 1082.34 960.032C1083.26 959.182 1083.72 957.424 1083.72 954.758V953.44C1083.72 952.986 1083.73 952.539 1083.76 952.1H1083.72C1082.96 953.11 1082.06 953.909 1081.02 954.495C1079.99 955.081 1078.64 955.374 1076.95 955.374C1074.02 955.374 1071.8 954.18 1070.27 951.792C1068.75 949.39 1067.99 946.614 1067.99 943.464ZM1072.07 943.464C1072.07 946.16 1072.54 948.342 1073.46 950.012C1074.4 951.682 1075.98 952.517 1078.2 952.517C1079.79 952.517 1081.1 951.982 1082.14 950.913C1083.19 949.829 1083.72 948.188 1083.72 945.991V940.938C1083.72 938.74 1083.19 937.107 1082.14 936.038C1081.1 934.954 1079.79 934.412 1078.2 934.412C1075.98 934.412 1074.4 935.247 1073.46 936.917C1072.54 938.586 1072.07 940.769 1072.07 943.464Z" fill="white"/>
</svg>
