<svg width="1260" height="970" viewBox="0 0 1260 970" fill="none" xmlns="http://www.w3.org/2000/svg">
<line x1="2.18557e-07" y1="885.5" x2="1260" y2="885.5" stroke="white" stroke-width="5"/>
<rect x="921.269" y="65" width="277.78" height="823" fill="#75D573"/>
<rect x="493.608" y="751" width="277.78" height="137" fill="#75D573"/>
<rect x="65.9473" y="871" width="277.78" height="17" fill="#75D573"/>
<path d="M141.221 851C140.415 851 140.012 850.67 140.012 850.011V848.957C140.012 848.385 140.254 847.858 140.737 847.375L149.351 838.695C151.9 836.132 153.57 834.154 154.361 832.763C155.166 831.356 155.569 829.738 155.569 827.907C155.569 826.369 155.115 825.065 154.207 823.996C153.313 822.926 151.951 822.392 150.12 822.392C148.479 822.392 147.117 822.809 146.033 823.644C144.949 824.479 144.165 825.878 143.682 827.841C143.477 828.676 143.045 828.998 142.385 828.808L140.672 828.302C140.217 828.17 140.108 827.548 140.342 826.435C140.767 824.516 141.792 822.816 143.418 821.337C145.059 819.843 147.234 819.096 149.944 819.096C153.386 819.096 155.899 819.96 157.481 821.688C159.077 823.417 159.876 825.534 159.876 828.039C159.876 830.485 159.216 832.594 157.898 834.367C156.594 836.139 154.8 838.131 152.515 840.343L145.286 847.353V847.44C145.681 847.411 146.267 847.396 147.044 847.396H159.019C159.824 847.396 160.227 847.726 160.227 848.385V850.011C160.227 850.67 159.824 851 159.019 851H141.221ZM165.457 847.418C164.9 846.686 164.834 846.129 165.259 845.749L166.621 844.54C167.119 844.101 167.698 844.284 168.357 845.089C168.753 845.573 169.448 846.239 170.445 847.089C171.441 847.938 172.737 848.363 174.334 848.363C176.428 848.363 178.003 847.719 179.058 846.43C180.127 845.141 180.662 843.434 180.662 841.31C180.662 839.303 180.208 837.721 179.299 836.564C178.391 835.407 177.029 834.828 175.213 834.828C174.085 834.828 173.147 834.938 172.4 835.158C171.653 835.377 170.877 835.839 170.071 836.542C169.514 837.025 168.928 837.267 168.313 837.267H167.28C166.621 837.267 166.292 836.938 166.292 836.278V820.744C166.292 820.084 166.621 819.755 167.28 819.755H182.442C183.101 819.755 183.43 820.084 183.43 820.744V822.37C183.43 823.029 183.101 823.358 182.442 823.358H170.159V832.038C170.159 832.477 170.144 832.917 170.115 833.356H170.203C171.023 832.667 171.983 832.191 173.081 831.928C174.18 831.664 175.198 831.532 176.135 831.532C178.86 831.532 181.013 832.44 182.595 834.257C184.177 836.073 184.968 838.454 184.968 841.398C184.968 844.606 184.016 847.118 182.112 848.935C180.222 850.751 177.644 851.659 174.378 851.659C171.99 851.659 170.064 851.168 168.599 850.187C167.149 849.191 166.101 848.268 165.457 847.418ZM188.726 836.256C188.726 829.811 189.846 825.343 192.088 822.853C194.329 820.348 197.053 819.096 200.261 819.096C202.092 819.096 203.557 819.33 204.656 819.799C205.755 820.268 206.699 820.868 207.49 821.601C208.106 822.172 208.245 822.648 207.908 823.029L206.875 824.237C206.465 824.706 205.93 824.662 205.271 824.105C204.729 823.637 204.077 823.234 203.316 822.897C202.554 822.56 201.47 822.392 200.064 822.392C198.086 822.392 196.365 823.38 194.9 825.358C193.435 827.335 192.703 830.441 192.703 834.674H192.747C193.406 833.722 194.351 832.917 195.581 832.257C196.826 831.583 198.394 831.247 200.283 831.247C202.627 831.247 204.685 832.052 206.458 833.664C208.23 835.26 209.116 837.67 209.116 840.893C209.116 844.086 208.267 846.679 206.568 848.671C204.883 850.663 202.385 851.659 199.075 851.659C195.618 851.659 193.025 850.29 191.297 847.55C189.583 844.796 188.726 841.032 188.726 836.256ZM193.45 841.178C193.45 842.995 193.948 844.65 194.944 846.144C195.955 847.624 197.346 848.363 199.119 848.363C200.95 848.363 202.356 847.675 203.338 846.298C204.319 844.921 204.81 843.163 204.81 841.024C204.81 838.9 204.312 837.304 203.316 836.234C202.32 835.15 201.074 834.608 199.58 834.608C197.647 834.608 196.138 835.202 195.054 836.388C193.985 837.575 193.45 839.171 193.45 841.178ZM230.188 851C229.529 851 229.199 850.67 229.199 850.011V819.557C229.199 818.898 229.529 818.568 230.188 818.568H232.078C232.737 818.568 233.067 818.898 233.067 819.557V837.838C233.067 838.278 233.052 838.717 233.023 839.157H233.067L241.966 828.5C242.288 828.119 242.676 827.929 243.13 827.929H245.13C246.243 827.929 246.433 828.361 245.701 829.225L238.801 837.443L246.69 849.704C247.246 850.568 247.056 851 246.118 851H243.965C243.482 851 243.064 850.729 242.713 850.187L236.384 840.321L233.067 844.276V850.011C233.067 850.67 232.737 851 232.078 851H230.188ZM252.249 851C251.59 851 251.26 850.67 251.26 850.011V819.557C251.26 818.898 251.59 818.568 252.249 818.568H254.138C254.798 818.568 255.127 818.898 255.127 819.557V829.335C255.127 829.789 255.112 830.236 255.083 830.675H255.127C255.933 829.708 256.841 828.947 257.852 828.39C258.862 827.833 260.21 827.555 261.895 827.555C264.824 827.555 267.051 828.756 268.574 831.159C270.098 833.546 270.86 836.315 270.86 839.464C270.86 842.614 270.098 845.39 268.574 847.792C267.051 850.18 264.824 851.374 261.895 851.374C260.21 851.374 258.862 851.095 257.852 850.539C256.841 849.982 255.933 849.22 255.127 848.253H255.083L254.951 850.011C254.907 850.67 254.622 851 254.094 851H252.249ZM255.127 841.991C255.127 844.188 255.647 845.829 256.687 846.913C257.742 847.982 259.06 848.517 260.642 848.517C262.869 848.517 264.444 847.682 265.366 846.012C266.304 844.342 266.773 842.16 266.773 839.464C266.773 836.769 266.304 834.586 265.366 832.917C264.444 831.247 262.869 830.412 260.642 830.412C259.06 830.412 257.742 830.954 256.687 832.038C255.647 833.107 255.127 834.74 255.127 836.938V841.991Z" fill="white"/>
<path d="M558.51 705.709C558.32 705.241 558.495 704.904 559.037 704.699C560.165 704.274 561.235 703.593 562.245 702.655C563.256 701.718 564.054 700.883 564.64 700.15C565.065 699.623 565.475 699.359 565.871 699.359H567.739C568.412 699.359 568.749 699.689 568.749 700.348V730.011C568.749 730.67 568.42 731 567.76 731H565.871C565.212 731 564.882 730.67 564.882 730.011V705.929C564.882 705.49 564.897 705.05 564.926 704.611H564.882C564.428 705.182 563.761 705.768 562.883 706.369C562.004 706.969 561.198 707.409 560.466 707.687C559.821 707.936 559.396 707.819 559.191 707.335L558.51 705.709ZM578.241 731C577.582 731 577.253 730.67 577.253 730.011V727.331C577.253 726.671 577.582 726.342 578.241 726.342H580.79C581.449 726.342 581.779 726.671 581.779 727.331V730.011C581.779 731.549 581.611 732.89 581.274 734.032C580.951 735.189 580.307 736.2 579.34 737.064C579.018 737.343 578.747 737.379 578.527 737.174L577.538 736.251C577.319 736.046 577.37 735.797 577.692 735.504C578.19 735.065 578.593 734.428 578.901 733.593C579.223 732.772 579.384 731.908 579.384 731H578.241ZM589.36 731C588.554 731 588.151 730.67 588.151 730.011V728.957C588.151 728.385 588.393 727.858 588.876 727.375L597.49 718.695C600.038 716.132 601.708 714.154 602.499 712.763C603.305 711.356 603.708 709.738 603.708 707.907C603.708 706.369 603.254 705.065 602.345 703.996C601.452 702.926 600.09 702.392 598.259 702.392C596.618 702.392 595.256 702.809 594.172 703.644C593.088 704.479 592.304 705.878 591.821 707.841C591.615 708.676 591.183 708.998 590.524 708.808L588.81 708.302C588.356 708.17 588.246 707.548 588.481 706.435C588.906 704.516 589.931 702.816 591.557 701.337C593.198 699.843 595.373 699.096 598.083 699.096C601.525 699.096 604.037 699.96 605.619 701.688C607.216 703.417 608.014 705.534 608.014 708.039C608.014 710.485 607.355 712.594 606.037 714.367C604.733 716.139 602.939 718.131 600.654 720.343L593.425 727.353V727.44C593.82 727.411 594.406 727.396 595.182 727.396H607.157C607.963 727.396 608.366 727.726 608.366 728.385V730.011C608.366 730.67 607.963 731 607.157 731H589.36ZM612.475 721.991C612.475 719.94 613.112 718.197 614.386 716.762C615.661 715.312 616.921 714.433 618.166 714.125V714.059C616.818 713.634 615.661 712.843 614.694 711.686C613.727 710.529 613.244 708.998 613.244 707.094C613.244 704.677 614.115 702.743 615.859 701.293C617.602 699.828 619.865 699.096 622.648 699.096C625.431 699.096 627.695 699.828 629.438 701.293C631.181 702.743 632.052 704.677 632.052 707.094C632.052 708.998 631.54 710.536 630.514 711.708C629.489 712.865 628.302 713.656 626.955 714.081V714.125C628.2 714.433 629.489 715.312 630.822 716.762C632.155 718.197 632.822 719.94 632.822 721.991C632.822 724.921 632.001 727.265 630.361 729.022C628.735 730.78 626.164 731.659 622.648 731.659C619.133 731.659 616.554 730.78 614.914 729.022C613.288 727.265 612.475 724.921 612.475 721.991ZM616.76 722.079C616.76 724.13 617.265 725.69 618.276 726.759C619.286 727.829 620.744 728.363 622.648 728.363C624.552 728.363 626.003 727.829 626.999 726.759C628.01 725.69 628.515 724.13 628.515 722.079C628.515 720.468 627.995 719.047 626.955 717.816C625.915 716.586 624.479 715.971 622.648 715.971C620.817 715.971 619.374 716.586 618.32 717.816C617.28 719.047 616.76 720.468 616.76 722.079ZM617.375 707.094C617.375 708.559 617.792 709.811 618.627 710.851C619.477 711.891 620.817 712.411 622.648 712.411C624.479 712.411 625.812 711.891 626.647 710.851C627.497 709.811 627.922 708.559 627.922 707.094C627.922 705.922 627.519 704.845 626.713 703.864C625.907 702.882 624.552 702.392 622.648 702.392C620.744 702.392 619.389 702.882 618.583 703.864C617.778 704.845 617.375 705.922 617.375 707.094ZM653.937 731C653.278 731 652.948 730.67 652.948 730.011V708.917C652.948 708.258 653.278 707.929 653.937 707.929H655.783C656.442 707.929 656.772 708.258 656.772 708.917V710.675H656.86C657.812 709.621 658.844 708.837 659.958 708.324C661.071 707.812 662.14 707.555 663.166 707.555C665.055 707.555 666.506 708.031 667.516 708.983C668.542 709.921 669.201 710.866 669.494 711.818H669.582C670.387 710.617 671.406 709.606 672.636 708.786C673.866 707.965 675.177 707.555 676.569 707.555C678.898 707.555 680.656 708.31 681.843 709.818C683.029 711.312 683.622 713.363 683.622 715.971V730.011C683.622 730.67 683.293 731 682.634 731H680.744C680.085 731 679.755 730.67 679.755 730.011V717.245C679.755 714.374 679.396 712.521 678.678 711.686C677.961 710.836 676.855 710.412 675.361 710.412C673.896 710.412 672.673 711.042 671.691 712.301C670.71 713.546 670.219 715.429 670.219 717.948V730.011C670.219 730.67 669.889 731 669.23 731H667.341C666.681 731 666.352 730.67 666.352 730.011V717.245C666.352 714.374 665.993 712.521 665.275 711.686C664.557 710.836 663.451 710.412 661.957 710.412C660.492 710.412 659.269 710.983 658.288 712.125C657.306 713.253 656.816 715.194 656.816 717.948V730.011C656.816 730.67 656.486 731 655.827 731H653.937ZM690.807 731C690.148 731 689.819 730.67 689.819 730.011V699.557C689.819 698.898 690.148 698.568 690.807 698.568H692.697C693.356 698.568 693.686 698.898 693.686 699.557V709.335C693.686 709.789 693.671 710.236 693.642 710.675H693.686C694.491 709.708 695.4 708.947 696.41 708.39C697.421 707.833 698.769 707.555 700.453 707.555C703.383 707.555 705.61 708.756 707.133 711.159C708.656 713.546 709.418 716.315 709.418 719.464C709.418 722.614 708.656 725.39 707.133 727.792C705.61 730.18 703.383 731.374 700.453 731.374C698.769 731.374 697.421 731.095 696.41 730.539C695.4 729.982 694.491 729.22 693.686 728.253H693.642L693.51 730.011C693.466 730.67 693.18 731 692.653 731H690.807ZM693.686 721.991C693.686 724.188 694.206 725.829 695.246 726.913C696.301 727.982 697.619 728.517 699.201 728.517C701.427 728.517 703.002 727.682 703.925 726.012C704.863 724.342 705.331 722.16 705.331 719.464C705.331 716.769 704.863 714.586 703.925 712.917C703.002 711.247 701.427 710.412 699.201 710.412C697.619 710.412 696.301 710.954 695.246 712.038C694.206 713.107 693.686 714.74 693.686 716.938V721.991Z" fill="white"/>
<path d="M1003.46 19.7095C1003.27 19.2407 1003.44 18.9038 1003.99 18.6987C1005.11 18.2739 1006.18 17.5928 1007.19 16.6553C1008.2 15.7178 1009 14.8828 1009.59 14.1504C1010.01 13.623 1010.42 13.3594 1010.82 13.3594H1012.69C1013.36 13.3594 1013.7 13.689 1013.7 14.3481V44.0112C1013.7 44.6704 1013.37 45 1012.71 45H1010.82C1010.16 45 1009.83 44.6704 1009.83 44.0112V19.9292C1009.83 19.4897 1009.85 19.0503 1009.87 18.6108H1009.83C1009.38 19.1821 1008.71 19.7681 1007.83 20.3687C1006.95 20.9692 1006.15 21.4087 1005.41 21.687C1004.77 21.936 1004.34 21.8188 1004.14 21.3354L1003.46 19.7095ZM1021.12 45C1020.32 45 1019.92 44.6704 1019.92 44.0112V42.9565C1019.92 42.3853 1020.16 41.8579 1020.64 41.3745L1029.25 32.6953C1031.8 30.1318 1033.47 28.1543 1034.26 26.7627C1035.07 25.3564 1035.47 23.7378 1035.47 21.9067C1035.47 20.3687 1035.02 19.0649 1034.11 17.9956C1033.22 16.9263 1031.85 16.3916 1030.02 16.3916C1028.38 16.3916 1027.02 16.8091 1025.94 17.644C1024.85 18.479 1024.07 19.8779 1023.59 21.8408C1023.38 22.6758 1022.95 22.998 1022.29 22.8076L1020.58 22.3022C1020.12 22.1704 1020.01 21.5479 1020.25 20.4346C1020.67 18.5156 1021.7 16.8164 1023.32 15.3369C1024.96 13.8428 1027.14 13.0957 1029.85 13.0957C1033.29 13.0957 1035.8 13.96 1037.38 15.6885C1038.98 17.417 1039.78 19.5337 1039.78 22.0386C1039.78 24.4849 1039.12 26.5942 1037.8 28.3667C1036.5 30.1392 1034.7 32.1313 1032.42 34.3433L1025.19 41.3525V41.4404C1025.59 41.4111 1026.17 41.3965 1026.95 41.3965H1038.92C1039.73 41.3965 1040.13 41.7261 1040.13 42.3853V44.0112C1040.13 44.6704 1039.73 45 1038.92 45H1021.12ZM1061.31 45C1060.65 45 1060.32 44.6704 1060.32 44.0112V22.9175C1060.32 22.2583 1060.65 21.9287 1061.31 21.9287H1063.16C1063.82 21.9287 1064.15 22.2583 1064.15 22.9175V24.6753H1064.24C1065.19 23.6206 1066.22 22.8369 1067.33 22.3242C1068.45 21.8115 1069.52 21.5552 1070.54 21.5552C1072.43 21.5552 1073.88 22.0312 1074.89 22.9834C1075.92 23.9209 1076.58 24.8657 1076.87 25.8179H1076.96C1077.76 24.6167 1078.78 23.606 1080.01 22.7856C1081.24 21.9653 1082.55 21.5552 1083.94 21.5552C1086.27 21.5552 1088.03 22.3096 1089.22 23.8184C1090.4 25.3125 1091 27.3633 1091 29.9707V44.0112C1091 44.6704 1090.67 45 1090.01 45H1088.12C1087.46 45 1087.13 44.6704 1087.13 44.0112V31.2451C1087.13 28.374 1086.77 26.521 1086.05 25.686C1085.34 24.8364 1084.23 24.4116 1082.74 24.4116C1081.27 24.4116 1080.05 25.0415 1079.07 26.3013C1078.09 27.5464 1077.59 29.4287 1077.59 31.9482V44.0112C1077.59 44.6704 1077.26 45 1076.61 45H1074.72C1074.06 45 1073.73 44.6704 1073.73 44.0112V31.2451C1073.73 28.374 1073.37 26.521 1072.65 25.686C1071.93 24.8364 1070.83 24.4116 1069.33 24.4116C1067.87 24.4116 1066.64 24.9829 1065.66 26.1255C1064.68 27.2534 1064.19 29.1943 1064.19 31.9482V44.0112C1064.19 44.6704 1063.86 45 1063.2 45H1061.31ZM1098.18 45C1097.52 45 1097.19 44.6704 1097.19 44.0112V13.5571C1097.19 12.8979 1097.52 12.5684 1098.18 12.5684H1100.07C1100.73 12.5684 1101.06 12.8979 1101.06 13.5571V23.335C1101.06 23.7891 1101.05 24.2358 1101.02 24.6753H1101.06C1101.87 23.7085 1102.78 22.9468 1103.79 22.3901C1104.8 21.8335 1106.14 21.5552 1107.83 21.5552C1110.76 21.5552 1112.99 22.7563 1114.51 25.1587C1116.03 27.5464 1116.79 30.3149 1116.79 33.4644C1116.79 36.6138 1116.03 39.3896 1114.51 41.792C1112.99 44.1797 1110.76 45.3735 1107.83 45.3735C1106.14 45.3735 1104.8 45.0952 1103.79 44.5386C1102.78 43.9819 1101.87 43.2202 1101.06 42.2534H1101.02L1100.89 44.0112C1100.84 44.6704 1100.56 45 1100.03 45H1098.18ZM1101.06 35.9912C1101.06 38.1885 1101.58 39.8291 1102.62 40.9131C1103.68 41.9824 1104.99 42.5171 1106.58 42.5171C1108.8 42.5171 1110.38 41.6821 1111.3 40.0122C1112.24 38.3423 1112.71 36.1597 1112.71 33.4644C1112.71 30.769 1112.24 28.5864 1111.3 26.9165C1110.38 25.2466 1108.8 24.4116 1106.58 24.4116C1104.99 24.4116 1103.68 24.9536 1102.62 26.0376C1101.58 27.1069 1101.06 28.7402 1101.06 30.9375V35.9912Z" fill="white"/>
<path d="M173.351 958.723C173.028 958.577 172.897 958.342 172.955 958.02L173.329 956.24C173.402 955.889 173.585 955.779 173.878 955.911C174.449 956.174 175.152 956.306 175.987 956.306C176.852 956.306 177.474 955.881 177.855 955.032C178.251 954.182 178.448 952.461 178.448 949.868V927.917C178.448 927.258 178.778 926.929 179.437 926.929H181.327C181.986 926.929 182.316 927.258 182.316 927.917V952.043C182.316 954.885 181.774 956.782 180.69 957.734C179.62 958.687 178.287 959.163 176.691 959.163C175.138 959.163 174.025 959.016 173.351 958.723ZM179.437 922.754C178.778 922.754 178.448 922.424 178.448 921.765V919.875C178.448 919.216 178.778 918.887 179.437 918.887H181.327C181.986 918.887 182.316 919.216 182.316 919.875V921.765C182.316 922.424 181.986 922.754 181.327 922.754H179.437ZM189.457 958.789C188.797 958.789 188.468 958.459 188.468 957.8V927.917C188.468 927.258 188.797 926.929 189.457 926.929H191.302C191.83 926.929 192.115 927.258 192.159 927.917L192.291 929.675H192.335C193.141 928.708 194.049 927.947 195.06 927.39C196.07 926.833 197.418 926.555 199.103 926.555C202.032 926.555 204.259 927.756 205.782 930.159C207.306 932.546 208.068 935.315 208.068 938.464C208.068 941.614 207.306 944.39 205.782 946.792C204.259 949.18 202.032 950.374 199.103 950.374C197.418 950.374 196.07 950.095 195.06 949.539C194.049 948.982 193.141 948.22 192.335 947.253H192.291C192.32 947.693 192.335 948.14 192.335 948.594V957.8C192.335 958.459 192.006 958.789 191.346 958.789H189.457ZM192.335 940.991C192.335 943.188 192.855 944.829 193.895 945.913C194.95 946.982 196.268 947.517 197.85 947.517C200.077 947.517 201.652 946.682 202.574 945.012C203.512 943.342 203.981 941.16 203.981 938.464C203.981 935.769 203.512 933.586 202.574 931.917C201.652 930.247 200.077 929.412 197.85 929.412C196.268 929.412 194.95 929.954 193.895 931.038C192.855 932.107 192.335 933.74 192.335 935.938V940.991ZM211.825 938.464C211.825 935.315 212.587 932.546 214.11 930.159C215.633 927.756 217.86 926.555 220.79 926.555C222.474 926.555 223.822 926.833 224.833 927.39C225.843 927.947 226.752 928.708 227.557 929.675H227.601L227.733 927.917C227.777 927.258 228.063 926.929 228.59 926.929H230.436C231.095 926.929 231.424 927.258 231.424 927.917V950.176C231.424 952.988 230.773 955.186 229.469 956.768C228.18 958.364 225.624 959.163 221.8 959.163C219.237 959.163 217.318 958.87 216.044 958.284C214.769 957.712 213.861 957.104 213.319 956.46C212.923 955.977 212.902 955.566 213.253 955.229L214.462 954.043C214.798 953.721 215.267 953.823 215.868 954.351C216.644 955.054 217.391 955.552 218.109 955.845C218.827 956.152 220.065 956.306 221.822 956.306C223.815 956.306 225.265 955.881 226.173 955.032C227.096 954.182 227.557 952.424 227.557 949.758V948.44C227.557 947.986 227.572 947.539 227.601 947.1H227.557C226.796 948.11 225.895 948.909 224.855 949.495C223.829 950.081 222.474 950.374 220.79 950.374C217.86 950.374 215.633 949.18 214.11 946.792C212.587 944.39 211.825 941.614 211.825 938.464ZM215.912 938.464C215.912 941.16 216.373 943.342 217.296 945.012C218.234 946.682 219.816 947.517 222.042 947.517C223.624 947.517 224.935 946.982 225.975 945.913C227.03 944.829 227.557 943.188 227.557 940.991V935.938C227.557 933.74 227.03 932.107 225.975 931.038C224.935 929.954 223.624 929.412 222.042 929.412C219.816 929.412 218.234 930.247 217.296 931.917C216.373 933.586 215.912 935.769 215.912 938.464Z" fill="white"/>
<path d="M598.106 958.789C597.447 958.789 597.118 958.459 597.118 957.8V927.917C597.118 927.258 597.447 926.929 598.106 926.929H599.952C600.48 926.929 600.765 927.258 600.809 927.917L600.941 929.675H600.985C601.791 928.708 602.699 927.947 603.71 927.39C604.72 926.833 606.068 926.555 607.752 926.555C610.682 926.555 612.909 927.756 614.432 930.159C615.956 932.546 616.717 935.315 616.717 938.464C616.717 941.614 615.956 944.39 614.432 946.792C612.909 949.18 610.682 950.374 607.752 950.374C606.068 950.374 604.72 950.095 603.71 949.539C602.699 948.982 601.791 948.22 600.985 947.253H600.941C600.97 947.693 600.985 948.14 600.985 948.594V957.8C600.985 958.459 600.655 958.789 599.996 958.789H598.106ZM600.985 940.991C600.985 943.188 601.505 944.829 602.545 945.913C603.6 946.982 604.918 947.517 606.5 947.517C608.727 947.517 610.301 946.682 611.224 945.012C612.162 943.342 612.63 941.16 612.63 938.464C612.63 935.769 612.162 933.586 611.224 931.917C610.301 930.247 608.727 929.412 606.5 929.412C604.918 929.412 603.6 929.954 602.545 931.038C601.505 932.107 600.985 933.74 600.985 935.938V940.991ZM622.716 950C622.057 950 621.727 949.67 621.727 949.011V927.917C621.727 927.258 622.057 926.929 622.716 926.929H624.562C625.221 926.929 625.55 927.258 625.55 927.917V929.675H625.638C626.59 928.621 627.616 927.837 628.714 927.324C629.813 926.812 631.183 926.555 632.823 926.555C635.489 926.555 637.401 927.31 638.558 928.818C639.73 930.312 640.316 932.363 640.316 934.971V949.011C640.316 949.67 639.986 950 639.327 950H637.438C636.778 950 636.449 949.67 636.449 949.011V936.025C636.449 933.154 635.973 931.338 635.021 930.576C634.068 929.8 632.86 929.412 631.395 929.412C629.491 929.412 628.048 929.983 627.066 931.125C626.085 932.253 625.594 934.194 625.594 936.948V949.011C625.594 949.67 625.265 950 624.606 950H622.716ZM645.26 938.464C645.26 935.315 646.022 932.546 647.545 930.159C649.068 927.756 651.295 926.555 654.225 926.555C655.909 926.555 657.257 926.833 658.268 927.39C659.278 927.947 660.187 928.708 660.992 929.675H661.036L661.168 927.917C661.212 927.258 661.498 926.929 662.025 926.929H663.871C664.53 926.929 664.859 927.258 664.859 927.917V950.176C664.859 952.988 664.208 955.186 662.904 956.768C661.615 958.364 659.059 959.163 655.235 959.163C652.672 959.163 650.753 958.87 649.479 958.284C648.204 957.712 647.296 957.104 646.754 956.46C646.358 955.977 646.336 955.566 646.688 955.229L647.897 954.043C648.233 953.721 648.702 953.823 649.303 954.351C650.079 955.054 650.826 955.552 651.544 955.845C652.262 956.152 653.5 956.306 655.257 956.306C657.25 956.306 658.7 955.881 659.608 955.032C660.531 954.182 660.992 952.424 660.992 949.758V948.44C660.992 947.986 661.007 947.539 661.036 947.1H660.992C660.231 948.11 659.33 948.909 658.29 949.495C657.264 950.081 655.909 950.374 654.225 950.374C651.295 950.374 649.068 949.18 647.545 946.792C646.022 944.39 645.26 941.614 645.26 938.464ZM649.347 938.464C649.347 941.16 649.808 943.342 650.731 945.012C651.669 946.682 653.251 947.517 655.477 947.517C657.059 947.517 658.37 946.982 659.41 945.913C660.465 944.829 660.992 943.188 660.992 940.991V935.938C660.992 933.74 660.465 932.107 659.41 931.038C658.37 929.954 657.059 929.412 655.477 929.412C653.251 929.412 651.669 930.247 650.731 931.917C649.808 933.586 649.347 935.769 649.347 938.464Z" fill="white"/>
<path d="M1021.72 950C1021.06 950 1020.73 949.67 1020.73 949.011V918.557C1020.73 917.898 1021.06 917.568 1021.72 917.568H1023.61C1024.27 917.568 1024.6 917.898 1024.6 918.557V928.335C1024.6 928.789 1024.59 929.236 1024.56 929.675H1024.6C1025.41 928.708 1026.31 927.947 1027.33 927.39C1028.34 926.833 1029.68 926.555 1031.37 926.555C1034.3 926.555 1036.52 927.756 1038.05 930.159C1039.57 932.546 1040.33 935.315 1040.33 938.464C1040.33 941.614 1039.57 944.39 1038.05 946.792C1036.52 949.18 1034.3 950.374 1031.37 950.374C1029.68 950.374 1028.34 950.095 1027.33 949.539C1026.31 948.982 1025.41 948.22 1024.6 947.253H1024.56L1024.42 949.011C1024.38 949.67 1024.1 950 1023.57 950H1021.72ZM1024.6 940.991C1024.6 943.188 1025.12 944.829 1026.16 945.913C1027.22 946.982 1028.53 947.517 1030.12 947.517C1032.34 947.517 1033.92 946.682 1034.84 945.012C1035.78 943.342 1036.25 941.16 1036.25 938.464C1036.25 935.769 1035.78 933.586 1034.84 931.917C1033.92 930.247 1032.34 929.412 1030.12 929.412C1028.53 929.412 1027.22 929.954 1026.16 931.038C1025.12 932.107 1024.6 933.74 1024.6 935.938V940.991ZM1046.33 950C1045.67 950 1045.34 949.67 1045.34 949.011V927.917C1045.34 927.258 1045.67 926.929 1046.33 926.929H1048.18C1048.84 926.929 1049.17 927.258 1049.17 927.917V929.675H1049.25C1050.21 928.621 1051.24 927.837 1052.35 927.324C1053.47 926.812 1054.53 926.555 1055.56 926.555C1057.45 926.555 1058.9 927.031 1059.91 927.983C1060.94 928.921 1061.6 929.866 1061.89 930.818H1061.98C1062.78 929.617 1063.8 928.606 1065.03 927.786C1066.26 926.965 1067.57 926.555 1068.96 926.555C1071.29 926.555 1073.05 927.31 1074.24 928.818C1075.42 930.312 1076.02 932.363 1076.02 934.971V949.011C1076.02 949.67 1075.69 950 1075.03 950H1073.14C1072.48 950 1072.15 949.67 1072.15 949.011V936.245C1072.15 933.374 1071.79 931.521 1071.07 930.686C1070.36 929.836 1069.25 929.412 1067.76 929.412C1066.29 929.412 1065.07 930.042 1064.09 931.301C1063.1 932.546 1062.61 934.429 1062.61 936.948V949.011C1062.61 949.67 1062.28 950 1061.62 950H1059.74C1059.08 950 1058.75 949.67 1058.75 949.011V936.245C1058.75 933.374 1058.39 931.521 1057.67 930.686C1056.95 929.836 1055.85 929.412 1054.35 929.412C1052.89 929.412 1051.66 929.983 1050.68 931.125C1049.7 932.253 1049.21 934.194 1049.21 936.948V949.011C1049.21 949.67 1048.88 950 1048.22 950H1046.33ZM1083.2 958.789C1082.54 958.789 1082.21 958.459 1082.21 957.8V927.917C1082.21 927.258 1082.54 926.929 1083.2 926.929H1085.05C1085.57 926.929 1085.86 927.258 1085.9 927.917L1086.04 929.675H1086.08C1086.89 928.708 1087.79 927.947 1088.8 927.39C1089.82 926.833 1091.16 926.555 1092.85 926.555C1095.78 926.555 1098 927.756 1099.53 930.159C1101.05 932.546 1101.81 935.315 1101.81 938.464C1101.81 941.614 1101.05 944.39 1099.53 946.792C1098 949.18 1095.78 950.374 1092.85 950.374C1091.16 950.374 1089.82 950.095 1088.8 949.539C1087.79 948.982 1086.89 948.22 1086.08 947.253H1086.04C1086.07 947.693 1086.08 948.14 1086.08 948.594V957.8C1086.08 958.459 1085.75 958.789 1085.09 958.789H1083.2ZM1086.08 940.991C1086.08 943.188 1086.6 944.829 1087.64 945.913C1088.69 946.982 1090.01 947.517 1091.6 947.517C1093.82 947.517 1095.4 946.682 1096.32 945.012C1097.26 943.342 1097.73 941.16 1097.73 938.464C1097.73 935.769 1097.26 933.586 1096.32 931.917C1095.4 930.247 1093.82 929.412 1091.6 929.412C1090.01 929.412 1088.69 929.954 1087.64 931.038C1086.6 932.107 1086.08 933.74 1086.08 935.938V940.991Z" fill="white"/>
</svg>
