<svg width="1278" height="1278" viewBox="0 0 1278 1278" fill="none" xmlns="http://www.w3.org/2000/svg">
<path d="M456.021 659.205C498.982 659.205 540.244 659.948 581.457 658.854C598.937 658.391 609.39 664.761 617.844 679.677C648.31 733.431 679.958 786.516 710.319 840.329C713.576 846.102 714.316 856.679 711.189 862.151C678.317 919.672 644.67 976.758 610.4 1033.46C607.149 1038.84 598.258 1043.79 591.925 1043.86C527.779 1044.62 463.613 1044.82 399.478 1043.72C391.307 1043.58 379.888 1037.15 375.724 1030.19C343.994 977.185 314.619 922.759 282.471 870.019C270.428 850.262 280.874 836.312 288.901 821.977C316.907 771.961 345.832 722.441 375.54 673.418C379.614 666.694 389.75 660.677 397.661 659.84C416.355 657.863 435.4 659.205 456.021 659.205ZM541.763 954.915C548.512 949.811 557.353 946.048 561.636 939.365C577.552 914.526 592.632 889.077 606.458 863.026C609.691 856.936 609.483 846.133 606.203 839.978C592.6 814.445 577.107 789.924 562.529 764.903C555.772 753.305 547.065 747.605 532.649 748.266C506.358 749.472 479.957 749.141 453.634 748.376C441.186 748.014 434.026 752.791 428.126 763.476C413.862 789.309 397.776 814.16 384.155 840.308C380.697 846.947 380.777 858.512 384.281 865.146C397.52 890.207 414.094 913.535 426.874 938.799C433.803 952.499 443.408 954.97 456.19 954.943C483.681 954.886 511.172 954.924 541.763 954.915Z" fill="#FFC43C"/>
<path d="M776.319 831.155C753.135 835.204 743.19 823.62 733.581 805.679C710.724 763.005 685.195 721.762 660.821 679.897C658.303 675.574 656.005 671.073 654.105 666.448C649.216 654.554 654.179 645.907 666.998 645.602C689.905 645.058 712.876 644.691 735.723 645.979C741.385 646.298 748.478 652.093 751.823 657.341C767.114 681.326 781.035 706.182 796.169 730.272C798.606 734.151 804.658 737.954 809.103 738.029C845.737 738.648 882.387 738.379 918.181 738.379C935.34 708.916 951.634 680.305 968.803 652.228C971.046 648.559 977.724 645.896 982.445 645.743C1003.62 645.055 1024.84 645.413 1046.04 645.45C1065.35 645.484 1071.12 654.902 1061.29 672.304C1038.82 712.1 1012.94 750.243 993.713 791.51C977.537 826.221 954.249 834.176 918.869 831.897C872.078 828.883 824.946 831.155 776.319 831.155Z" fill="#FFC43C"/>
<path d="M944.935 447.105C968.119 443.056 978.064 454.64 987.673 472.581C1010.53 515.256 1036.06 556.498 1060.43 598.363C1062.95 602.687 1065.25 607.188 1067.15 611.812C1072.04 623.706 1067.07 632.353 1054.26 632.658C1031.35 633.203 1008.38 633.569 985.531 632.281C979.869 631.962 972.776 626.167 969.431 620.919C954.14 596.934 940.219 572.078 925.085 547.988C922.648 544.109 916.596 540.306 912.151 540.231C875.517 539.612 838.867 539.881 803.073 539.881C785.914 569.344 769.619 597.956 752.451 626.032C750.208 629.701 743.529 632.364 738.809 632.517C717.63 633.206 696.417 632.847 675.216 632.81C655.901 632.776 650.138 623.359 659.962 605.957C682.43 566.16 708.309 528.017 727.54 486.75C743.716 452.039 767.005 444.084 802.385 446.363C849.176 449.377 896.308 447.105 944.935 447.105Z" fill="#FF9A1E"/>
<path d="M604.176 251.353C624.089 283.926 643.06 315.425 661.883 347.012C673.289 366.15 685.152 385.069 695.369 404.832C698.858 411.579 700.506 421.504 698.112 428.242C696.65 432.358 685.973 434.799 679.286 435.15C661.569 436.08 643.697 434.466 626.03 435.78C611.88 436.832 604.048 429.959 597.84 419.184C584.21 395.528 571.049 371.591 556.87 348.271C554.286 344.022 547.835 339.704 543.07 339.59C510.995 338.828 478.882 338.765 446.813 339.623C441.62 339.762 434.69 344.42 431.791 349.023C417.858 371.148 404.288 393.577 392.098 416.694C384.988 430.176 376.417 436.837 360.594 435.754C342.341 434.506 323.933 435.713 305.6 435.389C289.208 435.098 282.763 424.698 290.703 410.471C318.386 360.863 346.153 311.291 374.923 262.315C378.48 256.259 388.241 250.39 395.187 250.319C464.508 249.611 533.841 250.138 604.176 251.353Z" fill="#FFC43C"/>
<path d="M321.234 538.698C340.058 570.284 378.942 634.356 378.942 634.356C378.942 634.356 454.953 635.161 483.32 635.391L426.248 537.438C412.069 514.118 398.908 490.181 385.278 466.525C379.069 455.75 371.238 448.878 357.088 449.929C339.42 451.243 321.548 449.63 303.832 450.56C297.144 450.911 286.468 453.351 285.006 457.467C282.612 464.205 284.26 474.13 287.749 480.878C297.965 500.64 309.829 519.559 321.234 538.698Z" fill="#FF9A1E"/>
<path fill-rule="evenodd" clip-rule="evenodd" d="M507.39 635.123L454.091 545.878C483.782 546.486 513.501 546.481 543.182 545.687L594.808 634.991C559.783 635.349 538.489 635.34 507.39 635.123ZM615.072 622.996C643.843 574.019 671.609 524.447 699.292 474.84C707.232 460.612 700.788 450.212 684.395 449.922C677.352 449.797 670.297 449.898 663.244 450C651.94 450.162 640.641 450.325 629.401 449.556C613.578 448.474 605.007 455.134 597.897 468.616C585.707 491.733 576.342 513.267 562.409 535.391L615.072 622.996Z" fill="#FF9A1E"/>
</svg>
