<svg width="1278" height="1278" viewBox="0 0 1278 1278" fill="none" xmlns="http://www.w3.org/2000/svg">
<path d="M332 439.116V525.069L638.425 435.51V289L332 439.116Z" fill="#194787"/>
<path d="M638.425 289V435.51L945 526.872V439.116L638.425 289Z" fill="#4280C5"/>
<path d="M638.425 435.51L332 525.069L566.925 558.363L638.425 546.407L711.557 558.566L945 526.872L638.425 435.51Z" fill="#13385C"/>
<path d="M506.327 568.496V745.059L563.599 754.636L638.425 767.148V546.407L566.925 558.363L506.327 568.496Z" fill="#194787"/>
<path d="M771.274 745.059V568.496L711.557 558.566L638.425 546.407V767.148L713.507 754.664L771.274 745.059Z" fill="#4280C5"/>
<path d="M332 784.278L638.425 877.143L945 784.278L713.507 754.664L638.425 767.148L563.599 754.636L332 784.278Z" fill="#88ADDC"/>
<path d="M638.425 1022V877.143L332 784.278V877.143L638.425 1022Z" fill="#194787"/>
<path d="M638.425 877.143V1022L945 877.143V784.278L638.425 877.143Z" fill="#4280C5"/>
</svg>
