<svg width="1278" height="1278" viewBox="0 0 1278 1278" fill="none" xmlns="http://www.w3.org/2000/svg">
<path d="M810.604 457.167H467.133C445.041 457.167 427.133 475.076 427.133 497.167V842.606C427.133 864.697 445.041 882.606 467.133 882.606H810.604C832.695 882.606 850.604 864.697 850.604 842.606V497.167C850.604 475.076 832.695 457.167 810.604 457.167Z" stroke="#75D573" stroke-width="70"/>
<path d="M568.422 741.318V599.242H710.104V741.318H568.422Z" stroke="#75D573" stroke-width="70"/>
<rect x="462.557" y="986.112" width="69.6602" height="69.6602" fill="#75D573"/>
<rect x="603.846" y="986.112" width="69.6602" height="69.6602" fill="#75D573"/>
<rect x="745.133" y="986.112" width="69.6602" height="69.6602" fill="#75D573"/>
<rect x="462.557" y="284" width="69.6602" height="69.6602" fill="#75D573"/>
<rect x="603.846" y="284" width="69.6602" height="69.6602" fill="#75D573"/>
<rect x="745.133" y="284" width="69.6602" height="69.6602" fill="#75D573"/>
<rect x="252" y="846.004" width="69.6602" height="69.6602" transform="rotate(-90 252 846.004)" fill="#75D573"/>
<rect x="252" y="704.716" width="69.6602" height="69.6602" transform="rotate(-90 252 704.716)" fill="#75D573"/>
<rect x="252" y="563.428" width="69.6602" height="69.6602" transform="rotate(-90 252 563.428)" fill="#75D573"/>
<rect x="955.688" y="846.398" width="69.6602" height="69.6602" transform="rotate(-90 955.688 846.398)" fill="#75D573"/>
<rect x="955.688" y="705.11" width="69.6602" height="69.6602" transform="rotate(-90 955.688 705.11)" fill="#75D573"/>
<rect x="955.688" y="563.822" width="69.6602" height="69.6602" transform="rotate(-90 955.688 563.822)" fill="#75D573"/>
</svg>
