<svg width="1234" height="1234" viewBox="0 0 1234 1234" fill="none" xmlns="http://www.w3.org/2000/svg">
<rect width="1234" height="1234" fill="#1D473B"/>
<rect width="1234" height="1234" fill="url(#paint0_linear_144_101)"/>
<path d="M597.854 301.219C644.417 298.606 688.271 306.486 728.425 326.945C797.247 362.009 842.626 417.581 859.983 493.423C869.771 536.196 868.744 579.573 858.687 622.718C846.485 675.072 821.381 719.574 781.152 755.267C773.945 761.661 771.144 768.479 771.308 778.174C771.869 811.134 771.545 844.11 771.424 877.079C771.372 891.128 764.719 897.808 750.665 897.807C660.21 897.798 569.754 897.754 479.299 897.584C462.156 897.552 454.949 890.091 454.861 872.76C454.696 840.636 454.396 808.507 454.856 776.39C455.002 766.21 451.625 760.027 443.616 753.22C416.945 730.549 398.77 701.322 384.316 669.669C367.114 632 359.162 592.209 360.246 551.124C362.347 471.476 393.751 405.99 456.121 355.058C497.394 321.354 545.023 306.689 597.854 301.219ZM468.324 390.819C465.519 392.594 462.259 393.916 459.975 396.21C419.878 436.504 396.831 485.15 394.682 541.823C391.712 620.172 415.444 688.25 478.878 738.721C486.085 744.455 488.864 751.293 488.703 760.629C488.194 790.215 488.933 819.823 488.29 849.404C488.049 860.475 491.528 864.047 502.718 863.981C576.701 863.546 650.688 863.544 724.671 863.886C735.586 863.937 739.656 860.695 739.421 849.433C738.804 819.852 739.545 790.243 739.013 760.659C738.835 750.778 742.438 744.112 749.609 737.721C761.229 727.366 773.207 717.007 782.838 704.903C812.28 667.896 827.673 625.45 831.65 578.076C835.281 534.825 830.039 493.265 810.051 455.07C777.244 392.38 725.629 352.624 655.524 339.567C592.314 327.795 533.809 340.079 481.739 378.858C477.326 382.144 474.071 386.983 470.316 391.304C470.316 391.304 470.117 391.246 468.324 390.819Z" fill="white"/>
<path d="M480.224 981.092C477.73 977.618 475.779 974.866 474.017 971.998C465.533 958.194 472.561 943.333 488.585 941.226C490.667 940.953 492.807 941.093 494.92 941.09C574.401 940.997 653.883 940.739 733.361 941.141C739.753 941.173 747.171 944.44 752.261 948.516C760.255 954.919 760.115 963.71 754.105 972.145C737.607 995.298 721.158 1018.49 704.634 1041.62C697.108 1052.16 687.891 1057.88 673.819 1057.56C633.252 1056.65 592.652 1056.91 552.069 1057.19C539.1 1057.28 530.014 1052.87 522.726 1041.64C509.48 1021.22 494.886 1001.67 480.224 981.092ZM593.631 1020.34C617.271 1020.31 640.912 1020.36 664.55 1020.15C668.165 1020.11 673.394 1020.08 675.108 1017.89C684.462 1005.92 692.951 993.272 702.831 979.311C642.218 979.311 584.684 979.311 524.68 979.311C528.064 984.315 530.836 987.352 532.415 990.917C543.936 1016.92 564.051 1025.47 593.631 1020.34Z" fill="white"/>
<path d="M634.744 206.62C634.701 228.127 634.95 248.417 634.33 268.681C634.225 272.123 630.69 278.086 628.222 278.369C618.247 279.512 608.032 279.337 597.999 278.51C596.172 278.359 593.444 272.901 593.402 269.862C593.03 242.489 593.198 215.109 593.129 187.732C593.109 179.795 597.091 176.822 604.796 176.435C634.051 174.966 634.758 175.506 634.744 206.62Z" fill="white"/>
<path d="M908.512 545.129C910.119 537.835 912.433 534.053 920.391 534.235C945.304 534.803 970.241 534.582 995.166 534.326C1004.72 534.228 1008.16 537.935 1007.98 547.761C1007.45 577.273 1010.74 576.234 980.123 575.953C958.897 575.758 937.662 576.063 916.449 575.476C914.286 575.416 910.978 571.013 910.403 568.179C908.933 560.93 908.707 553.428 908.512 545.129Z" fill="white"/>
<path d="M227 544.539C228.607 537.246 230.921 533.464 238.879 533.645C263.793 534.213 288.73 533.993 313.654 533.736C323.208 533.638 326.651 537.345 326.473 547.171C325.94 576.683 329.228 575.644 298.611 575.363C277.385 575.168 256.15 575.474 234.938 574.886C232.774 574.826 229.466 570.424 228.891 567.59C227.422 560.34 227.195 552.838 227 544.539Z" fill="white"/>
<path d="M897.035 305.374C882.681 319.68 868.598 332.994 855.434 347.163C847.927 355.243 840.745 354.281 833.641 348.369C828.62 344.191 824.006 338.904 821.008 333.172C819.478 330.247 820.433 323.803 822.777 321.426C839.585 304.378 857.512 288.421 874.058 271.135C880.83 264.06 885.127 264.166 890.86 271.074C893 273.653 895.62 275.829 897.968 278.24C909.268 289.843 909.227 293.098 897.035 305.374Z" fill="white"/>
<path d="M322.547 306.747C336.901 321.053 350.984 334.367 364.148 348.536C371.655 356.616 378.837 355.654 385.941 349.742C390.962 345.564 395.576 340.277 398.574 334.546C400.104 331.62 399.149 325.176 396.805 322.799C379.997 305.751 362.07 289.794 345.525 272.508C338.752 265.433 334.455 265.539 328.722 272.447C326.582 275.026 323.962 277.202 321.614 279.613C310.314 291.217 310.355 294.472 322.547 306.747Z" fill="white"/>
<path d="M593.667 559.765C596.976 538.102 600.335 517.602 603.3 497.047C606.915 471.988 610.39 446.904 613.496 421.779C614.28 415.442 616.492 412.947 622.881 414.38C628.116 415.554 633.54 417.442 638.718 417.021C654.705 415.723 653.305 426.424 651.923 436.015C644.64 486.558 636.82 537.024 629.378 587.545C624.158 622.974 619.003 658.417 614.353 693.924C613.1 703.496 608.357 706.141 599.839 704.615C598.249 704.33 596.835 703.065 595.244 702.771C573.903 698.826 574.371 698.922 577.871 676.004C582.588 645.122 586.502 614.118 590.725 583.162C591.736 575.752 592.607 568.324 593.667 559.765Z" fill="white"/>
<path d="M694.122 645.087C691.12 642.684 688.885 640.798 686.469 639.183C677.95 633.491 677.551 627.769 684.172 619.538C697.715 602.704 710.141 584.976 723.269 567.801C727.627 562.099 728.232 557.933 723.116 551.671C709.972 535.585 697.998 518.549 685.381 502.026C676.687 490.64 677.219 486.26 688.832 478.029C692.22 475.627 695.196 471.625 698.864 470.898C703.326 470.015 710.621 470.031 712.724 472.739C731.558 496.99 750.194 521.469 767.214 546.998C771.001 552.677 771.49 564.931 767.857 570.433C750.925 596.078 732.099 620.48 713.761 645.186C707.942 653.026 701.241 649.34 694.122 645.087Z" fill="white"/>
<path d="M470.972 539.34C486.064 519.475 500.99 500.615 514.867 481.012C524.01 468.095 529.516 479.255 536.312 482.965C545.013 487.716 542.508 493.073 537.628 499.325C524.142 516.6 511.353 534.428 497.62 551.5C491.417 559.212 494.977 564.497 499.568 570.458C512.171 586.822 524.363 603.518 537.384 619.54C544.466 628.255 541.619 632.841 533.65 638.749C525.787 644.579 520.833 647.661 513.743 637.318C500.16 617.504 485.145 598.674 470.805 579.376C456.422 560.022 456.465 559.99 470.972 539.34Z" fill="white"/>
<defs>
<linearGradient id="paint0_linear_144_101" x1="1173" y1="66.0001" x2="-239.5" y2="1528.5" gradientUnits="userSpaceOnUse">
<stop stop-color="#70BBA6"/>
<stop offset="1" stop-color="#70BBA6" stop-opacity="0"/>
</linearGradient>
</defs>
</svg>
